/* XPM */
static char *result[] = {
/* columns rows colors chars-per-pixel */
"92 148 52 1 ",
"  c #6BA82B",
". c gray5",
"X c #1E1000",
"o c #191208",
"O c #111111",
"+ c #181818",
"@ c #2E1900",
"# c #301900",
"$ c #2C200F",
"% c #3F2D14",
"& c gray15",
"* c #282828",
"= c gray16",
"- c gray17",
"; c #2F2F2F",
": c gray19",
"> c #353535",
", c gray22",
"< c #393939",
"1 c #3E3E3E",
"2 c #50231D",
"3 c #573E1C",
"4 c #643400",
"5 c #663600",
"6 c #773E00",
"7 c #644821",
"8 c #715226",
"9 c #784530",
"0 c gray26",
"q c gray27",
"w c #464646",
"e c #484848",
"r c #4C4C4C",
"t c gray31",
"y c #555555",
"u c #5A5A5A",
"i c #686868",
"p c #834600",
"a c #864800",
"s c #945000",
"d c #975200",
"f c #A95A00",
"g c #AD5C00",
"h c #059300",
"j c #AD8600",
"k c #D8A700",
"l c #C48A5C",
"z c #E7AD63",
"x c #868686",
"c c #EBBF96",
"v c #FFDBBD",
"b c #B3BFCB",
/* pixels */
"                                                                                            ",
"                                                                                            ",
"                                                                                            ",
"                                                                                            ",
"                                                                                            ",
"                                                                                            ",
"                              ooooooooo$$$$$$$$$oooooooo                                    ",
"                              ooooooooo$$$$$$$$$oooooooo                                    ",
"                              ooooooooo$$$$$$$$$oooooooo                                    ",
"                      ooooo$$$%%%%%%333333333333%%%%%%%%$$$oooooo                           ",
"                      ooooo$$$%%%%%%333333333333%%%%%%%%$$$oooooo                           ",
"                      ooooo$$$%%%%%%333333333333%%%%%%%%$$$oooooo                           ",
"          ooo$$$oooooo$$$$$$$$$$$$$$%%%33333333333333333333%%%$$$ooo                        ",
"          ooo$$$oooooo$$$$$$$$$$$$$$%%%33333333333333333333%%%$$$ooo                        ",
"          ooo$$$oooooo$$$$$$$$$$$$$$%%%33333333333333333333%%%$$$ooo                        ",
"             ooo$$$%%%333%%$$$%%%777$$$$$$%%%33333333%%%333333%%%$$$ooo                     ",
"             ooo$$$%%%333%%$$$%%%777$$$$$$%%%33333333%%%333333%%%$$$ooo                     ",
"             ooo$$$$$$33333%%%$$$%%%88877733388833388$$$%%%333333%%%ooo                     ",
"             ooo$$$$$$33333%%%$$$%%%88877733388833388$$$%%%333333%%%ooo                     ",
"             ooo$$$$$$33333%%%$$$%%%88877733388833388$$$%%%333333%%%ooo                     ",
"       ooo$$$%%%333333%%%77%%%$$$$$$$$$%%%888333%%%88%%%$$$333333%%%$$$                     ",
"       ooo$$$%%%333333%%%77%%%$$$$$$$$$%%%888333%%%88%%%$$$333333%%%$$$                     ",
"       ooo$$$%%%333333%%%77%%%$$$$$$$$$%%%888333%%%88%%%$$$333333%%%$$$                     ",
"          ooo$$$%%%$$$77733$$$ooo%%%$$$777333%%%$$$33%%%ooo333333%%%%%%ooo                  ",
"          ooo$$$%%%$$$77733$$$ooo%%%$$$777333%%%$$$33%%%ooo333333%%%%%%ooo                  ",
"          ooo$$$%%%$$$77733$$$ooo%%%$$$777333%%%$$$33%%%ooo333333%%%%%%ooo                  ",
"             oooooo%%%777$$ooo%%%333ooo333%%%$$$ooo%%$$$ooo333%%%$$$%%%ooo                  ",
"             oooooo%%%777$$ooo%%%333ooo333%%%$$$ooo%%$$$ooo333%%%$$$%%%ooo                  ",
"             oooooo%%%777$$ooo%%%333ooo333%%%$$$ooo%%$$$ooo333%%%$$$%%%ooo                  ",
"             ooo$$$777333oovvv333ooovvv$$$oooooovvv%%ooovvv%%%$$$ooo%%%ooo                  ",
"             ooo$$$777333oovvv333ooovvv$$$oooooovvv%%ooovvv%%%$$$ooo%%%ooo                  ",
"             ooo$$$777333oovvv333ooovvv$$$oooooovvv%%ooovvv%%%$$$ooo%%%ooo                  ",
"             ooo%%%777$$$oovvvooovvvvvvooovvvvvvvvv$$vvv%%%$$$ooo$$$%%%ooo                  ",
"             ooo%%%777$$$oovvvooovvvvvvooovvvvvvvvv$$vvv%%%$$$ooo$$$%%%ooo                  ",
"             ooo%%%777$$$oovvvooovvvvvvooovvvvvvvvv$$vvv%%%$$$ooo$$$%%%ooo                  ",
"             ooo%%%333$$$vvvvvvvvvvvvvvvvvvvvvvvvvvvvvvvooovvv$$$$$$$$$ooo                  ",
"             ooo%%%333$$$vvvvvvvvvvvvvvvvvvvvvvvvvvvvvvvooovvv$$$$$$$$$ooo                  ",
"             ooo%%%333$$$vvvvvvvvvvvvvvvvvvvvvvvvvvvvvvvooovvv$$$$$$$$$ooo                  ",
"                ooo%%%oooccvvvvvvvvvvvvvvvvvvvvvvvvvvvvvvvvcccooo$$$ooo                     ",
"                ooo%%%oooccvvvvvvvvvvvvvvvvvvvvvvvvvvvvvvvvcccooo$$$ooo                     ",
"                ooo%%%oooccvvvvvvvvvvvvvvvvvvvvvvvvvvvvvvvvcccooo$$$ooo                     ",
"                ooo%%%ooo%%%%%333cccvvvvvvvvvvvvvvvcc333%%%%%%ooo$$$ooo                     ",
"                ooo%%%ooo%%%%%333cccvvvvvvvvvvvvvvvcc333%%%%%%ooo$$$ooo                     ",
"                222ooozzzll%%%%%%%%%333ccccccccc333%%%%%%%%lllzzzooo222                     ",
"                222ooozzzll%%%%%%%%%333ccccccccc333%%%%%%%%lllzzzooo222                     ",
"                222ooozzzll%%%%%%%%%333ccccccccc333%%%%%%%%lllzzzooo222                     ",
"                222ooozzz99bbbOOOOOOlllccccccccclllOOOOObbb999zzzooo222                     ",
"                222ooozzz99bbbOOOOOOlllccccccccclllOOOOObbb999zzzooo222                     ",
"                222ooozzz99bbbOOOOOOlllccccccccclllOOOOObbb999zzzooo222                     ",
"                222.................................................222                     ",
"                222.................................................222                     ",
"                222.................................................222                     ",
"                   222zzz..bbbhhhhhh...ccccccccc...hhhhhbbb...zzz222                        ",
"                   222zzz..bbbhhhhhh...ccccccccc...hhhhhbbb...zzz222                        ",
"                   222zzz..bbbhhhhhh...ccccccccc...hhhhhbbb...zzz222                        ",
"                   222lll..bbbhhhhhh...vvvvvvvvv...hhhhhbbb...lll222                        ",
"                   222lll..bbbhhhhhh...vvvvvvvvv...hhhhhbbb...lll222                        ",
"                   222lll..bbbhhhhhh...vvvvvvvvv...hhhhhbbb...lll222                        ",
"                      222zz.........vvv333333333vvv........zzz222                           ",
"                      222zz.........vvv333333333vvv........zzz222                           ",
"                      222zz.........vvv333333333vvv........zzz222                           ",
"                      &&&22222zzzccc333vvvvvvvvv333cczzz222222&&&&&&                        ",
"                      &&&22222zzzccc333vvvvvvvvv333cczzz222222&&&&&&                        ",
"                      &&&22222zzzccc333vvvvvvvvv333cczzz222222&&&&&&                        ",
"                   &&&,,,,,&&&222222%%%777777777%%%22222&&&,,,,,,&&&&&&                     ",
"                   &&&,,,,,&&&222222%%%777777777%%%22222&&&,,,,,,&&&&&&                     ",
"                &&&,,,eeettttt000,,,222222222222222,,000ttteeeeee000,,,&&&                  ",
"                &&&,,,eeettttt000,,,222222222222222,,000ttteeeeee000,,,&&&                  ",
"                &&&,,,eeettttt000,,,222222222222222,,000ttteeeeee000,,,&&&                  ",
"             &&&,,,ttteeetttttttt000ppp444444444ppp00ttttttttteeeeeeeee,,,&&&               ",
"             &&&,,,ttteeetttttttt000ppp444444444ppp00ttttttttteeeeeeeee,,,&&&               ",
"             &&&,,,ttteeetttttttt000ppp444444444ppp00ttttttttteeeeeeeee,,,&&&               ",
"             &&&eeetttttttttttttttttsssjjjppppppsssttttttttttt000eeettt000&&&               ",
"             &&&eeetttttttttttttttttsssjjjppppppsssttttttttttt000eeettt000&&&               ",
"             &&&eeetttttttttttttttttsssjjjppppppsssttttttttttt000eeettt000&&&               ",
"          &&&,,,ttttttttttttttttttttffffffkkkffffffttttttttttt,,,eeettteee,,,&&             ",
"          &&&,,,ttttttttttttttttttttffffffkkkffffffttttttttttt,,,eeettteee,,,&&             ",
"          &&&,,,ttttttttttttttttttttffffffkkkffffffttttttttttt,,,eeettteee,,,&&             ",
"          &&&000tttttt000eetttttttttfffkkkfffkkkffftttttttteee:::000eeettt000&&             ",
"          &&&000tttttt000eetttttttttfffkkkfffkkkffftttttttteee:::000eeettt000&&             ",
"          &&&000tttttt000eetttttttttfffkkkfffkkkffftttttttteee:::000eeettt000&&             ",
"          &&&ttttttttt,,,00ttttttfffffffffffffffffffftttttt000&&&,,,eeettteee&&             ",
"          &&&ttttttttt,,,00ttttttfffffffffffffffffffftttttt000&&&,,,eeettteee&&             ",
"          &&&ttttttttt,,,00ttttttfffffffffffffffffffftttttt000&&&,,,eeettteee&&             ",
"       &&&,,,tttttteee&&&ppffffffffffffuuuuuuuuufffffffffffppp   :::000eeeeee::&&&          ",
"       &&&,,,tttttteee&&&ppffffffffffffuuuuuuuuufffffffffffppp   :::000eeeeee::&&&          ",
"       &&&,,,tttttteee&&&ppffffffffffffuuuuuuuuufffffffffffppp   :::000eeeeee::&&&          ",
"       &&&,,,ttttttttt,,,&&<<<<<<<<<fffuuuuuuuuufff<<<<<<<<:::+++&&&,,,eeeeee,,&&&          ",
"       &&&,,,ttttttttt,,,&&<<<<<<<<<fffuuuuuuuuufff<<<<<<<<:::+++&&&,,,eeeeee,,&&&          ",
"       &&&,,,ttttttttt,,,&&<<<<<<<<<fffuuuuuuuuufff<<<<<<<<:::+++&&&,,,eeeeee,,&&&          ",
"       &&&,,,ttttttttteee,,uuuuuuuuu<<<uuuuuuuuu<<<uuuuuuuuttt:::&&&:::000000,,&&&          ",
"       &&&,,,ttttttttteee,,uuuuuuuuu<<<uuuuuuuuu<<<uuuuuuuuttt:::&&&:::000000,,&&&          ",
"          &&&eeettteee,,,,,---uuuuuuuuu<<<<<<<<<uuuuuuuu<<<:::+++,,,&&&,,,,,,&&             ",
"          &&&eeettteee,,,,,---uuuuuuuuu<<<<<<<<<uuuuuuuu<<<:::+++,,,&&&,,,,,,&&             ",
"          &&&eeettteee,,,,,---uuuuuuuuu<<<<<<<<<uuuuuuuu<<<:::+++,,,&&&,,,,,,&&             ",
"          &&&,,,eee,,,&&&ee,,,---uuuuuuuuuuuuuuuuuuuu<<<aaa555###,,,000000,,,&&             ",
"          &&&,,,eee,,,&&&ee,,,---uuuuuuuuuuuuuuuuuuuu<<<aaa555###,,,000000,,,&&             ",
"          &&&,,,eee,,,&&&ee,,,---uuuuuuuuuuuuuuuuuuuu<<<aaa555###,,,000000,,,&&             ",
"             &&&,,,&&&ttttt,,,&&&+++tttuuuuuuuuuttt++aaaaaa555###&&&,,,,,,&&&               ",
"             &&&,,,&&&ttttt,,,&&&+++tttuuuuuuuuuttt++aaaaaa555###&&&,,,,,,&&&               ",
"             &&&,,,&&&ttttt,,,&&&+++tttuuuuuuuuuttt++aaaaaa555###&&&,,,,,,&&&               ",
"             &&&&&&000tttee,,,&&&+++tttuuuuuutttttt++aaadddddd###   &&&&&&                  ",
"             &&&&&&000tttee,,,&&&+++tttuuuuuutttttt++aaadddddd###   &&&&&&                  ",
"             &&&&&&000tttee,,,&&&+++tttuuuuuutttttt++aaadddddd###   &&&&&&                  ",
"                   &&&000,,&&&aaaddd***ttttttttt***ggggggggddd###                           ",
"                   &&&000,,&&&aaaddd***ttttttttt***ggggggggddd###                           ",
"                   &&&000,,&&&aaaddd***ttttttttt***ggggggggddd###                           ",
"                   &&&&&&&&555ttttttttt*********gggggggggggddd###                           ",
"                   &&&&&&&&555ttttttttt*********gggggggggggddd###                           ",
"                   &&&&&&&&555ttttttttt*********gggggggggggddd###                           ",
"                         ##<<<qqqqqqqqq<<<aaaaaauuuuuuuugggaaa###                           ",
"                         ##<<<qqqqqqqqq<<<aaaaaauuuuuuuugggaaa###                           ",
"                         ##<<<qqqqqqqqq<<<aaaaaauuuuuuuugggaaa###                           ",
"                           ###<<<XXX<<<###666uuuuuuuuuuuuuu###                              ",
"                           ###<<<XXX<<<###666uuuuuuuuuuuuuu###                              ",
"                           ###<<<XXX<<<###666uuuuuuuuuuuuuu###                              ",
"                           ###iiiiiiiii###666ttt@@@uuuuuttt###                              ",
"                           ###iiiiiiiii###666ttt@@@uuuuuttt###                              ",
"                           ###555XXX555666666xxxxxxxxttt666###                              ",
"                           ###555XXX555666666xxxxxxxxttt666###                              ",
"                           ###555XXX555666666xxxxxxxxttt666###                              ",
"                           ###iiiiiiiii666dddggg@@@ggddd555###                              ",
"                           ###iiiiiiiii666dddggg@@@ggddd555###                              ",
"                           ###iiiiiiiii666dddggg@@@ggddd555###                              ",
"                           ===666XXX666###dddxxxxxxxxggg555###                              ",
"                           ===666XXX666###dddxxxxxxxxggg555###                              ",
"                           ===666XXX666###dddxxxxxxxxggg555###                              ",
"                         ==111>>>>>>>>>;;;###ggg@@@ggddd666###                              ",
"                         ==111>>>>>>>>>;;;###ggg@@@ggddd666###                              ",
"                         ==111>>>>>>>>>;;;###ggg@@@ggddd666###                              ",
"                         ==;;;;;;;;;;;;>>>###66655555666###===                              ",
"                         ==;;;;;;;;;;;;>>>###66655555666###===                              ",
"                         ==;;;;;;;;;;;;>>>###66655555666###===                              ",
"                           ============;;;>>>rrryyyyy>>>rrr===                              ",
"                           ============;;;>>>rrryyyyy>>>rrr===                              ",
"                           ============;;;>>>rrryyyyy>>>rrr===                              ",
"                                       ;;;>>>;;;;;;;;www>>>;;;                              ",
"                                       ;;;>>>;;;;;;;;www>>>;;;                              ",
"                                       ;;;>>>;;;;;;;;www>>>;;;                              ",
"                                          ===========;;;;;;                                 ",
"                                          ===========;;;;;;                                 ",
"                                                                                            ",
"                                                                                            ",
"                                                                                            ",
"                                                                                            ",
"                                                                                            ",
"                                                                                            ",
"                                                                                            "
};
