/* XPM */
static char *result[] = {
/* columns rows colors chars-per-pixel */
"92 148 44 1 ",
"  c #6BA82B",
". c gray5",
"X c #191208",
"o c #1C1409",
"O c #111111",
"+ c #181818",
"@ c #2E1900",
"# c #2C200F",
"$ c #3F2D14",
"% c gray15",
"& c #282828",
"* c gray16",
"= c #2F2F2F",
"- c gray19",
"; c #353535",
": c gray22",
"> c #393939",
", c #3E3E3E",
"< c #502900",
"1 c #50231D",
"2 c #573E1C",
"3 c #643400",
"4 c #644821",
"5 c #715226",
"6 c #784530",
"7 c gray26",
"8 c #464646",
"9 c #484848",
"0 c #4C4C4C",
"q c gray31",
"w c #555555",
"e c #5A5A5A",
"r c #834600",
"t c #945000",
"y c #A95A00",
"u c #059300",
"i c #AD8600",
"p c #D8A700",
"a c #C48A5C",
"s c #E7AD63",
"d c #868686",
"f c #EBBF96",
"g c #FFDBBD",
"h c #B3BFCB",
/* pixels */
"                                                                                            ",
"                                                                                            ",
"                                                                                            ",
"                                 XXXXXXXX#########XXXXXXXXX                                 ",
"                                 XXXXXXXX#########XXXXXXXXX                                 ",
"                                 XXXXXXXX#########XXXXXXXXX                                 ",
"                        XXXXXX###$$$$$$22222222222$$$$$$$$$###XXXXX                         ",
"                        XXXXXX###$$$$$$22222222222$$$$$$$$$###XXXXX                         ",
"                        XXXXXX###$$$$$$22222222222$$$$$$$$$###XXXXX                         ",
"             XX###XXXXXX###############$$222222222222222222222$$$##XXX                      ",
"             XX###XXXXXX###############$$222222222222222222222$$$##XXX                      ",
"             XX###XXXXXX###############$$222222222222222222222$$$##XXX                      ",
"               XXX###$$$222$$$###$$$444#####$$$222222222$$$222222$$###XXX                   ",
"               XXX###$$$222$$$###$$$444#####$$$222222222$$$222222$$###XXX                   ",
"               XXX###$$$222$$$###$$$444#####$$$222222222$$$222222$$###XXX                   ",
"               XXX######222222$$$###$$$55444222555222555###$$$22222$$$XXX                   ",
"               XXX######222222$$$###$$$55444222555222555###$$$22222$$$XXX                   ",
"          XXX##$$$222222$$$444$$$########$$$555222$$$555$$$###22222$$$###                   ",
"          XXX##$$$222222$$$444$$$########$$$555222$$$555$$$###22222$$$###                   ",
"          XXX##$$$222222$$$444$$$########$$$555222$$$555$$$###22222$$$###                   ",
"             XX###$$$###444222###XXX$$$##444222$$$###222$$$XXX22222$$$$$$XXX                ",
"             XX###$$$###444222###XXX$$$##444222$$$###222$$$XXX22222$$$$$$XXX                ",
"             XX###$$$###444222###XXX$$$##444222$$$###222$$$XXX22222$$$$$$XXX                ",
"               XXXXXX$$$444###XXX$$$222XX222$$$###XXX$$$###XXX222$$###$$$XXX                ",
"               XXXXXX$$$444###XXX$$$222XX222$$$###XXX$$$###XXX222$$###$$$XXX                ",
"               XXXXXX$$$444###XXX$$$222XX222$$$###XXX$$$###XXX222$$###$$$XXX                ",
"               XXX###444222XXXggg222XXXgg###XXXXXXggg$$$XXXggg$$$##XXX$$$XXX                ",
"               XXX###444222XXXggg222XXXgg###XXXXXXggg$$$XXXggg$$$##XXX$$$XXX                ",
"               XXX###444222XXXggg222XXXgg###XXXXXXggg$$$XXXggg$$$##XXX$$$XXX                ",
"               XXX$$$444###XXXgggXXXgggggXXXggggggggg###ggg$$$###XX###$$$XXX                ",
"               XXX$$$444###XXXgggXXXgggggXXXggggggggg###ggg$$$###XX###$$$XXX                ",
"               XXX$$$444###XXXgggXXXgggggXXXggggggggg###ggg$$$###XX###$$$XXX                ",
"               XXX$$$222###ggggggggggggggggggggggggggggggggXXXggg########XXX                ",
"               XXX$$$222###ggggggggggggggggggggggggggggggggXXXggg########XXX                ",
"               XXX$$$222###ggggggggggggggggggggggggggggggggXXXggg########XXX                ",
"                  XXX$$$XXXfffggggggggggggggggggggggggggggggggfffXX###XXX                   ",
"                  XXX$$$XXXfffggggggggggggggggggggggggggggggggfffXX###XXX                   ",
"                  XXX$$$XXXfffggggggggggggggggggggggggggggggggfffXX###XXX                   ",
"                  XXX$$$XXX$$$$$$222fffggggggggggggggfff222$$$$$$XX###XXX                   ",
"                  XXX$$$XXX$$$$$$222fffggggggggggggggfff222$$$$$$XX###XXX                   ",
"                  XXX$$$XXX$$$$$$222fffggggggggggggggfff222$$$$$$XX###XXX                   ",
"                  111XXXsssaaa$$$$$$$$$22fffffffff222$$$$$$$$$aaassXXX111                   ",
"                  111XXXsssaaa$$$$$$$$$22fffffffff222$$$$$$$$$aaassXXX111                   ",
"                  111XXXsss666hhhOOOOOOaafffffffffaaaOOOOOOhhh666ssXXX111                   ",
"                  111XXXsss666hhhOOOOOOaafffffffffaaaOOOOOOhhh666ssXXX111                   ",
"                  111XXXsss666hhhOOOOOOaafffffffffaaaOOOOOOhhh666ssXXX111                   ",
"                  111.................................................111                   ",
"                  111.................................................111                   ",
"                  111.................................................111                   ",
"                     111sss...hhhuuuuuu..fffffffff...uuuuuuhhh...ss111                      ",
"                     111sss...hhhuuuuuu..fffffffff...uuuuuuhhh...ss111                      ",
"                     111sss...hhhuuuuuu..fffffffff...uuuuuuhhh...ss111                      ",
"                     111aaa...hhhuuuuuu..ggggggggg...uuuuuuhhh...aa111                      ",
"                     111aaa...hhhuuuuuu..ggggggggg...uuuuuuhhh...aa111                      ",
"                     111aaa...hhhuuuuuu..ggggggggg...uuuuuuhhh...aa111                      ",
"                        111sss.........gg222222222ggg.........sss11                         ",
"                        111sss.........gg222222222ggg.........sss11                         ",
"                        111sss.........gg222222222ggg.........sss11                         ",
"                        %%%111111sssfff22ggggggggg222fffsss111111%%                         ",
"                        %%%111111sssfff22ggggggggg222fffsss111111%%                         ",
"                        %%%111111sssfff22ggggggggg222fffsss111111%%                         ",
"                  %%%%%%::::::%%%111111$$444444444$$$111111%%%:::::%%%%%%                   ",
"                  %%%%%%::::::%%%111111$$444444444$$$111111%%%:::::%%%%%%                   ",
"                  %%%%%%::::::%%%111111$$444444444$$$111111%%%:::::%%%%%%                   ",
"               %%%:::777999999777:::%%%11111111111111%%%:::77799999777:::%%%                ",
"               %%%:::777999999777:::%%%11111111111111%%%:::77799999777:::%%%                ",
"             %%:::777999qqqqqqqqq999777rr333333333rrr777999qqqqqqqq999777:::%%%             ",
"             %%:::777999qqqqqqqqq999777rr333333333rrr777999qqqqqqqq999777:::%%%             ",
"             %%:::777999qqqqqqqqq999777rr333333333rrr777999qqqqqqqq999777:::%%%             ",
"          %%%::999999777999qqqqqqqqqqqqttiiirrrrrrtttqqqqqqqqqqqq99777999999:::%%%          ",
"          %%%::999999777999qqqqqqqqqqqqttiiirrrrrrtttqqqqqqqqqqqq99777999999:::%%%          ",
"          %%%::999999777999qqqqqqqqqqqqttiiirrrrrrtttqqqqqqqqqqqq99777999999:::%%%          ",
"          %%%99qqq999777999qqqqqqqqqqqqyyyyypppyyyyyyqqqqqqqqqqqq99777999qqq999%%%          ",
"          %%%99qqq999777999qqqqqqqqqqqqyyyyypppyyyyyyqqqqqqqqqqqq99777999qqq999%%%          ",
"          %%%99qqq999777999qqqqqqqqqqqqyyyyypppyyyyyyqqqqqqqqqqqq99777999qqq999%%%          ",
"       %%%77799qqq999999:::999qqqqqqqqqyypppyyypppyyyqqqqqqqqq999::999999qqq999777%%%       ",
"       %%%77799qqq999999:::999qqqqqqqqqyypppyyypppyyyqqqqqqqqq999::999999qqq999777%%%       ",
"       %%%77799qqq999999:::999qqqqqqqqqyypppyyypppyyyqqqqqqqqq999::999999qqq999777%%%       ",
"       %%%999qq999yyyttt%%%777qqqqqqyyyyyyyyyyyyyyyyyyyyqqqqqq777%%tttyyy999qqq999%%%       ",
"       %%%999qq999yyyttt%%%777qqqqqqyyyyyyyyyyyyyyyyyyyyqqqqqq777%%tttyyy999qqq999%%%       ",
"       %%%999qq999yyyttt%%%777qqqqqqyyyyyyyyyyyyyyyyyyyyqqqqqq777%%tttyyy999qqq999%%%       ",
"    %%%777999qqyyytttttt%%%rrryyyyyyyyyyyeeeeeeeeeyyyyyyyyyyyyrrr%%ttttttyyyqqq999777%%%    ",
"    %%%777999qqyyytttttt%%%rrryyyyyyyyyyyeeeeeeeeeyyyyyyyyyyyyrrr%%ttttttyyyqqq999777%%%    ",
"    %%%777999qqyyytttttt%%%rrryyyyyyyyyyyeeeeeeeeeyyyyyyyyyyyyrrr%%ttttttyyyqqq999777%%%    ",
"    %%%999qqqqqyyytttrrr+++&&&>>>>>>>>>yyeeeeeeeeeyyy>>>>>>>>>&&&++rrrtttyyyqqqqqq999%%%    ",
"    %%%999qqqqqyyytttrrr+++&&&>>>>>>>>>yyeeeeeeeeeyyy>>>>>>>>>&&&++rrrtttyyyqqqqqq999%%%    ",
"    %%%999qqqqqyyytttrrr+++&&&>>>>>>>>>yyeeeeeeeeeyyy>>>>>>>>>&&&++rrrtttyyyqqqqqq999%%%    ",
" %%%:::999999yytttrrr   ---qqqeeeeeeeee>>eeeeeeeee>>>eeeeeeeeeqqq--   rrrtttyyy999999:::%%% ",
" %%%:::999999yytttrrr   ---qqqeeeeeeeee>>eeeeeeeee>>>eeeeeeeeeqqq--   rrrtttyyy999999:::%%% ",
" %%%:::999999yytttrrr   ---qqqeeeeeeeee>>eeeeeeeee>>>eeeeeeeeeqqq--   rrrtttyyy999999:::%%% ",
" %%%777999999yyttt333   +++&&&>>>eeeeeeee>>>>>>>>>eeeeeeeee>>>&&&++   333tttyyy999999777%%% ",
" %%%777999999yyttt333   +++&&&>>>eeeeeeee>>>>>>>>>eeeeeeeee>>>&&&++   333tttyyy999999777%%% ",
" %%%---999yyyttrrr      333333rrr>>>eeeeeeeeeeeeeeeeeeee>>>rrr33333      rrrtttyyy999---%%% ",
" %%%---999yyyttrrr      333333rrr>>>eeeeeeeeeeeeeeeeeeee>>>rrr33333      rrrtttyyy999---%%% ",
" %%%---999yyyttrrr      333333rrr>>>eeeeeeeeeeeeeeeeeeee>>>rrr33333      rrrtttyyy999---%%% ",
" %%%:::--------777%%%   @@@333tttrrr+++qqeeeeeeeeeqqq+++rrrttt333@@   %%%777---------:::%%% ",
" %%%:::--------777%%%   @@@333tttrrr+++qqeeeeeeeeeqqq+++rrrttt333@@   %%%777---------:::%%% ",
" %%%:::--------777%%%   @@@333tttrrr+++qqeeeeeeeeeqqq+++rrrttt333@@   %%%777---------:::%%% ",
" %%%:::999qqqqq777%%%   @@@rrrtttttt+++qqeeeeeeqqqqqq+++tttttt333@@   %%%777qqqqqq999:::%%% ",
" %%%:::999qqqqq777%%%   @@@rrrtttttt+++qqeeeeeeqqqqqq+++tttttt333@@   %%%777qqqqqq999:::%%% ",
" %%%:::999qqqqq777%%%   @@@rrrtttttt+++qqeeeeeeqqqqqq+++tttttt333@@   %%%777qqqqqq999:::%%% ",
"    %%%:::99999%%%      @@@tttyyyyyyyyy&&qqqqqqqqq&&&yyyyyyyyyttt@@      %%%999999:::%%%    ",
"    %%%:::99999%%%      @@@tttyyyyyyyyy&&qqqqqqqqq&&&yyyyyyyyyttt@@      %%%999999:::%%%    ",
"    %%%:::99999%%%      @@@tttyyyyyyyyy&&qqqqqqqqq&&&yyyyyyyyyttt@@      %%%999999:::%%%    ",
"       %%%%%%%%         @@@tttyyyyyyyyyyy&&&&&&&&&yyyyyyyyyyyyttt@@         %%%%%%%%%       ",
"       %%%%%%%%         @@@tttyyyyyyyyyyy&&&&&&&&&yyyyyyyyyyyyttt@@         %%%%%%%%%       ",
"       %%%%%%%%         @@@tttyyyyyyyyyyy&&&&&&&&&yyyyyyyyyyyyttt@@         %%%%%%%%%       ",
"                        @@@rrryyyyyyyyytt333@@@333tttyyyyyyyyyrrr@@                         ",
"                        @@@rrryyyyyyyyytt333@@@333tttyyyyyyyyyrrr@@                         ",
"                        @@@rrryyyyyyyyytt333@@@333tttyyyyyyyyyrrr@@                         ",
"                           @@@yyyeeeeeett333@@@333ttteeeeeeyyy@@@                           ",
"                           @@@yyyeeeeeett333@@@333ttteeeeeeyyy@@@                           ",
"                           @@@yyyeeeeeett333@@@333ttteeeeeeyyy@@@                           ",
"                           @@@qqqeeeeeeqq333@@@333qqqeeeeeeqqq@@@                           ",
"                           @@@qqqeeeeeeqq333@@@333qqqeeeeeeqqq@@@                           ",
"                           @@@qqqeeeeeeqq333@@@333qqqeeeeeeqqq@@@                           ",
"                        @@@333>>>qqqqqq>>@@@@@@@@@>>>qqqqqq>>>333@@                         ",
"                        @@@333>>>qqqqqq>>@@@@@@@@@>>>qqqqqq>>>333@@                         ",
"                        @@@rrrttt>>>@@@rr333@@@333rrr@@@>>>tttrrr@@                         ",
"                        @@@rrrttt>>>@@@rr333@@@333rrr@@@>>>tttrrr@@                         ",
"                        @@@rrrttt>>>@@@rr333@@@333rrr@@@>>>tttrrr@@                         ",
"                        @@@rrrtttddddddddrrr@@@rrrdddddddddtttrrr@@                         ",
"                        @@@rrrtttddddddddrrr@@@rrrdddddddddtttrrr@@                         ",
"                        @@@rrrtttddddddddrrr@@@rrrdddddddddtttrrr@@                         ",
"                           @@@tttttt@@@tt333ooo333ttt@@@tttttt@@@                           ",
"                           @@@tttttt@@@tt333ooo333ttt@@@tttttt@@@                           ",
"                           @@@tttttt@@@tt333ooo333ttt@@@tttttt@@@                           ",
"                           @@@rrrdddddddd@@@***@@@dddddddddrrr@@@                           ",
"                           @@@rrrdddddddd@@@***@@@dddddddddrrr@@@                           ",
"                           @@@rrrdddddddd@@@***@@@dddddddddrrr@@@                           ",
"                        ===@@@rrrttt@@@tt@@@***@@@ttt@@@tttrrr@@@==                         ",
"                        ===@@@rrrttt@@@tt@@@***@@@ttt@@@tttrrr@@@==                         ",
"                        ===@@@rrrttt@@@tt@@@***@@@ttt@@@tttrrr@@@==                         ",
"                        ===000<<<<<<<<<<<888***888<<<<<<<<<<<<000==                         ",
"                        ===000<<<<<<<<<<<888***888<<<<<<<<<<<<000==                         ",
"                        ===000<<<<<<<<<<<888***888<<<<<<<<<<<<000==                         ",
"                        ===;;;888www00088;;;***;;;888000www888;;;==                         ",
"                        ===;;;888www00088;;;***;;;888000www888;;;==                         ",
"                        ===;;;888www00088;;;***;;;888000www888;;;==                         ",
"                           ===,,,,,,,,,,,===   ===,,,,,,,,,,,,===                           ",
"                           ===,,,,,,,,,,,===   ===,,,,,,,,,,,,===                           ",
"                                                                                            ",
"                                                                                            ",
"                                                                                            ",
"                                                                                            ",
"                                                                                            ",
"                                                                                            ",
"                                                                                            "
};
