/* XPM */
static char *ded984db2f744ed2c87b57b9303006faiKuYPCqLGzMs8243[] = {
/* columns rows colors chars-per-pixel */
"98 147 32 1 ",
"  c #6BA82B",
". c #100B05",
"X c #1A0D00",
"o c #191208",
"O c #181818",
"+ c #281500",
"@ c #2C200F",
"# c #3F2D14",
"$ c gray15",
"% c #282828",
"& c gray19",
"* c #353535",
"= c gray22",
"- c #3E3E3E",
"; c #520000",
": c #6C0000",
"> c #462500",
", c #4C2800",
"< c #5E3100",
"1 c #573E1C",
"2 c #643400",
"3 c #644821",
"4 c gray26",
"5 c #464646",
"6 c #484848",
"7 c gray31",
"8 c #5A5A5A",
"9 c #834600",
"0 c #854600",
"q c #945000",
"w c #995000",
"e c #A95A00",
/* pixels */
"                                                                                                  ",
"                                                                                                  ",
"                                                                                                  ",
"                                                                                                  ",
"                                                                                                  ",
"                                   oooooooo@@@@@@@@@ooooooooo                                     ",
"                          oooooo@@@########111111111111######@@@ooooo                             ",
"                          oooooo@@@########111111111111######@@@ooooo                             ",
"                          oooooo@@@########111111111111######@@@ooooo                             ",
"                       ooo@@@###11111111111111111333333333333111###@@oooooo@@@ooo                 ",
"                       ooo@@@###11111111111111111333333333333111###@@oooooo@@@ooo                 ",
"                       ooo@@@###11111111111111111333333333333111###@@oooooo@@@ooo                 ",
"                    ooo@@@###1113333331111111111111111111133333333311###@@@ooo                    ",
"                    ooo@@@###1113333331111111111111111111133333333311###@@@ooo                    ",
"                    ooo@@@###1113333331111111111111111111133333333311###@@@ooo                    ",
"                    ooo###1113333333331111111111111111133333333333311@@@@@@ooo                    ",
"                    ooo###1113333333331111111111111111133333333333311@@@@@@ooo                    ",
"                    ooo###1113333333331111111111111111133333333333311@@@@@@ooo                    ",
"                    @@@###33333311111133333333333111333333333333333##111111###@@@ooo              ",
"                    @@@###33333311111133333333333111333333333333333##111111###@@@ooo              ",
"                    @@@###33333311111133333333333111333333333333333##111111###@@@ooo              ",
"                 ooo@@@###1111111113333333333333333333311133333311133@@@###@@@ooo                 ",
"                 ooo@@@###1111111113333333333333333333311133333311133@@@###@@@ooo                 ",
"                 ooo@@@###1111111113333333333333333333311133333311133@@@###@@@ooo                 ",
"                 ooo######111###1113333333311133333333311133333311133###oooooo                    ",
"                 ooo######111###1113333333311133333333311133333311133###oooooo                    ",
"                 ooo######111###1113333333311133333333311133333311133###oooooo                    ",
"                 ooo######111###11111133311###111333111###11133311111333@@@ooo                    ",
"                 ooo######111###11111133311###111333111###11133311111333@@@ooo                    ",
"                 ooo#########@@@###11111111###111333111######333111##333###ooo                    ",
"                 ooo#########@@@###11111111###111333111######333111##333###ooo                    ",
"                 ooo#########@@@###11111111###111333111######333111##333###ooo                    ",
"                 ooo@@@###@@@@@@@@@111111##@@@111111111###@@@111111@@111###ooo                    ",
"                 ooo@@@###@@@@@@@@@111111##@@@111111111###@@@111111@@111###ooo                    ",
"                 ooo@@@###@@@@@@@@@111111##@@@111111111###@@@111111@@111###ooo                    ",
"                    @@@###ooo@@@ooo######@@ooo###111111@@@@@@111###@@###ooo                       ",
"                    @@@###ooo@@@ooo######@@ooo###111111@@@@@@111###@@###ooo                       ",
"                    @@@###ooo@@@ooo######@@ooo###111111@@@@@@111###@@###ooo                       ",
"                    ooo@@@ooo@@@ooo@@@###@@ooo###111###@@@ooo###@@@oo###ooo                       ",
"                    ooo@@@ooo@@@ooo@@@###@@ooo###111###@@@ooo###@@@oo###ooo                       ",
"                    ooo@@@ooo@@@ooo@@@###@@ooo###111###@@@ooo###@@@oo###ooo                       ",
"                    ooooooooo@@@###ooo@@@oo@@@@@@111###@@@ooo###ooooooooooo                       ",
"                    ooooooooo@@@###ooo@@@oo@@@@@@111###@@@ooo###ooooooooooo                       ",
"                    ooooooooo@@@###ooo@@@oo@@@@@@111###@@@ooo###ooooooooooo                       ",
"                    ...ooo@@@ooo###ooo@@@oo@@@@@@###@@@ooo@@@ooooooooooo...                       ",
"                    ...ooo@@@ooo###ooo@@@oo@@@@@@###@@@ooo@@@ooooooooooo...                       ",
"                    ...ooo@@@ooo###ooo@@@oo@@@@@@###@@@ooo@@@ooooooooooo...                       ",
"                    ...ooo@@@ooo@@@###@@@@@@@@@@@###ooo@@@@@@ooo@@@ooooo...                       ",
"                    ...ooo@@@ooo@@@###@@@@@@@@@@@###ooo@@@@@@ooo@@@ooooo...                       ",
"                    ...ooo@@@ooo@@@###@@@@@@@@@@@###ooo@@@@@@ooo@@@ooooo...                       ",
"                       ...@@@@@@ooo###@@@@@@@@@@@@@@oooooo@@@ooo@@@oo...                          ",
"                       ...@@@@@@ooo###@@@@@@@@@@@@@@oooooo@@@ooo@@@oo...                          ",
"                       ...@@@@@@ooo###@@@@@@@@@@@@@@oooooo@@@ooo@@@oo...                          ",
"                       ...ooo@@@ooo@@@ooo@@@@@ooo@@@oooooooooooo@@@oo...                          ",
"                       ...ooo@@@ooo@@@ooo@@@@@ooo@@@oooooooooooo@@@oo...                          ",
"                          ...@@@ooooooooo@@@@@ooo@@@ooooooooooooooo..                             ",
"                          ...@@@ooooooooo@@@@@ooo@@@ooooooooooooooo..                             ",
"                          ...@@@ooooooooo@@@@@ooo@@@ooooooooooooooo..                             ",
"                          ...oooooo...ooo@@ooo...ooooooooo...oooooo..                             ",
"                          ...oooooo...ooo@@ooo...ooooooooo...oooooo..                             ",
"                          ...oooooo...ooo@@ooo...ooooooooo...oooooo..                             ",
"                    $$$$$$===...oooeee...oo...eee...ooo...eee......==$$$$$$                       ",
"                    $$$$$$===...oooeee...oo...eee...ooo...eee......==$$$$$$                       ",
"                    $$$$$$===...oooeee...oo...eee...ooo...eee......==$$$$$$                       ",
"                 $$$===444666qqqeeeeeeeeeeeeeeeeeeeeeeeeeeeeeeeeqqq66444===$$$                    ",
"                 $$$===444666qqqeeeeeeeeeeeeeeeeeeeeeeeeeeeeeeeeqqq66444===$$$                    ",
"                 $$$===444666qqqeeeeeeeeeeeeeeeeeeeeeeeeeeeeeeeeqqq66444===$$$                    ",
"               $$===444666777qqqeeeeeeeeeeeeeeeeeeeeeeeeeeeeeeeeqqq77666444===$$$                 ",
"               $$===444666777qqqeeeeeeeeeeeeeeeeeeeeeeeeeeeeeeeeqqq77666444===$$$                 ",
"               $$===444666777qqqeeeeeeeeeeeeeeeeeeeeeeeeeeeeeeeeqqq77666444===$$$                 ",
"            $$$==666666444666qqqeeeeeeeeeeeeeeeeeeeeeeeeeeeeeeeeqqq66444666666===$$$              ",
"            $$$==666666444666qqqeeeeeeeeeeeeeeeeeeeeeeeeeeeeeeeeqqq66444666666===$$$              ",
"            $$$==666666444666qqqeeeeeeeeeeeeeeeeeeeeeeeeeeeeeeeeqqq66444666666===$$$              ",
"            $$$66777666444666qqqqqqeeeeeeeeeeeeeeeeeeeeeeeeeeqqqqqq66444666777666$$$              ",
"            $$$66777666444666qqqqqqeeeeeeeeeeeeeeeeeeeeeeeeeeqqqqqq66444666777666$$$              ",
"            $$$66777666444666qqqqqqeeeeeeeeeeeeeeeeeeeeeeeeeeqqqqqq66444666777666$$$              ",
"         $$$44466777666666===666qqqqqqeeeeeeeeeeeeeeeeeeeeqqqqqq666==666666777666444$$$           ",
"         $$$44466777666666===666qqqqqqeeeeeeeeeeeeeeeeeeeeqqqqqq666==666666777666444$$$           ",
"         $$$44466777666666===666qqqqqqeeeeeeeeeeeeeeeeeeeeqqqqqq666==666666777666444$$$           ",
"         $$$66677666eeeqqq$$$,,,222qqqeee;;;;;;;;;;;;;;eeeqqq222,,,$$qqqeee666777666$$$           ",
"         $$$66677666eeeqqq$$$,,,222qqqeee;;;;;;;;;;;;;;eeeqqq222,,,$$qqqeee666777666$$$           ",
"      $$$44466677eeeqqqqqq$$$,,,222qqq;;;::::::::::::::;;;qqq222,,,$$qqqqqqeee777666444$$$        ",
"      $$$44466677eeeqqqqqq$$$,,,222qqq;;;::::::::::::::;;;qqq222,,,$$qqqqqqeee777666444$$$        ",
"      $$$44466677eeeqqqqqq$$$,,,222qqq;;;::::::::::::::;;;qqq222,,,$$qqqqqqeee777666444$$$        ",
"      $$$66677777eeeqqq999OOO%%%================================%%%OO999qqqeee777777666$$$        ",
"      $$$66677777eeeqqq999OOO%%%================================%%%OO999qqqeee777777666$$$        ",
"      $$$66677777eeeqqq999OOO%%%================================%%%OO999qqqeee777777666$$$        ",
"   $$$===666666eeqqq999   %%%77788888888888888888888888888888888777%%   999qqqeee666666===$$$     ",
"   $$$===666666eeqqq999   %%%77788888888888888888888888888888888777%%   999qqqeee666666===$$$     ",
"   $$$===666666eeqqq999   %%%77788888888888888888888888888888888777%%   999qqqeee666666===$$$     ",
"   $$$444666666eeqqq222   $$$77788888888888888888888888888888888777%%   222qqqeee666666444$$$     ",
"   $$$444666666eeqqq222   $$$77788888888888888888888888888888888777%%   222qqqeee666666444$$$     ",
"   $$$444666666eeqqq222   $$$77788888888888888888888888888888888777%%   222qqqeee666666444$$$     ",
"   $$$&&&666eeeqq999      OOO%%%================================%%%OO      999qqqeee666&&&$$$     ",
"   $$$&&&666eeeqq999      OOO%%%================================%%%OO      999qqqeee666&&&$$$     ",
"   $$$&&&666eeeqq999      OOO%%%================================%%%OO      999qqqeee666&&&$$$     ",
"   $$$===&&&&&&&&444$$$   >>><<<wwwwwwwwwwwwww<<<wwwwwwwwwwwwwww<<<>>   $$$444&&&&&&&&&===$$$     ",
"   $$$===&&&&&&&&444$$$   >>><<<wwwwwwwwwwwwww<<<wwwwwwwwwwwwwww<<<>>   $$$444&&&&&&&&&===$$$     ",
"   $$$===&&&&&&&&444$$$   >>><<<wwwwwwwwwwwwww<<<wwwwwwwwwwwwwww<<<>>   $$$444&&&&&&&&&===$$$     ",
"   $$$===66677777444$$$   >>><<<wwwwwwwwwwwwww>>>wwwwwwwwwwwwwww<<<>>   $$$444777777666===$$$     ",
"   $$$===66677777444$$$   >>><<<wwwwwwwwwwwwww>>>wwwwwwwwwwwwwww<<<>>   $$$444777777666===$$$     ",
"   $$$===66677777444$$$   >>><<<wwwwwwwwwwwwww>>>wwwwwwwwwwwwwww<<<>>   $$$444777777666===$$$     ",
"      $$$===66666$$$      >>>000000wwwwwwwwwww>>>wwwwwwwwwwww000000>>      $$$666666===$$$        ",
"      $$$===66666$$$      >>>000000wwwwwwwwwww>>>wwwwwwwwwwww000000>>      $$$666666===$$$        ",
"         $$$$$$$$         +++000www000000>>+++++++++>>>000000www000++         $$$$$$$$$           ",
"         $$$$$$$$         +++000www000000>>+++++++++>>>000000www000++         $$$$$$$$$           ",
"         $$$$$$$$         +++000www000000>>+++++++++>>>000000www000++         $$$$$$$$$           ",
"                          +++000wwwwww00000>>>+++>>>000000wwwwww000++                             ",
"                          +++000wwwwww00000>>>+++>>>000000wwwwww000++                             ",
"                          +++000wwwwww00000>>>+++>>>000000wwwwww000++                             ",
"                          OOO%%%%%%%%%%%%%%%%%OOO%%%%%%%%%%%%%%%%%%OO                             ",
"                          OOO%%%%%%%%%%%%%%%%%OOO%%%%%%%%%%%%%%%%%%OO                             ",
"                          OOO%%%%%%%%%%%%%%%%%OOO%%%%%%%%%%%%%%%%%%OO                             ",
"                          OOO======777777=====OOO======777777======OO                             ",
"                          OOO======777777=====OOO======777777======OO                             ",
"                          OOO======777777=====OOO======777777======OO                             ",
"                          OOO=================OOO==================OO                             ",
"                          OOO=================OOO==================OO                             ",
"                          OOO=================OOO==================OO                             ",
"                          >>>%%%%%%%%%%%%%%%%%>>>%%%%%%%%%%%%%%%%%%>>                             ",
"                          >>>%%%%%%%%%%%%%%%%%>>>%%%%%%%%%%%%%%%%%%>>                             ",
"                          >>>%%%%%%%%%%%%%%%%%>>>%%%%%%%%%%%%%%%%%%>>                             ",
"                          >>><<<000000000<<<<<XXX<<<<<<000000000<<<>>                             ",
"                          >>><<<000000000<<<<<XXX<<<<<<000000000<<<>>                             ",
"                          >>><<<000000000<<<<<XXX<<<<<<000000000<<<>>                             ",
"                          >>><<<000000000<<<<<XXX<<<<<<000000000<<<>>                             ",
"                          >>><<<000000000<<<<<XXX<<<<<<000000000<<<>>                             ",
"                          >>><<<000000000<<<<<XXX<<<<<<000000000<<<>>                             ",
"                          >>>>>>000000000<<>>>XXX>>><<<000000000>>>>>                             ",
"                          >>>>>>000000000<<>>>XXX>>><<<000000000>>>>>                             ",
"                          ++++++>>>>>>>>>>>XXXXXXXXX>>>>>>>>>>>>+++                               ",
"                          ++++++>>>>>>>>>>>XXXXXXXXX>>>>>>>>>>>>+++                               ",
"                          ++++++>>>>>>>>>>>XXXXXXXXX>>>>>>>>>>>>+++                               ",
"                          %%%---+++++++++++---%%%---++++++++++++---%%                             ",
"                          %%%---+++++++++++---%%%---++++++++++++---%%                             ",
"                          %%%---+++++++++++---%%%---++++++++++++---%%                             ",
"                          %%%---55577777655---%%%---555777666555---%%                             ",
"                          %%%---55577777655---%%%---555777776555---%%                             ",
"                          %%%---55577777755---%%%---555777777555---%%                             ",
"                             %%%***********$%%   %%%************%%%                               ",
"                             %%%***********%%%   %%%************%%%                               ",
"                             %%%***********%%%   %%%************%%%                               ",
"                                                                                                  ",
"                                                                                                  ",
"                                                                                                  ",
"                                                                                                  ",
"                                                                                                  "
};
