/* XPM */
static char *ddaf987b031a497ba5dfe045b5a7263dpXOgFVY6lPMyaeL9[] = {
/* columns rows colors chars-per-pixel */
"98 147 34 1 ",
"  c #6BA82B",
". c #100B05",
"X c #190D00",
"o c #191208",
"O c #181818",
"+ c #251400",
"@ c #2C200F",
"# c #3F2D14",
"$ c gray15",
"% c #282828",
"& c #2F2F2F",
"* c gray19",
"= c #353535",
"- c gray22",
"; c #3E3E3E",
": c #520000",
"> c #6C0000",
", c #412200",
"< c #462500",
"1 c #4C2800",
"2 c #582E00",
"3 c #573E1C",
"4 c #663600",
"5 c #7C4100",
"6 c #644821",
"7 c gray26",
"8 c #464646",
"9 c #484848",
"0 c gray31",
"q c #555555",
"w c #5A5A5A",
"e c #8E4B00",
"r c #945000",
"t c #A95A00",
/* pixels */
"                                                                                                  ",
"                                                                                                  ",
"                                                                                                  ",
"                                   ooooooooo@@@@@@@@@oooooooo                                     ",
"                                   ooooooooo@@@@@@@@@oooooooo                                     ",
"                                   ooooooooo@@@@@@@@@oooooooo                                     ",
"                           ooooo@@@#########333333333333#####@@@oooooo                            ",
"                           ooooo@@@#########333333333333#####@@@oooooo                            ",
"                           ooooo@@@#########333333333333#####@@@oooooo                            ",
"                        ooo@@@##33333333333333333366666666666333###@@@oooooo@@@ooo                ",
"                        ooo@@@##33333333333333333366666666666333###@@@oooooo@@@ooo                ",
"                        ooo@@@##33333333333333333366666666666333###@@@oooooo@@@ooo                ",
"                     ooo@@@###3366666633333333333333333333666666666333###@@@ooo                   ",
"                     ooo@@@###3366666633333333333333333333666666666333###@@@ooo                   ",
"                     ooo@@@###3366666633333333333333333333666666666333###@@@ooo                   ",
"                     ooo###3336666666633333333333333333366666666666333@@@@@@ooo                   ",
"                     ooo###3336666666633333333333333333366666666666333@@@@@@ooo                   ",
"                     ooo###3336666666633333333333333333366666666666333@@@@@@ooo                   ",
"                     @@@###6666633333366666666666633366666666666666###333333###@@@oo              ",
"                     @@@###6666633333366666666666633366666666666666###333333###@@@oo              ",
"                     @@@###6666633333366666666666633366666666666666###333333###@@@oo              ",
"                  ooo@@@###3333333366666666666666666666633666666333666@@@###@@@ooo                ",
"                  ooo@@@###3333333366666666666666666666633666666333666@@@###@@@ooo                ",
"                  ooo@@@###3333333366666666666666666666633666666333666@@@###@@@ooo                ",
"                  ooo######333##33366666666633366666666633666666333666###oooooo                   ",
"                  ooo######333##33366666666633366666666633666666333666###oooooo                   ",
"                  ooo######333##333333666333###333666333##333666333333666@@@ooo                   ",
"                  ooo######333##333333666333###333666333##333666333333666@@@ooo                   ",
"                  ooo######333##333333666333###333666333##333666333333666@@@ooo                   ",
"                  ooo#########@@###333333333###333666333#####666333###666###ooo                   ",
"                  ooo#########@@###333333333###333666333#####666333###666###ooo                   ",
"                  ooo#########@@###333333333###333666333#####666333###666###ooo                   ",
"                  ooo@@@###@@@@@@@@333333###@@@333333333##@@@333333@@@333###ooo                   ",
"                  ooo@@@###@@@@@@@@333333###@@@333333333##@@@333333@@@333###ooo                   ",
"                  ooo@@@###@@@@@@@@333333###@@@333333333##@@@333333@@@333###ooo                   ",
"                     @@@###ooo@@ooo######@@@ooo###333333@@@@@333###@@@###ooo                      ",
"                     @@@###ooo@@ooo######@@@ooo###333333@@@@@333###@@@###ooo                      ",
"                     @@@###ooo@@ooo######@@@ooo###333333@@@@@333###@@@###ooo                      ",
"                     ooo@@@ooo@@ooo@@@###@@@ooo###333###@@ooo###@@@ooo###ooo                      ",
"                     ooo@@@ooo@@ooo@@@###@@@ooo###333###@@ooo###@@@ooo###ooo                      ",
"                     ooo@@@ooo@@ooo@@@###@@@ooo###333###@@ooo###@@@ooo###ooo                      ",
"                     ooooooooo@@###ooo@@@ooo@@@@@@333###@@ooo###oooooooooooo                      ",
"                     ooooooooo@@###ooo@@@ooo@@@@@@333###@@ooo###oooooooooooo                      ",
"                     ooooooooo@@###ooo@@@ooo@@@@@@333###@@ooo###oooooooooooo                      ",
"                     ...ooo@@@oo###ooo@@@ooo@@@@@@###@@@oo@@@oooooooooooo...                      ",
"                     ...ooo@@@oo###ooo@@@ooo@@@@@@###@@@oo@@@oooooooooooo...                      ",
"                     ...ooo@@@oo###ooo@@@ooo@@@@@@###@@@oo@@@oooooooooooo...                      ",
"                     ...ooo@@@oo@@@###@@@@@@@@@@@@###ooo@@@@@ooo@@@oooooo...                      ",
"                     ...ooo@@@oo@@@###@@@@@@@@@@@@###ooo@@@@@ooo@@@oooooo...                      ",
"                     ...ooo@@@oo@@@###@@@@@@@@@@@@###ooo@@@@@ooo@@@oooooo...                      ",
"                        ...@@@@@ooo###@@@@@@@@@@@@@@@ooooo@@@ooo@@@ooo...                         ",
"                        ...@@@@@ooo###@@@@@@@@@@@@@@@ooooo@@@ooo@@@ooo...                         ",
"                        ...ooo@@ooo@@@ooo@@@@@@ooo@@@ooooooooooo@@@ooo...                         ",
"                        ...ooo@@ooo@@@ooo@@@@@@ooo@@@ooooooooooo@@@ooo...                         ",
"                        ...ooo@@ooo@@@ooo@@@@@@ooo@@@ooooooooooo@@@ooo...                         ",
"                           ...@@ooooooooo@@@@@@ooo@@@oooooooooooooo...                            ",
"                           ...@@ooooooooo@@@@@@ooo@@@oooooooooooooo...                            ",
"                           ...@@ooooooooo@@@@@@ooo@@@oooooooooooooo...                            ",
"                           ...ooooo...ooo@@@ooo...oooooooo...oooooo...                            ",
"                           ...ooooo...ooo@@@ooo...oooooooo...oooooo...                            ",
"                           ...ooooo...ooo@@@ooo...oooooooo...oooooo...                            ",
"                     $$$$$$---..ooottt...ooo...ttt...ooo..ttt......---$$$                         ",
"                     $$$$$$---..ooottt...ooo...ttt...ooo..ttt......---$$$                         ",
"                     $$$$$$---..ooottt...ooo...ttt...ooo..ttt......---$$$                         ",
"                  $$$------777rrttttttttttttttttttttttttttttttttrrr777---$$$                      ",
"                  $$$------777rrttttttttttttttttttttttttttttttttrrr777---$$$                      ",
"                  $$$------777rrttttttttttttttttttttttttttttttttrrr777---$$$                      ",
"                  ---777777999rrttttttttttttttttttttttttttttttttrrr999777$$$                      ",
"                  ---777777999rrttttttttttttttttttttttttttttttttrrr999777$$$                      ",
"                  ---777777999rrttttttttttttttttttttttttttttttttrrr999777$$$                      ",
"               $$$777000999777rrttttttttttttttttttttttttttttttttrrr000000---$$$                   ",
"               $$$777000999777rrttttttttttttttttttttttttttttttttrrr000000---$$$                   ",
"               $$$777000999777rrttttttttttttttttttttttttttttttttrrr000000---$$$                   ",
"               ---999000999777rrrrrttttttttttttttttttttttttttrrrrrr000000999$$$                   ",
"               ---999000999777rrrrrttttttttttttttttttttttttttrrrrrr000000999$$$                   ",
"               ---999000999777rrrrrttttttttttttttttttttttttttrrrrrr000000999$$$                   ",
"            $$$---999999777***99rrrrrrttttttttttttttttttttrrrrrr999000000000$$$                   ",
"            $$$---999999777***99rrrrrrttttttttttttttttttttrrrrrr999000000000$$$                   ",
"            ***777999777$$$$$$11444rrrttt:::::::::::::::ttrrr444111000000000---$$$                ",
"            ***777999777$$$$$$11444rrrttt:::::::::::::::ttrrr444111000000000---$$$                ",
"            ***777999777$$$$$$11444rrrttt:::::::::::::::ttrrr444111000000000---$$$                ",
"            ***777777777***$$$11444rrr:::>>>>>>>>>>>>>>>::rrr444111000000999999$$$                ",
"            ***777777777***$$$11444rrr:::>>>>>>>>>>>>>>>::rrr444111000000999999$$$                ",
"            ***777777777***$$$11444rrr:::>>>>>>>>>>>>>>>::rrr444111000000999999$$$                ",
"            ***---777777******OO%%%--------------------------------999999999999---                ",
"            ***---777777******OO%%%--------------------------------999999999999---                ",
"            ***---777777******OO%%%--------------------------------999999999999---                ",
"            $$$***------***---%%000wwwwwwwwwwwwwwwwwwwwwwwwwwwwwwww777999999999777$$              ",
"            $$$***------***---%%000wwwwwwwwwwwwwwwwwwwwwwwwwwwwwwww777999999999777$$              ",
"            $$$***------***---%%000wwwwwwwwwwwwwwwwwwwwwwwwwwwwwwww777999999999777$$              ",
"               $$$*********$$$$$000wwwwwwwwwwwwwwwwwwwwwwwwwwwwwwww---999999999---$$$$$           ",
"               $$$*********$$$$$000wwwwwwwwwwwwwwwwwwwwwwwwwwwwwwww---999999999---$$$$$           ",
"               $$$*********$$$$$000wwwwwwwwwwwwwwwwwwwwwwwwwwwwwwww---999999999---$$$$$           ",
"                  $$$------$$$OO%%%--------------------------------$$$777777---$$$00$$$           ",
"                  $$$------$$$OO%%%--------------------------------$$$777777---$$$00$$$           ",
"                  $$$------$$$OO%%%--------------------------------$$$777777---$$$00$$$           ",
"                     $$$$$$$$$22eeeeeeeeeeeeeeeeee22255555555555222,,,$$$$$$$$$000--$$$           ",
"                     $$$$$$$$$22eeeeeeeeeeeeeeeeee22255555555555222,,,$$$$$$$$$000--$$$           ",
"                     $$$$$$$$$22eeeeeeeeeeeeeeeeee22255555555555222,,,$$$$$$$$$000--$$$           ",
"                           ,,,22eeeeeeeeeeeeeeeeee,,,55555555555222,,,   $$$------$$              ",
"                           ,,,22eeeeeeeeeeeeeeeeee,,,55555555555222,,,   $$$------$$              ",
"                           ,,,22555eeeeeeeeeeee555,,,55555222222222,,,      $$$$$$                ",
"                           ,,,22555eeeeeeeeeeee555,,,55555222222222,,,      $$$$$$                ",
"                           ,,,22555eeeeeeeeeeee555,,,55555222222222,,,      $$$$$$                ",
"                           ,,,,,222222555555555222+++,,,,,222222,,,,,,                            ",
"                           ,,,,,222222555555555222+++,,,,,222222,,,,,,                            ",
"                           ,,,,,222222555555555222+++,,,,,222222,,,,,,                            ",
"                           ,,,OO%%%%%%%%%%%%%%%OOOOOO%%%%%%%%%%%%%%OOO                            ",
"                           ,,,OO%%%%%%%%%%%%%%%OOOOOO%%%%%%%%%%%%%%OOO                            ",
"                           ,,,OO%%%%%%%%%%%%%%%OOOOOO%%%%%%%%%%%%%%OOO                            ",
"                              OO------000000---OOOOOO---00000------OOO                            ",
"                              OO------000000---OOOOOO---00000------OOO                            ",
"                              OO------000000---OOOOOO---00000------OOO                            ",
"                              OO---------------OOOOOO--------------OOO                            ",
"                              OO---------------OOOOOO--------------OOO                            ",
"                              OO---------------OOOOOO--------------OOO                            ",
"                              <<%%%%%%%%%%%%%%%<<<XXX%%%%%%%%%%%%%%                               ",
"                              <<%%%%%%%%%%%%%%%<<<XXX%%%%%%%%%%%%%%                               ",
"                              <<%%%%%%%%%%%%%%%<<<XXX%%%%%%%%%%%%%%                               ",
"                              22555555eee555,,,,,,XXX22255222555,,,                               ",
"                              22555555eee555,,,,,,XXX22255222555,,,                               ",
"                              22555555eee555,,,,,,XXX22255222555,,,                               ",
"                              22555eeeeee555222,,,XXX22222222222,,,                               ",
"                              22555eeeeee555222,,,XXX22222222222,,,                               ",
"                              22555eeeeee555222,,,XXX22222222222,,,                               ",
"                              55,,,,,,,,,,,,,,,,,,XXX,,,,,222,,,,,,                               ",
"                              55,,,,,,,,,,,,,,,,,,XXX,,,,,222,,,,,,                               ",
"                              ,,&&&000qqq888,,,,,,%%%========%%%%%%                               ",
"                              ,,&&&000qqq888,,,,,,%%%========%%%%%%                               ",
"                              ,,&&&000qqq888,,,,,,%%%========%%%%%%                               ",
"                              &&;;;===&&&&&&&&&===%%%%%%%%%%%%%%                                  ",
"                              &&;;;===&&&&&&&&&===%%%%%%%%%%%%%%                                  ",
"                              &&;;;===&&&&&&&&&===%%%%%%%%%%%%%%                                  ",
"                              %%&&&&&&&&&&&&&&&%%%                                                ",
"                              %%&&&&&&&&&&&&&&&%%%                                                ",
"                              %%&&&&&&&&&&&&&&&%%%                                                ",
"                              &&%%%%%%%%%%%%%%%%%%                                                ",
"                              &&%%%%%%%%%%%%%%%%%%                                                ",
"                              &&%%%%%%%%%%%%%%%%%%                                                ",
"                                                                                                  ",
"                                                                                                  ",
"                                                                                                  ",
"                                                                                                  ",
"                                                                                                  ",
"                                                                                                  ",
"                                                                                                  ",
"                                                                                                  "
};
