/* XPM */
static char *fb8e09cb5bc34c8ad8da32f323e54519UR8vOtqaBjqxoxvX[] = {
/* columns rows colors chars-per-pixel */
"98 147 34 1 ",
"  c #6BA82B",
". c #100B05",
"X c #190D00",
"o c #191208",
"O c #181818",
"+ c #251400",
"@ c #2C200F",
"# c #3F2D14",
"$ c gray15",
"% c #282828",
"& c #2F2F2F",
"* c gray19",
"= c #353535",
"- c gray22",
"; c #3E3E3E",
": c #520000",
"> c #6C0000",
", c #412200",
"< c #462500",
"1 c #4C2800",
"2 c #582E00",
"3 c #573E1C",
"4 c #663600",
"5 c #7C4100",
"6 c #644821",
"7 c gray26",
"8 c #464646",
"9 c #484848",
"0 c gray31",
"q c #555555",
"w c #5A5A5A",
"e c #8E4B00",
"r c #945000",
"t c #A95A00",
/* pixels */
"                                                                                                  ",
"                                                                                                  ",
"                                                                                                  ",
"                                                                                                  ",
"                                 ooooooooo@@@@@@@@@oooooooo                                       ",
"                                 ooooooooo@@@@@@@@@oooooooo                                       ",
"                                 ooooooooo@@@@@@@@@oooooooo                                       ",
"                         ooooo@@@#########333333333333#####@@@oooooo                              ",
"                         ooooo@@@#########333333333333#####@@@oooooo                              ",
"                         ooooo@@@#########333333333333#####@@@oooooo                              ",
"                      ooo@@@##33333333333333333366666666666333###@@@oooooo@@@ooo                  ",
"                      ooo@@@##33333333333333333366666666666333###@@@oooooo@@@ooo                  ",
"                      ooo@@@##33333333333333333366666666666333###@@@oooooo@@@ooo                  ",
"                   ooo@@@###3366666633333333333333333333666666666333###@@@ooo                     ",
"                   ooo@@@###3366666633333333333333333333666666666333###@@@ooo                     ",
"                   ooo@@@###3366666633333333333333333333666666666333###@@@ooo                     ",
"                   ooo###3336666666633333333333333333366666666666333@@@@@@ooo                     ",
"                   ooo###3336666666633333333333333333366666666666333@@@@@@ooo                     ",
"                   ooo###3336666666633333333333333333366666666666333@@@@@@ooo                     ",
"                   @@@###6666633333366666666666633366666666666666###333333###@@@oo                ",
"                   @@@###6666633333366666666666633366666666666666###333333###@@@oo                ",
"                   @@@###6666633333366666666666633366666666666666###333333###@@@oo                ",
"                ooo@@@###3333333366666666666666666666633666666333666@@@###@@@ooo                  ",
"                ooo@@@###3333333366666666666666666666633666666333666@@@###@@@ooo                  ",
"                ooo@@@###3333333366666666666666666666633666666333666@@@###@@@ooo                  ",
"                ooo######333##33366666666633366666666633666666333666###oooooo                     ",
"                ooo######333##33366666666633366666666633666666333666###oooooo                     ",
"                ooo######333##333333666333###333666333##333666333333666@@@ooo                     ",
"                ooo######333##333333666333###333666333##333666333333666@@@ooo                     ",
"                ooo######333##333333666333###333666333##333666333333666@@@ooo                     ",
"                ooo#########@@###333333333###333666333#####666333###666###ooo                     ",
"                ooo#########@@###333333333###333666333#####666333###666###ooo                     ",
"                ooo#########@@###333333333###333666333#####666333###666###ooo                     ",
"                ooo@@@###@@@@@@@@333333###@@@333333333##@@@333333@@@333###ooo                     ",
"                ooo@@@###@@@@@@@@333333###@@@333333333##@@@333333@@@333###ooo                     ",
"                ooo@@@###@@@@@@@@333333###@@@333333333##@@@333333@@@333###ooo                     ",
"                   @@@###ooo@@ooo######@@@ooo###333333@@@@@333###@@@###ooo                        ",
"                   @@@###ooo@@ooo######@@@ooo###333333@@@@@333###@@@###ooo                        ",
"                   @@@###ooo@@ooo######@@@ooo###333333@@@@@333###@@@###ooo                        ",
"                   ooo@@@ooo@@ooo@@@###@@@ooo###333###@@ooo###@@@ooo###ooo                        ",
"                   ooo@@@ooo@@ooo@@@###@@@ooo###333###@@ooo###@@@ooo###ooo                        ",
"                   ooo@@@ooo@@ooo@@@###@@@ooo###333###@@ooo###@@@ooo###ooo                        ",
"                   ooooooooo@@###ooo@@@ooo@@@@@@333###@@ooo###oooooooooooo                        ",
"                   ooooooooo@@###ooo@@@ooo@@@@@@333###@@ooo###oooooooooooo                        ",
"                   ooooooooo@@###ooo@@@ooo@@@@@@333###@@ooo###oooooooooooo                        ",
"                   ...ooo@@@oo###ooo@@@ooo@@@@@@###@@@oo@@@oooooooooooo...                        ",
"                   ...ooo@@@oo###ooo@@@ooo@@@@@@###@@@oo@@@oooooooooooo...                        ",
"                   ...ooo@@@oo###ooo@@@ooo@@@@@@###@@@oo@@@oooooooooooo...                        ",
"                   ...ooo@@@oo@@@###@@@@@@@@@@@@###ooo@@@@@ooo@@@oooooo...                        ",
"                   ...ooo@@@oo@@@###@@@@@@@@@@@@###ooo@@@@@ooo@@@oooooo...                        ",
"                   ...ooo@@@oo@@@###@@@@@@@@@@@@###ooo@@@@@ooo@@@oooooo...                        ",
"                      ...@@@@@ooo###@@@@@@@@@@@@@@@ooooo@@@ooo@@@ooo...                           ",
"                      ...@@@@@ooo###@@@@@@@@@@@@@@@ooooo@@@ooo@@@ooo...                           ",
"                      ...ooo@@ooo@@@ooo@@@@@@ooo@@@ooooooooooo@@@ooo...                           ",
"                      ...ooo@@ooo@@@ooo@@@@@@ooo@@@ooooooooooo@@@ooo...                           ",
"                      ...ooo@@ooo@@@ooo@@@@@@ooo@@@ooooooooooo@@@ooo...                           ",
"                         ...@@ooooooooo@@@@@@ooo@@@oooooooooooooo...                              ",
"                         ...@@ooooooooo@@@@@@ooo@@@oooooooooooooo...                              ",
"                         ...@@ooooooooo@@@@@@ooo@@@oooooooooooooo...                              ",
"                         ...ooooo...ooo@@@ooo...oooooooo...oooooo...                              ",
"                         ...ooooo...ooo@@@ooo...oooooooo...oooooo...                              ",
"                         ...ooooo...ooo@@@ooo...oooooooo...oooooo...                              ",
"                      $$$---.....ttt...ooo...ttt...ooo..tttooo...---$$$$$$                        ",
"                      $$$---.....ttt...ooo...ttt...ooo..tttooo...---$$$$$$                        ",
"                      $$$---.....ttt...ooo...ttt...ooo..tttooo...---$$$$$$                        ",
"                   $$$---777rrttttttttttttttttttttttttttttttttrrr777------$$$                     ",
"                   $$$---777rrttttttttttttttttttttttttttttttttrrr777------$$$                     ",
"                   $$$---777rrttttttttttttttttttttttttttttttttrrr777------$$$                     ",
"                   $$$777999rrttttttttttttttttttttttttttttttttrrr999777777---                     ",
"                   $$$777999rrttttttttttttttttttttttttttttttttrrr999777777---                     ",
"                   $$$777999rrttttttttttttttttttttttttttttttttrrr999777777---                     ",
"                $$$---000000rrttttttttttttttttttttttttttttttttrrr777999000777$$$                  ",
"                $$$---000000rrttttttttttttttttttttttttttttttttrrr777999000777$$$                  ",
"                $$$---000000rrttttttttttttttttttttttttttttttttrrr777999000777$$$                  ",
"                $$$999000000rrrrrttttttttttttttttttttttttttrrrrrr777999000999---                  ",
"                $$$999000000rrrrrttttttttttttttttttttttttttrrrrrr777999000999---                  ",
"                $$$999000000rrrrrttttttttttttttttttttttttttrrrrrr777999000999---                  ",
"                $$$00000000099rrrrrrttttttttttttttttttttrrrrrr999***777999999---$$                ",
"                $$$00000000099rrrrrrttttttttttttttttttttrrrrrr999***777999999---$$                ",
"             $$$---00000000011444rrrttt:::::::::::::::ttrrr444111$$$$$$777999777**                ",
"             $$$---00000000011444rrrttt:::::::::::::::ttrrr444111$$$$$$777999777**                ",
"             $$$---00000000011444rrrttt:::::::::::::::ttrrr444111$$$$$$777999777**                ",
"             $$$99999900000011444rrr:::>>>>>>>>>>>>>>>::rrr444111$$$***777777777**                ",
"             $$$99999900000011444rrr:::>>>>>>>>>>>>>>>::rrr444111$$$***777777777**                ",
"             $$$99999900000011444rrr:::>>>>>>>>>>>>>>>::rrr444111$$$***777777777**                ",
"             ---999999999999-------------------------------%%%OOO******777777---**                ",
"             ---999999999999-------------------------------%%%OOO******777777---**                ",
"             ---999999999999-------------------------------%%%OOO******777777---**                ",
"          $$$777999999999777wwwwwwwwwwwwwwwwwwwwwwwwwwwwwww000%%%---***------***$$                ",
"          $$$777999999999777wwwwwwwwwwwwwwwwwwwwwwwwwwwwwww000%%%---***------***$$                ",
"          $$$777999999999777wwwwwwwwwwwwwwwwwwwwwwwwwwwwwww000%%%---***------***$$                ",
"       $$$$$$---999999999---wwwwwwwwwwwwwwwwwwwwwwwwwwwwwww000$$$$$$*********$$$                  ",
"       $$$$$$---999999999---wwwwwwwwwwwwwwwwwwwwwwwwwwwwwww000$$$$$$*********$$$                  ",
"       $$$$$$---999999999---wwwwwwwwwwwwwwwwwwwwwwwwwwwwwww000$$$$$$*********$$$                  ",
"       $$$000$$$---777777$$$-------------------------------%%%OOO$$$------$$$                     ",
"       $$$000$$$---777777$$$-------------------------------%%%OOO$$$------$$$                     ",
"       $$$000$$$---777777$$$-------------------------------%%%OOO$$$------$$$                     ",
"       $$$---000$$$$$$$$$,,,22555555555555222eeeeeeeeeeeeeeeee222$$$$$$$$$                        ",
"       $$$---000$$$$$$$$$,,,22555555555555222eeeeeeeeeeeeeeeee222$$$$$$$$$                        ",
"       $$$---000$$$$$$$$$,,,22555555555555222eeeeeeeeeeeeeeeee222$$$$$$$$$                        ",
"          $$$------$$$   ,,,22555555555555,,,eeeeeeeeeeeeeeeee222,,,                              ",
"          $$$------$$$   ,,,22555555555555,,,eeeeeeeeeeeeeeeee222,,,                              ",
"             $$$$$$      ,,,22222222555555,,,555eeeeeeeeeee555222,,,                              ",
"             $$$$$$      ,,,22222222555555,,,555eeeeeeeeeee555222,,,                              ",
"             $$$$$$      ,,,22222222555555,,,555eeeeeeeeeee555222,,,                              ",
"                         ,,,,,222222,,,,,,+++22255555555222222,,,,,,                              ",
"                         ,,,,,222222,,,,,,+++22255555555222222,,,,,,                              ",
"                         ,,,,,222222,,,,,,+++22255555555222222,,,,,,                              ",
"                         OOO%%%%%%%%%%%%%%OOOOOO%%%%%%%%%%%%%%OOO,,,                              ",
"                         OOO%%%%%%%%%%%%%%OOOOOO%%%%%%%%%%%%%%OOO,,,                              ",
"                         OOO%%%%%%%%%%%%%%OOOOOO%%%%%%%%%%%%%%OOO,,,                              ",
"                         OOO-----000000---OOOOOO---00000------OOO                                 ",
"                         OOO-----000000---OOOOOO---00000------OOO                                 ",
"                         OOO-----000000---OOOOOO---00000------OOO                                 ",
"                         OOO--------------OOOOOO--------------OOO                                 ",
"                         OOO--------------OOOOOO--------------OOO                                 ",
"                         OOO--------------OOOOOO--------------OOO                                 ",
"                            %%%%%%%%%%%%%%XXX<<<%%%%%%%%%%%%%%<<<                                 ",
"                            %%%%%%%%%%%%%%XXX<<<%%%%%%%%%%%%%%<<<                                 ",
"                            %%%%%%%%%%%%%%XXX<<<%%%%%%%%%%%%%%<<<                                 ",
"                            ,,555222555222XXX,,,,,,555ee555555222                                 ",
"                            ,,555222555222XXX,,,,,,555ee555555222                                 ",
"                            ,,555222555222XXX,,,,,,555ee555555222                                 ",
"                            ,,222222222222XXX,,,222555eeeee555222                                 ",
"                            ,,222222222222XXX,,,222555eeeee555222                                 ",
"                            ,,222222222222XXX,,,222555eeeee555222                                 ",
"                            ,,,,,222,,,,,,XXX,,,,,,,,,,,,,,,,,555                                 ",
"                            ,,,,,222,,,,,,XXX,,,,,,,,,,,,,,,,,555                                 ",
"                            %%%%%=========%%%,,,,,,888qq009&&&,,,                                 ",
"                            %%%%%=========%%%,,,,,,888qq000&&&,,,                                 ",
"                            %%%%%=========%%%,,,,,,888qq000&&&,,,                                 ",
"                              %%%%%%%%%%%%%%%===&&&&&&&&===;;;&&&                                 ",
"                              %%%%%%%%%%%%%%%===&&&&&&&&===;;;&&&                                 ",
"                              %%%%%%%%%%%%%%%===&&&&&&&&===;;;&&&                                 ",
"                                             %%%&&&&&&&&&&&&&&%%%                                 ",
"                                             %%%&&&&&&&&&&&&&&%%%                                 ",
"                                             %%%&&&&&&&&&&&&&&%%%                                 ",
"                                             %%%%%%%%%%%%%%%%%&&&                                 ",
"                                             %%%%%%%%%%%%%%%%%&&&                                 ",
"                                             %%%%%%%%%%%%%%%%%&&&                                 ",
"                                                                                                  ",
"                                                                                                  ",
"                                                                                                  ",
"                                                                                                  ",
"                                                                                                  ",
"                                                                                                  ",
"                                                                                                  "
};
