/* XPM */
static char *dummy[]={
"118 119 31 1",
"h c #79B229",
"A c #79B229",
"c c #79B229",
"k c #79B229",
"# c #79B229",
". c #79B229",
"b c #993333",
"a c #996600",
"r c #996633",
"z c #996666",
"g c #999933",
"p c #999966",
"C c #cc6600",
"d c #cc6633",
"m c #cc6666",
"o c #cc9900",
"f c #cc9933",
"i c #cc9966",
"l c #ff6600",
"e c #ff6633",
"n c #ff9900",
"j c #ff9933",
"t c #ff9966",
"u c #ffcc00",
"q c #ffcc33",
"s c #ffcc66",
"B c #ffcc99",
"y c #ffff33",
"x c #ffff66",
"v c #ffff99",
"w c #ffffcc",
"......................................................................................................................",
"......................................................................................................................",
"......................................................................................................................",
"......................................................................................................................",
"......................................................................................................................",
"......................................................................................................................",
"......................................................................................................................",
"......................................................................................................................",
"..............................................#aaaabbabbbaaabbbbbbbbbbbb#.............................................",
".............................................cdddedeeeddffdeeededddeddddgh............................................",
"..............................................ifeeeeeeeeeeeeeeedjeejeeeeik............................................",
"..............................................dflddeeeeeeeeeeeedeeeeeeeed.............................................",
".............................................cffjeejeeeeeeeeeeeejjjjjeeemk............................................",
".............................................cdfffejlnnejejjeeeejnnnnejddk............................................",
".............................................cdjofjjlnnjjjjjjjnnooonnnnndc............................................",
"................................#pggggggggdgddjjqjjqjqqqqqqqqqqqqqqqqqqqjdrrrrrrrrrrrr#...............................",
"................................rstjjjjjjtjjjqqqqqqqqqqqqqqqqqqqqqqqqqqqqjffjjfffffffir...............................",
"................................rsjjjjjjjjjjjqqquqqqquuqqqqqqqqqqqqqqqqqqjeeeeeeeeeeefr...............................",
"................................rtjjjjjjjjjjjjqquqqqqqqqqqqqqqqqqqqqqqqqqoejleeejejejdr...............................",
"................................rtjjjjjjjjjjjjquuqqqqqqqqqqqqqqqqqqqqqqqqnejnneeeeeeefr...............................",
"................................rtjjjjjjjjjjjnquuuqqqqqqqqqqqqqqqqqqqquqqjejjeejjjeejfr...............................",
"................................dqjjjjjjjjjjqqquuqqqqqqqqqqqqqqqqqqqqqquqnjnnnnjffjnjfr...............................",
".........................#iiffffqqqqqqqqqqqqqqquuqqqqqqqqqqqqqqqqqqqqqqqqqqqqqqqqqqqqqjfddddd#........................",
".........................#fjjjjjqqqqqqquuqqqqqqququuqqqqqqqqqqqqqqqqqqqqqqqqquuqqqqqqqjfjeeefb........................",
".........................rqjjjjjquuqqqqqqqqqqqqqquuuqqqqqqqquqquuququuuqqqqquqqqqqqqqqjneeeedb........................",
".........................#qjjjjjqquqqqquqqqqqqqqquuuuqqqqququqqqququuqqqqqqqqqqqqqqqqqqneeeedb........................",
".........................rjjjjjqquuqquuqqqqqqqqquuuuuuuquuuuuqqqquuuuuuuquqqqqqqqqqqqqqnneeeeb........................",
".........................rqjjjjjquuqquqqqqqqqqqqqqqqqqqqqqqqqqqqqqqqqqqqqqqqqqqqqqqqqqqnnnljeb........................",
"...................hh..hhrjjjjqjquuuqqqqssssssqqqqqqqqqqqqqqqqqqqqqqqqqqqqqqqqqqqqqqqqnoonnofa...hhh..................",
"..................#pstssfqqqqqqqqquuqqqvvvwvvxfooooononnoooonoonnooonnoojqqqqqqyyyyyyxyqqqqqqjfiiiizk.................",
"..................kfjjjjjqqquuuqqqqqqqsvwwwwvvjffjjljejjjjfjjfejjeeejefooqqqqqqqyyxxxxyqqqqqqjjjjdfic.................",
"..................kfqjjjjqqquuuqqqquuqqvwwwwwvjfeeeeeeeeeejejejeeeeeejennqqquuqyyyyxxxyqqqquqjjejljfc.................",
"..................Afjjjjjqqquuuqqqquqqqvwwwwwvffeeeeeeeeeeeeeeeeeeeeeeeloqqqqqqqyyxxxxyyqqqqqjjejejic.................",
"..................Afjjjjjqqquuqqqqqquyqvwwwwwvjdjeejeeeeeejeeeeejeeeeeennqqqqqqyyyyxxxyqqquuqjjljjjic.................",
"..................#fqjjjqqquuqqqqqqqqqsvwwwwwBjjjeleljjjjjjjjnjjnjjeejennqqqqqqqxxxxxxyqqquqqjnofoffc.................",
"............##k###rqqqqqqqqquuqqqxxxxxxBBBBBBsjjjjnjjnjjjjjjjjjnjnjjjjjjjjjqqqjqyyyyyyyquqqqqqjjqjjtacckkkk...........",
"............psqttjfquqqqqqqqqqqqxvvwvvviiffjdjjjjjjjjjjjjjjjjjjjjjjjjjjjjjjnononqqqqqqqqquqqqqyxxxxxffddmidk..........",
"...........hijjjjjqquqquuqqqqqqqxvwwwwwiffleldjjjjjjjjjjjjjjjjjjjqjjjjjjjjfeejnnqqqqqqquuqqqqyyxxxxxjfjeejd...........",
"...........hijjjjjqqqqqqqqquuuqqxvwwwwwijdjjejjjjjjjjjjjjjjjjjjjjjjjjjjjjjjeeejnqqqquuuqqqqqqyyxxxxxjojjjef...........",
"...........hijjjjnqqqqqqqqquuqqqxvwwwwwjjjjjejjjjjjjjjjjjjjjjjjjjjjjjjjjjjeeeejnqquuqquqqqqqqyyxxxxxjfeeeej...........",
"............ijjjjqqqqqqqqqqqqqqsxvwwwwvjfejeejjjjjjjjjjjjjjjjjjjjjjjjjjjjjnleelnqqqqqqqqqqqqqyyxxxxxjjeeeed...........",
"...........hijjjjjqqqqqqqqqqqsssvvwwwwvjjeeeejjjjjjjjjjjjjjjjjjjjjqqjjqjjonlnnnnqqqqqqqqqqqqyyyxxxxxjjeeeedh..........",
"...........htjjjjqqqqqqqqqxxxxvvsssBsssjjjjjjjjjjjjjjjjjjjjjjjjjjjqqqqqqqjjjjjjjjjjjjnqyyyyyyyyyyyyqjeeeeedh..........",
"...........htjjjjqqqqqqqyxvvvwwvsfdffjjjjjjjjjjjjjjjjjjjjjjjjjjjjqqxxxxxyqqqqqqqnnnlnnqyyyyyyyqqqqqqnneeeed...........",
"...........htjjjjjqqquqqyxvwwwwvsffdjdjjjjjjjjjjjjjjjjjjjjjjjjjjjqqxxxxxyqqqqqqqneejjoqxxxxxyyqqqqqqneeeeef...........",
"...........hijjjqqqqquuqqxvwwwwwsfjejeejjjjjjjjjjjjjjjjjjjjjjjjjjqqxxxxxyyqqqqqqneeejoqxxyxxyyqqqqqqnneeeef...........",
"...........hijjjjqqqqqqqqxvwwwwwsjeeeeejjjqjjjjjjjjjjjjjjjjjjjjjjqqxxxxxyqquuqqqnjeedffxxxxyyyqqqqqqnjleejf...........",
"...........ctjjjjqqqquuqqxvwwwwwsjeeeejjjjjqjjjjjjjjjjjjjjjjjjjjjqqxxxxxyqqquqqqnnjejfqxxxxxxyqqqqqqnnleejd...........",
"...........cfjqqqqqqquuqqxvwwwwBtjeeeejjjjqjjjjjjjjjjjjjjjjqqqqqqqqyyyyyyqqqqqqqonjejjqxxxxxxyqqqqqqjnnjfoCc..........",
".....rggrgffqqqqqqqqqqqqqqsssssttjjjjjjjjjjjjjjjjjjjjjjjjjjqqqqqqqqyyyyyqqqqqqyqqqssssqqqqqqqqqqqqqqqqqqqqqdrrrrr#....",
".....isttttqqqqqqqqqqqqqqqffddfjjjjjjjjjjjjjjjjjjjjjjjjjjjjqxxxxxyqyqqyyqqqqqqqqyxxxxxqqqqjjjqqqquuqqqqqqqqfdefiir....",
".....ijjjjqnqqqqqqqqquqqqqojjjeejjjjjjjjjjjjjjjjjjjjjjjjjjjqxxxxyyyqqqqqqqqqqqqyxxxxxxqqqjjjjqqquuuqqqqqqqqjjedefz....",
".....fjjjjjqqqqqqqqqqqqqqjnleeeljjjjjjjjjjjjjjjjjjjjjjjjjjqqxxxxyxqqqqqqquqqqqqqyxxyxxqqjjjjjqqqquuqqqqqqqqneejefd....",
".....fjjjjjqqqquqqqqquqqqjnleeejjjjjjjjjjjjjjjjjjjjjjjjjjjqqxxxxyxqqqqqqqqqqqqyqxyyyyxqjjjjjjqqqqquqqqqqqqqneeeldd....",
".....fjjjjjjqqqqqqqqqqqqqjneeeejjjjjjjjjjjjjjjjjjjjjjjjjjnnqxxxxxyyquqquqqqqqqqyyxxxxxqjjjjjjqqqqqqqqqqqqqqjeeeejd....",
".....fjjjjjjqqqqqqqqqqqqqjfeejejjjjjjjjjjjjjjjjjjjjjqjjjqqqqyyyyyyyqqqqqqqqqyqqyyxxyxxqjjjjjjqqqqqqqqqqqquqjeeeeed....",
".....fjjjjjjqqqqqquqqqqqqjfeejeejjjjjjjjjjjjjjjjjjjjqxxqxyyyyyyyyqqqqqqqqyyyyyyyxxxxxxqjjjjjjqqqqqquqqqqquqneeeeed....",
".....fjjjjjqqqqqqqqqqqqqqjfeeeejjjjjjjjjjjjjjjjjjjjjqxxxxxxyqqqqqqquqqqqqyxxxyyxxxxxxxqjjjjjjqqquqqqqqqquqqneeeeed....",
".....fjjjjjjqqqqqqqqqqqqqjfjeeejjjjjjjjjjjjjjjjjjjjqqxxxyxxyqquqqqqqqqqqqyxxxxxxxxxxxxqjjjjjjqqqqqqqqqqqquqneeeeed....",
".....fjjjjjjqqqqqqqqqqqqqjfeejeejjjjjjjjjjjjjjjjjjjjqxxyxyyyqququququqqqqyxxxxxyxxxxxxqjjjjjjqqqqqqqqqqquuqneeeeed....",
".....fjjjjjqqquqqquqqqqqqjfjeeejjjjjjjjjjjjjjjjjjjjqqxxyxxyyquuuuuuqqqqqyyxxxxxxxxxxxxqjjjjjjqqquqqqqqqquuqneeeeez....",
".....fjjjjjjqquqqqqqqqqqqjfeeeejjjjjjjjjjjjjjjjjjjjqqxyyyxyyqquqqqqqqqqqyyxxxxxxxxxxxxqjjjjjjqqqqqqqqqqquuqneejeez....",
".....fjjjjjqqqqqqquqqqqqqjfjeeejjjjjjjjjjjjjjjqqqqqqqyyyyyyqqqqqqqqqqqyyyyxxxxxxxxxxxxqqjjjjjqqqqqqqqqqquuqneeeeez....",
".....fjjjjjqqqqqquqqqqqqqjfeeeeejjjjjjjjjjjjjqxxxxxyxqqqqqqqqqqqqqyyyyyyyxxxxxxxxxxxxxqqjjjjjqqqqqqqqqqqqqqneejefd....",
".....fjjjjjqqqqqqqqqqqqqqjfeeeejjjjjjjjjjjjjjqxxxxxxyqqqqqqqqqqqqqyxxxxxxxxxxxxxxxxxxxqjjjjjjqqquqqqqqqqquqneeeedz....",
".....fjjjqjqqqqqqqqqqqqqqjnjjeejjjjjjjjjjjjjqqxxxxyyyqqqqqqqqqqqqyyxxxxxxxxxxxxxxxxxxxqjjjjjjqqqqqqqqqqqqqqnjeeeez....",
".....fjjjjjjqqqqqquqqqqqqjnjeeejjjjjjjjjjjjjjqxxxxyxyqqqqqqqqqqqqqyxxxxxxxxxxxxxxxxxxxqjjjjjjqqqqqqqqqqqqqqjeeeedz....",
".....ijjjjjqqqqqqqqqqqqqqjnleeejjjjjjjjjjjjjjqyxyxxxyqqqqqqqqqqqqqyxxxxxxxxxxxxxxxxxxxqqjjjjjqqquqqqqqqqqqqjejeefz....",
".....ijjjjjqqqqqqqqqqqqqqjnnjjejjjjjjjjjjjjqjqxxyxxyyqqqqqqqqqqqqqyxxyxxxxxxxxxxxxyyxxqqjqjjjqquuqqqqqqqqqqfeeeedz....",
".....rgfgfdfqqqqqqqqqqqqqqnnnjnnjjjjjjjqqqqqqqxyyyyyyqqqquqqqqqqqyyxxxxxxxxxxxxyyqqqqqqqqqqqqqqquqqqqqqqqqqdddddzr....",
"...........hijjjjjqquqqqqqqqqqqqjneejejqxxxxxyyqqqqqqqqqqqqyyyyxxxxxxxxxxxxxxxxxqjjjjjqxxxxxxqqquuqqnnjnfnf...........",
"...........hijjjjjqqqqquuqquuqqqjjeeeejqxxxxxyqqqqqqqqqqqqyyyxxxxxxxxxxxxxxxxxxxqjjjjjqxxyxxxyqquuuqneeeeed...........",
"...........hijjjjjqqqqqqqqqqquqqnleeejoxxxxxxyqqqquuuqqqqqqyyxxxxxxxxxxxxxxyxxxyjjjjjjqxxyxxxyqquuqqnjeeeldh..........",
"...........hijjjjjjqqqqqqqqqqqqqjnjjjjoqxyxxxyqqquuuuuqqqqqyyxxxxxxxxxxxxxyxxyxxqjjjjjqxxxxxyyquuuqqojeeeed...........",
"...........hijjjjjqqqqqqqqqqqqqqjojfjooqxyxxyyqqququuuqqqqqyyxxxxxxxxxxyxxxxxxxyqjjjjjqxxxxxyyqquqqqfjjejed...........",
"...........hijjjqjqqqqqqqqqqquqqnonjonfqxxxxyyqqqqqquqqqqqqyyxxxxxxxxxxxxxxxxxxqqjqqqqqyxxxxyqqqqqqqfjeejjd...........",
"...........hijjjjjqqququuuuuuqqqqqqqqqqqqqqqqqqqqqqqqyyyyyyyxxxxxxxxxxxxyqqqqqqqqqqqqyqqyyyyyquqqqqqjjjjjjd...........",
"...........hijjjjjqqqqquuqquuuqqyxxxxxxqqqjqqqqqqqqqqyyxxxxxxxxxxxxxxxxxqqqjjjqqqxxxxxyyqqqqqquqqqqqnjeejef...........",
"...........cijjjjjjqqqquqqqqquqqyxxxxxxqjjjjjnqqqqqqyyyxxxxxxxxxxxxyxyxxxqjjjjjqxxxxxxyqqqqqqqqqqqqqnjejeed...........",
"...........hijjjjjqqqqqqqqqqquqqyxxxxxxqjjjjjnqqqqqqyyyxxxxxyxxyxxxxyyyxxqqjjjjqxxxyyxyqqqquuqqqquqqnnejejf...........",
"...........hijjjjjqqqqqqqqqqqqqqyyxxxxxqjjjjjqqqqqqqyxxxxxxxxyxxyxxyxxxxxqqjjjjqxxxxyxyqqquuuqqquuqqnneeeed...........",
"...........hitjjjqqqqqqqqqqqqqqqyyyyxxyqjjjjqqqqqqqqyyyxxxxxxxxxxxxxxxxxxqjqjjjqxxyyyxyqqqquuqqqqqqqnjedeedh..........",
"...........ApitiffqqqqquqqqqqqqqyyyyxyyqjqjqjqqqqqqqqyyxxxxxxxxxxxxxxxxxxqfqqqqqyyxyyyyqqqquqqqqqqqqffdimfdA..........",
"............###cccrfqqqqqqqyyyyyyyyqyyyqqqqqqqqqqqqqqqqqqqqqqqqqqqqqqqqqqqqyqqqyyqyqqyqqqqqqqnnjnnjfacckkck...........",
"..................cjjjjjqqxxxxxyqqqqqqqqqqqqqqqjjjjjjjjjjjjjjjjjqjjjjjjjqxxxxxxyyqqqqqqqqqqqqjnneejdc.................",
"..................ktjjjjjqxxxxxyyqqqqqqquqqqqqqjjjjjjjjjjjjjjjjjjjjjjjjjqxxyxxxyqqqqqqqqqqqqqjjeeejdc.................",
"..................ksjjjjjqxyxxxxyqquqquuqqqqqqjjjjjjjjjjjjjjjjjjjjjjjjjjqxxxxxxyqqqqqqqqqqqqqjjeeefdc.................",
"..................csjjjjjqxyxxxyyquuqqquuqqqqqqjjjjjjjjjjjjjjjjjjjjjjjjjqxxxyxxyqqqqqqqqqqqqqjjjlejmc.................",
"..................Aiqjqqjqxxxxxxyquuqqquqqqqqqqnjjjjjjjjjjjjjjjjjjjjjjjjqyxxxxxyquqqqqqqqqqqqjenjejdc.................",
"..................#iiqqjfsxxxyyyyqqqqqqqqqqqqqqqqjqqqqjqqqqqjqqqqqqqqqjqqyyyyyyyqqqqqqqqqqqqqjeefffgk.................",
"...................A..hhcdqqjqqqqqqqqqqyyxxyyyqqqqqqqqqqqqqqqqqqqqqqqqqqqqqqqqqquqqqqqqjnnnofrh.hhhh..................",
".........................rtjjjjjqqqqqqyyxxxxxyqqqqqqqqqqqqqqqqqqqqqqqqqqqqqqqqqqqqqqqqqnlnnlf#........................",
".........................btjjjjjqqqqqqyyxxxxyyqqqqqqqqqqqqqqqqqqqqqqqqqqqqqqqqqqqqqqqqjjeejef#........................",
".........................rtjjjjjqqqqqqyyxxxxyyqqqqqqqqqqqqqqqqqqqqqqquuqqqqqqqqqquqqqqqjeeeefb........................",
".........................rqqjjjqqquqqqqyyxxyyyqqqqqqqqqqqqqqqqqqqqqquuquqqqqqqqqqqqqqqqjeeeefb........................",
".........................#sqjjjjqqqqqqqyyxxyyyqqqqqquqqqqqqqqqqqqqqquuquqqqqqqqqqqqqqqqdedddf#........................",
".........................#piifgfqsqqqqqqqxxqyqqqqqqqqqqqqqqqquqqqqqqquqqqqqqqqqqqqqqqqqdddddz#........................",
"..........................h...hhffnjjjjqqjjjqqqqqqqqqqqqqqqqqqqqqqqqqqqqqnnonnonffnooCa...............................",
"................................rjjjjjjjjjjjjqqqqqquqqqqqqqqqqqqqqqqqqqqqnnneeeeeeejjfd...............................",
"................................rtjjjjjjjjjjjqqqqqquuqqqqqqqqqqqqqqqqqqqqnoeeeeeeeeeejr...............................",
"................................ztjjjjjjjjjjjnqqqqquqqqqqqqqqqqqqqqqqqqqqneeeeeeeeeeedr...............................",
"................................ztjjjjjjjjjjjqqqqqqqqqqqqqqqqqqqqqqqqqqqqnjeeejjjeeeeer...............................",
"................................rsfjjjjjjjjjjqqqqqqqqqqqqqqqqqqqqqqqqqqqqjfdedeeeeeddir...............................",
"................................#pggfffddfffffqqqqqqqqqqqqqqqqqqqqqjqqqqqddrddddrddrrr#...............................",
".............................................cdfjnllnnjjjjjnenjjjnnjjlnodc............................................",
".............................................cdjeeeeeeeeeeeeeeeeeeeeeejjfc............................................",
"..............................................dfdeeeeejeejeeeeeeeeneeeeemk............................................",
".............................................hdfejjejeeeeeeeeeeeelleeeeedk............................................",
".............................................cddedeelejeeeeeeeeejeeeeeeedh............................................",
".............................................cdfffffejfdeejjjjeffjjfefedmh............................................",
".............................................hk##bbbbbbbbbbbb#####b#bbbbk.............................................",
"......................................................................................................................",
"......................................................................................................................",
"......................................................................................................................",
"......................................................................................................................",
"......................................................................................................................",
"......................................................................................................................",
"......................................................................................................................",
"......................................................................................................................"};
