/* XPM */
static char *dummy[]={
"118 119 26 1",
". c #79B229",
"a c #993333",
"v c #996600",
"# c #996633",
"m c #999933",
"u c #999966",
"w c #999999",
"g c #cc6633",
"t c #cc6666",
"l c #cc9900",
"h c #cc9933",
"b c #cc9966",
"q c #cccccc",
"i c #ff6600",
"f c #ff6633",
"k c #ff9900",
"d c #ff9933",
"c c #ff9966",
"p c #ffcc00",
"e c #ffcc33",
"j c #ffcc66",
"x c #ffcc99",
"o c #ffff33",
"n c #ffff66",
"s c #ffff99",
"r c #ffffcc",
"......................................................................................................................",
"......................................................................................................................",
"......................................................................................................................",
"......................................................................................................................",
"......................................................................................................................",
"......................................................................................................................",
"......................................................................................................................",
"......................................................................................................................",
"......................................................................................................................",
"...................................#############aaaaaaaaaaaaaaaaaaaaaaaa.#............................................",
"..................................bbcdecccccccccfgggggfgfgggfggggghffgghgg#...........................................",
"..................................bcdddddddddddddfdffddffffffffffffffffffg#...........................................",
"..................................bcddddedddddddfidfffffffffffffffffffffff#...........................................",
"..................................bcdddddddddddddfddffdffffddffffdffffffff#...........................................",
"..................................hjdddddddddddddkddffddffddffdfdfdfffdfff#...........................................",
"..................................heedededdddddddkkklkkddddddddddddddddldf#...........................................",
"...........................#mhmmhheeeeeeekkdddddddddddedeeedeeeedeeeedeeeed######.....................................",
"...........................mjneeoeeeeeeeeldfddkdeeeeeeeeeeeeeeeeeeeeeeeeeeedghggg#....................................",
"...........................heeeppppppeeeeldfdfdkeeeeeeeeppppppeepepeppeeeeedffffg#....................................",
"...........................meoeeeeppppeeeldfffdkeeeeeeeeeeeeeeeeeeeeepppeeedffffg#....................................",
"...........................heeeeeepepppeeldfffdkeeepeeeeeeeeeeeeeeeeeepppeekdddff#....................................",
"...........................heeeeeeeeeeeeekifffddeeeppeeeeeeeeeeeeeeeeeepeeedfddfg#....................................",
"...........................mjeeeeeeeeeeeelkdkdkkeeeppeeeeeeeeeeeeeeeeeeeeeeddlldd#....................................",
".....................qqqqqqrsssssshlkkklleeeeeeeeeeeeeeeeeeeeeeeeeeeeeeeeeeonnnnncgg#ggt..............................",
"....................urrrrrrrrrrrrshdddfkdeeeepppeeeeeeeeeeeeeeeeeeeeepeeeeeononnneldfffga.............................",
"....................urrrrrrrrrrrrrhdfffdkeeeeepeeeeeeepeeppppepepeeeeepeeeoonnnnnedkfffga.............................",
"....................urrrrrrrrrrrrrhdiffideeepepeeeeeeepeeppppppeeeeeeeeeeeooonnnnelkfffga.............................",
"....................urrrrrrrrrrrrrcdfddddeeepppeeeeeeeeeeeppppppeeeeeepeeeeoooonnelkdffga.............................",
"....................urrrrrrrrrrrrshdfdiikeeepppeeeeeeeeeeeeeeeeeeeeeeeeeeeeoonnnnelldddhv.............................",
"....................wrrrrrrsxxssxxdlklllkeeepppeeeeeeppeeeeeeeeeeeeeeeeeeeeooooooehlllhhv.............................",
"..............rrrrrrrrrrrrscbhhhhddeeeeeeeeepppppeeeepkllllllllklllleeepepeeeeeeooennnnnjhbbbgb.......................",
"..............rrrrrrrrrrrrrcgffddleeeeeeeeeeppppppeeeekldddfffffdlkleeeeppeeeeeeeonnnnnnehghfgg.......................",
"..............rrrrrrrrrrrrscffffikeeeeeeeeeeeepppppeeekkddffffffdikleeeeeeeeeeeeeooonnnnedffffg.......................",
"..............rrrrrrrrrrrrrcffffkkeeeeeeppeeeeepppeeeedifffffffffdkleeeeeeeepeeeeooooonoedffffg.......................",
"..............rrrrrrrrrrrrscffffkkeeeeepppeeeeeeeeeeeedkffffffffffkleeeeeeeeppeeeeooooonedffffg.......................",
"..............rrrrrrrrrrssscffffdkeeeeepppeeeeeeeeeeeedkddddfffffdkleeeeeeeeeppeeooooonnedffffg.......................",
"..............rssssssssssssdffffdleeeeepppeeeeeeeddeeddddddkkdddddkddeddedeeepeeeooonnnnddfdffh.......................",
"..............ssnnnnnnnnnnndffffdkeeeeeeeeeeeeeelllldddddddddddddddddddddlkeepeeeooonnnnedfddfd.......................",
"..............snnnononnnnnndkffffdeeeeeeeeeeeeedlliiddddddddddddddddddiffkleepeeeoonnnnnelfdffd.......................",
"..............snonnnnnnnnnnddfdffkeeepeeeeeeppeelddfdfdddddddddddddddfdffdleepeppooonnnnekffffh.......................",
"..............nnnnnnnnooonndfifffdeeeppeeeeeepeeldffffdddddddddddddddddfffkeeppeeoonnnnnelffffd.......................",
"..............snnnnnnooonnnddldiileeepppeeeeeeedldffffddddddddddddddkddffideeeeeeoooonnnedffffg.......................",
"..............snnnnnnnonnnjdkklllkeeeeeeeeeeeeedkddfdddddddddddddddddddddddeeeeeeooononnehffddh.......................",
".......uuuwuumssssssneeeeeedddkddkeeepeeeedddddkddddddddddddddddddddddddddddddddkeooooooeeeeeej######.................",
".......rrrrrrrrrsrrsjhdlllkeeeeeeeeeeeepelldlkkddddddddddddddddddddddddddddlkkkklkeeeeeoonnnnonjjccccb................",
".......rrrrrrrsrrrrrxhffidleeeeeeeeeeeeeekfffklkdddddddddddddddddddddddddddddffkldeeepeponnnnooeedddch................",
".......rrrrrrrrrrrrrxdfffdleeeeeeeepeeeeelfffffdddddddddddddddddddddddddddddffffkdeeepppoonnoooeedddeb................",
".......rrrrrrrrrrrrsxhffffleeepepeepeeeeekfffffdddddddddddddddddddddddddddddffffddeeeppponnnoonedddddb................",
".......rrrrrrrrrrrrsjdffffleeepeeeepeeeeedffffdddddddddddddddddddddddddedddffffffdeeeppeonnnnnneedddcb................",
".......rssssssssssssjdfffdleeppppepppeeeedfffffdddddddddddddddddddddeeeeeedffffffdeeeppponnnonneddddcb................",
".......snnnnnnnnnnnnedffffleeppeeppppeeeedfffffdddddddddddddddddddddeeeeejedffffkdeeeppponnnnnnedddddb................",
".......jeeeeeeeeeeeeekffffleeeeeeeeppeeeekffffddddddddddddddddddddeennnnnnjdffffkdeeepeponnonnnedddddb................",
".......epeeeeeepeeeeekfffdldeeeeeeepeeeeekdfffdddddddddddddddddddddennnnonjdffffkdeeepeeonnoonnedddddb................",
".......jeeeeeeeppeeeeldffdleeeeeeeeppeeeekdfdkkddddddddddddddddddddeonnnonndfddfkkeeeeeponnoonneeddddb................",
".......jeeeeeeepepeeeddffdkeeeeeeeeppeeeekfddfdddddddddddddddddddddennnnnnedidffkkeeeeepooooonnedddddb................",
".......eeeeeeeeeepeedkdfdfieeeeeeeeeeeeeekdfdffddddddddddddddddddeeennnnnnedffffkkeeeeeponnoonnedddddb................",
".......epeeepeeeeeeeefdfffkeeeeeeeeeeeeeeldfdffdddddddddddddddedddeeonnnnnedfdffdkeeepeeonnonnneeddddb................",
".......eeeeeeeeeeeeeekffdfkeeeeeeepeeeeeekfffffddddddddddddddeeeeeeeonnnnnelffffdkeeeeeeonnonnnedddddb................",
".......eeeeeeeeeeeeedkfdffieeeeeeeeeeeeeekfffffddddddddddddddeeeeeeeonnnnnelffffkkeeeeeeonnonnneeddddb................",
".......jeeeeeeeeeeeeddffdfkeeeeeeeeeeeeeeddffffdddddddddddddeeeeeeeeooonnnedfffffkeeeeeeonnnonnedddddb................",
".......eeeeeeeeeepeedddfdfkeeeeeeepeeeeeekfffffddddddddddddddeeeeeeeooonnnedffffdkeeepeeonnonnnedddddb................",
".......jeeeeeeeeeeeeddffffkeeeeeeeeeeeeeedfffffdddddddddddddeeeeeepeooonnnelffffdkeeepeeonnoonneeddddb................",
".......jeeeeeeeeeeeedkffffkeeeeeeeeeeeeeekfffffdddddddddddekeeeeeepeooonnnelfdffkkeeepeeonnonnnedddddb................",
".......jeeeepeeeeeeeekffdfieeeeeeeeeeeeeedfffffdddddddedddeeeeeeeeeeoonnnnelffffdkeeeeeeonnonnneeddddb................",
".......eeeeeeeeeeppeekffdfkeeeeeeepeeeeeedfffffdddddddeeeeeeeeeeeeeenonnnnelfdffdkeepeeeonnnnnneeddddb................",
".......jeeeeepeeeepeekffffkeeeeeeeeeeeeeekffffddddddddeeeeeeeeeeeeeeonnnnnelffffkdeeeeeeonnoonneeddddb................",
".......eeeeeeeeeeepedkffdfkeeeeeeepeeeeeekffffdddddddeeeeeeeeeeeeeeeoonnnnedfdffdkeeepeeonnnnnnedddddb................",
".......jeeeeeeeeeeeeekffffieeeeeeepeeeeeedfffffdddddddeeeeeeeeeeeeeeonnnnnekffffkkeeeeeeonnonnnedddddb................",
".......jeeeeeeeeeeeeddffdfieeeeeeeeeeeeeekdffffdddddddeepeeeeeeeeeeeoonnnnelfdfffkeeeeeeonnnnnneeddddb................",
".......jeeeeeeeeeeeedfffffieeeeeeepeeeeeekffffddddddddeeeeeeeeeeeeeeooonnnelffffkkeeepeeonnoonnedddddb................",
".......jeeeeeeedeeeedfffffieeeeeeeeeeeeeekffffdddeeeeeeeeeeeeepeeeeeoonnnnelfffffkeeeeeeoonnnnnedddddb................",
".......hddiiddfddddkkfffffdeeepeeppeeeeeekdfffdkeeeepeeeeeepppppeeeooonnnnedffffikeeeeeeoonnnnnedddddb................",
".......gffffffffffffffffffddeepeeepeeeeeekffffdkeeeppeeeeeepppppeeeoonnnnnedffffkkeeepeeoonnnnnedddddb................",
".......hfddffffffffkifffffddeeeeeeepeeeeekdfffdkeepppeeeeeppppppeeeooooonoolffffddeeeeeeonnnnnnedddddb................",
".......gffffffdfffffkffdffdeeeeeeeepeeeeelkfffdleeeeeeeeeppepeeeeeeeooooooeliffdkkeeepeeonnnnnnedddddb................",
".......gfdfdfffffffffffdfideeeeeeeeeeeeeeliffflkeeeeeeeepepeeeeeeeeeooooonoliffdkdeeepeeonnononedddddb................",
".......bdhhhgfdddffffffdddddeeeeeeeeeeeeellkkdlkeeeeeeeepeeeeeeeeeeoonnnooeklkdklkeeeeeeoonooonjdcddbb................",
"........a.a#v#ddddddddddddddddddddeeeeeeekddddddddddedeeeeeeeeeeeeeeeeeeeeeedddddeooooooeeeeeej#####..................",
"..............ddddddddddddddklkllleeeeeeeeeeeeedkklkkleepeeeeeeeeeeeklfdllleeeeeeeoooonoedddddj.......................",
"..............cddddddddddddkkklkdkeeeeeeeeeeeeeekffffldeeeeeeeepppeelffffdkeeeeeeoooonnnedddddh.......................",
"..............cddddddddddddddidddleeeeeeeepppeeeiffffldepeeepppppeeekffffddeeeppeoooonnnedddddc.......................",
"..............cddddddddddddddffffdeeepeeeepppeeedffffdeeeeeeppppppeekffffddeeepppoonnnnneeddddd.......................",
"..............cdddddddddddddfffffdeeeeeeepppppeekfffildeeeeeeepepeeekkifikkeeepppononnnnedddddd.......................",
"..............cddddddddddddddffffdeeepeeeppppeeelkkklkdeeeeeeeeeeeeekllkllkeeppppoonnnnneeddded.......................",
"..............cddddddddddddffffffdeeeeeeeeepeeeeeedeedddddkkkkddkddddddeedeeeeppeonnnoonedddddd.......................",
"..............hffffdddddkdfffffffdeeeeppeeeeeeeeeeeeeeeddddddddffkkleeeeeeeeeppeennnnoooedddddd.......................",
"..............hffffffffdffddfdfffdeeepppeeeeeeeeeeeeeedfffdddffffffkeeeepeeepepeeonnnoooedddddc.......................",
"..............gfdfddddfffdfddfffdleeeeepeeeeeeeeeeeeeedkffffffffffkleeeeeppeeeeepennnnnnedddddc.......................",
"..............gffifffffffffffkdffkeeeepeeeeeeeeppeeeeekkfffdddffffkleeeeeppeeeeepeonnnnnedddddc.......................",
"..............cfddddffffffffdffffleeeepeeeeeeeepeeeeeeddffffffffffdkeeeeeppeeeeepeoonnnoeeeeddb.......................",
"..............tghhfgfdifkkdddfddddeeeeeeeeeeeppppeeeeeelddkllkddfdkleeeeeeeeeeeeooonnnnnehhjhbb.......................",
"....................#dddddddddddddkkllllkeeeepppeeeeeeeeeeeeeeeeeeeeepeeeeeooonoooeeeeee#.............................",
"....................#jddddddddddddkkdddlleeeepppeeeeeeeeeeeeeeeeeeepppppeeeonnnnooeddddc#.............................",
".....................bddddddddddddkiffflkeeepppppeeeeeeeeeeeppeeeeepppppeeoonnnnoeedddddv.............................",
"....................#cddddddddddddddfffkkeeeepppeeeeeeeeeeeeppeepeepepeeeeennnnonoddddddv.............................",
"....................#cdddddddddddddffffikeeeeepeeeeeeeeeeeeeeeeeeeeeeeeeeeeonooooeeedede..............................",
"....................#deededdddddddddffflkeeeeeeeeeeeeeeeeeeeeeeeeeeeeeeeeeennnnoojeddedc..............................",
".....................hhhhbheeeedddkkkddddeeeeeeeeeeeeeeeeppepppeeppeeeeepeeoooonnjhbbbbb..............................",
"...........................heeeeeeeeeeeeddklkllkeeeeeeeppppeeppppppeepepeeeeeeehh#....................................",
"...........................heeeeepppeeeeellikllkeeeeeeeeeeeeeeeeepeeeeeppeededeec#....................................",
"...........................heeeeepppppeeekkfdfdkeeeeeeeeeeeeeeeeeeeeeeeeeeeeddddc#....................................",
"...........................heeeeeeppppeeeldfffddeeeepeeeeeeeeeeeeeeeeeeeeeedddddc#....................................",
"...........................heeeeeeeeeeeeeldfffdkeeeeeeeeeeeeeeeeeeeeeeeeeeeeddddc#....................................",
"...........................mjoeeeeeppeeeeddffdkkeeeeeeeeeeeeeeeeeeeeeeeeeeeedddcc#....................................",
"...........................#mhhhhheeeeedddfffdlkeeeeeeeeeeeeeeeeeeeeeeeeeeehhb###.....................................",
"..................................#hdifddfffffdddedddedddddddddddddddddddkh...........................................",
"..................................thdfffdffffffdddddddddddddddddddddddddeeh...........................................",
"..................................tgfffffffffffddddddddddddddddddddddddddeh...........................................",
"..................................tgfffffffffffdddddddddddddddddddddddddddh...........................................",
"..................................thdffdffffffdkddddddddddddddddddddddddddh...........................................",
"..................................tbhffdhdgffgdhccdcdccccccccccddccccccccch...........................................",
"....................................aaaa...a.#.##.##.#.###################............................................",
"......................................................................................................................",
"......................................................................................................................",
"......................................................................................................................",
"......................................................................................................................",
"......................................................................................................................",
"......................................................................................................................",
"......................................................................................................................"};
