/* XPM */
static char *dummy[]={
"118 119 27 1",
". c #79B229",
"a c #993333",
"k c #996600",
"# c #996633",
"o c #996666",
"y c #999933",
"n c #999966",
"e c #cc6633",
"m c #cc9900",
"h c #cc9933",
"b c #cc9966",
"w c #cccc33",
"x c #cccc66",
"v c #cccc99",
"i c #ff6600",
"f c #ff6633",
"j c #ff9900",
"d c #ff9933",
"c c #ff9966",
"q c #ffcc00",
"l c #ffcc33",
"g c #ffcc66",
"u c #ffcc99",
"r c #ffff33",
"p c #ffff66",
"t c #ffff99",
"s c #ffffcc",
"......................................................................................................................",
"......................................................................................................................",
"......................................................................................................................",
"......................................................................................................................",
"......................................................................................................................",
"......................................................................................................................",
"......................................................................................................................",
"......................................................................................................................",
".........................................####################aaaaaaaaaaaaaaaaaaaa.....................................",
"........................................#bcdcdddddcdcdddddddddbeeeeeeeeeeefffffee.....................................",
"........................................#gddddddddddddddddddddfffffffffffffffddee.....................................",
"........................................#ddddddddddddddddddddhhiffffffffffffifffb.....................................",
"........................................#ddddddddddddddddddddjjjdffffffffffdffffe.....................................",
"........................................kddddddddldldddddddddjijjiffffdjiifdiddde.....................................",
"........................................kddlldlldllldlddddddddjhjjddjddjjmihdmjde.....................................",
"..................................nhhnhhhlllllllllllllddddddddddlldldllllllllllldh###hho..............................",
"..................................glllpplllllllllllllljjffhjmllllllllllllllllllllddddccb..............................",
"..................................llllllllqqqllqllllllmmdddjjlllqlllllllqqqlqlqqlllddddb..............................",
"..................................lqqqqqlqqqqlllllqlllmjffffdlllllllllllllqqllqqlllddddc..............................",
"..................................lqqqqllqlqllllllqllljjffffdllllqlqllllllqllqqqlldddddb..............................",
"..................................lqlllllllllllllllllljjffffjllqqqqqllllllllllqqlldldddb..............................",
"..................................gllrrlllllllllllllllmmjdjmmllqqqqqqlllllllllqqlllldlld..............................",
"...........................ssssssstttttttttttttghjjjjjllllllllllllqqqllllllqlqqllrrrrrpghddbbbn.......................",
"...........................ssssssssssssssssssssgdddddjllqqlllllllllqqqllllllqqlllrppppppddddddb.......................",
"...........................ssssssssssssssssssssgfffffdllllqqllllllqqqqlqlqlllllllrppppppldddddb.......................",
"...........................ssssssssssssssssssssgfffffdlllllqqlllllllqqqqqllllllllrppppppldddddb.......................",
"...........................ssssssssssssssssssssgfffffdlllllqqqqlllllllqqqllllllllrppppppldddddb.......................",
"...........................ssssssssssssssssssssgfffffdlllllqqqqqlllllllllllllllllrppppppldddddb.......................",
"...........................ssssssssssssssssssssghffdfjllqllllqqllllllllllllllllllrprppppldddddb.......................",
"...........................ssssssssssssssssssssghffdfmlqqqllllqlllldjjjjjmlllqlllrppppppldddddb.......................",
"...........................ssssssssssssssssssssgdffdfmllqqlllqqqllldjdfdfjjlqqqqrrppppppldddddb.......................",
"...........................ssssssssssssssssssssghffffjllqllllqqqlllljifffillqqqllrpprprpddldddb.......................",
"...........................ssssssssssssssssssssgfffffdllqllllqqqqlllmjdffddllqlllrrprpppldddddh.......................",
"...........................ssssssssssssssssssssghdffddlllllqlqlqqlllmmddffdllllllrrrrpppldddddb.......................",
"...........................ssssssssssssssssssstgmjiiimlllllllllllllljmjdfddllllllrprrrrrldddddh.......................",
"..........................#stttttttttttttuuuuggljjjjjjlqllllllllllddjjddddddllllllrrrrrrllllllb.......................",
"....................vtptppgppppppppppppgwhddhhhllllllllqqlqllmjjdfddddddddddhmmmmllllrrrrpppppplccccb#................",
"....................vtppprprrpprrppppppplmifddmllllllllqqlllljifffiddddddddfimmjmlllllllpppprrrlldddc#................",
"....................xppppppppppppppprrrplmfffdjllqllllqllllllmfffffddddddddfddfdjlllllllrpppprplddddd#................",
"....................xpprpppppppppppprppplddffdjllllllllllllllmfffffddddddddfddffmlllllllppppppplddddd#................",
"....................xprpppppppppppppppppdhdfffjllqlllllllllllmfffffddddddddidfffmlllllqlppppppplddddd#................",
"....................xppppppppppppppppppplhdfffjllllllllllllllmfffffddddddddfdfffmlllllllrpppppplddddd#................",
"....................vtttttttttttttttttttghdfffjllllllllllllllmfffffddddddddfddfdmlllllllppppppplddddd#................",
"....................vsssssttssssssssssttghdfffjllqlllllllllllmfffffddddddddfdfffmlllllllrpppppplddddd#................",
"....................vsssssssssssssssssssgddfffjllqlllllllllllmfffffddddddddfdffdmlllllllrpppppplddddd#................",
"....................vsssssssssssssssssssghdfffjllllllllllllllmfffffddddddddfddffjlllllllppppppplddddd#................",
"....................vsssssssssssssssssstghdffdjlllllllllllllljfffffddddddddfdfffmlllllllrpppppplddddd#................",
"....................vsssssssssssssssssstgddfffjllqlllllllllllmfffffddddddddfdffdmlllllllrpppppplddddd#................",
"....................vtttttttttttttttttttgdfffdjllqlllllllllllmfffffddddddddfdfffmlllllllppppppplddddd#................",
"....................vpppgggpggggggggggggdhdfffjllqlllllllllllmfffffddddddddfdfffmlllllllrpppppplddddd#................",
"....................brlllllllllllllllllldjdfffjllqlllllllllllmfffffddddddddfddffmlllllllrpppppplddddd#................",
"....................wllqqllllllllllllllldjffffjllllllllllllllmfffffddddddddfdfffmllllqllppppppplddddd#................",
"....................wllqllllqqqqllqqqqlldidfffjllllllllllllllmfffffddddddddfffffmlllllllrpppppplddddd#................",
"....................wlllllllqqqlqlqqqqlldffffdjllqlllllllllllmffffdddddddddfffffmlllllllrpppppplddddd#................",
"....................wrllllllqllqqqlllllldddfffjllqllllllllqllmhfffjddddddddfdffdmlllllqlrpppppplddddd#................",
"....................wlllllllllllllllllllddffffjlllllllqllllllmifffdddddddddfdfffjlllllllppppppplddddd#................",
"....................wlllllllllllqlllllqldddfffjllllllllllllllmfffffddddddddidfffmlllllllrpppppplddddd#................",
"....................wllllllllllllqllllllddffffjllqlllllllllllmfffffddddddddiddfdmlllllllrpppppplddddd#................",
"....................wllllllllllllqllllqlddfffdjllllllllllllllmfffffddddddddiddffjlllllqlppppppplddddd#................",
"....................wllllllllqllqllllllldddfffjllqllllqlllllljfffffddddddddfdfffmlllllllrpppppplddddd#................",
"....................wlllqllllllllqllllqldfdfffjllqllllllllllljfffffddddddddfdfffjlllllllrpppppplddddd#................",
"....................wlllllllllllqlllllllddfffdjllllllllllllllmffffddddlddddiddffmlllllqlrpppppplddddd#................",
"....................wlllllllllllllllllqlddffffjllqlllllllllllmfffffjlllllddfdffdjlllllqlrpppppplddddd#................",
"....................wlllqllllllllqllllllddfffdjllllllllllllllmjfffddlllllldfddffmlllllllrpppppplddddd#................",
"....................wlllllllllllqlllllqldjdfffjllqlllllllllllmjfffjjllllllddddfdjlllllqlrpppppplddddd#................",
"....................wlllllllllllqlllllllddffffjllqlllllllllllmjffdmjlllllldidffdmlllllllrpppppplddddd#................",
"....................wlllllllllllqlllllqldddffdjllqlllllllllllmfffdmjlllllldddfffjlllllllrpppppplddddd#................",
"....................wllllllllqllqlllllllddfffdjllllllllllllllmffffmjlllllldfddfdmlllllllrpppppplddddd#................",
"....................wllllllllllllqlllllldddfffjllllllllqllllljffffjjlllllldfdffdmlllllllrpppppplddddd#................",
"....................wllllllllllllqllllqldffffdjllqqqllllllllljffffmdlllllldfddffjlllllllrpppppplddddd#................",
"....................wlllllllllllqllllllldfdffdjllqqqlllllllllmffffjjlllllldfdfffjlllllllrppprpplddddd#................",
"....................wllqllllllllqqlllllldjdfffjllqqqllllllllljffffjdlllllldjdfffjlllllllppppppplddddd#................",
"....................wllqqqllllllqllllllldhdffdjllqlllllllllllhffffjjlllllldiddffjllllqllrppprrrlddddd#................",
"....................wllqqqllqqlllllllllldjdfffjllllllllllllllmffffjjlllqlldjjjfdjlllllllrpppppplddddd#................",
"....................wllqlllllqlllllllllldmdfffjdlllllllllllllmffffmjlllllldjjhdfjlllllllrpppppplddddd#................",
"....................bllllllllllllllllllldjdfffddlllllllqllqlljifffmdlllllldjhjffjlllllqlrpppppplddddd#................",
"....................bddddddddjddddddddddddffffjllllllllllqqlljifffmllrrrrrdhdfffjlllllllrpppppplddddd#................",
"....................ofmmijhhjmjhhdhhdhjdffffffjllllllllqllqlljifffdlppppppdddfffjlllllqlrpppppplddddd#................",
"....................#fdfffdfdiffdfffffffffffffjllqllllqlllllljifffdlppppppldffffjllllllqrpppprplddddd#................",
"....................eddfffffdfffffffffffffffffmllqqqllqlllllljifffmlpppprplfffffmlllllllppppppplddddd#................",
"....................eeffffffifffffffffffffdfffmllqlqlllllllllmiffdhlppppppldfdffmlllllllrpppprplddddd#................",
"....................obefffffiiffffiiifiiiiddffjllllllllllllllmjddhmlpprpppldiifimllrllllrpppprphddddg#................",
"....................obebeeedddddddddfdddddhdffddlllllllllllllmmjmmmlppppppdjmmjmmllrlllrrpppppphccccb#................",
"..........................adddddddddddddddjdddddjjjdjjllllllllllllddddddddllllllllrrrrrrllllllb.......................",
"...........................dddddddddddddddldddddjiijmmllllqqllllllldmmhddmdllllllrrrpprpllldlwn.......................",
"...........................cldddddddddddddddddddfjdijjlllqqqllllllllmfdfffdllllllrrrppppldddddn.......................",
"...........................cdddddddddddddddddddddfidfdllqqqqllllllldjffffddllllllrrpppppldddldb.......................",
"...........................cddddddddddddddddddddddfffdlllqqqlllllllljffffjdllqlllrrpppppldddddb.......................",
"...........................bldddddddddddddddddddfffffdllqlqqllllqlllmjfdjmdllqllqrrpppppldddddb.......................",
"...........................bddddddddddddddddddddfffffdllqqqqllllqlqjmmdmmmlllqlllrppppppldddddb.......................",
"...........................bdiffjjdfdjjjdddddddffffffdlllqqqllqqqqlllllllllllqlllrppppppldddddb.......................",
"...........................bdfffdfffffddfffffdfffffffdlllqqqllqqqqllllllllllqqlllrppppppldddddb.......................",
"...........................bdffffffffffffffffffffffffjlllllllqqqqqqlllllllllqllllrprppppldddddb.......................",
"...........................bdffffffffffffffddffffffdhmlllllllllllqllllllllllqllllrppppppldddddb.......................",
"...........................hdffefffffdffffddffdffdddjmlllllllllllllllllqqqlqqllllrpppprpgdldlgh.......................",
"...........................obfeefedddjddfdhjjjjjjjdjmmllllllllllllllllqqqqlllllllrpppppgxgdddbn.......................",
"...........................ooeeeefdjjjjjjjjjjjjjjjjmmjdllllllllqlllllqqqllqllllllrpprplghhbbbbo.......................",
"..................................lllllllllllllllllllljmmmmjjlllllllqqqllllllllllllllldh..............................",
"..................................lllllllllllllllllllljijjjmmlllllllqqqllllllllllljlddld..............................",
"..................................llllqqllllllllqllllldddfddmlllllllqqqllllllllllllddddc..............................",
"..................................lllllllllllllqqqlllldddffdmlllllllqqqllllllllllldddddc..............................",
"..................................lllllllllllllqqqlllljfiffdjlllllllqllllllqlllllldddddb..............................",
"..................................llllrllllllllllllllljiihijjllllllllllllllqlllllldddlwb..............................",
"..................................bhhhhhhlllllllllddddjjjjjjjllllllllllllllllllllyee#y#y..............................",
"........................................amhjjjjjjjdjddffffffddddlllldllldlddllllw.....................................",
"........................................#dffffiijfffffffffffddddddldddddddddddldb.....................................",
"........................................addfddddddffffffffffdddddddddddddddddddlg.....................................",
"........................................adffffffffffdffffffffdddddddddddddddjdjdc.....................................",
"........................................aefffffffddfffffffffddddddddddddddddddddb.....................................",
"........................................abedfddfffdefffddfbfddddddddcccccddcccccb.....................................",
"..........................................aaaa.aa.aa.aaaaaaa#.#..#####.#########......................................",
"......................................................................................................................",
"......................................................................................................................",
"......................................................................................................................",
"......................................................................................................................",
"......................................................................................................................",
"......................................................................................................................",
"......................................................................................................................",
"......................................................................................................................"};
