/* XPM */
static char *result[] = {
/* columns rows colors chars-per-pixel */
"66 119 196 2 ",
"   c #79B229",
".  c #79B229",
"X  c #79B229",
"o  c #79B229",
"O  c #79B229",
"+  c #79B229",
"@  c #79B229",
"#  c #79B229",
"$  c #79B229",
"%  c #79B229",
"&  c #79B229",
"*  c #79B229",
"=  c #79B229",
"-  c #79B229",
";  c #79B229",
":  c #79B229",
">  c #79B229",
",  c #79B229",
"<  c #79B229",
"1  c #79B229",
"2  c #79B229",
"3  c #79B229",
"4  c #79B229",
"5  c #79B229",
"6  c #79B229",
"7  c #79B229",
"8  c #79B229",
"9  c #79B229",
"0  c #79B229",
"q  c #79B229",
"w  c #79B229",
"e  c #79B229",
"r  c #79B229",
"t  c #79B229",
"y  c #79B229",
"u  c #79B229",
"i  c #79B229",
"p  c #79B229",
"a  c #79B229",
"s  c #79B229",
"d  c #79B229",
"f  c #79B229",
"g  c #79B229",
"h  c #79B229",
"j  c #79B229",
"k  c #79B229",
"l  c #79B229",
"z  c #79B229",
"x  c #79B229",
"c  c #79B229",
"v  c #79B229",
"b  c #79B229",
"n  c #79B229",
"m  c #79B229",
"M  c #79B229",
"N  c #79B229",
"B  c #79B229",
"V  c #79B229",
"C  c #79B229",
"Z  c #79B229",
"A  c #79B229",
"S  c #79B229",
"D  c #79B229",
"F  c #79B229",
"G  c #79B229",
"H  c #79B229",
"J  c #79B229",
"K  c #79B229",
"L  c #79B229",
"P  c #79B229",
"I  c #79B229",
"U  c #79B229",
"Y  c #79B229",
"T  c #79B229",
"R  c #79B229",
"E  c #79B229",
"W  c #79B229",
"Q  c #79B229",
"!  c #79B229",
"~  c #79B229",
"^  c #79B229",
"/  c #79B229",
"(  c #8F5A26",
")  c #864936",
"_  c #8B5A31",
"`  c #EF7C1F",
"'  c #F17C1C",
"]  c #ED7D23",
"[  c #E27F2A",
"{  c #F27D26",
"}  c #C17F43",
"|  c #F08713",
" . c #DD8134",
".. c #E28B25",
"X. c #E2812C",
"o. c #F38124",
"O. c #F88C27",
"+. c #E48234",
"@. c #E2803F",
"#. c #EB8F38",
"$. c #FF9F33",
"%. c #F7AE24",
"&. c #F9AD25",
"*. c #FEA62E",
"=. c #FEA92E",
"-. c #FDB623",
";. c #EFAE38",
":. c #F7A631",
">. c #FEA531",
",. c #FDAA31",
"<. c #F4A73F",
"1. c #F0AB3A",
"2. c #F4B738",
"3. c #FADB17",
"4. c #FFD71C",
"5. c #FED91D",
"6. c #FFCD26",
"7. c #FFC52A",
"8. c #FFD721",
"9. c #FED922",
"0. c #FFD42B",
"q. c #FCCB3D",
"w. c #F7D734",
"e. c #F9D736",
"r. c #F1D937",
"t. c #F7D937",
"y. c #FAD63A",
"u. c #FAD839",
"i. c #BA8547",
"p. c #B98858",
"a. c #AE8663",
"s. c #B78A6A",
"d. c #C28146",
"f. c #C4854B",
"g. c #CA8A4A",
"h. c #D4844F",
"j. c #C29147",
"k. c #CD9053",
"l. c #D59C58",
"z. c #D29C5C",
"x. c #D4A356",
"c. c #D1A850",
"v. c #D7A05C",
"b. c #D9A15E",
"n. c #DAAA5C",
"m. c #DFB45D",
"M. c #DDB95C",
"N. c #EDA64A",
"B. c #F4A641",
"V. c #F9A443",
"C. c #F5A943",
"Z. c #F4A74F",
"A. c #E1BA5D",
"S. c #D8A364",
"D. c #D5A473",
"F. c #EBA862",
"G. c #DFC45B",
"H. c #D8C858",
"J. c #FBC541",
"K. c #EBD84E",
"L. c #FFD343",
"P. c #F4D940",
"I. c #E1C35D",
"U. c #E2C95E",
"Y. c #F0D854",
"T. c #FEFE53",
"R. c #DBCA6E",
"E. c #D9CD74",
"W. c #E5C860",
"Q. c #FBFC63",
"!. c #FBFB69",
"~. c #F7E677",
"^. c #F8F977",
"/. c #E2D99B",
"(. c #E9EB83",
"). c #EAEC89",
"_. c #F3E485",
"`. c #F7F880",
"'. c #E9EC98",
"]. c #FDFC91",
"[. c #FFFD9D",
"{. c #E8EBA6",
"}. c #FBFAA0",
"|. c #FFFDAD",
" X c #EBECB4",
".X c #EDE6BB",
"XX c #F1EEB7",
"oX c #FFFFB4",
"OX c #FDFFBE",
"+X c #ECEDC3",
"@X c #ECEDCD",
"#X c #F0EBCE",
"$X c #FEFEC3",
"%X c #FEFECB",
"&X c #EDECD3",
"*X c #FEFDD2",
/* pixels */
"c c c v c c c c c c c c b c b c c c c v c c c v N c c c c v c v c c c v c c N c c c c c N c c c c v N c c N c c v c c c v c c c c v ",
"c c c c c c v N c c N c c c V c c c c c c c c c c c c b c c c B c c c c c c c c c c c v c c c c c b c c c c c c c c c c c c B v B c ",
"c N c c c v c c c c c c c c c c c c c c c N c c c c c c c c c b c c N c c N c c c c c c c c c c c B c c c c c c c c c v c c c c c v ",
"c v c c c c c B N c c v v v c z b c v v v v v c v v V v v v v v v v v c b v v v v V v v v v v N c z z b v v v v B V B b c c c v c c ",
"c N c c b k v N A D j U l f b G   z v j v v v j v v v v h v j v j l v v v v v h j v v j v v j v z   G J f l b j A Z D v v b b c v c ",
"c N c b b z v Z A A a b h h k 1 7 1 2 2 2 2 2 2 2 2 2 2 2 2 2 2 2 2 2 2 2 2 2 2 2 2 2 2 2 2 2 2 1 7 1 k h l U a P A Z v l z c c N c ",
"c V v c k z v Z A A j v U v z 7 / _ ( ( ( ( ( ( ( ( ( ( ( ( ( ( ( ( ( ( ( ( ( ( ( ( ( ( ( ( ( ( _ / 7 k U U h a A A N v k k c c v B ",
"c v N c b k v Z A K j O U C + R s.F.Z.Z.Z.Z.Z.Z.Z.Z.Z.Z.Z.Z.Z.Z.Z.Z.Z.Z.Z.Z.Z.Z.Z.Z.Z.Z.Z.Z.Z.Z.F.s.! k U h @ j P A Z c l b b N V c ",
"v v B c c l c N A P J j l l   p D.N.:.:.:.:.*.:.:.,.:.:.:.:.:.:.:.:.:.:.:.:.:.:.:.:.:.>.,.:.:.:.N.D.7 O l l j b K A D v j c c V v c ",
"v N v c c b c D A m c b z l X - D.C.=.=.=.=.=.=.=.=.=.=.=.=.=.=.=.=.=.=.=.,.=.=.=.=.=.=.=.=.=.=.C.D.= X l l z J m A N c c c c v V v ",
"B v N c c b j N B d J z l k 2 - D.C.,.>.,.,.>.,.,.>.,.>.,.>.>.>.>.,.,.>.>.,.,.>.,.>.,.,.,.>.>.,.C.S.- 2 z l b J d B B j b c B v V c ",
"v v v c b b v B B d G z O O 6 = v.C.,.,.,.,.,.,.,.=.,.,.,.,.,.,.,.,.,.,.,.,.,.,.,.,.,.,.,.,.,.,.C.z.- 6 O O z G d K B b b c B v v v ",
"N v v B c b v c B J J k b l 2 = S.2.&.&.&.&.&.&.&.&.&.&.&.&.&.&.&.&.&.&.&.&.&.&.&.&.&.&.&.&.&.&.C.S.w 2 l b j b J B c b b c B v v v ",
"v v v B B c v c c J b j U j 2 e M.J.7.7.7.7.7.7.7.7.7.7.7.7.7.7.7.7.7.7.7.7.7.7.7.7.7.7.7.7.7.7.J.M.e 2 l b k J J c B v b c B v v v ",
"v v v B B c c c c J J b b j 2 e A.L.9.9.0.9.9.9.9.9.9.9.9.0.9.9.8.9.9.9.0.9.0.9.8.9.9.9.0.9.0.8.y.W.e 2 j b c c J c c v v B B v v v ",
"v b c N N c v c c J b c U j 2 t W.r.5.3.5.3.5.3.5.5.3.5.3.3.5.5.3.5.3.5.3.3.3.3.3.5.3.5.3.3.3.5.e.U.t 2 j C j J J c c v v B B v v b ",
"v b j A B c v c c J c x V j o w I.w.3.3.3.3.5.3.3.3.3.3.3.5.3.3.3.3.5.3.3.3.3.3.3.3.5.3.3.3.3.3.e.U.e o h C v B b c v v N D B b l c ",
"c j b B B c v v b c c N Y j o w U.e.5.5.8.5.5.4.5.5.5.5.5.5.5.5.5.5.5.5.4.5.5.5.4.5.5.5.4.5.4.5.e.U.w o h Y N j J c v v c N B b v c ",
"c v b B B v v v c J x x Y h o r I.w.5.9.8.9.8.8.8.8.8.8.8.9.9.8.8.8.8.8.8.8.8.8.8.8.8.8.8.8.8.8.e.U.w o g S g c J c c v v B B b z c ",
"c b b c B B v v c b x g S g o r R.Y.u.P.P.P.P.u.P.P.P.u.u.P.P.P.P.P.P.P.P.P.P.u.P.P.P.P.P.P.P.y.Y.R.r o g N M c b b c v c B c c b c ",
"c c c B c N v v v k j N N j z y XX|.[.[.[.[.[.[.[.[.[.[.[.[.[.[.[.[.[.[.[.[.[.[.[.[.[.[.[.[.[.[.}.XXq U k V N z k v v N N c c c b B ",
"N B B j c v N B v l z N B v H u +X%XOX$X$X$XOXOX$X$XOXOXOXOXOX%XOX$XOXOX$X$XOXOXOX$XOXOX$X$XOXOX%X@Xu z c c c l l v c v x c c B N B ",
"c B B b c N N v v k j B N c H i @X*X%X%X%X%X%X%X%X%X%X%X%X%X%X%X%X%X%X%X%X%X%X%X%X%X%X%X%X%X%X%X*X@Xi J x B c b k v B N B j c c B b ",
"v c c b c v B N v l b B B c J i @X*X%X*X%X%X%X%X%X*X%X%X%X%X%X%X%X%X%X%X%X*X%X%X*X%X%X%X%X*X%X%X*X@Xi z n B B j v v v N N c b B N b ",
"v B c b b N N v c v j D A m z i @X*X%X%X%X%X%X%X%X%X%X%X%X%X%X%X%X%X%X%X%X*X%X%X%X%X%X%X%X%X%X%X%X@Xi H c A D j k v V N N b b c b B ",
"v B c c b N N N N j j B N m b i &X*X%X%X%X%X%X%X%X%X%X%X%X%X%X%X%X%X%X%X%X%X%X%X%X%X%X%X%X%X%X%X*X&Xi J n A N v j v B N N b b c N b ",
"x c b b b N N V v v c D N B b i &X*X%X%X%X@X%X%X%X*X%X%X%X%X%X%X%X*X%X%X%X%X%X%X%X@X%X%X%X%X%X%X*X&Xi c d B N c v N B N N b b c c N ",
"x c b b b B N B N v v D N B J i @X*X%X%X%X%X%X%X%X%X%X%X%X%X@X%X%X%X%X%X%X*X%X%X%X%X%X%X%X%X%X*X*X&Xi c N A B x v N N V x c k c c c ",
"B c b b k N N V N v c D V B z T @X%X%X%X$X$X$X$X%X%X%X$X%X%X$X%X%X$X%X%X%X$X$X$X%X$X%X$X%X%X%X$X%X@Xi l x A D v B N N N v c b c c N ",
"v c c b b N N N N c b D B c z u @X*X%X%X$X%X%X%X%X%X%X%X%X$X%X%X%X%X$X$X%X%X%X%X%X$X$X%X$X$X%X%X*X@Xy b n B D c c N N N N c b b c c ",
"N c c b j N N N N N c N B n z y @X%X%X$X@X%X$X%X$X$X$X@X$X%X$X$X$X%X%X%X%X%X$X@X%X%X+X$X%X$X$X%X%X@Xy z x B N v c V N N x b c c c N ",
"B c c b b B N B c j v B N d z y +X%X$X$X$X$X$X$X$X$X$X$X$X$X$X$X$XOX$X$XOX$X$X$X$X$X%X$X$X$X%X$X%X+Xu z b c B v v c N N x b k c c c ",
"c c c j b B N N B j b N v b # y .X%XOX$X$X$XOX$XOX$X$X$XOX$X$X$XOXOX$X$XOX$XOXOX$X$XOX$XOX$X$X$X%X.X0 U k c B j v N V N B c b c v N ",
"V B c b v N N B v b l c c z # 0  X|.[.[.[.[.[.}.[.[.[.[.[.[.[.}.[.[.[.}.[.[.[.[.}.}.[.[.[.[.[.[.|. X0 6 b c c k v c N N v c b c c c ",
"B c c b b v B N v b j c c k # 8 {.`.!.!.!.!.!.!.!.!.!.!.!.!.!.!.!.!.!.!.!.!.!.!.!.!.!.!.!.!.!.!.^.{.8 # z c B j l v N N B j b b c B ",
"V c c c c c c c c v b b B c # 8 '.!.T.T.T.T.T.T.T.T.T.T.T.T.T.T.T.T.T.T.T.T.T.T.T.T.T.T.T.T.T.T.^.'.8 i c b B v b v c B B c b b c v ",
"N v c B B b b b b c c D B B 6 8 (.!.T.T.T.T.T.T.T.T.T.T.T.T.T.T.T.T.T.T.T.T.T.T.T.T.T.T.T.T.T.T.Q.(.8 6 B N D N c k k b c c c v c N ",
"N v v N B k k c b c N D D B + 8 (.!.T.T.T.T.T.T.T.T.T.T.T.T.T.T.T.T.T.T.T.T.T.T.T.T.T.T.T.T.T.T.!.(.8 6 B D V N N k k b c B B v v N ",
"N v v N B c k c c v x N N B i 8 ).!.T.T.T.T.T.T.T.T.T.T.T.T.T.T.T.T.T.T.T.T.T.T.T.T.T.T.T.T.T.T.!.).8 H B B v N N b k b c B c v v v ",
"N v c B c c b B B v x B B v z 8 '.^.Q.Q.Q.!.T.Q.Q.Q.Q.Q.Q.Q.T.Q.Q.!.T.Q.Q.Q.Q.!.Q.Q.T.Q.Q.Q.Q.Q.^.'.8 z x c v N N b b c B c c c c N ",
"N N c c c b c B N N v v v v z q  X}.].].].].].].].].].].].].].].].].].].].].].].].].].].].].].].[. X0 H v l v N B B c c c c c c v N ",
"V N c c c c b A Z v g l l j z u +XOXoXoX|.oXoXoXoXoXoXoXoXoXoXoXoXoXoXoXoXoX|.oXoXoXoXoXoXoXoXoXOX+Xu b j @ l v N V B B c c b c v B ",
"N B c c c c c A Z g h U l j b i &X%X%X$XOX$X$X$X$X$XOX$XOX$XOX$XOXOX$X$XOX$XOX$XOXOX$X$XOX$X$XOX%X@XT b j l @ v N N N B c k b c N v ",
"N B N b k c c A Z v h @ @ l b T &X*X%X$X%X$X$X%X$X$X%X$X%X$X%X$X%X%X$X%X%X$X%X$X%X%X$X%X$X%X$X%X*X&XT b l @ @ v N Z Z B c c b c N B ",
"N N c c b b c A Z N U . l z k T &X*X$X%X$X%X$X$X%X%X$X%X%X$X%X%X$X%X%X$X$X%X%X$X$X%X%X%X$X$X%X$X*X&XT k b o . U N B A B c c k c N v ",
"N B B c c k c A Z g U f O z z R #X%XOX$XOX$XOXOXOXOXOXOXOXOXOXOXOXOX$XOXOXOX$XOXOXOXOXOXOXOXOX$X%X#XT z k @ . C n B B B c c b c N c ",
"N B B c c b b B N x U O l z k p .XOX|.|.|.|.|.|.|.|.|.|.|.|.|.|.|.|.|.|.|.|.|.|.|.|.|.|.|.|.|.|.OX.Xu H c @ O D N B B c c b c v N v ",
"N B c c c c c B V v C j z j + w /._.~.~.~.~.~.~.~.~.~.~.~.~.~.~.~.~.~.~.~.~.~.~.~.~.~.~.~.~.~.~._./.q + k z @ N N N c c c c c N N N ",
"N B c B c b b b x j c j b k < = E.K.r.r.r.r.r.r.r.r.r.r.r.r.r.r.r.r.r.r.r.r.r.r.r.r.r.r.r.r.r.r.K.E.8 + k k k B x c k c c c c B V v ",
"N c c B B b k b v a j x B c 2 9 H.r.9.9.9.9.9.9.9.3.9.9.9.9.9.9.3.9.9.9.9.9.9.9.3.9.9.9.9.9.9.9.r.H.9 2 c J k N a k k c B c v c v V ",
"N v V B B b k k j j v c K s 3 r H.0.5.5.3.5.5.5.3.5.3.9.4.4.5.5.5.5.5.4.3.5.5.5.5.5.5.4.3.5.5.5.w.H.r 6 d J b B d z z b c B N v v c ",
"N c c B N b z k b c N N D s 3 t G.e.5.5.9.5.5.5.5.9.3.9.4.5.5.5.5.9.5.5.5.5.5.5.5.9.5.5.5.5.5.5.w.H.t 3 s B c B c k k b c B B v v V ",
"N c c N N c b b b v V N V c 2 e U.e.5.5.5.5.5.5.8.5.5.5.5.5.5.5.5.5.5.5.5.5.8.5.5.5.5.5.5.5.5.5.t.U.r < c D v N k J k b v N N v c c ",
"D c c N V v k c b c v M V c < e U.e.8.9.8.9.9.9.8.8.9.9.8.8.9.9.9.9.8.9.9.9.9.5.9.9.8.9.9.9.8.8.t.U.w 2 b V V C c c J b v V N c c B ",
"B c c N N c b b b c v V V c 2 w U.u.9.5.5.5.5.9.5.5.5.5.5.5.5.5.5.8.5.5.5.5.5.9.5.9.5.5.5.5.9.5.w.U.t 2 c S N b d c c k v V V c j N ",
"B c c B V j b b c c v x S c < w W.e.5.5.9.5.5.5.5.9.5.9.9.5.9.5.5.5.5.8.5.9.5.5.5.5.5.8.9.5.5.5.t.U.w 2 k N M N c J b b v N N v b B ",
"B c B N V c k c c c V N V c < w U.u.5.8.5.5.5.9.5.9.5.8.5.5.5.5.9.5.5.9.5.5.5.5.5.5.5.5.9.5.9.5.w.R.w 2 b S V b c c J k j N N c b c ",
"N c c N N c k c c k v N S j 2 w W.e.5.5.5.8.5.8.5.5.5.5.9.5.9.8.5.5.5.5.5.9.5.9.5.5.8.5.9.5.5.5.w.W.w 2 j Y M c k J c b c V N c b N ",
"D b c N v v b c c c b g N c 2 e I.u.5.5.5.5.5.5.5.5.5.5.5.5.3.5.5.5.5.5.5.3.5.5.5.5.5.5.5.5.5.5.e.U.w < b D v N c c J k v V N c b c ",
"B c c N N v k b c c c N S b < w U.e.5.5.5.5.5.3.5.5.5.5.3.5.5.5.5.5.5.5.5.5.5.5.5.5.5.5.3.5.5.5.e.U.w 2 v N V N d c k b v N N c b N ",
"B c c B V v b c c c v M V j 2 e U.e.4.4.8.5.5.8.5.8.5.5.5.8.5.8.5.8.5.5.5.8.5.8.8.5.5.8.5.8.5.5.e.G.w 2 c N M c J c k b v V V c c c ",
"B c c N V c k b c c v M S k 2 e G.e.4.4.5.5.5.5.5.5.4.5.5.5.5.5.5.5.5.5.5.5.5.5.5.5.5.5.5.4.5.5.e.G.w 2 c V M c b J c b v V N v c c ",
"B c c N V j z c b b v M V x < e G.u.9.9.8.8.9.9.9.9.9.8.9.9.9.9.8.8.9.9.9.9.8.8.9.9.9.9.8.8.9.9.u.G.w 2 x N x c c J b b v N N c c N ",
"B B c N B b b c b B v N V v 2 w U.u.9.9.9.9.9.9.9.9.9.9.9.9.9.9.9.9.9.9.9.9.9.9.9.9.9.9.9.9.9.9.u.G.w 2 c V g c c c b c v N N c c c ",
"B c c N V c b c c c c M S j < e G.y.8.8.8.8.4.8.8.8.8.8.8.5.8.8.4.8.8.8.8.5.8.8.8.8.8.5.8.8.4.8.y.G.w 2 j C M c c J b b j B N c c c ",
"N c c B V j b c c c c x S j 2 e G.u.8.8.8.8.8.8.8.8.8.8.8.8.8.8.8.8.8.8.8.8.8.8.8.8.8.8.8.8.8.8.y.G.e < c S M c c J J b v V V c b N ",
"N c c B N c z c b c v g C x < e G.e.8.8.8.8.8.8.8.8.8.8.8.8.8.8.8.8.8.8.8.8.9.8.8.8.8.9.8.8.8.8.e.G.r < j Y M b b c c j v N N c c B ",
"N B c B N j b b c c V g C v 2 e A.q.6.6.6.6.6.6.6.6.6.6.6.6.6.6.6.6.6.6.6.6.6.6.6.6.6.6.6.6.6.6.q.A.w 6 j V v N J c c b v v N N c v ",
"N B c c c j v v c N A c j c X E x.;.&.&.%.%.%.%.%.%.&.&.%.&.%.&.&.&.%.%.%.%.&.&.%.&.&.%.%.%.%.%.;.x.e $ b l c B B b b v v c v B B v ",
"N B B c b b v v j A B c b B X E S.C.=.=.=.=.=.=.=.=.=.=.=.=.=.=.*.=.=.=.*.=.=.=.*.*.=.=.=.*.=.=.C.v.E X b b b c K c k j v c c B N V ",
"V B c c v v v v v D B b j B X E b.C.>.*.*.*.>.=.*.*.=.*.>.*.*.*.*.*.*.=.*.=.*.*.*.,.*.=.*.>.=.=.<.v.W X z l b c B b v v v c c B N v ",
"N B c b b v v v v D B b l B X E l.C.,.*.*.=.=.>.*.=.>.=.*.,.*.=.,.=.>.>.=.*.,.=.>.=.*.>.*.=.*.>.<.v.E : b j b B D v l v v b c c V B ",
"N N B c b b v v v N B c l b : E l.C.,.>.>.>.>.*.>.>.>.>.>.>.>.>.>.>.>.>.>.>.>.>.,.>.>.,.>.>.>.>.C.b.E X b l b B K b k x v b c B N B ",
"N N c c b v v v v N B V v b + E b.C.>.>.,.>.,.*.,.>.,.>.,.>.,.>.,.>.,.>.>.=.>.>.>.>.>.>.,.>.,.>.C.b.E X b l c B A b v v v b c B N v ",
"N B B J b v h v c A B v v c X E b.V.*.>.*.*.=.*.,.>.=.*.*.*.=.>.*.>.=.*.=.*.,.*.=.*.=.>.*.*.=.*.C.v.E X c l b B A j v v v c c B N N ",
"N B c b v v v v v N B c j B : E b.C.,.*.,.=.*.=.*.=.,.*.,.,.=.=.=.=.=.=.,.=.*.,.,.=.=.>.=.,.=.=.C.v.E X c k b B D v v v j b c v N v ",
"V N B b b b h v v B c c v b X E b.<.=.=.=.=.=.=.=.=.*.*.=.=.=.=.*.*.=.=.=.=.*.*.=.=.=.=.*.*.=.=.C.S.E X B b b B A b v v v v c c c v ",
"B D c c c c v v N B B N b B : E S.C.=.=.*.*.=.=.=.*.*.*.*.=.=.=.*.*.=.*.=.*.*.*.=.*.=.=.*.*.*.=.C.b.E X B v c m m c v v v b b B N N ",
"B N B c k b j v v A B b b C 6 E b.B.=.*.*.$.*.*.*.*.*.*.*.*.*.*.*.*.*.*.*.*.*.*.*.*.*.*.*.*.*.*.B.S.W 4 b b U D P c b v v b b c B v ",
"N N c c b b v x v A B c l b 4 E l.V.*.*.*.*.$.*.*.*.>.*.$.*.*.*.>.*.$.*.*.*.*.*.$.*.*.*.*.>.*.>.V.z.W 4 J v C A P c j v v b b c V v ",
"B D c c v v v v c D B C l L 4 E l.V.$.$.$.$.$.$.$.$.>.$.$.$.$.$.$.$.$.$.$.$.$.$.$.$.$.$.$.$.$.$.V.z.E 4 D v B K D v v v j b c c N c ",
"N N c b b v v h v I N N l B 4 - k.#.O.O.O.O.O.O.O.O.O.O.O.O.O.O.O.O.O.O.O.O.O.O.O.O.O.O.O.O.O.O.#.k.* H B j v A P v v v v b c B N N ",
"N N B c z v v v v A B j j C 5 * f.X.{ ` ' ` ` { ` ' ] ' ' { ] ' ' ` ` { ` ' ] ' ' { ] ' ' ` ` { [ f.* 4 L l j A P c v v v c b c N c ",
"B B c c c v h v v K N j k C 4 * f.+.{ { { { { { { { { { { { { { { { { { { { { { o.{ { { { { { { @.f.& F D j x d K v v v v c c B v N ",
"N c c B N N v v v b c v j D F * d.+.{ { { { { { ] { { { { { { { { { { { ] { { { { { { { ] { { { +.} * F A x N c c v v v v B B c v v ",
"N c c B B v v v v b c B N P 4 * } +.{ { ] { { { { { { { ] { { ] { { { ] { { ] { { ] { { ] { { { +.} * F D N V b k v v v v B B c c B ",
"B c c B N v v v j k c N N A , * d.+.{ { { { { { { { { { { { { { { { { { { { { { { { { { { { { { [ } E , K N V c j v h v c B m c c N ",
"B c c B N v v v v k b B x D 4 E g.X.' ' ' ' ' ' ' ' ' ' ' ' { ' ' ' ' ' ' ' ` ` ' { ' ' ' ' ' ' +.g.- 4 D N V j k v v v c B B c c B ",
"c v c A B v j v j c c N v D 4 E k.V.>.>.$.$.>.$.$.$.>.>.$.$.$.$.>.>.$.$.$.*.>.$.$.$.>.>.$.$.>.$.V.l.E 4 B N V c b c j v v N B c v c ",
"b b c m B b v v b b c D x B 4 W l.<.*.=.*.*.*.*.*.*.*.=.*.*.*.*.*.=.*.*.*.*.*.*.*.*.*.=.*.*.*.*.<.l.W 4 B v B c c c v v B N B c b c ",
"B c c B N V v v c b c V v c < W x.C.=.=.*.=.,.,.*.=.=.,.=.,.*.&.=.=.,.,.*.=.,.=.*.:.=.=.*.=.=.,.C.x.W < c N V c b j v v v D B c c B ",
"B c v B B v v v c J c V N B X e x.1.,.:.,.:.,.,.,.,.:.:.,.:.,.,.:.,.:.,.:.,.,.:.:.=.,.:.=.:.,.,.<.x.W X N c D c b c v v v N B c c D ",
"A c b c N v v N c b J v N x 6 = x.C.>.:.>.>.:.:.>.:.>.>.:.:.>.:.:.>.>.:.>.:.>.>.,.:.>.>.>.>.,.:.C.x.* 6 j S N c c c c v v B B l B Z ",
"A c b B N v v v c c c B N j 2 = n.1.*.*.>.:.*.*.&.:.*.:.*.*.*.*.*.:.=.*.=.:.*.:.&.*.*.:.*.:.*.:.1.n.= 2 j V B b c c x j v B B b x A ",
"c b b B N c v v c c b V S j 6 w m.2.-.-.-.-.-.-.-.-.-.-.-.-.-.-.-.-.-.-.-.-.-.-.-.-.-.-.-.-.-.-.2.m.= 6 j S V b c b v v v B B b b c ",
"+ k b B N v v N c c J v V g 2 e A.J.6.6.0.6.6.6.6.6.6.6.0.6.6.6.6.6.0.6.6.6.6.6.0.6.6.6.6.6.6.6.q.A.w 6 j C V J c c N v v B B z l + ",
"o l v B N c c B c b B v V j o e A.u.5.5.5.5.5.9.5.5.5.5.5.5.5.5.5.5.5.5.5.5.5.5.5.5.3.9.9.5.5.5.e.A.e 2 j Y v c c c c v c B B v l o ",
"o l v c N v v N c b c j C f 2 e G.w.3.3.3.3.3.3.3.3.3.3.3.3.3.3.3.3.3.3.3.3.3.3.3.3.3.3.3.3.3.3.0.R.e o f V v c c c c v B N N b @ o ",
"z l v c B v v B c c c g S j 6 e U.y.9.5.9.9.9.9.9.9.9.9.9.9.5.4.9.9.9.9.9.9.5.4.9.9.9.9.9.9.9.9.t.G.w 2 h V v c c c N v v N B j l k ",
"l z v c c B c c c b k a N j 2 e A.P.9.8.9.0.9.9.9.9.9.9.0.9.9.0.9.9.9.9.9.0.9.8.9.9.9.0.9.9.9.9.L.I.e 2 j v g j b c c v c B B k l b ",
"c v c b b c A B v h l S S P : W M.P.0.0.0.0.0.0.e.0.0.0.0.0.4.8.w.0.0.0.0.0.6.8.0.0.0.6.e.0.0.0.L.M.Q $ B D S h k j c c B B c k l c ",
"c N c k J K m B v . @ V D K , W c.%.-.-.-.-.-.-.-.-.-.-.-.-.-.-.-.-.-.-.-.-.-.-.-.-.-.-.-.-.-.-.2.x.e : J N S h l l b c B K c b v c ",
"c B v k k m K B v @ l V m K , - j...| | | | | | | | | | | | | ' | | | | | | | | | | | | | | | | ..j.- 1 J m S l h l b B K m c c v c ",
"v v v z k c K B v . l D n K , & i.` ' ' ' ' ` { | ' ' ' ' ' ' ' ' ' ' ' ' ' ' ' ' ' ' ' ' ' ' | [ i.& > K m S v h l b c c c b b l c ",
"v N v z k B B B v @ U C x m , * i.+.o.o.o.o.o.o.o.o.o.o.o.o.o.o.o.o.o.{ o.{ o.+.' { o.o.o.o.o.o.+.i.= , J m D v l l c c B c c c v c ",
"v v v b b B B v v l l C N K 5 & p. .] ] ] ] ] { ] ] ] { ] ] ] ] ] { ] { { { { { ] ' ] ] ] ] ] ] +.p.; 4 J m D j l b c B B c c v v c ",
"c V v v b c B N v l l B n L 5 % p.@.{ { o.{ { { o.{ { { o.{ { { { { +.{ { { { { { { o.{ o.{ { { @.p.; , L m A k l v c B c c c v v c ",
"v v v c j c B N v U h j d L F 1 s.h.h.[  .@.@.@.@.@.@.@.@.@.@.@.@.@.@.@.@.@.[ [ @.@.@.@.@.@.@.@.h.a.1 5 L m c k l b B c c c c v v c ",
"v N v j v V c N v v a a D J J R ~ ^ ) ) ) ) ) ) ) ) ) ) ) ) ) ) ) ) ) ) ) ) ) ) ) ) ) ) ) ) ) ) ^ ~ R F K B a a b c N b c j c v V c ",
"B v c N c v v v v N j x D J + 4 p > > > > > > > , > > > > > > > > > > > > > > > > > > > , > > > < 7 4 s K K x x z N B N c b b c V c ",
"c N c v v v v v v C v v B J k X + H H H H H H H H H H H H H H H H H H H z H H H H H H H H H H H 6 4 X J K B j b b c N c v b b c B N ",
"c c N c v v V v v c c c c c c b l l k l k l l k l v v j l l l l k l l v l k l v l k l k l v b j j z z B B b b b b N V c v z l c B c ",
"c c c c c v v v v B B v x x j x j v v v l v l v v v l v v v v v l v v v l v v v v v l v v v v v l l j N N x c b V N N V v k b B B c ",
"b B c c c c v v v x v B b x v h v V c v v c v b c c c v v b b c c v c c v c b v c c c b b v c c v v h N N v j k j N N V v l k B N c ",
"b J c B c c v v v N v c c C v V S N c c c c c v c c c c c c c c v c c c c c v c c c c c c b c c v U V S C N v k v N V V v z z c D c ",
"c B B c c v v v v I B v c v v h N V B B c B B B b B B B c B N B B B c B B B c B b B N B N B c B N v h M C N j v C N V v v l v B N B ",
"c c c c N c v c c V N c c V v c c N c c c B c c N c c N b N c N c c c N c c c B c c c N c N c N c v v V V c c c c V v v v c c c B c ",
"b c c c c c c c c c c c c c c c c c c N c c c c c c b c c c c v c c c c c c c c N c b c c c c c c c c c c c v c c b c c c v c c c c ",
"c c N c c v c c c c v b c c v N c c c c v c c c b c c c c c c c c v c c c c c v b c c c b c c c c c c v c c c c c c N b c c N c c c "
};
