/* XPM */
static char *result[] = {
/* columns rows colors chars-per-pixel */
"98 143 43 1 ",
"  c #6BA82B",
". c gray5",
"X c #100B05",
"o c #191208",
"O c #111111",
"+ c #271400",
"@ c #2C1800",
"# c #2C200F",
"$ c #3F2D14",
"% c gray15",
"& c #282828",
"* c #2F2F2F",
"= c gray19",
"- c #353535",
"; c gray22",
": c #393939",
"> c #3E3E3E",
", c #4C2800",
"< c #50231D",
"1 c #573E1C",
"2 c #643400",
"3 c #663600",
"4 c #644821",
"5 c #715226",
"6 c #784530",
"7 c gray26",
"8 c #464646",
"9 c #484848",
"0 c gray31",
"q c #555555",
"w c #5A5A5A",
"e c #6C6C6C",
"r c #834600",
"t c #904C00",
"y c #945000",
"u c #A95A00",
"i c #059300",
"p c #C48A5C",
"a c #E7AD63",
"s c #868686",
"d c #EBBF96",
"f c #FFDBBD",
"g c #B3BFCB",
/* pixels */
"                                                                                                  ",
"                               ooooooooooooooooooooooooooooo                                      ",
"                               ooooooooooooooooooooooooooooo                                      ",
"                               ooooooooooooooooooooooooooooo                                      ",
"                         oooooo###$$$$$$$$$$$$$$$$$#########ooooooooooo   ###                     ",
"                         oooooo###$$$$$$$$$$$$$$$$$#########ooooooooooo   ###                     ",
"                         oooooo###$$$$$$$$$$$$$$$$$#########ooooooooooo   ###                     ",
"                      ooo###$$$11111111111111111111$$$######$$$$$ooo###$$$111ooo                  ",
"                      ooo###$$$11111111111111111111$$$######$$$$$ooo###$$$111ooo                  ",
"                      ooo###$$$11111111111111111111$$$######$$$$$ooo###$$$111ooo                  ",
"                   ooo###11111111111111111111111111111111111111oo$$$111111###ooo                  ",
"                   ooo###11111111111111111111111111111111111111oo$$$111111###ooo                  ",
"                   ooo###11111111111111111111111111111111111111oo$$$111111###ooo                  ",
"                   ooo$$$11111111111111111$$$555111$$$444oooooo##444$$$###ooo                     ",
"                   ooo$$$11111111111111111$$$555111$$$444oooooo##444$$$###ooo                     ",
"                ooo###11111111111111111444###444111###111444ooo##$$$444111111###                  ",
"                ooo###11111111111111111444###444111###111444ooo##$$$444111111###                  ",
"                ooo###11111111111111111444###444111###111444ooo##$$$444111111###                  ",
"                ooo$$$111$$$11111111155$$$###111$$$XXX###555$$$#####444ooo###111ooo               ",
"                ooo$$$111$$$11111111155$$$###111$$$XXX###555$$$#####444ooo###111ooo               ",
"                ooo$$$111$$$11111111155$$$###111$$$XXX###555$$$#####444ooo###111ooo               ",
"             ooo###$$$111$$$111$$$11144$$$ooo###$$$fffooo###111ffooo$$$444oooooo                  ",
"             ooo###$$$111$$$111$$$11144$$$ooo###$$$fffooo###111ffooo$$$444oooooo                  ",
"             ooo###$$$111$$$111$$$11144$$$ooo###$$$fffooo###111ffooo$$$444oooooo                  ",
"             ooo###$$$111###$$$$$$55511###XXXooo###ffffffooo111fffff###111ooo                     ",
"             ooo###$$$111###$$$$$$55511###XXXooo###ffffffooo111fffff###111ooo                     ",
"             ooo###$$$111###$$$$$$55511###XXXooo###ffffffooo111fffff###111ooo                     ",
"             ooo###$$$$$$oooooo###444$$oooffffffooofffffffff###fffffooo111XXX                     ",
"             ooo###$$$$$$oooooo###444$$oooffffffooofffffffff###fffffooo111XXX                     ",
"             ooo###$$$$$$oooooo###444$$oooffffffooofffffffff###fffffooo111XXX                     ",
"             ooo$$$###$$$oooooo###111##oooddddddffffffffffffffffffffaaaooo                        ",
"             ooo$$$###$$$oooooo###111##oooddddddffffffffffffffffffffaaaooo                        ",
"             ooo$$$###$$$oooooo###111##oooddddddffffffffffffffffffffaaaooo                        ",
"             XXX$$$ooo###oooddd###$$$##dddddd$$$$$$111dddfffffffffffppp<<<                        ",
"             XXX$$$ooo###oooddd###$$$##dddddd$$$$$$111dddfffffffffffppp<<<                        ",
"             XXX$$$ooo###oooddd###$$$##dddddd$$$$$$111dddfffffffffffppp<<<                        ",
"             XXX###$$$oooddddddooo###ooddddddppp$$$$$$$$$111dddddddd<<<                           ",
"             XXX###$$$oooddddddooo###ooddddddppp$$$$$$$$$111dddddddd<<<                           ",
"             XXX###$$$oooddddddooo###ooddddddppp$$$$$$$$$111dddddddd<<<                           ",
"             XXXooo$$$oooddddddddd.....dddddd666gggOOOOOOpppdddddddd<<<                           ",
"             XXXooo$$$oooddddddddd.....dddddd666gggOOOOOOpppdddddddd<<<                           ",
"             XXXooo######aaaddd...ooodd.............................<<<                           ",
"             XXXooo######aaaddd...ooodd.............................<<<                           ",
"             XXXooo######aaaddd...ooodd.............................<<<                           ",
"                XXX$$$###pppaaadddooodddddddd...gggiiiiii...dddddddd<<<                           ",
"                XXX$$$###pppaaadddooodddddddd...gggiiiiii...dddddddd<<<                           ",
"                XXX$$$###pppaaadddooodddddddd...gggiiiiii...dddddddd<<<                           ",
"                XXXooo###ooopppaaaddddddddddd...gggiiiiii...fff11111###                           ",
"                XXXooo###ooopppaaaddddddddddd...gggiiiiii...fff11111###                           ",
"                XXXooo###ooopppaaaddddddddddd...gggiiiiii...fff11111###                           ",
"                   XXXoooXXXoooppppppppaaadddfff.........fff111$$$$$###                           ",
"                   XXXoooXXXoooppppppppaaadddfff.........fff111$$$$$###                           ",
"                   XXXoooXXXoooppppppppaaadddfff.........fff111$$$$$###                           ",
"                   XXX   XXXoooXXX<<<<<pppaaaddddddfff111111dddaa###                              ",
"                   XXX   XXXoooXXX<<<<<pppaaaddddddfff111111dddaa###                              ",
"                   XXX   XXXoooXXX<<<<<pppaaaddddddfff111111dddaa###                              ",
"                            XXXXXX<<<pp<<<<<<<<<ppp111$$$$$$#####                                 ",
"                            XXXXXX<<<pp<<<<<<<<<ppp111$$$$$$#####                                 ",
"                            XXXXXX<<<pp<<<<<<<<<ppp111$$$$$$#####                                 ",
"                               XXX22222;;;===%%%%%%<<<######                                      ",
"                               XXX22222;;;===%%%%%%<<<######                                      ",
"                               XXX22222;;;===%%%%%%<<<######                                      ",
"                            222222uuuuu000000999777===%%%%%%                                      ",
"                            222222uuuuu000000999777===%%%%%%                                      ",
"                            222yyyuuu00000000000000999;;;;;;222                                   ",
"                            222yyyuuu00000000000000999;;;;;;222                                   ",
"                            222yyyuuu00000000000000999;;;;;;222                                   ",
"                            222yyy99999777999000000000777777rrr                                   ",
"                            222yyy99999777999000000000777777rrr                                   ",
"                            222yyy99999777999000000000777777rrr                                   ",
"                         222yyy77700000999777999000000999999yyy                                   ",
"                         222yyy77700000999777999000000999999yyy                                   ",
"                         222yyy77700000999777999000000999999yyy                                   ",
"                         222yyy99900000000===777000000uuuuuuuuu                                   ",
"                         222yyy99900000000===777000000uuuuuuuuu                                   ",
"                         222yyy99900000000===777000000uuuuuuuuu                                   ",
"                         222yyy99900000000;;;;;;yyyuuuuuuuuuuuu                                   ",
"                         222yyy99900000000;;;;;;yyyuuuuuuuuuuuu                                   ",
"                         222yyy99900000000;;;;;;yyyuuuuuuuuuuuu                                   ",
"                         222yyy77700000000777===yyyuuuuuuuuu                                      ",
"                         222yyy77700000000777===yyyuuuuuuuuu                                      ",
"                         222yyy77700000000777===yyyuuuuuuuuu                                      ",
"                         222yyy;;;00000000999%%%yyyyyyuuu000                                      ",
"                         222yyy;;;00000000999%%%yyyyyyuuu000                                      ",
"                         222yyy;;;00000000999%%%yyyyyyuuu000                                      ",
"                         222%%%%%%99900000000%%%:::::::::000                                      ",
"                         222%%%%%%99900000000%%%:::::::::000                                      ",
"                         222%%%%%%99900000000%%%:::::::::000                                      ",
"                         %%%===%%%77700000000;;;wwwwwwwww%%%                                      ",
"                         %%%===%%%77700000000;;;wwwwwwwww%%%                                      ",
"                         %%%===%%%;;;00000000999:::wwwwww%%%                                      ",
"                         %%%===%%%;;;00000000999:::wwwwww%%%                                      ",
"                         %%%===%%%;;;00000000999:::wwwwww%%%                                      ",
"                            %%%%%%%%%00000000999%%%:::www%%%                                      ",
"                            %%%%%%%%%00000000999%%%:::www%%%                                      ",
"                            %%%%%%%%%00000000999%%%:::www%%%                                      ",
"                            @@@,,,%%%77999999;;;%%%rrr:::%%%                                      ",
"                            @@@,,,%%%77999999;;;%%%rrr:::%%%                                      ",
"                            @@@,,,%%%77999999;;;%%%rrr:::%%%                                      ",
"                            @@@,,,%%%;;;;;;;;%%%777;;;ttt333                                      ",
"                            @@@,,,%%%;;;;;;;;%%%777;;;ttt333                                      ",
"                            @@@,,,%%%;;;;;;;;%%%777;;;ttt333                                      ",
"                               ,,,,,,%%%%%000000999;;;333,,,                                      ",
"                               ,,,,,,%%%%%000000999;;;333,,,                                      ",
"                               ,,,,,,%%%%%000000999;;;333,,,                                      ",
"                               @@@,,,%%777999999777;;;333,,,                                      ",
"                               @@@,,,%%777999999777;;;333,,,                                      ",
"                               @@@,,,%%777999999777;;;333,,,                                      ",
"                               @@@,,,,,%%%%%%%%%%%%000000                                         ",
"                               @@@,,,,,%%%%%%%%%%%%000000                                         ",
"                               @@@,,,,,%%%%%%%%%%%%000000                                         ",
"                               @@@,,,,,,,,333ttt000000000                                         ",
"                               @@@,,,,,,,,333ttt000000000                                         ",
"                               @@@,,,,,,,,333ttt000000000                                         ",
"                               ,,,,,,,,333tttttt:::000                                            ",
"                               ,,,,,,,,333tttttt:::000                                            ",
"                            @@@,,,,,,,,tttttt333+++:::                                            ",
"                            @@@,,,,,,,,tttttt333+++:::                                            ",
"                            @@@,,,,,,,,tttttt333+++:::                                            ",
"                            @@@,,,,,,33ttttttssseee@@@                                            ",
"                            @@@,,,,,,33ttttttssseee@@@                                            ",
"                            @@@,,,,,,33ttttttssseee@@@                                            ",
"                            ,,,,,,,,,33tttttt333+++                                               ",
"                            ,,,,,,,,,33tttttt333+++                                               ",
"                            ,,,,,,,,,33tttttt333+++                                               ",
"                            ,,,,,,333ttttttttssseee                                               ",
"                            ,,,,,,333ttttttttssseee                                               ",
"                            ,,,,,,333ttttttttssseee                                               ",
"                            ,,,,,,333ttttttttttt+++                                               ",
"                            ,,,,,,333ttttttttttt+++                                               ",
"                            ,,,,,,333ttttttttttt+++                                               ",
"                            &&&***---,,,,,,,,>>>---&&&                                            ",
"                            &&&***---,,,,,,,,>>>---&&&                                            ",
"                            &&&***---,,,,,,,,>>>---&&&                                            ",
"                            &&&--->>>>>888888qqqqqq---&&&                                         ",
"                            &&&--->>>>>888888qqqqqq---&&&                                         ",
"                            &&&--->>>>>888888qqqqqq---&&&                                         ",
"                            &&&********---------------&&&                                         ",
"                            &&&********---------------&&&                                         ",
"                                                                                                  ",
"                                                                                                  ",
"                                                                                                  ",
"                                                                                                  "
};
