/* XPM */
static char *result[] = {
/* columns rows colors chars-per-pixel */
"98 143 45 1 ",
"  c #6BA82B",
". c gray5",
"X c #100B05",
"o c #191208",
"O c #111111",
"+ c #271400",
"@ c #331C00",
"# c #2C200F",
"$ c #3F2D14",
"% c gray15",
"& c #272727",
"* c #282828",
"= c #2F2F2F",
"- c gray19",
"; c #353535",
": c gray22",
"> c #393939",
", c #3E3E3E",
"< c #582F00",
"1 c #50231D",
"2 c #573E1C",
"3 c #643400",
"4 c #763E00",
"5 c #644821",
"6 c #715226",
"7 c #784530",
"8 c gray26",
"9 c #464646",
"0 c #484848",
"q c #4C4C4C",
"w c gray31",
"e c gray32",
"r c #5A5A5A",
"t c #6C6C6C",
"y c #834600",
"u c #945000",
"i c #A75800",
"p c #A95A00",
"a c #059300",
"s c #C48A5C",
"d c #E7AD63",
"f c #868686",
"g c #EBBF96",
"h c #FFDBBD",
"j c #B3BFCB",
/* pixels */
"                                                                                                  ",
"                                                                                                  ",
"                                                                                                  ",
"                                                                                                  ",
"                            ooooooooooooooooooooooooooooo                                         ",
"                            ooooooooooooooooooooooooooooo                                         ",
"                            ooooooooooooooooooooooooooooo                                         ",
"                      oooooo###$$$$$$$$$$$$$$$$$#########oooooooooooo   ##                        ",
"                      oooooo###$$$$$$$$$$$$$$$$$#########oooooooooooo   ##                        ",
"                      oooooo###$$$$$$$$$$$$$$$$$#########oooooooooooo   ##                        ",
"                    oo###$$$22222222222222222222$$$######$$$$$$ooo###$$$22ooo                     ",
"                    oo###$$$22222222222222222222$$$######$$$$$$ooo###$$$22ooo                     ",
"                    oo###$$$22222222222222222222$$$######$$$$$$ooo###$$$22ooo                     ",
"                 ooo##22222222222222222222222222222222222222ooo$$$222222##ooo                     ",
"                 ooo##22222222222222222222222222222222222222ooo$$$222222##ooo                     ",
"                 ooo$$222222222222222222$$$66622$$$555oooooo###555$$$###oo                        ",
"                 ooo$$222222222222222222$$$66622$$$555oooooo###555$$$###oo                        ",
"                 ooo$$222222222222222222$$$66622$$$555oooooo###555$$$###oo                        ",
"              ooo###22222222222222222555###55522###222555ooo###$$$55522222###                     ",
"              ooo###22222222222222222555###55522###222555ooo###$$$55522222###                     ",
"              ooo###22222222222222222555###55522###222555ooo###$$$55522222###                     ",
"              ooo$$$22$$$222222222666$$$###222$$XXX###666$$$######555ooo##222ooo                  ",
"              ooo$$$22$$$222222222666$$$###222$$XXX###666$$$######555ooo##222ooo                  ",
"              ooo$$$22$$$222222222666$$$###222$$XXX###666$$$######555ooo##222ooo                  ",
"           ooo###$$$22$$$222$$$222555$$$ooo###$$hhhooo###222hhhooo$$$555ooooo                     ",
"           ooo###$$$22$$$222$$$222555$$$ooo###$$hhhooo###222hhhooo$$$555ooooo                     ",
"           ooo###$$$22$$$222$$$222555$$$ooo###$$hhhooo###222hhhooo$$$555ooooo                     ",
"           ooo###$$$22###$$$$$$666222###XXXooo##hhhhhhooo222hhhhhh###222oo                        ",
"           ooo###$$$22###$$$$$$666222###XXXooo##hhhhhhooo222hhhhhh###222oo                        ",
"           ooo###$$$22###$$$$$$666222###XXXooo##hhhhhhooo222hhhhhh###222oo                        ",
"           ooo###$$$$$oooooo###555$$$ooohhhhhhoohhhhhhhhh###hhhhhhooo222XX                        ",
"           ooo###$$$$$oooooo###555$$$ooohhhhhhoohhhhhhhhh###hhhhhhooo222XX                        ",
"           ooo###$$$$$oooooo###555$$$ooohhhhhhoohhhhhhhhh###hhhhhhooo222XX                        ",
"           ooo$$$###$$oooooo###222###ooogggggghhhhhhhhhhhhhhhhhhhhdddooo                          ",
"           ooo$$$###$$oooooo###222###ooogggggghhhhhhhhhhhhhhhhhhhhdddooo                          ",
"           ooo$$$###$$oooooo###222###ooogggggghhhhhhhhhhhhhhhhhhhhdddooo                          ",
"           XXX$$$ooo##oooggg###$$$###gggggg$$$$$222ggghhhhhhhhhhhhsss111                          ",
"           XXX$$$ooo##oooggg###$$$###gggggg$$$$$222ggghhhhhhhhhhhhsss111                          ",
"           XXX$$$ooo##oooggg###$$$###gggggg$$$$$222ggghhhhhhhhhhhhsss111                          ",
"           XXX###$$$ooggggggooo###oooggggggsss$$$$$$$$222ggggggggg111                             ",
"           XXX###$$$ooggggggooo###oooggggggsss$$$$$$$$222ggggggggg111                             ",
"           XXXooo$$$ooggggggggg......gggggg777jjOOOOOOsssggggggggg111                             ",
"           XXXooo$$$ooggggggggg......gggggg777jjOOOOOOsssggggggggg111                             ",
"           XXXooo$$$ooggggggggg......gggggg777jjOOOOOOsssggggggggg111                             ",
"           XXXooo#####dddggg...oooggg.............................111                             ",
"           XXXooo#####dddggg...oooggg.............................111                             ",
"           XXXooo#####dddggg...oooggg.............................111                             ",
"              XXX$$$##sssdddgggoooggggggggg...jjaaaaaa...ggggggggg111                             ",
"              XXX$$$##sssdddgggoooggggggggg...jjaaaaaa...ggggggggg111                             ",
"              XXX$$$##sssdddgggoooggggggggg...jjaaaaaa...ggggggggg111                             ",
"              XXXooo##ooosssdddgggggggggggg...jjaaaaaa...hhh222222###                             ",
"              XXXooo##ooosssdddgggggggggggg...jjaaaaaa...hhh222222###                             ",
"              XXXooo##ooosssdddgggggggggggg...jjaaaaaa...hhh222222###                             ",
"                 XXXooXXXooosssssssssdddggghhh........hhh222$$$$$$###                             ",
"                 XXXooXXXooosssssssssdddggghhh........hhh222$$$$$$###                             ",
"                 XXXooXXXooosssssssssdddggghhh........hhh222$$$$$$###                             ",
"                 XXX  XXXoooXXX111111sssdddggggghhh222222gggddd###                                ",
"                 XXX  XXXoooXXX111111sssdddggggghhh222222gggddd###                                ",
"                 XXX  XXXoooXXX111111sssdddggggghhh222222gggddd###                                ",
"                         XXXXXX111sss111111111ss222$$$$$$######                                   ",
"                         XXXXXX111sss111111111ss222$$$$$$######                                   ",
"                         XXXXXX111sss111111111ss222$$$$$$######                                   ",
"                            XXX333333888:::%%%11111######                                         ",
"                            XXX333333888:::%%%11111######                                         ",
"                         333333ppppppwwwwww000::%%%%%%%%%                                         ",
"                         333333ppppppwwwwww000::%%%%%%%%%                                         ",
"                         333333ppppppwwwwww000::%%%%%%%%%                                         ",
"                         333uuuppp000wwwwwwwwwww000000888333%%%                                   ",
"                         333uuuppp000wwwwwwwwwww000000888333%%%                                   ",
"                         333uuuppp000wwwwwwwwwww000000888333%%%                                   ",
"                      %%%:::wwwwwwwww000wwwwwwwwwwwwww000yyy888%%%                                ",
"                      %%%:::wwwwwwwww000wwwwwwwwwwwwww000yyy888%%%                                ",
"                      %%%:::wwwwwwwww000wwwwwwwwwwwwww000yyy888%%%                                ",
"                      %%%888wwwwwwwww000000wwwwwwwwwwwwwwuuu888%%%                                ",
"                      %%%888wwwwwwwww000000wwwwwwwwwwwwwwuuu888%%%                                ",
"                      %%%888wwwwwwwww000000wwwwwwwwwwwwwwuuu888%%%                                ",
"                      ---000wwwwwwwww888000wwwwwwwwwwwpppppp888---                                ",
"                      ---000wwwwwwwww888000wwwwwwwwwwwpppppp888---                                ",
"                      ---000wwwwwwwww888000wwwwwwwwwwwpppppp888---                                ",
"                      :::wwwwwwwwwwww:::uuuppppppppppppppppp888:::---                             ",
"                      :::wwwwwwwwwwww:::uuuppppppppppppppppp888:::---                             ",
"                      :::wwwwwwwwwwww:::uuuppppppppppppppppp888:::---                             ",
"                    %%:::wwwwwwwww000%%%uuuppppppppppppppppp888888---                             ",
"                    %%:::wwwwwwwww000%%%uuuppppppppppppppppp888888---                             ",
"                    %%:::wwwwwwwww000%%%uuuppppppppppppppppp888888---                             ",
"                    %%000wwwwwwwww888%%%uuuuuuppppppppppp---888888:::                             ",
"                    %%000wwwwwwwww888%%%uuuuuuppppppppppp---888888:::                             ",
"                    %%000wwwwwwwww888%%%uuuuuuppppppppppp---888888:::                             ",
"                    --000wwwwww000%%%:::>>>>>>>>>>>>>>www---888888:::---                          ",
"                    --000wwwwww000%%%:::>>>>>>>>>>>>>>www---888888:::---                          ",
"                    --000wwwwww888%%%000rrrrrrrrrrrrrr%%%---888:::888---                          ",
"                    --000wwwwww888%%%000rrrrrrrrrrrrrr%%%---888:::888---                          ",
"                    --000wwwwww888%%%000rrrrrrrrrrrrrr%%%---888:::888---                          ",
"                    %%888000000:::%%%000000rrrrrrrrrrr%%%------------%%%                          ",
"                    %%888000000:::%%%000000rrrrrrrrrrr%%%------------%%%                          ",
"                    %%888000000:::%%%000000rrrrrrrrrrr%%%------------%%%                          ",
"                    %%:::888888:::%%%%%%%%%%%%%%>>>rrr%%%%%%000000888%%%                          ",
"                    %%:::888888:::%%%%%%%%%%%%%%>>>rrr%%%%%%000000888%%%                          ",
"                    %%:::888888:::%%%%%%%%%%%%%%>>>rrr%%%%%%000000888%%%                          ",
"                    %%---------%%%%%%<<<444iiiiiiii>>>%%%%%%888888%%%                             ",
"                    %%---------%%%%%%<<<444iiiiiiii>>>%%%%%%888888%%%                             ",
"                    %%---------%%%%%%<<<444iiiiiiii>>>%%%%%%888888%%%                             ",
"                    %%888wwwwwwwww%%%<<<iiiiiiiiiiiiii<<<@@@%%%%%%                                ",
"                    %%888wwwwwwwww%%%<<<iiiiiiiiiiiiii<<<@@@%%%%%%                                ",
"                    %%888wwwwwwwww%%%<<<iiiiiiiiiiiiii<<<@@@%%%%%%                                ",
"                      %%%888000888%%%@@@iiiiiiiiiiifffeee@@@                                      ",
"                      %%%888000888%%%@@@iiiiiiiiiiifffeee@@@                                      ",
"                      %%%888000888%%%@@@iiiiiiiiiiifffeee@@@                                      ",
"                      @@@%%%%%%%%%@@@@@@444iiiiiffffffeee@@@                                      ",
"                      @@@%%%%%%%%%@@@@@@444iiiiiffffffeee@@@                                      ",
"                      @@@%%%%%%%%%@@@@@@444iiiiiffffffeee@@@                                      ",
"                    @@@@@@@@@@@&&&@@@@@@<<<iiiiifffeeeiii<<<@@@                                   ",
"                    @@@@@@@@@@@&&&@@@@@@<<<iiiiifffeeeiii<<<@@@                                   ",
"                    @@@@@@@@@@@&&&@@@@@@<<<iiiiifffeeeiii<<<@@@                                   ",
"                 @@@@@@@@@@@&&&&&&&&&@@@@@@444iiiii+++ttt<<<@@@                                   ",
"                 @@@@@@@@@@@&&&&&&&&&@@@@@@444iiiii+++ttt<<<@@@                                   ",
"              @@@@@@@@&&&@@@@@@&&&&&&   @@@<<<iiiiifff+++ttt@@@                                   ",
"              @@@@@@@@&&&@@@@@@&&&&&&   @@@<<<iiiiifff+++ttt@@@                                   ",
"              @@@@@@@@&&&@@@@@@&&&&&&   @@@<<<iiiiifff+++ttt@@@                                   ",
"           ===@@@@@@&&@@@&&&@@@@@@      @@@@@@iiiiiiiifff+++<<<@@@                                ",
"           ===@@@@@@&&@@@&&&@@@@@@      @@@@@@iiiiiiiifff+++<<<@@@                                ",
"           ===@@@@@@&&@@@&&&@@@@@@      @@@@@@iiiiiiiifff+++<<<@@@                                ",
"           ***;;;@@@@@&&&@@@@@@            @@@iiiiiiiiiii444444@@@===                             ",
"           ***;;;@@@@@&&&@@@@@@            @@@iiiiiiiiiii444444@@@===                             ",
"           ***;;;@@@@@&&&@@@@@@            @@@iiiiiiiiiii444444@@@===                             ",
"           ***===;;;@@@@@=========         @@@44444444444444@@@@@@999,,,                          ",
"           ***===;;;@@@@@=========         @@@44444444444444@@@@@@999,,,                          ",
"           ***===;;;@@@@@=========         @@@44444444444444@@@@@@999,,,                          ",
"              ***===;;,,,,,,;;;===            @@<<<<<<@@@@@@999qqqqqq999,,                        ",
"              ***===;;,,,,,,;;;===            @@<<<<<<@@@@@@999qqqqqq999,,                        ",
"              ***===;;,,,,,,;;;===            @@<<<<<<@@@@@@999qqqqqq999,,                        ",
"                 ********======               @@@@@@@@;;;,,,qqqqqq999===**                        ",
"                 ********======               @@@@@@@@;;;,,,qqqqqq999===**                        ",
"                 ********======               @@@@@@@@;;;,,,qqqqqq999===**                        ",
"                                                ======;;;;;;,,,*********                          ",
"                                                ======;;;;;;,,,*********                          ",
"                                                ======;;;;;;,,,*********                          ",
"                                                   ************                                   ",
"                                                   ************                                   ",
"                                                                                                  ",
"                                                                                                  ",
"                                                                                                  ",
"                                                                                                  "
};
