/* XPM */
static char *result[] = {
/* columns rows colors chars-per-pixel */
"98 143 42 1 ",
"  c #6BA82B",
". c gray5",
"X c #100B05",
"o c #191208",
"O c #111111",
"+ c #271400",
"@ c #331C00",
"# c #2C200F",
"$ c #3F2D14",
"% c gray15",
"& c #272727",
"* c #282828",
"= c #2F2F2F",
"- c gray19",
"; c #353535",
": c gray22",
"> c #393939",
", c #3E3E3E",
"< c #582F00",
"1 c #50231D",
"2 c #573E1C",
"3 c #643400",
"4 c #763E00",
"5 c #644821",
"6 c #715226",
"7 c #784530",
"8 c gray26",
"9 c #484848",
"0 c #4C4C4C",
"q c gray31",
"w c #5A5A5A",
"e c #6C6C6C",
"r c #834600",
"t c #945000",
"y c #A75800",
"u c #A95A00",
"i c #059300",
"p c #C48A5C",
"a c #E7AD63",
"s c #EBBF96",
"d c #FFDBBD",
"f c #B3BFCB",
/* pixels */
"                                                                                                  ",
"                                                                                                  ",
"                                                                                                  ",
"                                                                                                  ",
"                                ooooooooooooooooooooooooooooo                                     ",
"                                ooooooooooooooooooooooooooooo                                     ",
"                                ooooooooooooooooooooooooooooo                                     ",
"                          oooooo###$$$$$$$$$$$$$$$$$#########oooooooooooo   ##                    ",
"                          oooooo###$$$$$$$$$$$$$$$$$#########oooooooooooo   ##                    ",
"                          oooooo###$$$$$$$$$$$$$$$$$#########oooooooooooo   ##                    ",
"                        oo###$$$22222222222222222222$$$######$$$$$$ooo###$$$22ooo                 ",
"                        oo###$$$22222222222222222222$$$######$$$$$$ooo###$$$22ooo                 ",
"                        oo###$$$22222222222222222222$$$######$$$$$$ooo###$$$22ooo                 ",
"                     ooo##22222222222222222222222222222222222222ooo$$$222222##ooo                 ",
"                     ooo##22222222222222222222222222222222222222ooo$$$222222##ooo                 ",
"                     ooo$$222222222222222222$$$66622$$$555oooooo###555$$$###oo                    ",
"                     ooo$$222222222222222222$$$66622$$$555oooooo###555$$$###oo                    ",
"                     ooo$$222222222222222222$$$66622$$$555oooooo###555$$$###oo                    ",
"                  ooo###22222222222222222555###55522###222555ooo###$$$55522222###                 ",
"                  ooo###22222222222222222555###55522###222555ooo###$$$55522222###                 ",
"                  ooo###22222222222222222555###55522###222555ooo###$$$55522222###                 ",
"                  ooo$$$22$$$222222222666$$$###222$$XXX###666$$$######555ooo##222ooo              ",
"                  ooo$$$22$$$222222222666$$$###222$$XXX###666$$$######555ooo##222ooo              ",
"                  ooo$$$22$$$222222222666$$$###222$$XXX###666$$$######555ooo##222ooo              ",
"               ooo###$$$22$$$222$$$222555$$$ooo###$$dddooo###222dddooo$$$555ooooo                 ",
"               ooo###$$$22$$$222$$$222555$$$ooo###$$dddooo###222dddooo$$$555ooooo                 ",
"               ooo###$$$22$$$222$$$222555$$$ooo###$$dddooo###222dddooo$$$555ooooo                 ",
"               ooo###$$$22###$$$$$$666222###XXXooo##ddddddooo222dddddd###222oo                    ",
"               ooo###$$$22###$$$$$$666222###XXXooo##ddddddooo222dddddd###222oo                    ",
"               ooo###$$$22###$$$$$$666222###XXXooo##ddddddooo222dddddd###222oo                    ",
"               ooo###$$$$$oooooo###555$$$oooddddddooddddddddd###ddddddooo222XX                    ",
"               ooo###$$$$$oooooo###555$$$oooddddddooddddddddd###ddddddooo222XX                    ",
"               ooo###$$$$$oooooo###555$$$oooddddddooddddddddd###ddddddooo222XX                    ",
"               ooo$$$###$$oooooo###222###ooossssssddddddddddddddddddddaaaooo                      ",
"               ooo$$$###$$oooooo###222###ooossssssddddddddddddddddddddaaaooo                      ",
"               ooo$$$###$$oooooo###222###ooossssssddddddddddddddddddddaaaooo                      ",
"               XXX$$$ooo##ooosss###$$$###ssssss$$$$$222sssddddddddddddppp111                      ",
"               XXX$$$ooo##ooosss###$$$###ssssss$$$$$222sssddddddddddddppp111                      ",
"               XXX$$$ooo##ooosss###$$$###ssssss$$$$$222sssddddddddddddppp111                      ",
"               XXX###$$$oossssssooo###ooossssssppp$$$$$$$$222sssssssss111                         ",
"               XXX###$$$oossssssooo###ooossssssppp$$$$$$$$222sssssssss111                         ",
"               XXXooo$$$oosssssssss......ssssss777ffOOOOOOpppsssssssss111                         ",
"               XXXooo$$$oosssssssss......ssssss777ffOOOOOOpppsssssssss111                         ",
"               XXXooo$$$oosssssssss......ssssss777ffOOOOOOpppsssssssss111                         ",
"               XXXooo#####aaasss...ooosss.............................111                         ",
"               XXXooo#####aaasss...ooosss.............................111                         ",
"               XXXooo#####aaasss...ooosss.............................111                         ",
"                  XXX$$$##pppaaasssooosssssssss...ffiiiiii...sssssssss111                         ",
"                  XXX$$$##pppaaasssooosssssssss...ffiiiiii...sssssssss111                         ",
"                  XXX$$$##pppaaasssooosssssssss...ffiiiiii...sssssssss111                         ",
"                  XXXooo##ooopppaaassssssssssss...ffiiiiii...ddd222222###                         ",
"                  XXXooo##ooopppaaassssssssssss...ffiiiiii...ddd222222###                         ",
"                  XXXooo##ooopppaaassssssssssss...ffiiiiii...ddd222222###                         ",
"                     XXXooXXXooopppppppppaaasssddd........ddd222$$$$$$###                         ",
"                     XXXooXXXooopppppppppaaasssddd........ddd222$$$$$$###                         ",
"                     XXXooXXXooopppppppppaaasssddd........ddd222$$$$$$###                         ",
"                     XXX  XXXoooXXX111111pppaaasssssddd222222sssaaa###                            ",
"                     XXX  XXXoooXXX111111pppaaasssssddd222222sssaaa###                            ",
"                     XXX  XXXoooXXX111111pppaaasssssddd222222sssaaa###                            ",
"                             XXXXXX111ppp111111111pp222$$$$$$######                               ",
"                             XXXXXX111ppp111111111pp222$$$$$$######                               ",
"                             XXXXXX111ppp111111111pp222$$$$$$######                               ",
"                                XXX333333888:::%%%%%111######                                     ",
"                                XXX333333888:::%%%%%111######                                     ",
"                                333uuuuuuqqqqqqqqq99%%%%%%%%%                                     ",
"                                333uuuuuuqqqqqqqqq99%%%%%%%%%                                     ",
"                                333uuuuuuqqqqqqqqq99%%%%%%%%%                                     ",
"                             333tttuuuqqqqqq999999qq999------333                                  ",
"                             333tttuuuqqqqqq999999qq999------333                                  ",
"                             333tttuuuqqqqqq999999qq999------333                                  ",
"                          333ttttttqqqqqq999qqqqqq99qqq::::::rrr                                  ",
"                          333ttttttqqqqqq999qqqqqq99qqq::::::rrr                                  ",
"                          333ttttttqqqqqq999qqqqqq99qqq::::::rrr                                  ",
"                          333ttt---qqq999qqqqqqqqq88999999999ttt                                  ",
"                          333ttt---qqq999qqqqqqqqq88999999999ttt                                  ",
"                          333ttt---qqq999qqqqqqqqq88999999999ttt                                  ",
"                          333ttt---999999qqqqqqqqq99:::tttuuuuuu                                  ",
"                          333ttt---999999qqqqqqqqq99:::tttuuuuuu                                  ",
"                          333ttt---999999qqqqqqqqq99:::tttuuuuuu                                  ",
"                          333tttuuuttt888qqqqqqqqqqq:::tttuuuuuu                                  ",
"                          333tttuuuttt888qqqqqqqqqqq:::tttuuuuuu                                  ",
"                          333tttuuuttt888qqqqqqqqqqq:::tttuuuuuu                                  ",
"                          333tttuuuttt:::999qqqqqqqq999:::ttt                                     ",
"                          333tttuuuttt:::999qqqqqqqq999:::ttt                                     ",
"                          333tttuuuttt:::999qqqqqqqq999:::ttt                                     ",
"                          333%%%--->>>:::888qqqqqqqqqqq888qqq                                     ",
"                          333%%%--->>>:::888qqqqqqqqqqq888qqq                                     ",
"                          333%%%--->>>:::888qqqqqqqqqqq888qqq                                     ",
"                          %%%---wwwwwwwww:::qqqqqqqqqqq999:::                                     ",
"                          %%%---wwwwwwwww:::qqqqqqqqqqq999:::                                     ",
"                          %%%---wwwwwwwww---888qqqqqqqqqqq888                                     ",
"                          %%%---wwwwwwwww---888qqqqqqqqqqq888                                     ",
"                          %%%---wwwwwwwww---888qqqqqqqqqqq888                                     ",
"                          @@@%%%%%%:::::::::---888qqqqq999:::---                                  ",
"                          @@@%%%%%%:::::::::---888qqqqq999:::---                                  ",
"                          @@@%%%%%%:::::::::---888qqqqq999:::---                                  ",
"                          @@@<<<444------------%%%88888:::%%%888%%%                               ",
"                          @@@<<<444------------%%%88888:::%%%888%%%                               ",
"                          @@@<<<444------------%%%88888:::%%%888%%%                               ",
"                          @@@<<<yyyyyyyyyyyy444%%%%%%%%qqqqqq888%%%                               ",
"                          @@@<<<yyyyyyyyyyyy444%%%%%%%%qqqqqq888%%%                               ",
"                          @@@<<<yyyyyyyyyyyy444%%%%%%%%qqqqqq888%%%                               ",
"                          @@@<<<yyyyyyyyyyyyyyy<<<<<888qqq999%%%                                  ",
"                          @@@<<<yyyyyyyyyyyyyyy<<<<<888qqq999%%%                                  ",
"                          @@@<<<yyyyyyyyyyyyyyy<<<<<888qqq999%%%                                  ",
"                          <<<444yyyyyyeeeeeeyyy<<<<<@@@@@@@@@@@@                                  ",
"                          <<<444yyyyyyeeeeeeyyy<<<<<@@@@@@@@@@@@                                  ",
"                          <<<444yyyyyyeeeeeeyyy<<<<<@@@@@@@@@@@@                                  ",
"                          <<<444yyy>>>eeeeeeqqq<<<@@@@@@@@@@@&&&&&&                               ",
"                          <<<444yyy>>>eeeeeeqqq<<<@@@@@@@@@@@&&&&&&                               ",
"                          <<<444yyy>>>eeeeeeqqq<<<@@@@@@@@@@@&&&&&&                               ",
"                        @@<<<444yyyyyy>>>qqqqqqqqq@@@@@@@@&&&&&&&&&                               ",
"                        @@<<<444yyyyyy>>>qqqqqqqqq@@@@@@@@&&&&&&&&&                               ",
"                        @@<<<444yyyyyy>>>qqqqqqqqq@@@@@@@@&&&&&&&&&                               ",
"                     @@@<<<<<<<<444yyy444>>>>>>@@@@@@@@@@@@@@&&&@@@                               ",
"                     @@@<<<<<<<<444yyy444>>>>>>@@@@@@@@@@@@@@&&&@@@                               ",
"                  @@@<<<<<<<<<<<<<<<<<<<<@@@@@@   @@@@@@@@@@@@@@&&&                               ",
"                  @@@<<<<<<<<<<<<<<<<<<<<@@@@@@   @@@@@@@@@@@@@@&&&                               ",
"                  @@@<<<<<<<<<<<<<<<<<<<<@@@@@@   @@@@@@@@@@@@@@&&&                               ",
"                  @@@<<<<<<<<<<<eee+++@@@@@@      @@@@@@@@@@@&&&@@@&&&                            ",
"                  @@@<<<<<<<<<<<eee+++@@@@@@      @@@@@@@@@@@&&&@@@&&&                            ",
"                  @@@<<<<<<<<<<<eee+++@@@@@@      @@@@@@@@@@@&&&@@@&&&                            ",
"                  <<<<<<<<<<<eee+++>>>@@@         @@@@@@@@@@@@@@&&&@@@                            ",
"                  <<<<<<<<<<<eee+++>>>@@@         @@@@@@@@@@@@@@&&&@@@                            ",
"                  <<<<<<<<<<<eee+++>>>@@@         @@@@@@@@@@@@@@&&&@@@                            ",
"               ===@@@444<<<<<+++>>>@@@            @@@@@@@@@@@@@@@@@@@@===                         ",
"               ===@@@444<<<<<+++>>>@@@            @@@@@@@@@@@@@@@@@@@@===                         ",
"               ===@@@444<<<<<+++>>>@@@            @@@@@@@@@@@@@@@@@@@@===                         ",
"               ===;;;<<<44444@@@@@@@@@              @@@@@@@@@@@@;;;;;;===***                      ",
"               ===;;;<<<44444@@@@@@@@@              @@@@@@@@@@@@;;;;;;===***                      ",
"               ===;;;<<<44444@@@@@@@@@              @@@@@@@@@@@@;;;;;;===***                      ",
"               ***===;;;,,yyyyyy<<<@@@              ===;;;;;;;;;,,,,,,;;;***                      ",
"               ***===;;;,,yyyyyy<<<@@@              ===;;;;;;;;;,,,,,,;;;***                      ",
"               ***===;;;,,yyyyyy<<<@@@              ===;;;;;;;;;,,,,,,;;;***                      ",
"                  ***===;;000000,,,;;;***              ******************                         ",
"                  ***===;;000000,,,;;;***              ******************                         ",
"                  ***===;;000000,,,;;;***              ******************                         ",
"                     ***********======***                                                         ",
"                     ***********======***                                                         ",
"                                                                                                  ",
"                                                                                                  ",
"                                                                                                  ",
"                                                                                                  "
};
