/* XPM */
static char *result[] = {
/* columns rows colors chars-per-pixel */
"79 93 254 2 ",
"   c #090808",
".  c #160D0C",
"X  c #191818",
"o  c #2D0D0B",
"O  c #390705",
"+  c #281616",
"@  c #381918",
"#  c #372F16",
"$  c #3F1E23",
"%  c #292828",
"&  c #3C2525",
"*  c #2F302F",
"=  c #323333",
"-  c #460604",
";  c #4C0203",
":  c #540202",
">  c #5C0201",
",  c #560C08",
"<  c #481706",
"1  c #531607",
"2  c #451A1A",
"3  c #571818",
"4  c #630201",
"5  c #6C0101",
"6  c #6A0A0A",
"7  c #720101",
"8  c #7C0202",
"9  c #730B07",
"0  c #711708",
"q  c #641818",
"w  c #731A19",
"e  c #4B2709",
"r  c #542508",
"t  c #593609",
"y  c #47231C",
"u  c #513316",
"i  c #692A08",
"p  c #643709",
"a  c #6F2115",
"s  c #6B3915",
"d  c #581F23",
"f  c #432323",
"g  c #4A2424",
"h  c #4A2827",
"j  c #572A29",
"k  c #54352C",
"l  c #593728",
"z  c #4C3636",
"x  c #583A39",
"c  c #682828",
"v  c #742829",
"b  c #643829",
"n  c #683635",
"m  c #7C3737",
"M  c #344E1B",
"N  c #3B571E",
"B  c #54491A",
"V  c #4B5117",
"C  c #57581C",
"Z  c #6A4717",
"A  c #69581D",
"S  c #755210",
"D  c #49681C",
"F  c #50721D",
"G  c #6F7B1B",
"H  c #565823",
"J  c #524D30",
"K  c #6D4A34",
"L  c #4B6A26",
"P  c #566925",
"I  c #4D7827",
"U  c #527C25",
"Y  c #537C2B",
"T  c #587829",
"R  c #5B6738",
"E  c #587B35",
"W  c #696924",
"Q  c #677928",
"!  c #707332",
"~  c #464445",
"^  c #565352",
"/  c #694949",
"(  c #764747",
")  c #6B5656",
"_  c #715651",
"`  c #6B7551",
"'  c #6F5D63",
"]  c #6C6869",
"[  c #796A68",
"{  c #7B7575",
"}  c #840303",
"|  c #833A3B",
" . c #835B0A",
".. c #95681B",
"X. c #917011",
"o. c #8D682A",
"O. c #813F40",
"+. c #834646",
"@. c #875857",
"#. c #895D57",
"$. c #8A6D51",
"%. c #856867",
"&. c #946A69",
"*. c #986F6E",
"=. c #8B746D",
"-. c #877776",
";. c #9A797A",
":. c #52851F",
">. c #6B841E",
",. c #77861A",
"<. c #568726",
"1. c #56822C",
"2. c #5A852C",
"3. c #5C8B2D",
"4. c #5D932D",
"5. c #5A8336",
"6. c #5D8C30",
"7. c #5E9231",
"8. c #5F9536",
"9. c #68862A",
"0. c #648B2E",
"q. c #76882B",
"w. c #63932E",
"e. c #669A2D",
"r. c #648A37",
"t. c #639532",
"y. c #699737",
"u. c #659A33",
"i. c #699B34",
"p. c #769233",
"a. c #67A636",
"s. c #6BA335",
"d. c #72A839",
"f. c #688847",
"g. c #6F8F45",
"h. c #6E8A54",
"j. c #728C59",
"k. c #77965A",
"l. c #7B9363",
"z. c #938B0F",
"x. c #888714",
"c. c #AA8904",
"v. c #AF910A",
"b. c #B99805",
"n. c #B4AC0B",
"m. c #8E9036",
"M. c #AA8F30",
"N. c #8EA43B",
"B. c #ABA82E",
"V. c #C59D05",
"C. c #CCA302",
"Z. c #C5AA07",
"A. c #D3A703",
"S. c #CAB607",
"D. c #D6B605",
"F. c #CDB617",
"G. c #E6B902",
"H. c #CCB331",
"J. c #D8C507",
"K. c #DDD20F",
"L. c #D9C815",
"P. c #E8C806",
"I. c #EDCD0C",
"U. c #E7D605",
"Y. c #F8D603",
"T. c #ECE307",
"R. c #F7E805",
"E. c #DCCB32",
"W. c #8E9150",
"Q. c #AC9A58",
"!. c #8DA84B",
"~. c #B0A953",
"^. c #8D8C71",
"/. c #899C76",
"(. c #89A56D",
"). c #8EA376",
"_. c #96A97B",
"`. c #B2B06C",
"'. c #C59848",
"]. c #CAB44E",
"[. c #CBB972",
"{. c #D4C650",
"}. c #D7C976",
"|. c #E4D271",
" X c #827C86",
".X c #7F8081",
"XX c #8B8888",
"oX c #988887",
"OX c #92978B",
"+X c #9B9797",
"@X c #A58989",
"#X c #AF9D91",
"$X c #A79999",
"%X c #99A988",
"&X c #9CB18C",
"*X c #A3B48C",
"=X c #B1AA92",
"-X c #A6B597",
";X c #AAA7A5",
":X c #B7A7A7",
">X c #AFB8AA",
",X c #B6B9A9",
"<X c #B4B3B2",
"1X c #BBB6B5",
"2X c #BBBBBB",
"3X c #C3B594",
"4X c #C3B1A9",
"5X c #C5B9B9",
"6X c #B8C4AB",
"7X c #BEC6B4",
"8X c #D5C885",
"9X c #D6CC95",
"0X c #E5D694",
"qX c #D4CEAC",
"wX c #C4CABA",
"eX c #E2D9B3",
"rX c #EEE2AB",
"tX c #79B229",
"yX c #79B229",
"uX c #79B229",
"iX c #79B229",
"pX c #79B229",
"aX c #79B229",
"sX c #79B229",
"dX c #79B229",
"fX c #79B229",
"gX c #79B229",
"hX c #79B229",
"jX c #79B229",
"kX c #79B229",
"lX c #79B229",
"zX c #79B229",
"xX c #79B229",
"cX c #79B229",
"vX c #79B229",
"bX c #79B229",
"nX c #79B229",
"mX c #79B229",
"MX c #79B229",
"NX c #79B229",
"BX c #79B229",
"VX c #79B229",
"CX c #79B229",
"ZX c #79B229",
"AX c #79B229",
"SX c #79B229",
"DX c #79B229",
"FX c #79B229",
"GX c #79B229",
"HX c #79B229",
"JX c #79B229",
"KX c #79B229",
"LX c #79B229",
"PX c #79B229",
/* pixels */
"PXPXPXPXPXPXPXPXPXPXPXPXPXPXPXPXPXPXPXPXPXPXPXPXPXPXPXPXPXPXPXPXPXPXPXPXPXPXPXPXPXPXPXPXPXPXPXGXgXpXNXPXPXPXPXPXPXPXPXPXPXPXPXPXPXPXPXPXPXPXPXPXPXPXPXPXPXPXPX",
"PXPXPXPXPXPXPXPXPXPXPXPXPXPXPXPXPXPXPXPXPXPXPXPXPXPXPXPXPXPXPXPXPXPXPXPXPXPXPXPXPXPXPXPXPXJXLXaX@X:XMXPXPXPXPXPXPXPXPXPXPXPXPXPXPXPXPXPXPXPXPXPXPXPXPXPXPXPXPX",
"PXPXPXPXPXPXPXPXPXPXPXPXPXPXPXPXPXPXPXPXPXPXPXPXPXPXPXPXPXPXPXPXPXPXPXPXPXPXPXPXPXPXPXPXJXLXlX%.( :XCXPXPXPXPXPXPXPXPXPXPXPXPXPXPXPXPXPXPXPXPXPXPXPXPXPXPXPXPX",
"PXPXPXPXPXPXPXPXPXPXPXPXPXPXPXPXPXPXPXPXPXPXPXPXPXPXPXPXPXPXPXPXPXPXPXPXPXPXPXPXPXPXPXPXJXLX#Xc ( 5XCXPXPXPXPXPXPXPXPXPXPXPXPXPXPXPXPXPXPXPXPXPXPXPXPXPXPXPXPX",
"PXPXPXPXPXPXPXPXPXPXPXPXPXPXPXPXPXPXPXPXPXPXPXPXPXPXPXPXPXPXPXPXPXPXPXPXPXPXPXPXPXPXLXLXGX4XO.; ( aXLXPXPXPXPXPXPXPXPXPXPXPXPXPXPXPXPXPXPXPXPXPXPXPXPXPXPXPXPX",
"PXPXPXPXPXPXPXPXPXPXPXPXPXPXPXPXPXPXPXPXPXPXPXPXPXPXPXPXPXPXPXPXPXPXPXPXLXSXGXPXPXPXPXPXpX@.w : _ gXLXLXPXPXPXPXPXPXPXPXPXPXPXPXPXPXPXPXPXPXPXPXPXPXPXPXPXPXPX",
"PXPXPXPXPXPXPXPXPXPXPXPXPXPXPXPXPXPXPXPXPXPXPXPXPXPXPXPXPXPXPXPXPXPXPXPXLX5XgXJXPXPXPXlX&.w 9 : @.gXLXPXPXPXPXPXPXPXPXPXPXPXPXPXPXPXPXPXPXPXPXPXPXPXPXPXPXPXPX",
"PXPXPXPXPXPXPXPXPXPXPXPXPXPXPXPXPXPXPXPXPXPXPXPXPXPXPXPXPXPXPXPXPXPXPXPXFX;.#XNXLXPXlX@Xv 7 9 : @.lXLXPXPXPXPXPXPXPXPXPXPXPXPXPXPXPXPXPXPXPXPXPXPXPXPXPXPXPXPX",
"PXPXPXPXPXPXPXPXPXPXPXPXPXPXPXPXPXPXPXPXPXPXPXPXPXPXPXPXPXPXPXPXPXPXPXPXDX=.%.aXLXCX4Xm 9 8 6 , &.lXPXPXPXPXPXPXPXPXPXPXPXPXPXPXPXPXPXPXPXPXPXPXPXPXPXPXPXPXPX",
"PXPXPXPXPXPXPXPXPXPXPXPXPXPXPXPXPXPXPXPXPXPXPXPXPXPXPXPXPXPXPXPXPXPXPXPXGX&.3 @XCX5Xm 7 8 9 4 q ;.lXHXCXGXHXLXKXLXLXLXHXJXLXLXJXLXPXLXPXPXPXPXPXPXPXPXPXPXPXPX",
"PXPXPXPXPXPXPXPXPXPXPXPXPXPXPXPXPXPXPXPXPXPXPXPXPXPXPXPXPXPXPXPXPXPXPXPXGX&., *.gX$Xc 9 8 5 > q @XMXNXjXmXBXGXKXJXJXJXHXLXKXLXPXPXLXKXPXPXPXPXPXPXPXPXPXPXPXPX",
"PXPXPXPXPXPXPXPXPXPXPXPXPXPXPXPXPXPXPXPXPXPXPXPXPXPXPXPXPXPXPXPXPXPXPXPXLX;.q c @X@Xc 7 9 5 > c #XpX&.m | | | +.+.+.+.@.@.&.&.*.;.@XoX@X5XMXPXPXPXPXPXPXPXPXPX",
"PXPXPXPXPXPXPXPXPXPXPXPXPXPXPXPXPXPXPXPXPXPXPXPXPXPXPXPXPXPXPXPXPXPXPXPXGX;.c q @.@.q 9 7 5 : ( $X;.w 8 7 5 5 5 5 4 4 5 5 6 6 q q 3 j ;.yXFXPXPXPXPXPXPXPXPXPX",
"PXPXPXPXPXPXPXPXPXPXPXPXPXPXPXPXPXPXPXPXPXPXPXPXPXPXPXPXPXPXPXPXPXPXPXPXKX;.q 6 q q 6 7 7 5 : n %.v } } } 8 } 8 8 8 7 7 8 4 4 : , ( *.pXHXPXPXPXPXPXPXPXPXPXPX",
"PXPXPXPXPXPXPXPXPXPXPXPXPXPXPXPXPXPXPXPXPXPXPXPXPXPXPXPXPXPXPXPXPXPXPXPXKX;.v 5 > : 5 7 9 5 : 3 q 9 } 7 7 5 5 4 4 4 4 4 4 > 3 n ;.aXLXPXPXPXPXPXPXPXPXPXPXPXPX",
"PXPXPXPXPXPXPXPXPXPXPXPXPXPXPXPXPXPXPXPXPXPXPXPXPXPXPXPXPXPXPXPXPXPXPXPXCX;.a 6 5 5 5 5 5 5 > ; 5 8 8 7 7 7 5 4 4 > > : , 3 @.:XBXJXLXPXJXPXPXPXPXPXPXPXPXPXPX",
"PXPXPXPXPXPXPXPXPXPXPXPXPXPXPXPXPXPXPXPXPXPXPXPXPXPXPXPXPXPXPXPXPXPXPXDX1X( 3 6 7 7 7 7 5 5 > 5 7 7 7 7 7 5 4 > 4 > , d @.1XCXPXPXPXPXPXPXPXPXPXPXPXPXPXPXPXPX",
"PXPXPXPXPXPXPXPXPXPXPXPXPXPXPXPXPXPXPXPXPXPXPXPXPXPXPXPXPXPXPXPXPXLXPXmXoXj > 5 7 7 7 7 7 4 5 5 7 7 7 7 7 5 4 4 > q @.:XlXKXJXHXLXPXPXPXPXPXPXPXPXPXPXPXPXPXPX",
"PXPXPXPXPXPXPXPXPXPXPXPXPXPXPXPXPXPXPXPXPXPXPXPXPXPXPXPXPXPXPXPXLXGXLXmX@Xv 5 5 5 7 7 7 7 5 7 7 7 7 7 7 7 4 : ; 2 _ @X:X@X;.4XDXPXPXPXPXPXPXPXPXPXPXPXPXPXPXPX",
"PXPXPXPXPXPXPXPXPXPXPXPXPXPXPXPXPXPXPXPXPXPXPXPXPXPXPXPXPXPXPXSXmXmXnX7X=.s 1 1 1 : > > 5 7 7 7 7 7 7 7 5 4 : : q m | m v q *.lXLXPXPXPXPXPXPXPXPXPXPXPXPXPXPX",
"PXPXPXPXPXPXPXPXPXPXPXPXPXPXPXPXPXPXPXPXPXPXPXPXPXPXPXLXGXLXPXnXyX<X%Xh.2.T P P C B u e : > 5 5 7 7 7 7 7 7 7 8 } } 8 5 8 7 | :XCXJXPXPXPXPXPXPXPXPXPXPXPXPXPX",
"PXPXPXPXPXPXPXPXPXPXPXPXPXPXJXPXPXPXPXPXPXPXPXPXPXPXLXFXnXhXZXnX;Xl.E <.4.8.u.e.i.u.0.T B < : 5 5 7 7 8 } } } } } 8 8 } } } 8 #.lXPXPXPXPXPXPXPXPXPXPXPXPXPXPX",
"PXPXPXPXPXPXPXPXPXPXPXPXPXPXPXPXPXPXPXPXPXPXPXPXPXPXFXnXfX2XsXiX/.E 3.i.i.i.t.i.u.i.i.i.6.B 1 > 4 5 7 8 8 8 7 7 7 7 7 5 7 8 7 +.5XKXPXPXPXPXPXPXPXPXPXPXPXPXPX",
"PXPXPXPXPXPXPXPXPXPXPXPXPXPXJXHXAXHXLXPXPXPXPXPXPXPXBXtX<X2XtXOXE 1.t.t.t.i.t.t.t.u.t.t.u.y.B 1 > 5 7 7 7 7 7 5 7 7 7 7 5 7 8 9 @.gXHXPXPXPXPXPXPXPXPXPXPXPXPX",
"LXPXPXPXPXPXPXPXPXPXPXPXPXPXJXxXqXkXHXJXPXPXJXPXPXPXSXfXtXuXuXl.E 1.1.1.t.u.t.t.u.t.i.u.w.s.P e > 4 5 7 7 7 7 7 5 5 5 4 7 7 7 5 | pXLXPXPXPXPXPXPXPXPXPXPXPXPX",
"KXLXJXPXPXPXPXPXPXPXPXPXPXPXJXVX[.[.eXJXJXPXPXJXJXLXfX1XfXBX6X` Y 6.3.3.t.u.i.i.i.t.t.6.t.i.2.B , > 5 4 4 4 > > 4 > > > 4 5 7 7 w ;.lXLXLXPXPXPXPXPXPXPXPXPXPX",
"PXLXLXPXPXPXPXPXPXPXPXPXPXPXPXLX9XH.}.cXJXPXPXPXLXNXqXwXmXBX-XE Y 7.t.w.t.i.t.t.i.t.t.t.t.u.8.C 1 > > > > 4 4 > > > : : > 4 7 7 5 +.pXPXPXPXPXPXPXPXPXPXPXPXPX",
"PXJXKXLXPXPXPXPXPXPXPXPXPXPXPXPXkX].H.}.xXkXeXeX9X{.].}.cXjX/.E Y 3.u.u.t.t.3.3.t.u.i.u.t.i.i.C 1 > 4 4 > > > : 1 e u u , : 4 7 7 w @XmXLXPXPXPXPXPXPXPXPXPXPX",
"PXPXPXKXKXJXPXPXPXPXPXPXPXLXJXPXcX|.F.E.].].H.H.L.J.S.].dXgX(.E 1.6.t.t.u.u.3.7.e.u.t.t.t.u.u.P 1 > > > : 1 r B P U Y f._ q : 4 7 6 ( pXPXPXPXPXPXPXPXPXPXPXPX",
"PXPXPXPXLXLXJXPXPXPXPXPXPXPXPXPXGX0XE.Z.b.F.Z.Z.U.R.U.H.qXaX/.E 1.6.t.u.u.t.u.i.y.i.u.i.u.t.t.P 1 : : 1 e B P 5.s.s.3.%X1X;.n , 4 4 w 4XFXLXPXPXPXPXPXPXPXPXPX",
"PXPXPXPXPXLXLXPXPXPXPXPXPXKXGXHXBX0XH.c.b.n.x.z.S.T.R.L.[.pX).E Y 3.t.i.i.i.t.t.w.t.u.e.u.t.8.C e e B P 3.s.a.i.y.w.<.).jXPX:Xn 3 4 4 @.wXHXLXPXPXPXPXPXPXPXPX",
"PXPXPXPXPXLXLXLXPXPXPXPXKXmXiXgXqX{.F.v.V.v.9.F x.J.Y.P.].wX).E 1.6.t.7.6.7.u.u.y.0.Q W 0.a.8.T H P 4.a.y.9.0.w.i.w.3.).zXPX6X` K 3 : m 4XCXPXPXPXPXPXPXPXPXPX",
"PXPXPXPXPXPXPXLXLXPXPXPXPXGXfX:X~.L.U.U.D.c.G 2.T >.v.A.H.3X/.E U 3.u.t.3.t.u.i.s.t.Q W A Z W p.a.s.Q A A Q 9.t.y.t.3._.sX-Xf.k.7X=X( 3 %.aXHXLXPXPXPXPXPXPXPX",
"PXPXPXPXPXPXPXPXLXLXLXPXKXMX7X<X`.H.U.T.D.c.G <.6.1.U x.B.Q.k.E 1.6.t.t.t.i.t.9.Q w.a.i.W Z i s Z Z s Z W 0.s.a.i.w.<.h.l.f.U k.zXMX5X_ n :XHXLXLXPXPXPXPXPXPX",
"PXPXPXPXPXPXPXPXPXLXLXLXKXDXtX>XyX4X{.P.D.b.z.9.8.6.1.Y G ! ` E 1.w.t.t.t.t.w.9.W W W Q e.y.W s 0 i A 0.a.u.Q Q 9.t.3.I I <.:./.vXPXPXaX@X$XlXJXPXPXPXPXPXPXPX",
"PXPXPXPXPXPXPXPXPXPXLXLXKXBXiX2XuXgX3XH.G.A.z.9.3.t.t.6.T T E E Y 3.t.t.6.t.t.t.0.W Z Z A Q 9.9.W Q y.y.Q A A W 9.t.3.U <.8.2._.vXLXPXPXlXaXlXJXPXPXPXPXPXPXPX",
"PXPXPXPXPXPXPXPXPXPXLXLXSXnXsX<X+X&X;X`.H.C.c.,.6.3.w.t.t.1.Y I 1.3.u.t.0.t.a.s.s.s.9.A i a Z W 9.9.W Z a Z W 0.t.t.3.1.3.7.y.-XNXPXPXLXPXJXPXPXPXPXPXPXPXPXPX",
"PXPXPXPXPXJXPXPXPXPXPXPXJXZX6Xh.U D E j.Q.M.v.,.3.3.6.t.i.t.2.I Y 3.t.t.6.t.d.d.d.d.a.a.9.Z 0 7 9 0 9 i A 0.i.i.u.t.3.I 3.<.k.7XGXPXPXPXPXPXPXPXPXPXPXPXPXPXPX",
"PXPXPXPXPXPXPXPXPXPXPXPXJX7Xf.2.6.6.2.t.k.Q.B.z.>.7.6.0.u.t.3.1.1.6.t.3.3.8.e.i.i.s.d.s.i.y.Q s 9 0 Z Q e.y.w.e.i.t.3.I 3.:.(.dXJXPXPXPXPXPXPXPXPXPXPXPXPXPXPX",
"PXPXPXPXPXPXPXPXPXPXPXJXdXl.2.3.3.7.u.w.y.OX[.m.>.3.6.6.6.u.7.2.Y 6.7.2.1.1.3.7.t.w.w.i.u.u.i.t.9.Q w.i.s.d.d.d.s.t.6.1.t.<.&XNXJXPXPXPXPXPXPXPXPXPXPXPXPXPXPX",
"PXPXPXPXPXPXPXPXPXJXPXPXwXg.2.w.7.7.t.u.t.l.=X=Xk.5.t.6.2.6.6.2.1.2.7.6.r.E U <.U 4.i.e.t.t.t.i.e.y.t.u.a.u.i.i.t.i.9.6.2.g.6XGXPXPXPXPXPXPXPXPXPXPXPXPXPXPXPX",
"PXPXPXPXPXPXPXPXPXPXNX>Xk.4.8.t.w.7.t.t.6.5.j.OXXXf.r.t.w.0.6.7.2.1.2.y.N.p.! ^.*Xh.D Y 6.0.t.3.w.e.i.0.t.y.r.2.9.m.p.6.E _.zXPXPXPXPXPXPXPXPXPXPXPXPXPXPXPXPX",
"PXPXPXPXPXPXJXPXPXGX6Xk.<.t.i.u.t.7.t.3.1.I 1.f.k.r.I Y 7.2.1.2.3.1.2.i.N.M.o.3XlX^.B H 2.2.3.2.1.3.y.i.0.h.! H m.B.q.L k.wXHXPXPXPXPXPXPXPXPXPXPXPXPXPXPXPXPX",
"PXPXPXPXPXJXPXPXPXzX_.8.t.a.u.t.t.7.<.U I I :.I 3.2.I L L 2.3.3.1.1.1.T m.].o.&.;.&.K H U 3.3.1.Y Y 0.s.s.r.K +.'.~.9.E 6XZXPXPXPXPXPXPXPXPXPXPXPXPXPXPXPXPXPX",
"PXPXPXPXJXHXAXdXdX6Xk.u.t.t.t.7.3.5.1.h./.j.Y Y 1.3.Y V A n.n.x.T Y P Z A ].]...i s ! T 0.i.i.w.2.1.Y 7.a.<.W Q.}.~.k.6XFXPXPXPXPXPXPXPXPXPXPXPXPXPXPXPXPXPXPX",
"PXPXJXPXVXkXqX(.k.d.a.8.y.u.t.3.I T k.6XhX&X5.Y 1.1.L C c.T.R.Z.G H s p C ~.0X~.W P U 3.u.d.s.u.t.t.2.3.u.s.y.`.[.Q.>XmXLXPXPXPXPXPXPXPXPXPXPXPXPXPXPXPXPXPXPX",
"PXPXPXLXeX{.S.n.c.z.x.,.q.t.6.I f.>XZXLXPXnX/.E U 3.L C c.U.Y.G.z.t p C C m.}.rX}.N.<.<.5.u.w.w.4.8.t.t.u.i.d.!.Q.9XAXPXPXPXPXPXPXPXPXPXPXPXPXPXPXPXPXPXPXPXPX",
"PXPXJXKXeXE.U.U.G.A.V.b.z.w.I E -XNXJXLXPXDX-X5.I 3.3.V S c.A.b.S e V P Z G ~.rXxX0X~.N.p.9.T Y I D D I 1.u.u.s.*XzXLXPXJXPXPXPXPXPXPXPXPXPXPXPXPXPXPXPXPXPXPX",
"PXJXPXGXqXE.R.R.Y.G.G.A.X.B u ) tXPXPXLXPXZX6Xf.I Y t.6.H B t u u h V D V D F ~.8X8X`.~.Q.Q.m.U 2.W.`.W.9.E :.3._.cXPXPXPXPXPXPXPXPXPXPXPXPXPXPXPXPXPXPXPXPXPX",
"PXPXPXcX8XF.J.J.V.b.V.V...c j / 5XLXLXPXPXZX-Xf.I Y 6.0.1.L # h j j z L F ` j.g.q.!.d.N.`.}.~.2.0.~.8X~.q.>.m.r.(.wXSXJXPXPXPXPXPXPXPXPXPXPXPXPXPXPXPXPXPXPXPX",
"PXPXPXxX}.F.D.D.A.V.V.b...c g x 1XLXPXJXPXzX/.Y Y 5.3.7.4.4.R z n n k J I *XsX>Xl.5.:.4.!.{.N.y.3.N.{.p.:.n.].*X6XsXSXPXPXPXPXPXPXPXPXPXPXPXPXPXPXPXPXPXPXPXPX",
"PXPXPXxX|.I.R.R.Y.G.G.A.X.B J [ iXPXKXPXKX<X^ M N L 5.r.2.1.U N g j h # # ;XGXPXzX&Xh.5.0.i.0.t.6.t.p.0.n.K.|.VXJXLXPXPXPXPXPXPXPXPXPXPXPXPXPXPXPXPXPXPXPXPXPX",
"PXJXJXVX|.K.T.Y.Y.G.G.V.x.F f.wXLXPXJXPXFXXX=     * ] h.N N M = @ % % X X XXMXKXPXZX7X(.E I I Y 1.Y 1.x.K.K.0XVXLXPXPXPXPXPXPXPXPXPXPXPXPXPXPXPXPXPXPXPXPXPXPX",
"PXPXPXVX|.E.Y.I.G.A.A.b.S l -.hXKXPXLXPXDXXX= X X = .X2X X^ ] ] ^ = * * % OXMXPXLXPXLXjX%.H Q Q 9.Q ,.S.T.E.0XAXJXPXPXPXPXPXPXJXPXPXPXPXPXPXPXPXPXPXPXPXPXPXLX",
"PXPXJXVX8XF.J.D.V.V.V.b. .l oXzXJXPXLXPXDXXX= X X = { iXtX+X;X<X{ ~ * * % ;XGXPXPXPXLXBXoXo.v.V.v.v.n.D.J.H.0XAXPXPXPXPXPXPXPXLXLXPXPXPXPXPXPXPXPXPXPXPXLXLXLX",
"PXJXJXJX0XH.J.J.G.G.G.A.X.$.yXKXLXPXPXPXKX2X^     X ^ 7XnXtX+X;XXX~ * % % +XMXLXPXJXPXKX=Xm.v.A.G.Y.Y.U.S.[.xXJXJXPXPXPXPXPXFXfXtXBXPXPXPXPXPXPXPXPXPXPXLXLXPX",
"PXPXJXLXeX{.R.R.Y.G.A.b.x.^.sXPXPXJXLXLXPXjX] X   . ~ <XmX<X' -.{ ~ % % X ^ <XFXJXLXJXJX6Xy.,.z.Z.P.R.R.L.0XHXJXPXPXPXPXPXPXBXuX2XfXGXPXPXPXPXPXPXPXPXLXLXLXPX",
"PXJXPXPXxX{.L.J.S.v.x.q.t.g._.6XZXPXPXPXPXmX] X   + = [ $X[ 3 z ~ & % + % % ^ 2XJXJXPXNX&Xr.4.e.,.v.S.P.H.eXJXLXJXPXPXPXLXPXmXfXiXyXmXLXPXPXPXPXPXPXLXLXLXPXPX",
"PXPXJXPXAX8X].m.Q <.3.7.4.4.<.g.-XgXlXlXlXyX) o o o O 2 g , : < < o . . % * X ] :XpXuX-XE D U 3.6.3.x.~.9XVXPXPXPXJXPXPXPXPXjXiXbXfXfXGXLXPXPXPXPXLXLXJXPXPXPX",
"PXPXPXPXJXxXkX_.E 2.t.t.u.y.<.D J %.^.;.^.&.h - ; : ; O - : , u r O     % * * % J _ #.J + O < V T t.r.%XqXvXBXGXPXPXPXFXGXPXjXiXMXbXiXBXPXPXPXLXHXKXLXPXPXPXPX",
"PXPXPXPXPXPXFX&X5.3.u.y.u.3.V r < r t i t i e : ; : ; ; 4 : - O u _ ^ X   X % e c.D.X.t # # u M V U 6.P u K %.:XgXlX:X-.$X1X;X<XbX2X+XaXHXJXPXLXLXLXPXPXPXPXPX",
"PXPXPXPXLXHXgX^.1.7.u.u.i.0.V t i 1 - O O < < - - - - - O O ; ; / 5X1X~     . S A.R.J.X.V L U L L 1.3.V r t s s K n j 2 3 g g ) oX) j $XBXPXLXLXLXPXPXPXPXPXPX",
"PXPXPXLXPXMX#XJ U y.t.6.t.3.P V H oX5XaXpX$X~ o o i p 2 %.$Xx n ;XCXJXuX[ & @ S C.P.D.X.D L 7.1.L Y 1.` K j 1 1 1 1 : - ; ; O O < : ; j %.4XmXHXPXPXPXPXPXPXPX",
"PXPXPXPXPXDX:XR I t.y.u.i.w.4.F E -XGXPXHX$Xz + t c.b.W.tXmX:X+XgXJXPXNX+Xx 2 p c.A.c.B L U 2.6.:.P h.,XpX5X#X^.#.b - O : ; - > > , < 1 l $XmXPXPXPXPXPXPXPXPX",
"PXPXPXPXPXJXlX^.P <.3.3.3.:.1.2.(.sXSXPXnX[ f @  .A.E.qXMXBXMXfXiXMXPXGX5XJ + @ t Z Z R L L D :.I 5.&XNXPXPXPXMXiX:X/ o - - - : ; - < < K :XGXPXPXPXPXPXPXPXPX",
"PXPXPXPXPXPXLXyX&Xk.r.E 5.5.j.&XsXGXJXPXfX) z ) o.M.=XfXnXmXMXbXtXtXnXBX1Xz X @ o + / +X%X/.j.h.l.*XzXLXPXJXPXPXPXPX2XoX' j d j 2 - - j oXjXPXLXPXPXPXPXPXPXPX",
"PXPXPXPXPXPXJXPXGXsX*X_.%X*XdXSXPXLXPXFX<X' XX<X`.#XtXnXMXmXmXMXbXuXiXfX+Xx f h g g ) <XDXmXwX4XdXZXLXPXPXPXPXPXGXGXPXPXgX-.-.oX' 2 j @XgXHXPXPXPXPXPXPXPXPXPX",
"PXPXPXPXPXPXPXJXPXPXPXPXPXPXPXPXJXLXPXuXXX$XmXFXnXnXMXmXmXmXmXnXDXBXfX<XXXx h j j j x -.3X0X[.9XxXJXJXPXGXBXmXfXtXiXmXDXfXiXMXLXpX%.;XBXPXPXPXLXPXPXPXPXPXPXPX",
"PXPXPXPXPXPXPXPXPXLXLXJXLXLXLXJXPXPXBX;X' $XmXMXmXvXmXvXmXmXZXJXLXiXtXfX+Xx $ g j h d K ..b.v.M.[.xXMXMXBXbXiX2X<X<X2X2XtXfXnXmXhXyXjXKXLXLXPXPXPXPXPXPXPXPXPX",
"PXPXPXPXPXPXPXPXPXPXPXPXPXPXPXPXPXLX5X/ g / oX1XlXGXJXHXHXLXBXvXiXtXmXhX%.j n n n n o.V.C.A.V.c.~.hXBXFXLXMXfXnXDXbX2XtXjXmXmXMXmXfXtXBXPXPXPXPXPXPXPXPXPXPXPX",
"PXPXPXPXPXPXPXPXPXJXPXPXPXPXPXLXLXmXoXn j n / [ #XsXkXbXlXwX,XwXhXmXDX5X) j n n n n ..V.Z.V...M.9XnXKXPXKXDXjXjXMXnXfXhXmXMXmXMXMXhX2XaXGXPXPXPXPXPXPXPXPXPXPX",
"PXPXPXPXPXPXPXPXPXPXPXPXPXPXPXPXLXfX[ g n n c n O.W.~.Q.$.W.#XgXFXLXBX$X/ g j j j j b  . .K u _ 1XBXKXKXPXKXMXfXfXMXMXmXmXmXmXnXmXmXnXiXfXBXLXPXPXPXPXPXPXPXPX",
"PXPXPXPXPXPXPXPXPXPXPXPXPXPXPXPXGX<X/ y j j n j s S X. .s K 3XHXLXPXjX-.z $ $ h h h h h h j $ x $XBXLXLXKXGXBXfXtXiXbXBXKXFXGXFXGXGXMXiXiXmXLXPXPXPXPXPXPXPXPX",
"PXPXPXPXPXPXPXPXPXPXPXPXPXPXLXPXzX-.& @ & @ $ h h j l j d K ;XBXKXLXdX) + @ @ @ 2 2 $ 2 2 @ + & XXlXLXPXKXBXBXMXfX2XiXbXMXMXMXMXMXmXiXtXjXLXPXPXPXPXPXPXPXPXPX",
"PXPXPXPXPXPXPXPXPXPXPXPXPXPXLXPXhX[ & $ & f g g g $ $ $ $ & ^.lXGXPXhX[ k z z x x x x x x x z / +XMXLXPXGXDXGXPXPXLXjXtX<X;X<X2X2X2XiXGXPXPXPXPXPXPXPXPXPXPXPX",
"PXPXPXPXPXPXPXPXPXPXPXPXPXPXPXPXlXXXz & $ $ & 2 y y g $ @ f oXbXKXPXDXtX<X:X4XtXyXtXyXtXyXtX5XuXgXFXLXLXKXDXGXLXPXPXKXLXLXLXFXGXKXPXJXKXPXPXPXPXPXPXPXPXPXPXPX",
"PXPXPXPXPXPXPXPXPXPXPXPXPXPXPXPXPXHXFXBXBXNXlXdXyX1X<X$XoXoXiXFXPXPXPXPXLXPXPXPXPXPXPXPXPXPXPXPXDXDXKXLXKXDXGXPXPXPXPXPXLXLXGXFXGXGXLXPXPXPXPXPXPXPXPXPXPXPXPX",
"PXPXPXPXPXPXPXPXPXPXPXPXPXPXPXPXPXPXPXPXPXPXPXKXKXBXBXMXmXmXFXPXPXPXPXPXPXPXLXPXPXPXPXPXPXPXLXPXCXDXLXPXPXFXFXLXPXPXPXPXGXMXBXDXBXMXFXPXPXPXPXPXPXPXPXPXPXPXPX",
"PXPXPXPXPXPXPXPXPXPXPXPXPXPXPXPXPXPXPXPXPXPXPXPXPXPXPXPXPXPXPXPXPXPXPXPXPXPXPXPXPXPXPXPXPXPXPXPXKXMXmXMXmXmXFXPXPXPXPXPXGXBXGXKXKXDXDXPXPXPXPXPXPXPXPXPXPXPXPX",
"PXPXPXPXPXPXPXPXPXPXPXPXPXPXPXPXPXPXPXPXPXPXPXPXPXPXPXPXLXPXPXPXPXPXPXPXPXPXPXPXPXPXPXPXPXPXPXPXPXLXGXGXFXGXLXPXPXPXPXPXGXDXKXKXPXDXZXKXPXPXPXPXPXPXPXPXPXPXPX",
"PXPXPXPXPXPXPXPXPXPXPXPXPXPXPXPXPXPXPXPXPXPXPXPXPXPXPXPXPXPXPXPXPXPXPXPXPXPXPXPXPXPXPXPXPXPXPXPXPXPXPXPXPXPXPXPXPXPXPXPXGXDXKXKXLXGXBXLXPXPXPXPXPXPXPXPXPXPXPX",
"PXPXPXPXPXPXPXPXPXPXPXPXPXPXPXPXPXPXPXPXPXPXPXPXPXPXPXPXPXPXPXPXPXPXPXPXPXPXPXPXPXPXPXPXPXPXPXPXPXPXPXPXPXPXPXPXPXPXPXPXKXDXFXPXPXKXBXLXPXPXPXPXPXPXPXPXPXPXPX",
"PXPXPXPXPXPXPXPXPXPXPXPXPXPXPXPXPXPXPXPXPXPXPXPXPXPXPXPXPXPXPXPXPXPXPXPXPXPXPXPXPXPXPXPXPXPXPXPXPXPXPXPXPXPXPXPXKXGXGXGXZXBXKXLXLXKXBXLXPXPXPXPXPXPXPXPXPXPXPX",
"PXPXPXPXPXPXPXPXPXPXPXPXPXPXPXPXPXPXPXPXPXPXPXPXPXPXPXPXPXPXPXPXPXPXPXPXPXPXPXPXPXPXPXPXPXPXPXPXPXPXPXPXPXPXPXGXBXNXBXBXDXFXKXKXKXGXBXLXPXPXPXPXPXPXPXPXPXPXPX",
"PXPXPXPXPXPXPXPXPXPXPXPXPXPXPXPXPXPXPXPXPXPXPXPXPXPXPXPXPXPXPXPXPXPXPXPXPXPXPXPXPXPXPXPXPXPXPXPXPXPXPXPXPXPXPXGXDXGXKXKXKXPXKXPXPXDXBXKXPXPXPXPXPXPXPXPXPXPXPX",
"PXPXPXPXPXPXPXPXPXPXPXPXPXPXPXPXPXPXPXPXPXPXPXPXPXPXPXPXPXPXPXPXPXPXPXPXPXPXPXPXPXPXPXPXPXPXPXPXPXPXPXPXPXPXPXDXBXKXKXPXKXPXPXKXGXBXGXPXPXPXPXPXPXPXPXPXPXPXPX",
"PXPXPXPXPXPXPXPXPXPXPXPXPXPXPXPXPXPXPXPXPXPXPXPXPXPXPXPXPXPXPXPXPXPXPXPXPXPXPXPXPXPXPXPXPXPXPXPXPXPXPXPXPXPXPXKXBXKXPXKXPXKXLXGXBXDXPXPXPXPXPXPXPXPXPXPXPXPXPX",
"PXPXPXPXPXPXPXPXPXPXPXPXPXPXPXPXPXPXPXPXPXPXPXPXPXPXPXPXPXPXPXPXPXPXPXPXPXPXPXPXPXPXPXPXPXPXPXPXPXPXPXPXPXPXPXKXBXBXDXFXDXBXBXBXDXLXPXLXLXPXPXPXPXPXPXPXPXPXPX",
"PXPXPXPXPXPXPXPXPXPXPXPXPXPXPXPXPXPXPXPXPXPXPXPXPXPXPXPXPXPXPXPXPXPXPXPXPXPXPXPXPXPXPXPXPXPXPXPXLXPXPXPXPXPXPXPXKXBXBXBXBXBXGXKXPXPXPXLXLXLXPXPXPXPXPXPXPXPXPX",
"PXPXPXPXPXPXPXPXPXPXPXPXPXPXPXPXPXPXPXPXPXPXPXPXPXPXPXPXPXPXPXPXPXPXPXPXPXPXPXPXPXPXPXPXPXPXPXPXGXKXPXPXPXPXPXPXPXPXPXPXPXPXPXPXPXPXPXPXPXLXKXPXPXPXPXPXPXPXPX",
"PXPXPXPXPXPXPXPXPXPXPXPXPXPXPXPXPXPXPXPXPXPXPXPXPXPXPXPXPXPXPXPXPXPXPXPXPXPXPXPXPXPXPXPXPXPXJXLXLXPXPXPXPXPXPXPXPXPXPXPXPXPXPXPXPXPXPXPXPXJXKXKXLXPXPXPXPXPXPX",
"PXPXPXPXPXPXPXPXPXPXPXPXPXPXPXPXPXPXPXPXPXPXPXPXPXPXPXPXPXPXPXPXPXPXPXPXPXPXPXPXPXPXPXPXPXLXLXLXPXPXPXPXPXPXPXPXPXPXPXPXPXPXPXPXPXPXPXPXPXPXPXHXLXLXPXPXPXPXPX",
"PXPXPXPXPXPXPXPXPXPXPXPXPXPXPXPXPXPXPXPXPXPXPXPXPXPXPXPXPXPXPXPXPXPXPXPXPXPXPXPXPXPXPXPXLXLXLXPXPXPXPXPXPXPXPXPXPXPXPXPXPXPXPXPXPXPXPXPXPXPXPXPXPXKXKXLXPXPXPX"
};
