/* XPM */
static char *result[] = {
/* columns rows colors chars-per-pixel */
"83 93 255 2 ",
"   c #090909",
".  c #171916",
"X  c #3A0504",
"o  c #2D100C",
"O  c #381919",
"+  c #26221A",
"@  c #322C15",
"#  c #282827",
"$  c #3A2A26",
"%  c #373837",
"&  c #440202",
"*  c #4C0102",
"=  c #460B07",
"-  c #540303",
";  c #5C0201",
":  c #550B08",
">  c #481908",
",  c #541C06",
"<  c #491B1A",
"1  c #551516",
"2  c #630101",
"3  c #6C0101",
"4  c #660A0A",
"5  c #730101",
"6  c #7C0202",
"7  c #770A06",
"8  c #71190B",
"9  c #6A1313",
"0  c #721313",
"q  c #4E230B",
"w  c #592806",
"e  c #48241A",
"r  c #562817",
"t  c #4C3710",
"y  c #563717",
"u  c #642805",
"i  c #6C310E",
"p  c #6D3914",
"a  c #511F20",
"s  c #472727",
"d  c #572627",
"f  c #4E3A2B",
"g  c #593837",
"h  c #69292A",
"j  c #6C2B2A",
"k  c #693837",
"l  c #743838",
"z  c #3C5318",
"x  c #3B6B13",
"c  c #3E5224",
"v  c #396520",
"b  c #4A4D16",
"n  c #544619",
"m  c #55551B",
"M  c #764F0E",
"N  c #6C4818",
"B  c #6A561C",
"V  c #46691A",
"C  c #4D721B",
"Z  c #717314",
"A  c #4E4D2A",
"S  c #545B23",
"D  c #685132",
"F  c #486825",
"G  c #536924",
"H  c #4C7524",
"J  c #4D7928",
"K  c #527C25",
"L  c #567528",
"P  c #547D2A",
"I  c #4E7134",
"U  c #577934",
"Y  c #696723",
"T  c #677727",
"R  c #707A2C",
"E  c #543A40",
"W  c #3F4141",
"Q  c #49454A",
"!  c #5A4746",
"~  c #595858",
"^  c #644A4A",
"/  c #784847",
"(  c #675555",
")  c #775751",
"_  c #5D7440",
"`  c #657A4D",
"'  c #686668",
"]  c #7A6766",
"[  c #757972",
"{  c #840303",
"}  c #870B0B",
"|  c #823838",
" . c #966A0D",
".. c #926621",
"X. c #97752B",
"o. c #844847",
"O. c #885959",
"+. c #8C6C53",
"@. c #905F60",
"#. c #886866",
"$. c #90716B",
"%. c #877978",
"&. c #987978",
"*. c #77851A",
"=. c #758B1D",
"-. c #4D832A",
";. c #558726",
":. c #55832B",
">. c #59842C",
",. c #5C8B2D",
"<. c #5C9226",
"1. c #5D922C",
"2. c #588432",
"3. c #5D8C31",
"4. c #5D9232",
"5. c #5C9635",
"6. c #678529",
"7. c #638C2D",
"8. c #778B2C",
"9. c #62942E",
"0. c #68992E",
"q. c #789329",
"w. c #638B36",
"e. c #7B8939",
"r. c #649532",
"t. c #6A9636",
"y. c #659A33",
"u. c #699B34",
"i. c #67A636",
"p. c #6CA236",
"a. c #74A839",
"s. c #66B137",
"d. c #668745",
"f. c #6B9348",
"g. c #6E8854",
"h. c #74885A",
"j. c #769657",
"k. c #79A344",
"l. c #788967",
"z. c #7B9763",
"x. c #928A0E",
"c. c #AD8F0C",
"v. c #B99905",
"b. c #B8AC10",
"n. c #8D9236",
"m. c #AB9638",
"M. c #96A53C",
"N. c #B4A330",
"B. c #C59B02",
"V. c #C8A706",
"C. c #D6A902",
"Z. c #CAB503",
"A. c #D6B806",
"S. c #CAB617",
"D. c #CDB417",
"F. c #E4B703",
"G. c #F4BD02",
"H. c #C8AD2D",
"J. c #CAB837",
"K. c #DAC604",
"L. c #D6CB12",
"P. c #E5C703",
"I. c #F7C700",
"U. c #E8D704",
"Y. c #F9D502",
"T. c #E1D21A",
"R. c #EBE104",
"E. c #F8EA03",
"W. c #FAF503",
"Q. c #DDCC34",
"!. c #8F9451",
"~. c #9F9A59",
"^. c #B59C47",
"/. c #B3A94F",
"(. c #839A6A",
"). c #918E79",
"_. c #899B74",
"`. c #8DA473",
"'. c #AEA871",
"]. c #C9B14A",
"[. c #C6B955",
"{. c #CAB868",
"}. c #CCBC74",
"|. c #DBCB4B",
" X c #D3C56F",
".X c #E6C97A",
"XX c #957F83",
"oX c #878786",
"OX c #978685",
"+X c #8A9B82",
"@X c #989689",
"#X c #9C9997",
"$X c #A38B8A",
"%X c #A99796",
"&X c #B09591",
"*X c #98AA85",
"=X c #9DAA91",
"-X c #AFAC8D",
";X c #A9AB96",
":X c #A7B797",
">X c #AF9FA2",
",X c #ABA9A8",
"<X c #B7A7A6",
"1X c #B0B6AA",
"2X c #B6B8A8",
"3X c #B4B4B3",
"4X c #BBB5B4",
"5X c #BCBCBB",
"6X c #C7B88E",
"7X c #C6B8B0",
"8X c #C6B9B9",
"9X c #B5C19A",
"0X c #B6C5A8",
"qX c #BAC3B6",
"wX c #D2C78E",
"eX c #EAD48F",
"rX c #C5C9BB",
"tX c #79B229",
"yX c #79B229",
"uX c #79B229",
"iX c #79B229",
"pX c #79B229",
"aX c #79B229",
"sX c #79B229",
"dX c #79B229",
"fX c #79B229",
"gX c #79B229",
"hX c #79B229",
"jX c #79B229",
"kX c #79B229",
"lX c #79B229",
"zX c #79B229",
"xX c #79B229",
"cX c #79B229",
"vX c #79B229",
"bX c #79B229",
"nX c #79B229",
"mX c #79B229",
"MX c #79B229",
"NX c #79B229",
"BX c #79B229",
"VX c #79B229",
"CX c #79B229",
"ZX c #79B229",
"AX c #79B229",
"SX c #79B229",
"DX c #79B229",
"FX c #79B229",
"GX c #79B229",
"HX c #79B229",
"JX c #79B229",
"KX c #79B229",
"LX c #79B229",
"PX c #79B229",
"IX c #79B229",
/* pixels */
"IXIXIXIXIXIXIXIXIXIXIXIXIXIXIXIXIXIXIXIXIXIXIXIXIXIXIXIXIXIXIXIXIXIXIXIXIXIXIXIXIXIXIXIXIXIXIXIXIXIXIXIXIXIXIXIXIXIXIXIXIXIXIXIXIXIXIXIXIXIXIXIXIXIXIXIXIXIXIXIXIXIXIX",
"IXIXIXIXIXIXIXIXIXIXIXIXIXIXIXIXIXIXIXIXIXIXIXIXIXIXIXIXIXIXIXIXIXIXIXIXIXIXIXIXIXIXIXIXIXKXJXJXIXIXIXIXIXIXIXIXIXIXIXIXIXIXIXIXIXIXIXIXIXIXIXIXIXIXIXIXIXIXIXIXIXIXIX",
"IXIXIXIXIXIXIXIXIXIXIXIXIXIXIXIXIXIXIXIXIXIXIXIXIXIXIXIXIXIXIXIXIXIXIXIXIXIXIXIXIXIXIXKXIXfX8XZXIXKXIXIXIXIXIXIXIXIXIXIXIXIXIXIXIXIXIXIXIXIXIXIXIXIXIXIXIXIXIXIXIXIXIX",
"IXIXIXIXIXIXIXIXIXIXIXIXIXIXIXIXIXIXIXIXIXIXIXIXIXIXIXIXIXIXIXIXIXIXIXIXIXIXIXIXIXIXIXIXIXOX$.jXIXKXIXIXIXIXIXIXIXIXIXIXIXIXIXIXIXIXIXIXIXIXIXIXIXIXIXIXIXIXIXIXIXIXIX",
"IXIXIXIXIXIXIXIXIXIXIXIXIXIXIXIXIXIXIXIXIXIXIXIXIXIXIXIXIXIXIXIXIXIXIXIXIXIXIXIXIXIXIXDX8Xa #.BXIXLXIXIXIXIXIXIXIXIXIXIXIXIXIXIXIXIXIXIXIXIXIXIXIXIXIXIXIXIXIXIXIXIXIX",
"IXIXIXIXIXIXIXIXIXIXIXIXIXIXIXIXIXIXIXIXIXIXIXIXIXIXIXIXIXIXIXIXIXIXIXIXIXIXIXIXIXIXIXfXo.: &.ZXIXKXIXIXIXIXIXIXIXIXIXIXIXIXIXIXIXIXIXIXIXIXIXIXIXIXIXIXIXIXIXIXIXIXIX",
"IXIXIXIXIXIXIXIXIXIXIXIXIXIXIXIXIXIXIXIXIXIXIXIXIXIXIXIXIXIXIXIXIXIXIXKXIXIXIXIXLXIXZXO.4 9 $XAXIXKXIXIXIXIXIXIXIXIXIXIXIXIXIXIXIXIXIXIXIXIXIXIXIXIXIXIXIXIXIXIXIXIXIX",
"IXIXIXIXIXIXIXIXIXIXIXIXIXIXIXIXIXIXIXIXIXIXIXIXIXIXIXIXIXIXIXIXIXHXDXHXIXIXIXKXIXAX&X4 3 h &XHXIXKXIXIXIXIXIXIXIXIXIXIXIXIXIXIXIXIXIXIXIXIXIXIXIXIXIXIXIXIXIXIXIXIXIX",
"IXIXIXIXIXIXIXIXIXIXIXIXIXIXIXIXIXIXIXIXIXIXIXIXIXIXIXIXIXIXIXIXIXDXhXfXJXIXIXIXDX<Xl 3 3 h <XPXIXIXIXIXIXIXIXIXIXIXIXIXIXIXIXIXIXIXIXIXIXIXIXIXIXIXIXIXIXIXIXIXIXIXIX",
"IXIXIXIXIXIXIXIXIXIXIXIXIXIXIXIXIXIXIXIXIXIXIXIXIXIXIXIXIXIXIXIXIXKX4X$.kXHXLXIX7Xj 3 7 - l 8XKXIXKXIXIXIXIXIXIXIXIXIXIXIXIXIXIXIXIXIXIXIXIXIXIXIXIXIXIXIXIXIXIXIXIXIX",
"IXIXIXIXIXIXIXIXIXIXIXIXIXIXIXIXIXIXIXIXIXIXIXIXIXIXIXIXIXIXIXLXIXIX<Xk 7XDXIXSX@.4 } 3 - l 8XIXPXIXIXIXIXIXIXIXIXIXIXIXIXIXIXIXIXIXIXIXIXIXIXIXIXIXIXIXIXIXIXIXIXIXIX",
"IXIXIXIXIXIXIXIXIXIXIXIXIXIXIXIXIXIXIXIXIXIXIXIXIXIXIXIXIXIXIXIXIXIX8Xj / BXJX@.4 5 7 3 * / kXIXHXHXJXPXJXJXJXJXKXKXKXIXKXJXPXIXPXIXIXIXIXIXIXIXIXIXIXIXIXIXIXIXIXIXIX",
"IXIXIXIXIXIXIXIXIXIXIXIXIXIXIXIXIXIXIXIXIXIXIXIXIXIXIXIXIXIXIXIXPXIXfXl s fXfXo.3 5 5 3 & ) kXJXcXkXZXAXIXLXKXJXJXJXJXJXIXIXJXIXIXIXIXIXIXIXIXIXIXIXIXIXIXIXIXIXIXIXIX",
"IXIXIXIXIXIXIXIXIXIXIXIXIXIXIXIXIXIXIXIXIXIXIXIXIXIXIXIXIXIXIXIXJXIXfXl : &.XX| 5 5 5 4 * #.BX&Xl | | | | o.o./ o.O.@.$.$.&.XX$X$X%XZXLXIXIXIXIXIXIXKXIXIXIXIXIXIXIXIX",
"IXIXIXIXIXIXIXIXIXIXIXIXIXIXIXIXIXIXIXIXIXIXIXIXIXIXIXIXIXIXIXIXIXIX8Xl ; h ] | 5 5 5 2 * XX7Xo.3 6 5 5 3 3 2 2 4 3 4 4 9 9 9 1 ) >XHXKXIXIXIXIXIXIXIXIXIXIXIXIXIXIXIX",
"IXIXIXIXIXIXIXIXIXIXIXIXIXIXIXIXIXIXIXIXIXIXIXIXIXIXIXIXIXIXIXIXIXIXsXl ; 2 a 9 6 5 5 ; : ) o.0 6 { 6 6 6 6 6 7 7 7 3 2 ; - h O.<XAXIXIXIXIXIXIXIXIXIXIXIXIXIXIXIXIXIX",
"IXIXIXIXIXIXIXIXIXIXIXIXIXIXIXIXIXIXIXIXIXIXIXIXIXIXIXIXIXIXIXIXIXIXfXl - 6 & ; 5 5 3 ; : 1 2 { 6 3 5 5 3 3 2 2 2 2 ; : d O.3XHXIXIXIXIXIXIXIXIXIXIXIXIXIXIXIXIXIXIXIX",
"IXIXIXIXIXIXIXIXIXIXIXIXIXIXIXIXIXIXIXIXIXIXIXIXIXIXIXIXIXIXIXIXPXJXfX/ * 7 2 3 5 5 5 2 * - 6 6 3 5 5 5 2 ; ; 2 ; - : l &.cXJXJXJXIXIXIXIXIXIXIXIXIXIXIXIXIXIXIXIXIXIX",
"IXIXIXIXIXIXIXIXIXIXIXIXIXIXIXIXIXIXIXIXIXIXIXIXIXIXIXIXIXIXIXKXIXZX&.a ; 5 6 5 5 5 3 ; 2 5 5 5 5 5 3 2 2 2 ; : 1 l &.AXIXIXPXIXIXIXIXIXIXIXIXIXIXIXIXIXIXIXIXIXIXIXIX",
"IXIXIXIXIXIXIXIXIXIXIXIXIXIXIXIXIXIXIXIXIXIXIXIXIXIXIXIXIXIXIXHXIXsX^ = 4 3 5 5 5 5 3 2 5 5 5 5 5 5 5 2 2 2 : l OXkXAXIXPXJXIXIXIXIXIXIXIXIXIXIXIXIXIXIXIXIXIXIXIXIXIX",
"IXIXIXIXIXIXIXIXIXIXIXIXIXIXIXIXIXIXIXKXIXIXIXIXIXIXIXIXIXIXIXFXJX8Xl - 5 3 5 5 5 5 3 5 5 5 5 5 5 5 3 ; - & k %.<X&X&.>XBXIXIXIXIXIXIXIXIXIXIXIXIXIXIXIXIXIXIXIXIXIXIX",
"IXIXIXIXIXIXIXIXIXIXIXIXIXIXIXIXIXIXIXIXIXIXIXIXIXIXIXIXKXVXGXlXzX;Xk , , , : ; ; 3 3 5 5 5 5 5 5 5 2 ; * : l | | j 7 l 7XPXIXIXIXIXIXIXIXIXIXIXIXIXIXIXIXIXIXIXIXIXIX",
"IXIXIXIXIXIXIXIXIXIXIXIXIXIXIXIXIXIXIXIXIXIXIXIXIXHXHXIXGXaXlX@Xz.d.C G G G n n t : ; 3 3 5 5 5 5 5 5 5 5 { } 6 6 5 { 4 $.DXJXIXIXIXIXIXIXIXIXIXIXIXIXIXIXIXIXIXIXIXIX",
"IXIXIXIXIXIXIXIXIXIXIXKXIXIXKXIXIXIXIXIXIXIXIXKXKXVXjXAXKX3X#XI ;.1.u.p.y.i.5.9.>.m q - ; 3 5 5 5 { { { { { 6 { { { { } j 8XLXIXIXIXIXIXIXIXIXIXIXIXIXIXIXIXIXIXIXIXIX",
"IXIXIXIXIXIXIXIXIXIXIXIXIXKXIXIXIXIXIXIXIXIXIXPXZXjXqXdXAX#X` >.y.u.r.y.t.r.t.y.u.9.L > ; 2 3 5 5 6 6 6 5 5 5 5 3 5 5 } 2 &XAXIXKXIXIXIXIXIXIXIXIXIXIXIXIXIXIXIXIXIXIX",
"IXIXIXIXIXIXIXIXIXIXIXIXJXSXJXIXIXIXIXIXIXIXKXIXaX,XpXhX,XI J 5.t.y.r.y.y.y.y.r.r.u.i.L q ; 2 3 5 5 3 5 5 3 5 5 3 5 5 7 2 o.8XIXIXIXIXIXIXIXIXIXIXIXIXIXIXIXIXIXIXIXIX",
"IXIXIXIXIXIXIXIXIXIXIXIXSXtXuXKXIXIXIXIXIXIXIXIXhXaXhXjXqXV >.>.P 3.u.y.r.t.y.y.y.0.u.,.m ; 2 3 5 5 5 5 5 3 3 2 3 3 5 5 6 0 &XPXIXKXIXIXIXIXIXIXIXIXIXIXIXIXIXIXIXIXIX",
"IXIXIXIXIXIXIXIXIXIXIXIXJXuXm.uXFXIXKXJXPXIXLXCX,XdXLXhX_.H >.1.>.4.y.y.y.y.y.,.5.y.u.u.L = ; 2 2 3 2 ; 2 2 2 2 ; 2 3 3 { 2 o.jXIXKXIXIXIXIXIXIXIXIXIXIXIXIXIXIXIXIXIX",
"IXIXIXIXIXIXIXIXIXIXIXKXIXMXN.].uXIXIXPXPXIXIXwX7XmXPXrXd.J 2.r.y.r.y.r.r.y.r.r.y.y.t.y.>.> ; 2 2 ; 2 2 ; ; ; - - ; 2 3 5 6 9 %XIXKXIXIXIXIXIXIXIXIXIXIXIXIXIXIXIXIXIX",
"IXIXIXIXIXIXIXIXIXIXIXIXIXSXwXC.J.nXMXyXtXnX XH. XgXGXqXI -.>.r.y.r.r.r.;.r.y.y.y.y.y.y.,.q ; 2 2 2 ; ; - : q n y = - ; 3 7 ; O.AXJXIXIXIXIXIXIXIXIXIXIXIXIXIXIXIXIXIX",
"IXIXIXIXIXIXIXIXKXIXIXKXIXHXnXA.A.|.{.J.H.J.K.K.b.6XLXqXF K >.r.y.r.y.4.3.r.y.y.r.y.u.y.7.q ; 2 ; ; - > y n L 1.d.( l - ; 7 3 h <XLXIXIXIXIXIXIXIXIXIXIXIXIXIXIXIXIXIX",
"IXIXIXIXIXIXIXIXIXIXIXIXIXIXFXH.F.v.v.b.b.A.W.W.V.}.GXqXF P ;.y.y.u.r.y.y.y.y.y.u.r.u.y.,.> ; ; = , n m >.u.i.5.j.2X7Xk 1 ; 5 3 O.AXIXIXIXIXIXIXIXIXIXIXIXIXIXIXIXIXIX",
"IXIXIXIXIXIXIXIXIXIXKXHXHXHXSX^.V.v.v.x.=.c.U.W.P.].xXqXV P :.y.y.y.r.r.r.y.9.r.y.r.y.y.2.> > y m P i.i.i.y.t.1.d.qXIXlX] > 4 ; j <XIXIXIXIXIXIXIXIXIXIXIXIXIXIXIXIXIX",
"IXIXIXIXIXIXIXIXIXIXAXjXjXuX.XD.V.v.v.x.K T V.I.Y.H.tXqXF P :.y.y.,.r.y.y.t.r.T T R i.i.3.S S w.s.i.6.T 7.r.u.,.f.qXPXbXl.D d - 4 ) KXIXIXIXIXIXIXKXIXIXIXIXIXIXIXIXIX",
"IXIXIXIXIXIXIXIXIXIXKXzXqX'.b.Y.R.A.v.x.K >.T *.A.C.}.2XV K :.r.r.7.7.r.y.u.u.w.Y B N B T i.s.7.Y B Y 6.9.y.u.1.j.5XgXh.H :XkX$.= d kXHXIXIXIXIXIXIXIXIXIXIXIXIXIXIXIX",
"IXIXIXIXIXIXIXIXIXIXHXdX3X2X'.A.W.K.B.x.6.9.>.P =. ./.-XF :.>.r.y.r.y.y.7.T 7.i.i.6.B p i N N p p B 6.r.i.y.y.9.w.l.z.;.P 4XGXcX&.d O.CXIXPXIXKXIXIXIXIXIXIXIXIXIXIXIX",
"IXIXIXIXIXIXIXIXIXKXLXzX3X3XjX[.L.F.V.c.6.;.r.3.-.C e.!.F :.:.y.r.r.r.1.6.R Y B R r.y.T N 8 8 N T u.p.w.Y T 7.y.P F :.9.w.qXPXIXAX<X#.fXHXIXIXIXIXIXIXIXIXIXIXIXIXIXIX",
"IXIXIXIXIXIXIXIXIXIXDXzXpXpXlXhX{.C.F.v.*.:.7.r.r.:.U I F :.>.y.r.7.4.r.r.y.T B p N Y 7.r.T Y 9.y.6.Y B Y T y.y.K H r.1.j.lXKXIXIXIXfXzXKXIXIXIXIXIXIXIXIXIXIXIXIXIXIX",
"IXIXIXIXIXKXIXIXIXIXAXlXaX=X@X1X2X].F.B.Z 3.7.,.r.t.w.J H P >.r.r.1.r.p.a.i.u.r.Y i 8 p B T 6.T B i i B w.r.u.y.>.P y.K (.CXIXIXKXKXIXKXIXIXIXIXIXIXIXIXIXIXIXIXIXIXIX",
"IXIXIXIXIXIXIXIXKXIXKXzX*XJ V C ` ).^.c.x.6.y.,.7.u.u.2.:.J >.r.9.,.9.i.a.a.a.a.i.u.Y 8 4 7 8 7 8 p 6.u.y.y.u.y.P H y.;.*XDXIXIXIXIXIXIXIXIXIXIXIXIXIXIXIXIXIXIXIXIXIX",
"IXIXKXIXIXIXIXIXIXIXzX`.P ,.>.3.;.f.`.]. .=.5.3.3.7.u.4.>.P P y.5.>.,.y.y.u.p.a.a.u.u.w.B 8 5 i Y 0.y.y.y.r.y.9.P J 0.3.:XHXIXIXIXIXIXIXIXIXIXIXIXIXIXIXIXIXIXIXIXIXIX",
"IXIXIXKXIXIXIXIXPXPX=X:.;.4.r.,.9.9.z.;X].Z 2.y.,.,.5.r.,.P 2.r.,.2.P ,.7.9.r.r.0.u.u.r.i.6.T 7.i.u.p.a.a.a.r.5.:.P <.(.lXIXKXIXIXIXIXIXIXIXIXIXIXIXIXIXIXIXIXIXIXIXIX",
"KXIXIXIXIXIXIXIXIXZX_.>.9.y.r.r.p.1.d._.7X).d.r.1.>.;.3.3.>.:.7.7.w.w.6.K K ;.0.u.y.9.1.9.u.y.y.5.u.p.0.p.y.t.8.2.P ;.*XZXIXKXIXIXIXIXIXIXIXIXIXIXIXIXIXIXIXIXIXIXIXIX",
"KXIXIXIXIXKXIXIXvX*Xw.r.y.y.y.r.y.r.,.d._.=Xg.U r.u.7.,.,.,.:.>.,.a.n.T h.9X(.L H 3.3.9.r.3.y.u.r.1.y.f.K J M.M.P K d.lXHXIXKXIXIXIXIXIXIXIXIXIXIXIXIXIXIXIXIXIXIXIXIX",
"KXKXPXKXKXKXPXAX`.d.9.y.r.r.y.5.y.;.K P U f.f.I L 3.3.-.2.r.P >.-.a.N.X.&.ZX&XD n L 3.,.3.:.:.y.u.r.w.h.D Y ].^.x U =XPXKXIXIXIXIXIXIXIXIXIXIXIXIXIXIXIXIXIXIXIXIXIXIX",
"IXPXKXPXIXIXPXgX2.1.u.u.r.r.r.4.>.J H P :.K ,.w.F V P ,.>.:.>.,.K R N.N.+.$XO.O.D V ,.,.,.P J :.u.a.t.D o.X.].n.v _.vXKXKXIXIXIXIXIXIXIXIXIXIXIXIXIXIXIXIXIXIXIXIXIXIX",
"IXIXPXPXGXVXvX0X;.r.y.r.y.7.;.:.U `.(.U P 2.L u.F t x.L.b.F P L m n m..XX.w w D w.;.u.p.9.,.>.P ;.p.p.V X.eX{.f.+XGXIXKXIXIXIXIXIXIXIXIXIXIXIXIXIXIXIXIXIXIXIXIXIXIXIX",
"IXPXHXFXqX`.z.z.1.9.y.r.y.;.F d.*XmXhXj.V >.P 5.b M K.W.U.*.H i i N n..X.Xn.V V K r.a.a.y.r.9.,.:.,.p.a.!.eX^.`.VXPXIXIXIXKXIXIXIXIXIXIXIXIXIXIXIXIXIXIXIXIXIXIXIXIXIX",
"IXIXwXH.b.x.Z Z =.=.0.7.P L h.bXHXIXKX0XU :.:.9.c M P.E.I.V.m u N G B ^.iXeXM.1.-.>.0.0.1.r.r.i.y.r.y.p.k./.'.lXPXPXPXIXIXIXIXIXIXIXIXIXIXIXIXIXIXIXIXIXIXIXIXIXIXIXIX",
"IXKX}.L.U.F.C.B.c.c.q.,.H j.rXKXIXKXIXgXj.H :.r.F y  .C.B. .q z S m B n.eXMXiX XM.q.6.T P J H x F -.r.y.a.!.gXHXIXIXIXIXIXIXIXIXIXIXIXIXIXIXIXIXIXIXIXIXIXIXIXIXIXIXIX",
"IXIX XU.W.E.G.C.A.v.M A f ).GXIXIXKXIXCX(.V P w.r.H n i y r s f F G n V M. XeXwX/.~.'.!.T K e.'.~.e.T -.<.1.vXIXPXIXIXIXIXIXIXIXIXIXIXIXIXIXIXIXIXIXIXIXIXIXIXIXIXIXIX",
"IXMX/.Z.K.F.B.v.V.c.N d s %.AXIXIXIXIXbXz.C P 3.r.,.J b O g h s S K U g.j.n.e.k.a./..X{.7.P !..X Xq.G !.(.:.0XPXIXIXIXIXIXIXIXIXIXIXIXIXIXIXIXIXIXIXIXIXIXIXIXIXIXIXIX",
"IXtXJ.Z.K.C.B.B.B.c.N d d ] AXIXKXIXPXqXU P w.w.w.7.5.2.A g k h f H j.qXdX*XJ ;.<.M./.[.5.:.t././.6.q.[.gX:XrXDXIXIXIXIXIXIXIXIXIXIXIXIXIXIXIXIXIXIXIXIXIXIXIXIXIXIXIX",
"IXtXQ.W.E.Y.I.F.F.B.Y s g #XDXIXIXKXZX[ . c F I f.w.2.P G O d a e @ [ lXIXIX1Xj.2.:.9.q.5.3.9.8.>.=.L.[.KXIXKXHXIXIXIXIXIXIXIXKXIXIXIXIXIXIXIXIXIXIXIXIXIXIXIXIXIXIXIX",
"IXxX|.R.E.Y.G.F.F.B.Z F g.mXDXIXIXIXhX~   . . % oXl.F c c @ # + #   Q qXIXHXHXzX(.G P J J 2.2.I 6.b.T. XKXKXIXIXIXIXIXLXPXIXIXIXIXIXIXIXIXIXIXIXIXIXIXIXIXIXIXIXIXIXIX",
"IXMX|.U.E.Y.F.C.C.v.N A #XPXHXKXKXIXdX~   + % # 1XjXXXQ ' ' W % % # ~ aXIXKXKXIX8X( n =.=.T L *.S.R.Q.iXIXIXIXIXIXIXIXhXaXAXIXIXIXIXIXIXIXIXIXIXIXIXIXIXIXIXIXIXIXIXIX",
"IXMX[.A.P.C.C.B.v.c.M g %XPXPXLXHXKXlX'   . # . oXVXaX#XaX#X~ % % # ~ aXPXPXIXIXjX] M C.V.c.x.v.P.K.H.MXIXKXIXIXIXKXIXdX#XlXIXIXIXIXIXIXIXIXIXIXIXIXIXIXIXIXIXIXIXIXIX",
"IXKX{.V.K.A.A.F.C.C.M $.BXIXKXIXHXHXAX[   . #   [ jXAX3XoX#X~ % # # XXZXIXPXIXIXGX-XZ C.C.P.P.P.K.b. XFXIXIXIXIXIXIXIXhXaXaXlXGXIXIXIXIXIXIXIXIXIXIXIXIXIXIXIXIXIXIXIX",
"IXIXwXL.E.E.I.G.C.c.R @XCXIXIXKXKXHXHX,X#   % . ' aXAXOXf ( Q # . W 3XPXIXIXIXIXIX:XC x.v.G.Y.E.K.S.yXHXIXIXIXKXHXKXKXsXjXaXdXAXIXIXIXIXIXIXIXIXIXIXIXIXIXIXIXIXIXIXIX",
"IXKXgXQ.U.U.Z.v.x.x.e.j.*XgXKXIXIXIXIXZX'   # + $ XXOXg : O e O # oXCXPXKXIXLXIXmX`.<.0.=.x.b.U.T.|.FXKXIXKXIXIXIXIXIXlXdXBXhXlXIXKXJXIXIXIXIXIXIXIXIXIXIXIXIXIXIXIXIX",
"IXKXFX XH.N.Z ;.,.5.9.1.1.j.2XcXBXcXcXfX] o X X X O X - : O u , D fXIXPXIXIXPXIX*XH L :.2.r.9.x.b.wXZXAXIXIXPXVXsXdXjX3XpXZX%XXXCXIXIXIXIXIXIXIXIXIXIXIXIXIXIXIXIXIXIX",
"IXIXKXyXwX`.x ,.r.0.y.u.;.C S OX).).&.O.s & * - & X - ; = y u M X.tXIXKXIXIXAXhX_ @ O t S 1.5.C Y $.>X7XcXZXfX&.^ ( ] f oX#Xg < @XmXDXPXIXIXIXIXIXIXIXIXIXIXIXIXIXIXIX",
"IXIXIXIXLX:XV t.r.,.u.P b w > w w u u u , - & 2 & - : : * X , c.v.6XLXKXJXIX%XA @ > O t @ V ;.,.S w w r w r e & X & & X X & - * o j $XZXIXIXIXIXIXIXIXIXIXIXIXIXIXIXIX",
"IXIXKXIXSX*XV t.r.r.u.>.b w u = = X = > r X o & X X = X & *  .C.X.7XIXKXKXIX,X` z b V P F S <.;.b X * , , w , = X ; ; X = 2 : < u r &XZXIXIXIXIXIXIXIXIXIXIXIXIXIXIXIX",
"IXIXIXJX$Xf 1.5.7.5.r.3.G t t ;XpXkXjXcXkX<X' %X^ s OX5X#.> M M $.lXIXKXIXIX0Xd.F F P ,.,.F J 2.).4X<X$X&.#.D a X - ; * ; : = = > < AXJXIXIXIXIXIXIXIXIXIXIXIXIXIXIXIX",
"IXIXIXJX%Xn -.r.t.y.u.t.:.K x rXHXIXIXIXIXDXfXDX%.%.hXAXaX%.e f <XLXKXKXKXIXgXg.x F J >.4.>.x z.gXFXSXCXcXkXfXOXg d X X = = - & s OXIXKXIXIXIXIXIXIXIXIXIXIXIXIXIXIXIX",
"IXIXIXIXgX#.x ,.<.<.,.:.-.,.j.mXJXKXJXIXLXGXIXlX#XqXAXZXGXjX] ^ sXIXJXJXIXIXFX0Xd.H H H J :.C :XHXIXIXIXIXIXIXCX8X,X%.! #XXXd < %XAXIXIXIXIXIXIXIXIXIXIXIXIXIXIXIXIXIX",
"IXIXIXIXHXrXh.j.:.P K U g.:XrXIXIXIXIXHXjXaXdX#X3XlXAXCXCXCXaX#X8XAXMXnXJXIXIXIXqX(.h.g.d.z.`.gXKXIXKXIXIXJXDXKXIXKXdX,XHXHX%.%.HXPXIXIXIXIXIXIXIXIXIXIXIXIXIXIXIXIXIX",
"IXIXIXIXIXPXzX0X`.`._.`.qXIXIXKXIXIXLXlX4X5X,X#XdXCXCXCXVXCXCXvXpX4X6X{.uXSXZXCXZXjX1X1X1XgXDXIXIXIXIXKXHXzXdXzXAXjX3XNXzXHXjXaXAXIXIXIXIXIXIXIXIXIXIXIXIXIXIXIXIXIXIX",
"IXIXIXIXIXIXIXIXIXIXIXIXIXIXKXIXIXIXlX5XzXLXNXZXAXCXCXCXVXZXAXHXdX^.c.c.~.gXGXGXHXLXLXGXHXPXIXKXIXIXKXHXdX5X4X5X3XaXjXAXCXVXVXaX5XAXIXIXIXIXIXIXIXIXIXIXIXIXIXIXIXIXIX",
"IXIXKXIXIXIXIXPXKXKXKXKXKXIXIXIXIXIXzXhXZXGXCXAXCXVXZXZXHXIXIXhX~.B.B.c.6XmXIXLXPXPXPXAXCXPXIXIXIXIXLXCX3XZXHXlXaXzXAXCXZXCXAXzX5XaXLXIXIXIXIXIXIXIXIXIXIXIXIXIXIXIXIX",
"IXIXIXIXIXIXIXIXIXKXIXIXIXIXIXIXIXIXPXjX#X#XNXGXHXLXPXGXVXVX4X+.X...B ~.mXFXLXIXPXPXIXLXAXPXIXIXIXIXIXLXpXlXVXCXZXNXVXNXCXNXBXZXCXjX4XDXIXIXIXIXIXIXIXIXIXIXIXIXIXIXIX",
"IXIXIXIXIXIXIXIXIXIXIXIXIXIXIXIXIXLXIXpX( ( #X3XdXsXaX4X@X%.! f k r g OXAXLXPXPXLXLXLXHXAXKXIXIXIXIXIXIXCXaX3XCXIXLXHXGXGXHXPXIXCX5XpXHXIXIXIXIXIXIXIXIXIXIXIXIXIXIXIX",
"IXIXIXIXIXIXIXIXIXIXIXIXIXIXIXIXIXIXAXOXo s s f Q ! ! ! g < < a s O g oXCXHXLXAXAXZXZXAXGXIXIXKXIXIXKXIXKXbXsXsXjXVXZXAXZXCXNXjXsXaXAXIXIXIXIXIXIXIXIXIXIXIXIXIXIXIXIX",
"IXIXIXIXIXIXIXIXIXIXIXIXIXIXIXIXKXIXsX! o O O o o O O O O O s s s o s %.ZXLXGXZXHXHXHXKXIXIXIXIXIXIXIXIXIXIXGXjXaXhXjXhXdXdXdXaXlXZXIXIXIXIXIXIXIXIXIXIXIXIXIXIXIXIXIX",
"IXIXIXIXIXIXIXIXIXIXIXIXIXIXIXIXIXIXpX( O $ O < < e O O $ O o $ ( ! ! #XGXLXGXAXKXIXIXIXIXIXIXIXIXIXIXIXIXIXIXLXGXCXlXjXjXzXZXHXPXIXIXIXIXIXIXIXIXIXIXIXIXIXIXIXIXIXIX",
"IXIXIXIXIXIXIXIXIXIXIXIXIXIXIXIXIXIXAXsX%XoX^ ! g g g d s s o E sXIXzXAXLXIXHXAXIXIXIXIXIXIXIXIXIXIXIXIXIXIXIXIXIXIXIXIXIXIXIXIXIXIXIXIXIXIXIXIXIXIXIXIXIXIXIXIXIXIXIX",
"IXIXIXIXIXIXIXIXIXIXIXIXIXIXIXIXIXIXIXLXHXGXAXCX4X#X] E s O o ^ aXHXCXGXPXPXLXAXIXIXIXIXIXIXIXIXIXIXIXIXIXIXIXIXIXIXIXIXIXIXIXIXIXIXIXIXIXIXIXIXIXIXIXIXIXIXIXIXIXIXIX",
"IXIXIXIXIXIXIXIXIXIXIXIXIXIXIXIXIXIXIXIXIXIXIXIXIXLXHXDXAXdX>X3XZXIXAXGXIXLXHXAXIXIXIXIXIXIXIXIXIXIXIXIXIXIXIXIXIXIXIXIXIXIXIXIXIXIXIXIXIXIXIXIXIXIXIXIXIXIXIXIXIXIXIX",
"IXIXIXIXIXIXIXIXIXIXIXIXIXIXIXIXIXIXIXIXIXPXIXIXIXIXIXIXIXLXZXAXLXIXAXCXZXZXCXZXIXIXIXIXIXIXIXIXIXIXIXIXIXIXIXIXIXIXIXIXIXIXIXIXIXIXIXIXIXIXIXIXIXIXIXIXIXIXIXIXIXIXIX",
"IXIXIXIXIXIXIXIXIXIXIXIXIXIXIXIXIXIXIXIXIXIXIXIXIXIXIXPXIXIXIXIXIXIXLXHXHXHXHXKXIXIXIXIXIXIXIXIXIXIXIXIXIXIXIXIXIXIXIXIXIXIXIXIXIXIXIXIXIXIXIXIXIXIXIXIXIXIXIXIXIXIXIX",
"IXIXIXIXIXIXIXIXIXIXIXIXIXIXIXIXIXIXIXIXIXIXIXIXIXIXIXIXIXIXPXIXIXIXIXIXIXIXIXIXIXIXIXIXIXIXIXIXIXIXIXIXIXIXIXIXIXIXIXIXIXIXIXIXIXIXIXIXIXIXIXIXIXIXIXIXIXIXIXIXIXIXIX",
"IXIXIXIXIXIXIXIXIXIXIXIXIXIXIXIXIXIXIXIXIXIXIXIXIXIXIXIXIXIXIXIXIXIXIXIXIXIXIXIXIXIXIXIXIXIXIXIXIXIXIXIXIXIXIXIXIXIXIXIXIXIXIXIXIXIXIXIXIXIXIXIXIXIXIXIXIXIXIXIXIXIXIX",
"IXIXIXIXIXIXIXIXIXIXIXIXIXIXIXIXIXIXIXIXIXIXIXIXPXIXIXIXIXIXIXIXIXIXIXIXIXIXIXIXIXIXIXIXIXIXIXIXIXIXIXIXIXIXIXIXIXIXIXIXIXIXIXIXIXIXIXIXIXIXIXIXIXIXIXIXIXIXIXIXIXIXIX",
"IXIXIXIXIXIXIXIXIXIXIXIXIXIXIXIXIXIXIXIXIXIXIXIXIXIXIXIXIXIXIXIXIXIXIXIXIXIXIXIXIXIXIXIXIXIXIXIXIXIXIXIXIXIXIXIXIXIXIXIXIXIXIXIXIXIXIXIXIXIXIXIXIXIXIXIXIXIXIXIXIXIXIX",
"IXIXIXIXIXIXIXIXIXIXIXIXIXIXIXIXIXIXIXIXIXIXIXIXIXIXIXIXIXIXIXIXIXIXIXIXIXIXIXIXIXIXIXIXIXIXIXIXIXIXIXIXIXIXIXIXIXIXIXIXIXIXIXIXIXIXIXIXIXIXIXIXIXIXIXIXIXIXIXIXIXIXIX",
"IXIXIXIXIXIXIXIXIXIXIXIXIXIXIXIXIXIXIXIXIXIXIXIXIXIXIXIXIXIXIXIXIXIXIXIXIXIXIXIXIXIXIXIXIXIXIXIXIXIXIXIXIXIXIXIXIXIXIXIXIXIXIXIXIXIXIXIXIXIXIXIXIXIXIXIXIXIXIXIXIXIXIX",
"IXIXIXIXIXIXIXIXIXIXIXIXIXIXIXIXIXIXIXIXIXIXIXIXIXIXIXIXIXIXIXIXIXIXIXIXIXIXIXIXIXIXIXIXIXIXIXIXIXIXIXIXIXIXIXIXIXIXIXIXIXIXIXIXIXIXIXIXIXIXIXIXIXIXIXIXIXIXIXIXIXIXIX",
"IXIXIXIXIXIXIXIXIXIXIXIXIXIXIXIXIXIXIXIXIXIXIXIXIXIXIXIXIXIXIXIXIXIXIXJXIXIXIXIXIXIXIXIXIXIXIXIXIXIXIXIXIXIXIXIXIXIXIXIXIXIXIXIXIXIXIXIXIXIXIXIXIXIXIXIXIXIXIXIXIXIXIX",
"IXIXIXIXIXIXIXIXIXIXIXIXIXIXIXIXIXIXIXIXIXIXIXIXIXIXIXIXIXIXIXIXIXIXLXLXIXIXIXIXIXIXIXIXIXIXIXIXIXIXIXIXIXIXIXIXIXIXIXIXIXIXIXIXIXIXIXIXIXIXIXIXIXIXIXIXIXIXIXIXIXIXIX",
"IXIXIXIXIXIXIXIXIXIXIXIXIXIXIXIXIXIXIXIXIXIXIXIXIXIXIXIXIXIXIXIXIXPXPXPXIXIXIXIXIXIXIXIXIXIXIXIXIXIXIXIXIXIXIXHXKXIXIXIXIXIXIXIXIXIXIXIXIXIXIXIXIXIXIXIXIXIXIXIXIXIXIX",
"IXIXIXIXIXIXIXIXIXIXIXIXIXIXIXIXIXIXIXIXIXIXIXIXIXIXIXIXIXIXIXIXPXHXIXIXIXIXIXIXIXIXIXIXIXIXIXIXIXIXIXIXIXIXIXIXHXLXKXIXIXIXIXIXIXIXIXIXIXIXIXIXIXIXIXIXIXIXIXIXIXIXIX",
"IXIXIXIXIXIXIXIXIXIXIXIXIXIXIXIXIXIXIXIXIXIXIXIXIXIXIXIXIXIXIXHXHXIXIXIXIXIXIXIXIXIXIXIXIXIXIXIXIXIXIXIXIXIXIXIXIXHXHXIXIXIXIXIXIXIXIXIXIXIXIXIXIXIXIXIXIXIXIXIXIXIXIX"
};
