/* XPM */
static char *result[] = {
/* columns rows colors chars-per-pixel */
"83 93 255 2 ",
"   c #130E0E",
".  c #2F0E0A",
"X  c #380502",
"o  c #291717",
"O  c #381A19",
"+  c #1F201E",
"@  c #362A18",
"#  c #381E24",
"$  c #292829",
"%  c #342F2A",
"&  c #353636",
"*  c #4C0202",
"=  c #450807",
"-  c #540302",
";  c #5C0201",
":  c #550A09",
">  c #491606",
",  c #531706",
"<  c #5C0F10",
"1  c #461716",
"2  c #561816",
"3  c #630101",
"4  c #6C0101",
"5  c #6B0C0C",
"6  c #720101",
"7  c #7C0203",
"8  c #730D09",
"9  c #651717",
"0  c #731911",
"q  c #4B290C",
"w  c #582706",
"e  c #492316",
"r  c #592A14",
"t  c #493715",
"y  c #553814",
"u  c #6B300B",
"i  c #6D3714",
"p  c #511E21",
"a  c #452223",
"s  c #4A2725",
"d  c #582827",
"f  c #573229",
"g  c #4B3A30",
"h  c #5B3937",
"j  c #6B2829",
"k  c #663737",
"l  c #783737",
"z  c #324415",
"x  c #3E6C15",
"c  c #3B4F26",
"v  c #494817",
"b  c #534B18",
"n  c #49591D",
"m  c #55571E",
"M  c #6B4718",
"N  c #714B11",
"B  c #6A581B",
"V  c #466A1B",
"C  c #596F1C",
"Z  c #48751D",
"A  c #6C7319",
"S  c #4A5A25",
"D  c #565A20",
"F  c #494B33",
"G  c #6A4F30",
"H  c #4A6926",
"J  c #566B24",
"K  c #4C7324",
"L  c #4D7A28",
"P  c #577727",
"I  c #527C25",
"U  c #52762A",
"Y  c #537C2B",
"T  c #586539",
"R  c #557B33",
"E  c #597935",
"W  c #696924",
"Q  c #677928",
"!  c #717534",
"~  c #3E3A43",
"^  c #633F4E",
"/  c #51504C",
"(  c #684948",
")  c #774A49",
"_  c #6F554F",
"`  c #745657",
"'  c #5D7B41",
"]  c #6D704B",
"[  c #696869",
"{  c #75696D",
"}  c #7A797A",
"|  c #830101",
" . c #85090A",
".. c #853B3C",
"X. c #956F12",
"o. c #A57906",
"O. c #895331",
"+. c #8A6B2D",
"@. c #834849",
"#. c #884F50",
"$. c #895C5B",
"%. c #8C7353",
"&. c #8A6666",
"*. c #90706C",
"=. c #887575",
"-. c #977877",
";. c #A17B7C",
":. c #53851D",
">. c #75861C",
",. c #4D8121",
"<. c #578626",
"1. c #55822B",
"2. c #5A852C",
"3. c #5C8B2D",
"4. c #5E902D",
"5. c #598433",
"6. c #5D8D31",
"7. c #5E9231",
"8. c #698529",
"9. c #638D2D",
"0. c #77892C",
"q. c #62932E",
"w. c #66982D",
"e. c #628E32",
"r. c #658838",
"t. c #649532",
"y. c #659A33",
"u. c #699C34",
"i. c #669739",
"p. c #779631",
"a. c #6BA335",
"s. c #68A537",
"d. c #71A939",
"f. c #678746",
"g. c #6F8F4A",
"h. c #758B59",
"j. c #779658",
"k. c #7AA450",
"l. c #798E62",
"z. c #7B9566",
"x. c #888815",
"c. c #908A10",
"v. c #A88908",
"b. c #B48B04",
"n. c #B99805",
"m. c #AD9911",
"M. c #9BA919",
"N. c #B5AC0E",
"B. c #8D9033",
"V. c #A88D34",
"C. c #8EA53C",
"Z. c #B4A738",
"A. c #C39D05",
"S. c #C7A706",
"D. c #D5AB03",
"F. c #CAB608",
"G. c #D8B505",
"H. c #D1BC1D",
"J. c #E6B803",
"K. c #CBB22D",
"L. c #DCC707",
"P. c #D7CC0E",
"I. c #ECC706",
"U. c #E8D705",
"Y. c #F7D703",
"T. c #ECE204",
"R. c #F7E804",
"E. c #F9EE09",
"W. c #91974D",
"Q. c #AA9652",
"!. c #97A44C",
"~. c #ADAA50",
"^. c #83986C",
"/. c #928C76",
"(. c #879876",
"). c #A39467",
"_. c #8CA571",
"`. c #B1A969",
"'. c #C9B350",
"]. c #C7B466",
"[. c #C9BB75",
"{. c #D5C750",
"}. c #E2D55B",
"|. c #D7C871",
" X c #E5CF70",
".X c #8D8E88",
"XX c #998888",
"oX c #9B9798",
"OX c #A58888",
"+X c #AF9291",
"@X c #AA9796",
"#X c #98A885",
"$X c #9EB28A",
"%X c #9FAE91",
"&X c #A4A899",
"*X c #A7B798",
"=X c #B3B290",
"-X c #A295A0",
";X c #AAA8A6",
":X c #B6A6A5",
">X c #ADB8A7",
",X c #B5B8AA",
"<X c #B4B3B2",
"1X c #BAB5B1",
"2X c #BDBCBC",
"3X c #C7B69A",
"4X c #C0ABA3",
"5X c #C1B5AA",
"6X c #C1B3B2",
"7X c #C4BBB9",
"8X c #A4C291",
"9X c #B8C4AC",
"0X c #BEC7B7",
"qX c #D6CC95",
"wX c #E4D38D",
"eX c #D1CDB1",
"rX c #E2D9B1",
"tX c #F1E4B2",
"yX c #79B229",
"uX c #79B229",
"iX c #79B229",
"pX c #79B229",
"aX c #79B229",
"sX c #79B229",
"dX c #79B229",
"fX c #79B229",
"gX c #79B229",
"hX c #79B229",
"jX c #79B229",
"kX c #79B229",
"lX c #79B229",
"zX c #79B229",
"xX c #79B229",
"cX c #79B229",
"vX c #79B229",
"bX c #79B229",
"nX c #79B229",
"mX c #79B229",
"MX c #79B229",
"NX c #79B229",
"BX c #79B229",
"VX c #79B229",
"CX c #79B229",
"ZX c #79B229",
"AX c #79B229",
"SX c #79B229",
"DX c #79B229",
"FX c #79B229",
"GX c #79B229",
"HX c #79B229",
"JX c #79B229",
"KX c #79B229",
"LX c #79B229",
"PX c #79B229",
"IX c #79B229",
/* pixels */
"IXIXIXIXIXIXIXIXIXIXIXIXIXIXIXIXIXIXIXIXIXIXIXIXIXIXIXIXIXIXIXIXIXIXIXIXIXIXIXIXIXIXIXIXIXIXIXIXIXIXKXKXjX&.k 7XAXIXKXIXIXIXIXIXIXIXIXIXIXIXIXIXIXIXIXIXIXIXIXIXIXIXIX",
"IXIXIXIXIXIXIXIXIXIXIXIXIXIXIXIXIXIXIXIXIXIXIXIXIXIXIXIXIXIXIXIXIXIXIXIXIXIXIXIXIXIXIXIXIXIXPXIXIXKXIXZX+Xp k hXJXKXJXIXIXIXIXIXIXIXIXIXIXIXIXIXIXIXIXIXIXIXIXIXIXIXIX",
"IXIXIXIXIXIXIXIXIXIXIXIXIXIXIXIXIXIXIXIXIXIXIXIXIXIXIXIXIXIXIXIXIXIXIXIXIXIXIXIXIXIXIXIXKXIXIXIXIXIXAX:Xl : ) NXKXIXKXKXIXIXIXIXIXIXIXIXIXIXIXIXIXIXIXIXIXIXIXIXIXIXIX",
"IXIXIXIXIXIXIXIXIXIXIXIXIXIXIXIXIXIXIXIXIXIXIXIXIXIXIXIXIXIXIXIXIXIXIXIXIXIXIXIXIXIXKXZXJXIXIXIXKXKX7X@.4 : ) JXKXIXIXKXJXIXIXIXIXIXIXIXIXIXIXIXIXIXIXIXIXIXIXIXIXIXIX",
"IXIXIXIXIXIXIXIXIXIXIXIXIXIXIXIXIXIXIXIXIXIXIXIXIXIXIXIXIXIXIXIXIXIXIXIXIXIXIXIXIXIXZX6XlXIXKXIXKXjX$.9 6 < ` LXKXIXIXKXKXKXIXIXIXIXIXIXIXIXIXIXIXIXIXIXIXIXIXIXIXIXIX",
"IXIXIXIXIXIXIXIXIXIXIXIXIXIXIXIXIXIXIXIXIXIXIXIXIXIXIXIXIXIXIXIXIXIXIXIXIXIXIXIXIXIXlX&.@XJXIXKXlX;.5 4 6 < $.IXPXIXPXIXIXKXKXPXIXIXIXIXIXIXIXIXIXIXIXIXIXIXIXIXIXIXIX",
"IXIXIXIXIXIXIXIXIXIXIXIXIXIXIXIXIXIXIXIXIXIXIXIXIXIXIXIXIXIXIXIXIXIXIXIXIXIXIXIXIXKXmX$.&.sXIXZX:Xj 7 7 4 2 *.PXPXIXIXIXIXIXLXKXPXIXIXIXIXIXIXIXIXIXIXIXIXIXIXIXIXIXIX",
"IXIXIXIXIXIXIXIXIXIXIXIXIXIXIXIXIXIXIXIXIXIXIXIXIXIXIXIXIXIXIXIXIXIXIXIXIXIXIXIXIXIXBX&.d OXKX6Xj 7 7 5 3 9 -.IXJXJXJXKXKXKXJXKXKXKXPXPXPXIXPXKXPXIXIXIXIXIXIXIXIXIXIX",
"IXIXIXIXIXIXIXIXIXIXIXIXIXIXIXIXIXIXIXIXIXIXIXIXIXIXIXIXIXIXIXIXIXIXIXIXIXIXIXIXIXPXBX&.2 -.mX+X< 7 6 4 ; j OXIXHXkXNXZXJXLXPXKXJXPXPXKXKXIXIXIXPXIXIXIXIXIXIXIXIXIXIX",
"IXIXIXIXIXIXIXIXIXIXIXIXIXIXIXIXIXIXIXIXIXIXIXIXIXIXIXIXIXIXIXIXIXIXIXIXIXIXIXIXIXPXBX*.< l +XOX- 7 6 4 < j :XsX$.l ....@...@.@.@.#.$.&.*.-.-.OXOX+X7XHXIXPXPXIXIXIXIX",
"IXIXIXIXIXIXIXIXIXIXIXIXIXIXIXIXIXIXIXIXIXIXIXIXIXIXIXIXIXIXIXIXIXIXIXIXIXIXIXIXIXIXBX&.9 9 #.$.; 6 6 4 : ) @X-.8 7 6 6 4 4 3 3 ; 3 3 5 5 9 < 2 h ;.sXJXIXIXIXIXIXPXIX",
"IXIXIXIXIXIXIXIXIXIXIXIXIXIXIXIXIXIXIXIXIXIXIXIXIXIXIXIXIXIXIXIXIXIXIXIXIXIXIXIXIXIXBX&.9 4 9 p 4 6 6 4 : k &.0 | | 7 | 7 7 7 7 7 6 4 3 3 ; < ) -.sXPXIXPXIXIXIXIXIXIX",
"IXIXIXIXIXIXIXIXIXIXIXIXIXIXIXIXIXIXIXIXIXIXIXIXIXIXIXIXIXIXIXIXIXIXIXIXIXIXIXIXKXIXBX*.9 4 ; - 4 6 6 4 - : 9 7 7 6 6 4 4 4 3 3 3 3 ; ; < ) -.kXIXIXIXIXIXIXIXIXIXIXIX",
"IXIXIXIXIXIXIXIXIXIXIXIXIXIXIXIXIXIXIXIXIXIXIXIXIXIXIXIXIXIXIXIXIXIXIXIXIXIXIXIXIXKXNX-.9 4 6 3 4 6 6 3 - - 5 7 6 6 6 6 4 ; ; ; ; - : d ` 1XZXKXKXPXIXIXIXPXIXIXIXIXIX",
"IXIXIXIXIXIXIXIXIXIXIXIXIXIXIXIXIXIXIXIXIXIXIXIXIXIXIXIXIXIXIXIXIXIXIXIXIXIXIXPXIXZX6X) < 4 6 6 6 6 6 3 ; 4 7 6 6 6 6 4 ; ; 3 ; : d $.7XKXIXLXLXPXIXIXIXIXIXIXIXIXIXIX",
"IXIXIXIXIXIXIXIXIXIXIXIXIXIXIXIXIXIXIXIXIXIXIXIXIXIXIXIXIXIXIXIXIXIXIXIXIXIXIXIXKXmXOX2 : 6 6 6 6 6 6 3 3 6 6 6 6 6 6 4 3 3 ; 9 &.6XBXKXIXJXPXLXLXPXIXIXIXIXIXIXIXIXIX",
"IXIXIXIXIXIXIXIXIXIXIXIXIXIXIXIXIXIXIXIXIXIXIXIXIXIXIXIXIXIXPXIXIXIXIXIXIXIXJXJXPXbX-.5 4 4 4 6 6 6 6 4 4 6 6 6 6 6 6 3 - = s ` +X:XOX;.6XIXIXKXKXLXPXIXPXIXIXIXIXIXIX",
"IXIXIXIXIXIXIXIXIXIXIXIXIXIXIXIXIXIXIXIXIXIXIXIXIXIXIXIXIXIXIXIXIXPXIXIXIXZXNXMXbX9X{ r , , , ; ; 3 6 6 6 6 6 6 6 6 4 3 - - 9 ....l 0 9 *.KXKXIXKXKXJXIXIXIXIXIXIXIXIX",
"IXIXIXIXIXIXIXIXIXIXIXIXIXIXIXIXIXIXIXIXIXIXIXPXIXIXIXPXPXIXIXIXIXPXKXKXPXkXyX<X#Xf.2.J J J D v r q - 3 4 4 6 6 6 6 7 6 6 7  . .6 6 6 6 ..6XKXIXIXPXLXKXIXIXIXIXIXIXIX",
"IXIXIXIXIXIXIXIXIXIXIXIXIXIXIXIXIXIXIXIXIXIXIXIXIXIXIXIXIXIXIXIXKXHXxXkXZXjX;Xh.R :.7.y.a.y.y.w.3.P t , ; 4 6 6 6 7 | | | | | | |  .7 | 8 &.AXIXIXIXPXLXKXPXIXIXIXIXIX",
"IXIXIXIXIXIXIXIXIXIXIXIXIXIXIXIXIXIXIXIXIXIXIXIXIXIXIXIXIXIXIXIXHXmXpX<XhXpX(.U q.a.i.i.u.t.y.y.y.y.2.b , ; 4 4 6 7 7 7 6 6 6 6 6 4 6 7  .@.7XIXIXIXKXKXJXPXIXIXIXIXIX",
"IXIXIXIXIXIXIXIXIXIXIXIXIXIXIXIXIXIXIXIXIXFXDXPXIXIXIXIXIXIXIXLXZXuX<XuXuX(.U I t.y.y.u.y.t.t.y.y.y.a.7.b - ; 4 6 6 6 4 4 6 6 6 6 6 6 6 7 0 &.KXIXPXIXIXPXKXLXIXIXIXIX",
"IXIXIXIXIXIXIXIXIXIXIXIXIXIXIXIXIXIXIXIXKXvXqXcXIXPXIXIXPXPXIXIXSXhX2XpXiX^.P 2.Y 1.t.t.y.y.y.t.t.t.t.u.J > ; 3 6 6 6 6 6 4 4 4 4 3 4 6 7 6 ..mXPXIXKXIXIXPXJXPXIXIXIX",
"IXIXIXIXIXIXIXIXIXIXIXIXIXIXIXIXIXIXIXIXKXvX[.].cXPXPXIXPXIXIXLXgX<XjXZX,X5.K t.2.3.t.y.y.t.y.y.4.q.y.u.2.y : 3 3 3 3 3 3 3 3 3 ; 3 3 4 6 6 0 OXNXIXIXIXIXIXIXJXPXPXIX",
"IXIXIXIXIXIXIXIXIXIXIXIXIXIXIXIXIXIXIXIXIXDXqXK.[.FXIXIXLXLXLXvXeXeXZXZX#XR K t.t.t.t.y.t.t.t.y.t.u.t.y.q.b - ; ; 3 3 3 ; ; ; - - - ; 3 4 6 8 #.jXIXPXIXIXIXIXKXJXPXIX",
"IXIXIXIXIXIXIXIXIXIXIXIXIXIXIXIXIXIXIXIXPXKXtX'.K.|.vXcXrXrXqX{.K.[.HXhX(.R Y t.y.y.y.t.3.3.y.y.u.u.t.t.y.m : ; ; 3 ; ; ; - , q b e - ; 3 6 6 j +XZXIXPXIXIXPXIXPXLXPX",
"IXIXIXIXIXIXIXIXIXIXIXIXIXIXIXIXIXIXIXIXKXIXvX XG.H.].{.K.K.P.L.F.~.NXhXz.U 1.6.t.t.t.t.3.7.y.y.t.t.u.t.t.D , ; ; ; - > , b J P 5.] ) 2 - 3 6 5 @.jXIXKXIXIXIXIXIXPXJX",
"IXIXIXIXIXIXIXIXIXIXIXIXIXIXIXIXIXIXPXIXIXIXHXqXK.S.m.S.F.N.U.E.P.K.eXsXz.U 1.e.y.y.i.y.y.y.y.y.t.u.y.y.t.m * ; - , r b J e.s.a.e.$X7X-.j - 3 5 j 6XKXPXPXIXIXIXIXIXPX",
"IXIXIXIXIXIXIXIXIXIXIXIXIXIXIXIXIXIXIXJXJXJXDXwXK.b.n.N.c.x.F.R.E.P.3XdX(.U 1.q.y.y.y.t.t.y.t.t.u.t.t.u.t.m > e b U 7.s.s.u.t.t.2.#XCXFX@Xs 2 4 5 $.sXIXJXIXIXIXIXIXIX",
"IXIXIXIXIXIXIXIXIXIXIXIXIXIXIXIXIXIXJXNXfXjXqX{.S.n.n.m.8.C x.L.Y.I.'.eX(.L Y e.t.t.3.t.u.y.t.9.W Q e.s.y.J D J y.d.y.Q e.t.u.y.2.$XCXFX,X] ( : : @.7XPXIXIXIXIXIXIXIX",
"IXIXIXIXIXIXIXIXIXIXIXIXIXIXIXIXIXIXPXHXgX=XZ.G.Y.P.F.v.A L I A m.D.K.3Xz.Y <.9.y.t.6.t.u.y.y.t.Q W M M W i.d.s.Q B B Q 9.e.t.y.1.$XdX%Xf.j.uX@Xl 1 *.hXPXPXIXIXPXIXIX",
"IXIXIXIXIXIXIXIXIXIXIXIXIXIXIXIXPXIXKXVX2X<X`.K.U.T.G.v.>.<.3.1.Q x.V.Q.l.R I 9.t.t.t.t.t.8.8.y.s.u.W M i i M i i B W t.a.s.t.t.3.h.l.r.I z.NXBX6X) k :XIXKXIXIXIXIXIX",
"IXIXIXIXIXIXIXIXIXIXIXIXIXIXIXIXIXIXPXHXyX<XuXqXK.I.D.b.x.9.7.3.1.Y Q ! f.E 1.e.t.t.t.7.t.8.W W W Q y.t.W i 0 u B 9.a.w.Q Q 8.t.3.K K <.<._.SXIXJXiXXX+XBXKXIXIXIXKXIX",
"IXIXIXIXIXIXIXIXIXIXIXIXIXIXIXIXIXIXJXZXgX2XyXpXqXK.G.A.c.8.7.7.t.6.U P E Y 1.e.y.t.4.t.t.y.8.W M M B Q 9.8.W 8.u.9.! B B W 8.i.2.I 3.t.6.#XLXIXIXLXmXpXNXKXIXIXIXIXIX",
"IXIXIXIXIXIXIXIXIXIXIXIXIXIXIXIXIXPXJXMXyX&X(.(.&X`.K.D.v.8.6.6.9.y.t.Y U U 1.3.t.t.3.y.a.d.u.u.8.M 0 0 N W 8.8.W i u i W t.t.t.2.2.6.t.g.*XLXIXIXIXKXIXIXIXIXIXIXIXIX",
"IXIXIXIXPXIXIXIXIXIXIXIXIXIXIXIXIXIXJXxX#XE Z Z L f.Q.m.b.A 3.4.3.t.t.t.2.Y 1.9.y.t.3.w.a.d.d.d.s.s.8.M 0 6 4 0 7 u W t.s.y.t.u.1.I 2.4.k.pXLXLXIXIXIXIXIXIXIXIXIXIXIX",
"IXIXIXIXIXIXIXIXIXIXIXIXIXIXIXIXIXIXVX*X1.3.6.2.6.7.j.Q.m.x.8.7.6.3.y.t.3.1.Y 3.t.6.3.t.t.u.u.a.d.a.y.t.Q u 8 8 M 9.y.y.u.t.y.t.2.Y 2.6.^.NXLXIXKXIXIXIXIXIXIXIXIXIXIX",
"IXIXIXIXIXIXIXIXIXIXIXIXIXIXIXLXLXJX0X5.3.7.t.q.t.t.i.%X`.V.>.6.t.2.e.t.7.1.Y 3.t.2.1.1.e.t.t.w.w.u.y.y.y.i.8.Q w.a.s.d.d.d.u.t.1.Y 7.6.$XIXPXIXIXIXIXIXIXIXIXIXIXIXIX",
"IXIXIXIXIXIXIXIXIXIXIXIXIXIXIXLXJXdX^.6.3.y.y.t.y.y.7.z.&X@Xh.5.t.3.1.3.6.2.1.3.q.3.8.5.U I P 3.s.y.t.t.u.u.t.t.t.t.a.w.y.y.t.p.8.5.3.j.9XIXPXIXIXIXIXIXIXIXIXIXIXIXIX",
"IXIXIXIXIXIXIXIXIXIXPXPXIXLXLXVX*Xg.7.t.7.y.t.7.y.i.r.5.l.#X.Xf.3.u.t.9.9.3.2.1.3.y.C.0.! /.*X0.V P 3.9.t.e.7.y.u.9.7.g.e.P 8.C.p.<.2.$XZXIXIXIXIXIXIXIXIXIXIXIXIXIXIX",
"IXIXIXIXIXIXIXIXIXIXIXIXIXPXLXeXj.:.w.y.y.t.t.t.t.3.L Y Y f.j.r.K 2.t.1.1.6.3.1.1.u.C.V.+.4XAX;.q D 1.3.6.2.1.6.u.w.i.h.] D +.Z.8.H j.dXIXIXIXIXIXIXIXIXIXIXIXIXIXIXIX",
"IXIXIXIXIXIXIXIXIXPXFXvXxX0XdX$Xi.y.y.y.y.t.t.9.<.<.R U Y ,.<.3.K H K 3.4.4.1.1.1.Y 0.'.V.*.OX$.G D 1.3.3.1.Y Y 3.a.a.! G O.'.'.U ' 9XJXIXIXIXIXIXIXIXIXIXIXIXIXIXIXIX",
"IXIXIXIXIXIXIXIXLXDXqX'.`.r.g.p.7.w.t.y.t.6.2.Y 5.^.*Xh.I Y 2.2.I n N N.N.x.U L C N B ].'.B > M ] P w.u.u.9.3.Y 1.4.s.<.W Q. X!.l.0XJXIXIXIXIXIXIXIXIXIXIXIXIXIXIXIXIX",
"IXIXPXIXPXIXIXPXIXnX|.F.F.m.c.>.8.q.t.q.3.Y E l.*XxXVX#XE I 1.Y H m n.T.T.N.A n i u W '.wX~.C V I 3.u.d.a.t.t.6.3.3.u.a.W.`.wXW.9XVXIXPXIXIXPXIXIXIXIXIXIXIXIXIXIXIXIX",
"IXIXIXIXIXIXIXIXLXcX}.T.R.I.J.A.m.v.w.t.K ' >XJXLXIXIXxXz.K 1.1.J b b.U.Y.D.o.y u C B B.qXtX|.p.<.Y 9.y.t.4.t.y.y.7.y.y.d.!.).qXPXIXIXPXIXIXIXIXIXIXIXIXIXIXIXIXIXIXIX",
"IXIXIXIXIXIXPXIXFXqXZ.U.Y.J.J.J.D.v.m c T &XZXPXLXIXIXCX%X5.L 6.2.H N n.D.b.N @ v J N ! {.wXcXqX~.C.8.8.Y U K V x L 2.y.u.p.8XVXPXIXIXIXIXIXIXIXIXIXIXIXIXIXIXIXIXIXIX",
"IXIXIXIXIXIXIXPXnX|.S.L.G.A.A.A.n.X.d s _ pXIXIXIXLXLXSX>Xf.L 1.t.2.D y u y r s v H b n P ~.wXqX`.!.~.`.B.K 8.Q._.W.8.R 1.i.8XbXIXIXIXIXIXIXIXPXIXIXIXIXIXIXIXIXIXIXIX",
"IXIXIXIXIXIXPXIXnX{.L.Y.I.D.A.S.b.X.j d _ sXIXPXIXIXIXSX%X5.L 5.t.t.U S @ s f h g K I f.h.g.x.W.k.C.[.|.!.I e.~.wX~.9.M.M.p.z.eXPXIXPXIXIXJXJXIXIXIXIXIXIXIXIXIXIXIXIX",
"IXIXIXIXIXIXPXPXnX}.U.E.Y.Y.J.J.A.X.s t ` hXIXPXIXIXPXkXz.,.1.5.y.t.t.7.H f j k h S R 8XdX>Xg.1.:.w.~.'.C.3.9.C.'.p.>.P.T.Z._.jXIXPXIXIXPXZXpXkXJXIXIXIXIXIXIXIXIXIXIX",
"IXIXIXIXIXIXIXPXtX{.U.R.Y.J.J.J.A.A S / <XZXIXPXIXPXJX;X~ z H H L 1.3.1.U F a s s o c <XLXLXxX#Xr.5.<.w.i.7.6.9.0.8.M.T.E.|.bXIXIXIXIXIXPXVX2X<XjXJXPXIXIXIXPXIXIXIXIX",
"IXIXIXIXIXIXIXPXtX{.L.U.J.D.D.A.v.B T #XSXIXPXIXIXLXZX} $   $ c % z c c c c $ o o + + oXZXLXLXZX9X^.r.5.Y Y Y L L 0.F.R.U.|.CXPXPXIXIXIXIXHXkXgXuXmXPXIXIXIXIXIXIXIXIX",
"IXIXIXIXIXIXIXPXcX'.N.G.A.A.A.A.o.i ^ 7XIXIXIXIXPXIXVX} $ + ~ } } $ + ~ [ [ / & & & & oXZXIXLXIXIXPXfX#XE C 8.>.x.n.D.F.H.|.JXPXIXIXIXPXPXHXhXgXhXuXkXPXKXKXIXIXIXIXIX",
"IXIXIXIXIXIXPXIXvX{.G.R.Y.J.J.J.b.N =.NXIXPXIXIXIXLXVX.X$   ~ oXiX[ $ [ ;X<X} ~ $ & $ ;XJXIXIXIXIXPXHXpX^.N v.S.J.Y.R.L.K.qXPXIXIXIXPXIXIXIXHXgXMXgXsXHXIXIXIXIXIXIXIX",
"IXIXIXIXIXIXIXPXAX XP.E.Y.J.J.A.c.%.uXJXIXIXIXIXIXPXJX<X~   $ oXHX;X~ [ ;X<X} & & $ $ uXIXLXIXIXPXIXLXSX=X>.c.n.D.I.R.R.{.eXPXKXPXPXPXJXHXNX2X<XhXXX( XXNXBXJXIXIXIXIX",
"IXIXIXIXPXIXIXIXAX|.F.P.N.v.X.x.9.g.9XzXIXIXPXPXLXLXJXkX/   $ oXJXpX[ [ <XyXl.~ $ & [ MXIXIXIXIXIXIXPXFX$Xq.w.p.x.M.N.P. XAXIXIXIXKXsXOX-.=.( ` =.k * h =.+XvXKXIXIXIX",
"IXIXIXIXIXIXPXIXFXrX[.~.8.<.4.7.i.7.s._.zXKXIXPXIXIXIXgX/   $ .XHX0X/ / } } / $ + / yXLXIXIXIXLXIXPXLXfX^.:.,.2.6.w.>.x.).:X5X1X:X:X` 1 2 1 X = O : : > r _ lXJXIXPXIX",
"IXIXIXIXIXLXIXIXLXPXBX#XH 3.7.7.u.9.:.I ^.5XjXlXlXmXuX-.#   . ( oX&.= X     o + + / gXIXLXIXIXIXIXPXBX$XH @ @ v K 6.1.S y r d i r w X X * - * X - ; 1 r i &.ZXPXIXPXIX",
"IXIXIXIXIXIXIXIXPXPXbX_.L 4.y.y.t.2.m v y ( *.*.OXXX( : = = X O a 2 : = .     $ % & -XLXIXIXIXIXIXJX6X_ . X q t v K w.P t > , 2 2 2 1 = * * * - ; * = = h @XLXPXIXIXIX",
"IXIXIXIXIXIXIXIXPXBX&XD 1.t.i.y.w.2.b w w w w w u w X * * ; * X * - : y u > . $ % & [ bXIXLXIXIXPXVX/.z z n H Y H U 2.R ] -./.OX+X+XXX( O O 1 = a 2 = d XXZXIXPXIXIXIX",
"IXIXIXIXIXIXIXPXIXlXXXz 7.s.7.7.w.<.v , , > = = X X X * = ; * * 3 * X > X > O # + $ { CXIXIXIXIXPXSX#XH V Y K 6.2.H H h.eXBXNXBXZXZXBX7X@X@X=.h ;X;X( ` pXJXIXIXIXIXIX",
"IXIXIXIXIXIXIXIXPXBX@Xv 6.w.y.y.y.6.2.Z ] 1XlXjXaXaX6Xh . X X X = = ; * .   O e w N M *.hXIXIXPXPXFX9XE K L L 5.t.3.e._.VXIXIXIXIXIXIXPXJXHXhX<XNXHXuX1XNXIXLXIXIXIXIX",
"IXIXIXIXIXIXIXPXPXJX7X' Y 4.4.7.3.3.<.L j.xXIXIXIXIXNX( O X X G oX=.1 X o o o N o.D.n.+.5XIXIXIXIXLXxX(.H x K x Z K 5.9XHXPXPXIXIXKXxXNXPXNXyXMXBXBXNXgXuXVXIXIXIXIXIX",
"IXIXIXIXIXIXIXIXIXPXZXeX$Xg.Y I L Y z._.eXHXPXPXPXIXlX( O 1 _ ;XGXkX.Xh s O q o.J.E.T.X.4XIXIXLXIXIXLXzX%Xz.f.f.f._.>XbXIXPXIXIXJXhX2XyXiXuXiXVXNXVXVXkXuXuXVXJXIXPXPX",
"IXIXIXIXIXIXIXIXIXIXIXIXFX9X%X$X#X%XdXNXIXIXIXIXLXVXiX/ O / ;XZXBXZXxXXXh 1 q X.D.U.F.Q.eXIXIXIXIXPXIXIXLXfXyXeXdXZXIXIXIXIXIXJXhXyXgXgX2XiXVXVXMXNXNXNXmXpXyXNXPXIXIX",
"IXIXIXIXIXIXIXIXIXIXIXPXPXIXIXIXKXJXIXIXPXIXIXJXVXuX<X[ g .XgXMXNXbXkX0X{ s e M X.m.%.4XBXIXIXIXIXIXIXPXPXIXIXPXPXIXPXPXIXIXIXZX2XhXGXJXZXVXNXNXNXVXVXZXHXkX<XkXLXIXIX",
"IXIXIXIXIXIXIXIXIXIXIXIXIXPXPXIXIXIXPXPXIXIXPXNXuXiXVXhXpXkXGXMXVXVXVXBXuX=.} oXoX-XgXIXIXIXIXIXIXIXIXIXIXPXIXPXPXIXIXIXIXIXIXJXkXpXiXkXJXHXZXZXZXZXJXJXmX2XgXJXIXIXPX",
"IXIXIXIXIXIXIXIXIXIXIXIXIXIXIXIXIXIXIXIXIXPXLXkXpXVXGXmXMXNXMXNXNXlXxXbXVXpXyXlXFXFXKXKXPXIXIXIXIXIXIXIXIXIXIXIXIXIXIXIXIXIXIXPXJXkX<X2XkXJXJXPXHXNXkXhXiXhXJXPXIXIXIX",
"IXIXIXIXIXIXIXIXIXIXIXIXIXIXIXPXIXIXIXIXIXIXIXJXkXyXgXZXJXZXVXNXCXHXJXPXNX,X:XDXKXPXIXIXIXIXIXIXIXIXIXIXIXPXIXIXIXIXIXIXIXIXIXIXIXLXZXhXpXgXhXgXuXuXpXhXNXJXIXPXIXIXIX",
"IXIXIXIXIXIXIXIXIXIXIXIXIXIXIXIXIXIXPXIXIXIXIXPXMX-X.XhXHXIXIXIXHXGXGXMX3X`.qXKXIXKXKXIXIXIXIXIXIXIXIXIXIXIXIXIXIXIXIXIXIXIXIXIXIXPXPXJXZXNXjXjXkXNXZXJXJXIXIXIXIXIXIX",
"IXIXIXIXIXIXIXIXIXIXIXIXIXIXIXIXIXIXIXIXIXIXPXPXkX=.h &.@X1X2X7XeX3X=X).+.V.eXIXIXIXIXIXIXIXIXIXIXIXIXIXIXIXIXIXIXIXIXIXIXIXIXIXIXIXIXIXIXLXHXJXJXIXIXIXIXPXIXIXIXIXIX",
"IXIXIXIXIXIXIXIXIXIXIXIXIXIXIXIXPXIXIXIXIXIXPXPXpX( O d h ( ( _ ` +.+.N N +.eXIXIXIXIXIXIXIXIXIXIXIXIXIXIXIXIXIXIXIXIXIXIXIXIXIXIXIXIXIXIXIXIXIXIXIXIXIXIXIXIXIXIXIXIX",
"IXIXIXIXIXIXIXIXIXIXIXIXIXIXIXIXIXIXIXIXIXPXIXHX<Xs O # 1 a p s r f d f f %.eXIXKXIXIXIXIXIXIXIXIXIXIXIXIXIXIXIXIXIXIXIXIXIXIXIXIXPXIXIXIXPXIXIXPXIXIXIXIXIXIXIXIXIXIX",
"IXIXIXIXIXIXIXIXIXIXIXIXIXIXIXIXIXIXIXIXIXPXPXNX.X# # 1 a s a a a # a # o ` sXIXLXIXIXIXIXIXIXIXIXIXIXIXIXIXIXIXIXIXIXIXIXIXIXIXIXIXIXIXIXIXIXIXIXIXIXIXIXIXIXIXIXIXIX",
"IXIXIXIXIXIXIXIXIXIXIXIXIXIXIXIXIXIXIXIXIXPXPXNXXXO O O # a a a a a a 1 O { hXIXPXIXIXIXIXIXIXIXIXIXIXIXIXIXIXIXIXIXIXIXIXIXIXIXIXIXIXIXIXIXIXIXIXIXIXIXIXIXIXIXIXIXIX",
"IXIXIXIXIXIXIXIXIXIXIXIXIXIXIXIXIXIXIXIXIXIXIXJXZXhXgXuX7X2X<X;X;X@XoXXX.X<XZXIXPXIXIXIXIXIXIXIXIXIXIXIXIXIXIXIXIXIXIXIXIXIXIXIXIXIXIXIXIXIXIXIXIXIXIXIXIXIXIXIXIXIXIX",
"IXIXIXIXIXIXIXIXIXIXIXIXIXIXIXIXIXIXIXIXIXIXIXIXIXLXJXJXJXJXZXZXBXBXBXNXmXZXKXIXPXIXIXIXIXIXIXIXIXIXIXIXIXIXIXIXIXIXIXIXIXIXIXIXIXIXIXIXIXIXIXIXIXIXIXIXIXIXIXIXIXIXIX",
"IXIXIXIXIXIXIXIXIXIXIXIXIXIXIXIXIXIXIXIXIXIXIXIXIXIXIXIXIXIXIXIXIXIXIXIXIXIXIXIXIXIXIXIXIXIXIXIXIXIXIXIXIXIXIXIXIXIXIXIXIXIXIXIXIXIXIXIXIXIXIXIXIXIXIXIXIXIXIXIXIXIXIX",
"IXIXIXIXIXIXIXIXIXIXIXIXIXIXIXIXIXIXIXIXIXIXIXIXIXPXIXIXPXIXIXIXPXIXIXIXPXIXIXIXIXIXIXIXIXIXIXIXIXIXIXIXIXIXIXIXIXIXIXIXIXIXIXIXIXIXIXIXIXIXIXIXIXIXIXIXIXIXIXIXIXIXIX",
"IXIXIXIXIXIXIXIXIXIXIXIXIXIXIXIXIXIXIXIXIXPXIXIXIXIXIXIXIXIXIXIXIXIXIXIXIXIXIXIXIXIXIXIXIXIXIXIXIXIXIXIXIXIXIXIXIXIXIXIXIXIXIXIXIXIXIXIXIXIXIXIXIXIXIXIXIXIXIXIXIXIXIX",
"IXIXIXIXIXIXIXIXIXIXIXIXIXIXIXIXIXIXIXIXIXIXIXIXIXIXIXIXIXIXIXIXIXIXIXPXIXIXIXIXIXIXIXIXIXIXIXIXIXIXIXIXIXIXIXIXIXIXIXIXIXIXIXIXIXIXIXIXIXIXIXIXIXIXIXIXIXIXIXIXIXIXIX",
"IXIXIXIXIXIXIXIXIXIXIXIXIXIXIXIXIXIXIXIXIXIXIXIXIXIXIXIXIXIXIXIXIXIXIXIXIXIXIXIXIXIXIXIXIXIXIXIXIXIXIXIXIXIXIXIXIXIXIXIXIXIXIXIXIXIXIXIXIXIXIXIXIXIXIXIXIXIXIXIXIXIXIX",
"IXIXIXIXIXIXIXIXIXIXIXIXIXIXIXIXIXIXIXIXIXIXIXIXIXIXIXIXIXIXIXIXIXIXIXIXIXIXIXIXIXIXIXIXIXIXIXIXIXIXIXIXIXIXIXIXIXIXIXIXIXIXIXIXIXIXIXIXIXIXIXIXIXIXIXIXIXIXIXIXIXIXIX",
"IXIXIXIXIXIXIXIXIXIXIXIXIXIXIXIXIXIXIXIXIXIXIXIXIXIXIXIXIXIXIXIXIXIXIXIXIXIXIXIXIXIXIXIXIXIXIXIXIXIXIXIXIXIXIXIXIXIXIXIXIXIXIXIXIXIXIXIXIXIXIXIXIXIXIXIXIXIXIXIXIXIXIX",
"IXIXIXIXIXIXIXIXIXIXIXIXIXIXIXIXIXIXIXIXIXIXIXIXIXIXIXIXIXIXIXIXIXIXIXIXIXIXIXIXIXIXIXIXIXIXIXIXIXIXIXIXIXIXIXIXIXIXIXIXIXIXIXIXIXIXIXIXIXIXIXIXIXIXIXIXIXIXIXIXIXIXIX",
"IXIXIXIXIXIXIXIXIXIXIXIXIXIXIXIXIXIXIXIXIXIXIXIXIXIXIXIXIXIXIXIXIXIXIXIXIXIXIXIXIXIXIXIXIXIXIXIXIXIXIXIXIXIXIXIXIXIXIXIXIXIXIXIXIXIXIXIXIXIXIXIXIXIXIXIXIXIXIXIXIXIXIX",
"IXIXIXIXIXIXIXIXIXIXIXIXIXIXIXIXIXIXIXIXIXIXIXIXIXIXIXIXIXIXIXIXIXIXIXIXIXIXIXIXIXIXIXIXIXIXIXIXIXIXIXIXIXIXIXIXIXIXIXIXIXIXIXIXIXIXIXIXIXIXIXIXIXIXIXIXIXIXIXIXIXIXIX",
"IXIXIXIXIXIXIXIXIXIXIXIXIXIXIXIXIXIXIXIXIXIXIXIXIXIXIXIXIXIXIXIXIXIXIXIXIXIXIXIXIXIXIXIXIXIXIXIXIXIXIXIXIXIXIXIXIXIXIXIXIXIXIXIXIXIXIXIXIXIXIXIXIXIXIXIXIXIXIXIXIXIXIX",
"IXIXIXIXIXIXIXIXIXIXIXIXIXIXIXIXIXIXIXIXIXIXIXIXIXIXIXIXIXIXIXIXIXIXIXIXIXIXIXIXIXIXIXIXIXIXIXIXIXIXIXIXIXIXIXIXIXIXIXIXIXIXIXIXIXIXIXIXIXIXIXIXIXIXIXIXIXIXIXIXIXIXIX",
"IXIXIXIXIXIXIXIXIXIXIXIXIXIXIXIXIXIXIXIXIXIXIXIXIXIXIXIXIXIXIXIXIXIXIXIXIXIXIXIXIXIXIXIXIXIXIXIXIXIXIXIXIXIXIXIXIXIXIXIXIXIXIXIXIXIXIXIXIXIXIXIXIXIXIXIXIXIXIXIXIXIXIX",
"IXIXIXIXIXIXIXIXIXIXIXIXIXIXIXIXIXIXIXIXIXIXIXIXIXIXIXIXIXIXIXIXIXIXIXIXIXIXIXIXIXIXIXIXIXIXIXIXIXIXIXIXIXIXIXIXIXIXIXIXIXIXIXIXIXIXIXIXIXIXIXIXIXIXIXIXIXIXIXIXIXIXIX",
"IXIXIXIXIXIXIXIXIXIXIXIXIXIXIXIXIXIXIXIXIXIXIXIXIXIXIXIXIXIXIXIXIXIXIXIXIXIXIXIXIXIXIXIXIXIXIXIXIXIXIXIXIXIXIXIXIXIXIXIXIXIXIXIXIXIXIXIXIXIXIXIXIXIXIXIXIXIXIXIXIXIXIX",
"IXIXIXIXIXIXIXIXIXIXIXIXIXIXIXIXIXIXIXIXIXIXIXIXIXIXIXIXIXIXIXIXIXIXIXIXIXIXIXIXIXIXIXIXIXIXIXIXIXIXIXIXIXIXIXIXIXIXIXIXIXIXIXIXIXIXIXIXIXIXIXIXIXIXIXIXIXIXIXIXIXIXIX",
"IXIXIXIXIXIXIXIXIXIXIXIXIXIXIXIXIXIXIXIXIXIXIXIXIXIXIXIXIXIXIXIXIXIXIXIXIXIXIXIXIXIXIXIXIXIXIXIXIXIXIXIXIXIXIXIXIXIXIXIXIXIXIXIXIXIXIXIXIXIXIXIXIXIXIXIXIXIXIXIXIXIXIX"
};
