/* XPM */
static char *result[] = {
/* columns rows colors chars-per-pixel */
"83 93 253 2 ",
"   c #090808",
".  c #160D0C",
"X  c #191818",
"o  c #2D0D0B",
"O  c #390705",
"+  c #281616",
"@  c #381918",
"#  c #372F16",
"$  c #3F1E23",
"%  c #292828",
"&  c #3C2525",
"*  c #2F302F",
"=  c #323333",
"-  c #460604",
";  c #4C0203",
":  c #540202",
">  c #5C0201",
",  c #560C08",
"<  c #481706",
"1  c #531607",
"2  c #451A1A",
"3  c #571818",
"4  c #630201",
"5  c #6C0101",
"6  c #6A0A0A",
"7  c #720101",
"8  c #7C0202",
"9  c #730B07",
"0  c #711708",
"q  c #641818",
"w  c #731A19",
"e  c #4B2709",
"r  c #542508",
"t  c #593609",
"y  c #47231C",
"u  c #513316",
"i  c #692A08",
"p  c #643709",
"a  c #6F2115",
"s  c #6B3915",
"d  c #581F23",
"f  c #432323",
"g  c #4A2424",
"h  c #4A2827",
"j  c #572A29",
"k  c #54352C",
"l  c #593728",
"z  c #4C3636",
"x  c #583A39",
"c  c #682828",
"v  c #742829",
"b  c #643829",
"n  c #683635",
"m  c #7C3737",
"M  c #344E1B",
"N  c #54491A",
"B  c #4B5117",
"V  c #57581C",
"C  c #6A4717",
"Z  c #69581D",
"A  c #755210",
"S  c #49681C",
"D  c #50721D",
"F  c #6F7B1B",
"G  c #565823",
"H  c #524D30",
"J  c #6D4A34",
"K  c #4B6A26",
"L  c #566925",
"P  c #4D7827",
"I  c #527C25",
"U  c #537C2B",
"Y  c #587829",
"T  c #5B6738",
"R  c #587B35",
"E  c #696924",
"W  c #677928",
"Q  c #707332",
"!  c #464445",
"~  c #565352",
"^  c #694949",
"/  c #764747",
"(  c #6B5656",
")  c #715651",
"_  c #6B7551",
"`  c #6F5D63",
"'  c #6C6869",
"]  c #796A68",
"[  c #7B7575",
"{  c #840303",
"}  c #833A3B",
"|  c #835B0A",
" . c #95681B",
".. c #917011",
"X. c #8D682A",
"o. c #813F40",
"O. c #834646",
"+. c #875857",
"@. c #895D57",
"#. c #8A6D51",
"$. c #856867",
"%. c #946A69",
"&. c #986F6E",
"*. c #8B746D",
"=. c #877776",
"-. c #9A797A",
";. c #52851F",
":. c #6B841E",
">. c #77861A",
",. c #568726",
"<. c #56822C",
"1. c #5A852C",
"2. c #5C8B2D",
"3. c #5D932D",
"4. c #5A8336",
"5. c #5D8C30",
"6. c #5E9231",
"7. c #5F9536",
"8. c #68862A",
"9. c #648B2E",
"0. c #76882B",
"q. c #63932E",
"w. c #669A2D",
"e. c #648A37",
"r. c #639532",
"t. c #699737",
"y. c #659A33",
"u. c #699B34",
"i. c #769233",
"p. c #67A636",
"a. c #6BA335",
"s. c #72A839",
"d. c #688847",
"f. c #6F8F45",
"g. c #6E8A54",
"h. c #728C59",
"j. c #77965A",
"k. c #7DA446",
"l. c #7B9363",
"z. c #938B0F",
"x. c #888714",
"c. c #AA8904",
"v. c #AF910A",
"b. c #B99805",
"n. c #B4AC0B",
"m. c #8E9036",
"M. c #AA8F30",
"N. c #8EA43B",
"B. c #ABA82E",
"V. c #C59D05",
"C. c #CCA302",
"Z. c #C5AA07",
"A. c #D3A703",
"S. c #CAB607",
"D. c #D6B605",
"F. c #CDB617",
"G. c #E6B902",
"H. c #CCB331",
"J. c #D8C507",
"K. c #DDD20F",
"L. c #D9C815",
"P. c #E8C806",
"I. c #EDCD0C",
"U. c #E7D605",
"Y. c #F8D603",
"T. c #ECE307",
"R. c #F7E805",
"E. c #DCCB32",
"W. c #8E9150",
"Q. c #AC9A58",
"!. c #8DA84B",
"~. c #B0A953",
"^. c #8D8C71",
"/. c #899C76",
"(. c #89A56D",
"). c #8EA376",
"_. c #96A97B",
"`. c #B2B06C",
"'. c #C59848",
"]. c #CAB44E",
"[. c #CBB972",
"{. c #D4C650",
"}. c #D7C976",
"|. c #E4D271",
" X c #827C86",
".X c #7F8081",
"XX c #8B8888",
"oX c #988887",
"OX c #92978B",
"+X c #9B9797",
"@X c #A58989",
"#X c #AF9D91",
"$X c #A79999",
"%X c #99A988",
"&X c #9CB18C",
"*X c #A3B48C",
"=X c #B1AA92",
"-X c #A6B597",
";X c #AAA7A5",
":X c #B7A7A7",
">X c #AFB8AA",
",X c #B6B9A9",
"<X c #B4B3B2",
"1X c #BBB6B5",
"2X c #BBBBBB",
"3X c #C3B594",
"4X c #C3B1A9",
"5X c #C5B9B9",
"6X c #B8C4AB",
"7X c #BEC6B4",
"8X c #D5C885",
"9X c #D6CC95",
"0X c #E5D694",
"qX c #D4CEAC",
"wX c #C4CABA",
"eX c #E2D9B3",
"rX c #EEE2AB",
"tX c #79B229",
"yX c #79B229",
"uX c #79B229",
"iX c #79B229",
"pX c #79B229",
"aX c #79B229",
"sX c #79B229",
"dX c #79B229",
"fX c #79B229",
"gX c #79B229",
"hX c #79B229",
"jX c #79B229",
"kX c #79B229",
"lX c #79B229",
"zX c #79B229",
"xX c #79B229",
"cX c #79B229",
"vX c #79B229",
"bX c #79B229",
"nX c #79B229",
"mX c #79B229",
"MX c #79B229",
"NX c #79B229",
"BX c #79B229",
"VX c #79B229",
"CX c #79B229",
"ZX c #79B229",
"AX c #79B229",
"SX c #79B229",
"DX c #79B229",
"FX c #79B229",
"GX c #79B229",
"HX c #79B229",
"JX c #79B229",
"KX c #79B229",
"LX c #79B229",
/* pixels */
"LXLXLXLXLXLXLXLXLXLXLXLXLXLXLXLXLXLXLXLXLXLXLXLXLXLXLXLXLXLXLXLXLXLXLXLXLXLXLXLXHXLXLXLXLXLXLXLXLXLXHXLXpXoX:XmXLXLXLXLXLXLXLXLXLXLXLXLXLXLXLXLXLXLXLXLXLXLXLXLXLXLXLX",
"LXLXLXLXLXLXLXLXLXLXLXLXLXLXLXLXLXLXLXLXLXLXLXLXLXLXLXLXLXLXLXLXLXLXLXLXLXLXLXLXLXLXLXLXLXLXLXLXHXKXHXkX$.^ :XVXLXLXLXLXLXLXLXLXLXLXLXLXLXLXLXLXLXLXLXLXLXLXLXLXLXLXLX",
"LXLXLXLXLXLXLXLXLXLXLXLXLXLXLXLXLXLXLXLXLXLXLXLXLXLXLXLXLXLXLXLXLXLXLXLXLXLXLXLXLXLXLXLXLXLXLXLXLXJXLX#Xc ^ 5XGXJXLXLXLXLXLXLXLXLXLXLXLXLXLXLXLXLXLXLXLXLXLXLXLXLXLXLX",
"LXLXLXLXLXLXLXLXLXLXLXLXLXLXLXLXLXLXLXLXLXLXLXLXLXLXLXLXLXLXLXLXLXLXLXLXLXLXLXLXLXLXLXHXLXLXLXLXLXFX4Xo., O.aXJXLXLXLXLXLXLXLXLXLXLXLXLXLXLXLXLXLXLXLXLXLXLXLXLXLXLXLX",
"LXLXLXLXLXLXLXLXLXLXLXLXLXLXLXLXLXLXLXLXLXLXLXLXLXLXLXLXLXLXLXLXLXLXLXLXLXLXLXLXLXLXVXFXLXLXLXLXLXyX+.w : / gXJXKXLXLXLXLXLXLXLXLXLXLXLXLXLXLXLXLXLXLXLXLXLXLXLXLXLXLX",
"LXLXLXLXLXLXLXLXLXLXLXLXLXLXLXLXLXLXLXLXLXLXLXLXLXLXLXLXLXLXLXLXLXLXLXLXLXLXLXLXLXKX5XkXJXLXJXLXkX%.w 9 : +.gXJXLXLXLXLXLXLXLXLXLXLXLXLXLXLXLXLXLXLXLXLXLXLXLXLXLXLXLX",
"LXLXLXLXLXLXLXLXLXLXLXLXLXLXLXLXLXLXLXLXLXLXLXLXLXLXLXLXLXLXLXLXLXLXLXLXLXLXLXLXLXVX-.$XNXHXLXkX@Xv 7 6 > $.kXLXHXLXLXLXLXLXLXLXLXLXLXLXLXLXLXLXLXLXLXLXLXLXLXLXLXLXLX",
"LXLXLXLXLXLXLXLXLXLXLXLXLXLXLXLXLXLXLXLXLXLXLXLXLXLXLXLXLXLXLXLXLXLXLXLXLXLXLXLXLXVX*.%.pXJXFX:X} 9 8 5 , %.kXHXLXLXLXLXLXLXLXLXLXLXLXLXLXLXLXLXLXLXLXLXLXLXLXLXLXLXLX",
"LXLXLXLXLXLXLXLXLXLXLXLXLXLXLXLXLXLXLXLXLXLXLXLXLXLXLXLXLXLXLXLXLXLXLXLXLXLXLXLXLXAX%.3 @XNX5X} 6 8 7 4 q -.nXKXFXFXKXKXKXHXHXHXHXLXJXLXJXLXLXKXLXLXLXLXLXLXLXLXLXLXLX",
"LXLXLXLXLXLXLXLXLXLXLXLXLXLXLXLXLXLXLXLXLXLXLXLXLXLXLXLXLXLXLXLXLXLXLXLXLXLXLXLXLXFX%.3 &.gX#Xc 9 8 5 4 q @XmXSXkXbXNXFXKXHXJXHXHXJXJXHXLXJXJXLXHXHXLXLXLXLXLXLXLXLXLX",
"LXLXLXLXLXLXLXLXLXLXLXLXLXLXLXLXLXLXLXLXLXLXLXLXLXLXLXLXLXLXLXLXLXLXLXLXLXLXLXLXLXFX-.q v @X@Xc 6 7 5 > c :XyX%.m } } } O.O.O.O.+.+.$.%.&.-.@X@X@X5XNXLXLXLXLXLXLXLXLX",
"LXLXLXLXLXLXLXLXLXLXLXLXLXLXLXLXLXLXLXLXLXLXLXLXLXLXLXLXLXLXLXLXLXLXLXLXLXLXLXLXLXFXoXq q / +.w 7 7 5 : o.$X-.w 7 7 7 5 5 5 4 5 4 4 6 6 6 q 3 j -.pXFXKXLXLXLXLXLXLXLX",
"LXLXLXLXLXLXLXLXLXLXLXLXLXLXLXLXLXLXLXLXLXLXLXLXLXLXLXLXLXLXLXLXLXLXLXLXLXLXLXLXLXFX-.c 6 q 3 6 7 7 5 : n $.v { { { 8 8 8 8 8 7 9 7 5 4 , , / %.yXFXLXLXLXLXLXLXLXLXLX",
"LXLXLXLXLXLXLXLXLXLXLXLXLXLXLXLXLXLXLXLXLXLXLXLXLXLXLXLXLXLXLXLXLXLXLXLXLXLXLXKXLXFX-.w 5 > : 5 7 7 5 : 3 q 9 { 7 7 5 5 4 4 4 5 4 > : 3 n -.fXKXLXLXLXLXLXLXLXLXLXLXLX",
"LXLXLXLXLXLXLXLXLXLXLXLXLXLXLXLXLXLXLXLXLXLXLXLXLXLXLXLXLXLXLXLXLXLXLXLXLXLXLXLXLXVX-.w 6 5 5 5 7 7 5 : ; 5 8 8 7 7 7 5 4 > > > > , 3 +.4XNXKXKXLXLXLXLXLXLXLXLXLXLXLX",
"LXLXLXLXLXLXLXLXLXLXLXLXLXLXLXLXLXLXLXLXLXLXLXLXLXLXLXLXLXLXLXLXLXLXLXLXLXLXLXLXVX1X/ 3 4 7 7 7 7 7 4 > 5 7 7 7 7 7 5 4 > 4 , , q ) 4XVXLXLXKXLXLXLXLXLXLXLXLXLXLXLXLX",
"LXLXLXLXLXLXLXLXLXLXLXLXLXLXLXLXLXLXLXLXLXLXLXLXLXLXLXLXLXLXLXLXLXLXLXLXLXLXLXLXnXoXc > 5 7 7 7 7 7 4 5 5 7 7 7 7 7 5 4 4 , q +.4XkXFXLXJXLXLXLXLXLXLXLXLXLXLXLXLXLXLX",
"LXLXLXLXLXLXLXLXLXLXLXLXLXLXLXLXLXLXLXLXLXLXLXLXLXLXLXLXLXLXLXLXLXLXLXLXLXJXFXJXnX@Xc 4 5 5 5 7 7 7 5 7 7 7 7 7 7 7 4 : ; 3 ) @X:X@X&.4XVXLXLXLXLXLXLXLXLXLXLXLXLXLXLX",
"KXLXLXLXLXLXLXLXLXLXLXLXLXLXLXLXLXLXLXLXLXLXLXLXLXLXLXLXLXLXLXLXLXLXLXLXFXnXmXnX5X*.s 1 1 1 > > > 5 7 7 7 7 7 7 7 5 4 : ; c m } m v q %.kXJXLXLXLXLXLXLXLXLXLXLXLXLXLX",
"JXKXHXLXLXLXLXLXLXLXLXLXLXLXLXLXLXLXLXLXLXLXLXLXLXLXLXLXLXLXLXLXKXFXKXKXnXtX<X%Xg.1.Y L L G B u r , 4 5 5 7 7 7 7 7 7 7 8 { { 7 5 8 5 m :XVXLXLXLXLXLXLXLXLXLXLXLXLXLX",
"KXKXKXHXLXLXLXLXLXLXLXLXLXLXLXLXLXLXLXLXLXLXLXLXLXLXLXLXLXLXLXKXFXlXhXNXhX;Xh.R ,.3.w.p.y.y.y.5.Y u 1 , 4 5 7 7 8 { { { { { 8 8 8 8 { 8 +.kXLXLXLXLXLXLXLXLXLXLXLXLXLX",
"LXLXKXKXLXLXLXLXLXLXLXLXLXLXLXLXLXLXLXLXLXLXLXLXLXLXLXLXLXLXLXDXhXfX1XfXiX/.R 5.a.u.r.r.u.r.y.u.y.2.B 1 > 5 7 7 8 8 8 7 7 7 7 7 7 5 8 7 } 5XFXHXLXLXLXLXLXLXLXLXLXLXLX",
"LXLXLXJXKXLXLXLXLXLXLXLXLXLXLXLXLXLXLXHXHXZXZXLXLXLXLXLXLXLXLXNXtX<X2XtXOXR <.r.r.y.y.r.r.y.y.r.y.u.r.N , > 5 5 7 7 7 5 7 7 7 7 5 7 7 8 9 %.gXGXKXLXLXLXLXLXLXLXLXLXLX",
"LXLXLXKXKXKXKXLXLXLXLXLXLXLXLXLXLXLXLXHXzXqXjXHXHXLXHXLXLXLXLXDXfXtXiXuX/.R <.<.1.6.y.y.y.y.r.t.r.r.p.L e > 4 5 7 7 7 7 5 5 5 5 5 5 7 8 7 } pXGXLXLXLXLXLXLXLXLXLXLXLX",
"LXLXLXLXLXJXKXLXLXLXLXLXLXLXLXLXLXLXLXHXBX[.[.pXGXLXHXLXLXLXFXfX2XfXNX,Xd.P 5.5.1.y.y.y.y.y.r.r.6.r.u.5.N , 4 4 4 4 4 > 4 4 > > 4 4 5 7 7 w -.kXKXKXLXLXLXLXLXLXLXLXLX",
"LXLXLXLXLXHXJXKXKXLXLXLXLXLXLXLXLXLXLXLXGX0XH.[.xXHXHXLXLXLXxXqXwXbXNX&XR U 5.r.r.r.y.q.y.y.y.r.r.r.y.9.N 1 > > > 4 > 4 > > : : : > 4 7 7 5 O.pXLXLXLXLXLXLXLXLXLXLXLX",
"LXLXLXLXLXLXLXJXKXHXLXLXLXLXLXLXLXLXLXLXLXjX].H.}.cXzXeXqX9X{.H.}.xXgX).R <.5.y.y.y.y.1.2.y.y.r.y.y.y.u.V 1 > 4 4 > > : : 1 r u r , : 4 7 5 v @XnXLXLXLXLXLXLXLXLXLXLX",
"LXLXLXLXLXLXLXLXKXJXLXLXKXLXLXLXLXLXLXHXJXBX}.L.L.].{.H.H.L.L.S.].dXfX/.R U 5.r.y.r.y.5.9.y.y.y.y.y.y.a.L 1 > : > : , r u L <.<._ ) d : 4 7 9 / pXLXHXLXLXLXLXLXLXLXLX",
"LXLXLXLXLXLXLXLXLXKXJXHXLXLXLXLXLXLXLXLXLXCX0XH.Z.v.S.n.Z.U.R.U.H.qXdX(.<.<.2.r.y.r.y.y.y.w.y.y.y.y.y.y.G < : : 1 e N L 2.a.a.,.&X,X-.n , 4 6 w :XGXHXLXLXLXLXLXLXLXLX",
"LXLXLXLXLXLXLXLXLXHXKXJXHXLXLXLXLXLXJXJXFXZXqXH.v.b.n.x.x.S.T.R.I.[.uX).R U 2.y.y.y.y.r.r.t.q.t.y.r.r.r.G e e N L 2.a.a.a.u.q.2.).lXLX;Xn 3 5 4 +.5XKXHXLXLXLXLXLXLXLX",
"LXLXLXLXLXLXLXLXLXLXLXJXKXLXLXLXLXKXnXiXdX0X{.F.b.b.n.F D x.D.Y.I.].qX).R <.5.y.r.5.6.y.u.r.8.W E 9.p.7.Y G Y y.p.u.W e.r.u.q.2.(.lXLX,X_ ^ 3 : } 4XFXHXLXLXLXLXLXLXLX",
"LXLXLXLXLXLXLXLXLXLXLXLXKXKXLXLXLXHXFXfX:X~.J.U.K.D.c.F ,.U :.v.D.].=X^.R <.2.r.r.2.r.y.u.u.w.W E Z C E 9.p.p.8.Z Z W 9.r.t.y.,._.sX-Xd.j.7X$X/ 3 $.aXHXKXLXLXLXLXLXLX",
"LXLXLXLXLXLXLXLXLXLXLXLXLXKXKXKXLXJXmXtX>X=XH.K.Y.D.c.F 1.5.<.Y x.M.~.^.R <.2.r.r.y.y.r.8.W r.p.r.E C s s C C s A E 9.a.a.y.q.,.g.l.d.D j.lXmX5X) b :XVXHXLXLXLXLXLXLX",
"LXLXLXLXLXLXLXLXLXLXLXLXLXLXKXHXLXJXSXtX<X2X9X{.P.D.V.z.9.q.q.<.I W Q _ R <.2.r.r.r.q.q.8.E E E 8.r.w.E s 0 a Z 9.u.y.8.W 8.y.2.P P ,.,.(.cXLXLXaX@X$XkXJXLXLXLXLXLXLX",
"LXLXLXLXLXLXLXLXLXLXLXLXLXLXKXKXJXFXNXiX1XtXfX9XH.D.C.z.>.3.q.r.2.U Y R R <.6.r.r.6.q.r.u.9.E C C Z E 9.W E 8.w.9.W Z Z E 8.r.1.<.,.6.5._.cXKXLXLXnXpXkXKXLXLXLXLXLXLX",
"LXLXLXLXLXLXLXLXLXLXLXLXHXLXLXLXKXDXnXiX<X%X$X-X`.H.A.c.8.6.2.9.w.9.<.U Y <.2.r.r.2.r.p.a.a.u.8.Z a 0 C E 8.8.E C a s E 9.y.y.2.<.1.2.r.-XMXLXLXLXLXHXLXLXLXLXLXLXLXLX",
"LXLXLXLXLXLXLXLXLXLXLXLXLXLXLXLXLXHXNX6Xh.P S P h.W.B.b.F ,.q.2.r.y.r.<.P U 1.y.6.2.u.s.s.s.s.p.s.8.C 0 9 9 9 9 i Z 9.p.y.r.y.1.U 2.,.j.7XFXLXLXLXLXLXLXLXLXLXLXLXLXLX",
"LXLXLXLXLXLXLXLXLXLXLXLXLXLXLXLXLXJX7Xd.<.5.2.2.e.^.Q.H.x.8.q.2.6.y.y.2.U <.5.r.5.5.6.y.a.u.a.s.s.u.r.W s 0 0 C W r.y.y.y.y.y.1.P 5.;.(.dXKXKXLXLXLXLXLXLXLXLXLXLXLXLX",
"LXLXLXLXLXLXLXLXLXHXLXLXLXLXLXLXLXdXl.2.2.3.6.r.3.t.).#XM.F 6.2.1.5.r.6.<.<.5.6.1.,.<.2.6.r.y.w.t.y.y.u.q.8.W q.u.a.s.s.s.u.y.2.<.7.2.*XCXHXLXLXLXLXHXLXLXLXLXLXLXLXLX",
"LXLXLXLXLXLXLXLXLXLXLXLXLXLXHXLXLXwXf.,.9.6.6.y.y.9.l.=X=Xh.e.7.9.1.5.6.1.<.<.5.e.9.<.I I I ,.a.y.q.q.y.y.w.y.r.y.u.w.y.y.u.t.8.1.,.f.6XAXLXLXLXLXLXLXLXLXLXLXLXLXLXLX",
"LXLXLXLXLXLXLXLXLXLXLXLXLXLXHXMX>Xj.5.r.r.q.6.r.6.6.4.h.%XXXd.5.y.r.9.2.2.2.<.2.r.N.i.E ^.*Xg.L U 5.5.r.q.q.y.u.q.r.t.e.I i.N.0.,.U %XlXLXLXLXLXLXLXLXLXLXLXLXLXLXLXLX",
"LXLXLXLXLXLXLXLXLXLXLXHXHXLXHX6Xf.,.y.y.y.r.6.r.2.<.I U 4.j.d.P ,.6.4.<.5.5.<.<.y.N.Q.X.4XkX^.b V U 2.2.,.Y 9.y.y.e.d._ G X.~.0.P l.wXHXLXLXLXLXLXLXLXLXLXLXLXLXLXLXLX",
"LXLXLXLXLXLXLXLXLXLXLXHXLXLXcX_.y.y.u.y.y.r.q.,.P P P U <.,.2.P K D 1.2.2.1.<.<.R 0.'.M.&.Q.%.J N Y 6.2.<.U U 5.a.a.e.J X.'.~.8.R ,XNXLXLXLXLXLXLXLXLXLXLXLXLXLXLXLXLX",
"LXLXLXLXLXLXLXLXLXHXAXmXdXdX-X(.u.y.r.y.r.5.<.U g.).h.R U <.5.U B Z n.n.x.Y U L C Z ].].A r b Q R 9.u.y.r.1.1.U 6.a.1.E Q.}.~.j.6XCXLXLXLXLXLXLXLXLXLXLXLXLXLXLXLXLXLX",
"LXLXLXLXLXLXLXLXLXZXjXqX(.j.j.e.7.w.y.r.5.U R h.6XlX%X4.P <.4.K V c.U.T.n.F G s p V ~.0X~.F S P 2.t.s.a.y.r.6.2.9.u.a.t.`.}.Q.-XnXHXLXLXLXLXLXLXLXLXLXLXLXLXLXLXLXLXLX",
"LXLXLXLXLXLXLXHXKXeX{.S.n.c.z.x.>.0.t.2.P d.>XNXKXLXlX).P <.2.K V c.U.Y.G.z.p t Z V m.}.rX}.N.5.<.5.y.r.6.q.q.r.r.y.u.s.W.Q.9XCXHXLXLXLXLXLXLXLXLXLXLXLXLXLXLXLXLXLXLX",
"LXLXLXLXLXHXLXHXFXeXE.T.U.P.A.V.b.z.w.I T -XMXKXKXLXSX-X4.P ,.2.G C c.A.c.A # B D C E ~.rXrX0X].N.q.8.Y Y P S S P ,.y.w.s.*XlXJXLXLXLXLXLXLXLXLXLXLXLXLXLXLXLXLXLXLXLX",
"LXLXLXLXLXLXLXLXAXeXE.R.R.P.G.G.D...N k ~ wXLXHXJXLXSX6Xg.P <.6.2.G N p i d y B S N S D ~.}.9X`.Q.Q.~.W.I Y !._.W.0.Y I q.&XlXLXLXLXLXLXLXLXLXLXLXLXLXLXLXLXLXLXLXLXLX",
"LXLXLXLXLXLXLXHXBX}.F.D.D.C.b.V.b...c j ^ 5XKXHXLXLXCX-Xd.P P 2.r.<.K = g j j k L P d.h.f.i.i.k.N.{.}.~.<.9.~.8X~.0.,.0.t.(.wXZXKXLXLXLXLXLXLXLXLXLXLXLXLXLXLXLXLXLXLX",
"LXLXLXLXLXLXLXLXzX}.F.L.D.Z.C.V.c...b g x 1XKXKXLXLXcX/.U <.4.6.2.3.w.L l n n x H P -XsX,Xl.4.,.3.!.~.!.6.5.!.].m.8.n.].*X6XsXAXLXLXLXLXLXLXLXLXLXLXLXLXLXLXLXLXLXLXLX",
"LXLXLXLXLXLXLXLXzX|.K.R.Y.Y.G.G.C...N k ] aXKXLXLXKX<X~ M M P 4.e.<.4.P B h h h # % ;XFXLXcX*Xg.U 8.w.i.7.6.q.i.9.n.K.|.BXLXHXLXLXLXLXLXLXLXLXLXLXLXLXLXLXLXLXLXLXLXLX",
"LXLXLXLXLXLXHXHXBX|.K.R.Y.Y.G.G.Z...D g.uXJXLXKXLXCXXX*     * ' _ K M B M % + % X X OXnXHXHXCX7Xl.R P I U <.P P x.K.K.8XBXHXHXLXLXLXLXLXLXLXLXLXLXLXLXLXLXLXLXLXLXLXLX",
"LXLXLXLXLXLXHXLXZX|.E.Y.I.G.A.A.V.| l ^.gXKXHXLXKXNXXX= X X = .X2X X~ ` ' ~ = = * % OXmXKXLXLXHXvX=.V E :.:.F >.J.U.E.rXZXHXLXLXLXLXLXLXKXLXLXLXLXLXLXLXLXLXLXLXLXLXLX",
"LXLXLXLXLXLXHXLXZX8XF.J.D.C.b.V.b.| l oXkXKXLXKXLXNXXX= X % = [ iXtX+X;X<X.X! = % % ;XFXLXLXHXLXNXoXX.v.b.b.b.V.S.J.H.0XHXLXLXLXLXLXLXLXKXFXLXLXLXLXLXLXLXLXLXLXLXLXJX",
"LXLXLXLXLXLXKXHXHX9XF.D.P.P.G.G.Z...@.wXJXKXLXLXLXKX7X~ X   X ~ 2XbX2X+X<X.X! * % % +XCXKXLXLXHXFX,Xm.c.A.G.Y.Y.U.S.}.jXHXLXLXLXLXLXLXDXfXyXSXLXLXLXLXLXLXLXLXLXLXKXKX",
"LXLXLXLXLXLXHXLXLXeX{.R.R.Y.G.A.b...^.fXLXLXHXHXKXKXvX'     X ! <XbX<X' [ ' ! % % X ~ 2XFXHXGXKXKX6Xe.>.z.Z.P.R.R.F.0XZXHXHXLXLXLXLXLXNXiX2XfXFXHXLXLXLXLXLXLXLXKXKXKX",
"LXLXLXLXLXLXLXLXLXxX{.L.J.F.z.x.>.t.f._.6XCXLXLXLXLXnX' X . X & [ +X] 3 j ! h X X % % ~ 7XJXLXLXMX%X7.3.w.>.v.S.U.H.eXLXLXLXLXLXKXLXLXnXiXiXtXnXKXLXLXLXLXLXLXKXKXHXLX",
"LXLXLXLXLXLXLXLXHXBX8X].M.8.<.r.7.y.3.,.f.*XgXkXhXnXtX( o o O O @ g , ; - < o . X * % X ' ;XpXwX*XT S P 5.6.5.0.B.8XBXLXLXHXHXLXLXLXLXgXiXnXfXfXFXLXHXLXLXLXKXKXLXLXLX",
"LXLXLXLXLXLXLXHXLXZXzXjX_.R ,.r.r.r.r.1.S L $.^.-.oX$.h - - ; ; O - : 3 r r O     X * * % C #.@.H @ o e B Y q.e.%XqXmXVXKXLXLXKXSXFXLXhXiXmXvXiXNXLXLXLXLXJXFXKXLXHXLX",
"LXLXLXLXLXLXLXLXLXLXLXFX%X4.3.r.r.r.8.B e e r r p i i e , ; : ; ; 4 , - - j ) ~ X   + % u ..D.z.N # # u M B Y 2.T u n $.#XgXkX:X=.$X1X;X1XvXtXOXiXFXKXLXKXFXGXLXLXLXLX",
"LXLXLXLXLXLXLXLXLXLXJXgX^.<.6.y.y.y.q.V r i 1 - O - < < - O ; ; - - O ; - ^ 5X2X!     . A C.R.D...B S <.K S <.2.B t r i b J b c 3 3 g 2 ` oX( j $XDXLXKXKXLXLXLXLXLXLX",
"LXLXLXLXLXLXLXLXJXLXMX$XG U y.r.e.y.6.K B H ^.wXpXaX;Xz . o t i y ] $X^ l :XNXLXiX' f @ A C.Y.G...S P 3.<.K U U Q ^ j 1 1 r 1 ; - ; ; O O < > ; j $.4XnXKXKXLXLXLXLXLX",
"LXLXLXLXLXLXLXLXLXLXVX:XT P r.t.u.u.y.2.D Y -XAXLXJX$Xz o t c.b.W.yXnX:X+XfXKXLXmX+XH @ p c.A...B S P <.5.I P g.,XuX4X:X^.) b < O : ; - : > , < 1 b $XmXLXLXLXLXLXLXLX",
"LXLXLXLXLXLXLXLXLXHXHXkX=.L ,.,.,.,.<.,.,.(.sXAXLXkX] f < | A.].qXnXNXmXfXfXmXKXFX5Xx o @ t C C T P S K U I 4.*XNXLXLXLXVXaX:X^ o - - - : ; - e < n :XFXKXLXLXLXLXLXLX",
"LXLXLXLXLXLXLXLXLXLXLXKXwX%X(.e.Y R R j.&XdXAXKXLXfX( z ( X.M.`.fXkXnXmXkXtXtXbXSX1Xz X % o @ ^ +X%X/.g.g.j.*XlXKXLXLXLXLXLXLX5XoX] j d j 2 ; - k @XkXLXKXLXLXLXLXLXLX",
"LXLXLXLXLXLXLXLXLXLXLXLXHXHXsX*X%X%X-XsXAXLXKXLXAX<X' XX>X#X#XuXnXnXnXnXmXvXiXiXiX+Xx y h j g ( <XmXnXqX6XsXMXKXLXLXLXLXLXFXFXLXLXfX=.[ oX) 2 j oXgXKXLXLXLXLXLXLXLXLX",
"LXLXLXLXLXLXLXLXLXLXLXLXLXHXLXLXLXLXLXLXLXKXLXLXpXXX$XnXFXbXbXmXnXnXnXnXnXAXmXgX<XXXx h j j j x =.3XeX3X9XzXHXLXLXDXSXbXfXtXiXnXNXfXiXNXLXyX=.$XNXLXKXLXLXLXLXLXLXLXLX",
"LXLXLXLXLXLXLXLXLXLXLXLXLXLXHXKXHXHXHXKXKXJXLXNX;X( ;XbXmXnXmXlXcXnXcXVXKXJXiXtXfX+Xx g h g g j J ..b.v.v.[.xXMXmXmXbXiX2X<X<X<X2XtXfXhXbXfXiXkXKXHXLXLXLXLXLXLXLXLXLX",
"LXLXLXLXLXLXLXLXLXLXLXLXLXLXLXLXLXLXLXLXLXKXKX5X^ g ^ -.1XhXGXHXFXGXGXNXnXiXuXnXgX] n n n j n  .V.V.A.C.c.].jXNXDXJXNXfXvXSXvX2XtXbXmXnXnXnXfXtXmXLXLXLXLXLXLXLXLXLXLX",
"LXLXLXLXLXLXLXLXLXLXLXLXLXLXLXLXLXLXLXLXLXKXkXoXx c x ^ ] ;XsXgXvXgXuX1XtXfXnXFXwX) j n n n m X.V.C.b...W.3XkXJXJXLXSXhXvXmXbXfXhXnXmXnXmXmXhX2XiXFXLXLXLXLXLXLXLXLXLX",
"LXLXLXLXLXLXLXLXLXLXLXLXLXLXLXLXLXLXLXLXLXKXfX] j n n n n J M.~.Q.W.W.=XdXVXKXNX$Xx g j j j j b | A C d ) 5XVXJXJXLXJXmXiXfXmXmXnXnXkXbXnXnXnXlXiXfXmXLXLXLXLXLXLXLXLX",
"LXLXLXLXLXLXLXLXLXLXLXLXLXLXLXLXLXLXLXKXLXFX<X^ $ g j k c c A ..| s A 4XZXKXLXkX=.z f f h j h h h j h $ x $XNXLXJXJXJXSXfXtXiXhXNXFXFXFXSXFXJXmXiXiXmXKXLXLXLXLXLXLXLX",
"LXLXLXLXLXLXLXLXLXLXLXLXLXLXLXLXLXLXLXKXLXkX=.& @ 2 y & g h j l j j n :XmXHXKXfX( @ o @ @ 2 @ 2 $ 2 $ o & XXkXJXKXJXNXNXmXfX2XiXhXmXbXmXmXNXbXiXtXhXHXLXLXLXLXLXLXLXLX",
"LXLXLXLXLXLXLXLXLXLXLXLXLXLXLXLXLXLXLXLXLXgX[ 2 $ f f g g f f f $ @ & XXhXFXLXgX] z z z x x x x x x x z ^ +XmXLXLXFXNXFXLXLXKXhXtX<X;X<X2X2X2XfXDXLXLXLXLXLXLXLXLXLXLX",
"LXLXLXLXLXLXLXLXLXLXLXLXLXLXLXLXLXLXLXKXLXhXXXz & & $ f $ $ f g f @ & oXhXKXLXNXyX<X:X1XwXyXtXyXtXyXyXyXyXgXSXKXJXJXNXFXLXLXLXKXKXJXKXDXFXKXKXJXKXLXLXLXLXLXLXLXLXLXLX",
"LXLXLXLXLXLXLXLXLXLXLXLXLXLXLXLXLXLXLXLXLXLXFXFXNXNXMXkXfXyX1X:X$XoX+XyXFXKXLXLXLXLXLXLXLXLXLXLXLXLXLXLXLXVXDXJXJXJXSXDXKXLXLXLXLXLXKXFXFXDXFXLXLXLXLXLXLXLXLXLXLXLXLX",
"LXLXLXLXLXLXLXLXLXLXLXLXLXLXLXLXLXLXLXLXLXLXLXLXLXLXLXKXKXFXVXNXmXnXnXFXJXLXLXLXLXLXLXLXHXLXLXLXLXLXLXLXGXVXSXKXLXLXDXFXKXLXLXLXLXFXmXmXNXNXmXFXLXLXLXLXLXLXLXLXLXLXLX",
"LXLXLXLXLXLXLXLXLXLXLXLXLXLXLXLXLXLXLXLXLXLXLXLXLXLXLXLXLXLXLXLXLXLXLXLXLXLXLXLXLXLXLXLXLXLXLXLXLXLXLXLXLXFXmXnXmXmXnXFXLXLXLXLXLXDXSXJXJXJXSXNXJXLXLXLXLXLXLXLXLXLXLX",
"LXLXLXLXLXLXLXLXLXLXLXLXLXLXLXLXLXLXLXLXLXLXLXLXLXLXLXLXLXLXLXLXLXKXKXLXLXLXLXLXLXLXLXLXLXLXLXLXLXLXLXLXLXLXGXFXDXFXDXKXLXLXLXLXLXFXNXJXLXLXDXSXKXLXLXLXLXLXLXLXLXLXLX",
"LXLXLXLXLXLXLXLXLXLXLXLXLXLXLXLXLXLXLXLXLXLXLXLXLXLXLXLXLXLXLXLXLXLXLXLXLXLXLXLXLXLXLXLXLXLXLXLXLXLXJXLXLXLXLXLXLXLXLXLXLXLXLXLXLXFXNXFXJXJXFXSXKXLXLXLXLXLXLXLXLXLXLX",
"LXLXLXLXLXLXLXLXLXLXLXLXLXLXLXLXLXLXLXLXLXLXLXLXLXLXLXLXLXLXLXLXLXLXLXLXLXLXLXLXLXLXLXLXLXLXLXLXLXLXLXLXLXLXLXLXKXLXLXLXLXLXLXLXLXFXSXFXJXLXFXNXKXLXLXLXLXLXLXLXLXLXLX",
"LXLXLXLXLXLXLXLXLXLXLXLXLXLXLXLXLXLXLXLXLXLXLXLXLXLXLXLXLXLXLXLXLXLXLXLXLXLXLXLXLXLXLXLXLXLXLXLXLXLXLXLXLXLXLXLXLXLXLXLXLXKXDXFXDXSXNXFXJXJXFXNXKXLXLXLXLXLXLXLXLXLXLX",
"LXLXLXLXLXLXLXLXLXLXLXLXLXLXLXLXLXLXLXLXLXLXLXLXLXLXLXLXLXLXLXLXLXLXLXLXLXLXLXLXLXLXLXLXLXLXLXLXLXLXLXLXLXLXLXLXLXLXLXLXJXNXNXNXNXSXFXJXLXJXFXNXKXLXLXLXLXLXLXLXLXLXLX",
"LXLXLXLXLXLXLXLXLXLXLXLXLXLXLXLXLXLXLXLXLXLXLXLXLXLXLXLXLXLXLXLXLXLXLXLXLXLXLXLXLXLXLXLXLXLXLXLXLXLXLXLXLXLXLXLXLXLXLXLXFXNXFXKXJXKXJXLXJXLXDXSXKXLXLXLXLXLXLXLXLXLXLX",
"LXLXLXLXLXLXLXLXLXLXLXLXLXLXLXLXLXLXLXLXLXLXLXLXLXLXLXLXLXLXLXLXLXLXLXLXLXLXLXLXLXLXLXLXLXLXLXLXLXLXLXLXLXLXLXLXLXLXLXLXFXNXJXKXLXJXLXJXJXJXNXFXLXLXLXLXLXLXLXLXLXLXLX",
"LXLXLXLXLXLXLXLXLXLXLXLXLXLXLXLXLXLXLXLXLXLXLXLXLXLXLXLXLXLXLXLXLXLXLXLXLXLXLXLXLXLXLXLXLXLXLXLXLXLXLXLXLXLXLXLXLXLXLXLXJXNXFXLXJXLXLXJXFXNXDXKXLXLXLXLXLXLXLXLXLXLXLX",
"LXLXLXLXLXLXLXLXLXLXLXLXLXLXLXLXLXLXLXLXLXLXLXLXLXLXLXLXLXLXLXLXLXLXLXLXLXLXLXLXLXLXLXLXLXLXLXLXLXLXLXLXLXLXLXLXLXLXLXLXJXNXNXSXSXSXSXSXNXVXKXLXKXKXLXLXLXLXLXLXLXLXLX",
"LXLXLXLXLXLXLXLXLXLXLXLXLXLXLXLXLXLXLXLXLXLXLXLXLXLXLXLXLXLXLXLXLXLXLXLXLXLXLXLXLXLXLXLXLXLXLXLXLXLXLXLXLXKXKXLXLXLXLXLXLXJXNXNXNXSXSXSXJXLXLXLXHXJXKXLXLXLXLXLXLXLXLX",
"LXLXLXLXLXLXLXLXLXLXLXLXLXLXLXLXLXLXLXLXLXLXLXLXLXLXLXLXLXLXLXLXLXLXLXLXLXLXLXLXLXLXLXLXLXLXLXLXLXLXLXLXKXKXKXLXLXLXLXLXLXLXLXLXLXLXLXLXLXLXLXLXLXKXKXKXLXLXLXLXLXLXLX",
"LXLXLXLXLXLXLXLXLXLXLXLXLXLXLXLXLXLXLXLXLXLXLXLXLXLXLXLXLXLXLXLXLXLXLXLXLXLXLXLXLXLXLXLXLXLXLXLXLXLXLXHXKXKXLXLXLXLXLXLXLXLXLXLXLXLXLXLXLXLXLXLXLXLXLXKXKXKXLXLXLXLXLX",
"LXLXLXLXLXLXLXLXLXLXLXLXLXLXLXLXLXLXLXLXLXLXLXLXLXLXLXLXLXLXLXLXLXLXLXLXLXLXLXLXLXLXLXLXLXLXLXLXLXLXKXKXKXLXLXLXLXLXLXLXLXLXLXLXLXLXLXLXLXLXLXLXLXLXLXLXKXKXKXLXLXLXLX",
"LXLXLXLXLXLXLXLXLXLXLXLXLXLXLXLXLXLXLXLXLXLXLXLXLXLXLXLXLXLXLXLXLXLXLXLXLXLXLXLXLXLXLXLXLXLXLXLXLXJXKXKXLXLXLXLXLXLXLXLXLXLXLXLXLXLXLXLXLXLXLXLXLXLXLXLXLXHXKXKXLXLXLX",
"LXLXLXLXLXLXLXLXLXLXLXLXLXLXLXLXLXLXLXLXLXLXLXLXLXLXLXLXLXLXLXLXLXLXLXLXLXLXLXLXLXLXLXLXLXLXLXLXKXKXHXLXLXLXLXLXLXLXLXLXLXLXLXLXLXLXLXLXLXLXLXLXLXLXLXLXLXLXHXKXJXKXLX"
};
