/* XPM */
static char *result[] = {
/* columns rows colors chars-per-pixel */
"83 93 255 2 ",
"   c #0B0A0A",
".  c #13130B",
"X  c #171717",
"o  c #2E0E08",
"O  c #390606",
"+  c #291615",
"@  c #391B1A",
"#  c #1C2A10",
"$  c #2D2E16",
"%  c #3E1E20",
"&  c #272627",
"*  c #342E2B",
"=  c #353332",
"-  c #440403",
";  c #4C0403",
":  c #480B08",
">  c #550303",
",  c #5C0202",
"<  c #580B07",
"1  c #4A160A",
"2  c #521808",
"3  c #550F10",
"4  c #481615",
"5  c #581715",
"6  c #640201",
"7  c #6C0101",
"8  c #6A0A0A",
"9  c #730101",
"0  c #7B0101",
"q  c #760A0A",
"w  c #711908",
"e  c #661616",
"r  c #791818",
"t  c #572909",
"y  c #44241A",
"u  c #502F11",
"i  c #483815",
"p  c #6F2B0E",
"a  c #6B3714",
"s  c #401723",
"d  c #442423",
"f  c #4B2828",
"g  c #572A29",
"h  c #532C2B",
"j  c #53332A",
"k  c #4A3637",
"l  c #573838",
"z  c #662828",
"x  c #782928",
"c  c #65372A",
"v  c #663635",
"b  c #783939",
"n  c #304617",
"m  c #3A571D",
"M  c #3B5028",
"N  c #564715",
"B  c #49521B",
"V  c #56551C",
"C  c #73510F",
"Z  c #6C4B1A",
"A  c #6A5A1D",
"S  c #4D701D",
"D  c #717314",
"F  c #465924",
"G  c #565B21",
"H  c #54512C",
"J  c #6C4A35",
"K  c #496925",
"L  c #566B26",
"P  c #4C7526",
"I  c #4D7727",
"U  c #517B25",
"Y  c #587728",
"T  c #537C2B",
"R  c #597A37",
"E  c #696A25",
"W  c #6A6E2F",
"Q  c #687628",
"!  c #687C29",
"~  c #5F3E43",
"^  c #474746",
"/  c #574F4D",
"(  c #664846",
")  c #754645",
"_  c #6E594F",
"`  c #685655",
"'  c #5D7C40",
"]  c #667D4A",
"[  c #7B6357",
"{  c #657454",
"}  c #6C6E68",
"|  c #7A6968",
" . c #767677",
".. c #820203",
"X. c #860707",
"o. c #802D2C",
"O. c #855A0F",
"+. c #8F730E",
"@. c #936917",
"#. c #9C7610",
"$. c #854F30",
"%. c #864E4E",
"&. c #875656",
"*. c #866955",
"=. c #886765",
"-. c #936767",
";. c #93736D",
":. c #887776",
">. c #977776",
",. c #A17B7C",
"<. c #50831F",
"1. c #738A1D",
"2. c #568626",
"3. c #55822B",
"4. c #5A852C",
"5. c #5C8B2D",
"6. c #5E912D",
"7. c #5C8335",
"8. c #5E8D30",
"9. c #5F9332",
"0. c #688629",
"q. c #648C2E",
"w. c #748825",
"e. c #62932E",
"r. c #6E932A",
"t. c #709027",
"y. c #628D31",
"u. c #648A3B",
"i. c #778934",
"p. c #639532",
"a. c #6A9735",
"s. c #659933",
"d. c #6A9C34",
"f. c #789434",
"g. c #68A536",
"h. c #73A53B",
"j. c #688748",
"k. c #6B9348",
"l. c #759058",
"z. c #7BA15E",
"x. c #788C66",
"c. c #7E9566",
"v. c #8F8E14",
"b. c #AC8906",
"n. c #BA9605",
"m. c #AE9310",
"M. c #9DA213",
"N. c #B5AA0C",
"B. c #8C8D31",
"V. c #AE9531",
"C. c #91A43A",
"Z. c #B2A72D",
"A. c #C59D04",
"S. c #D19F02",
"D. c #CBA403",
"F. c #CAA905",
"G. c #D7AB03",
"H. c #CBB706",
"J. c #DBB603",
"K. c #D0BA18",
"L. c #E5B903",
"P. c #CBB22E",
"I. c #DAC507",
"U. c #DACB11",
"Y. c #E6D704",
"T. c #F0D008",
"R. c #EFE305",
"E. c #F6E506",
"W. c #D7C637",
"Q. c #91974E",
"!. c #B79C4B",
"~. c #92A950",
"^. c #B1AB50",
"/. c #839A6A",
"(. c #8F9272",
"). c #A68E74",
"_. c #8BA274",
"`. c #8FA475",
"'. c #B3AD6A",
"]. c #CAB250",
"[. c #C5B968",
"{. c #C9B979",
"}. c #D9C65B",
"|. c #D6CA72",
" X c #E0D478",
".X c #898685",
"XX c #998987",
"oX c #93958B",
"OX c #9B9392",
"+X c #A68888",
"@X c #A6908F",
"#X c #A89795",
"$X c #A39B9A",
"%X c #B29A99",
"&X c #98A986",
"*X c #9EB18B",
"=X c #9DA694",
"-X c #AEAC90",
";X c #A5AA98",
":X c #A8B69A",
">X c #9F9FA0",
",X c #ABA8A7",
"<X c #B6A2A2",
"1X c #B7ABAB",
"2X c #ADB7A1",
"3X c #B4B9AA",
"4X c #B8B5B5",
"5X c #BCBCBC",
"6X c #C6BB90",
"7X c #C7B2B1",
"8X c #C7B9B8",
"9X c #C3BDBB",
"0X c #BDC79B",
"qX c #BBC4B1",
"wX c #D7CC87",
"eX c #D5C897",
"rX c #E4D189",
"tX c #79B229",
"yX c #79B229",
"uX c #79B229",
"iX c #79B229",
"pX c #79B229",
"aX c #79B229",
"sX c #79B229",
"dX c #79B229",
"fX c #79B229",
"gX c #79B229",
"hX c #79B229",
"jX c #79B229",
"kX c #79B229",
"lX c #79B229",
"zX c #79B229",
"xX c #79B229",
"cX c #79B229",
"vX c #79B229",
"bX c #79B229",
"nX c #79B229",
"mX c #79B229",
"MX c #79B229",
"NX c #79B229",
"BX c #79B229",
"VX c #79B229",
"CX c #79B229",
"ZX c #79B229",
"AX c #79B229",
"SX c #79B229",
"DX c #79B229",
"FX c #79B229",
"GX c #79B229",
"HX c #79B229",
"JX c #79B229",
"KX c #79B229",
"LX c #79B229",
"PX c #79B229",
"IX c #79B229",
/* pixels */
"IXIXIXIXIXIXIXIXIXIXIXIXIXIXIXIXIXIXIXIXIXIXIXIXIXIXIXIXIXIXIXIXIXIXIXIXIXIXIXIXIXIXIXIXIXIXIXIXIXIXIXIXIXIXIXIXIXIXIXIXIXIXIXIXIXIXIXIXIXIXIXIXIXIXIXIXIXIXIXIXIXIXIX",
"IXIXIXIXIXIXIXIXIXIXIXIXIXIXIXIXIXIXIXIXIXIXIXIXIXIXIXIXIXIXIXIXIXIXIXIXIXIXIXIXIXIXIXIXIXIXIXIXIXIXIXIXIXIXIXIXIXIXIXIXIXIXIXIXIXIXIXIXIXIXIXIXIXIXIXIXIXIXIXIXIXIXIX",
"IXIXIXIXIXIXIXIXIXIXIXIXIXIXIXIXIXIXIXIXIXIXIXIXIXIXIXIXIXIXIXIXIXIXIXIXIXIXIXIXIXIXIXIXIXIXIXIXIXIXIXIXIXIXIXIXIXIXIXIXIXIXIXIXIXIXIXIXIXIXIXIXIXIXIXIXIXIXIXIXIXIXIX",
"IXIXIXIXIXIXIXIXIXIXIXIXIXIXIXIXIXIXIXIXIXIXIXIXIXIXIXIXIXIXIXIXIXIXIXIXIXIXIXIXIXIXIXIXIXIXIXIXIXIXIXIXIXPXIXIXIXIXIXIXIXIXIXIXIXIXIXIXIXIXIXIXIXIXIXIXIXIXIXIXIXIXIX",
"IXIXIXIXIXIXIXIXIXIXIXIXIXIXIXIXIXIXIXIXIXIXIXIXIXIXIXIXIXIXIXIXIXIXIXIXIXIXIXIXIXIXIXIXIXIXIXIXIXIXIXIXIXIXIXIXIXPXIXIXIXIXIXIXIXIXIXIXIXIXIXIXIXIXIXIXIXIXIXIXIXIXIX",
"IXIXIXIXIXIXIXIXIXIXIXIXIXIXIXIXIXIXIXIXIXIXIXIXIXIXIXIXIXIXIXIXIXIXIXIXIXIXIXIXIXIXIXIXIXIXIXIXIXIXIXIXIXIXIXIXIXIXIXIXIXIXIXIXIXIXIXIXIXIXIXIXIXIXIXIXIXIXIXIXIXIXIX",
"IXIXIXIXIXIXIXIXIXIXIXIXIXIXIXIXIXIXIXIXIXIXIXIXIXIXIXIXIXIXIXIXIXIXIXIXIXIXIXIXIXIXIXIXPXIXIXIXIXIXIXIXIXIXIXIXIXIXIXPXPXIXIXIXIXIXIXIXIXIXIXIXIXIXIXIXIXIXIXIXIXIXIX",
"IXIXIXIXIXIXIXIXIXIXIXIXIXIXIXIXIXIXIXIXIXIXIXIXIXIXIXIXIXIXIXIXIXIXIXIXIXIXIXIXIXIXIXIXIXIXIXIXIXIXIXIXIXIXIXIXIXIXIXIXPXIXIXIXIXIXIXIXIXIXIXIXIXIXIXIXIXIXIXIXIXIXIX",
"IXIXIXIXIXIXIXIXIXIXIXIXIXIXIXIXIXIXIXIXIXIXIXIXIXIXIXIXIXIXIXIXIXIXIXIXIXIXIXIXIXIXIXIXIXIXLXIXIXIXIXIXIXIXIXIXLXLXZXlXvXLXIXIXIXIXIXIXIXIXIXIXIXIXIXIXIXIXIXIXIXIXIX",
"IXIXIXIXIXIXIXIXIXIXIXIXIXIXIXIXIXIXIXIXIXIXIXIXIXIXIXIXIXIXIXIXIXIXIXIXIXIXIXIXIXIXIXIXIXIXIXIXIXIXIXIXIXIXIXLXIXSX4XXX8XKXLXIXIXIXIXIXIXIXIXIXIXIXIXIXIXIXIXIXIXIXIX",
"IXIXIXIXIXIXIXIXIXIXIXIXIXIXIXIXIXIXIXIXIXIXIXIXIXIXIXIXIXIXIXIXIXIXIXIXIXIXIXIXIXIXIXIXIXIXKXKXLXIXIXIXIXPXPXKXxX>.v -.lXLXIXIXIXIXIXIXIXIXIXIXIXIXIXIXIXIXIXIXIXIXIX",
"IXIXIXIXIXIXIXIXIXIXIXIXIXIXIXIXIXIXIXIXIXIXIXIXIXIXIXIXIXIXIXIXIXIXIXIXIXIXIXIXIXIXIXIXIXLXlXgXSXIXIXIXLXIXIX8X;.z z @XSXLXIXIXIXIXIXIXIXIXIXIXIXIXIXIXIXIXIXIXIXIXIX",
"IXIXIXIXIXIXIXIXIXIXIXIXIXIXIXIXIXIXIXIXIXIXIXIXIXIXIXIXIXIXIXIXIXIXIXIXIXIXIXIXIXIXIXIXIXJX<X@XlXLXIXIXLXZX7X%.e < %.dXLXIXPXIXIXIXIXIXIXIXIXIXIXIXIXIXIXIXIXIXIXIXIX",
"IXIXIXIXIXIXIXIXIXIXIXIXIXIXIXIXIXIXIXIXIXIXIXIXIXIXIXIXIXIXIXIXIXIXIXIXIXIXIXIXIXIXIXPXIXSX,.[ 8XLXIXKXvX+Xb 8 6 z ,.ZXIXIXIXIXIXIXIXIXIXIXIXIXIXIXIXIXIXIXIXIXIXIXIX",
"IXIXIXIXIXIXIXIXIXIXIXIXIXIXIXIXIXIXIXIXIXIXIXIXIXIXIXIXIXIXIXIXIXIXIXIXIXIXIXIXIXIXPXIXIXZX>.) 7XJXJXgX,.x 8 q 6 v <XZXLXIXIXIXIXIXIXIXIXIXIXIXIXIXIXIXIXIXIXIXIXIXIX",
"IXIXIXIXIXIXIXIXIXIXIXIXIXIXIXIXIXIXIXIXIXIXIXIXIXIXIXIXIXIXIXIXIXIXIXIXIXIXIXIXIXIXIXIXLXlX%.z #XBX7X%.8 9 0 8 , -.lXLXIXLXIXIXIXIXIXIXIXIXIXIXIXIXIXIXIXIXIXIXIXIXIX",
"IXIXIXIXIXIXIXIXIXIXIXIXIXIXIXIXIXIXIXIXIXIXIXIXIXIXIXIXLXIXIXIXIXIXIXIXIXIXIXIXIXIXIXIXKXdXb < @XgX-.r q 9 9 < 5 +XZXLXLXIXIXIXIXIXIXIXIXIXIXIXIXIXIXIXIXIXIXIXIXIXIX",
"IXIXIXIXIXIXIXIXIXIXIXIXIXIXIXIXIXIXIXIXIXIXIXIXIXIXIXIXIXIXIXIXIXIXIXIXIXIXIXIXIXIXLXPXSX<Xz ; -.,.x 7 9 9 6 , b 7XDXLXLXIXIXIXIXIXIXIXIXIXIXIXIXIXIXIXIXIXIXIXIXIXIX",
"IXIXIXIXIXIXIXIXIXIXIXIXIXIXIXIXIXIXIXIXIXIXIXIXIXIXIXIXIXIXIXIXIXIXIXIXIXIXIXIXPXIXIXIXvX+Xz > ) %.r 9 9 7 6 3 =.lXKXLXLXIXIXIXIXIXIXIXIXIXIXIXIXIXIXIXLXIXIXIXIXIXIX",
"IXIXIXIXIXIXIXIXIXIXIXIXIXIXIXIXIXIXIXIXIXIXIXIXIXIXIXIXIXIXIXLXIXIXIXLXLXIXIXIXIXIXIXIXlX-.e 6 3 5 q 9 9 7 > z <XdX+X-.<XgXZXKXLXIXLXIXPXIXIXIXIXIXIXIXIXIXIXIXIXIXIX",
"IXIXIXIXIXIXIXIXIXIXIXIXIXIXIXIXIXIXIXIXIXIXIXIXIXIXIXIXIXIXIXIXLXKXAXCXJXLXIXIXIXIXIXCX%X) 8 7 , , 9 9 9 6 > ) @X;.r 7 o.%.,.%XgXZXKXPXPXIXIXIXLXIXPXIXIXIXIXIXIXIXIX",
"IXIXIXIXIXIXIXIXIXIXIXIXIXIXIXIXIXIXIXIXIXIXIXIXIXIXIXIXIXIXLXLXLXAXfXsXkXJXIXLXIXLXLX8X_ 5 8 7 7 7 9 9 7 , > ) ) r q X...7 7 x &.,.<XdXvXJXLXIXIXIXIXIXIXIXIXIXIXIXIX",
"IXIXIXIXIXIXIXIXIXIXIXIXIXIXIXIXIXIXIXPXIXIXIXIXIXIXLXIXLXKXCXBXJXxX5X,X4XkXJXIXIXLXvX>.y > 7 9 9 9 9 9 7 , ; , 9 ..0 9 0 ......7 > 8 b -.%X7XlXZXKXLXIXIXIXLXIXIXIXIX",
"IXIXIXIXIXIXIXIXIXIXIXIXIXIXIXIXIXIXIXIXIXIXIXIXIXIXIXIXKXAXkXaXkXVXsX5X5X5XxXKXLXJX9X&.8 8 8 9 9 9 9 9 6 , , 9 ..9 9 9 9 9 7 9 q X.0 8 8 8 b >.%X8XBXJXIXIXIXIXIXIXIX",
"IXIXIXIXIXIXIXIXIXIXIXIXIXIXIXPXPXPXGXPXIXIXIXIXIXIXIXIXAXfX5X5X5XfXzXVXNXfXdXqX:X_.j.H t < 6 8 9 7 9 7 7 7 9 9 9 9 9 9 9 7 6 6 6 6 6 8 8 9 6 3 4 f | <XZXIXIXIXIXIXIX",
"IXIXIXIXIXIXIXIXIXIXIXIXIXIXIXIXPXMXiXmXPXPXIXIXPXIXIXPXZXhX9XdXzXNXAXJXJXxX;Xx.7.5.p.y.L G i 2 < 7 7 9 7 9 9 9 9 9 9 9 6 6 6 , 6 6 , > : : 3 z ) -.@X8XAXIXPXIXIXIXIX",
"IXIXIXIXIXIXIXIXIXIXIXIXIXIXIXIXPXMX{.{.mXLXPXIXPXPXPXIXvXsXkXCXSXSXSXSXzX&Xj.3.6.6.s.s.d.s.7.L i 2 , 6 9 9 9 9 9 9 9 7 6 6 , > : : 3 v &.>.@X7XlXvXZXSXLXIXIXIXIXIXIX",
"IXIXIXIXIXIXIXIXIXIXIXIXIXIXIXIXIXKXeX].|.mXIXIXIXIXPXmXtXtXnXSXSXAXSXzX=XR I 5.p.s.s.p.d.d.s.s.4.V 2 , 7 9 9 9 9 7 7 , > > g b &.>.+X7XgXBXJXLXIXIXIXIXIXIXIXIXIXIXIX",
"IXIXIXIXIXIXIXIXIXIXIXIXIXIXIXIXIXIXpX].P.rXZXmXcXiXpX X}.|.CXSXVXBXNX3Xj.I 8.3.4.9.s.s.s.p.p.s.d.q.V 2 6 7 7 9 9 9 7 6 > ; z &.#X9XlXZXLXPXLXLXPXLXLXIXIXIXIXIXIXIXIX",
"IXIXIXIXIXIXIXIXIXIXIXIXIXIXIXIXPXIXmX XK.P.|.}.Z.P.N.U.I.^.cXCXVXSXaXx.I 3.9.7.7.p.s.s.p.p.s.p.p.g.4.u < 6 9 9 9 0 ....9 7 8 e x %.&.,.gXKXIXIXIXIXIXIXIXIXIXIXIXIXIX",
"IXIXIXIXIXIXIXIXIXIXIXIXIXIXIXIXIXIXDXeXW.G.Z.H.U.H.N.U.I.Z.yXnXVXBX,Xj.I 3.9.s.p.s.p.d.s.s.p.p.p.d.e.V 2 , 7 9 9 ............X...X.q b %XSXIXIXIXIXIXIXIXIXIXIXIXIXIX",
"IXIXIXIXIXIXIXIXIXIXIXIXIXIXIXLXLXPXGXuXP.A.b.J.R.H.D v.Y.U.6XnXVXdX_.R T 4.p.p.p.d.p.p.p.s.p.p.p.p.g.Y 2 , 6 9 9 9 9 9 9 9 0 9 0 0 ..X.>.vXLXIXLXIXIXIXIXIXIXIXIXIXIX",
"IXIXIXIXIXIXIXIXIXIXIXIXIXIXLXCXCXHXpX}.N.n.n.H.Y.H.1.w.m.L.].vXVX5Xx.R I 8.9.s.s.s.4.4.9.s.s.p.s.p.g.Q 1 > 6 7 9 9 9 7 9 9 9 9 9 9 0 X.-.lXLXIXIXIXIXIXIXIXIXIXIXIXIX",
"IXIXIXIXIXIXIXIXIXIXIXIXIXIXLXAXsX<X^.H.T.I.H.n.n.M.1.4.w.m.P.6XkX,Xj.I 3.9.s.s.s.p.p.p.p.s.s.s.s.p.d.Y 2 , 6 6 7 7 7 7 7 7 9 9 9 9 9 q $.gXLXIXIXIXIXIXIXIXIXIXIXIXIX",
"IXIXIXIXIXIXIXIXIXIXIXIXIXIXIXJXdX,X'.P.Y.R.J.b.b.+.0.5.4.Q B.[.tX=XR I 3.p.p.s.p.s.s.d.s.s.p.p.s.s.p.L 2 , , 6 , 6 6 6 6 6 6 7 7 9 9 8 x dXLXLXIXIXIXIXIXIXIXIXIXIXIX",
"IXIXIXIXIXIXIXIXIXIXLXIXIXIXLXSXfX4XtX-XW.T.G.n.N.v.0.y.9.U Y Q.2XoXR U 7.p.s.8.p.a.s.p.s.s.d.s.p.d.y.V 2 6 6 , , , , , , , , , 6 9 9 q x 7XLXIXLXIXIXIXIXIXIXIXIXIXIX",
"IXIXIXIXIXIXIXIXIXIXIXIXPXIXLXSXtX,XsXkX6XP.L.S.I.M.t.6.9.6.U ] (.x.T 3.8.s.s.7.p.p.s.s.q.q.e.s.p.g.0.u > , 6 , , < 2 < 2 2 : , , 6 9 9 r %XZXIXIXIXIXIXIXIXIXIXIXIXIX",
"IXIXIXIXIXIXIXIXIXIXIXIXIXIXLXSXzXaX;X>X2X'.P.G.L.m.t.5.6.e.5.u.' ' U 3.8.p.s.p.p.s.s.s.a.! E 0.p.g.S y : : : 2 t u u N N V u 1 , 6 7 9 q ,.vXPXIXIXIXIXIXIXIXIXIXIXIX",
"IXIXIXIXIXIXIXIXIXIXIXIXIXIXIXFXqX_.j.7.j.c.!.V.A.+.0.e.5.p.p.5.P P U 4.e.s.s.s.s.q.! 0.s.q.E Z E q.! G G Y Y 2.2.5.e.s.g.g.k._ 5 < 7 9 7 -.gXPXLXIXIXIXIXIXIXIXIXIXIX",
"IXIXIXIXIXPXIXIXIXIXIXIXIXIXKXhXc.T 4.8.5.7.c.^.m.v.0.e.7.p.s.e.R T 3.4.e.s.s.6.p.p.W E ! d.q.A Z A q.g.g.g.g.g.e.s.s.s.s.2._.2X=.5 , 9 6 %.8XJXLXIXIXIXIXIXIXIXIXIXIX",
"IXIXIXIXIXIXIXIXIXIXIXPXIXPXbX/.4.6.6.6.e.6.a.`.'.B.D p.q.q.p.s.4.3.3.4.p.s.p.p.p.p.p.Q Z A q.s.A p a A A Z A E ! a.p.d.p.U *XAXhX=.5 6 6 b 7XDXIXPXIXIXIXIXIXIXIXIXIX",
"IXIXIXIXIXIXIXIXPXIXIXIXIXPXtXk.6.9.p.p.s.p.s./.;X`.l.q.5.4.9.s.7.3.3.6.p.s.s.p.s.s.s.p.Q a Z ! f.A p w a Z A E 0.e.p.a.d.R 2XHXKXOXg > 6 x 7XJXPXIXIXIXIXIXIXIXIXIXIX",
"IXIXIXIXIXIXIXIXIXIXIXIXSXqX_.p.6.9.s.s.s.9.8.j.c.oXl.7.p.5.4.6.8.3.4.y.p.s.s.s.s.s.p.d.p.E p p E 0.E E Q q.s.d.d.p.a.s.s.k.qXhXqXc.W z 3 x +XZXIXIXIXIXIXIXIXIXIXIXIX",
"IXIXIXIXIXIXIXPXIXIXPXKXqXz.3.p.p.s.e.e.p.8.4.U R j.j.R 8.p.5.4.7.4.4.9.s.s.s.s.a.s.p.s.g.s.W p w Z Q 0.0.! Q E Q ! 0.p.5.j./.c.R j.=XXXz e ;.lXLXIXIXIXIXIXIXIXIXIXIX",
"IXIXIXIXIXPXIXIXIXIXIXCX*Xp.9.s.s.s.9.9.6.3.U T T 4.4.T 3.5.6.6.6.4.4.6.s.f.s.4.q.s.s.s.s.s.p.E p w w a a p p a Z E q.p.4.P P 4.2.c.jXxX-.5 &.gXLXLXIXIXIXIXIXIXIXIXIX",
"IXIXIXIXIXIXPXPXPXMXnX0Xz.s.p.s.s.p.8.3.U j.c.j.T T 4.T P P q.e.6.4.4.3.h.C.C.M n P 3.2.5.s.p.g.Q a w w p A 0.d.g.s.d.p.3.3.6.6.u.*XFXPXZX| ) 7XKXIXIXIXIXIXIXIXIXIXIX",
"IXIXIXIXIXIXPXMXjX&Xz.z.k.9.9.s.p.8.3.I j.:XjX&X7.T 3.3.K V D v.3.U 4.4.r.Z.~.F . # # # K s.s.s.a.! E 0.p.s.p.p.p.p.s.s.3.T 5.2.z.tXKXIXLX<X=.1XJXLXIXIXIXIXIXIXIXIXIX",
"IXIXIXIXPXPXpX].Z.m.v.v.1.t.r.d.9.I u.:XbXKXPXbX/.T T 4.P V b.N.0.P Y V E V.V.B #   # m 5.s.s.p.p.s.s.s.d.s.s.p.p.s.s.5.I T e.5.*XAXPXIXIXKXlXlXJXIXLXIXIXIXIXIXIXIXIX",
"IXPXIXIXIXKXuXW.Y.Y.J.F.n.b.v.0.I K =XVXIXPXIXSX:X7.U 7.3.G C b.D V C a E !.].W K m # m p.p.e.9.7.s.s.p.5.I I g.g.p.e.4.T y.5.l.tXPXIXIXIXIXKXKXIXIXIXIXIXIXIXIXIXIXIX",
"IXIXIXPXPXHXyXW.R.E.T.G.J.S.#.V B _ qXLXLXIXIXFX2Xk.T 4.p.T V Z N u a N E ]. X~.d.9.P K 4.p.6.4.4.4.p.g.5.m $ m K Y q.4.4.5.a.:XSXIXIXLXPXIXIXIXIXIXIXIXIXIXIXIXIXIXIX",
"IXIXIXIXIXDXwXZ.I.L.D.A.D.A.@.c g ( sXLXPXPXIXFX2Xj.I U 9.s.3.M $ N V L A !.uX|.C.9.s.e.p.g.s.4.3.T p.g.s.m .   $ W B.7.4.5.*XbXLXIXIXIXIXIXIXLXIXIXIXIXIXIXIXIXIXIXIX",
"IXIXIXIXIXmX|.U.I.L.G.D.D.A.@.c g ( 5XPXIXIXIXVX`.T I 4.9.s.9.9.K B V N A Q.rXuX'.a.4.6.g.h.d.p.q.T 4.s.g.K # # A V.f.I 4.c.hXIXLXIXIXIXIXIXIXIXIXIXIXIXIXIXIXIXIXIXIX",
"IXIXIXIXIXMX XY.E.T.T.L.J.A.+.i j ` dXLXLXLXLX4X/ n m R 9.9.u.9.Y H f N K T ^.uXuX^.f.4.p.s.p.p.e.5.4.p.g.4.0.^.}.Q.K I &XbXPXIXLXIXIXIXIXIXIXIXIXIXIXIXIXIXIXIXIXIXIX",
"IXIXIXPXIXMXrXU.E.T.T.L.L.S.+.L ] 3XHXIXLXLXSXoX= # # = { { M n n $ + X $ K i.'.wX'.Q.w.! 0.T 5.q.e.q.p.s.h.~. X[.i.] :XbXKXIXIXIXIXIXIXIXIXIXIXIXIXIXIXIXIXIXIXIXIXIX",
"IXIXIXIXIXGX XU.E.T.T.G.D.n.O.V  .jXLXIXLXIXSX.X= X X =  .,X ./ } } / = & = M 3.s.C.^.|.'.i.P K P R 7.e.s.h.'.[.^.:XbXPXIXIXIXIXIXIXIXLXIXIXIXIXIXIXIXIXIXIXIXIXIXIXIX",
"PXIXIXPXPXGX XK.J.G.D.A.D.n.@.c OXbXPXIXLXIXSXoX= X X = .XsX5XoX>X4X.X^ = = * F <.r.~.|.[.f.I a.Q.Q.u.3.6.g.a.Q.-XCXPXPXPXIXIXIXIXIXLXIXIXIXIXIXIXIXIXIXIXIXIXIXIXIXIX",
"IXIXIXPXPXGXeXP.I.I.L.G.J.S.+.J 4XKXIXIXIXPXKX1X^ X X X } sXCXtX>X4X(.^ = * & } l.3.y.~.Z.a.3.Q.|.[.B.Y 4.6.2.'.cXPXPXIXIXIXIXIXKXxXfXJXIXIXIXIXIXIXIXIXIXIXIXIXIXIXIX",
"IXIXIXIXIXPXiXW.E.E.E.L.G.n.+.(.jXPXIXLXLXIXIXlX}     X ^ 1XCX4X . . .^ & & X } =X/.7.4.q.y.9.B.^.~.i.v.M.t.8.0XGXIXIXIXIXPXIXIXJXsX4XzXKXIXIXIXIXIXIXIXIXIXIXIXIXIXIX",
"IXIXIXIXPXIXMX}.Y.Y.J.n.M.1.i./.:XjXFXIXIXIXPXCX} X   X = .X4X:.f ( / = & & & &  .:X`.j.4.7.6.a.f.0.Y M.H.N.f.yXPXIXIXIXIXIXPXIXCXkXfXsXCXLXIXIXIXIXIXIXIXIXIXIXIXIXIX",
"IXIXIXIXPXIXMXwX].Z.1.Y 2.g.9.<.<.k.0XnXJXSXJXkX`   o o O % k 3 ; - : o   X & = X  .5X*Xj.R U P K P 2.r.v.Z.^.hXPXPXPXIXIXPXPXIXNXfXxXkXxXKXIXIXIXIXIXIXIXIXIXIXIXIXIX",
"IXIXIXIXLXIXDXiXeX`.R 2.e.s.e.a.5.Y ] #X9X9X8XOX~ : - - ; O : , : u t O     & = * * _ ).(.L B B N B 2.6.u.).yXmXLXLXIXIXPXIXLXIXNXfXCXxXkXSXIXIXIXIXIXIXIXIXIXIXIXIXIX",
"IXIXIXIXIXIXIXPXSX*X4.5.e.p.p.q.B t 2 1 1 1 4 : : > ; , > : 6 < 3 2 u ( k X   X & u #.n.+.t o @ $ i F 3.7.R _ ;.#X7XgXlX9X%X1X5X,X4XNXdX$XkXKXLXIXIXIXIXIXIXIXIXIXIXIX",
"IXIXPXIXIXIXIXPXvX/.R e.p.p.p.y.B t 2 t t t a a t O O - - - ; - : O ( ,X,X^     + C D.Y.F.D B F Y K G 2.8.B y 5 g J *.=.( % l l l | OX=.v ,XJXIXIXIXIXIXIXIXIXIXIXIXIX",
"IXIXIXIXIXPXIXSX<XH U p.p.p.p.6.S N Z [ +X#X%X>.k o o t t 5 ` :.v g #XSXKX5X/ & + O.G.E.J.+.K P 8.3.K U T W J c t 2 1 1 - O ; - O 4 g 3 - ( XXdXSXPXIXIXIXIXIXIXIXIXIX",
"IXIXIXIXIXPXIXSX%XH T a.a.s.s.9.8.S T =XxXSXBXXXk + t #.b.*.4XbX$XXXfXPXIXAXOXl 4 a b.G.b.C K I y.y.3.3.j.2XtX;XXX=.) v 5 : 6 , : - > ; 3 1 l #XZXIXIXIXIXIXIXIXIXIXIX",
"IXIXIXIXIXIXIXLXlX(.Y 4.9.9.6.5.3.5.z.tXJXIXCX:.f @ C G.W.6XCXHXBXsXfXAXIXSX1X^ + @ C O.A H L S S U P 3.*XAXIXKXCXlXyX<X( @ - ; - , > 3 u 4 g %XJXPXLXIXIXIXIXIXIXIXIX",
"IXIXIXIXIXIXIXIXLXtX_.j.u.j.9.7.k.&XjXFXLXIXkX} k ( @.V.{.kXCXbXAXVXsXsXCXSX5Xk X + o + ` OX`.] R 7.j._.kXLXIXIXIXIXIXLX1X:.( d 4 f 4 : : h >.vXLXIXIXPXIXIXIXIXIXIXIX",
"IXIXIXIXIXIXIXIXIXKXAXhX*X_.&X&XsXAXPXPXLXJX1X`  .>X(.).tXCXCXCXCXCXNXsXsXkX$Xl @ f g y ` 1XZXCXhXtXhXAXKXIXIXLXIXLXLXKXHXSXfX=.[ >.( 3 4 >.lXLXIXIXIXIXIXIXIXIXIXIXIX",
"IXIXIXIXIXIXIXIXIXIXIXIXIXLXLXLXIXIXIXIXLXkX.XOXzXJXNXxXCXCXCXCXCXCXAXBXxXaX.X~ g g g g l XXcXMXwXwXMXIXIXIXIXPXLXJXkXkXJXLXzXaXNXJX4X| $XSXIXIXIXIXIXIXIXIXIXIXIXIXIX",
"IXIXIXIXIXIXIXIXIXIXIXLXIXIXIXIXIXLXLXIXLX1X| $XCXSXVXCXCXCXCXCXAXJXLXNXdXfX@Xl d f g f j J @.P.Z.V.{.cXPXIXIXKXfXaXaXaXsXsXaXzXBXSXkX5XkXPXIXPXIXIXIXIXIXIXIXIXIXIXIX",
"IXIXIXIXIXIXIXIXIXIXIXIXIXIXIXIXIXIXLXPXsX[ h [ $XsXVXKXKXKXLXKXJXKXlXaXxXkX:.h z z v v $.b.A.A.S.b.'.MXPXIXIXCXfXkXBXzXsXsXxXCXCXAXCXxXfXSXIXIXIXIXIXIXIXIXIXIXIXIXIX",
"IXIXIXIXIXIXIXIXIXIXIXIXIXIXIXIXIXIXLXSXOXl g v ( :.1XkXCXAXVXzXaXsXkXNXKXdX_ g v v v v @.D.S.n.#.#.eXGXIXIXIXAXfXxXJXCXNXBXCXCXCXCXCXxXqXlXHXIXIXIXIXIXIXIXIXIXIXIXIX",
"IXIXIXIXIXIXIXIXIXIXIXIXIXIXIXIXIXIXLXkX| h v v z ( *.).[.'.).).-X8XCXLXSX<X( h g c v l Z @.+.$.a *.gXLXIXIXIXKXxXsXkXCXJXJXCXCXCXBXCXCXzXfXxXKXLXIXIXIXIXIXIXIXIXIXIX",
"IXIXIXIXIXIXIXIXIXIXIXIXIXIXIXIXPXIXLX4X` 4 h l v z a O.#.O.C C 6XDXLXIXbX:.k d f f f h g f h h s ( 1XJXLXIXPXIXLXkX5XxXJXJXJXJXJXJXJXSXCXdXsXAXLXIXIXIXIXIXIXIXIXIXIX",
"IXIXIXIXIXIXIXIXIXIXIXIXIXIXIXIXIXIXCXOXk 4 d f f h h j N c c ~ ,XSXKXIXkX` % + @ s s 4 y % y % @ f OXAXIXIXIXIXIXKXxXfXkXBXSXSXJXKXKXCXfXfXzXJXIXIXIXIXIXIXIXIXIXIXIX",
"IXIXIXIXIXIXIXIXIXIXIXIXIXIXIXIXLXIXlX} % @ % % d d f f f f d f OXvXKXLXlX| k f f k k l j l k h f ~ $XSXIXPXIXIXIXIXLXCXkXfXfXaXsXkXkXfXfXBXKXIXIXIXLXIXIXIXIXIXIXIXIX",
"IXIXIXIXIXIXIXIXIXIXIXIXIXIXIXIXLXIXvX.X( k k h f d @ @ @ o o + .XvXLXIXSX4X$X$X$X$X$X$X$X$X$X$XOX,XkXKXIXPXPXIXIXIXIXLXKXSXVXzXkXkXzXCXKXLXLXIXIXLXIXIXIXIXIXIXIXIXIX",
"IXIXIXIXIXIXIXIXIXIXIXIXIXIXIXIXIXIXLXBXfXsX9X4X1X,X#X$XOXXX:.:.9XSXIXIXIXKXKXKXKXKXKXKXJXKXKXKXPXKXLXPXIXIXIXIXIXIXIXIXIXIXLXLXKXJXKXIXIXIXIXIXIXIXIXIXIXIXIXIXIXIXIX",
"IXIXIXIXIXIXIXIXIXIXIXIXIXIXIXIXIXIXIXIXPXLXKXKXKXJXSXSXZXZXBXBXSXLXIXIXIXIXIXIXIXIXIXIXIXIXIXIXIXIXIXIXIXIXIXIXIXIXIXIXIXIXIXIXIXIXIXIXIXIXLXIXIXIXIXIXIXIXIXIXIXIXIX",
"IXIXIXIXIXIXIXIXIXIXIXIXIXIXIXIXIXIXIXIXIXIXIXIXIXIXIXIXIXIXIXIXIXIXIXIXIXLXLXIXPXPXIXPXIXPXPXIXPXIXIXIXIXIXIXIXIXIXLXIXLXIXLXIXIXIXIXIXIXIXIXIXIXIXIXIXIXIXIXIXIXIXIX",
"IXIXIXIXIXIXIXIXIXIXIXIXIXIXIXIXIXIXIXIXIXIXPXIXPXIXPXIXLXLXPXIXIXIXIXIXIXIXIXIXIXIXIXIXIXIXIXIXIXIXIXIXIXIXIXIXIXIXIXIXIXIXIXIXIXIXIXIXIXIXIXIXIXIXIXIXIXIXIXIXIXIXIX",
"IXIXIXIXIXIXIXIXIXIXIXIXIXIXIXIXIXIXIXIXIXIXIXIXIXIXIXIXIXIXIXIXIXIXIXIXIXIXIXIXIXIXIXIXIXIXIXIXIXIXIXIXIXIXIXIXIXIXIXIXIXIXIXIXIXIXIXIXIXIXIXIXIXIXIXIXIXIXIXIXIXIXIX",
"IXIXIXIXIXIXIXIXIXIXIXIXIXIXIXIXIXIXIXIXIXIXIXIXIXIXIXIXIXIXIXIXIXIXIXIXIXIXIXIXIXIXIXIXIXIXIXIXIXIXIXIXIXIXIXIXIXIXIXIXIXIXIXIXIXIXIXIXIXIXIXIXIXIXIXIXIXIXIXIXIXIXIX",
"IXIXIXIXIXIXIXIXIXIXIXIXIXIXIXIXIXIXIXIXIXIXIXIXIXIXIXIXIXIXIXIXIXIXIXIXIXIXIXIXIXIXIXIXIXIXIXIXIXIXIXIXIXIXIXIXIXIXIXIXIXIXIXIXIXIXIXIXIXIXIXIXIXIXIXIXIXIXIXIXIXIXIX",
"IXIXIXIXIXIXIXIXIXIXIXIXIXIXIXIXIXIXIXIXIXIXIXIXIXIXIXIXIXIXIXIXIXIXIXIXIXIXIXIXIXIXIXIXIXIXIXIXIXIXIXIXIXIXIXIXIXIXIXIXIXIXIXIXIXIXIXIXIXIXIXIXIXIXIXIXIXIXIXIXIXIXIX",
"IXIXIXIXIXIXIXIXIXIXIXIXIXIXIXIXIXIXIXIXIXIXIXIXIXIXIXIXIXIXIXIXIXIXIXIXIXIXIXIXIXIXIXIXIXIXIXIXIXIXIXIXIXIXIXIXIXIXIXIXIXIXIXIXIXIXIXIXIXIXIXIXIXIXIXIXIXIXIXIXIXIXIX",
"IXIXIXIXIXIXIXIXIXIXIXIXIXIXIXIXIXIXIXIXIXIXIXIXIXIXIXIXIXIXIXIXIXIXIXIXIXIXIXIXIXIXIXIXIXIXIXIXIXIXIXIXIXIXIXIXIXIXIXIXIXIXIXIXIXIXIXIXIXIXIXIXIXIXIXIXIXIXIXIXIXIXIX",
"IXIXIXIXIXIXIXIXIXIXIXIXIXIXIXIXIXIXIXIXIXIXIXIXIXIXIXIXIXIXIXIXIXIXIXIXIXIXIXIXIXIXIXIXIXIXIXIXIXIXIXIXIXIXIXIXIXIXIXIXIXIXIXIXIXIXIXIXIXIXIXIXIXIXIXIXIXIXIXIXIXIXIX",
"IXIXIXIXIXIXIXIXIXIXIXIXIXIXIXIXIXIXIXIXIXIXIXIXIXIXIXIXIXIXIXIXIXIXIXIXIXIXIXIXIXIXIXIXIXIXIXIXIXIXIXIXIXIXIXIXIXIXIXIXIXIXIXIXIXIXIXIXIXIXIXIXIXIXIXIXIXIXIXIXIXIXIX",
"IXIXIXIXIXIXIXIXIXIXIXIXIXIXIXIXIXIXIXIXIXIXIXIXIXIXIXIXIXIXIXIXIXIXIXIXIXIXIXIXIXIXIXIXIXIXIXIXIXIXIXIXIXIXIXIXIXIXIXIXIXIXIXIXIXIXIXIXIXIXIXIXIXIXIXIXIXIXIXIXIXIXIX",
"IXIXIXIXIXIXIXIXIXIXIXIXIXIXIXIXIXIXIXIXIXIXIXIXIXIXIXIXIXIXIXIXIXIXIXIXIXIXIXIXIXIXIXIXIXIXIXIXIXIXIXIXIXIXIXIXIXIXIXIXIXIXIXIXIXIXIXIXIXIXIXIXIXIXIXIXIXIXIXIXIXIXIX",
"IXIXIXIXIXIXIXIXIXIXIXIXIXIXIXIXIXIXIXIXIXIXIXIXIXIXIXIXIXIXIXIXIXIXIXIXIXIXIXIXIXIXIXIXIXIXIXIXIXIXIXIXIXIXIXIXIXIXIXIXIXIXIXIXIXIXIXIXIXIXIXIXIXIXIXIXIXIXIXIXIXIXIX",
"IXIXIXIXIXIXIXIXIXIXIXIXIXIXIXIXIXIXIXIXIXIXIXIXIXIXIXIXIXIXIXIXIXIXIXIXIXIXIXIXIXIXIXIXIXIXIXIXIXIXIXIXIXIXIXIXIXIXIXIXIXIXIXIXIXIXIXIXIXIXIXIXIXIXIXIXIXIXIXIXIXIXIX"
};
