/* XPM */
static char *result[] = {
/* columns rows colors chars-per-pixel */
"83 93 255 2 ",
"   c #180909",
".  c #0E120B",
"X  c #181717",
"o  c #280808",
"O  c #360908",
"+  c #39170C",
"@  c #270B11",
"#  c #281818",
"$  c #381A1A",
"%  c #1A2510",
"&  c #312817",
"*  c #253614",
"=  c #331E21",
"-  c #1E2020",
";  c #2A2928",
":  c #342B29",
">  c #333A2C",
",  c #363535",
"<  c #470706",
"1  c #4C0303",
"2  c #550402",
"3  c #5C0202",
"4  c #570A09",
"5  c #481609",
"6  c #531808",
"7  c #4D0F11",
"8  c #471718",
"9  c #5A1717",
"0  c #640201",
"q  c #6C0101",
"w  c #650B0A",
"e  c #720001",
"r  c #7B0202",
"t  c #75090A",
"y  c #651314",
"u  c #731812",
"i  c #4C250C",
"p  c #58290A",
"a  c #4B2911",
"s  c #552817",
"d  c #4A3A16",
"f  c #553712",
"g  c #6C290D",
"h  c #702A0E",
"j  c #6A3915",
"k  c #561D26",
"l  c #482628",
"z  c #5A2826",
"x  c #552B2C",
"c  c #5C3325",
"v  c #4E3334",
"b  c #573738",
"n  c #65292A",
"m  c #752828",
"M  c #66382A",
"N  c #673736",
"B  c #793737",
"V  c #3B4F1C",
"C  c #364727",
"Z  c #3F5D22",
"A  c #4A491A",
"S  c #5A4913",
"D  c #47531C",
"F  c #565718",
"G  c #734B0D",
"H  c #6C4818",
"J  c #6B561C",
"K  c #785915",
"L  c #4E731B",
"P  c #687A1C",
"I  c #524D2D",
"U  c #485B21",
"Y  c #674525",
"T  c #6E542E",
"R  c #496725",
"E  c #576924",
"W  c #4D7725",
"Q  c #4E732A",
"!  c #527C25",
"~  c #53742B",
"^  c #537C2A",
"/  c #597828",
"(  c #587A35",
")  c #6A6723",
"_  c #687929",
"`  c #697A31",
"'  c #653D44",
"]  c #3E4041",
"[  c #544F4C",
"{  c #664948",
"}  c #754B4C",
"|  c #72534A",
" . c #685555",
".. c #765755",
"X. c #5E7648",
"o. c #657B49",
"O. c #746E59",
"+. c #796868",
"@. c #757171",
"#. c #840101",
"$. c #812F30",
"%. c #85661E",
"&. c #946F11",
"*. c #A47B0E",
"=. c #84494A",
"-. c #88595A",
";. c #897056",
":. c #886967",
">. c #946B6A",
",. c #8C716C",
"<. c #877876",
"1. c #967A78",
"2. c #A07D7B",
"3. c #77891A",
"4. c #578426",
"5. c #55822B",
"6. c #5A852C",
"7. c #5C8B2E",
"8. c #5E912D",
"9. c #5D8C31",
"0. c #5C8338",
"q. c #5E9131",
"w. c #65832B",
"e. c #688729",
"r. c #628D2E",
"t. c #778E2E",
"y. c #62922E",
"u. c #6C932F",
"i. c #638D32",
"p. c #678B38",
"a. c #639432",
"s. c #669336",
"d. c #659933",
"f. c #699B35",
"g. c #68A336",
"h. c #70A036",
"j. c #678848",
"k. c #6D8B50",
"l. c #74885C",
"z. c #78975A",
"x. c #78A149",
"c. c #79856A",
"v. c #7D9864",
"b. c #98880B",
"n. c #858818",
"m. c #949112",
"M. c #AD900C",
"N. c #BA9504",
"B. c #BAA70B",
"V. c #888637",
"C. c #8C9435",
"Z. c #A99932",
"A. c #8CA338",
"S. c #B7A733",
"D. c #C39B02",
"F. c #C89E06",
"G. c #C8A605",
"H. c #D7AC03",
"J. c #C7B708",
"K. c #D9B704",
"L. c #CEB419",
"P. c #E6B902",
"I. c #C9B12E",
"U. c #DBC605",
"Y. c #D8C816",
"T. c #E6C706",
"R. c #F2CC07",
"E. c #E8D605",
"W. c #F4DA04",
"Q. c #F7E603",
"!. c #F1E806",
"~. c #D8C927",
"^. c #939252",
"/. c #A6974C",
"(. c #91A74A",
"). c #B3A850",
"_. c #83986A",
"`. c #91807F",
"'. c #8A9273",
"]. c #A79A77",
"[. c #8EA575",
"{. c #B2AC69",
"}. c #C6AD4C",
"|. c #CABB71",
" X c #D4C256",
".X c #D0C76F",
"XX c #D8C878",
"oX c #E0CF78",
"OX c #898687",
"+X c #998786",
"@X c #919886",
"#X c #999695",
"$X c #A68989",
"%X c #A89696",
"&X c #AE9990",
"*X c #97A787",
"=X c #9EB18D",
"-X c #A7A787",
";X c #ABAD94",
":X c #A8B797",
">X c #A89EA1",
",X c #A9A5A5",
"<X c #B6A7A6",
"1X c #B5B6AA",
"2X c #B1B2AD",
"3X c #B7B6B4",
"4X c #BCBBBB",
"5X c #C4BA8E",
"6X c #C3ACAD",
"7X c #C7B9B8",
"8X c #B6C3AB",
"9X c #BEC6B6",
"0X c #D7CC90",
"qX c #E1D88B",
"wX c #D7D1AD",
"eX c #C5C8BA",
"rX c #E6DFA4",
"tX c #79B229",
"yX c #79B229",
"uX c #79B229",
"iX c #79B229",
"pX c #79B229",
"aX c #79B229",
"sX c #79B229",
"dX c #79B229",
"fX c #79B229",
"gX c #79B229",
"hX c #79B229",
"jX c #79B229",
"kX c #79B229",
"lX c #79B229",
"zX c #79B229",
"xX c #79B229",
"cX c #79B229",
"vX c #79B229",
"bX c #79B229",
"nX c #79B229",
"mX c #79B229",
"MX c #79B229",
"NX c #79B229",
"BX c #79B229",
"VX c #79B229",
"CX c #79B229",
"ZX c #79B229",
"AX c #79B229",
"SX c #79B229",
"DX c #79B229",
"FX c #79B229",
"GX c #79B229",
"HX c #79B229",
"JX c #79B229",
"KX c #79B229",
"LX c #79B229",
"PX c #79B229",
"IX c #79B229",
/* pixels */
"IXIXIXIXIXIXIXIXIXIXIXIXIXIXIXIXIXIXIXIXIXIXIXIXIXIXIXIXIXIXIXIXIXIXIXIXIXIXIXIXIXKXKXLXIXIXIXIXIXIXIXIXIXIXIXIXIXIXIXIXIXIXIXIXIXIXIXIXIXIXIXIXIXIXIXIXIXIXIXIXIXIXIX",
"IXIXIXIXIXIXIXIXIXIXIXIXIXIXIXIXIXIXIXIXIXIXIXIXIXIXIXIXIXIXIXIXIXIXIXIXIXIXIXIXIXIXKXKXLXIXIXIXIXIXIXIXIXIXIXIXIXIXIXIXIXIXIXIXIXIXIXIXIXIXIXIXIXIXIXIXIXIXIXIXIXIXIX",
"IXIXIXIXIXIXIXIXIXIXIXIXIXIXIXIXIXIXIXIXIXIXIXIXIXIXIXIXIXIXIXIXIXIXIXIXIXIXIXIXPXIXIXIXKXLXIXIXIXIXIXIXIXIXIXIXIXIXIXIXIXIXIXIXIXIXIXIXIXIXIXIXIXIXIXIXIXIXIXIXIXIXIX",
"IXIXIXIXIXIXIXIXIXIXIXIXIXIXIXIXIXIXIXIXIXIXIXIXIXIXIXIXIXIXIXIXIXIXIXIXIXIXIXIXIXIXIXIXIXKXKXLXIXIXIXIXIXIXIXIXIXIXIXIXIXIXIXIXIXIXIXIXIXIXIXIXIXIXIXIXIXIXIXIXIXIXIX",
"IXIXIXIXIXIXIXIXIXIXIXIXIXIXIXIXIXIXIXIXIXIXIXIXIXIXIXIXIXIXIXIXIXIXIXIXIXIXIXIXIXIXIXIXIXIXLXLXPXIXIXIXIXIXIXIXIXIXIXIXIXIXIXIXIXIXIXIXIXIXIXIXIXIXIXIXIXIXIXIXIXIXIX",
"IXIXIXIXIXIXIXIXIXIXIXIXIXIXIXIXIXIXIXIXIXIXIXIXIXIXIXIXIXIXIXIXIXIXIXIXIXIXIXIXIXIXIXIXIXIXIXPXKXPXIXIXIXIXIXIXIXIXIXIXIXIXIXIXIXIXIXIXIXIXIXIXIXIXIXIXIXIXIXIXIXIXIX",
"IXIXIXIXIXIXIXIXIXIXIXIXIXIXIXIXIXIXIXIXIXIXIXIXIXIXIXIXIXIXIXIXIXIXIXIXIXIXIXIXIXIXIXIXIXIXIXIXIXKXLXIXIXIXIXIXIXIXIXIXIXIXIXIXIXIXIXIXIXIXIXIXIXIXIXIXIXIXIXIXIXIXIX",
"IXIXIXIXIXIXIXIXIXIXIXIXIXIXIXIXIXIXIXIXIXIXIXIXIXIXIXIXIXIXIXIXIXIXIXIXIXIXIXIXIXIXIXIXIXIXIXIXIXKXLXIXLXIXIXIXIXIXIXIXIXIXIXIXIXIXIXIXIXIXIXIXIXIXIXIXIXIXIXIXIXIXIX",
"IXIXIXIXIXIXIXIXIXIXIXIXIXIXIXIXIXIXIXIXIXIXIXIXIXIXIXIXIXIXIXIXIXIXIXIXIXIXIXIXIXIXIXIXIXIXIXIXIXIXIXLXKXKXIXIXIXIXIXIXIXIXIXIXIXIXIXIXIXIXIXIXIXIXIXIXIXIXIXIXIXIXIX",
"IXIXIXIXIXIXIXIXIXIXIXIXIXIXIXIXIXIXIXIXIXIXIXIXIXIXIXIXIXIXIXIXIXIXIXIXIXIXIXIXIXIXIXIXIXIXIXIXKXIXIXLXKXJXIXIXIXIXIXIXIXIXIXPXIXIXIXLXIXIXIXIXIXIXIXIXIXIXIXIXIXIXIX",
"IXIXIXIXIXIXIXIXIXIXIXIXIXIXIXIXIXIXIXIXIXIXIXIXIXIXIXIXIXIXIXIXIXIXIXIXIXIXIXIXIXIXIXIXIXIXIXIXIXIXIXIXIXLXJXJXIXIXIXIXIXIXIXIXIXKXIXPXLXLXIXIXIXIXIXIXIXIXIXIXIXIXIX",
"IXIXIXIXIXIXIXIXIXIXIXIXIXIXIXIXIXIXIXIXIXIXIXIXIXIXIXIXIXIXIXIXIXIXIXIXIXIXIXIXIXIXIXIXIXIXIXIXIXIXIXIXIXIXAXpXZXIXIXIXPXIXIXIXIXIXDXbXlXDXIXIXIXIXIXIXIXIXIXIXIXIXIX",
"IXIXIXIXIXIXIXIXIXIXIXIXIXIXIXIXIXIXIXIXIXIXIXIXIXIXIXIXIXIXIXIXIXIXIXIXIXIXIXIXIXIXIXIXIXIXIXIXIXIXIXIXIXIXlX$XdXIXIXIXIXIXIXIXKXDX7X>.+XCXPXIXIXIXIXIXIXIXIXIXIXIXIX",
"IXIXIXIXIXIXIXIXIXIXIXIXIXIXIXIXIXIXIXIXIXIXIXIXIXIXIXIXIXIXIXIXIXIXIXIXIXIXIXIXIXIXIXIXIXIXIXIXIXIXIXIXIXDX<X..7XJXJXIXLXLXDXCX%X} k } 7XJXIXIXIXIXIXIXIXIXIXIXIXIXIX",
"IXIXIXIXIXIXIXIXIXIXIXIXIXIXIXIXIXIXIXIXIXIXIXIXIXIXIXIXIXIXIXIXIXIXIXIXIXIXIXIXIXIXIXIXIXIXIXIXIXIXIXPXIXlX:.} dXLXJXKXJXBX&X-.m w k $XZXIXIXIXIXIXIXIXIXIXIXIXIXIXIX",
"IXIXIXIXIXIXIXIXIXIXIXIXIXIXIXIXIXIXIXIXIXIXIXIXIXIXIXIXIXIXIXIXIXIXIXIXIXIXIXIXIXIXIXIXIXIXIXIXIXIXIXIXDX>Xn } dXKXJX7X$X-.u q q 2 >.vXLXIXIXIXIXIXIXIXIXIXIXIXIXIXIX",
"IXIXIXIXIXIXIXIXIXIXIXIXIXIXIXIXIXIXIXIXIXIXIXIXIXIXIXIXIXIXIXIXIXIXIXIXIXIXIXIXIXLXIXIXIXIXIXIXIXIXLXIXlX-.y } fXdX%X=.u 0 e e 3 B 7XKXIXIXIXIXIXIXIXIXIXIXIXIXIXIXIX",
"IXIXIXIXIXIXIXIXIXIXIXIXIXIXIXIXIXIXIXIXIXIXIXIXIXPXIXIXIXIXIXIXIXIXLXIXIXKXFXFXAXLXIXIXIXIXIXIXIXIXKXKX<Xn y -.uX>.y q t r t 0 k $XCXPXIXIXIXIXIXIXIXIXIXIXIXIXIXIXIX",
"IXIXIXIXIXIXIXIXIXIXIXIXIXIXIXIXIXIXIXIXIXIXIXIXIXIXIXIXIXIXIXIXIXIXKXFXJXAXNXjX4XCXLXIXIXIXIXIXIXIXKXBX>.y y } 1.m r r e q 0 7 >.fXLXIXIXIXIXIXIXIXIXIXIXIXIXIXIXIXIX",
"IXIXIXIXIXIXIXIXIXIXIXIXIXIXIXIXIXIXIXIXIXPXPXPXIXIXIXIXIXIXIXIXIXKXAXjXCXZXjX3X2XsXAXIXIXIXIXIXKXKXJX<XN w t n 9 t r e q q 4 9 <XAXIXIXIXIXIXIXIXIXIXIXIXIXIXIXIXIXIX",
"IXIXIXIXIXIXIXIXIXIXIXIXIXIXIXIXIXIXIXIXIXSXtXmXKXPXIXIXIXIXIXIXJXxXiX3XsXxXaX3X4X2XjXLXIXIXLXLXJXlX%X} 9 q q 1 0 e e e q 3 z 2.vXDXJXKXIXIXIXIXIXIXIXIXIXIXIXIXIXIXIX",
"IXIXIXIXIXIXIXIXIXIXIXIXIXIXIXIXIXIXPXPXPXSX0X0XSXPXPXIXLXIXIXIXJXnX2X4XaXjXsXkXNX4XiXZXLXIXLXIXDX<XN 8 0 e q 3 q e e q 3 4 -.fXlXdXZXKXKXKXIXIXIXIXKXIXIXIXIXIXIXIXIX",
"IXIXIXIXIXIXIXIXIXIXIXIXIXIXIXIXIXIXIXIXPXJX0X).0XGXPXPXIXIXLXIXZXaXiXjXxXnXCXFXFXVXjXVXVXhXgXgX%X=.w 3 0 e e e e e e 0 3 N +X%X-.=.1.uXAXKXKXIXIXIXIXIXIXIXIXIXIXIXIX",
"IXIXIXIXIXIXIXIXIXIXIXIXIXIXIXIXIXIXIXIXPXIXyX}.}.yXPXPXIXPXLXAXsX4XNXZXAXAXAXAXAXJXCX3X@X_.v.z.o.c w q q e e e e e q 0 7 n =.m t r u =.$XfXJXIXIXIXIXIXIXIXIXIXIXIXIX",
"IXIXIXIXIXIXIXIXIXIXIXIXIXIXIXIXIXIXIXIXPXIXmX}.L.oXyXyXtXtXyX0X.XwXCXAXAXZXZXZXAXzX8Xl.Q ^ 7.y.4.E f 6 0 e e e e e 0 3 2 w t r #.#.r e m :.<XbXKXIXIXIXIXIXIXIXIXIXIX",
"IXIXIXIXIXIXIXIXIXIXIXIXIXIXIXIXIXIXIXIXPXIXmXXXL.L.I.I.S.S.L.U.L.|.CXZXCXCXVXxXgX@X( W 4.q.d.d.g.g.9.E a 4 0 q q q 0 q q e e r e e r r r e y >.6XBXJXIXKXIXIXIXIXIXIX",
"IXIXIXIXIXIXIXIXIXIXIXIXIXIXIXIXIXIXPXPXIXIXMX0XL.G.B.Y.U.U.J.m.m.).MXZXCXVXzXiX'.( W 7.9.7.a.d.d.d.y.f./ a 4 q e e q e e e e e e e e e e r r u m %XlXJXIXIXIXIXIXIXIX",
"IXIXIXIXIXIXIXIXIXIXIXIXIXIXIXIXIXIXAXkXVXGX0XI.G.N.N.T.!.U.m.P m.).cXZXxXkX4X'.( W 5.7.5.^ q.d.d.d.d.d.g.6.f 4 0 e e e e e e e e q q 0 q q e e e 0 B $XlXDXJXIXIXIXIX",
"IXIXIXIXIXIXIXIXIXIXIXIXIXIXIXIXIXIXJXxX2X{.I.Y.U.G.N.J.W.B.3.! P I.wXCXkXaX,Xo.Q 5.7.a.a.a.d.d.d.d.a.a.d.d.~ i 3 q e e e e e e e q 3 3 3 0 w q q e t m -.7XAXLXIXIXIX",
"IXIXIXIXIXIXIXIXIXIXIXIXIXIXIXIXIXIXHXkX2X].I.T.!.K.N.M.U.M.e.7._ ` 0XzXaX,Xc.Q ^ 6.q.d.d.d.d.d.d.d.s.d.d.d.a.A 6 q q e e e e e 0 0 0 3 2 3 2 3 4 3 2 2 4 z -.<XCXPXIX",
"IXIXIXIXIXIXIXIXIXIXIXIXIXIXIXIXIXIXAXgX3XiX5X~.E.K.N.M.G.b.4.7.w./ *XgXiX@XX.Q ^ 9.a.d.d.a.a.a.d.d.d.y.a.d.a.E 6 0 q e e e e q 3 2 3 y y y 3 4 4 4 9 9 9 7 k } <XCXPX",
"IXIXIXIXIXIXIXIXIXIXIXIXIXIXIXIXIXPXCXsX3XiXpX.XL.K.D.G.B.3.7.y.7./ c.9X2Xc.Q 5.5.i.d.d.d.d.i.6.a.d.d.y.a.d.d._ i 3 q e e r r e 0 1 9 ' -.,.2.$X$X$X$X$X$X&X$X$X7XZXIX",
"IXIXIXIXIXIXIXIXIXIXIXIXIXIXIXIXIXLXCXkX1X#X2X1X}.H.G.P.J.3.8.8.a.4.0.#X@XX.^ 5.7.a.a.a.d.d.a.7.d.d.a.q.d.d.a./ i 3 0 q e #.#.#.#.q y B :.<XdXDXIXIXIXIXIXIXIXIXIXIXIX",
"IXIXIXIXIXIXIXIXIXIXIXIXIXIXIXIXIXLXCX9X[.k.k.v.-XI.F.H.B.t.q.7.a.y.5.l.c.( W 5.q.a.a.a.a.d.f.f.d.a.d.d.d.d.a.E 6 3 q e e r r r #.#.#.e q B -.%XlXDXLXJXJXDXDXDXJXKXIX",
"IXIXIXIXIXIXIXIXIXIXIXIXIXIXIXIXIXnX_.^ L 4.! 4.k.^.Z.F.m.e.q.q.a.a.7.Q Q 5.5.9.a.d.q.q.a.d.d.s.d.d.d.d.d.s.i.A 4 3 0 q e e e q e e r #.#.r 0 m <XJXIXIXIXIXIXKXLXIXIX",
"IXIXIXIXIXIXIXIXIXIXIXIXIXIXLXIXFX8Xp.8.8.7.a.7.s.[./.B.b.e.q.7.8.d.i.^ Q ^ 6.q.d.d.a.a.d.d.a.a.r.d.d.d.a.f.6.i 4 0 0 0 q q e e e e e e r r r $.6XJXIXPXIXIXIXIXKXKXLX",
"IXIXIXIXIXIXIXIXIXIXIXIXIXLXLXAX1Xl.7.8.a.a.a.d.s.z.-X).%.r.q.9.7.d.a.5.^ 5.9.a.a.d.d.d.u.s.d.i._ w.d.a.f.y.F 6 3 3 3 3 3 0 0 0 q q e q e e t $.6XKXIXIXIXIXIXIXIXIXKX",
"IXIXIXIXIXIXIXIXIXIXIXIXIXLXCX:Xz.q.q.d.d.d.d.d.y.p.@X;X^.p.d.9.7.d.9.6.^ 5.q.d.d.d.a.a.r._ r.d._ ) w.f.d.E i 3 0 3 0 3 0 0 0 0 0 0 q q e r q B 6XKXPXIXIXIXIXIXIXIXLX",
"IXIXIXIXIXIXIXIXIXIXIXIXPXSX:Xj.7.d.d.d.d.a.a.a.7.5.k.@X'.j.d.7.6.8.9.6.^ 9.a.d.d.d.q.d.i.) ) i.i.) J ` d.E a 5 6 4 2 2 2 2 2 3 3 3 0 0 e r e $.7XKXKXPXIXIXIXIXIXIXIX",
"IXIXIXIXIXIXIXPXPXPXJXnXcXeX[.y.8.d.d.d.a.a.q.7.! ! W p.k.( 6.a.9.6.9.6.6.q.d.d.d.d.d.d.f.e.J ) u.w.H H _ 6./ E F D S d d f p i 6 4 3 0 q e w $.7XDXIXIXIXKXIXIXIXIXIX",
"IXIXIXIXIXIXIXPXMXmXwX[.[.[.x.d.d.d.a.d.7.6.5.^ 0.^ ^ ^ 7.^ ^ 9.q.6.7.6.6.q.d.d.d.f.d.y.d.d.) H ) a.) h H e.u.f.d.d.f.f.d.i.6./ R i 2 0 q e q B 7XKXLXIXIXIXIXIXIXIXIX",
"IXIXIXIXIXIXPXKX0XL.B.b.n.3.u.u.d.d.a.7.^ 0.k.*X1Xv.^ ^ 5.6.! ! 7.y.i.5.9.q.f.f.s.d.d.f.a.g.d.J h ) u.J h h J ) _ r.r.f.d.d.f.f.j.I s 3 q e 0 =.7XKXPXIXIXIXIXIXIXIXIX",
"IXIXIXIXIXIXPXPX0XY.!.E.K.D.M.n.t.f.7.! j.*XgXSXnX*X0.^ 5.6.W D ) 4.6.^ 6.q.f.A.r.5.y.d.d.d.d.w.j u _ w.H h j j H ) _ i.d.d.f.7.z.=X-.4 3 e 0 =.7XPXIXPXIXIXIXIXIXIXIX",
"IXIXIXIXPXIXIXmX.XY.W.R.T.H.H.N.n.L R o.9XFXIXIXLXgXv.^ 5.5.U K b.e.5.5.6.6.A.Z._ V R y.d.8.d.d.) h g ) a.d.d.d.f.d.y.d.d.d.a.4.;XCX%XM w q q =.uXPXPXIXPXIXIXIXIXIXIX",
"IXIXIXIXIXIXPX0XI.J.K.K.H.F.H.M.K l I @XCXIXIXLXIXnX[.W 4.7.R J b.P L E F _ Z.Z.E % * Z Z 4.d.d.a.J u g H ) ) _ _ w.e.r.s.d.y.z.hXPXfX..9 q 0 -.dXKXPXIXIXIXIXIXIXIXIX",
"IXIXIXIXIXIXJXXXY.!.T.K.F.N.D.&.M k ' %XDXIXIXIXIXnX[.W W q.7.E G S j j H %.}.V.V % . % * L y.d.d.i.H t u g g j H J ) _ s.d.i.[.hXnX8XO.9 0 0 -.dXKXPXIXIXIXIXIXIXIXIX",
"IXIXIXIXIXIXGXoXY.Q.Q.P.P.G.G.*.Y c { ,XAXIXLXIXLX9Xz.^ Q 9.q.0.D d f H F V.|.).E Z * % Z 7.d.d.d.f._ J J J J ) ) _ _ r.s.r.( k._._.j.o.| 9 w -.dXKXIXIXIXIXIXIXIXIXIX",
"IXIXIXIXIXIXHXoXE.Q.W.R.P.P.H.b.F v +.aXKXIXLXIXMX@X( ^ 5.8.q.9.4.R F E F V.XXoX(.d.R V ^ g.d.d.d.d.d.y.q.g.g.g.g.g.g.g.d.6.W W 4.L ( :X%Xn w >.fXKXPXIXIXIXIXIXIXIXIX",
"IXIXIXIXPXIXGX.XE.W.W.P.P.H.D.&.U O.hXLXIXPXIXJX2X] * V ( 0.q.9.r.6.U A H V.XXqX(.y.y.5.^ 7.y.7.4.r.y.d.a.d.y.a.y.a.a.f.9.^ 5.q.g.9.:XFXxX-.9 >.lXKXIXIXIXIXIXIXIXIXIX",
"IXIXIXIXIXIXSX|.B.J.G.F.D.D.N.K I @.nXIXIXIXIXCXOX; X % , X.j.Q ^ W U A R p..XyX{.u.d.r.d.g.d.7.5.5.d.d.9.W R 7.d.d.d.a.5.^ 6.d.8.v.gXLXKX<XM 1.lXKXIXIXIXIXIXIXIXIXIX",
"IXIXIXIXIXIXGX0XL.E.E.P.H.H.N.G | 7XKXIXIXPXIXxXOX- X - ; OX#X .> > - % C R ).rXrX(.6.7.g.h.d.r.5.^ a.d.d.R * R i.a.d.r.W ! a.7._.eXJXIXIXxX1.+XlXLXIXIXIXIXIXIXIXIXIX",
"IXIXIXIXIXIXJX0X~.Q.Q.R.P.H.D.%.+XMXIXPXIXLXPXxX@.X X ; , #XjX#X@.`.@.[ > V ` {.0X).C.6.8.d.d.a.7.^ 9.h.a.V . . % E t.5.5.8.7.j.8XAXIXIXIXHX7X%XlXKXKXIXIXIXIXIXIXIXIX",
"IXIXIXIXIXIXLX0X~.E.K.B.M.m.n.t.;XMXIXIXIXIXLXZX#X; . X ; #XNXjX>X3X,X@., > R i.h.(.).^.` w.9.a.d.6.6.h.a.Z * % H V.p.5.6.7.z.1XAXIXIXIXIXIXJXbXAXIXPXIXIXIXIXIXIXIXIX",
"IXIXIXIXIXIXLXtX.XS.C.e.e.r.q.9.z.=XnXPXPXLXIXKX4X] . X - OXNXxX,X#X#XX., , C Q r.A..X|.C.~ Q ^ 7.7.7.g.d.7.t./.}.C.5.! 9.z.9XHXIXIXLXCXCXJXIXIXIXIXIXIXIXIXIXIXIXIXIX",
"IXIXIXIXIXIXPXGXcX:Xj.5.q.a.s.d.8.r.=XzXJXLXIXKX4X, . # X @.iX4X+.+.OX[ , ; ; V 4.u.{. XA.! / ` ( 6.q.g.d.(..XXX/.E Q j.[.eXJXIXIXIXKXsX4XCXLXIXIXIXIXIXIXIXIXIXIXIXIX",
"IXIXIXIXIXIXIXIXAX=X( q.d.a.a.i./ L E 1.<X3XdX7X@.$ o + O l +.' $ 8 [ , & - - > R 4.A.h.4.4.^.|.^.w.7.d.y.(.0X).3.l.*XgXLXIXLXIXIXIXDXsX3XiXZXIXIXIXIXIXIXIXIXIXIXIXIX",
"IXIXIXIXIXIXPXIXhX_.^ a.f.a.d.6.D i i 6 p j T } c < 1 2 < O O 4 3 7 5 O   . ; , C Q 6.9.q.9.(.oX.XV./ r.q.C.Z.m.Z.wXGXJXPXPXIXIXIXIXZXzXjXsXzXJXIXIXIXIXIXIXIXIXIXIXIX",
"IXIXIXIXIXIXIXDXOXA 5.f.s.a.f.6.F p p p p p 6 6 5 1 < 3 1 < 3 3 5 8 g +   . - : , C U ^ 6.i.C.A.r.4./ r.8.7.n.~. XmXKXKXPXIXLXKXKXIXCXjXzXkX4XZXLXIXIXIXIXIXIXIXIXIXIX",
"IXIXIXIXIXPXIXDX%XE 9.f.a.a.d.7.L S I O.,.:.-...N + O 1 < 1 1 < 1 < a { ; . X ; ; & F 4.! ! ! / D V D R 5.5.i./.|.MXPXKXIXKXPXLXKXKXxXkXAXBX4XBXIXLXPXIXIXIXIXIXIXIXIX",
"IXIXIXIXIXIXPXPX7XO.^ 7.a.f.s.a.4.L o.8XBXbXvXpX<.$ o i < 8 ' ' 7 7 <.pXOX, . X # G N.B.3.` ( C & + 5 & V ^ 9.o.O.`.&X<X7XpX<X2.`.$X:.<.4X,X+.%XbXLXIXIXIXIXIXIXIXIXIX",
"IXIXIXIXIXIXIXIXZX1X_.p.6.4.L 4.p.k.=XMXIXIXIXlX+.$ + &.K :.3X>X}  .aXLXCXOX,   + *.T.W.G.^.l.U A & D A D W 7.W f i c M | ;.N 8 7 l 7 l  .Y 7 b `.7XCXPXIXIXIXIXIXIXIX",
"IXIXIXIXIXIXIXIXPXHXnX:X_.l.j.l.=X9XMXJXJXIXDX2X{ = s b.).pXAXCX3X,XZXLXIXpX..$ i *.P.W.F.^.c.R L L 5.4.R W 5.~ I n s 6 6 6 O O < < O O < 2 4 6 z :.pXKXPXIXIXIXIXIXIX",
"IXIXIXIXIXPXIXIXIXIXIXIXFXFXCXAXLXIXIXIXIXIXVX2XOX .M ^.eXZXCXAXCXjXxXFXLXfX+.l & G N.D.&.`.[.Q W ^ ^ 6.5.W ( _.<X<X$X,.| N z 5 2 4 1 1 3 2 8 p 6 -.dXKXPXIXIXIXIXIXIX",
"IXIXIXIXIXIXIXIXPXIXPXPXPXPXLXLXPXIXPXPXIXDXaX4XiX%X<.,XxXCXCXCXBXjXiXNXKXkX+.X @ p j G ;.pX1X( Q W ^ 6.6.W p.eXDXHXAXBXMXlX+Xx 8 < 1 2 1 < < 5 s >XDXIXIXIXIXIXIXIXIX",
"IXIXIXIXIXIXIXIXIXIXIXIXIXIXIXIXPXIXIXIXLXxXsXBXAXZXVXCXAXZXCXZXCXZXkX4XkX3X .@ = = @ v >XDXAX7Xo.Q Q Q ~ ^ v.MXIXIXIXIXIXIXZXaX2X:.k b  .k 2 x %XAXKXIXIXIXIXIXIXIXIX",
"IXIXIXIXIXIXIXIXIXIXIXIXIXPXIXIXIXIXIXIXIXzX3XsXZXCXZXCXVXCXZXVXCXAXAXjXiX,X{ l x x l v >XDXMXtX;X:X*X_.[.8XzXLXIXLXIXIXIXLXKXHXAX3X#X3X7X+.z %XVXLXIXIXIXIXIXIXIXIXIX",
"IXIXIXIXIXIXIXIXIXIXIXIXIXIXIXIXIXIXIXIXBX+X .,.2XCXJXJXFXJXJXJXJXKXkXpXsX#Xb a l x l x T /.S.S.}.wXcXMXZXLXIXIXIXIXIXKXVXiXkXJXNXiXjXAXFXiX>XBXIXIXIXIXIXIXIXIXIXIXIX",
"IXIXIXIXIXIXIXIXIXIXIXIXIXIXIXIXIXPXIXIXuX .z N +.>XjXZXAXJXAXVXxXsXaXxXpX,.x x x z z T *.D.D.D.M.0XGXIXIXIXIXIXIXIXDXjXiXiXiXiXiXsXBXCXCXVXaXxXFXIXIXIXIXIXIXIXIXIXIX",
"IXIXIXIXIXIXIXIXIXIXIXIXIXIXIXIXIXIXIXLX%X' b N N } :.-X;X5X;X].-XeXvXKX2X{ n N N N B *.H.H.D.N.Z.0XHXLXIXIXLXIXIXIXNXiXjXAXjX4XjXVXCXCXZXCXkXiXxXLXIXIXIXIXIXIXIXIXIX",
"IXIXIXIXIXIXIXIXIXIXIXIXIXIXIXIXPXIXLXCX+.v x x x n z Y %.K H H ;.bXIXJX%XN x M N n m %.M.b.%.H `.xXIXIXIXIXIXIXIXLXZXzXVXZXZXFXAXCXCXCXCXCXVXaXaXCXJXIXLXIXIXIXIXIXIX",
"IXIXIXIXIXIXIXIXIXIXIXIXIXIXIXIXIXIXJXfX{ = l l l x x c M Y n x @.lXJXBX<.v l l x z x c M M x 8 +.dXLXIXIXIXIXIXIXIXLXxXiXjXAXFXCXCXCXCXCXCXAXCXiXsXZXKXIXIXIXIXIXIXIX",
"IXIXIXIXIXIXIXIXIXIXIXIXIXIXIXIXIXIXAX2Xv $ = a a l l l l l l $  .jXDXsX .$ l l l l l l l x l = { 1XHXIXPXIXIXIXIXIXIXLXkX4XkXDXLXLXJXJXLXLXJXkXaXkXDXIXIXIXIXIXIXIXIX",
"IXIXIXIXIXIXIXIXIXIXIXIXIXIXIXIXIXIXDXiX .b b v v l $ 8 $ O @   [ pXJXpXb @ o o O O O O O O @   v %XFXIXIXIXIXIXIXIXPXIXJXxXsXsXjXjXiXsXkXkXjXaXkXAXIXIXIXIXIXIXIXIXIX",
"IXIXIXIXIXIXIXIXIXIXIXIXIXIXIXIXIXIXKXZXzXaXiX4X3X,X,X%X#X+X`.<.%XCXJXbX#X@.<.<.OX1.OXOX+X+X+X+X%XkXJXIXIXIXIXIXIXIXIXIXIXIXDXVXxXjXsXjXkXkXzXZXJXLXIXIXIXIXIXIXIXIXIX",
"IXIXIXIXIXIXIXIXIXIXIXIXIXIXIXIXIXIXIXIXIXLXJXJXDXDXFXAXAXZXCXbXCXKXIXJXMXlXzXBXCXBXCXbXCXCXCXZXAXJXLXIXIXIXIXIXIXIXIXIXPXIXIXPXDXDXAXDXDXFXJXPXIXIXIXIXIXIXIXIXIXIXPX",
"IXIXIXIXIXIXIXIXIXIXIXIXIXIXIXIXIXIXIXIXIXIXIXIXIXIXIXIXIXIXIXIXIXIXIXIXIXIXIXIXIXIXIXIXIXIXIXIXIXIXIXIXIXIXIXIXIXIXIXIXIXIXIXIXIXIXIXIXIXIXIXIXLXIXIXIXIXIXIXIXIXPXPX",
"IXIXIXIXIXIXIXIXIXIXIXIXIXIXIXIXIXIXIXIXIXIXPXIXLXIXIXLXPXIXLXIXPXIXIXIXIXLXIXIXIXPXIXIXIXPXIXPXIXIXIXIXIXIXIXIXIXIXIXIXIXIXIXIXIXIXIXIXIXIXIXIXIXIXIXIXIXIXIXLXKXKXLX",
"IXIXIXIXIXIXIXIXIXIXIXIXIXIXIXIXIXIXIXIXIXIXIXIXIXIXIXIXIXIXIXIXIXIXIXIXIXIXIXIXIXIXIXIXIXIXIXIXIXIXIXIXIXIXIXIXIXIXIXIXIXIXIXIXIXIXIXIXIXIXIXIXIXIXIXIXIXIXIXLXKXIXIX",
"IXIXIXIXIXIXIXIXIXIXIXIXIXIXIXIXIXIXIXIXIXIXIXIXIXIXIXIXIXIXIXIXIXIXIXIXIXIXIXIXIXIXIXIXIXPXIXIXIXIXIXIXIXIXIXIXIXIXIXIXIXIXIXIXIXIXIXIXIXIXIXIXIXIXIXIXIXLXKXKXIXIXIX",
"IXIXIXIXIXIXIXIXIXIXIXIXIXIXIXIXIXIXIXIXIXIXIXIXIXIXIXIXIXIXIXIXIXIXIXIXIXIXIXIXIXIXIXIXIXIXIXIXIXIXIXIXIXIXIXIXIXIXIXIXIXIXIXIXIXIXIXIXIXIXIXIXIXIXIXLXJXKXLXIXIXIXIX",
"IXIXIXIXIXIXIXIXIXIXIXIXIXIXIXIXIXIXIXIXIXIXIXIXIXIXIXIXIXIXIXIXIXIXIXIXIXIXIXIXIXIXIXIXIXIXIXIXIXIXIXIXIXIXIXIXIXIXIXIXIXIXIXIXIXIXIXIXIXIXIXIXIXIXIXKXPXPXIXIXIXIXIX",
"IXIXIXIXIXIXIXIXIXIXIXIXIXIXIXIXIXIXIXIXIXIXIXIXIXIXIXIXIXIXIXIXIXIXIXIXIXIXIXIXIXIXIXIXIXIXIXIXIXIXIXIXIXIXIXIXIXIXIXIXIXIXIXIXIXIXIXIXIXIXIXIXIXLXJXKXIXIXIXIXIXIXIX",
"IXIXIXIXIXIXIXIXIXIXIXIXIXIXIXIXIXIXIXIXIXIXIXIXIXIXIXIXIXIXIXIXIXIXIXIXIXIXIXIXIXIXIXIXIXIXIXIXIXIXIXIXIXIXIXIXIXIXIXIXIXIXIXIXIXIXIXIXIXIXIXLXLXKXKXIXIXIXIXIXIXIXIX",
"IXIXIXIXIXIXIXIXIXIXIXIXIXIXIXIXIXIXIXIXIXIXIXIXIXIXIXIXIXIXIXIXIXIXIXIXIXIXIXIXIXIXIXIXIXIXIXIXIXIXIXIXIXIXIXIXIXIXIXIXIXIXIXIXIXIXIXIXIXIXIXLXLXIXIXIXIXIXIXIXIXIXIX",
"IXIXIXIXIXIXIXIXIXIXIXIXIXIXIXIXIXIXIXIXIXIXIXIXIXIXIXIXIXIXIXIXIXIXIXIXIXIXIXIXIXIXIXIXIXIXIXIXIXIXIXIXIXIXIXIXIXIXIXIXIXIXIXIXIXIXIXIXIXLXKXLXIXIXIXIXIXIXIXIXIXIXIX",
"IXIXIXIXIXIXIXIXIXIXIXIXIXIXIXIXIXIXIXIXIXIXIXIXIXIXIXIXIXIXIXIXIXIXIXIXIXIXIXIXIXIXIXIXIXIXIXIXIXIXIXIXIXIXIXIXIXIXIXIXIXIXIXIXIXIXIXIXLXKXLXIXIXIXIXIXIXIXIXIXIXIXIX",
"IXIXIXIXIXIXIXIXIXIXIXIXIXIXIXIXIXIXIXIXIXIXIXIXIXIXIXIXIXIXIXIXIXIXIXIXIXIXIXIXIXIXIXIXIXIXIXIXIXIXIXIXIXIXIXIXIXIXIXIXIXIXIXIXIXIXPXKXJXLXIXIXIXIXIXIXIXIXIXIXIXIXIX",
"IXIXIXIXIXIXIXIXIXIXIXIXIXIXIXIXIXIXIXIXIXIXIXIXIXIXIXIXIXIXIXIXIXIXIXIXIXIXIXIXIXIXIXIXIXIXIXIXIXIXIXIXIXIXIXIXIXIXIXIXIXIXIXIXIXLXKXKXIXIXIXIXIXIXIXIXIXIXIXIXIXIXIX",
"IXIXIXIXIXIXIXIXIXIXIXIXIXIXIXIXIXIXIXIXIXIXIXIXIXIXIXIXIXIXIXIXIXIXIXIXIXIXIXIXIXIXIXIXIXIXIXIXIXIXIXIXIXIXIXIXIXIXIXIXIXIXIXIXKXJXLXIXIXIXIXIXIXIXIXIXIXIXIXIXIXIXIX",
"IXIXIXIXIXIXIXIXIXIXIXIXIXIXIXIXIXIXIXIXIXIXIXIXIXIXIXIXIXIXIXIXIXIXIXIXIXIXIXIXIXIXIXIXIXIXIXIXIXIXIXIXIXIXIXIXIXIXIXIXIXIXLXJXJXIXIXIXIXIXIXIXIXIXIXIXIXIXIXIXIXIXIX",
"IXIXIXIXIXIXIXIXIXIXIXIXIXIXIXIXIXIXIXIXIXIXIXIXIXIXIXIXIXIXIXIXIXIXIXIXIXIXIXIXIXIXIXIXIXIXIXIXIXIXIXIXIXIXIXIXIXIXIXIXIXPXKXKXIXIXIXIXIXIXIXIXIXIXIXIXIXIXIXIXIXIXIX",
"IXIXIXIXIXIXIXIXIXIXIXIXIXIXIXIXIXIXIXIXIXIXIXIXIXIXIXIXIXIXIXIXIXIXIXIXIXIXIXIXIXIXJXIXIXIXIXIXIXIXIXIXIXIXIXIXIXIXIXIXJXJXIXIXIXIXIXIXIXIXIXIXIXIXIXIXIXIXIXIXIXIXIX",
"IXIXIXIXIXIXIXIXIXIXIXIXIXIXIXIXIXIXIXIXIXIXIXIXIXIXIXIXIXIXIXIXIXIXIXIXIXIXIXIXJXfXfXDXIXIXIXIXIXIXIXIXIXIXIXIXIXIXPXLXPXPXIXIXIXIXIXIXIXIXIXIXIXIXIXIXIXIXIXIXIXIXIX"
};
