/* XPM */
static char *result[] = {
/* columns rows colors chars-per-pixel */
"83 93 249 2 ",
"   c #11110C",
".  c #290B0A",
"X  c #370A09",
"o  c #311711",
"O  c #391B1B",
"+  c #202315",
"@  c #25271B",
"#  c #392F19",
"$  c #273A17",
"%  c #2B2A28",
"&  c #3D2424",
"*  c #2E322A",
"=  c #33362B",
"-  c #383736",
";  c #430203",
":  c #490707",
">  c #530403",
",  c #5C0202",
"<  c #570B08",
"1  c #4A1808",
"2  c #531808",
"3  c #481A19",
"4  c #581715",
"5  c #630202",
"6  c #6C0101",
"7  c #670A0A",
"8  c #730101",
"9  c #7B0202",
"0  c #770A08",
"q  c #711708",
"w  c #681718",
"e  c #741A1A",
"r  c #4C260A",
"t  c #532308",
"y  c #492A15",
"u  c #4F3513",
"i  c #573917",
"p  c #6F290F",
"a  c #6B3A16",
"s  c #531F21",
"d  c #631E22",
"f  c #472726",
"g  c #562B27",
"h  c #593528",
"j  c #433737",
"k  c #563737",
"l  c #6A292A",
"z  c #712A26",
"x  c #643A2B",
"c  c #683735",
"v  c #763A3A",
"b  c #354E1C",
"n  c #3E6625",
"m  c #454719",
"M  c #534919",
"N  c #45561B",
"B  c #57561B",
"V  c #785D0D",
"C  c #6A4817",
"Z  c #6A581A",
"A  c #745717",
"S  c #4E6A1C",
"D  c #717214",
"F  c #4D5528",
"G  c #545A23",
"H  c #6B502F",
"J  c #4C6523",
"K  c #466825",
"L  c #4A6D25",
"P  c #556723",
"I  c #4D7425",
"U  c #4D7529",
"Y  c #4E7928",
"T  c #587A26",
"R  c #51752A",
"E  c #537C2A",
"W  c #586D38",
"Q  c #577837",
"!  c #696623",
"~  c #687828",
"^  c #70782B",
"/  c #7A3F40",
"(  c #4D4B4B",
")  c #594847",
"_  c #6B4C46",
"`  c #764844",
"'  c #685655",
"]  c #7A5959",
"[  c #5D7844",
"{  c #69734F",
"}  c #685F60",
"|  c #686767",
" . c #786666",
".. c #7C716F",
"X. c #787878",
"o. c #820202",
"O. c #8B0404",
"+. c #843233",
"@. c #886E0C",
"#. c #997B03",
"$. c #A47E08",
"%. c #91792D",
"&. c #854848",
"*. c #835958",
"=. c #81675A",
"-. c #8E6D6A",
";. c #87797A",
":. c #987977",
">. c #A17A7B",
",. c #71861C",
"<. c #568626",
"1. c #56812C",
"2. c #5A842D",
"3. c #5C8B2E",
"4. c #5E902D",
"5. c #5A8333",
"6. c #5D8D31",
"7. c #5E9131",
"8. c #67862B",
"9. c #628C2E",
"0. c #778C2B",
"q. c #62922E",
"w. c #66962E",
"e. c #628F31",
"r. c #64883A",
"t. c #649532",
"y. c #659933",
"u. c #6B9936",
"i. c #699C34",
"p. c #729836",
"a. c #68A236",
"s. c #71A737",
"d. c #688946",
"f. c #70924A",
"g. c #728A57",
"h. c #7A965B",
"j. c #778869",
"k. c #7D9265",
"l. c #928D11",
"z. c #A78604",
"x. c #AD940E",
"c. c #A9990B",
"v. c #B39302",
"b. c #B99904",
"n. c #BDA907",
"m. c #848C31",
"M. c #A99430",
"N. c #95A226",
"B. c #B6A726",
"V. c #BBAD2A",
"C. c #C29D03",
"Z. c #C19C10",
"A. c #C6A603",
"S. c #CEAA0B",
"D. c #C9B703",
"F. c #D6B902",
"G. c #E1B809",
"H. c #CDB32E",
"J. c #D8C303",
"K. c #D6C51C",
"L. c #E6D208",
"P. c #8F9548",
"I. c #A99949",
"U. c #88A84B",
"Y. c #AEAC51",
"T. c #839B6C",
"R. c #8F8F73",
"E. c #91A676",
"W. c #B3A969",
"Q. c #CAB34E",
"!. c #C7B76E",
"~. c #D5C874",
"^. c #907F80",
"/. c #8C8484",
"(. c #958585",
"). c #989890",
"_. c #A58A89",
"`. c #AA8E8C",
"'. c #A69898",
"]. c #B29999",
"[. c #97A585",
"{. c #9CA98D",
"}. c #A6AD98",
"|. c #B1AD91",
" X c #A69DA1",
".X c #AAA6A6",
"XX c #B4A4A4",
"oX c #BAAAA9",
"OX c #ACB2A6",
"+X c #B3B8AA",
"@X c #B4B4B3",
"#X c #BBB7B4",
"$X c #BCBCBC",
"%X c #C6BA85",
"&X c #C2AFAF",
"*X c #C2B6A8",
"=X c #C4B3B2",
"-X c #C8BCBB",
";X c #B5C3A6",
":X c #BDC4B8",
">X c #D7CA8F",
",X c #C8C297",
"<X c #E5DB96",
"1X c #C9C7AB",
"2X c #C6C6B7",
"3X c #D5D0B2",
"4X c #E3DBA7",
"5X c #EBE5B2",
"6X c #79B229",
"7X c #79B229",
"8X c #79B229",
"9X c #79B229",
"0X c #79B229",
"qX c #79B229",
"wX c #79B229",
"eX c #79B229",
"rX c #79B229",
"tX c #79B229",
"yX c #79B229",
"uX c #79B229",
"iX c #79B229",
"pX c #79B229",
"aX c #79B229",
"sX c #79B229",
"dX c #79B229",
"fX c #79B229",
"gX c #79B229",
"hX c #79B229",
"jX c #79B229",
"kX c #79B229",
"lX c #79B229",
"zX c #79B229",
"xX c #79B229",
"cX c #79B229",
"vX c #79B229",
"bX c #79B229",
"nX c #79B229",
"mX c #79B229",
"MX c #79B229",
"NX c #79B229",
"BX c #79B229",
"VX c #79B229",
"CX c #79B229",
"ZX c #79B229",
"AX c #79B229",
"SX c #79B229",
"DX c #79B229",
"FX c #79B229",
"GX c #79B229",
/* pixels */
"GXGXGXGXGXGXGXGXGXGXGXGXGXGXGXGXGXGXGXGXGXGXGXGXGXGXGXGXGXGXGXGXGXGXGXGXGXGXGXGXGXGXGXGXGXGXGXGXGXGXGXGXGXGXGXGXGXGXGXGXGXGXGXGXGXGXGXGXGXGXGXGXGXGXGXGXGXGXGXGXGXGXGX",
"GXGXGXGXGXGXGXGXGXGXGXGXGXGXGXGXGXGXGXGXGXGXGXGXGXGXGXGXGXGXGXGXGXGXGXGXGXGXGXGXGXGXGXGXGXGXGXGXGXGXGXGXGXGXGXGXGXGXGXGXGXGXGXGXGXGXGXGXGXGXGXGXGXGXGXGXGXGXGXGXGXGXGX",
"GXGXGXGXGXGXGXGXGXGXGXGXGXGXGXGXGXGXGXGXGXGXGXGXGXGXGXGXGXGXGXGXGXGXGXGXGXGXGXGXGXGXGXGXGXGXGXGXGXGXGXGXGXGXGXGXGXGXGXGXGXGXGXGXGXGXGXGXGXGXGXGXGXGXGXGXGXGXGXGXGXGXGX",
"GXGXGXGXGXGXGXGXGXGXGXGXGXGXGXGXGXGXGXGXGXGXGXGXGXGXGXGXGXGXGXGXGXGXGXGXGXGXGXGXGXGXGXGXGXGXGXGXGXGXGXGXGXGXGXGXGXGXGXGXGXGXGXGXGXGXGXGXGXGXGXGXGXGXGXGXGXGXGXGXGXGXGX",
"GXGXGXGXGXGXGXGXGXGXGXGXGXGXGXGXGXGXGXGXGXGXGXGXGXGXGXGXGXGXGXGXGXGXGXGXGXGXGXGXGXGXGXGXGXGXGXGXGXGXGXGXGXGXGXGXGXGXGXGXGXGXGXGXGXGXGXGXGXGXGXGXGXGXGXGXGXGXGXGXGXGXGX",
"GXGXGXGXGXGXGXGXGXGXGXGXGXGXGXGXGXGXGXGXGXGXGXGXGXGXGXGXGXGXGXGXGXGXGXGXGXGXGXGXGXGXGXGXGXGXGXGXGXGXGXGXGXGXGXGXGXGXGXGXGXGXGXGXGXGXGXGXGXGXGXGXGXGXGXGXGXGXGXGXGXGXGX",
"GXGXGXGXGXGXGXGXGXGXGXGXGXGXGXGXGXGXGXGXGXGXGXGXGXGXGXGXGXGXGXGXGXGXGXGXGXGXGXGXGXGXGXGXGXGXGXGXGXGXGXGXGXGXGXGXGXGXGXGXGXGXGXGXGXGXGXGXGXGXGXGXGXGXGXGXGXGXGXGXGXGXGX",
"GXGXGXGXGXGXGXGXGXGXGXGXGXGXGXGXGXGXGXGXGXGXGXGXGXGXGXGXGXGXGXGXGXGXGXGXGXGXGXGXGXGXGXGXGXGXGXGXGXGXGXGXGXGXGXGXGXGXGXGXGXGXGXGXGXGXGXGXGXGXGXGXGXGXGXGXGXGXGXGXGXGXGX",
"GXGXGXGXGXGXGXGXGXGXGXGXGXGXGXGXGXGXGXGXGXGXGXGXGXGXGXGXGXGXGXGXGXGXGXGXGXGXGXGXGXGXGXGXGXGXGXGXGXGXGXGXGXGXGXGXGXGXGXGXGXGXGXGXGXGXGXGXGXGXGXGXGXGXGXGXGXGXGXGXGXGXGX",
"GXGXGXGXGXGXGXGXGXGXGXGXGXGXGXGXGXGXGXGXGXGXGXGXGXGXFXGXGXGXGXGXGXGXGXGXGXGXGXGXGXGXGXGXGXGXGXGXGXGXGXGXGXGXGXGXGXGXGXGXGXGXGXGXGXGXGXGXGXGXGXGXGXGXGXGXGXGXGXGXGXGXGX",
"GXGXGXGXGXGXGXGXGXGXGXGXGXGXGXGXGXGXGXGXGXGXGXGXGXGXGXGXGXGXGXGXGXGXGXGXGXGXGXGXGXGXGXGXGXGXGXGXGXGXGXGXGXGXGXGXGXGXGXGXGXGXGXGXGXGXGXGXGXGXGXGXGXGXGXGXGXGXGXGXGXGXGX",
"GXGXGXGXGXGXGXGXGXGXGXGXGXGXGXGXGXGXGXGXGXGXGXGXGXGXGXGXGXGXGXGXGXGXGXGXGXGXGXGXGXGXGXGXGXGXGXGXGXGXGXGXGXGXGXGXGXGXGXGXGXGXGXGXGXGXGXGXGXGXGXGXGXGXGXGXGXGXGXGXGXGXGX",
"GXGXGXGXGXGXGXGXGXGXGXGXGXGXGXGXGXGXGXGXGXGXGXGXGXGXGXGXGXGXGXGXGXGXGXGXGXGXGXGXGXGXGXGXGXGXGXGXGXGXGXGXGXGXGXGXGXGXGXGXGXGXGXGXGXGXGXGXGXGXGXGXGXGXGXGXGXGXGXGXGXGXGX",
"GXGXGXGXGXGXGXGXGXGXGXGXGXGXGXGXGXGXGXGXGXGXGXGXGXGXGXGXGXGXGXGXGXGXGXGXGXGXGXGXGXGXGXGXGXGXGXGXGXGXGXGXGXGXGXGXGXGXGXGXGXGXGXGXGXGXGXGXGXGXGXGXGXGXGXGXGXGXGXGXGXGXGX",
"GXGXGXGXGXGXGXGXGXGXGXGXGXGXGXGXGXGXGXGXGXGXGXGXGXGXGXGXGXGXGXGXGXGXGXGXGXGXGXGXGXGXGXGXGXGXGXGXGXGXGXGXGXGXGXGXGXGXGXGXGXGXGXGXGXGXGXGXGXGXGXGXGXGXGXGXGXGXGXGXGXGXGX",
"GXGXGXGXGXGXGXGXGXGXGXGXGXGXGXGXGXGXGXGXGXGXGXGXDXGXGXGXGXGXGXGXGXGXGXGXGXGXGXGXGXGXGXGXGXGXGXGXGXGXGXGXGXGXGXGXGXGXGXGXGXGXGXGXGXGXGXGXGXGXGXGXGXGXGXGXGXGXGXGXGXGXGX",
"GXGXGXGXGXGXGXGXGXGXGXGXGXGXGXGXGXGXGXGXGXGXDXGXGXDXDXGXGXGXGXGXGXGXGXGXGXGXGXGXGXGXGXGXGXGXGXGXGXGXGXGXGXGXGXGXGXGXGXGXGXGXGXGXGXGXGXGXGXGXGXGXGXGXGXGXGXGXGXGXGXGXGX",
"GXGXGXGXGXGXGXGXGXGXGXGXGXGXGXGXGXGXGXGXGXGXGXGXDXNXhXCXGXGXGXGXGXGXGXGXGXGXGXGXGXGXGXGXGXGXGXGXGXGXGXGXGXGXGXGXGXGXGXGXGXGXGXGXGXGXGXGXGXGXGXGXGXGXGXGXGXGXGXGXGXGXGX",
"GXGXGXGXGXGXGXGXGXGXGXGXGXGXGXGXGXGXGXGXGXGXGXGXCX4X>XjXDXGXGXGXGXGXFXGXGXGXFXGXGXFXGXGXGXGXGXGXGXGXGXGXGXGXGXGXGXGXGXFXGXGXGXGXGXGXGXGXGXGXGXGXGXGXGXGXGXGXGXGXGXGXGX",
"GXGXGXGXGXGXGXGXGXGXGXGXGXGXGXGXGXGXGXGXGXGXDXGXCX%X!.hXDXDXGXGXGXGXGXGXGXGXGXGXGXGXFXGXGXGXGXGXGXGXGXGXGXGXGXGXGXGXGXGXGXGXGXGXGXGXGXGXGXGXGXGXGXGXGXGXGXGXGXGXGXGXGX",
"GXGXGXGXGXGXGXGXGXGXGXGXGXGXGXGXGXGXGXGXGXGXGXGXCXQ.H.5XDXDXGXGXGXGXFXGXFXBXZXGXGXZXZXZXGXGXGXGXGXGXGXGXGXGXGXGXGXGXFXZXVXGXGXGXFXGXGXGXGXGXGXGXGXGXGXGXGXGXGXGXGXGXGX",
"GXGXGXGXGXGXGXGXGXGXGXGXGXGXGXGXGXGXGXGXGXDXGXDXhXQ.H.4XCXGXDXGXGXGXGXZXzXuXpXBXFXkXkXMXBXGXGXGXGXGXGXGXGXGXGXGXFXGXFXdXtXZXGXGXGXGXGXGXGXGXGXGXGXGXGXGXGXGXGXGXGXGXGX",
"GXGXGXGXGXGXGXGXGXGXGXGXGXGXGXGXGXGXGXMXMXZXDXDXhXH.J.<XjXDXGXDXDXGXSXaX9X#X6XzXnX9X@XwXvXGXGXGXGXGXGXGXGXGXGXGXGXNXXX(.eXZXGXDXGXGXGXGXGXGXGXGXGXGXGXGXGXGXGXGXGXGXGX",
"GXGXGXGXGXGXGXGXGXGXGXGXGXGXGXGXGXDXDXZXpXpXbXcX>XH.D.Q.~.4XjXSXDXDXaX9X8X9X8X9XuX9X.X#XzXFXGXGXGXGXGXGXGXGXFXDXZXoX` -.cXFXGXGXGXGXDXGXGXFXGXFXGXGXGXGXGXGXGXGXGXGXGX",
"GXGXGXGXGXGXGXGXGXGXGXGXGXGXGXGXGXGXZXMX$XXX,X~.Q.Z.v.n.D.H.~.<X5X4X:X:XuXzXpXwXuXuX$X#XaXFXGXGXDXGXGXGXGXGXGXnX&Xc c ].ZXFXGXGXGXGXGXGXGXGXFXGXGXGXGXGXGXGXGXGXGXGXGX",
"GXGXGXGXGXGXGXGXGXGXGXGXGXGXGXGXGXDXMXtX@X|.H.J.J.A.z.n.J.J.D.D.D.n.>XvXMXMXMXMXnXMXzX9XyXBXGXDXGXGXGXGXFXFXxX`.l : -.cXGXGXGXGXFXFXZXNXNXcXcXlXMXFXGXGXGXGXGXGXGXGXGX",
"GXGXGXGXGXGXGXGXGXGXGXGXGXGXGXGXDXZXxXwX#X#X!.L.L.J.C.D.L.L.D.c.l.c.3XMXMXmXMXvXMXBXBXyXuXZXGXGXGXGXGXDXFXcXXXc 7 l ].dXcXcXlXcXlXdXeX-X=XXX`.].iXAXGXGXGXGXGXGXGXGXGX",
"GXGXGXGXGXGXGXGXGXGXGXGXGXGXFXGXGXFXpX@X@XyX>XK.L.S.b.A.J.J.l.T l.B.3XjXnXxXnXxXxXvXZXaXtXxXMXSXAXAXcXtX0X_.d 5 > -.&X_.v l w 7 < 7 , 5 5 4 k oXMXGXGXGXGXGXGXGXGXGXGX",
"GXGXGXGXGXGXGXGXGXGXGXGXGXGXGXGXGXGXZXBXqXyX,XH.L.A.v.b.S.c.8.<.M.V.3XvXnXxXfXzXzXzXgX+X).[.OXpXVXBX&X] c l < 0 5 ] *.z 9 0 9 6 8 6 6 , : *.&XMXFXGXGXGXGXGXGXGXGXGXGX",
"GXGXGXGXGXGXGXGXGXGXGXGXGXGXGXGXGXGXGXGXaX9X1XQ.G.Z.b.b.x.,.6.2.l.Y.tXxXaXuXwX$X}.j.d.Q 5.E 5.r.k.R.v , > , 6 8 > 4 0 8 8 8 8 8 6 5 < c _.iXGXGXGXGXGXGXGXGXGXGXGXGXGX",
"GXGXGXGXGXGXGXGXGXGXGXGXGXGXGXGXGXGXFXGX:X X@X!.S.S.G.n.l.3.7.<.T W.uXaXqX$X.Xj.[ I I I <.3.3.<.T G 2 5 6 5 8 6 , 5 8 8 8 8 6 6 , < ` XXlXGXGXFXGXFXGXGXGXGXGXGXGXGXGX",
"GXGXGXGXGXGXGXGXGXGXGXGXGXGXGXGXGXGXFXGXE.j.OX|.B.S.G.c.3.6.y.<.P }.tXwX@X).g.U I <.4.6.5.7.u.a.i.2.i < 6 6 8 6 8 8 8 8 6 5 , > l *.=XZXDXDXGXGXGXGXGXGXGXGXGXGXGXGXGX",
"GXGXGXGXGXGXGXGXGXGXGXGXGXGXGXGXGXGXSXZXk.W k.R.M.v.c.,.4.7.4.2.E {.8X@Xk.[ L 1.2.2.t.6.E 3.t.y.y.a.T u , 8 8 8 8 8 8 6 5 , 4 c `.lXGXFXGXGXGXGXGXFXGXGXGXGXGXGXGXGXGX",
"GXGXGXGXGXGXGXGXDXGXGXGXGXGXGXGXGXDXBX9Xg.R Q d.0.x.l.9.6.4.t.4.Q [.@X/.[ U E 1.2.t.y.t.7.y.t.u.t.u.t.G 2 5 8 8 8 8 6 5 , < *.oXdXNXZXGXGXGXGXGXGXGXGXGXGXGXGXGXGXGXGX",
"GXGXGXGXGXGXGXGXGXGXGXGXGXGXGXGXFXFX;Xd.<.6.6.4.9.,.8.q.4.6.y.q.1.T.j.[ U 1.1.6.t.i.y.w.y.y.y.t.y.t.i.e.B < 6 8 6 5 5 > < c (.]._.&XcXDXAXGXGXGXGXGXGXGXGXGXGXGXGXGXGX",
"GXGXGXGXGXGXGXGXGXGXGXGXGXFXGXGXGXMXT.5.6.6.6.y.y.3.9.3.3.t.t.7.E [ W R E 1.6.7.t.y.y.y.y.y.y.y.y.t.u.t.P 2 5 8 8 5 5 , 7 e +.+.e &.&XZXFXGXFXGXGXGXGXGXGXGXGXGXGXGXGX",
"GXGXGXGXGXGXGXGXGXGXDXGXGXGXDXDXZXrXf.3.4.y.t.y.y.6.6.e.5.7.t.7.E L Y E 2.4.t.y.y.y.y.t.6.2.t.y.t.y.w.y.2.i < 8 8 8 6 8 8 0 9 o.o.6 &.-XZXFXFXGXGXGXGXGXGXGXGXGXGXGXGX",
"GXGXGXGXGXGXGXGXGXGXGXGXGXGXGXGXMX+Xd.4.y.y.t.y.7.2.9.6.3.7.t.4.E E E <.4.y.y.7.3.t.y.t.9.3.t.y.t.w.t.a.9.M < 6 8 8 8 8 8 8 9 9 o.o.e -.iXDXGXGXGXGXGXGXGXGXGXGXGXGXGX",
"GXGXGXGXGXGXGXGXGXGXGXGXGXDXFXVX2XT.y.t.y.t.t.t.6.2.6.4.3.4.7.2.E 1.5.6.y.y.y.7.6.t.y.u.y.t.y.t.t.t.t.a.q.M < 6 8 9 8 8 8 6 8 8 8 o.9 e >.dXFXGXGXGXGXGXGXGXGXGXGXGXGX",
"GXGXFXGXDXGXGXGXDXGXGXDXFXSXFXpXT.1.4.y.t.7.t.6.2.E 2.4.3.2.6.1.E 1.7.y.y.y.y.y.y.y.y.y.y.y.t.y.t.t.t.i.8.u < 5 8 8 8 8 8 8 8 8 6 8 o.9 e ].cXFXFXGXGXGXGXGXGXGXGXGXGX",
"mXbXnXnXxXxXxXxXxXjXkXkXzXaXuXOXf.<.2.q.t.t.3.E E L L 2.4.3.<.2.5.7.y.y.y.y.t.y.y.y.y.y.u.y.t.y.y.t.y.y.T r , 6 8 8 8 8 8 8 6 6 6 6 8 0 0 &.=XZXGXGXGXGXGXGXGXGXGXGXGX",
"pXaXpXpXaXaXaXpXaXaXuX1X1X}.R.g.5.E E 6.t.3.E L L B M T w.4.5.<.4.y.y.y.y.7.7.t.8.8.y.e.8.w.u.y.y.w.y.9.M < 5 6 8 8 8 8 6 6 5 , , , 5 6 0 8 v -XZXDXGXGXGXGXGXGXGXGXGX",
"aXaXaXaXaXaXaXaXaXaXqXI.M.^ D S U 2.2.<.6.2.Y Y I M @.l.8.1.1.5.t.y.t.y.y.y.y.y.~ ^ y.8.~ q.y.y.y.y.y.P t , 5 8 8 8 o.9 , , , , 5 5 5 5 6 0 7 :.iXAXGXGXGXGXGXGXGXGXGX",
"aXaXaXaXaXaXaXaXaXpX1XV.n.D.v.l.D D 8.3.2.L U 6.I V l.,.1.1.2.7.y.p.i.y.t.t.a.y.~ ! e.8.! ~ t.y.y.t.G t > , 5 8 8 9 o.o.9 > : 4 < > < 5 7 6 6 w -.dXFXFXGXGXGXGXGXGXGX",
"aXaXaXaXaXaXpXaXgXrX|.B.J.F.S.C.v.z.D T Y K E 7.1.B V P P P T r.p.N.p.q.t.t.y.y.~ Z ~ 9.! Z 9.y.9.P r < , , 5 8 8 8 8 o.o.9 < c ` c 4 > : , 6 6 e '.MXDXGXGXDXGXGXGXGX",
"aXaXkXaXaXaXaXpXaX2XI.n.D.C.C.v.v.v.V M b G 3.t.3.G u i C C B ^ V.Y.P L 3.y.t.y.y.H Z t.^ C ^ e.B 1 > , 5 , 5 6 6 8 8 8 9 o.9 z :.XX`.*.c 4 > , > v &XZXAXGXGXGXGXGXGX",
"kXkXkXkXxXlXaXaXpX,XB.n.n.b.$.z.z.#.C g f F 2.y.q.E N i C C Z M.Q.p.$ $ 1.a.y.y.a.Z a ~ ~ a ! 9.B r < < , , 5 , 5 8 8 8 8 9 O.9 +.].iXiX=X_.*.c d > v oXVXGXGXGXGXGXGX",
"nXnXmXnXmXnXaXaXtX,XB.J.D.A.b.v.z.#.x c s # b 2.q.2.L P S B m.~.P.m   + b 6.y.t.a.! p ! ~ C a 8.t.<.M r < , , 5 , 5 6 8 6 8 9 o.9 w >.dXZXnXiXXX:.` k ] iXAXFXGXGXGXGX",
"mXmXmXmXmXnXaXaXpX%XV.J.J.F.A.A.b.#.i f & % % $ n L K M M V Q.>XU.K $     $ L y.a.^ p a ^ A q C 8.s.y.2.G 2 2 , 5 , , 5 8 8 8 8 O.0 l XXBXGXGXGXGXxX=X`.&XMXGXDXGXGXGX",
"mXmXmXmXmXnXaXaXpXW.B.J.J.F.A.C.v.@.S N = * % % = b b m m m.~.<XU.a.S + $ K <.t.a.9.p p ! 8.C p p C 9.u.e.T M 1 < , 5 , 6 6 8 8 o.9 &.7XZXAXZXAXFXZXZXbXcXZXGXGXGXGXGX",
"nXxXnXzXxXzXaXaXtXW.B.n.v.v.z.$.#.A u * * * - } /.| - * N P.>X%Xf.a.3.b K y.y.y.y.w.Z q a e.w.8.! ! ! ! 9.i.y.T G 1 > , , 6 6 9 0 e `.MXFXGXGXGXGXGXGXGXGXGXGXGXGXGXGX",
"zXkXkXaXaXaXaXaXuX|.x.A.A.C.v.v.z.@.y . % % ( ;.OX.X| - b P.>X*XT.p.t.I E y.y.y.t.a.! q 0 a ! t.a.t.^ 8.w.t.y.y.t.P u > 5 6 6 9 9 +.=XZXFXGXGXGXGXGXFXGXGXGXGXGXGXGXGX",
"nXkXaXaXaXaXaXaXuX,XB.F.F.F.C.C.z.V #     * | .X@X).| - * [ W.|.$X[.r.t.y.q.t.7.7.y.8.! C p q a ! t.y.7.y.y.u.y.t.r.F < 5 5 8 8 e >.dXFXFXGXFXGXGXGXGXGXGXGXGXGXGXGXGX",
"kXaXaXaXpXaXaXpXkX1XB.D.D.C.z.z.l.B # - ( ( | )..X| - - - U p.E.aX8Xk.u.s.i.3.<.3.t.y.y.8.~ Z a C Z ~ e.y.y.y.t.<.E.-.4 , 6 9 6 / &XcXdXMXFXGXGXGXGXGXGXGXGXDXGXGXGXGX",
"nXkXaXpXaXaXaXaXaX2XI.B.l.D D D E L b | @X XX.X.X.( - % = L 7.E.pXnX[.f.i.i.3.E 1.t.y.y.a.a.a.w.~ H ! 8.y.y.t.p.,.1X].4 , 6 8 6 -.dXaX@X9XNXFXGXGXGXFXGXGXGXAXGXGXGXGX",
"zXaXaXaXaXaXaXaXzXtX2XOX[ n U 1.1.1.1.5.;XBXnX).} + % @ % n 5.T.uXmXR.R 3.y.e.1.1.i.i.3.2.4.t.y.a.a.a.t.t.e.T l.b.<XXXl 5 8 7 e &XFXnX0X@XyXMXFXGXGXGXGXGXGXGXGXGXGXGX",
"kXkXaXaXaXpXpXkXxXmXmXwXg.I E 1.E <.U S d.}.jXvX@X%     . # F ' @X@X_ y J 4.3.2.2.y.s.T K I w.w.t.t.y.i.4.I D l.x.>X].c 5 6 7 &.eXAXcXeXpX9XaXZXGXGXGXGXGXGXGXDXGXGXGX",
"pXaXaXaXaXaXaXaXzXzXpX@Xg.<.2.E <.T m u # h ] -.] . . X ; X X X f 3 , ; o M P 3.2.a.i.n + b i.a.t.y.t.3.Y Y Y 8.p.h.{ s 5 6 e ].MXFXnX0XyXkX$XkXZXAXDXGXGXGXGXGXGXGXGX",
"pXaXpXaXpXaXaXkXmXkX6X{.g.1.E <.<.E m r 2 2 1 4 4 1 1 X > > : X : , < 1 t r B 4.4.s.<.b     b Y y.i.3.I E 4.t.4.I r.{ x 7 5 ` -XAXFXmX0XaXnX(.).dXZXFXGXGXGXGXGXGXGXGX",
"aXpXaXaXaXpXyXyX9X#X X).f.1.Y E <.<.N u i H H v H C a : ; > > : , , : 3 t i J 7.y.y.<.n $ y N ~ u.2.U Y 3.7.3.r.h.;X#X-.4 e _.=X XXX^. ./.(.c s  ._.-XBXGXGXGXGXGXFXGX",
"aXaXaXaXpXkX9X X'. X X).g.2.1.<.1.E I N W [.-X-X&X].`._ X ; ; : 4 : : : t G ~ 3.i.i.U.Y.I.I.I.m.2.R 6.t.t.9.E r.E.=XoX*.< l ;.] g k 3 3 f s , : 3 h R.NXFXGXGXGXGXGXGX",
"aXaXaXkXkXkX#X_.'. XXX_.{ Y Y E E I U Y T.rXDXFXAXZXMX).k X X f  .' 4 X m ~ ^ 2.i.i.Y.>X!.M.0.e.E 3.t.3.R U E 2.W ` H d > 4 h 1 ; ; ; X X > > 3 1 2 >.cXGXDXGXGXGXGXGX",
"kXpXkXzXnXyX.X X XXX X^.H G J S L J [ T.rXVXGXGXGXFXFX-X) o ) (.yXkX..W h.E.[.f.4.U.!.W.P.[ K K R T J N b N E 4.B 1 2 2 : t t 1 < < > > > , : 1 1 ` &XNXDXGXGXGXGXDXGX",
"pXaXaXnXpX#X X XXXXX'.] x A @.D A D R.=XbXGXGXGXFXBXBXoX( % X.eXnXnX9X+XrXBXtXT.4.E.1X3X2XrX{.F N m b J J J T 3.G M x g 3 x c g X : : ; > X : , 3 (.MXFXGXGXGXGXGXGXGX",
"pXkXkXlX6X X X X'./.] k x $.v.z.v.z.I.1XZXGXGXZXxX:X6X/.) X.yXMXbXxXMXwXuXZXjX|.h.rXDXGXDXGXgXg.K K K 1.6.U U U E.pXBX2XXXxXZXaX;.;. .g ) '. .3 ;.lXGXGXGXGXGXGXGXGXGX",
"pXpXyXkX.X^. .} ' k & f g @.$.$.$.$.%.|.jXGXFXxX$XaXaX6X@X9XxXvXxXxXxXaX$X2XsXtX;XVXGXGXGXGXjXT.K K L E 7.6.Y Q ;XBXFXBXbXFXGXAXfXfX0X'.oXaXtX/.#XZXGXGXGXGXGXFXGXGXGX",
"aXpXaXaXwX@X^.k & O O f 3 y i x x %.%X3XMXGXGXaX6XMXMXxXxXvXnXxXxXlXlXnXaX2X+X3XbXDXDXGXGXGXVX:X[ L I I E <.E f.2XFXGXGXGXGXSXMXFXGXpXwXkXMXZXuX9XzXAXGXGXGXGXGXGXGXGX",
"kXpXaXaXkXzX9X X;.) f O O O f O f R.eXlXMXGXGXZXaX9XuXMXBXMXxXvXcXnXNXZXmX:X|.1XCXDXGXGXGXGXDXBX;Xh.R L L Q k.;XjXDXGXDXGXZXuX$XwXtX9XuXxXcXnXxXwX8XkXZXGXGXGXGXGXGXGX",
"aXaXaXaXpXyXkXkXyX X;.) f O O . j _.yXaXMXGXGXGXZX9X@XiXZXFXFXAXZXFXFXZX-XR.W.sXCXGXFXGXGXGXGXGXDXrX}.{.}.}.rXZXDXGXGXGXZXyXqXqX6X$XwXjXnXxXxXxXkXwX9XpXZXGXGXGXGXGXGX",
"aXaXaXaXkXpXpXpXaXkXxXOX/.' - O ' .XpXaXMXFXGXFXGXfX/.;..X9XuXuX9XyX$X X=.H R.cXDXDXGXGXGXGXGXDXGXGXGXGXGXGXGXDXGXGXGXGXxX@XxXZXzXpXxXmXxXxXxXxXZXMX9X6XMXGXFXGXGXGXGX",
"aXaXaXaXaXaXkXuXpXuXuXuXpX@X..' (.qXaXkXZXGXGXGXFX0X' j k ' .. .}  ._ k g g ;.xXDXGXGXGXGXDXGXGXGXDXSXSXSXAXDXGXGXGXGXGXmXwXpXaXnXmXcXxXnXnXMXZXAXaX8XuXZXGXGXGXGXGXGX",
"kXkXlXkXkXkXkXkXkXjXxXaXxXxXxXaXzXnXMXBXAXFXZXGXFX#Xk O f O O f 3 3 f g f O ' pXDXGXGXGXGXGXGXGXGXGXGXGXGXGXGXGXGXGXGXGXGXBX$X@XaXZXFXFXAXBXZXMXpX9XuXBXGXGXGXGXGXGXGX",
"ZXAXAXAXFXFXGXFXGXGXGXFXFXFXDXZXFXFXFXGXGXFXZXFXZX X* . . X . X o X X X .   k qXZXFXGXFXGXGXGXGXGXGXGXGXGXGXGXGXGXGXGXGXGXGXmXuXwXyXuXuXwX9X9XwXwXaXZXFXGXGXGXGXGXGXGX",
"GXGXGXGXGXGXGXGXGXGXGXGXGXGXGXGXGXGXGXGXGXGXFXZXAX0X^...;.^.^./.:.(./.(.(.(..XcXFXFXGXGXGXGXGXGXGXGXGXGXGXGXGXGXGXGXGXGXFXGXGXAXcXaXuXuXwXuXuXxXMXGXGXGXGXGXGXGXGXGXGX",
"GXGXGXGXGXGXGXGXGXGXGXGXGXGXGXFXGXGXGXGXGXGXGXAXAXMXiXiXdXxXlXlXxXfXlXfXnXbXMXFXGXGXGXGXGXGXGXGXGXGXGXGXGXGXGXGXGXGXGXGXGXGXFXGXFXZXZXBXZXMXZXFXGXGXGXGXGXGXGXGXGXGXGX",
"GXGXGXGXGXGXGXGXGXGXGXGXGXGXGXGXGXGXGXGXGXGXGXGXGXDXGXGXGXGXGXGXGXGXGXGXGXGXGXGXGXGXGXGXGXGXGXGXGXGXGXGXGXGXGXGXGXGXGXGXGXGXGXGXGXGXGXGXGXGXGXGXFXGXGXGXGXGXGXGXGXGXGX",
"GXGXGXGXGXGXGXGXGXGXGXGXGXGXGXGXGXGXGXGXGXFXGXGXGXGXAXZXZXFXGXGXGXFXGXGXGXFXFXGXGXGXGXGXGXGXGXGXGXGXGXGXGXGXGXGXGXGXGXGXGXGXGXGXGXGXGXGXFXGXFXGXGXGXGXGXGXGXGXGXGXGXGX",
"GXGXGXGXGXGXGXGXGXGXGXGXGXGXGXGXGXGXFXGXGXGXGXGXGXGXGXAXFXFXFXGXGXGXGXGXGXGXGXGXGXGXGXGXGXGXGXGXGXGXGXGXGXGXGXGXGXGXGXGXGXGXGXGXGXGXGXGXGXGXGXGXGXGXGXGXGXGXGXGXGXGXGX",
"GXGXGXGXGXGXGXGXGXGXGXGXGXGXGXGXGXGXGXGXGXGXGXGXGXGXGXGXGXFXDXFXGXGXGXGXGXGXGXGXGXGXGXGXGXGXGXGXGXGXGXGXGXGXGXGXGXGXGXGXGXGXGXGXGXGXGXGXGXGXGXGXGXGXGXGXGXGXGXGXGXGXGX",
"GXGXGXGXGXGXGXGXGXGXGXGXGXGXGXGXGXGXGXGXGXGXGXGXGXGXGXGXGXGXFXFXFXFXGXGXGXGXGXGXGXGXFXGXGXGXGXGXGXGXGXGXGXGXGXGXGXGXGXGXGXGXGXGXGXGXGXGXGXGXGXGXGXGXGXGXGXGXGXGXGXGXGX",
"GXGXGXGXGXGXGXGXGXGXGXGXGXGXGXGXGXGXGXGXGXGXGXGXGXGXGXGXGXGXGXAXAXAXGXGXGXGXGXGXGXGXGXGXGXGXGXGXGXGXGXGXGXGXGXGXGXGXGXGXGXGXGXGXGXGXGXGXGXGXGXGXGXGXGXGXGXGXGXGXGXGXGX",
"GXGXGXGXGXGXGXGXGXGXGXGXGXGXGXGXGXGXGXGXGXGXGXGXGXGXGXGXGXGXGXGXFXZXZXGXFXGXGXGXGXGXGXGXGXGXGXGXGXGXGXGXGXGXGXGXGXGXGXGXGXGXGXGXGXGXGXGXGXGXGXGXGXGXGXGXGXGXGXGXGXGXGX",
"GXGXGXGXGXGXGXGXGXGXGXGXGXGXGXGXGXGXGXGXGXGXGXGXGXGXGXGXGXGXGXGXGXGXAXAXFXGXGXGXGXGXGXGXGXGXGXGXGXGXGXGXGXGXGXGXGXGXGXGXGXGXGXGXGXGXGXGXGXGXGXGXGXGXGXGXGXGXGXGXGXGXGX",
"GXGXGXGXGXGXGXGXGXGXGXGXGXGXGXGXGXGXGXGXGXGXGXGXGXGXGXGXGXGXGXGXGXGXGXAXFXFXGXGXGXGXGXGXGXGXGXGXGXGXGXGXGXGXGXGXGXGXGXGXGXGXGXGXGXGXGXGXGXGXGXGXGXGXGXGXGXGXGXGXGXGXGX",
"GXGXGXGXGXGXGXGXGXGXGXGXGXGXGXGXGXGXGXGXGXGXGXGXGXGXGXGXGXGXGXGXGXGXGXGXFXFXAXGXGXGXGXGXGXGXGXGXGXGXGXGXGXGXGXGXGXGXGXGXGXGXGXGXGXGXGXGXGXGXGXGXGXGXGXGXGXGXGXGXGXGXGX",
"GXGXGXGXGXGXGXGXGXGXGXGXGXGXGXGXGXGXGXGXGXGXGXGXGXGXGXGXGXGXGXGXGXGXGXGXGXFXAXFXFXFXGXFXGXGXGXGXGXGXGXGXGXGXGXGXGXGXGXGXGXGXGXGXGXGXGXGXGXGXGXGXGXGXGXGXGXGXGXGXGXGXGX",
"GXGXGXGXGXGXGXGXGXGXGXGXGXGXGXGXGXGXGXGXGXGXGXGXGXGXGXGXGXGXGXGXGXGXGXGXGXGXFXFXAXGXGXGXGXGXGXGXGXGXGXGXGXGXGXGXGXGXGXGXGXGXGXGXGXGXGXGXGXGXGXGXGXGXGXGXGXGXGXGXGXGXGX",
"GXGXGXGXGXGXGXGXGXGXGXGXGXGXGXGXGXGXGXGXGXGXGXGXGXGXGXGXGXGXGXGXGXGXGXGXGXGXGXGXFXAXAXGXGXGXGXGXGXGXGXGXGXGXGXGXGXGXGXGXGXGXGXGXGXGXGXGXGXGXGXGXGXGXGXGXGXGXGXGXGXGXGX",
"GXGXGXGXGXGXGXGXGXGXGXGXGXGXGXGXGXGXGXGXGXGXGXGXGXGXGXGXGXGXGXGXGXGXGXGXGXGXGXGXGXAXFXAXFXGXGXGXGXGXGXGXGXGXGXGXGXGXGXGXGXGXGXGXGXGXGXGXGXGXGXGXGXGXGXGXGXGXGXGXGXGXGX",
"GXGXGXGXGXGXGXGXGXGXGXGXGXGXGXGXGXGXGXGXGXGXGXGXGXGXGXGXGXGXGXGXGXGXGXGXGXGXGXGXGXGXGXZXAXFXGXGXGXGXGXGXGXGXGXGXGXGXGXGXGXGXGXGXGXGXGXGXGXGXGXGXGXGXGXGXGXGXGXGXGXGXGX",
"GXGXGXGXGXGXGXGXGXGXGXGXGXGXGXGXGXGXGXGXGXGXGXGXGXGXGXGXGXGXGXGXGXGXGXGXGXGXGXGXGXGXGXGXFXFXGXGXGXGXGXGXGXGXGXGXGXGXGXGXGXGXGXGXGXGXGXGXGXGXGXGXGXGXGXGXGXGXGXGXGXGXGX",
"GXGXGXGXGXGXGXGXGXGXGXGXGXGXGXGXGXGXGXGXFXAXGXGXGXGXGXGXGXGXGXGXGXGXGXGXGXGXGXGXGXGXGXGXGXFXFXFXGXGXGXGXGXGXGXGXGXGXGXGXGXGXGXGXGXGXGXGXGXGXGXGXGXGXGXGXGXGXGXGXGXGXGX",
"GXGXGXGXGXGXGXGXGXGXGXGXGXGXGXGXGXGXFXFX0XeXZXGXGXGXGXGXGXGXGXGXGXGXGXGXGXGXGXGXGXGXGXGXGXGXFXZXZXGXGXGXGXGXGXGXGXGXGXGXGXGXGXGXGXGXGXGXGXGXGXGXGXGXGXGXGXGXGXGXGXGXGX"
};
