/* XPM */
static char *result[] = {
/* columns rows colors chars-per-pixel */
"83 93 251 2 ",
"   c #140E09",
".  c #17160A",
"X  c #390202",
"o  c #2E150F",
"O  c #371B1A",
"+  c #1B2513",
"@  c #342E19",
"#  c #2D1D24",
"$  c #372728",
"%  c #2D302A",
"&  c #430303",
"*  c #4B0202",
"=  c #490B08",
"-  c #550302",
";  c #5D0201",
":  c #530B05",
">  c #540B0B",
",  c #5B0C0A",
"<  c #4A1908",
"1  c #521807",
"2  c #4F0F11",
"3  c #471715",
"4  c #571615",
"5  c #630101",
"6  c #6C0101",
"7  c #650A09",
"8  c #730101",
"9  c #7C0101",
"0  c #750B09",
"q  c #6C130A",
"w  c #651818",
"e  c #761A1A",
"r  c #49260B",
"t  c #562505",
"y  c #57330D",
"u  c #462418",
"i  c #493614",
"p  c #533314",
"a  c #6D330E",
"s  c #6D2D10",
"d  c #6B3813",
"f  c #401F22",
"g  c #661F20",
"h  c #442324",
"j  c #4B2525",
"k  c #4A2A28",
"l  c #572928",
"z  c #532F2B",
"x  c #583428",
"c  c #573A39",
"v  c #672727",
"b  c #7B2828",
"n  c #63362B",
"m  c #722F30",
"M  c #673636",
"N  c #783A38",
"B  c #314718",
"V  c #3D581D",
"C  c #3F4E31",
"Z  c #494617",
"A  c #534A19",
"S  c #4A551C",
"D  c #57591A",
"F  c #70500C",
"G  c #6A4718",
"H  c #67571C",
"J  c #7A5618",
"K  c #4C6F1E",
"L  c #7C6A05",
"P  c #646617",
"I  c #66771A",
"U  c #514B2F",
"Y  c #455924",
"T  c #6C4E2B",
"R  c #784B25",
"E  c #486625",
"W  c #4B6D23",
"Q  c #566724",
"!  c #546B23",
"~  c #4D7426",
"^  c #4E7827",
"/  c #527B26",
"(  c #567628",
")  c #537D2A",
"_  c #4B7436",
"`  c #577736",
"'  c #686723",
"]  c #687828",
"[  c #727130",
"{  c #534B44",
"}  c #664747",
"|  c #754748",
" . c #6F5755",
".. c #5E6049",
"X. c #5E7744",
"o. c #637D49",
"O. c #6F6A58",
"+. c #7B6768",
"@. c #74766A",
"#. c #830101",
"$. c #890102",
"%. c #833736",
"&. c #855C1A",
"*. c #8D6E0F",
"=. c #A47E12",
"-. c #87504A",
";. c #875757",
":. c #8B6061",
">. c #886866",
",. c #976F6B",
"<. c #887979",
"1. c #977878",
"2. c #A17A7B",
"3. c #65811E",
"4. c #7A861B",
"5. c #4F8121",
"6. c #588727",
"7. c #55822B",
"8. c #5A842C",
"9. c #5C8B2D",
"0. c #5E912D",
"q. c #598335",
"w. c #5D8D32",
"e. c #5E9232",
"r. c #66842C",
"t. c #688628",
"y. c #648C2E",
"u. c #788C2A",
"i. c #61922F",
"p. c #6B962C",
"a. c #678A34",
"s. c #649532",
"d. c #689437",
"f. c #659933",
"g. c #699B34",
"h. c #7B9736",
"j. c #69A02F",
"k. c #65A135",
"l. c #75A837",
"z. c #698947",
"x. c #748F4F",
"c. c #6E8657",
"v. c #77A448",
"b. c #778766",
"n. c #7C8F67",
"m. c #888910",
"M. c #999611",
"N. c #A98F0E",
"B. c #B58D07",
"V. c #A9940A",
"C. c #B99705",
"Z. c #9FA20F",
"A. c #B7A40C",
"S. c #8C943A",
"D. c #B09734",
"F. c #8DA43B",
"G. c #B8A72E",
"H. c #BAA638",
"J. c #C49C04",
"K. c #C9A504",
"L. c #D4AA03",
"P. c #CDB505",
"I. c #D7B805",
"U. c #CCB118",
"Y. c #E2B402",
"T. c #E8BD02",
"R. c #CBAF36",
"E. c #D9C406",
"W. c #D9CD14",
"Q. c #E3C905",
"!. c #F4C902",
"~. c #E8DA03",
"^. c #F6D902",
"/. c #E4D614",
"(. c #F2E903",
"). c #8C9748",
"_. c #AA964B",
"`. c #9AA249",
"'. c #A4A651",
"]. c #8F8F74",
"[. c #8CA371",
"{. c #B6AE6F",
"}. c #C8B348",
"|. c #C7B759",
" X c #C9B669",
".X c #C9BA77",
"XX c #DDCC5C",
"oX c #D5C77A",
"OX c #7B7D80",
"+X c #988989",
"@X c #8F9984",
"#X c #90958A",
"$X c #9B9994",
"%X c #A48786",
"&X c #A0908D",
"*X c #A89897",
"=X c #B29999",
"-X c #98AB87",
";X c #9EB28D",
":X c #9EA694",
">X c #AFAD94",
",X c #A8B598",
"<X c #ABAAA8",
"1X c #B7AAA9",
"2X c #ADB3A6",
"3X c #B7B5AA",
"4X c #BDAFB1",
"5X c #B4B4B4",
"6X c #BAB9B6",
"7X c #BBBBBB",
"8X c #CBBD85",
"9X c #C1AEAD",
"0X c #C5B9B9",
"qX c #B4C2A6",
"wX c #BDC1BA",
"eX c #D5CB96",
"rX c #DBD395",
"tX c #EADC97",
"yX c #D3CFB2",
"uX c #79B229",
"iX c #79B229",
"pX c #79B229",
"aX c #79B229",
"sX c #79B229",
"dX c #79B229",
"fX c #79B229",
"gX c #79B229",
"hX c #79B229",
"jX c #79B229",
"kX c #79B229",
"lX c #79B229",
"zX c #79B229",
"xX c #79B229",
"cX c #79B229",
"vX c #79B229",
"bX c #79B229",
"nX c #79B229",
"mX c #79B229",
"MX c #79B229",
"NX c #79B229",
"BX c #79B229",
"VX c #79B229",
"CX c #79B229",
"ZX c #79B229",
"AX c #79B229",
"SX c #79B229",
"DX c #79B229",
"FX c #79B229",
"GX c #79B229",
"HX c #79B229",
"JX c #79B229",
/* pixels */
"JXJXJXJXJXJXJXJXJXJXJXJXJXJXJXJXJXJXJXJXJXJXJXJXJXJXJXJXJXJXJXJXJXJXJXJXJXJXJXJXJXJXJXJXJXJXJXJXJXJXJXJXJXJXJXJXJXJXJXJXJXJXJXJXJXJXJXJXJXJXJXJXJXJXJXJXJXJXJXJXJXJXJX",
"JXJXJXJXJXJXJXJXJXJXJXJXJXJXJXJXJXJXJXJXJXJXJXJXJXJXJXJXJXJXJXJXJXJXJXJXJXJXJXJXJXJXJXJXJXJXJXJXJXJXJXJXJXJXJXJXJXJXJXJXJXJXJXJXJXJXJXJXJXJXJXJXJXJXJXJXJXJXJXJXJXJXJX",
"JXJXJXJXJXJXJXJXJXJXJXJXJXJXJXJXJXJXJXJXJXJXJXJXJXJXJXJXJXJXJXJXJXJXJXJXJXJXJXJXJXJXJXJXJXJXJXJXJXJXJXJXJXJXJXJXJXJXJXJXJXJXJXJXJXJXJXJXJXJXJXJXJXJXJXJXJXJXJXJXJXJXJX",
"JXJXJXJXJXJXJXJXJXJXJXJXJXJXJXJXJXJXJXJXJXJXJXJXJXJXJXJXJXJXJXJXJXJXJXJXJXJXJXJXJXJXJXJXJXJXJXJXJXJXJXJXJXJXJXJXJXJXJXJXJXJXJXJXJXJXJXJXJXJXJXJXJXJXJXJXJXJXJXJXJXJXJX",
"JXJXJXJXJXJXJXJXJXJXJXJXJXJXJXJXJXJXJXJXJXJXJXJXJXJXJXJXJXJXJXJXJXJXJXJXJXJXJXJXJXJXJXJXJXJXJXJXJXJXJXJXJXJXJXJXJXJXJXJXJXJXJXJXJXJXJXJXJXJXJXJXJXJXJXJXJXJXJXJXJXJXJX",
"JXJXJXJXJXJXJXJXJXJXJXJXJXJXJXJXJXJXJXJXJXJXJXJXJXJXJXJXJXJXJXJXJXJXJXJXJXJXJXJXJXJXJXJXJXJXJXJXJXJXJXJXJXJXJXJXJXJXJXJXJXJXJXJXJXJXJXJXJXJXJXJXJXJXJXJXJXJXJXJXJXJXJX",
"JXJXJXJXJXJXJXJXJXJXJXJXJXJXJXJXJXJXJXJXJXJXJXJXJXJXJXJXJXJXJXJXJXJXJXJXJXJXJXJXJXJXJXJXJXJXJXJXJXJXJXJXJXJXJXJXJXJXJXJXJXJXJXJXJXJXJXJXJXJXJXJXJXJXJXJXJXJXJXJXJXJXJX",
"JXJXJXJXJXJXJXJXJXJXJXJXJXJXJXJXJXJXJXJXJXJXJXJXJXJXJXJXJXJXJXJXJXJXJXJXJXJXJXJXJXJXJXJXJXJXJXJXJXJXJXJXJXJXJXJXJXJXJXJXJXJXJXJXJXJXJXJXJXJXJXJXJXJXJXJXJXJXJXJXJXJXJX",
"JXJXJXJXJXJXJXJXJXJXJXJXJXJXJXJXJXJXJXJXJXJXJXJXJXJXJXJXJXJXJXJXJXJXJXJXJXJXJXJXJXJXJXJXJXJXJXJXJXJXJXJXJXJXJXJXJXJXJXJXJXJXJXJXJXJXJXJXJXJXJXJXJXJXJXJXJXJXJXJXJXJXJX",
"JXJXJXJXJXJXJXJXJXJXJXJXJXJXJXJXJXJXJXJXJXJXJXJXJXJXJXJXJXJXJXJXJXJXJXJXJXJXJXJXJXJXJXJXJXJXJXJXJXJXJXJXJXJXJXJXJXJXJXJXJXJXJXJXJXJXJXJXJXJXJXJXJXJXJXJXJXJXJXJXJXJXJX",
"JXJXJXJXJXJXJXJXJXJXJXJXJXJXJXJXJXJXJXJXJXJXJXJXJXJXJXJXJXJXJXJXJXJXJXJXJXJXJXJXJXJXJXJXJXJXJXJXJXJXJXJXJXJXJXJXJXJXJXJXJXJXJXJXJXJXJXJXJXJXJXJXJXJXJXJXJXJXJXJXJXJXJX",
"JXJXJXJXJXJXJXJXJXJXJXJXJXJXJXJXJXJXJXJXJXJXJXJXJXJXJXJXJXJXJXJXJXJXJXJXJXJXJXJXJXJXJXJXJXJXJXJXJXJXJXJXJXJXJXJXJXJXJXJXJXJXJXJXJXJXJXJXJXJXJXJXJXJXJXJXJXJXJXJXJXJXJX",
"JXJXJXJXJXJXJXJXJXJXJXJXJXJXJXJXJXJXJXJXJXJXJXJXJXJXJXJXJXJXHXJXJXJXJXJXJXJXJXJXJXJXJXJXJXJXJXJXJXJXJXJXJXJXJXJXJXJXJXJXJXJXJXJXJXJXJXJXJXJXJXJXJXJXJXJXJXJXJXJXJXJXJX",
"JXJXJXJXJXJXJXJXJXJXJXJXJXJXJXJXJXJXJXJXJXJXJXJXJXJXJXJXJXJXJXJXJXJXJXJXJXJXJXJXJXJXJXJXJXJXJXJXJXJXJXJXJXJXJXJXJXJXJXJXJXJXJXJXJXJXJXJXJXJXJXJXJXJXJXJXJXJXJXJXJXJXJX",
"JXJXJXJXJXJXJXJXJXJXJXJXJXJXJXJXJXJXJXJXJXJXJXJXJXJXJXJXJXJXJXFXGXGXJXJXJXJXJXJXJXJXJXJXJXJXJXJXJXJXJXJXJXJXJXJXJXJXJXJXJXJXJXJXJXJXJXJXJXJXJXJXJXJXJXJXJXJXJXJXJXJXJX",
"JXJXJXJXJXJXJXJXJXJXJXJXJXJXJXJXJXJXJXJXJXJXJXJXJXJXJXJXJXJXJXAXcXGXGXJXJXJXGXJXJXJXJXJXJXJXJXJXJXJXJXJXJXJXJXJXJXJXJXJXJXJXJXJXJXJXJXJXJXJXJXJXJXJXJXJXJXJXJXJXJXJXJX",
"JXJXJXJXJXJXJXJXJXJXJXJXJXJXJXJXJXJXJXJXJXJXJXJXJXJXJXJXGXJXAXeXeXAXJXGXJXJXJXJXJXHXJXJXJXJXJXJXJXJXJXJXJXJXJXJXJXJXJXJXJXJXJXJXJXJXJXJXJXJXJXJXJXJXJXJXJXJXJXJXJXJXJX",
"JXJXJXJXJXJXJXJXJXJXJXJXJXJXJXJXJXJXJXJXJXJXJXJXJXJXJXJXJXHXmX.X|.mXGXJXJXJXJXJXJXJXJXJXJXJXJXJXJXJXJXJXJXJXJXJXJXJXJXJXJXJXJXJXJXJXJXJXJXJXJXJXJXJXJXJXJXJXJXJXJXJXJX",
"JXJXJXJXJXJXJXJXJXJXJXJXJXJXJXJXJXJXJXJXJXJXJXJXJXJXJXJXGXJXuXD.}.AXGXJXJXJXJXJXJXJXJXJXJXJXJXJXJXJXJXJXJXJXJXJXJXJXJXJXJXJXJXJXJXJXJXJXJXJXJXJXJXJXJXJXJXJXJXJXJXJXJX",
"JXJXJXJXJXJXJXJXJXJXJXJXJXJXJXJXJXJXJXJXHXJXJXJXFXVXDXJXGXJXrXU.XXmXGXJXHXJXJXGXJXJXJXJXHXJXJXJXJXJXJXJXJXJXJXJXJXJXJXJXJXJXJXJXJXJXJXJXJXJXJXJXJXJXJXJXJXJXJXJXJXJXJX",
"JXJXJXJXJXJXJXJXJXJXJXJXJXJXJXJXJXJXJXJXJXJXJXJXHXjXzXHXFXAXrXU.}.AXGXJXJXJXJXJXJXDXDXDXDXJXJXJXJXJXJXJXJXJXJXJXJXJXJXJXJXJXJXJXJXJXJXJXJXJXJXJXJXJXJXJXJXJXJXJXJXJXJX",
"JXJXJXJXJXJXJXJXJXJXJXJXJXJXJXJXJXJXJXJXJXJXJXDXVXdX3XyXiXrXR.I.R.tXmXAXGXJXJXJXSXdXlXdXjXHXSXBXCXHXJXJXJXJXJXJXJXJXJXJXJXJXJXJXJXJXJXJXJXJXJXJXJXJXJXJXJXJXJXJXJXJXJX",
"JXJXJXJXJXJXJXJXJXJXJXJXJXJXJXJXJXJXJXHXHXJXHXCXaX5X>X}.U.J.J.K.A.G.R.rXmXGXHXSXNX7X7X5XjXCXjXdXzXDXJXHXJXJXJXJXJXJXJXJXJXJXJXJXJXJXJXJXJXJXJXJXJXJXJXJXJXJXJXJXJXJXJX",
"JXJXJXJXJXJXJXJXJXJXJXJXJXJXJXJXJXJXJXJXJXJXVXdX0X7X3X}.Q.I.C.V.C.Q.I.G.{.rXuX6X5XjX7XpXzXaX5XpX7XzXDXJXJXJXJXJXHXJXJXJXJXJXJXJXJXHXHXJXJXJXHXJXJXJXJXJXJXJXJXJXJXJXJX",
"JXJXJXJXJXJXJXJXJXJXJXJXJXJXJXJXJXJXJXJXJXJXHXzX5X5XhX|./.~.L.K.E.(.Q.E./.W.'.eXjXCXzXjXdXdXdX5X5XBXHXJXJXJXJXJXJXJXJXJXHXJXJXHXCXSXHXJXJXJXJXJXJXJXJXJXJXJXJXJXJXJXJX",
"JXJXJXJXJXJXJXJXJXJXJXJXJXJXJXJXJXJXJXJXJXJXJXHXnXaXlX|.W.Q.C.C.P.~.E.Z.m.M.G.uXDXSXCXCXVXBXNXaX6XzXGXJXJXJXJXJXJXJXJXJXJXHXHX0X%X0XFXJXJXJXJXJXJXJXJXHXJXJXJXJXJXJXJX",
"JXJXJXJXJXJXJXJXJXJXJXJXJXJXJXJXJXJXJXJXJXJXJXJXHXaXdX XI.Y.B.V.K.P.V./ 3.V.|.xXCXBXVXCXCXCXSXjX6XzXDXHXJXJXJXJXHXJXHXJXJXVX9X| 1.kXHXJXJXJXJXJXJXJXJXJXJXJXJXJXJXJXJX",
"JXJXJXJXJXJXJXJXJXJXJXJXJXJXJXJXJXJXJXJXJXHXJXGXlX:X6X{.I.L.C.K.C.M.t._ 4.G.eXvXBXBXBXBXBXCXHXCXjXVXHXJXHXJXGXJXJXJXJXCXfX1.M } 0XHXHXJXHXJXJXJXJXJXJXJXJXJXJXJXJXJXJX",
"JXJXJXJXJXJXJXJXJXJXJXJXJXJXJXJXJXJXJXHXJXGXJXCX;Xb.2X{.R.L.I.I.4.7.e.q.I _.uXVXNXbXzXzXbXbXNXNXjXlXVXDXGXGXJXJXHXFXMX=X| 2 2 9XZXJXHXJXFXJXFXJXHXFXJXHXJXHXJXJXJXJXJX",
"JXJXJXJXJXJXJXJXJXJXJXJXJXJXJXJXJXJXJXJXJXGXHXbXn.o.>X>XG.L.I.Z.6.e.e.7.I '.cXBXjXjXdXdXwX2X:X-X@X@X2XbXDXJXSXnXvXkX+Xv > w :.kXZXZXDXDXFXJXJXJXGXJXHXJXJXJXJXJXJXJXJX",
"JXJXJXJXJXJXJXJXJXJXJXJXJXJXJXJXJXJXJXJXJXGXJXlXc.` :X>XD.J.N.t.i.y.d./ a.>XkXdXpX5X#Xb.X._ ~ W W K ` n.2XhX*X| | M 2 ; 8 N 9X1X%X%X=X1X0XsXxXMXVXVXBXZXFXJXJXJXJXJXJX",
"JXJXJXJXJXJXJXJXJXJXJXJXJXJXJXJXJXJXJXJXJXJXJXgXz.^ #X>X}.=.I y.i.9.s./ z.2XdXpX$Xb.X.^ ^ 7.7.9.e.s.0.0.z.O.b 4 2 > 0 8 , | >.%.e e b %.%.-.;.:.,.2.,.%XsXHXJXJXJXJXJX",
"JXJXJXJXJXJXJXJXJXJXJXJXJXJXJXJXJXJXJXJXJXHXHXaXo.~ c.-X_.4.6.s.6.0.f./ z.2X5Xb.` _ ~ / 7.9.i.7.7.e.f.f.9.S 1 6 5 6 8 5 : w q 6 8 8 9 8 6 6 6 7 3 3 M *XkXJXJXJXJXJXJX",
"JXJXJXJXJXJXJXJXJXJXJXJXJXJXJXJXJXJXJXJXHXJXVX;X` ( ` n.x.r.s.9.6.s.f./ z.@X@.X.~ ^ ) 8.9.s.f.9.8.s.f.f.f.8.r 7 8 8 8 5 ; 6 8 8 8 8 8 8 6 6 - > } 1.4XBXDXJXJXJXJXHXJX",
"JXJXJXJXJXJXJXJXJXJXJXJXJXJXJXJXJXJXJXJXHXCX,Xz./ 9.i.i.q.a.e.9.9.f.f.) ` X._ ^ ) 7.8.s.f.g.f.s.s.s.f.s.g.d.D 1 6 8 8 8 8 8 8 8 6 6 6 ; > : | ,.0XZXJXJXJXJXJXJXJXJXJX",
"JXJXJXJXJXJXJXJXJXJXJXJXJXJXJXJXJXHXJXHXHXyXx.5.w.i.f.f.0.9.9.9.s.s.e.) ~ K / 7.w.9.s.f.f.s.f.f.f.f.f.f.f.f.) i 5 8 8 8 8 8 8 6 6 ; - 4 | >.sXFXJXJXJXJXJXHXJXJXJXJXJX",
"JXJXJXJXJXJXJXJXJXJXJXJXJXJXJXJXJXJXJXDXHXqXz.9.s.9.s.f.s.8.8.9.e.0.9.) ) 7.7.7.e.s.f.f.f.s.s.d.s.f.s.f.f.f.9.A , 6 8 8 8 6 6 ; - w v ;.0XZXFXFXJXFXJXJXJXJXJXJXJXJXJX",
"JXJXJXJXJXJXJXJXJXJXJXJXJXJXJXJXJXJXJXHXCX;Xd.s.f.f.s.f.w.7.7.9.9.9.) ) 7.8.d.f.f.f.i.s.f.f.f.9.9.f.f.f.s.f.s.( 1 5 8 6 5 ; - : 4 :.0XZXDXJXJXJXJXJXJXJXJXJXJXFXJXJXJX",
"JXJXJXJXJXJXJXJXJXJXJXJXJXJXJXJXJXJXHXHXDX,Xz.0.f.f.e.s.9.) 8.0.8.8.7.7.9.e.s.f.f.s.9.9.f.f.f.w.s.f.f.f.f.f.f.r.t ; 8 6 5 5 - 2 | %X=X=XkXDXJXJXJXJXJXJXJXJXJXJXJXJXJX",
"JXJXJXJXJXJXJXJXJXJXJXJXJXJXJXJXJXJXHXHXnX-Xs.s.f.s.d.i.7.^ 7.0.9.7.8.0.f.s.f.s.f.f.s.s.s.f.s.f.s.i.i.s.s.g.g.9.< ; 8 8 8 8 8 8 0 e e q ;.kXHXJXJXJXJXJXJXJXJXJXJXJXJX",
"JXJXJXJXJXJXJXJXJXJXJXJXJXJXJXJXJXJXHXzX:Xz.e.f.s.f.9.7./ K ~ 9.7.7.9.f.f.f.f.f.e.s.f.f.f.f.f.f.f.f.s.s.s.f.s.] r 5 8 8 8 8 8 8 8 9 #.9 b %XZXJXJXJXJXJXJXJXJXJXJXJXJX",
"JXJXJXJXJXJXJXJXJXJXJXJXJXJXJXFXJXDXNX@.C ^ f.s.f.g.6.( I I 7.7.7.9.s.s.d.d.f.f.s.s.r.y.d.p.s.f.s.f.s.s.f.f.s.Q 1 5 6 8 8 8 8 8 8 9 9 #.0 N fXDXJXHXJXJXJXJXJXJXJXJXJX",
"JXJXJXJXJXJXJXJXJXJXJXJXJXJXJXJXJXBX#X+ @ 8.f.f.f.i.7.E D P ( / ) 9.g.h.g.g.f.f.f.s.] ] g.t.r.d.f.f.f.f.f.k.( p ; 5 8 8 8 8 8 8 8 6 8 8 9 0 %XMXGXJXJXJXJXHXJXJXJXJXJX",
"JXJXJXJXJXJXJXJXJXJXJXJXJXJXJXFXDX6X{ B ~ q.e.f.f.9./ S Z y d H ! p.F.F.g.e.f.f.f.f.] ] y.r.] a.f.f.f.f.f.0.A : 5 6 8 8 8 8 8 8 8 8 8 8 9 8 -.9XDXGXHXJXJXJXHXJXJXJXJX",
"JXJXJXJXJXJXJXJXJXJXJXJXJXJXJXAXuX_.P 4.4.4.u.4.p.y.~ E A A G G ' D.}.a.E ^ f.f.f.f.] H r.f.' ] s.s.f.f.8.Z : - 5 6 8 8 8 8 6 6 6 5 5 6 8 9 0 :.kXJXJXJXJXJXJXJXJXJXJX",
"JXJXJXJXJXJXJXJXJXJXJXJXJXJXJXAXrXU.E.I.P.A.C.M.4.6.Y Y E ! D ' _.}.D.E B W k.e.f.d.] G ] f.H ' s.k.g.( p : ; ; 6 8 8 9 #.8 5 5 5 ; ; ; 6 9 0 b 9XHXJXHXJXJXHXJXJXJXJX",
"JXJXJXJXJXJXJXJXJXJXJXJXJXJXJXlX X/.(.^.T.Y.I.J.J x z @ i A G S.oX{.A   . V e.k.f.k.] a ' f.G G f.! i 1 - - ; 5 6 8 8 9 $.#.5 * - ; ; ; ; 5 0 5 :.fXDXJXJXJXJXJXJXJXJX",
"JXJXJXJXJXJXJXJXJXJXJXJXJXJXJX1X[ E.~.Y.K.J.J.B.J M l 3 @ S ] XXtX'.8.B . + V 7.f.k.r.s T p.G G p.Q r - 5 5 ; ; 6 6 8 8 9 #.#.* 4 2 ; 5 ; 5 8 6 b =XCXJXHXJXJXJXJXJXJX",
"JXJXJXJXJXJXJXJXJXJXJXJXHXJXpX..P P.E.I.L.K.J.C.&.l l O % V F.tXtXF.l.E + % O.c.d.f.r.s G u.H a ] y.Q p : 5 5 ; 5 5 8 8 8 9 $.8 4 } x 2 - ; 5 8 7 ;.fXFXJXJXJXJXJXJXJX",
"JXJXJXJXJXJXJXJXJXJXHXJXJXDXOXo L ~.(.!.T.I.Y.L.*.D Z $ % Y ).iXeXl.l.~ B E [.6X-Xv.y.a a ] H q G a.k.( i 1 - 5 ; 5 5 8 8 8 9 $.0 | <.>.l > - 7 5 w 2.ZXFXFXJXJXJXJXJX",
"JXJXJXJXJXJXJXJXJXJXJXJXzX<X{   F ~.(.^.!.T.Y.L.*.( C C % E `.rXeXh.f.7.~ 5.n.lXdX-Xa.a s ' r.d s R ] j.y.A 1 - ; ; 5 6 8 8 8 9 #.e 1.0X+X} g > 6 ; N fXDXJXFXJXJXJXJX",
"JXJXJXJXJXJXJXHXHXJXDXBX<.h   . F Q.(.^.!.Y.L.J.*.x # % % V s.{.oXh.0.0.0.0.x.2XVXjX].d 0 G y.f.] G G ] g.k.! p : ; ; 5 6 8 8 8 #.9 e 2.VXaX+.l 2 - 4 ,.vXJXJXJXJXJXJX",
"JXJXJXJXJXJXJXJXHXJXBX$Xc $ f p *.E.~.Q.Y.L.C.J.N.d $ % # V 0.v.`.h.) s.l.j.z.;XBXVX+.3 5 q d r.k.g.] P ] f.s.) i : - 5 5 6 8 8 8 #.0 -.jXsX} k 3 2 * c 1XFXJXJXJXJXJX",
"JXJXHXJXJXHXHXDXVX0X .# o o y B.Y.A.I.P.L.L.Y.Y.C.G # + % X.9.l.`.).r.g.l.i./ ..<X$Xl X & = : a H p.k.s.a.d.f.f.d.Q t - 5 5 6 8 8 #.6 } <X+X4 * 1 t u | >.vXGXJXHXJXJX",
"JXJXJXJXHXJXSXdX+X} k f # o &.Y.!.P.E.~.^.!.Y.K.M.H % % #X-X5.F.oX.XS.~ Q A i O c l 7 2 1 t y G d H a.g.f.f.s.g.g.6.Z = 5 5 6 8 #.8 > j c l , > r o T 9X9XvXGXJXJXJXJX",
"JXJXHXJXJXzX$X} z h 3 l @ o a J.P.K.E.(.~.P.M.m.u.9.7.` -Xn.7.).|._.' u o & * X X - ; 3 < t A y.] ' ' r.f.f.f.s.7.z.T 4 ; 5 8 8 9 - & X X X ; > 4 3 >.CXZXDXJXJXJXJXJX",
"JXJXJXHXzX<.c f l M z k j O u d J *.V.P.V.4.r.9.e.s.i.s.` Q D P ' H y < & * ; - > ; & = = @ Q k.k.y.] r.f.f.0.6.u.[.>.g ; 6 6 9 6 * * - * - - * X k +XSXHXJXJXJXJXJXJX",
"JXHXJXjX<.k j M M M n x j f O O h k J J S ~ w.d.i.f.9.! i r r t t t t 1 & = - & * 4 4 2 & i 8.f.f.k.f.s.i.0.3.M.U.|.,.v 5 8 8 9 - & * - - X 4 } c } 1XDXHXHXJXJXJXJXJX",
"JXJXDX+X$ O h k x M M N &.J F G n k j f @ ^ g.f.0.f.6.A t t t t t t d R n o o o u  .+X+.U Q f.s.s.s.s.s.7.K m.A.P.H.-.g 5 6 9 , < < & 2 l $  .dXjX5X6XNXVXCXHXJXJXJXJX",
"JXJXSX+.k O O O k M v R B.K.B.*.&.G j z Z ^ f.f.f.f.p.Q y t r Z Z I _. X_.A S I U 1XNXjX$Xo.` i.f.g.9./ ~ / / P x.[.T , 6 8 6 2 l } z c &X&X*XzXCXNXdX7XpXdXzXHXJXJXJX",
"JXJXJXVX3X{ j j h h l R J.J.K.L.J.J l j i W f.g.0.s.e.7.~ ~ o.c.q.y.h.v.S.a.i.z.:XzXCXDXCX<X@.a.p.^ ~ ) 9.e.w.7._ E u - 6 0 v *XzXDXCXVXHXBXaXzXVXVXBXNXzXzX5XNXJXJXJX",
"HXJXJXHXZX6X+.j u j h x &.*.B.J.B.*.n 3 O K s.f.f.f.e.d.6./ [.gX;Xx.z.z.z.] 9.z.wXzXBXVXVXzXaX@Xc.` 8.w.s.f.9./ ^ W r 7 6 g %XBXDXJXJXHXHXjXdXNXBXBXBXBXVXlX5XzXHXJXJX",
"JXJXJXJXJXHXBX*X} j j j j l n &.&.&.N f k S 6.0.0.0.7.~ z.;XbXGXCXbXjXwX<X#Xn.:XzXBXBXBXBXVXVXzX<Xz.s.e.8.^ E S W ~ p ; w ,.vXJXJXHXzXaXdXpXzXBXBXBXBXSXDXdXdXCXJXJXJX",
"JXJXJXJXJXJXJXCX4X+.z f u h f j &.=.*.[ ].].x.z.) ` a.n.qXBXGXJXJXHXCXdXjXdXyXdXBXBXBXBXBXCXHXzX:Xc.` S i B W ~ W W p - N sXDXFXJXBXaXpXaXaXBXNXBXVXSXHXBXaXVXHXJXJXJX",
"JXJXJXJXJXJXHXJXDXdX<.} 3 O O h &.L.K.D.8XkXyX2X,X,XqXhXDXJXJXJXHXHXdXaXBXSXCXCXVXVXCXCXDXDXBXpX2X@XU @ i V ) w.9.! r l ].ZXFXJXDXaXaXVXzXBXVXCXCXSXVXzXaXzXSXJXJXJXJX",
"JXJXJXJXJXJXJXJXJXJXSX6X .k O u G B.L.J.R.uXDXJXJXJXJXJXJXHXJXJXJXDXzXjXdXjXVXSXSXDXSXVXVXbXaXjXFXkX].Y E 7.~ 7.s.K u >.vXHXJXFXVXaXjXVXNXSXCXDXDXMXaXaXjXHXJXJXJXJXJX",
"JXJXJXJXJXJXJXJXJXHXDXHX7X .$ f j &.=.J.N.8XmXDXGXDXHXGXJXJXJXJXJXHXDXzXwX7XjXBXNXBXjXaXaXdXjXDXFXSX,X` V W ^ ) ^ B M 1XZXJXJXJXZXjXjXaXpXzXzXzXjXaXdXzXHXJXHXJXJXJXJX",
"JXJXJXJXJXJXJXGXJXJXJXJXJX*Xc $ f n &.=.N..XmXJXJXJXJXJXJXHXJXJXJXJXJXJXDXzXdXdXjXjXaXdXzXDXJXJXJXJXCX;Xq.W W _ c.].3XCXHXJXJXFXJXHXMXdXaXdXdXdXdXzXJXJXJXJXJXJXJXJXJX",
"JXJXJXJXJXJXJXJXJXJXJXHXHX7X} o o c ]. X.XuXGXJXJXJXJXJXJXHXJXJXHXJXJXHXJXHXDXDXDXDXDXDXDXJXHXHXHXJXHXbXwX,X-X,XyXzXSXHXJXJXJXJXJXJXHXSXDXDXHXDXDXHXJXJXJXJXJXJXJXJXJX",
"JXJXJXJXJXJXJXJXHXJXJXJXJXSX+X} <.0XBXAXAXFXFXJXJXJXJXJXJXJXJXJXJXJXJXJXJXJXJXJXJXJXHXJXJXJXJXJXJXJXJXJXHXDXAXSXJXJXJXJXJXJXJXJXJXJXJXJXJXJXJXJXJXJXJXHXJXJXJXJXJXJXJX",
"JXJXJXJXJXJXJXJXJXJXJXJXJXJXdX6XkXDXJXJXJXJXFXJXJXJXJXJXJXJXJXJXJXJXJXJXJXJXJXJXHXJXHXJXJXHXJXJXJXJXJXHXJXJXJXJXJXHXJXJXJXJXJXJXJXJXJXJXHXJXJXJXJXJXJXJXJXJXJXJXJXJXJX",
"JXJXJXJXJXJXJXJXJXJXJXJXJXJXJXHXJXJXFXJXJXJXJXJXJXJXJXJXJXJXJXJXJXJXJXJXJXJXJXJXJXJXJXJXJXJXJXJXJXJXJXJXHXJXHXJXJXHXJXJXJXJXJXJXJXJXJXJXJXJXJXJXJXJXJXJXJXJXJXJXJXJXJX",
"JXJXJXJXJXJXJXJXJXJXJXJXJXJXJXJXGXJXJXJXJXJXJXJXJXJXJXJXJXJXJXJXJXJXJXJXJXJXJXJXJXJXJXJXJXJXJXJXJXJXJXJXJXJXJXJXJXJXJXJXJXJXJXJXJXJXJXJXJXJXJXJXJXJXJXJXJXJXJXJXJXJXJX",
"JXJXJXJXJXJXJXJXJXJXJXJXJXJXHXJXJXJXGXJXJXJXJXHXJXJXJXJXJXJXJXJXJXJXJXJXJXJXJXJXJXJXJXJXJXJXJXJXJXJXJXJXJXJXJXJXJXJXJXJXJXJXJXJXJXJXJXJXJXJXJXJXJXJXJXJXJXJXJXJXJXJXJX",
"JXJXJXJXJXJXJXJXJXJXJXJXJXJXJXJXJXJXJXJXJXJXJXJXJXGXJXJXJXJXJXJXJXJXJXJXJXJXJXJXJXJXJXJXJXJXJXJXJXJXJXJXJXJXJXJXJXJXJXJXJXJXJXJXJXJXJXJXJXJXJXJXJXJXJXJXJXJXJXJXJXJXJX",
"JXJXJXJXJXJXJXJXJXJXJXJXJXJXJXJXJXJXJXJXGXJXJXJXJXJXJXJXJXJXJXJXJXJXJXJXJXJXJXJXJXJXJXJXJXJXJXJXJXJXJXJXJXJXJXJXJXJXJXJXJXJXJXJXJXJXJXJXJXJXJXJXJXJXJXJXJXJXJXJXJXJXJX",
"JXJXJXJXJXJXJXJXJXJXJXJXJXJXJXJXJXJXJXJXJXJXJXJXJXJXJXJXJXJXJXJXJXJXJXJXJXJXJXJXJXJXJXJXJXJXJXJXJXJXJXJXJXJXJXJXJXJXJXJXJXJXJXJXJXJXJXJXJXJXJXJXJXJXJXJXJXJXJXJXJXJXJX",
"JXJXJXJXJXJXJXJXJXJXJXJXJXJXJXJXJXJXJXJXJXJXJXJXJXJXJXJXJXJXJXJXJXJXJXJXJXJXJXJXJXJXJXJXJXJXJXJXJXJXJXJXJXJXJXJXJXJXJXJXJXJXJXJXJXJXJXJXJXJXJXJXJXJXJXJXJXJXJXJXJXJXJX",
"JXJXJXJXJXJXJXJXJXJXJXJXJXJXJXJXJXJXJXJXJXJXJXJXJXJXJXJXJXJXJXJXJXJXJXJXJXJXJXJXJXJXJXJXJXJXJXJXJXJXJXJXJXJXJXJXJXJXJXJXJXJXJXJXJXJXJXJXJXJXJXJXJXJXJXJXJXJXJXJXJXJXJX",
"JXJXJXJXJXJXJXJXJXJXJXJXJXJXJXJXJXJXJXJXJXJXJXJXJXJXJXJXJXJXJXJXJXJXJXJXJXJXJXJXJXJXJXJXJXJXJXJXJXJXJXJXJXJXJXJXJXJXJXJXJXJXJXJXJXJXJXJXJXJXJXJXJXJXJXJXJXJXJXJXJXJXJX",
"JXJXJXJXJXJXJXJXJXJXJXJXJXJXJXJXJXJXJXJXJXJXJXJXJXJXJXJXJXJXJXJXJXJXJXJXJXJXJXJXJXJXJXJXJXJXJXJXJXJXJXJXJXJXJXJXJXJXJXJXJXJXJXJXJXJXJXJXJXJXJXJXJXJXJXJXJXJXJXJXJXJXJX",
"JXJXJXJXJXJXJXJXJXJXJXJXJXJXJXJXJXJXJXJXJXJXJXJXJXJXJXJXJXJXJXJXJXJXJXJXJXJXJXJXJXJXJXJXJXJXJXJXJXJXJXJXJXJXJXJXJXJXJXJXJXJXJXJXJXJXJXJXJXJXJXJXJXJXJXJXJXJXJXJXJXJXJX",
"JXJXJXJXJXJXJXJXJXJXJXJXJXJXJXJXJXJXJXJXJXJXJXJXJXJXJXJXJXJXJXJXJXJXJXJXJXJXJXJXJXJXJXJXJXJXJXJXJXJXJXJXJXJXJXJXJXJXJXJXJXJXJXJXJXJXJXJXJXJXJXJXJXJXJXJXJXJXJXJXJXJXJX",
"JXJXJXJXJXJXJXJXJXJXJXJXJXJXJXJXJXJXJXJXJXJXJXJXJXJXJXJXJXJXJXJXJXJXJXJXJXJXJXJXJXJXJXJXJXJXJXJXJXJXJXJXJXJXJXJXJXJXJXJXJXJXJXJXJXJXJXJXJXJXJXJXJXJXJXJXJXJXJXJXJXJXJX",
"JXJXJXJXJXHXJXJXJXJXJXJXJXJXJXJXJXJXJXJXJXJXJXJXJXJXJXJXJXJXJXJXJXJXJXJXJXJXJXJXJXJXJXJXJXJXJXJXJXJXJXJXJXJXJXJXJXJXJXJXJXJXJXJXJXJXJXJXJXJXJXJXJXJXJXJXJXJXJXJXJXJXJX",
"JXJXJXJXJXJXJXJXJXJXJXJXJXJXJXJXJXJXJXJXJXJXJXJXJXJXJXJXJXJXJXJXJXJXJXJXJXJXJXJXJXJXJXJXJXJXJXJXJXJXJXJXJXJXJXJXJXJXJXJXJXJXJXJXJXJXJXJXJXJXJXJXJXJXJXJXJXJXJXJXJXJXJX",
"JXJXJXJXJXJXJXJXJXJXJXJXJXJXJXJXJXJXJXJXJXJXJXJXJXJXJXJXJXJXJXJXJXJXJXJXJXJXJXJXJXJXJXJXJXJXJXJXJXJXJXJXJXJXJXJXJXJXJXJXJXJXJXJXJXJXJXJXJXJXJXJXJXJXJXJXJXJXJXJXJXJXJX",
"JXJXJXJXJXJXJXJXJXJXJXJXJXJXJXJXJXJXJXJXJXJXJXJXJXJXJXJXJXJXJXJXJXJXJXJXJXJXJXJXJXJXJXJXJXJXJXJXJXJXJXJXJXJXJXJXJXJXJXJXJXJXJXJXJXJXJXJXJXJXJXJXJXJXJXJXJXJXJXJXJXJXJX",
"JXJXJXJXJXJXJXJXJXJXJXJXJXJXJXJXJXJXJXJXJXJXJXJXJXJXJXJXJXJXJXJXJXJXJXJXJXJXJXJXJXJXJXJXJXJXJXJXJXJXJXJXJXJXJXJXJXJXJXJXJXJXJXJXJXJXJXJXJXJXJXJXJXJXJXJXJXJXJXJXJXJXJX",
"JXJXJXJXVXJXJXJXJXJXJXJXJXJXJXJXJXJXJXJXJXJXJXJXJXJXJXJXJXJXJXJXJXJXJXJXJXJXJXJXJXJXJXJXJXJXJXJXJXJXJXJXJXJXJXJXJXJXJXJXJXJXJXJXJXJXJXJXJXJXJXJXJXJXJXJXJXJXJXJXJXJXJX",
"JXJXJXJXJXJXJXJXJXJXJXJXJXJXJXJXJXJXJXJXJXJXJXJXJXJXJXJXJXJXJXJXJXJXJXJXJXJXJXJXJXJXJXJXJXJXJXJXJXJXJXJXJXJXJXJXJXJXJXJXJXJXJXJXJXJXJXJXJXJXHXJXJXJXJXJXJXJXJXJXJXJXJX",
"JXJXJXJXJXJXJXJXJXJXJXJXJXJXJXJXJXJXJXJXJXJXJXJXJXJXJXJXJXJXJXJXJXJXJXJXJXJXJXJXJXJXJXJXJXJXJXJXJXJXJXJXJXJXJXJXJXJXJXJXJXJXJXJXJXJXJXJXJXJXJXHXJXJXJXJXJXJXJXJXJXJXJX",
"JXJXJXJXJXJXJXJXJXJXJXJXJXJXJXJXJXJXJXJXJXJXJXJXJXJXJXJXJXJXJXJXJXJXJXJXJXJXJXJXJXJXJXJXJXJXJXJXJXJXJXJXJXJXJXJXJXJXJXJXJXJXJXJXJXJXJXJXJXJXJXJXJXJXJXJXJXJXJXJXJXJXJX"
};
