/* XPM */
static char *result[] = {
/* columns rows colors chars-per-pixel */
"83 93 252 2 ",
"   c #080707",
".  c #151111",
"X  c #320E09",
"o  c #2A1717",
"O  c #381A19",
"+  c #1D2516",
"@  c #2E2E14",
"#  c #3B2218",
"$  c #341B25",
"%  c #292928",
"&  c #3F2424",
"*  c #35362C",
"=  c #4B0505",
"-  c #450806",
";  c #530303",
":  c #5C0202",
">  c #550B08",
",  c #5C0B0C",
"<  c #4B1804",
"1  c #54170B",
"2  c #48191A",
"3  c #5B1616",
"4  c #630202",
"5  c #6C0201",
"6  c #660B0C",
"7  c #720101",
"8  c #7A0102",
"9  c #740B0C",
"0  c #6B180B",
"q  c #641313",
"w  c #681A1A",
"e  c #751515",
"r  c #48280C",
"t  c #5A2706",
"y  c #58340C",
"u  c #472619",
"i  c #4E3110",
"p  c #453C16",
"a  c #583916",
"s  c #693512",
"d  c #411D21",
"f  c #432322",
"g  c #4B2424",
"h  c #48292B",
"j  c #582625",
"k  c #532B2A",
"l  c #5B2C2D",
"z  c #49372C",
"x  c #563627",
"c  c #593733",
"v  c #672627",
"b  c #732728",
"n  c #67372A",
"m  c #76342E",
"M  c #662F31",
"N  c #653332",
"B  c #6A3837",
"V  c #793838",
"C  c #335314",
"Z  c #3D6813",
"A  c #3C482B",
"S  c #564717",
"D  c #524D1A",
"F  c #694619",
"G  c #6B571C",
"H  c #785411",
"J  c #456A1C",
"K  c #4B761E",
"L  c #57711C",
"P  c #656618",
"I  c #69791C",
"U  c #7B7916",
"Y  c #514D2C",
"T  c #465A22",
"R  c #6E4F2A",
"E  c #496925",
"W  c #566724",
"Q  c #4D7627",
"!  c #537525",
"~  c #577928",
"^  c #537D2B",
"/  c #557035",
"(  c #577936",
")  c #696925",
"_  c #687928",
"`  c #71763A",
"'  c #763F40",
"]  c #5B5352",
"[  c #794746",
"{  c #6B524D",
"}  c #795857",
"|  c #5C7941",
" . c #617E45",
".. c #716A50",
"X. c #776E6C",
"o. c #860101",
"O. c #841818",
"+. c #873838",
"@. c #895E05",
"#. c #835A19",
"$. c #8B6508",
"%. c #94710D",
"&. c #A37B0A",
"*. c #8D6E23",
"=. c #813F41",
"-. c #884748",
";. c #984647",
":. c #95494A",
">. c #8D5455",
",. c #875958",
"<. c #A44C4D",
"1. c #8E724A",
"2. c #82675B",
"3. c #8D6867",
"4. c #976C6C",
"5. c #887877",
"6. c #977979",
"7. c #A77979",
"8. c #72881E",
"9. c #4F802A",
"0. c #578626",
"q. c #56822B",
"w. c #5A852C",
"e. c #5C8B2D",
"r. c #5D922C",
"t. c #5A8232",
"y. c #5D8C30",
"u. c #5F9131",
"i. c #66852A",
"p. c #648D2D",
"a. c #61922E",
"s. c #64972C",
"d. c #628F31",
"f. c #64883B",
"g. c #748F32",
"h. c #639432",
"j. c #689536",
"k. c #659933",
"l. c #689A35",
"z. c #67A236",
"x. c #698846",
"c. c #6C9545",
"v. c #71974B",
"b. c #6B8852",
"n. c #768A5A",
"m. c #779856",
"M. c #7B8B6A",
"N. c #7C9666",
"B. c #7FA16E",
"V. c #888B16",
"C. c #939010",
"Z. c #AA8807",
"A. c #B28D06",
"S. c #A8980B",
"D. c #B69707",
"F. c #9EA416",
"G. c #B4A714",
"H. c #928A34",
"J. c #B19831",
"K. c #9AA33A",
"L. c #B2A138",
"P. c #C39C03",
"I. c #C79E09",
"U. c #C09D17",
"Y. c #C5A607",
"T. c #CBA303",
"R. c #D6AC03",
"E. c #CCB30C",
"W. c #D6B405",
"Q. c #E3B502",
"!. c #CDB732",
"~. c #DAC404",
"^. c #DACD0D",
"/. c #E6C904",
"(. c #F7CA02",
"). c #E8D805",
"_. c #F6DA01",
"`. c #F5E803",
"'. c #FBF103",
"]. c #A4975C",
"[. c #8DA651",
"{. c #B0A656",
"}. c #8D856F",
"|. c #859765",
" X c #8A9A79",
".X c #89AC68",
"XX c #8DB36D",
"oX c #91AB73",
"OX c #B7B06B",
"+X c #CBB154",
"@X c #C3B365",
"#X c #CBB971",
"$X c #D2C758",
"%X c #D3C571",
"&X c #D6C775",
"*X c #E2C46B",
"=X c #998887",
"-X c #8F9188",
";X c #969795",
":X c #A78787",
">X c #A8948D",
",X c #A79797",
"<X c #B39A9B",
"1X c #99A989",
"2X c #9CAF8D",
"3X c #A8AC98",
"4X c #B0AD92",
"5X c #A6B597",
"6X c #AB9AAC",
"7X c #AAA7A5",
"8X c #B8A7A7",
"9X c #B4AFAF",
"0X c #B8B6A8",
"qX c #BAB9B7",
"wX c #C9BD81",
"eX c #C3B3AC",
"rX c #C4B8B7",
"tX c #B9C5B1",
"yX c #D1C791",
"uX c #C5C9BC",
"iX c #D4CFB2",
"pX c #E1DCB1",
"aX c #F7E5A7",
"sX c #79B229",
"dX c #79B229",
"fX c #79B229",
"gX c #79B229",
"hX c #79B229",
"jX c #79B229",
"kX c #79B229",
"lX c #79B229",
"zX c #79B229",
"xX c #79B229",
"cX c #79B229",
"vX c #79B229",
"bX c #79B229",
"nX c #79B229",
"mX c #79B229",
"MX c #79B229",
"NX c #79B229",
"BX c #79B229",
"VX c #79B229",
"CX c #79B229",
"ZX c #79B229",
"AX c #79B229",
"SX c #79B229",
"DX c #79B229",
"FX c #79B229",
"GX c #79B229",
"HX c #79B229",
"JX c #79B229",
"KX c #79B229",
/* pixels */
"KXKXKXJXJXJXKXKXKXKXKXKXKXKXKXKXKXKXKXKXKXKXKXKXKXKXKXKXKXKXKXKXKXKXKXKXKXKXKXKXKXKXKXKXKXKXKXKXKXKXKXKXKXKXKXKXKXKXKXKXKXKXKXKXKXKXKXKXKXKXKXKXKXKXKXKXKXKXKXKXKXKXKX",
"KXKXKXKXKXJXJXKXKXKXKXKXKXKXKXKXKXKXKXKXKXKXKXKXKXKXKXKXKXKXKXKXKXKXKXKXKXKXKXKXKXKXKXKXKXKXKXKXKXKXKXKXKXKXKXKXKXKXKXKXKXKXKXKXKXKXKXKXKXKXKXKXKXKXKXKXKXKXKXKXKXKXKX",
"KXKXKXKXKXJXJXJXKXKXKXKXKXKXKXKXKXKXKXKXKXKXKXKXKXKXKXKXKXKXKXKXKXKXKXKXKXKXKXKXKXKXKXKXKXKXKXKXKXKXKXKXKXKXKXKXKXKXKXKXKXKXKXKXKXKXKXKXKXKXKXKXKXKXKXKXKXKXKXKXKXKXKX",
"KXKXKXJXKXKXKXFXFXJXKXKXKXKXKXKXKXKXKXKXKXKXKXKXKXKXKXKXKXKXKXKXKXKXKXKXKXKXKXKXKXKXKXKXKXKXKXKXKXKXKXKXKXKXKXKXKXKXKXKXKXKXKXKXKXKXKXKXKXKXKXKXKXKXKXKXKXKXKXKXKXKXKX",
"KXKXKXKXKXKXKXKXJXJXJXKXKXKXKXKXKXKXKXKXKXKXKXKXKXKXKXKXKXKXKXKXKXKXKXKXKXKXKXKXKXKXKXKXKXKXKXKXKXKXKXKXKXKXKXKXKXKXKXKXKXKXKXKXKXKXKXKXKXKXKXKXKXKXKXKXKXKXKXKXKXKXKX",
"KXKXKXKXKXKXKXKXKXJXJXJXJXKXKXKXKXKXKXKXKXKXKXKXKXKXKXKXKXKXKXKXKXKXKXKXKXKXKXKXKXKXKXKXKXKXKXKXKXKXKXKXKXKXKXKXKXKXKXKXKXKXKXKXKXKXKXKXKXKXKXKXKXKXKXKXKXKXKXKXKXKXKX",
"KXKXKXKXKXKXKXKXKXKXJXJXJXKXKXKXKXKXKXKXKXKXKXKXKXKXKXKXKXKXKXKXKXKXKXKXKXKXKXKXKXKXKXKXKXKXKXKXKXKXKXKXKXKXKXKXKXKXKXKXKXKXKXKXKXKXKXKXKXKXKXKXKXKXKXKXKXKXKXKXKXKXKX",
"KXKXKXKXKXKXKXKXKXKXKXKXFXJXJXKXKXKXKXKXKXKXKXKXKXKXKXKXKXKXKXKXKXKXKXKXKXKXKXKXKXKXKXKXKXKXKXKXKXKXKXKXKXKXKXKXKXKXKXKXKXKXKXKXKXKXKXKXKXKXKXKXKXKXKXKXKXKXKXKXKXKXKX",
"KXKXKXKXKXKXKXKXKXKXKXKXJXJXJXJXKXKXKXKXKXKXKXKXKXKXKXKXKXKXKXKXKXKXKXKXKXKXKXKXKXKXKXKXKXKXKXKXKXKXKXKXKXKXKXKXKXKXKXKXKXKXKXKXKXKXKXKXKXKXKXKXKXKXKXKXKXKXKXKXKXKXKX",
"KXKXKXKXKXKXKXKXKXKXKXKXKXKXJXJXJXKXKXKXKXKXKXKXKXKXKXKXKXKXKXKXKXKXKXKXKXKXKXKXKXKXKXKXKXKXKXKXKXKXKXKXKXKXKXKXKXKXKXKXKXKXKXKXKXKXKXKXKXKXKXKXKXKXKXKXKXKXKXKXKXKXKX",
"KXKXKXKXKXKXKXKXKXKXKXKXKXKXKXJXJXKXKXKXKXKXKXKXKXKXKXKXKXKXKXKXKXKXKXKXKXKXKXKXKXKXKXKXKXKXKXKXKXKXKXKXKXKXKXKXKXKXKXKXKXKXKXKXKXKXKXKXKXKXKXKXKXKXKXKXKXKXKXKXKXKXKX",
"KXKXKXKXKXKXKXKXKXKXKXKXKXKXKXKXJXJXJXKXKXKXKXKXKXKXKXKXKXKXKXKXKXKXKXKXKXKXKXKXKXKXKXKXKXKXKXKXKXKXKXKXKXKXKXKXKXKXKXKXKXKXKXKXKXKXKXKXKXKXKXKXKXKXKXKXKXKXKXKXKXKXKX",
"KXKXKXKXKXKXKXKXKXKXKXKXKXKXKXKXKXJXFXJXKXKXKXKXKXKXKXKXKXKXKXKXKXKXKXKXKXKXKXKXKXKXKXKXKXKXKXKXKXKXKXKXKXKXKXKXKXKXKXKXKXKXKXKXKXKXKXKXKXKXKXKXKXKXKXKXKXKXKXKXKXKXKX",
"KXKXKXKXKXKXKXKXKXKXKXKXKXKXKXKXKXKXJXJXJXJXKXKXKXKXKXKXKXKXKXKXKXKXKXKXKXKXKXKXKXKXKXKXKXKXKXKXKXKXKXKXKXKXKXKXKXKXKXKXKXKXKXKXKXKXKXKXKXKXKXKXKXKXKXKXKXKXKXKXKXKXKX",
"KXKXKXKXKXKXKXKXKXKXKXKXKXKXKXKXKXKXKXJXJXJXKXKXKXKXKXKXKXKXKXKXKXKXKXKXKXKXKXKXKXKXKXKXKXKXKXKXKXKXKXKXKXKXKXKXKXKXKXKXKXKXKXKXKXKXKXKXKXKXKXKXKXKXKXKXKXKXKXKXKXKXKX",
"KXKXKXKXKXKXKXKXKXKXKXKXKXKXKXKXKXKXKXKXKXJXJXJXKXKXKXKXKXKXKXKXKXKXKXKXKXKXKXKXKXKXKXKXKXKXKXKXKXKXKXKXKXKXKXKXKXKXKXKXKXKXKXKXKXKXKXKXKXKXKXKXKXKXKXKXKXKXKXKXKXKXKX",
"KXKXKXKXKXKXKXKXKXKXKXKXKXKXKXKXKXKXKXKXKXKXJXFXKXKXJXKXKXKXKXKXKXKXKXKXKXKXKXKXKXKXKXKXKXKXKXKXKXKXKXKXKXKXKXKXKXKXKXKXKXKXKXKXKXKXKXKXKXKXKXKXKXKXKXKXKXKXKXKXKXKXKX",
"KXKXKXKXKXKXKXKXKXKXKXKXKXKXKXKXKXKXKXKXKXKXKXJXJXKXKXKXKXKXKXKXKXKXKXKXKXKXKXKXKXKXKXKXKXKXKXKXKXKXKXKXKXKXKXKXKXKXKXKXKXKXKXKXKXKXKXKXKXKXKXKXKXKXKXKXKXKXKXKXKXKXKX",
"KXKXKXKXKXKXKXKXKXKXKXKXKXKXKXKXKXKXKXKXKXKXKXJXJXJXJXKXKXKXKXKXKXKXKXKXKXKXKXKXKXKXKXKXKXKXKXKXKXKXKXKXKXKXKXKXKXKXKXKXKXKXKXKXKXKXKXKXKXKXKXKXKXKXKXKXKXKXKXKXKXKXKX",
"KXKXKXKXKXKXKXKXKXKXKXKXKXKXKXKXKXKXKXKXKXKXKXKXKXJXJXJXKXKXKXKXKXKXKXKXKXKXKXKXKXKXKXKXKXKXKXKXKXKXKXKXKXKXKXKXKXKXKXKXKXKXKXKXKXKXKXKXKXKXKXKXKXKXKXKXKXKXKXKXKXKXKX",
"KXKXKXKXKXKXKXKXKXKXKXKXKXKXKXKXKXKXKXKXKXKXKXKXKXJXKXFXJXKXKXKXKXKXKXKXKXKXKXKXKXKXKXKXKXKXKXKXKXKXKXKXKXKXKXKXKXKXKXKXKXKXKXKXKXKXKXKXKXKXKXKXKXKXKXKXKXKXKXKXKXKXKX",
"KXKXKXKXKXKXKXKXKXKXKXKXKXKXKXKXKXKXKXKXKXKXKXKXKXKXKXJXJXJXJXKXKXKXKXKXKXKXKXKXKXKXKXKXKXKXKXKXKXKXKXKXKXKXKXKXKXKXKXKXKXKXKXKXKXKXKXKXKXKXKXKXKXKXKXKXKXKXKXKXKXKXKX",
"KXKXKXKXKXKXKXKXKXKXKXKXKXKXKXKXKXKXKXKXKXKXKXKXKXKXJXKXKXJXJXKXKXKXKXKXKXKXKXKXKXKXKXKXKXKXKXKXKXKXKXKXKXKXKXKXKXKXKXKXKXKXKXKXKXKXKXKXKXKXKXKXKXKXKXKXKXKXKXKXKXKXKX",
"KXKXKXKXKXKXKXKXKXKXKXKXKXKXKXKXKXKXKXKXKXKXKXKXKXKXKXKXKXKXJXJXJXKXKXKXKXKXKXKXKXKXKXKXKXKXKXKXKXKXKXKXKXKXKXKXKXKXKXKXKXKXKXKXKXKXKXKXKXKXKXKXKXKXKXKXKXKXKXKXKXKXKX",
"KXKXKXKXKXKXKXKXKXKXKXKXKXKXKXKXKXKXKXKXKXKXKXKXKXKXKXKXKXKXJXFXJXJXKXKXKXKXKXKXKXKXKXKXKXKXKXKXKXKXKXKXKXKXKXKXKXKXKXKXKXKXKXKXKXKXKXKXKXKXKXKXKXKXKXKXKXKXKXKXKXKXKX",
"KXKXKXKXKXKXKXKXKXKXKXKXKXKXKXKXKXKXKXKXKXKXKXKXKXKXKXKXKXKXKXKXJXJXJXKXKXKXKXKXKXKXKXKXKXKXKXKXKXKXKXKXKXKXKXKXKXKXKXKXKXKXKXKXKXKXKXKXKXKXKXKXKXKXKXKXKXKXKXKXKXKXKX",
"KXKXKXKXKXKXKXKXKXKXKXKXKXKXKXKXKXKXKXKXKXKXKXKXKXKXKXKXKXKXKXKXKXFXFXKXKXJXKXKXKXKXKXKXKXKXKXKXKXKXKXKXKXKXKXKXKXKXKXKXKXKXKXKXKXKXKXKXKXKXKXKXKXKXKXKXKXKXKXKXKXKXKX",
"KXKXKXKXKXKXKXKXKXKXKXKXKXKXKXKXKXKXKXKXKXKXKXKXKXKXKXKXKXKXKXKXKXKXJXJXJXKXKXKXKXKXKXKXKXKXKXKXKXKXKXKXKXKXKXKXKXKXKXKXKXKXKXKXKXKXKXKXKXKXKXKXKXKXKXKXKXKXKXKXKXKXKX",
"KXKXKXKXKXKXKXKXKXKXKXKXKXKXKXKXKXKXKXKXKXKXKXKXKXKXKXKXKXKXKXKXKXKXKXJXJXJXKXKXKXKXKXKXKXKXKXKXKXKXKXKXKXKXKXKXKXKXKXKXKXKXKXKXKXKXKXKXKXKXKXKXKXKXKXKXKXKXKXKXKXKXKX",
"KXKXKXKXKXKXKXKXKXKXKXKXKXKXKXKXKXKXKXKXKXKXKXKXKXKXKXKXKXKXKXKXKXKXKXKXJXJXFXKXKXKXKXKXKXHXKXKXKXKXKXKXKXKXKXKXKXKXKXKXKXKXKXKXKXKXKXKXKXKXKXKXKXKXKXKXKXKXKXKXKXKXKX",
"KXKXKXKXKXKXKXKXKXKXKXKXKXKXKXKXKXKXKXKXKXKXKXKXKXKXKXKXKXKXKXKXKXKXKXKXKXJXFXJXHXKXHXKXKXKXKXKXKXHXHXKXKXKXKXKXKXKXKXKXKXKXKXKXKXKXKXKXKXKXKXKXKXKXKXKXKXKXKXKXKXKXKX",
"KXKXKXKXKXKXKXKXKXKXKXKXKXKXKXKXKXKXKXKXKXKXKXKXKXKXKXKXKXKXKXKXKXKXKXKXKXKXKXFXFXFXDXKXHXKXHXKXCXpXCXHXKXKXKXKXKXKXKXKXKXKXKXKXKXKXKXKXKXKXKXHXKXKXKXKXKXKXKXKXKXKXKX",
"KXKXKXKXKXKXKXKXKXKXKXKXKXKXKXKXKXKXKXKXKXKXKXKXKXKXKXKXKXKXKXKXKXKXKXKXJXKXKXJXVXkXMXKXKXJXKXCX#XwXSXKXKXKXKXKXKXKXKXKXKXKXKXKXKXKXKXKXKXKXKXKXKXKXKXKXKXKXKXKXKXKXKX",
"KXKXKXKXKXKXKXKXKXKXKXKXKXKXKXKXKXKXKXKXKXKXKXKXKXKXKXKXKXKXKXKXKXKXKXKXHXVXVXMXdXtXdXFXKXJXCX#XL.iXHXKXKXKXKXKXKXKXKXKXKXKXKXKXHXKXKXKXJXKXKXKXGXKXKXKXKXKXKXKXKXKXKX",
"KXKXKXKXKXKXKXKXKXKXKXKXKXKXKXKXKXKXKXKXKXKXKXKXKXKXKXKXKXKXKXKXKXKXKXKXJXkXdXrX9X7XOXlXBXlX+XE.$XCXHXKXKXKXKXKXKXKXKXKXKXJXKXKXKXKXKXKXKXFXnXzXFXKXKXKXKXKXKXKXKXKXKX",
"KXKXKXKXKXKXKXKXKXKXKXKXKXKXKXKXKXKXKXKXKXKXKXKXKXKXKXKXKXKXKXKXKXKXKXJXKXNXqX9XqXOX!.%XyX@XQ.!.pXSXKXKXKXKXKXKXKXKXKXKXKXKXKXKXKXKXJXJXFXfX<XrXZXKXGXKXKXKXKXKXKXKXKX",
"KXKXKXKXKXKXKXKXKXKXKXKXKXKXKXKXKXKXKXKXKXKXKXKXKXKXKXKXKXKXKXKXKXKXKXKXJXKXgXsXuXL.S.C.D.T.E.$XMXHXHXKXKXKXKXKXKXKXKXKXKXKXKXKXKXJXFXZX8X{ ,.MXGXKXKXKXKXKXKXKXKXKXKX",
"KXKXKXKXKXKXKXKXKXKXKXKXKXKXKXKXKXKXKXKXKXKXKXKXKXKXKXKXKXKXKXKXKXKXKXHXJXJXdXdXiXU i.C.A.D.D.@XCXHXKXKXKXKXKXKXKXKXKXKXKXKXKXHXJXKXFX8XM N >XGXGXKXKXHXHXKXKXKXKXKXKX",
"KXKXKXKXKXKXKXKXKXKXKXKXKXKXKXKXKXKXKXKXKXKXKXKXKXKXKXKXKXKXKXKXKXKXHXHXgX2X9XqX|.^ Q S.D.D.G.^.%XcXHXHXGXJXKXHXJXHXKXKXKXJXJXHXZXfX3.w > 4.zXGXFXFXHXHXJXGXKXHXJXJXGX",
"KXKXKXKXKXKXKXKXKXKXKXKXKXKXKXKXKXKXKXKXKXKXKXKXKXKXKXKXKXKXKXKXJXKXJXjXN.M.;X Xf.e.~ S.D.E.).~.L.iXJXKXHXJXFXJXJXHXJXKXKXFXFXJX9X,.3 ; ' sXGXGXFXHXHXHXJXGXGXGXKXGXJX",
"KXKXKXKXKXKXKXKXKXKXKXKXKXKXKXKXKXKXKXKXKXKXKXKXKXKXKXKXKXKXKXKXKXKXhX X( M.M.f.y.u.Q %.A.).`.W.E.&XuXtX5X2X1X1X5XtXhXHXBX8X6.:XB : 4 w :XrX:X:X:X:X:X<X<X<X8X8X8X<XsX",
"KXKXKXKXKXKXKXKXKXKXKXKXKXKXKXKXKXKXKXKXKXKXKXKXKXKXKXKXKXJXKXKXHXVXoXQ  .n.x.e.u.u.Q U T./.~.^.^.G.n.| J J K K J ^ |.5X:XM = = ; 5 5 v 3.>., : : : 4 , 6 w w 3 N } 8X",
"KXKXKXKXKXKXKXKXKXKXKXKXKXKXKXKXKXKXKXKXKXKXKXKXKXKXKXHXKXKXHXKXHXuX| ^  . .d.a.p.h.Q V.R.R.W.^.G.0.Q ! ~ ^ w.h.k.k.u.T t 4 6 : 5 7 : 3 w 5 9 8 9 8 9 7 7 4 , 3 [ 7XZX",
"KXKXKXKXKXKXKXKXKXKXKXKXKXKXKXKXKXKXKXKXKXKXKXKXKXKXKXKXKXJXKXHXhXN.Z ( Q e.p.e.h.a.0.C.W.T.G.V.E ^ q.q.y.d.q.w.k.l.z.0.p > 5 5 7 5 : 4 5 5 7 7 7 7 7 4 , 3 [ <XJXKXKX",
"KXKXKXKXKXKXKXKXKXKXKXKXKXKXKXKXKXKXKXKXKXKXKXKXKXKXKXKXKXKXKXDX5X( q.E q.h.e.e.h.h.w.V.A.Z._ Q q.^ q.a.k.e.q.w.h.k.k.l.W i 5 7 7 7 7 7 7 7 5 5 5 4 ; > v 6.jXVXKXHXKX",
"KXKXKXKXKXKXKXKXKXKXKXKXKXKXKXKXKXKXKXKXKXKXKXJXKXJXJXFXVXVXVX5Xt.Q ^ ! e.h.y.y.k.d.~ P P ! Q ^ q.e.h.k.k.k.k.k.h.k.s.l.s.D > 5 7 7 7 5 5 5 5 4 ; > l 6.fXZXKXKXKXKXKX",
"KXKXKXKXKXKXKXKXKXKXKXKXKXKXKXKXKXKXKXKXKXKXKXKXKXJXAXuX2X1X1Xb.Q q.Q Q u.y.e.h.k.d.^ E ! Q q.0.e.h.k.k.k.h.l.l.h.a.k.a.z.~ i q e e e 9 6 4 : , v 4.8XnXJXKXHXKXKXKXKX",
"KXKXKXKXKXKXKXKXKXKXKXKXKXKXKXKXKXKXKXKXKXKXJXDXdX7X Xx.t.t.y.0.q.q.Q Q h.y.e.h.k.w.~ Q ^ 0.w.r.k.k.k.k.k.h.h.a.k.k.j.h.j.j.{ [ +.;.-.-.b ; - B 6.dXnXFXJXKXKXHXKXKXKX",
"KXKXKXKXKXKXKXKXKXKXKXKXKXKXKXKXKXKXKXKXJXKXnX6X] A E 9.0.e.r.k.y.q.^ 9.h.y.y.h.d.q.~ q.0.e.u.k.k.y.h.h.l.u.e.e.k.k.k.d.m..X|.>.:.:.:.-.b = > B 4.7.4.eXGXKXKXKXKXKXKX",
"KXKXKXKXKXKXKXKXKXKXKXKXKXKXKXKXKXKXKXKXKXDX;X* . C q.u.j.d.k.l.y.^ E J y.e.w.y.w.^ ^ q.y.h.k.k.a.e.e.l.l.h.y.h.k.k.r.c.XXXX|.} -.:.:.:.b 5 9 O.9 8 4 3.jXJXKXKXKXKXKX",
"KXKXKXKXKXKXKXKXKXKXKXKXKXKXKXKXKXKXKXKXDXqX%   % ( u.u.k.h.a.k.y.E S S ~ h.e.w.w.q.w.k.k.k.l.l.h.h.k.l.h.l.l.l.k.a.f..XXXXX|.R +.+.+.+.e 8 o.8 o.o.o.9 7.nXKXKXKXJXKX",
"KXKXKXKXKXKXKXKXKXKXKXKXKXKXJXKXKXKXJXKXVX;X+ . @ Q u.z.k.h.k.u.q.8.D.Y.V.p.u.y.q.w.u.l.k.k.k.h.k.k.l.k.k.k.k.k.k.e.c..XXXXX|.B w 9 9 9 7 7 7 7 7 7 o.8 ' eXGXKXKXKXKX",
"KXKXKXKXKXKXKXKXKXKXKXKXKXKXKXKXKXKXJXJXmXX.. + E u.k.k.u.k.l.w.~ F.`.'.C.q.q.0.q.h.l.l.k.k.h.u.h.i.p.l.h.d.l.k.l.p.c..XXXXX.., 4 5 7 5 7 7 7 7 7 7 7 o.7 V MXGXKXKXKX",
"KXKXKXKXKXKXKXKXKXKXKXKXKXKXKXKXKXJXKXJX-X*   C 9.z.k.k.k.u.r.q.I S._./.8.^ 9.t.f.f.h.a.s.k.h.l.h._ i.h.p.i.p.k.h.h.c.XXXX|.R , 4 7 7 7 7 7 7 7 7 5 5 8 8 e >XVXKXKXKX",
"KXKXKXKXKXKXKXKXKXKXKXKXKXKXKXKXJXKXNX;X%   + J u.u.u.k.h.w.q.T S $.R.D.P W ~ q.b.1X5X Xm.j.k.z.j.) ) p.j.) _ l.l.y.c.XX.X2.V q 5 5 7 7 7 7 5 4 4 4 4 5 8 8 m rXFXKXKX",
"KXKXKXKXKXKXKXKXKXJXKXKXKXKXKXJXJXDX;X%     * / z.u.z.u.e.Q T * u y $.H y s F W ` 8XjXjX0XN./ W W a a _ l.) ) l.k.h.v.|...-.V q 5 7 8 o.8 4 : , q q q : 5 7 9 -.MXJXKX",
"KXKXKXKXKXKXKXKXKXKXKXKXKXKXKXDXfX;X*   . % A ( h.l.a.p.Q A z l M g # p S s s G H.+X3XVXJX,Xc X r < 1 ) z.G F k.k.w./ } R =.m 6 7 7 8 o.o.5 v ' -.=.V , 4 7 9 4 8XVXHX",
"KXKXKXKXKXKXJXKXKXKXKXHXJXNXMX7X] X     * A E i.8.V.V.W p O g N M k Y E K ! L {.*XH.Y 7XbX,XM - 1 y > G z.G F g.p.p - , 6 q 6 4 5 7 7 7 o.8 w [ ,.>.' , : 4 5 8 b eXGX",
"KXKXKXKXKXJXDXVXFXJXJXFXNX8X-Xz d d X o * E 8.C.S.P.Z.x l l g l l z ! Q D y *.*XyXT + ] -X} , ; i t - a s.G s _ ~ r 1 ; : : : : 5 5 7 7 8 o.O.>.6.=X} 3 ; : 4 4 6 4.nX",
"KXKXKXKXVXuX5.X.5.=X,X=X} d . . o y $.&.Z.S.R.Q.Q.R.P.#.B k u u Y / j.~ W L {.aX&Xs.! X . X ; ; - - = 0 _ _ s G z.k.W r > : 4 4 : 5 5 7 7 7 O.;.4.9XsX5.' w > : 9 , ,X",
"KXJXKXKXMX=Xh O f h c k & g & o # @.T.P.E.)._.Q.T.P.P.&.F Y A . @ q.w.K J I &XaX+XJ p ; X - : ; = , - ; P 8.s 0 G j.z.( p > ; 4 4 4 4 5 5 5 O.;.<.4.8XsXqX6.l 3 ; = -.",
"KXKXKXKXZX7XO O O 2 j l f l l $ r &.(.~.~.'.).R.P.P.R.P.%.W A * ..2X2XN.Q I yXaX{.# - ; : ; = j 5.=X6.,...x.` m s G _ l.j.W i = : , q 0 e e +.;.<.;.:.<XVXkX7X,X2.M 2 ",
"KXKXKXKXFXsXh f k c B B k l B g u H I.U.G.^.~.R.Q.Q.R.R.D.G # X.tXNXNXhXN._ OXiX1.- ; = : = X } sXmXbXsX9X3X5X-X2.G G _ k.k.~ S 1 v ' -.=.;.:.:.<.<.b 7.mXjXbXDXfX8X,.",
"KXKXJXKXFXjXz # g k n l k k l g h c F R C.Y.).(.(.(.Q.R.I.@.a =XAXKXKXKX5Xx.f.1.n < - - X # z M.bXVXVXVXNXnXNXgX.Xp._ _ i.l.l.a.T { -.-.-.:.:.:.<.-.-.8XfXqXVXGXKXGXjX",
"KXKXKXKXFXMX{ g g k N M M j g g & & $ $ G D.'.'._.(.Q.P.T.T.%.}.uXhXhXxX2X` r t t y r S T ! d. XkXvXmXnXMXDXHXrX..z.z.s.j.k.k.l.h.v.} -.>.:.;.:.+.+.:XdXsXmXKXKXJXKXKX",
"KXKXKXKXJXNXX.k g k N R B d g l g f g . @ %.).`.`.(.T.T.R.R.A.` b.v.v.m.{ i t t t a W q.h.u.y.-XbXMXNXmXMXDXVX4XR G p.l.s.k.k.k.y.c...[ -.-.+.+.e [ >XsXmXJXKXKXKXJXJX",
"KXKXKXKXKXFX=Xk f k #.P.Z.x l N j h k $ o i D.).).Y.W.(.Q.D.V.s.r.0.K S r t t n ].OXg.q.l.j.x.1XbXMXMXMXVXFXgXn.p.) G i.k.k.k.p.| 5X} 3 , 6 7 9 6 5.dXFXFXJXKXKXKXKXKX",
"KXKXKXJXKXKX,Xc d l #.R.R.%.m N k h k O y %.T.Y.Y.^._.(.Q.C.s.k.s.r.D r t < S H.+X[._ E  . X1X0XnXMXMXDXDXbX2Xj.l.h.t.d.l.k.w.b.uXAX2.3 : 7 7 9 =.fXFXHXJXJXJXJXKXKXKX",
"KXKXKXJXJXKXqXc O k H A.I.A.#.N l k d o H P.).E.Y.).'.^.C.i.r.a.h.k.^ S y p E p.g.s.^ ~ }.dXzXkXNXVXDXJXfX2Xv.u.u.k.u.k.y.Q E b.mXKX3., 4 7 5 m 8XFXKXKXKXKXHXJXJXKXKX",
"KXKXKXKXKXKXsX] d h n %.P.I.%.#.R k & f F &.(.Q.D.E.).G._ q.a.a.h.k.r.! L ! ^ 9.e.e.w.].9XNXZXBXDXJXDXdXX.| u.u.h.l.l.y.Q E Z / 5XNX,.q 5 7 6 4.kXKXHXHXKXKXHXFXJXJXKX",
"KXKXKXJXKXKXjX} O $ g H Z.P.Z.P.&.R 5.,X}.1.J.L.OXOX+X%Xn.( a.k.s.u.k.e.r.y.^ Q 0.k.K.&XuXdXhXgXjXdX3X..+ @ E u.l.u.q.Q ~ t.q.^ ( B.Y q 5 5 b rXZXHXJXKXKXKXKXKXKXJXJX",
"KXKXKXKXKXKXmX5.h h Y x H $.&.W.P.J.iXGXGXfX6X6XMXSXpXSXtXf.e.k.h.h.k.k.K n.N.f.^ p.K.{.[.}. X X X|.v.) S S ) j.y.Q Q q.h.l.l.y.( b.c , 5 e 6.GXJXKXKXKXKXKXKXKXKXJXJX",
"KXKXKXKXKXKXVX9X5.=X-Xc g F #.A.P.U.#XBXHXGXKXHXHXHXKXSXzX/ ~ l.l.h.h.0.J 5XhX1Xy.K i.i.i.i.t.r.z.[.&X*X+XJ.K.p.^ ^ e.a.h.w.^ t.5XAX3.q 4 -.qXGXGXHXKXKXKXKXKXKXKXKXJX",
"KXKXKXKXKXKXKXKXKXKXfX{ & h l %.P.U.@XcXKXHXGXGXKXKXKXFXzX{ T e.h.y.q.x.2XxXHXAXuX5XoX2XtX5Xm.0.l.{.@X{.` ^ Q Q 0.l.h.y.w.J | 9XFXKX2., w ,XFXGXKXKXKXKXKXKXKXKXKXKXKX",
"KXKXKXKXKXKXKXJXGXHXgX] O X O H &.Z.+XpXHXKXKXKXKXKXKXHXGX8X..T f.v..X5XvXFXKXJXFXSXAXBXBXhX.X0.XX4XOX1XN. .( f.c.( Z Z Z / 5XvXKXKX} = ,.kXGXKXKXKXKXKXKXKXKXKXKXKXKX",
"KXKXKXKXKXKXKXKXGXHXzXX.z { =XeX#X#XpXCXHXKXKXKXHXKXKXKXKXGXfXqXuXhXMXFXKXKXHXKXKXKXKXHXKXvXoXm.cXNXMXNXBXhXuXuXuXtX1X X2XuXVXKXJXKX[ l <XJXGXKXKXKXKXKXKXKXKXKXKXKXKX",
"KXKXKXKXKXKXKXKXHXKXDXsX8XsXnXDXSXcXCXKXKXHXKXKXKXHXKXKXKXKXJXDXFXJXKXKXHXKXKXKXKXJXHXHXKXBXtXuXFXHXKXKXKXKXGXFXFXDXNXvXAXHXKXKXKXKX{ 3.zXJXJXKXKXKXKXKXKXKXKXKXKXKXKX",
"KXKXKXKXKXKXKXKXKXKXKXGXJXKXKXKXKXKXKXKXKXKXKXKXKXKXKXKXKXHXKXKXKXHXKXHXKXHXKXKXKXKXKXKXKXJXFXAXHXHXKXHXJXKXHXKXKXKXKXKXKXHXHXKXKXKX:XrXJXKXKXKXKXKXKXKXKXKXKXKXKXKXKX",
"KXKXKXKXKXKXKXKXKXKXKXKXKXKXJXHXHXKXKXKXKXKXKXKXKXKXKXKXKXKXHXHXJXKXKXKXKXKXKXKXKXKXKXKXKXJXFXHXKXKXKXKXKXKXKXKXKXHXKXKXKXKXKXKXKXKXzXZXKXHXKXKXHXKXKXKXKXKXKXKXKXKXKX",
"KXKXKXKXKXKXKXKXKXKXHXKXJXKXKXKXKXHXKXKXKXJXKXKXKXKXKXKXKXKXKXKXKXKXKXKXKXKXKXKXKXKXKXKXJXFXHXKXHXKXKXKXKXKXKXKXKXKXKXHXKXKXKXKXKXHXKXJXKXKXKXKXKXKXKXKXKXKXKXKXKXKXKX",
"KXKXKXKXKXKXKXKXKXKXKXKXKXKXKXKXKXKXKXKXKXKXKXKXKXKXHXKXKXKXKXKXKXKXKXKXKXKXKXKXKXKXKXFXFXKXKXKXKXKXKXKXKXKXKXKXKXKXKXKXKXKXKXKXKXKXKXKXKXKXKXKXKXKXKXKXKXKXKXKXKXKXKX",
"KXKXKXKXKXKXKXKXKXKXKXKXKXKXJXKXKXKXKXKXKXKXKXKXKXKXKXKXKXKXKXKXKXKXKXKXKXKXJXKXKXKXFXFXHXKXKXKXKXKXKXKXKXKXKXKXKXKXKXKXKXKXKXKXKXKXKXJXKXKXKXKXKXKXKXKXKXKXKXKXKXKXKX",
"KXKXKXKXKXKXKXKXKXKXKXKXKXKXKXKXKXKXKXKXKXJXKXKXKXKXKXKXKXKXKXKXKXKXKXKXKXJXKXKXKXJXJXKXKXKXKXKXKXKXKXKXKXKXKXKXKXKXKXKXKXKXKXKXKXKXKXKXKXKXKXKXKXKXKXKXKXKXKXKXKXKXKX",
"KXKXKXKXKXKXKXKXKXKXKXKXKXKXKXKXKXKXKXHXKXKXKXKXKXKXKXKXKXKXKXKXKXKXKXKXKXKXKXKXFXFXKXKXJXKXKXKXKXKXKXKXKXKXKXKXKXKXKXKXKXKXKXKXKXKXKXKXKXKXKXKXKXKXKXKXKXKXKXKXKXKXKX",
"KXKXKXKXKXKXKXKXKXKXKXKXKXKXKXKXKXKXKXKXKXKXKXKXKXKXKXKXKXKXKXKXKXKXKXJXKXKXKXFXFXKXKXKXKXKXKXKXKXKXKXKXKXKXKXKXKXKXKXKXKXKXKXKXKXKXKXKXKXKXKXKXKXKXKXKXKXKXKXKXKXKXKX",
"KXKXKXKXKXKXKXKXKXKXKXKXKXKXKXKXKXKXKXKXKXKXKXKXKXKXKXKXKXKXKXKXKXKXKXKXKXJXFXJXKXKXKXKXKXKXKXKXKXKXKXKXKXKXKXKXKXKXKXKXKXKXKXKXKXKXKXKXKXKXKXKXKXKXKXKXKXKXKXKXKXKXKX",
"KXKXKXKXKXKXKXKXKXKXKXKXKXKXKXKXKXKXKXKXKXKXKXKXKXKXKXKXKXKXKXKXKXKXKXKXJXFXJXKXKXKXJXKXKXKXKXKXKXKXKXKXKXKXKXKXKXKXKXKXKXKXKXKXKXKXKXKXKXKXKXKXKXKXKXKXKXKXKXKXKXKXKX",
"KXKXKXKXKXKXKXKXKXKXKXKXKXKXKXKXKXKXKXKXKXKXKXKXKXKXKXKXKXKXKXKXKXKXKXJXFXKXKXKXKXKXKXKXKXKXKXKXKXKXKXKXKXKXKXKXKXKXKXKXKXKXKXKXKXKXKXKXKXKXKXKXKXKXKXKXKXKXKXKXKXKXKX",
"KXKXKXKXKXKXKXKXKXKXKXKXKXKXKXKXKXKXKXKXKXKXKXKXKXKXKXKXKXKXKXKXKXKXJXFXJXKXKXKXKXKXKXKXKXKXKXKXKXKXKXKXKXKXKXKXKXKXKXKXKXKXKXKXKXKXKXKXKXKXKXKXKXKXKXKXKXKXKXKXKXKXKX",
"KXKXKXKXKXKXKXKXKXKXKXKXKXKXKXKXKXKXKXKXKXKXKXKXKXKXKXKXKXKXKXKXKXJXFXKXKXKXKXKXKXKXKXKXKXKXKXKXKXKXKXKXKXKXKXKXKXKXKXKXKXKXKXKXKXKXKXKXKXKXKXKXKXKXKXKXKXKXKXKXKXKXKX",
"KXKXKXKXKXKXKXKXKXKXKXKXKXKXKXKXKXKXKXKXKXKXKXKXKXKXKXKXKXKXKXJXJXFXJXKXKXKXKXKXKXKXKXKXKXKXKXKXKXKXKXKXKXKXKXKXKXKXKXKXKXKXKXKXKXKXKXKXKXKXKXKXKXKXKXKXKXKXKXKXKXKXKX",
"KXKXKXKXKXKXKXKXKXKXKXJXFXFXKXKXKXKXKXKXKXKXKXKXKXKXKXKXKXKXKXJXFXKXKXKXKXKXKXKXKXKXKXKXKXKXKXKXKXKXKXKXKXKXKXKXKXKXKXKXKXKXKXKXKXKXKXKXKXKXKXKXKXKXKXKXKXKXKXKXKXKXKX",
"KXKXKXKXKXKXKXKXKXKXDXNXDXNXFXKXKXKXKXKXKXKXKXKXKXKXKXKXKXJXFXJXKXKXKXKXKXKXKXKXKXKXKXKXKXKXKXKXKXKXKXKXKXKXKXKXKXKXKXKXKXKXKXKXKXKXKXKXKXKXKXKXKXKXKXKXKXKXKXKXKXKXKX"
};
