/* XPM */
static char *result[] = {
/* columns rows colors chars-per-pixel */
"93 77 252 2 ",
"   c #080707",
".  c #130809",
"X  c #12120D",
"o  c #151516",
"O  c #1B1B1B",
"+  c #2D0F05",
"@  c #3A0502",
"#  c #2B1616",
"$  c #371818",
"%  c #1B2510",
"&  c #23261A",
"*  c #3B2216",
"=  c #323315",
"-  c #1F1E24",
";  c #292929",
":  c #392725",
">  c #333333",
",  c #3C3C3A",
"<  c #470706",
"1  c #4B0404",
"2  c #530403",
"3  c #5C0201",
"4  c #560B08",
"5  c #4A1808",
"6  c #521A07",
"7  c #530F10",
"8  c #451C19",
"9  c #591616",
"0  c #630201",
"q  c #6C0101",
"w  c #68090A",
"e  c #730101",
"r  c #7B0202",
"t  c #700708",
"y  c #691918",
"u  c #741412",
"i  c #49270B",
"p  c #572504",
"a  c #472619",
"s  c #532E13",
"d  c #4A3616",
"f  c #543915",
"g  c #6A350E",
"h  c #441C23",
"j  c #4B2524",
"k  c #492726",
"l  c #582828",
"z  c #52312E",
"x  c #583529",
"c  c #553837",
"v  c #662929",
"b  c #722525",
"n  c #632F31",
"m  c #673534",
"M  c #76393A",
"N  c #334D17",
"B  c #3A6312",
"V  c #384829",
"C  c #3F6D21",
"Z  c #51440E",
"A  c #474919",
"S  c #544B19",
"D  c #4A5719",
"F  c #56551B",
"G  c #64541B",
"H  c #735017",
"J  c #446A1A",
"K  c #497718",
"L  c #57701B",
"P  c #6B6F19",
"I  c #757917",
"U  c #4D4528",
"Y  c #495925",
"T  c #714E27",
"R  c #486924",
"E  c #556824",
"W  c #4C7325",
"Q  c #4E7A26",
"!  c #4D7329",
"~  c #547C26",
"^  c #587827",
"/  c #52762A",
"(  c #537C2B",
")  c #5C633C",
"_  c #587A37",
"`  c #676B24",
"'  c #66792A",
"]  c #783F41",
"[  c #474746",
"{  c #594747",
"}  c #585855",
"|  c #684B4A",
" . c #784546",
".. c #6B5450",
"X. c #755756",
"o. c #5E7B46",
"O. c #716A4D",
"+. c #667A4A",
"@. c #6D6565",
"#. c #78787A",
"$. c #840203",
"%. c #8A0103",
"&. c #920606",
"*. c #83570B",
"=. c #8E6D0C",
"-. c #98790C",
";. c #A3790A",
":. c #915F23",
">. c #846C2F",
",. c #895756",
"<. c #995F5E",
"1. c #856950",
"2. c #935F61",
"3. c #896868",
"4. c #986969",
"5. c #9E716F",
"6. c #8D7675",
"7. c #967776",
"8. c #A47578",
"9. c #57841F",
"0. c #7A891C",
"q. c #4F822A",
"w. c #568527",
"e. c #56822C",
"r. c #59842C",
"t. c #5C8B2D",
"y. c #5E912E",
"u. c #5E982B",
"i. c #5B8432",
"p. c #598636",
"a. c #5D8D31",
"s. c #5D9234",
"d. c #658428",
"f. c #638D2E",
"g. c #61922E",
"h. c #68972C",
"j. c #628E32",
"k. c #658839",
"l. c #778C35",
"z. c #639532",
"x. c #659933",
"c. c #699B35",
"v. c #689538",
"b. c #6BA335",
"n. c #6AA237",
"m. c #6FA636",
"M. c #688849",
"N. c #708D4D",
"B. c #748D5B",
"V. c #779558",
"C. c #7C9664",
"Z. c #7F8672",
"A. c #8F8F14",
"S. c #A88608",
"D. c #B68B08",
"F. c #B89504",
"G. c #AC9116",
"H. c #B5A408",
"J. c #948F32",
"K. c #B0962F",
"L. c #90A83A",
"P. c #A2A73C",
"I. c #C49B04",
"U. c #CBA202",
"Y. c #C7A806",
"T. c #D6AB03",
"R. c #CAB50C",
"E. c #D7B605",
"W. c #E1AF04",
"Q. c #E5B702",
"!. c #DAC60A",
"~. c #EAC601",
"^. c #F5C702",
"/. c #E8D607",
"(. c #F9D803",
"). c #F7E904",
"_. c #F7F205",
"`. c #DAC732",
"'. c #93944D",
"]. c #9DA34C",
"[. c #ADA954",
"{. c #85976C",
"}. c #8D8C77",
"|. c #899A77",
" X c #AC9972",
".X c #8FA865",
"XX c #8DA178",
"oX c #92A87C",
"OX c #B3A863",
"+X c #CBB34D",
"@X c #C4B670",
"#X c #D7C86E",
"$X c #E2CF62",
"%X c #998888",
"&X c #909188",
"*X c #959595",
"=X c #A68887",
"-X c #AC9792",
";X c #A99999",
":X c #9AA88A",
">X c #9BAE8D",
",X c #A6AB98",
"<X c #B5AF90",
"1X c #A5B395",
"2X c #9CA3A0",
"3X c #A9A8A5",
"4X c #BAABAA",
"5X c #ADB7A5",
"6X c #B6B8AB",
"7X c #AEB1B4",
"8X c #BAB7B6",
"9X c #C7B689",
"0X c #C4B5AC",
"qX c #C5BAB9",
"wX c #B4C3A8",
"eX c #BDC6B5",
"rX c #D3C793",
"tX c #EAD789",
"yX c #C4C7BC",
"uX c #D5CEB0",
"iX c #FAE5A5",
"pX c #79B229",
"aX c #79B229",
"sX c #79B229",
"dX c #79B229",
"fX c #79B229",
"gX c #79B229",
"hX c #79B229",
"jX c #79B229",
"kX c #79B229",
"lX c #79B229",
"zX c #79B229",
"xX c #79B229",
"cX c #79B229",
"vX c #79B229",
"bX c #79B229",
"nX c #79B229",
"mX c #79B229",
"MX c #79B229",
"NX c #79B229",
"BX c #79B229",
"VX c #79B229",
"CX c #79B229",
"ZX c #79B229",
"AX c #79B229",
"SX c #79B229",
"DX c #79B229",
"FX c #79B229",
"GX c #79B229",
"HX c #79B229",
"JX c #79B229",
"KX c #79B229",
/* pixels */
"JXKXKXKXKXKXKXKXKXKXKXKXKXKXKXKXKXKXKXKXKXKXKXKXKXKXKXKXKXKXKXKXKXKXKXKXKXKXKXKXKXKXKXKXKXKXKXKXKXKXKXKXKXKXKXKXKXKXKXKXKXKXKXKXKXKXKXKXKXKXKXKXKXKXKXKXKXKXKXKXKXKXKXKXKXKXKXKXKXKXKXKXKX",
"KXKXKXKXKXKXKXKXKXKXKXKXKXKXKXKXKXKXKXKXKXKXKXKXKXKXKXKXKXKXKXKXKXKXKXKXKXKXKXKXKXKXKXKXKXKXKXKXKXKXKXKXKXKXKXKXKXKXKXKXKXKXKXKXKXKXKXKXKXKXKXKXKXKXKXKXKXKXKXKXKXKXKXKXKXKXKXKXKXKXKXKXKX",
"KXKXKXKXKXKXKXKXKXKXKXKXKXKXKXKXKXKXKXKXKXKXKXKXKXKXKXKXKXKXKXKXKXKXKXKXKXKXKXKXKXKXKXKXKXKXKXKXKXKXKXKXKXKXKXKXKXKXKXKXKXKXKXKXKXKXKXKXKXKXKXKXKXKXKXKXKXKXKXKXKXKXKXKXKXKXKXKXKXKXKXKXKX",
"KXKXKXKXKXKXKXKXKXKXKXKXKXKXKXKXKXKXKXKXKXKXKXKXKXKXKXKXKXKXKXKXKXKXKXKXKXKXKXKXKXKXKXKXKXKXKXKXKXKXKXKXKXKXKXKXKXKXKXKXKXKXKXKXKXKXKXKXKXKXKXKXKXKXKXKXKXKXKXKXKXKXKXKXKXKXKXKXKXKXKXKXKX",
"KXKXKXKXKXKXKXKXKXKXKXKXKXKXKXKXKXKXKXKXKXKXKXKXKXKXKXKXKXKXKXKXKXKXKXKXKXKXKXKXKXKXKXKXKXKXKXKXKXKXKXKXKXKXKXKXKXKXKXKXKXKXKXKXKXKXKXKXKXKXKXKXKXKXKXKXKXKXKXKXKXKXKXKXKXKXKXKXKXKXKXKXKX",
"KXKXKXKXKXKXKXKXKXKXKXKXKXKXKXKXKXKXKXKXKXKXKXKXKXKXKXKXKXKXKXKXKXKXKXKXKXKXKXKXKXKXKXKXKXKXKXKXKXKXKXKXKXKXKXKXKXKXKXKXKXKXKXKXKXKXKXKXKXKXKXKXKXKXKXKXKXKXKXKXKXKXKXKXKXKXKXKXKXKXKXKXKX",
"KXKXKXKXKXKXKXKXKXKXKXKXKXKXKXKXKXKXKXKXKXKXKXKXKXKXKXKXKXKXKXKXKXKXKXKXKXKXKXKXKXKXKXKXKXKXKXKXKXKXKXKXKXKXKXKXKXKXKXKXKXKXKXKXKXKXKXKXKXKXKXKXKXKXKXKXKXKXKXKXKXKXKXKXKXKXKXKXKXKXKXKXKX",
"KXKXKXKXKXKXKXKXKXKXKXKXKXKXKXKXKXKXKXKXKXKXKXKXKXKXKXKXKXKXKXKXKXKXKXKXKXKXKXKXKXKXKXKXKXKXKXKXKXKXKXKXKXKXKXKXKXKXKXKXKXKXKXKXKXKXKXKXKXKXKXKXKXKXKXKXKXKXKXKXKXKXKXKXKXKXKXKXKXKXKXKXKX",
"KXKXKXKXKXKXKXKXKXKXKXKXKXKXKXKXKXKXKXKXKXKXKXKXKXKXKXKXKXKXKXKXKXKXKXKXKXKXKXKXKXKXKXKXKXKXKXKXKXKXKXKXKXKXKXKXKXKXKXKXKXKXKXKXKXKXKXKXKXKXKXKXKXKXKXKXKXKXKXKXKXKXKXKXKXKXKXKXKXKXKXKXKX",
"KXKXKXKXKXKXKXKXKXKXKXKXKXKXKXKXKXKXKXKXKXKXKXKXKXKXKXKXKXKXKXKXKXKXKXKXKXKXKXKXKXKXKXKXKXKXKXKXKXKXKXKXKXKXKXKXKXKXKXKXKXKXKXKXKXKXKXKXKXKXKXKXKXKXKXKXKXKXKXKXKXKXKXKXKXKXKXKXKXKXKXKXKX",
"KXKXKXKXKXKXKXKXKXKXKXKXKXKXKXKXKXKXKXKXKXKXKXKXKXKXKXKXKXKXKXKXKXKXKXKXKXKXKXKXKXKXKXKXKXKXKXKXKXKXKXKXKXKXKXKXKXKXKXKXKXKXKXKXHXKXKXKXKXKXKXKXKXKXKXJXKXKXJXKXKXKXKXKXKXKXKXKXKXKXKXKXKX",
"KXKXKXKXKXKXKXKXKXKXKXKXKXKXKXKXKXKXKXKXKXKXKXKXKXKXKXKXKXKXKXKXKXKXKXKXKXKXKXKXKXKXKXKXKXKXKXKXKXKXKXKXKXKXKXKXKXKXKXKXKXKXKXKXKXKXHXKXKXKXKXKXKXKXKXKXKXKXKXKXKXKXKXKXKXKXKXKXKXKXKXKXKX",
"KXKXKXKXKXKXKXKXKXKXKXKXKXKXKXKXKXKXKXKXKXKXKXKXKXKXKXKXKXKXKXKXKXKXKXKXKXKXKXKXKXKXKXKXKXKXKXKXKXKXKXKXKXKXKXKXKXKXKXKXKXKXKXKXKXKXKXKXKXKXJXKXKXKXHXKXKXKXKXKXKXKXKXKXKXKXKXKXKXKXKXKXKX",
"KXKXKXKXKXKXKXKXKXKXKXKXKXKXKXKXKXKXKXKXKXKXKXKXKXKXKXKXKXKXKXKXKXKXKXKXKXKXKXKXKXKXKXKXKXKXKXKXKXKXKXKXKXKXKXKXKXKXKXKXKXKXKXKXKXKXKXKXKXKXKXKXKXJXKXKXKXKXKXKXKXKXKXKXKXKXKXKXKXKXKXKXKX",
"KXKXKXKXKXKXKXKXKXKXKXKXKXKXKXKXKXKXKXKXKXKXKXKXKXKXKXKXKXKXKXKXKXKXKXKXKXKXKXKXKXKXKXKXKXKXKXKXKXKXKXKXKXKXKXKXKXKXKXKXKXKXKXKXKXKXKXKXKXKXKXKXKXHXcXGXKXHXKXKXKXKXKXKXKXKXKXKXKXKXKXKXKX",
"KXKXKXKXKXKXKXKXKXKXKXKXKXKXKXKXKXKXKXKXKXKXKXKXKXKXKXKXKXKXKXKXKXKXKXKXKXKXKXKXKXKXKXKXKXKXKXKXKXKXKXKXKXKXKXKXKXKXKXKXKXKXKXKXKXKXKXKXKXHXKXJXCXqX4XDXKXKXKXKXKXKXKXKXKXKXKXKXKXKXKXKXKX",
"KXKXKXKXKXKXKXKXKXKXKXKXKXKXKXKXKXKXKXKXKXKXKXKXKXKXKXKXKXKXKXKXKXKXKXKXKXKXKXKXKXKXKXKXKXKXKXKXKXKXKXKXKXKXKXKXKXKXKXKXKXKXKXKXKXKXKXKXKXJXKXDX0X .8XGXKXKXKXJXKXKXKXKXKXKXKXKXKXKXKXKXKX",
"KXKXKXKXKXKXKXKXKXKXKXKXKXKXKXKXKXKXKXKXKXKXKXKXKXKXKXKXKXKXKXKXKXKXKXKXKXKXKXKXKXKXKXKXKXHXJXKXKXKXKXKXKXKXKXKXKXKXKXKXKXKXKXKXKXKXKXKXJXHXVX=Xl X.cXKXJXKXKXKXKXJXHXJXJXJXGXKXKXKXKXKXKX",
"KXKXKXKXKXKXKXKXKXKXKXKXKXKXKXKXKXKXKXKXKXKXKXKXKXKXKXKXKXKXKXKXKXKXKXKXKXKXKXKXKXKXKXKXKXJXHXHXKXKXKXKXKXKXKXKXKXKXKXKXKXKXKXKXKXHXKXJXJXCX-X9 9 qXZXJXJXJXJXKXKXKXKXKXKXJXHXKXKXKXKXKXKX",
"KXKXKXKXKXKXKXKXKXKXKXKXKXKXKXKXKXKXKXKXKXKXKXKXKXKXKXKXKXKXKXKXKXKXKXKXKXKXKXKXKXKXKXHXHXeX1XhXKXJXKXKXKXKXHXKXKXHXHXKXHXHXKXKXKXJXJXJXkX7.9 2 ] ZXGXJXGXGXGXFXCXNXzXlXdXqXdXKXJXKXHXKXKX",
"KXKXKXKXKXKXKXKXKXKXKXKXKXKXKXKXKXKXKXKXKXKXKXKXKXKXKXKXKXKXKXKXKXKXKXKXKXKXKXKXKXKXKXGXvXB.B.gXJXKXKXKXKXKXKXKXKXKXHXHXKXKXKXKXJXDXJXNX3.y 2 b =XNX-X=X=X8.8.8.5.4.<.,. .6.dXKXJXHXKXKXKX",
"KXKXKXKXKXKXKXKXKXKXKXKXKXKXKXKXKXKXKXKXKXKXKXKXKXKXKXKXKXKXKXKXKXKXKXKXKXKXKXJXJXKXKXkXXXq.C.lXKXAXKXKXHXKXKXHXFXvXhXgXhXnXFXJXBX;X%X4.9 0 0 ] ;X2.b y w t w w 0 0 2 2 X.4XCXKXKXKXKXKXKX",
"KXKXKXKXKXKXKXKXKXKXKXKXKXKXKXKXKXKXKXKXKXKXKXKXKXKXKXKXKXKXKXKXKXKXKXKXKXKXKXFXCXGXCXoXp.w.C.rXbXSXHXKXKXKXnXyX1X|.C.B.C.oXwXeX=Xv < 2 0 e 0 l ] 3 e e e q q q 0 3 m 6.zXKXKXHXKXKXKXKXKX",
"KXKXKXKXKXKXKXKXKXKXKXKXKXKXKXKXKXKXKXKXKXKXKXKXKXKXKXKXKXKXKXKXKXKXKXJXFXFXFXNXzXNXyXp.r.a.o.'.rXSXKXHXAXnX>Xo.W ! e.t.t.w.e.) l 3 3 3 e q 3 1 t r e e e r q 0 4 v 4XBXHXJXKXKXKXKXKXKXKX",
"KXKXKXKXKXKXKXKXKXKXKXKXKXKXKXKXKXKXKXKXKXKXKXKXKXKXKXKXKXKXKXKXKXKXJXGXvXlXkX8X8X,XN.w.z.y.J '.xXJXJXFX8XM.J Q e.r.t.z.x.x.x.w.s 4 e q r q 0 r e e q q 0 0 4 9 6.cXKXKXKXKXKXKXKXKXKXKXKX",
"KXKXKXKXKXKXKXKXKXKXKXKXKXKXKXKXKXKXKXKXKXKXKXKXKXKXKXKXKXKXKXKXKXKXKXKXzX7X7X6X-XN.z.g.a.t.K :XSXKXDXeXo.( ( e.t.y.! w.x.x.x.x.E i 0 e e e r e e e q 0 3 4 v 7.BXDXHXKXKXKXKXKXKXKXKXKXKX",
"KXKXKXKXKXKXKXKXKXKXKXKXKXKXKXKXKXKXKXKXKXKXKXKXKXKXKXKXKXKXKXKXKXKXKXJXVX8XpX0X'.L a.j.z.z.K :XDXBX:X_ K e.e.f.c.x.t.y.x.x.z.c.x.E 4 q e e e e e q 0 3 9 3.dXBXJXKXKXKXKXKXKXKXKXKXKXKXKX",
"KXKXKXKXKXKXKXKXKXKXKXKXKXKXKXKXKXKXKXKXKXKXKXKXKXKXKXKXKXKXKXKXKXJXKXKXGXgXlX<Xl.w.v.w.z.z.K >XlX1X_ ( e.r.f.x.x.x.x.z.x.x.x.x.x.g.d 2 q r q q 0 3 1 9 3.yXvXcXJXKXJXKXJXKXKXKXKXKXKXKXKX",
"KXKXKXKXKXKXKXKXKXKXKXKXKXKXKXKXKXKXKXKXKXKXKXKXKXKXKXKXKXKXKXKXKXKXJXVXyXsXuX.X^ t.g.t.z.z.e.C.{._ K e.t.t.x.x.x.x.x.x.z.x.x.z.x.b.E 6 0 e q 0 0 2 1 v 2.4.,.3.cXFXKXKXKXKXKXKXKXKXKXJXKX",
"KXKXKXKXKXKXKXKXKXKXKXKXKXKXKXKXKXKXKXKXKXKXKXKXKXKXKXKXKXKXKXKXHXJXhX:X}.pX9XJ.d.s.t.y.x.z.i./ R W i.e.z.c.x.x.z.x.z.a.z.x.x.z.z.x.r.d 3 q e q 0 q w $.u r q q 4.lXKXJXKXKXKXKXKXKXKXKXKX",
"KXKXKXKXKXKXKXKXKXKXKXKXKXKXKXKXKXKXKXKXKXKXKXKXKXKXKXKXKXKXKXHXKXlX|._ &XyX+XA.f.s.t.t.x.y.i.W Q i.r.x.t.^ z.x.x.z.y.e.z.x.z.x.z.x.x.S 2 q e e q e r r r $.&.%.y =XFXKXKXKXJXKXKXKXKXKXKX",
"KXKXKXKXKXKXKXKXKXKXKXKXKXKXKXKXKXKXKXKXKXKXKXKXKXKXKXKXKXKXKXJXNX{.R N.8X4XI.S.h.a.j.t.z.t.( e.r.i.x.j.A i F x.x.x.z.a.z.x.z.y.z.x.n.F 2 0 e e r r t q e q r r $.3 4XCXKXKXKXKXKXJXKXKXKX",
"KXKXKXKXKXKXKXKXKXKXKXKXKXKXKXKXKXKXKXKXKXKXKXKXHXKXKXKXKXKXKXHX1X! p.&X8XOXI.A.w.s.y.t.t.q.! _ p.i.E = i 6 f ^ h.x.x.x.x.x.x.z.g.x.b.F < 0 e q r e e e e e e r $.r ] aXKXKXKXKXKXKXKXKXKX",
"KXKXKXKXKXKXKXKXKXKXKXKXKXKXKXKXKXKXKXKXKXKXKXKXKXKXKXKXKXHXHX1Xp.K M.2X<XG.I.U.A.w.y._ M.:X5XeXaX&Xa < p p + D z.c.x.x.x.v.z.x.x.x.j.f 2 0 r e e e q e e e q q e r e  .qXKXGXKXKXKXKXKXKX",
"KXKXKXKXKXKXKXKXKXKXKXKXKXKXKXKXJXKXKXKXKXKXKXKXKXKXKXHXHXHXvXB./ Q B.3X[.-.S.E.H.d.u.M.+.3XjXDXDXdX .7 7 8 @ d ~ h.d.k.C.XXV.u.x.b.E p 3 q r e e e e e q 0 0 0 q r r w 5.BXHXKXKXKXKXKXKX",
"KXKXKXKXKXKXKXKXKXKXKXKXKXKXKXKXKXKXKXKXKXJXJXKXHXKXKXHXKXvX|.! ! e.B.Z.' ' d.0.A.I w.a._ C.&X5XjXsX..7 2 < < 5 ) {.{.1XsXaX{.z.c.t.d 4 0 q e e r r 0 3 0 3 3 0 0 0 e e y =XBXKXJXKXKXKXKX",
"KXKXKXKXKXKXKXKXKXKXKXKXKXKXKXKXKXKXKXKXKXKXKXJXHXHXJXHXvX|._ ~ e._ _ _ ( e.p.q.~ ' ~ e.q.w.w.M.{.@.8 1 3 4 m 7.3XaXsXMXDXNX,Xv.t.S 2 3 0 q q r r $.q 2 2 3 3 3 3 3 0 e q b ;XKXHXKXKXKXKX",
"KXKXKXKXKXKXKXKXKXKXKXKXKXKXKXKXKXKXKXKXKXJXkX8X3X5XeX5XXX/ e.e.r./ Q t.x.t.s.x.g.w.~ ~ ( y.b.L.F + @ < 2 8 *XVXDXCXCXNXDXJX6Xo.S 6 2 0 q q e r r $.%.0 1 9 v 7 2 2 3 0 q q M fXFXKXJXKXKX",
"KXKXKXKXKXJXHXKXKXHXKXKXKXKXKXKXKXKXKXJXNX7X} O   % B B J e.r.~ Q ( r.f.g.x.z.z.c.g.` G F d.P.P.G @ 2 < 1 8 -XNXCXNXNXnXFXJX3XU 1 3 0 3 0 q q e q r $.%.t M 3.3.] v 9 4 3 q 0  .dXKXJXKXKX",
"KXKXKXKXKXHXKXKXKXKXKXKXKXKXKXKXKXJXKXHX2X> X o O N / r.( ( e./ ! e.x.x.z.x.g.x.x.^ G g Z >.+XJ.* 1 0 0 < + #.hXVXNXNXNXFXFX%Xj 2 3 3 3 0 3 q e e e r r $.t ,.sXlX;X .v 9 2 2 y 3.CXKXJXKX",
"KXJXKXKXGXDXFXJXJXJXJXJXHXKXGXHXJXGXJX8XO o o O O = C p.q.u.e.w.g.x.g.z.c.z.z.z.z.e.~ ` ' #X+Xf @ 2 @ @ d w.V.5XMXVXNXNXJXkX{.D d 4 2 0 0 3 3 q q e e e r $.r b 0XBXFXcX;X3. .w 7 %XcXKXJX",
"KXKXKXFXlXsXhXGXJXKXHXKXKXKXKXKXKXJXDX&X      X - = ! n.s.x.t.f.x.g.( Y / a.z.j.e.E F F J.tX[.d + 1 @ + A z.v.|.gXDXNXVXJXsXV.x.t.F i 2 2 3 0 3 0 q e e e r $.r M 4XJXGXBXcXdX}.X.X.4XGXKX",
"KXJXKXNX%Xc { %XqXdX6X4XNXFXDXdXsX7X#.;         o & ! m.z./ ^ v.x.r.Y j z Y / ^ Q E S P +XiX[.D i p i N ! x.a.C.pXCXNXFXGX}.T ` l.b.e.F f 5 2 0 0 0 q e e q r $.w 4XJXJXKXKXKXCXzX0XaXZXKX",
"KXHXKXfX@.# # k ..@.{ { %X3X*X@.@.U o     o - ; o O R x.z.R i.h.0.P x n l a Y ( a./ D l.#XiX].Z p p A s.z.v.{.,XgXCXDXJXkXO.G H ` d.x.x.^ F i 4 3 3 3 q q r r r ,.kXKXKXJXJXJXKXJXKXZXGXKX",
"KXFXJXsX| $ k $ j j $ $ k k : 8 #     O ; > > ; o O V e.g.( e.0.H.S.H M x d R r.c.r.C l.tXiX1.6 p i W b.c.M.1XMXVXVXKXfX}.k.f.' ` ` f.c.x.z.^ A 5 3 3 q q r r u 4XZXJXKXKXKXKXJXJXJXKXKXKX",
"KXJXKX4Xc # j c m n l j h . . i s s a : > > > O [ } V B f.t.0.F.T.E.F.=.G ^ Y Y d.x./ ' OX9XT 6 g A z.d.x.p.5XFXVX8XsX3.g ` x.b.x.g.v.h.x.c.m.a.F 1 3 q e r t M NXGXKXKXKXKXKXKXKXKXKXKXKX",
"JXJXKX3Xc $ j l m m j l c : $ Z =.D.=.f - O , @.*X*X} N / ' G.Q.Q.U.F.U.S.I l j E j.a./ v.x p p Z i.m.n.s./ :XvXkX*XC.G g u g ' c.x.x.x.x.z.t.k.+.1 3 q r q y 8.JXJXKXKXKXKXKXJXKXKXKXKXKX",
"KXJXFX%Xz a l n m m k l n 8 i D.Q.(.~.G.{ [ *X7X7X7XZ.& d H.~.^.U.F.T.Q.W.I.;.*.S ! e.r.t.i p i Y n.m.c.a.( M.V.V.x.f.h.h.k.` H G ' x.x.x.t.R o.}.< 3 q r q ,.qXJXJXKXKXKXKXKXKXKXKXKXKXKX",
"KXJXVX6.k k z n n n k n n $ a D.~._.!.K.;X@.#.7X3X*X@.= I /.).(.U.T.Q.W.T.I.U.I.-.^ a.z.E i p f Y r.z.x.t.( e.z.c.z.x.x.c.x.z.j.f.d.v.b.t.W R M.|.< 0 q q t 5.NXKXHXKXKXKXKXKXKXKXKXKXKXKX",
"JXHXkX@.8 h x T :.m h h k : $ g -.S.H H { - > @.} [ , U =.~._.!.E.Q.(.^.T.F.E.T.A.f.x.v.t.L D E t.e.r.x.z.r.( x.m.r.R ( s.n.x.x.x.z.v.e.R R B C.qX7 3 r 0 M qXJXHXKXJXKXKXKXKXKXKXKXKXKXKX",
"JXJXsX| 8 h T D.;.T l n x l x a d a $ h #   o > > > > , A I H.R.(.).(.^.Q.I.Q.T.A.f.z.z.x.z.( t.a.! R t.x.w.r.c.m.! = C z.n.x.z.x.x.e.Q R R R +.:X7 w t q 4.NXHXKXKXKXKXKXKXKXKXKXKXKXKXKX",
"JXJXqXU $ j :.U.T.=.*.;.:.l a j $ + * 6 # O O o ; ; ; ; O # P !.).).).(.T.Q.^.E.0.t.x.g.x.x.x.y.( E ^ ! t.f.t.m.n.N X % ! x.z.x.z.r.! r.r.( K _ +.j w q b ;XJXGXKXKXKXKXKXKXKXKXKXKXKXKXKX",
"KXJX;Xz $ k :.S.T.;.F.Q.;.z k $ i H ;.*.i ; ; o ; , , [ } #.-X$X`./._./.Y.).(.H.' e.x.x.g.z.x.y.~ l.OXM.q.s.v.m.u.= O X = ' z.z.( W a.z.x.y.s.{.:XM w 0 ,.kXKXFXKXKXKXKXKXKXKXKXKXKXKXKXKX",
"KXCX%X: # j *.;.U.S.F.I.S.1.%Xc H I.Q.Q.=.k [ } #.*X*X*X8XJXHXnXrX+X!.R.H.).).H.^ Q z.x.z.z.c.a.^ ].tXOX~ a.m.c.h.l.` T T l.f.( ! e.t.t.q.k.XXhXVXX.7 y -XDXKXJXKXJXKXKXKXKXKXKXKXKXKXKXKX",
"KXBX3XX.{ ..T ;.I.S.F.I.K.uXFX;X>.Y._._.R.g aXNXKXKXKXKXKXHXHXKXKXZXuX#X+X`.R.G.d.Q ( z.g.x.x.( ' '.P.J.' r.b.c..XtX$X$X+Xh.( k.x.x.t.k.XXyXAXKXFX4.7 X.dXKXJXKXKXKXKXKXKXKXKXKXKXKXKXKXKX",
"KXHXBXaXqXaX<XOX-.=.F.U.+XnXHXNX=X=.Y.R.;.X.BXFXJXJXJXJXKXJXKXKXHXKXAXZXuXrXP.0.K K N D 9.w.q.W ( ( j.V.V.k.u.m.].+XJ.L B B B K e.M.oXwXnXFXGXKXFX7.7 =XBXKXKXKXHXKXKXKXKXKXKXKXKXKXKXKXKX",
"KXKXKXKXHXHXFXmXrXOXK.K.rXSXHXKXVX4X XOX-XhXHXKXJXKXJXKXHXKXKXKXKXKXKXKXKXAXlX6X>XV.+.) ) O.>XyXwXwXeXvXyX.Xx.N. X<X1X>X|.XXoX1XwXgXVXFXKXKXKXKXFX-Xn dXJXJXKXKXKXKXKXKXKXKXKXKXKXKXKXKXKX",
"KXKXJXKXKXKXKXKXHXmX@X9XbXSXHXKXKXCXcXcXBXHXKXKXKXKXKXKXKXKXKXKXHXKXHXKXKXKXJXAXNXhXyXqX4X0XnXFXFXAXHXKXHX.XN.1XhXnXNXCXVXnXmXCXAXFXKXKXKXHXKXKXFX4X6.cXKXJXKXKXKXKXKXKXKXKXKXKXKXKXKXKXKX",
"KXKXKXHXKXKXHXJXKXKXSXSXKXKXKXKXKXKXKXKXKXKXKXKXKXKXKXKXKXKXKXKXKXKXKXHXKXHXKXKXKXKXKXKXKXJXKXKXHXKXHXKXKXwX1XvXKXKXKXKXKXKXHXKXKXKXKXJXKXKXKXKXJXcXdXFXKXKXKXKXKXKXKXKXKXKXKXKXKXKXKXKXKX",
"KXKXKXKXKXHXKXKXHXKXHXKXHXKXKXKXKXHXKXKXHXKXKXKXHXKXKXKXKXKXKXKXKXKXKXKXKXKXKXJXJXKXKXJXKXKXKXKXHXKXKXHXHXNXVXHXKXHXKXKXKXHXKXHXKXHXKXKXKXKXJXKXKXJXKXKXKXKXKXKXKXKXKXKXKXKXKXKXKXKXKXKXKX",
"KXKXKXKXKXKXKXKXKXKXKXKXKXKXKXKXKXKXKXKXKXKXKXJXKXKXKXKXKXKXKXKXKXKXKXKXKXKXKXKXKXJXKXKXJXKXKXKXKXKXKXKXKXHXKXHXKXKXKXKXKXKXKXKXKXKXKXKXKXKXKXKXKXKXJXKXJXKXKXKXKXKXKXKXKXKXKXKXKXKXKXKXKX",
"KXKXKXKXKXKXKXKXKXHXKXJXKXKXKXKXKXKXKXJXKXKXKXKXKXKXHXKXKXKXKXKXKXKXKXKXKXKXKXKXKXKXKXKXKXKXHXKXKXKXKXKXKXKXKXKXKXHXKXKXKXKXKXKXKXKXKXKXKXKXKXKXKXKXKXKXKXKXKXKXKXKXKXKXKXKXKXKXKXKXKXKXKX",
"KXKXKXKXKXKXKXKXKXKXKXKXKXKXKXKXKXKXKXKXKXHXKXKXKXKXKXKXKXKXKXKXKXKXKXKXKXKXKXKXKXKXKXKXKXKXKXKXKXHXKXKXKXKXKXKXKXKXKXKXKXKXKXKXKXKXKXKXKXKXKXKXKXKXKXKXKXKXKXJXKXKXKXKXKXKXKXKXKXKXKXKXKX",
"KXKXKXKXKXKXKXKXKXKXKXKXKXKXKXKXKXKXKXKXKXKXKXKXKXKXKXKXKXKXKXKXKXKXKXKXKXKXKXKXKXKXKXKXKXKXKXKXKXKXKXKXKXKXKXKXKXKXKXKXKXKXKXHXKXKXKXKXKXKXKXKXKXKXKXKXKXKXKXKXKXKXKXKXKXKXKXKXKXKXKXKXKX",
"KXKXKXKXKXKXKXKXKXKXKXKXKXKXKXKXKXKXKXKXKXKXKXKXKXKXKXKXKXKXKXKXKXKXKXKXKXKXKXKXKXKXKXKXKXKXKXKXKXKXKXKXKXKXKXHXKXKXKXKXKXKXKXKXKXKXKXKXKXKXKXKXKXKXKXKXKXKXKXKXHXKXHXKXKXKXKXKXKXKXKXKXKX",
"KXKXKXKXKXKXKXKXKXKXKXKXKXKXKXKXKXKXKXKXKXKXKXKXKXKXKXKXKXKXKXKXKXKXKXKXKXKXKXKXKXKXKXKXKXKXKXKXKXKXKXKXKXKXKXKXKXKXKXKXKXKXKXKXKXKXKXKXHXKXKXKXKXKXKXKXKXKXKXKXKXKXKXKXKXKXKXKXKXKXKXKXKX",
"KXKXKXKXKXKXKXKXKXKXKXKXKXKXKXKXKXKXKXKXKXKXKXKXKXKXKXKXKXKXKXKXKXKXKXKXKXKXKXKXKXKXKXKXKXKXKXKXKXKXKXKXKXKXKXKXKXKXKXKXKXKXKXKXKXKXKXKXKXKXKXKXKXKXKXKXKXKXKXKXKXKXKXKXKXKXKXKXKXKXKXKXKX",
"KXKXKXKXKXKXKXKXKXKXKXKXKXKXKXKXKXKXKXKXKXKXKXKXKXKXKXKXKXKXKXKXKXKXKXKXKXKXKXKXKXKXKXKXKXKXKXKXKXKXKXKXKXKXKXKXKXKXKXKXKXKXKXKXKXKXKXKXKXKXKXKXKXKXKXKXKXKXKXKXKXKXKXKXKXKXKXKXKXKXKXKXKX",
"KXKXKXKXKXKXKXKXKXKXKXKXKXKXKXKXKXKXKXKXKXKXKXKXKXKXKXKXKXKXKXKXKXKXKXKXKXKXKXKXKXKXKXKXKXKXKXKXKXKXKXKXKXKXKXKXKXKXKXKXKXKXKXKXKXKXKXKXKXKXKXKXKXKXKXKXKXKXKXKXKXKXKXKXKXKXKXKXKXKXKXKXKX",
"KXKXKXKXKXKXKXKXKXKXKXKXKXKXKXKXKXKXKXKXKXKXKXKXKXKXKXKXKXKXKXKXKXKXKXKXKXKXKXKXKXKXKXKXKXKXKXKXKXKXKXKXKXKXKXKXKXKXKXKXKXKXKXKXKXKXKXKXKXKXKXKXKXKXKXKXKXKXKXKXKXKXKXKXKXKXKXKXKXKXKXKXKX",
"KXKXKXKXKXKXKXKXKXKXKXKXKXKXKXKXKXKXKXKXKXKXKXKXKXKXKXKXKXKXKXKXKXKXKXKXKXKXKXKXKXKXKXKXKXKXKXKXKXKXKXKXKXKXKXKXKXKXKXKXKXKXKXKXKXKXKXKXKXKXKXKXKXKXKXKXKXKXKXKXKXKXKXKXKXKXKXKXKXKXKXKXKX",
"KXKXKXKXKXKXKXKXKXKXKXKXKXKXKXKXKXKXKXKXKXKXKXKXKXKXKXKXKXKXKXKXKXKXKXKXKXKXKXKXKXKXKXKXKXKXKXKXKXKXKXKXKXKXKXKXKXKXKXKXKXKXKXKXKXKXKXKXKXKXKXKXKXKXKXKXKXKXKXKXKXKXKXKXKXKXKXKXKXKXKXKXKX",
"KXKXKXJXKXKXKXKXKXKXKXKXKXKXKXKXKXKXKXKXKXKXKXKXKXKXKXKXKXKXKXKXKXKXKXKXKXKXKXKXKXKXKXKXKXKXKXKXKXKXKXKXKXKXKXKXKXKXKXKXKXKXKXKXKXKXKXKXKXKXKXKXKXKXKXKXKXKXKXKXKXKXKXKXKXKXKXKXKXKXKXKXKX",
"KXKXKXKXKXKXKXKXKXKXKXKXKXKXKXKXKXKXKXKXKXKXKXKXKXKXKXKXKXKXKXKXKXKXKXKXKXKXKXKXKXKXKXKXKXKXKXKXKXKXKXKXKXKXKXKXKXKXKXKXKXKXKXKXKXKXKXKXKXKXKXKXKXKXKXKXKXKXKXKXKXKXKXKXKXKXKXKXKXKXKXKXKX",
"JXKXKXKXKXKXKXKXKXKXKXKXKXKXKXKXKXKXKXKXKXKXKXKXKXKXKXKXKXKXKXKXKXKXKXKXKXKXKXKXKXKXKXKXKXKXKXKXKXKXKXKXKXKXKXKXKXKXKXKXKXKXKXKXKXKXKXKXKXKXKXKXKXKXKXKXKXKXKXKXKXKXKXKXKXKXKXHXKXKXFXKXKX",
"GXGXKXKXKXKXKXKXKXKXKXKXKXKXKXKXKXKXKXKXKXKXKXKXKXKXKXKXKXKXKXKXKXKXKXKXKXKXKXKXKXKXKXKXKXKXKXKXKXKXKXKXKXKXKXKXKXKXKXKXKXKXKXKXKXKXKXKXKXKXKXKXKXKXKXKXKXKXKXKXHXKXKXKXKXKXKXKXKXKXKXKXKX",
"JXJXJXHXKXKXKXKXKXKXKXKXKXKXKXKXKXKXKXKXKXKXKXKXKXKXKXKXKXKXKXKXKXKXKXKXKXKXKXKXKXKXKXKXKXKXKXKXKXKXKXKXKXKXKXKXKXKXKXKXKXKXKXKXKXKXKXKXKXKXKXKXKXKXKXKXKXKXKXKXKXKXKXKXKXKXKXKXKXKXKXKXKX"
};
