/* XPM */
static char *result[] = {
/* columns rows colors chars-per-pixel */
"79 93 253 2 ",
"   c #0A090A",
".  c #110C0C",
"X  c #191818",
"o  c #380805",
"O  c #2E110B",
"+  c #271816",
"@  c #391818",
"#  c #2C201E",
"$  c #342F19",
"%  c #282728",
"&  c #3A2524",
"*  c #333030",
"=  c #343535",
"-  c #440605",
";  c #4C0303",
":  c #540302",
">  c #5C0201",
",  c #550C0A",
"<  c #491805",
"1  c #541A08",
"2  c #491817",
"3  c #571616",
"4  c #640101",
"5  c #6C0101",
"6  c #670B0B",
"7  c #730101",
"8  c #7C0203",
"9  c #730B07",
"0  c #711808",
"q  c #681616",
"w  c #701D14",
"e  c #4B260A",
"r  c #562606",
"t  c #472617",
"y  c #493916",
"u  c #573213",
"i  c #68280A",
"p  c #683709",
"a  c #6C3815",
"s  c #703E16",
"d  c #431F22",
"f  c #751F20",
"g  c #472727",
"h  c #4B2525",
"j  c #562727",
"k  c #532C2C",
"l  c #4F332D",
"z  c #573333",
"x  c #682729",
"c  c #762727",
"v  c #65392B",
"b  c #673535",
"n  c #6B3930",
"m  c #793636",
"M  c #384B1C",
"N  c #544918",
"B  c #4D5019",
"V  c #54581E",
"C  c #6A4817",
"Z  c #714B10",
"A  c #69571B",
"S  c #476A1D",
"D  c #556B1D",
"F  c #717417",
"G  c #50502B",
"H  c #735327",
"J  c #684738",
"K  c #4A6724",
"L  c #546824",
"P  c #4E7728",
"I  c #527C25",
"U  c #537C2A",
"Y  c #587828",
"T  c #596834",
"R  c #587A35",
"E  c #696723",
"W  c #677A27",
"Q  c #6D7335",
"!  c #3B3E40",
"~  c #544F4C",
"^  c #674C4B",
"/  c #784A4A",
"(  c #6F5751",
")  c #775958",
"_  c #6A754C",
"`  c #636359",
"'  c #7A6868",
"]  c #73736D",
"[  c #840101",
"{  c #810A0A",
"}  c #813B3B",
"|  c #84590E",
" . c #94710D",
".. c #A67C0B",
"X. c #835837",
"o. c #8B702E",
"O. c #844848",
"+. c #885652",
"@. c #845957",
"#. c #8D6554",
"$. c #8D6D69",
"%. c #8A7978",
"&. c #967878",
"*. c #A57A79",
"=. c #51821F",
"-. c #798519",
";. c #74921D",
":. c #568726",
">. c #56832C",
",. c #5A852C",
"<. c #5C8B2E",
"1. c #5E912D",
"2. c #598434",
"3. c #5D8C31",
"4. c #5E9231",
"5. c #66852C",
"6. c #698628",
"7. c #638C2D",
"8. c #62922F",
"9. c #649A2E",
"0. c #618E31",
"q. c #64873A",
"w. c #768D30",
"e. c #639532",
"r. c #659A33",
"t. c #699C34",
"y. c #6A9738",
"u. c #779434",
"i. c #67A537",
"p. c #6BA235",
"a. c #71A938",
"s. c #668647",
"d. c #6E8F4A",
"f. c #748B57",
"g. c #759457",
"h. c #7DA348",
"j. c #7C926A",
"k. c #9C870B",
"l. c #868816",
"z. c #929516",
"x. c #A6880A",
"c. c #B58C08",
"v. c #AB940F",
"b. c #B89606",
"n. c #BAAA09",
"m. c #919734",
"M. c #B0942C",
"N. c #8DA73B",
"B. c #B6A63C",
"V. c #C49C03",
"C. c #C49905",
"Z. c #C9A603",
"A. c #D5A903",
"S. c #CBB406",
"D. c #D8B705",
"F. c #CDB518",
"G. c #E6B802",
"H. c #CBB22E",
"J. c #CAB638",
"K. c #DAC806",
"L. c #D0C416",
"P. c #E5C904",
"I. c #F1CE07",
"U. c #E8D806",
"Y. c #F9D502",
"T. c #F8E704",
"R. c #F3E804",
"E. c #DECD34",
"W. c #8D934C",
"Q. c #AB974B",
"!. c #93A944",
"~. c #B4A84E",
"^. c #A8A656",
"/. c #958D6E",
"(. c #859A68",
"). c #8B9B79",
"_. c #B49670",
"`. c #8DA674",
"'. c #B0A969",
"]. c #C9B550",
"[. c #C7B964",
"{. c #D7C650",
"}. c #D6C768",
"|. c #D6C776",
" X c #EACA79",
".X c #898684",
"XX c #988787",
"oX c #8F918B",
"OX c #939987",
"+X c #9C9796",
"@X c #A58989",
"#X c #B0918E",
"$X c #A89897",
"%X c #B39B9A",
"&X c #98A887",
"*X c #B1AB95",
"=X c #A6B597",
"-X c #AF9EA1",
";X c #AAA9A7",
":X c #B6A9A8",
">X c #ADB8A8",
",X c #B6B8AA",
"<X c #B5B5B4",
"1X c #BAB6B4",
"2X c #BCBCBC",
"3X c #CBBD85",
"4X c #C3B2AB",
"5X c #C7BAB9",
"6X c #B7C3AB",
"7X c #BDC5B5",
"8X c #D8CD93",
"9X c #E2D48E",
"0X c #CEC8AE",
"qX c #DBD4A8",
"wX c #C5CABA",
"eX c #DDD6B5",
"rX c #E0D9B0",
"tX c #79B229",
"yX c #79B229",
"uX c #79B229",
"iX c #79B229",
"pX c #79B229",
"aX c #79B229",
"sX c #79B229",
"dX c #79B229",
"fX c #79B229",
"gX c #79B229",
"hX c #79B229",
"jX c #79B229",
"kX c #79B229",
"lX c #79B229",
"zX c #79B229",
"xX c #79B229",
"cX c #79B229",
"vX c #79B229",
"bX c #79B229",
"nX c #79B229",
"mX c #79B229",
"MX c #79B229",
"NX c #79B229",
"BX c #79B229",
"VX c #79B229",
"CX c #79B229",
"ZX c #79B229",
"AX c #79B229",
"SX c #79B229",
"DX c #79B229",
"FX c #79B229",
"GX c #79B229",
"HX c #79B229",
"JX c #79B229",
"KX c #79B229",
"LX c #79B229",
/* pixels */
"LXLXLXLXLXLXLXLXLXLXLXLXLXLXLXLXLXLXLXLXLXLXLXLXLXLXLXLXLXLXLXLXLXLXLXLXLXLXLXLXLXLXLXLXLXLXLXLXLXLXLXLXJXLXLXLXLXLXLXLXLXLXLXLXLXLXLXLXLXHXKXGXKXLXLXLXLXLXLX",
"LXLXLXLXLXLXLXLXLXLXLXLXLXLXLXLXLXLXLXLXLXLXLXLXLXLXLXLXLXLXLXLXLXLXLXLXLXLXLXLXLXLXLXHXLXLXLXLXLXHXHXaXaXAXLXLXLXLXLXLXLXLXLXLXLXLXLXLXKXKXHXKXLXLXLXLXLXLXLX",
"LXLXLXLXLXLXLXLXLXLXLXLXLXLXLXLXLXLXLXLXLXLXLXLXLXLXLXLXLXLXLXLXLXLXLXLXLXLXLXLXLXLXLXLXLXLXLXLXJXLXMX$.-XAXHXLXLXLXLXLXLXLXLXLXLXLXLXHXGXKXLXLXLXLXLXLXLXLXLX",
"LXLXLXLXLXLXLXLXLXLXLXLXLXLXLXLXLXLXLXLXLXLXLXLXLXLXLXLXLXLXLXLXLXLXLXLXLXLXLXLXLXLXLXLXLXLXLXHXJXxXXXz %XGXLXLXLXLXLXLXLXLXLXLXLXLXGXGXLXLXLXLXLXLXLXLXLXLXLX",
"LXLXLXLXLXLXLXLXLXLXLXLXLXLXLXLXLXLXLXLXLXLXLXLXLXLXLXLXLXLXLXLXLXLXLXLXLXLXLXLXLXJXLXLXLXLXKXLXHX4Xm j :XHXHXLXLXLXLXLXLXLXLXLXKXHXKXLXLXLXLXLXLXLXLXLXLXLXLX",
"LXLXLXLXLXLXLXLXLXLXLXLXLXLXLXLXLXLXLXLXLXLXLXLXLXLXLXLXLXLXLXLXLXLXLXLXLXLXLXLXLXLXLXLXLXLXHXKX5X} > b 4XHXLXLXLXLXLXLXLXLXLXGXHXKXLXLXLXLXLXLXLXLXLXLXLXLXLX",
"LXLXLXLXLXLXLXLXLXLXLXLXLXLXLXLXLXLXLXLXLXLXLXLXLXLXLXLXLXLXLXLXLXLXLXLXLXLXLXKXAXGXLXLXLXHXLXfX$.q 4 m 5XHXLXLXLXLXLXLXLXKXGXHXKXLXLXLXLXLXLXLXLXLXLXLXLXLXLX",
"LXLXLXLXLXLXLXLXLXLXLXLXLXLXLXLXLXLXLXLXLXLXLXLXLXLXLXLXLXLXLXLXLXLXLXLXLXLXLXGXaXiXAXHXLXLXBX*.f 7 6 / yXHXLXLXLXLXLXLXKXGXHXLXLXLXLXLXLXLXLXLXLXLXLXLXLXLXLX",
"LXLXLXLXLXLXLXLXLXLXLXLXLXLXLXLXLXLXLXLXLXLXLXLXLXLXLXLXLXLXLXLXLXLXLXLXLXLXLXFX@X%.jXJXLXAX@Xc 7 5 4 $.aXHXLXLXLXLXLXGXKXHXLXLXLXLXLXLXLXLXLXLXLXLXLXLXLXLXLX",
"LXLXLXLXLXLXLXLXLXLXLXLXLXLXLXLXLXLXLXLXLXLXLXLXLXLXLXLXLXLXLXLXLXLXLXLXLXLXLXLX@X) iXLXGX5XO.9 8 5 , $.jXHXLXLXLXHXKXKXLXLXLXLXLXLXLXLXLXLXLXLXLXLXLXLXLXLXLX",
"LXLXLXLXLXLXLXLXLXLXLXLXLXLXLXLXLXLXLXLXLXLXLXLXLXLXLXLXLXLXLXLXLXLXLXLXLXLXLXLX#Xk &.xX5XO.6 8 9 4 , *.xXGXGXGXGXAXGXKXLXHXHXKXHXLXLXKXHXJXLXHXLXLXLXLXLXLXLX",
"LXLXLXLXLXLXLXLXLXLXLXLXLXLXLXLXLXLXLXLXLXLXLXLXLXLXLXLXLXLXLXLXLXLXLXLXLXLXLXLX$Xh +.aX%Xc 9 7 7 > , #XVXVXjXkXBXSXKXKXHXHXHXLXHXLXKXLXLXHXLXLXLXLXLXLXLXLXLX",
"LXLXLXLXLXLXLXLXLXLXLXLXLXLXLXLXLXLXLXLXLXLXLXLXLXLXLXLXLXLXLXLXLXLXLXLXLXLXKXLX%X3 x &.&.c 9 7 5 > 3 -XhX&.m m } } O.O.O.O.+.+.$.$.&.&.XX@X@X5XZXLXLXLXLXLXLX",
"LXLXLXLXLXLXLXLXLXLXLXLXLXLXLXLXLXLXLXLXLXLXLXLXLXLXLXLXLXLXLXLXLXLXLXLXLXLXLXLX%Xj q b +.c 5 7 5 > 3 :X@Xf 7 7 7 5 5 4 4 4 4 4 5 6 6 q , z $.5XGXKXLXLXLXLXLX",
"LXLXLXLXLXLXLXLXLXLXLXLXLXLXLXLXLXLXLXLXLXLXLXLXLXLXLXLXLXLXLXLXLXLXLXLXLXLXLXLX$Xj 4 6 x 6 7 7 5 > 3 $.m [ [ [ 8 [ 8 8 8 7 7 7 5 4 > , m &.5XFXLXLXKXLXLXLXLX",
"LXLXLXLXLXLXLXLXLXLXLXLXLXLXLXLXLXLXLXLXLXLXLXLXLXLXLXLXLXLXLXLXLXLXLXLXLXLXLXLX%Xq 5 4 ; 5 8 5 5 > - 3 9 [ 7 5 7 5 5 5 4 4 6 > > 3 x &.uXGXLXLXLXLXLXLXLXLXLX",
"LXLXLXLXLXLXLXLXLXLXLXLXLXLXLXLXLXLXLXLXLXLXLXLXLXLXLXLXLXLXLXLXLXLXLXLXLXLXLXHX%Xx 4 5 5 7 7 7 5 > ; 4 8 7 7 7 7 5 4 > > > > : 3 O.-XMXHXHXKXLXLXLXLXLXLXKXLX",
"LXLXLXLXLXLXLXLXLXLXLXLXLXLXLXLXLXLXLXLXLXLXLXLXLXLXLXLXLXLXLXLXLXLXLXKXHXLXLX5X) 3 4 7 7 7 7 5 4 > 4 7 7 7 7 7 5 4 > 4 > , j / %XZXLXLXLXLXLXLXLXLXLXLXLXLXLX",
"LXLXLXLXLXLXLXLXLXLXLXLXLXLXLXLXLXLXLXLXLXLXLXLXLXLXLXLXLXLXLXLXLXLXLXLXLXHXLX@X3 > 5 7 7 7 5 5 4 4 7 7 7 7 7 7 5 4 4 4 q / %XxXHXLXLXHXLXLXLXLXLXLXLXLXLXLXLX",
"LXLXLXLXLXLXLXLXLXLXLXLXLXLXLXLXLXLXLXLXLXLXLXLXLXLXLXLXLXLXLXLXLXLXLXHXGXHXJXXXq 4 4 5 7 5 7 7 7 7 7 7 7 7 7 7 5 : ; 2 ( @X%X#X*.4XMXLXLXLXLXLXKXLXLXLXLXLXLX",
"LXLXLXLXLXLXLXLXLXLXLXLXLXLXLXLXLXLXLXLXLXLXLXLXLXLXLXLXLXLXLXLXLXLXAXZXBXMXhX/.u 1 1 1 , > 4 5 7 7 7 7 7 7 7 5 4 : ; q m } } f f +.aXLXLXLXLXLXLXLXLXLXLXLXLX",
"LXLXLXLXLXLXLXLXLXLXLXLXLXLXLXLXLXLXLXLXLXLXLXLXLXLXLXLXLXLXKXGXGXHXVXfXtX&Xg.R Y L L V N y e : > 5 7 7 7 7 7 8 8 7 7 { [ 8 7 7 7 c %XAXJXLXLXLXLXLXLXLXLXLXLX",
"LXLXLXLXLXLXLXLXLXLXLXLXLXLXLXLXLXLXLXLXLXLXLXLXLXLXLXLXLXLXGXlXNXCXNX<Xj.R :.1.r.r.8.e.4.4.Y N < > 4 5 7 7 7 [ [ [ [ [ 8 [ [ 8 [ 9 O.jXLXJXLXHXLXLXLXLXLXLXLX",
"LXLXLXLXLXLXLXLXLXLXLXLXLXLXLXLXLXLXKXLXLXLXLXLXLXLXLXLXLXKXxXpXuXgXpXoXR 1.r.r.1.e.r.e.e.r.r.3.V 1 > 5 7 7 7 8 8 8 7 7 7 7 5 7 7 8 f 4XHXLXLXLXLXLXLXLXLXKXLX",
"LXLXLXLXLXLXLXLXLXLXLXLXLXLXLXLXLXKXFXDXFXJXLXLXLXLXLXLXLXSXuX<XuX2XoXR >.4.4.4.e.e.r.e.r.9.e.t.e.V 1 > 5 5 7 7 7 5 7 7 7 7 7 7 7 7 7 $.aXLXLXLXLXLXLXLXLXLXLX",
"LXLXLXLXLXLXLXLXLXLXLXLXLXLXLXLXKXLXnXeXvXGXLXLXLXLXJXLXLXSXhXuXhXpXOXP :.U U 4.r.e.r.r.r.e.r.r.t.Y t > 4 5 7 7 7 7 5 5 5 4 4 5 5 8 7 m 4XGXHXLXLXLXLXLXLXLXLX",
"LXLXLXLXLXLXLXLXLXLXLXLXLXLXLXLXJXLXnX3X[.zXJXJXJXLXLXJXGXkX1XhXCX7Xg.P ,.,.<.e.r.r.t.r.e.e.e.e.p.8.N 1 > 4 4 4 4 > 4 4 > > 4 4 5 7 7 9 $.jXHXHXLXLXLXLXLXLXLX",
"LXLXLXLXLXLXLXLXLXLXLXLXLXLXLXLXLXLXGXqXJ.[.vXLXLXKXLXLXDX0X0XbXBX=Xs.P <.1.e.e.e.e.e.r.e.e.e.e.t.8.V 1 > > > 4 > 4 > > : : : > 4 5 7 7 } 4XGXHXLXLXLXLXLXLXLX",
"LXLXLXLXLXLXLXLXLXLXLXLXLXLXLXLXLXLXLXvX{.H.}.nXzXrXeXqX}.J.8XxXkX&XR U 3.e.e.r.r.<.,.e.r.r.r.r.r.e.L 1 > 4 > > > : : , u y u ; : 4 7 6 6 *.MXHXKXLXLXLXLXLXLX",
"LXLXLXLXLXLXLXLXLXLXLXLXLXLXLXLXLXJXJXDX9XF.F.[.{.J.J.L.K.D.~.eXdX).R U 3.e.r.r.e.<.<.e.e.e.e.e.r.e.Y r > > > > , < N V Y I _ @.x : > 9 5 O.5XGXKXLXLXLXLXLXLX",
"LXLXLXLXLXLXLXLXLXLXLXLXLXLXLXLXLXLXLXFXqXH.D.v.S.S.n.U.T.U.H.8XaX&XR >.0.e.e.r.r.y.t.y.r.r.r.r.r.e.L 1 > : , e N L 3.r.i.=.`.iX@Xb , 5 5 x #XVXKXLXLXLXLXLXLX",
"LXLXLXLXLXLXLXLXLXLXLXLXLXLXLXLXHXGXGXDXeXH.C.c.v.z.l.n.R.R.D.}.wX&XR U ,.e.r.r.r.r.e.e.e.e.r.r.r.q.L e < N L ,.i.i.p.y.y.=.`.bXHX<XJ 2 6 5 O.5XHXKXLXLXLXLXLX",
"LXLXLXLXLXLXLXLXLXLXLXLXLXLXLXLXBXhXjXqX{.F.b.b.v.-.D -.S.I.I.].4X&XR >.<.e.e.<.1.r.e.e.0.W E 5.i.t.Y V L r.i.t.W 5.e.r.y.:.(.bXGX7X_ ^ x ; x %XZXJXLXLXLXLXLX",
"LXLXLXLXLXLXLXLXLXLXLXLXLXLXKXLXFXlX,X~.F.U.K.D.b.-.,.P F z.A.H.8X).R >.<.e.8.8.4.r.t.i.y.W E A C E 7.i.i.6.A E W 5.r.r.t.:.`.dX>Xs.2.7X4X/ 3 ) jXJXKXLXLXLXLX",
"LXLXLXLXLXLXLXLXLXLXLXLXLXLXLXLXCXuX<X*X].U.T.F.b.l.:.<.>.Y -.v.^./.R >.<.e.r.r.r.e.6.W e.i.e.W C a a C s a C E 5.p.i.y.y.:.s.j.s.:.s.dXGX5X) b $XZXLXLXLXLXLX",
"LXLXLXLXLXLXLXLXLXLXLXLXLXLXLXLXSXpX<X5X0XJ.G.D.C.l.Y <.4.3.P W Q s.R >.3.r.e.8.8.e.5.W E E W t.t.E s 0 w A W p.t.5.W W r.3.P P :.e.g.dXLXLXjX@X#XjXHXKXLXLXLX",
"LXLXLXLXLXLXLXLXLXLXLXLXLXJXLXLXZXpX2XuXkX4X].D.A.x.W <.8.e.4.>.Y R P >.<.e.4.e.8.8.r.8.E C s A W 5.6.E W r.e.W H A E W y.<.I ,.8.y.(.cXHXLXLXZXaXMXKXLXLXLXLX",
"LXLXLXLXLXLXLXLXLXLXLXLXLXLXLXKXBXkXuX;X;X,X'.J.A.x.-.8.<.<.e.e.R P P U <.8.8.1.9.t.p.p.y.7.A i w s E W 5.W C i a E e.e.t.,.U 3.<.r.&XCXLXLXKXLXKXLXLXLXLXLXLX",
"LXLXLXLXLXLXLXKXLXLXLXLXLXLXLXLXGXcX&Xs.P R (.`.M.c.-.7.8.<.e.t.4.>.I U <.e.8.<.e.a.a.a.a.a.p.7.H 0 8 9 9 9 0 A 7.p.r.r.t.3.U >.:.d.7XGXLXLXLXLXLXLXLXLXLXLXLX",
"LXLXLXLXLXLXLXLXLXLXLXLXLXLXLXLXcX).R <.3.,.:.j.^.M.k.6.0.<.<.e.r.<.>.U 3.9.<.<.e.r.t.t.p.a.p.t.9.W C 0 9 s W 9.9.r.r.r.r.,.P <.1.d.sXJXLXLXLXLXLXLXLXLXLXLXLX",
"LXLXLXLXLXLXLXLXLXLXLXLXLXLXLXKX`.0.<.<.3.4.8.e.&X'.W.F 3.4.,.<.e.e.,.>.,.4.3.,.,.<.4.4.e.e.t.t.r.p.r.W 5.8.r.p.p.a.a.y.t.,.U <.r.&XbXLXLXLXLXLXLXLXLXLXLXLXLX",
"LXLXLXLXLXLXLXLXLXLXLXLXLXLXKXJX`.,.4.4.e.e.r.1.g.&X*X/.2.e.0.>.,.0.3.>.>.4.3.q.5.U I I :.i.t.r.1.e.t.e.r.9.4.t.9.9.t.e.u.7.7.:.r.6XZXLXLXLXLXLXLXLXLXLXLXLXLX",
"LXLXLXLXLXLXLXLXLXLXLXLXLXLXGXwXd.:.e.e.9.e.r.<.2.f.OXOXs.,.r.e.3.3.7.,.U 3.<.N.w.Q /.=Xg.L Y ,.1.4.e.e.r.t.1.e.y.y.U w.m.u.,.,.(.cXKXLXLXLXLXLXLXLXLXLXLXLXLX",
"LXLXLXLXLXLXLXLXLXLXLXLXLXGX7Xj.0.4.e.r.e.e.r.,.U U 2.f.s.R ,.4.3.>.3.3.>.>.<.N.m.m.#XeX/.J V Y <.3.:.U <.t.t.y.d._ V o.~.u.K s.7XFXLXLXLXLXLXLXLXLXLXLXLXLXLX",
"LXLXLXLXLXLXLXLXLXLXLXJXLXCX(.>.<.r.r.e.e.4.,.I U U I :.1.U S K ,.<.:.>.>.>.I m.~.M.#.*.#.+.V Y 3.<.>.I U 3.t.t.Q ( X.Q.~.6.R =XSXLXLXLXLXLXLXLXLXLXLXLXLXLXLX",
"LXLXLXLXLXLXLXLXLXKXLXLXGX7Xd.4.r.r.e.4.<.,.>.f.f.2.>.>.3.>.B Z n.L.z.Y U L C E ].[.| r u Q R <.i.t.e.:.U U 0.p.7.E Q. X~.d.>XSXKXLXLXLXLXLXLXLXLXLXLXLXLXLXLX",
"LXLXLXLXLXLXLXLXLXLXKXKXBX6Xh.4.e.t.r.4.P R (.dX=Xs.P >.>.P B  .K.R.S.-.L p p A Q.9X[.Q L I ,.e.p.p.t.e.0.0.,.t.p.t.'.|.^.=XCXKXLXLXLXLXLXLXLXLXLXLXLXLXLXLXLX",
"LXLXLXLXLXLXLXLXKXKXdX`.d.d.e.e.r.e.<.I s.>XCXLXZX&XR >.,.P N k.K.Y.D.k.C p V V o.[.rX9Xm.0.:.<.e.8.e.e.e.e.e.e.9.p.!.^.0XCXKXLXLXLXLXLXLXLXLXLXLXLXLXLXLXLXLX",
"LXLXLXLXLXLXLXDXvX|.B.z.l.l.-.-.-.p.:.R `.bXJXJXLX>Xq.I 2.4.K C c.A.b.Z y y L V A ~.9XnXqX}.N.;.6.Y U P S S P <.r.p.a.`.vXJXLXKXLXLXLXLXLXLXLXLXLXLXLXLXLXLXLX",
"LXLXLXLXLXLXJXJXqXJ.S.K.A.A.V.Z.k.E M _ ,XGXLXKXLX6XR P >.4.2.L u u p j g B K V B W m.|.8X'.Q.^.^.W.W Y W.'.h.5.,.I 9.`.bXJXLXLXLXLXLXLXLXLXLXLXLXLXLXLXLXLXLX",
"LXLXLXLXLXLXLXDXeXE.U.T.I.G.D.G...C k ^ ;XZXLXKXLX6Xs.P U 4.4.4.K M t z k l L P q.j.d.w.N.h.!.'.|.^.0.,.^. X~.6.s./.g.g.wXGXLXLXLXLXLXLXLXLXLXLXLXLXLXLXLXLXLX",
"LXLXLXLXLXLXLXFXeX].K.K.D.V.V.V. .X.j b @XBXHXGXZX&XU I 3.4.e.s.<.L l b b j G P `.sX6Xj.U :.9.!.].!.0.0.N.].!.:.m.8X0X=XsXFXLXJXLXLXLXLXLXLXLXLXLXLXLXLXLXLXLX",
"LXLXLXLXLXKXLXFX8XH.S.D.Z.A.C.C. .Z l G $XZXJXJX2X~ M M S P s.j.j.2.G g k h & $ .XCXLXCX=Xf.R <.u.8.4.4.1.7.1.z.H.8XDXLXJXJXLXLXLXLXLXLXLXLXLXLXLXLXLXLXLXLXLX",
"LXLXLXLXLXKXKXDX9XE.R.T.Y.G.G.G.v.A B ] wXGXKXGX+X*   X X X ~ =X<Xj.G $ + % X . ] mXLXKXGX7Xs.T P U U >.>.U ;.S.E.eXSXJXJXLXLXLXLXJXLXLXLXLXLXLXLXLXLXLXLXLXLX",
"LXLXLXLXKXGXJXDXrX{.U.T.Y.I.G.A.b.F T =XZXHXKXKX+X%   X = % = .XmXfX.X~ ! = = X ] NXKXLXKXAX+XJ A -.6.Y Y m.K.U.}.nXLXLXLXLXLXLXLXLXLXLXLXLXLXLXLXLXLXLXLXLXLX",
"LXLXLXGXKXLXLXJXzXE.Y.T.Y.G.A.V.c.Z z XXVXKXLXJX;X* X X = * = ` yXBX<X] ! = = % .XBXLXJXGXKX-XH ..A.b.k.x.S.P.L.}.DXJXLXJXLXLXLXLXLXLXLXLXKXLXLXLXLXLXLXLXLXLX",
"LXLXJXJXLXJXLXJXbX{.L.K.D.A.Z.Z.Z.| ( :XZXHXKXKXiX~ .   X % * ~ >XmX$Xz @ # # + ` 2XSXKXLXLXwXW.x.A.G.G.P.D.S.H.8XJXJXLXLXLXLXLXLXGXGXKXLXLXLXLXLXLXLXLXLXLXLX",
"LXKXGXJXLXLXLXJXZX8XF.D.D.G.D.G.A. ./.jXLXJXKXGXBX] X   X X X & ' oX^ , o 2 o + % ` ;XhXyXmXwXg.F v.A.I.T.U.K.{.vXJXLXLXLXLXLXLXKXmXuXSXLXLXLXLXLXKXLXLXLXLXLX",
"GXKXJXLXLXLXLXJXJXqXJ.U.Y.Y.G.A.v.F W.>XsXDXLXLXkX` . . X O O o @ 2 , , 1 r 2 @ % % ~ _ $._./.d.1.;.z.b.P.U.L.9XDXLXLXLXLXLXLXLXGXiX<XkXGXLXLXLXLXLXLXLXLXLXLX",
"GXLXLXLXLXLXLXLXLXvX}.U.R.K.v.l.7.r.y.y.d.=XsXlX+X* . . o - ; ; o o : ; e e o % = % O Z Z.S. .D U 3.<.6.z.F.}.eXJXJXLXJXKXLXKXLXSXiXhXuXNXKXLXLXLXLXLXLXLXLXLX",
"KXLXLXLXLXLXLXJXLXDX9XH.n.z.W :.e.r.4.<.:.Y ' /.( @ o < - : ; : ; ; : ; , o .   X % g  .U.T.n.Z $ B :.1.2.^.qXFXLXLXLXLXLXLXLXLXGXtXlXpXNXHXLXLXLXLXLXLXLXLXLX",
"LXLXLXLXLXLXLXLXJXLXvXqX,Xs.P 4.4.e.e.Y y e r r r i p i < - - , - , j h 2 z & X     O Z D.T.n.Z @ y S <.<._ %.:XxXVXAXAXZXVXZXFXNXtXhXgXpXVXHXLXLXLXLXLXLXLXLX",
"LXLXLXLXJXLXLXLXLXLXGXJXdXg.,.e.e.t.4.I N i r 1 < o o O O O @ z h z XX1X' XXiXoX* . @ p c.G...C K K B U :.L y a J @.:XiX+X' +X1X:XuXCXlXuXkXKXLXLXLXLXLXLXLXLX",
"LXKXLXLXLXLXLXLXLXLXLXLXdXf.>.4.4.r.r.<.B e y $ @ O < Z Z H :XMXuX<XkXAXmXtXkXZX<X( t @ e r e $ L ,.P ,.-.Z u r r i a h 2 - , 2 d ^ .X^ k $XAXKXKXLXLXLXLXLXLX",
"LXLXLXLXLXLXLXLXLXKXLXxXXXT :.9.8.e.r.3.:.U L G & @ | V.D.v.0XGXkXgXBXCXZXkXtXpXfXXX& X + + @ g G U W -.k. .o.o.n e < - - : : ; o o j , - ^ -XxXHXLXLXLXLXLXLX",
"LXLXLXLXLXLXLXLXLXJXLXVX$XG I 1.8.r.e.:.1.4.K $ @ p C.Y.U.B.*XaXiXhXBXBXBXCXkXpXgX;X~ + & g k j & B  .c.V.b.[.eX4X%X*.( < - ; : - : : , 1 < b %XZXHXLXLXLXLXLX",
"LXLXLXLXLXLXLXLXLXLXJXLXxX%.K =.<.3.<.>.U G $ + + C b.G.].,X1X2XgXNXBXBXBXBXZXSXfX;X%.g h x j j j Z C.Z.C..._.CXLXLXAXuX) h - o ; > : - e r J -XZXLXLXLXLXJXLX",
"LXLXLXLXLXLXLXLXLXLXLXLXVX4X).(.d.q.g.g.` l & & + e | B.4XMXhXiXlXBXBXBXBXZXKXmXuXpX;Xz d g h k J ..G.b...C ) <XAXHXHXGX2XXX^ 2 2 3 - - o j @XMXLXKXLXLXLXLXLX",
"LXLXLXLXLXLXLXLXLXLXJXLXLXLXLXZXsX7XuX$X^ g h h d O g oXBXSXCXZXCXBXZXZXGXKXZXpXhXGXhX' h z b b b | .. .v k @ ) pXAXZXAXLXLXuX.XoX$X^ 3 k $XMXLXKXLXLXLXLXLXLX",
"LXLXLXLXLXLXLXLXLXLXLXLXLXLXLXJXGXKX5X^ h k h h g + l %.>XfXmXZXLXKXLXGXlXgXiXgXVXKXlX%.b b b b b z v k g g @ & .XpXtXgXZXMX2XuXCXMX$X) %XVXHXJXLXLXLXLXLXLXLX",
"LXLXLXLXLXLXLXLXLXLXLXLXLXJXKXLXLXhX' h x b b b m H  .x.M.M.&X4XpXdXpXpXuXuXBXGXLXLXkX%.z z b k k g g k d @ & ~ oXuXiXuXuX2XfXBXZXVXBXuXMXKXLXLXLXLXLXLXLXLXLX",
"LXLXLXLXLXLXLXLXLXLXLXLXLXLXLXLXSX;X~ j b b b b X.c.Z.Z.A.b.M.*XpXhXgXkXBXSXGXLXLXLXBX$Xk 2 g h k h o @ z ' @X;XiXSXCXhXiXkXBXBXBXBXlXtXlXHXHXLXLXKXLXLXLXLXLX",
"LXLXLXLXLXLXLXLXLXLXLXLXLXLXLXLXfX' & g h k k b H c.C.c.b.x.].eXZXFXGXGXLXLXLXLXLXLXZX-Xg @ & @ @ g ^ &.:XkXZXZXhXgXBXVXmXBXCXCXBXBXBXpXtXBXKXLXLXLXLXLXLXLXLX",
"LXLXLXLXLXLXLXLXLXLXLXLXLXLXKXLX+Xl @ @ & g h k j s | H | X.eXLXLXLXLXLXLXLXKXLXLXLXZX:X* O & z ( XXuXAXLXLXLXKXkX<XgXGXGXZXBXBXBXBXCXmXpXgXZXKXLXLXLXLXLXLXLX",
"LXLXLXLXLXLXLXLXLXLXLXLXLXLXKXLX-X~ l & 2 @ & @ 2 g h h k ( aXGXKXLXLXLXLXLXLXLXLXLXGXfX^ z ) +XfXAXLXKXKXLXHXLXGXgXuXkXAXKXAXSXZXZXSXSXkXtXkXGXKXLXLXLXLXLXLX",
"LXLXLXLXLXLXLXLXLXLXLXLXLXLXLXLXKXMX1X.X) z z l l h d @ & ^ fXKXKXLXLXLXLXLXLXLXLXLXLXAXpXfXGXLXLXLXLXLXLXLXLXLXLXLXNXtXfXBXBXZXSXGXGXmX2XuXCXKXLXLXLXLXLXLXLX",
"LXLXLXLXLXLXLXLXLXLXLXLXLXLXLXLXLXGXGXZXZXjX:X%.^ g d @ & ) fXKXLXLXLXLXLXLXLXLXLXLXLXKXGXGXGXKXLXLXLXLXLXLXLXLXLXLXKXGXkXtX;X;X<X<X<X2XkXGXLXLXLXLXLXLXLXLXLX",
"LXLXLXLXLXLXLXLXLXLXLXLXLXLXLXLXLXLXLXLXLXLXLXKXGXVXiX+X%.;XZXLXLXLXKXLXLXLXLXLXLXLXLXLXLXLXLXLXLXLXLXLXLXLXLXLXLXLXLXLXLXLXKXGXGXGXKXKXLXLXLXLXLXLXLXLXLXLXLX",
"LXLXLXLXLXLXLXLXLXLXLXLXLXLXLXLXLXLXLXLXLXKXLXLXLXLXGXVXmXVXKXLXLXLXLXLXLXLXLXLXLXLXLXLXLXLXLXLXLXLXLXLXLXLXLXLXLXLXLXLXLXLXLXLXLXLXLXLXLXLXLXLXLXLXLXLXLXLXLX",
"LXLXLXLXLXLXLXLXLXLXLXLXLXLXLXLXLXLXLXLXLXLXLXLXLXLXLXLXLXLXLXLXLXLXLXLXLXLXLXLXLXLXLXLXLXLXLXLXLXLXLXLXLXLXLXLXLXLXLXLXLXLXLXLXLXLXLXLXLXLXLXLXLXLXLXLXLXLXLX",
"LXLXLXLXLXLXLXLXLXLXLXLXLXLXLXLXLXLXLXLXLXLXLXLXLXKXLXLXKXLXLXLXLXLXLXLXLXLXLXLXLXLXLXLXLXLXLXLXLXLXLXLXLXLXLXLXLXLXLXLXLXLXLXLXLXLXLXLXLXLXLXLXLXLXLXLXLXLXLX",
"LXLXLXLXLXLXLXLXLXLXLXLXLXLXLXLXLXLXLXLXLXLXLXLXLXLXLXLXLXLXLXLXLXLXLXLXLXLXLXLXLXLXLXLXLXLXLXLXLXLXLXLXLXLXLXLXLXLXLXLXLXLXLXLXLXLXLXLXLXLXLXLXLXLXLXLXLXLXLX",
"LXLXLXLXLXLXLXLXLXLXLXLXLXLXLXLXLXLXLXLXLXLXLXLXLXLXLXLXLXLXLXLXLXLXLXLXLXLXLXLXLXLXLXLXLXLXLXLXLXLXLXLXLXLXLXLXLXLXLXLXLXLXLXLXLXLXLXLXLXLXLXLXLXLXLXLXLXLXLX",
"LXLXLXLXLXLXLXLXLXLXLXLXLXLXLXLXLXLXLXLXLXLXLXLXLXLXLXLXLXLXLXLXLXLXLXLXLXLXLXLXLXLXLXLXLXLXLXLXLXLXLXLXLXLXLXLXLXLXLXLXLXLXLXLXLXLXLXLXLXLXLXLXLXLXLXLXLXLXLX",
"LXLXLXLXLXLXLXLXLXLXLXLXLXLXLXLXLXLXLXLXLXLXLXLXLXLXLXLXLXLXLXLXLXLXLXLXLXLXLXLXLXLXLXLXLXLXLXLXLXLXLXLXLXLXLXLXLXLXLXLXLXLXLXLXLXLXLXLXLXLXLXLXLXLXLXLXLXLXLX",
"LXLXLXLXLXLXLXLXLXLXLXLXLXLXLXLXLXLXLXLXLXLXLXLXLXLXLXLXLXLXLXLXLXLXLXLXLXLXLXLXLXLXLXLXLXLXLXLXLXLXLXLXLXLXLXLXLXLXLXLXLXLXLXLXLXLXLXLXLXLXLXLXLXLXLXLXLXLXLX",
"LXLXLXLXLXLXLXLXLXLXLXLXLXLXLXLXLXLXLXLXLXLXLXLXLXLXLXLXLXLXLXLXLXLXLXLXLXLXLXLXLXLXLXLXLXLXLXLXLXLXLXLXLXLXLXLXLXLXLXLXLXLXLXLXLXLXLXLXLXLXLXLXLXLXLXLXLXLXLX",
"LXLXLXLXLXLXLXLXLXLXLXLXLXLXLXLXLXLXLXLXLXLXLXLXLXLXLXLXLXLXLXLXLXLXLXLXLXLXLXLXLXLXLXLXLXLXLXLXLXLXLXLXLXLXLXLXLXLXLXLXLXLXLXLXLXLXLXLXLXLXLXLXLXLXLXLXLXLXLX",
"LXLXLXLXLXLXLXLXLXLXLXLXLXLXLXLXLXLXLXLXLXLXLXLXLXLXLXLXLXLXLXLXLXLXLXLXLXLXLXLXLXLXLXLXLXLXLXLXLXLXLXLXLXLXLXLXLXLXLXLXLXLXLXLXLXLXLXLXLXLXLXLXLXLXLXLXLXLXLX",
"LXLXLXLXLXLXLXLXLXLXLXLXLXLXLXLXLXLXLXLXLXLXLXLXLXLXLXLXLXLXLXLXLXLXLXLXLXLXLXLXLXLXLXLXLXLXLXLXLXLXLXLXLXLXLXLXLXLXLXLXLXLXLXLXLXLXLXLXLXLXLXLXLXLXLXLXLXLXLX",
"LXLXLXLXLXLXLXLXLXLXLXLXLXLXLXLXLXLXLXLXLXLXLXLXLXLXLXLXLXLXLXLXLXLXLXLXLXLXLXLXLXLXLXLXLXLXLXLXLXLXLXLXLXLXLXLXLXLXLXLXLXLXLXLXLXLXLXLXLXLXLXLXLXLXLXLXLXLXLX",
"LXLXLXLXLXLXLXLXLXLXLXLXLXLXLXLXLXLXLXLXLXLXLXLXLXLXLXLXLXLXLXLXLXLXLXLXLXLXLXLXLXLXLXLXLXLXLXLXLXLXLXLXLXLXLXLXLXLXLXLXLXLXLXLXLXLXLXLXLXLXLXLXLXLXLXLXLXLXLX",
"LXLXLXLXLXLXLXLXLXLXLXLXLXLXLXLXLXLXLXLXLXLXLXLXLXLXLXLXLXLXLXLXLXLXLXLXLXLXLXLXLXLXLXLXLXLXLXLXLXLXLXLXLXLXLXLXLXLXLXLXLXLXLXLXLXLXLXLXLXLXLXLXLXLXLXLXLXLXLX"
};
