/* XPM */
static char *result[] = {
/* columns rows colors chars-per-pixel */
"79 93 255 2 ",
"   c #0A0B0A",
".  c #191717",
"X  c #330F08",
"o  c #3A0908",
"O  c #2B1B1A",
"+  c #371818",
"@  c #322A1B",
"#  c #2B2120",
"$  c #2B292B",
"%  c #392322",
"&  c #34342E",
"*  c #430302",
"=  c #4C0202",
"-  c #460B08",
";  c #540202",
":  c #5C0201",
">  c #540B09",
",  c #4A1806",
"<  c #541508",
"1  c #471A1A",
"2  c #581616",
"3  c #630101",
"4  c #6B0101",
"5  c #6A0A0A",
"6  c #730101",
"7  c #7B0202",
"8  c #760907",
"9  c #721507",
"0  c #661819",
"q  c #721617",
"w  c #4B270B",
"e  c #562606",
"r  c #472215",
"t  c #4A3B16",
"y  c #563112",
"u  c #6C270C",
"i  c #64380B",
"p  c #6C3913",
"a  c #431E21",
"s  c #721F21",
"d  c #442322",
"f  c #4B2525",
"g  c #492A28",
"h  c #532A2A",
"j  c #592A2A",
"k  c #50342D",
"l  c #573A39",
"z  c #642829",
"x  c #6F2A2C",
"c  c #67392A",
"v  c #643233",
"b  c #683836",
"n  c #7A3838",
"m  c #354C1D",
"M  c #3D6D17",
"N  c #554717",
"B  c #4B5018",
"V  c #53561B",
"C  c #76520D",
"Z  c #6C4719",
"A  c #6A571D",
"S  c #506B1D",
"D  c #6F7119",
"F  c #504C2A",
"G  c #575A28",
"H  c #6E492D",
"J  c #4B6926",
"K  c #566924",
"L  c #4D7727",
"P  c #567926",
"I  c #52752A",
"U  c #547D2A",
"Y  c #4A7931",
"T  c #587B34",
"R  c #696923",
"E  c #716B2F",
"W  c #677928",
"Q  c #413F42",
"!  c #584E4C",
"~  c #694C49",
"^  c #6B5957",
"/  c #775454",
"(  c #5D6C4C",
")  c #67744C",
"_  c #6D6664",
"`  c #796767",
"'  c #840102",
"]  c #830A0B",
"[  c #813B3A",
"{  c #85590E",
"}  c #906E0F",
"|  c #A47A0F",
" . c #805424",
".. c #947B29",
"X. c #854747",
"o. c #8D5E40",
"O. c #875758",
"+. c #86655A",
"@. c #886766",
"#. c #956C6B",
"$. c #84776A",
"%. c #867877",
"&. c #987B79",
"*. c #A37C7A",
"=. c #79891D",
"-. c #4F8023",
";. c #558626",
":. c #56822C",
">. c #5A852D",
",. c #5C8C2E",
"<. c #5D922C",
"1. c #598533",
"2. c #5E8D31",
"3. c #569235",
"4. c #5E9231",
"5. c #698727",
"6. c #66832B",
"7. c #638C2E",
"8. c #728927",
"9. c #62922E",
"0. c #649D2D",
"q. c #628E32",
"w. c #63883B",
"e. c #649532",
"r. c #659A33",
"t. c #699B34",
"y. c #699538",
"u. c #759035",
"i. c #6BA336",
"p. c #68A537",
"a. c #73A838",
"s. c #678545",
"d. c #6C934D",
"f. c #728B53",
"g. c #769457",
"h. c #7DA250",
"j. c #7B9066",
"k. c #8A8616",
"l. c #908D10",
"z. c #958B14",
"x. c #AA870A",
"c. c #AF8D0D",
"v. c #B99606",
"b. c #B7A60B",
"n. c #8A9132",
"m. c #B0942E",
"M. c #A6A43C",
"N. c #C59D04",
"B. c #CBA303",
"V. c #C7A807",
"C. c #D5AA03",
"Z. c #CAB508",
"A. c #D9B604",
"S. c #CFB615",
"D. c #E6B903",
"F. c #F0BF01",
"G. c #CCB430",
"H. c #BDC30F",
"J. c #DAC809",
"K. c #DAC90F",
"L. c #E4C805",
"P. c #F6C902",
"I. c #E7D805",
"U. c #F8D705",
"Y. c #F7E704",
"T. c #F4E905",
"R. c #DBC938",
"E. c #E1CF25",
"W. c #8F914D",
"Q. c #92A645",
"!. c #B6A649",
"~. c #AEA755",
"^. c #859A67",
"/. c #8A8473",
"(. c #899B77",
"). c #A59068",
"_. c #97A76D",
"`. c #8AA575",
"'. c #92A979",
"]. c #B2AB6C",
"[. c #C39A5F",
"{. c #CBB550",
"}. c #CABA6C",
"|. c #D6C84B",
" X c #D5C672",
".X c #E6CC7A",
"XX c #7D7E80",
"oX c #9B7D80",
"OX c #988787",
"+X c #909087",
"@X c #9A9696",
"#X c #A48787",
"$X c #A99898",
"%X c #B19B9B",
"&X c #99AA87",
"*X c #98AC8F",
"=X c #ADAE8C",
"-X c #A4A498",
";X c #A7B599",
":X c #B69EA1",
">X c #A9A9A7",
",X c #B8A8A8",
"<X c #AEB5A8",
"1X c #B2B9A7",
"2X c #B8B5B3",
"3X c #BCBCBC",
"4X c #C2B394",
"5X c #C4B2AB",
"6X c #C4B9B9",
"7X c #ADC09D",
"8X c #B9C4AE",
"9X c #D4C88E",
"0X c #D7CC9B",
"qX c #E5D595",
"wX c #D3CEA8",
"eX c #C5C4BB",
"rX c #E2D5A3",
"tX c #79B229",
"yX c #79B229",
"uX c #79B229",
"iX c #79B229",
"pX c #79B229",
"aX c #79B229",
"sX c #79B229",
"dX c #79B229",
"fX c #79B229",
"gX c #79B229",
"hX c #79B229",
"jX c #79B229",
"kX c #79B229",
"lX c #79B229",
"zX c #79B229",
"xX c #79B229",
"cX c #79B229",
"vX c #79B229",
"bX c #79B229",
"nX c #79B229",
"mX c #79B229",
"MX c #79B229",
"NX c #79B229",
"BX c #79B229",
"VX c #79B229",
"CX c #79B229",
"ZX c #79B229",
"AX c #79B229",
"SX c #79B229",
"DX c #79B229",
"FX c #79B229",
"GX c #79B229",
"HX c #79B229",
"JX c #79B229",
"KX c #79B229",
"LX c #79B229",
"PX c #79B229",
"IX c #79B229",
/* pixels */
"IXIXIXIXIXIXIXIXIXIXIXIXIXIXIXIXIXIXIXIXIXIXIXIXIXIXIXIXIXIXIXIXIXIXIXIXIXIXIXIXIXIXIXIXIXIXIXIXIXIXIXIXIXIXIXIXIXIXIXIXIXIXIXIXIXIXIXIXIXIXIXIXIXPXPXLXIXIXIX",
"IXIXIXIXIXIXIXIXIXIXIXIXIXIXIXIXIXIXIXIXIXIXIXIXIXIXIXIXIXIXIXIXIXIXIXIXIXIXIXIXIXIXIXIXIXIXIXIXIXJXJXIXIXIXIXIXIXIXIXIXIXIXIXIXIXIXIXIXIXIXIXIXIXPXLXPXPXIXIX",
"IXIXIXIXIXIXIXIXIXIXIXIXIXIXIXIXIXIXIXIXIXIXIXIXIXIXIXIXIXIXIXIXIXIXIXIXIXIXIXIXIXIXIXIXIXIXIXIXPXaXfXJXIXIXIXIXIXIXIXIXIXIXIXIXIXIXIXIXIXIXIXIXIXIXIXPXPXPXIX",
"IXIXIXIXIXIXIXIXIXIXIXIXIXIXIXIXIXIXIXIXIXIXIXIXIXIXIXIXIXIXIXIXIXIXIXIXIXIXIXIXIXIXIXLXIXIXPXPXVX&.%XSXIXPXIXIXIXIXIXIXIXIXIXIXIXIXIXIXIXIXIXIXIXIXIXIXPXPXLX",
"IXIXIXIXIXIXIXIXIXIXIXIXIXIXIXIXIXIXIXIXIXIXIXIXIXIXIXIXIXIXIXIXIXIXIXIXIXIXIXIXIXIXIXIXIXPXPXNX@.b :XSXPXPXIXIXIXIXIXIXIXIXIXIXIXIXIXIXIXIXIXIXIXIXIXIXIXPXPX",
"IXIXIXIXIXIXIXIXIXIXIXIXIXIXIXIXIXIXIXIXIXIXIXIXIXIXIXIXIXIXIXIXIXIXIXIXIXIXLXIXIXIXIXIXIXIXPX$Xx H 5XJXIXIXIXIXIXIXIXIXIXIXIXIXIXIXIXIXIXIXIXIXIXIXIXIXIXIXPX",
"IXIXIXIXIXIXIXIXIXIXIXIXIXIXIXIXIXIXIXIXIXIXIXIXIXIXIXIXIXIXIXIXIXIXIXIXIXIXIXIXIXIXIXLXLXSX6Xn : O.6XPXIXIXIXPXIXIXIXIXIXIXIXIXIXIXIXIXIXIXIXIXIXIXIXIXIXIXIX",
"IXIXIXIXIXIXIXIXIXIXIXIXIXIXIXIXIXIXIXIXIXIXIXIXIXIXIXIXIXIXIXIXIXIXIXIXIXJXZXPXIXIXIXIXLXaXO.5 : @.uXPXIXIXIXIXIXIXIXIXIXIXIXIXIXIXIXIXIXIXIXIXIXIXIXIXIXIXIX",
"IXIXIXIXIXIXIXIXIXIXIXIXIXIXIXIXIXIXIXIXIXIXIXIXIXIXIXIXIXIXIXIXIXIXIXIXIXNX6XvXLXIXJXIXlX#.0 4 ; #.lXLXIXIXIXIXIXIXIXIXIXIXIXIXIXIXIXIXIXIXIXIXIXIXIXIXIXIXIX",
"IXIXIXIXIXIXIXIXIXIXIXIXIXIXIXIXIXIXIXIXIXIXIXIXIXIXIXIXIXIXIXIXIXIXIXIXLXvX#X$XZXLXLXVX#Xs 8 8 * &.VXLXPXIXIXIXIXIXIXIXIXIXIXIXIXIXIXIXIXIXIXIXIXIXIXIXIXIXIX",
"IXIXIXIXIXIXIXIXIXIXIXIXIXIXIXIXIXIXIXIXIXIXIXIXIXIXIXIXIXIXIXIXIXIXIXIXIXNX&./ lXIXJX,X[ 8 8 4 * #XZXIXIXIXIXIXIXIXIXIXIXIXIXIXIXIXIXIXIXIXIXIXIXIXIXIXIXIXIX",
"IXIXIXIXIXIXIXIXIXIXIXIXIXIXIXIXIXIXIXIXIXIXIXIXIXIXIXIXIXIXIXIXIXIXIXIXIXCXoXj %XHX5XX.5 6 6 5 * $XSXJXJXJXKXKXJXJXPXPXLXPXIXLXIXIXLXPXPXIXIXIXIXIXIXIXIXIXIX",
"IXIXIXIXIXIXIXIXIXIXIXIXIXIXIXIXIXIXIXIXIXIXIXIXIXIXIXIXIXIXIXIXIXIXIXIXIXCX*.z @.lX#X] 8 8 4 3 = %XSXSXlXVXZXPXPXPXPXPXLXLXPXPXIXPXPXIXPXIXIXIXIXIXLXIXIXIXIX",
"IXIXIXIXIXIXIXIXIXIXIXIXIXIXIXIXIXIXIXIXIXIXIXIXIXIXIXIXIXIXIXIXIXIXIXIXIXCX#Xj x %X@.q 7 8 3 5 > :XuX#.[ [ [ [ X.X.X.X.O.O.#.#.#.oX#X#X$X6XZXIXIXIXIXIXIXIXIX",
"IXIXIXIXIXIXIXIXIXIXIXIXIXIXIXIXIXIXIXIXIXIXIXIXIXIXIXIXIXIXIXIXIXPXIXPXIXCX#X0 q X.n q 6 6 4 5 s $X*.q 6 6 6 4 4 4 3 3 3 3 4 5 0 0 2 z &.aXJXIXIXIXIXIXIXIXIX",
"IXIXIXIXIXIXIXIXIXIXIXIXIXIXIXIXIXIXIXIXIXIXIXIXIXIXIXIXIXIXIXIXIXIXIXIXIXCXoXs 3 2 2 5 6 6 4 : b / n ] ' ' 7 7 7 7 7 6 8 6 4 3 : 2 H &.fXHXLXIXIXIXLXIXIXIXIX",
"IXIXIXIXIXIXIXIXIXIXIXIXIXIXIXIXIXIXIXIXIXIXIXIXIXIXIXIXIXIXIXIXIXIXIXIXIXSX#Xz 4 : ; 3 6 6 4 : 2 2 6 ' 7 6 4 4 4 3 3 3 3 : ; 2 b &.kXJXIXIXIXIXIXIXIXIXIXIXIX",
"IXIXIXIXIXIXIXIXIXIXIXIXIXIXIXIXIXIXIXIXIXIXIXIXIXIXIXIXIXIXIXIXIXPXIXIXLXGX%Xz 4 6 3 4 6 6 4 : = 4 ' 6 6 6 6 4 3 3 3 : : > 2 / ,XZXJXJXPXIXIXIXIXIXIXIXIXIXIX",
"IXIXIXIXIXIXIXIXIXIXIXIXIXIXIXIXIXIXIXIXIXIXIXIXIXIXIXIXIXIXIXIXIXIXIXIXJX6X/ > 3 6 6 6 6 6 3 : 4 7 6 6 6 6 4 3 : : : > 2 O.,XHXIXIXIXIXIXIXIXLXIXIXIXIXIXIXIX",
"IXIXIXIXIXIXIXIXIXIXIXIXIXIXIXIXIXIXIXIXIXIXIXIXIXIXIXIXIXIXIXIXIXIXLXIXSX%Xj > 4 6 6 6 6 4 3 4 4 6 6 6 6 6 4 3 3 : 0 O.,XNXJXIXLXLXIXIXIXIXIXIXIXIXIXIXIXIXIX",
"IXIXIXIXIXIXIXIXIXIXIXIXIXIXIXIXIXIXIXIXIXIXIXIXIXIXIXIXIXIXIXIXPXLXPXJXZX%X0 3 4 6 6 6 6 6 6 6 6 6 6 6 6 4 3 : = 1 ^ #X,X#X#.uXSXIXIXLXIXIXIXIXIXLXIXIXIXIXIX",
"IXIXIXIXIXIXIXIXIXIXIXIXIXIXIXIXIXIXIXIXIXIXIXIXIXIXIXIXIXIXIXPXZXZXZXxXeX/.y 2 < < > : 3 4 6 6 6 6 6 6 6 6 : ; > 0 n [ n s q *.lXJXIXIXIXIXIXIXIXIXIXIXIXIXIX",
"IXIXIXIXIXIXIXIXIXIXLXIXIXIXIXIXIXIXIXIXIXIXIXIXIXIXIXIXPXHXJXHXzXjX3X+Xd.T K K K V N t w : 3 4 6 6 6 6 6 6 6 6 7 ] ' 7 6 6 7 s 5XSXLXIXIXLXIXIXIXIXIXIXIXIXIX",
"IXIXIXIXIXIXIXIXIXIXIXIXIXIXIXIXIXIXIXIXIXIXIXIXIXIXPXIXKXxXkXZXxX>Xj.:.;.<.t.p.r.r.0.7.I N , : 3 6 6 6 7 ' ' ' ' ' 7 ' ' ] ' 6 #.vXIXLXIXIXIXIXIXIXIXIXIXIXIX",
"IXIXIXIXIXIXIXIXIXIXIXIXIXIXIXIXIXIXIXIXIXIXIXLXIXIXIXHXVXpX3XxXkXj.T ,.t.t.r.e.r.t.e.r.t.,.F , : 4 6 6 6 7 7 6 6 6 6 6 4 6 6 7 n 5XHXIXIXIXIXPXIXIXIXIXIXIXIX",
"IXIXIXIXIXIXIXIXIXIXIXIXIXLXIXIXGXFXHXIXIXIXIXIXIXIXIXDX3X>XdXsX+XI :.e.r.e.r.r.t.e.e.r.r.t.r.N < : 3 6 6 6 6 6 6 6 6 6 6 6 6 7 4 *.NXLXLXIXIXIXIXIXIXIXIXIXIX",
"IXIXIXIXIXIXIXIXIXIXIXIXIXIXIXLXnXwXFXLXLXIXIXIXIXIXPXJXjX3XjXsX(.Y ;.:.;.4.r.e.r.r.r.r.e.r.r.K w : 3 4 6 6 6 6 6 4 4 4 3 4 6 8 6 X.6XHXIXIXIXIXIXIXIXIXIXIXIX",
"IXIXIXIXIXIXIXIXIXIXIXIXIXIXIXIXAX}.}.nXLXIXLXIXLXIXKXdX2XzXCX<X) -.2.>.,.r.r.y.r.t.e.q.e.e.r.e.N > : 3 4 3 3 3 3 3 3 : 3 3 4 6 6 q *.CXPXIXIXIXIXIXIXIXIXIXIX",
"IXIXIXIXIXIXIXIXIXIXIXIXLXIXLXIXJX0Xm. XFXIXPXPXIXIXmX9XeXZXZX*XT :.4.4.e.e.r.e.e.r.e.e.e.e.r.t.N < : 3 3 : 3 3 : : : ; ; : 3 6 6 4 X.aXHXIXIXIXIXIXIXIXIXIXIX",
"IXIXIXIXIXIXIXIXIXIXIXIXIXIXIXIXIXcX{.G. XMXnXrXtX0X XG.9XCXVX`.J U 2.y.r.r.9.,.,.e.r.r.r.e.0.r.V < : : : 3 : : ; > y t r ; ; 3 6 6 s #XZXPXPXIXPXIXIXIXIXIXIX",
"IXIXIXIXIXIXIXIXIXIXIXIXIXIXLXLXIXmX.XK.G.{.|.G.G.K.A.Z.{.hXzX(.Y U 2.r.r.r.e.,.9.e.r.r.e.y.r.t.G < 3 : : ; < , N G >.q.) / z ; 3 6 5 X.lXHXIXIXIXIXIXIXIXIXIX",
"IXIXIXIXIXIXIXIXIXIXPXIXIXIXIXIXIXGXrXG.C.b.b.Z.b.T.T.I.G.wXkX^.I :.2.e.r.r.r.r.t.r.e.r.t.e.r.t.V < : ; < w N K ,.i.0.y.'.6XOXz > 3 4 s %XCXLXIXLXLXIXIXIXIXIX",
"IXIXIXIXIXIXIXIXIXIXIXIXIXIXKXHXPXAX0Xm.v.V.b.=.l.Z.T.Y.S..XhX(.L U ,.e.r.r.r.r.r.e.e.y.t.e.0.r.V , w N K ,.p.p.t.y.e.w.`.CXLX:XH , > 5 O.fXPXIXIXIXIXIXIXIXIX",
"IXIXIXIXIXIXIXIXIXIXIXIXIXKXVXjXzXrX|.S.B.B.x.5.S =.A.U.F.{.eX(.I -.,.e.e.,.e.e.r.e.7.W R 7.p.i.K V I 3.p.t.6.6.e.t.e.4.`.CXIX7X` l 2 > n ,XHXPXPXIXIXIXIXIXIX",
"IXIXIXIXIXIXIXIXIXIXIXIXPXIXDXdX,X!.S.T.I.V.x.D ;.I =.z.C.G.].(.I U 2.r.e.,.e.r.t.i.e.W R Z Z R q.p.p.W A A W 6.e.e.<.y.'.gX;Xs.g.8X,X~ 1 O.vXPXLXIXIXIXIXIXIX",
"IXIXIXIXIXIXIXIXIXIXIXIXLXIXCXuX1X=XG.I.I.Z.x.k.9.,.P W k.m.~.(.I ;.2.r.r.e.r.r.6.W e.p.r.W Z p p Z Z p Z R 9.i.i.r.r.e.f.j.s.>.^.gXCX6X/ v 5XSXIXPXIXIXIXIXIX",
"IXIXIXIXIXIXIXIXIXIXIXIXIXIXZXsX2XpXwXG.D.C.v.k.8.<.<.1.L W u.) I U ,.r.r.e.e.e.6.R R R W t.y.R p 9 u A 7.i.i.6.W 6.t.2.J L ;.<.`.bXKXLXfX&.%XvXPXIXIXIXIXIXIX",
"IXIXIXIXIXIXIXIXIXIXIXIXIXPXZXsX2XaXxX4XG.D.C.x.7.>.,.0.1.U I I L U 2.e.e.2.e.e.t.q.R Z Z A W 7.6.R 6.0.7.W A A R 6.e.,.L ;.<.>.=XZXLXIXIXCXfXCXIXIXIXIXIXIXIX",
"IXIXIXIXIXIXIXIXIXIXIXIXIXJXVXkXdX<X<X3X=XG.C.b.W ,.,.4.r.e.>.I I :.2.e.e.,.r.i.i.p.t.6.A u u Z R 6.5.R Z u p R y.e.r.,.U 1.,.:.7XHXPXIXPXIXIXIXIXIXIXIXIXIXIX",
"IXIXIXIXIXIXIXIXIXIXIXIXIXIXPXmX8Xj.s.s.&X].m.c.D 7.q.2.e.r.e.:.U U ,.e.2.,.r.a.a.a.a.i.i.6.Z 9 7 9 9 6 u A e.t.t.e.r.q.I :.<.d.8XHXIXIXIXIXIXIXIXIXIXIXIXIXIX",
"IXIXIXIXIXIXIXIXIXIXIXIXIXIXCX*XT ;.1.>.e.^.].m.} ;.0.,.,.0.e.7.U U ,.4.7.,.e.e.t.i.i.a.i.t.0.R p 9 9 p W e.e.y.t.e.t.,.L >.9.^.gXPXIXIXIXIXIXIXIXIXIXIXIXIXIX",
"IXIXIXIXIXIXIXIXIXIXIXIXLXKX;XU ,.1.e.e.<.y.`.].m.W <.<.:.q.e.e.>.:.,.4.,.:.:.,.<.e.e.e.r.t.e.t.t.W 6.t.p.t.a.i.a.t.e.,.I ,.;.7XZXPXIXIXIXIXIXIXIXIXIXIXIXIXIX",
"IXIXIXIXIXIXIXIXIXIXIXLXIXCX&X,.<.e.9.e.t.7.f.-X=X^.w.r.7.U ,.>.>.:.,.,.7.7.6.T -.-.,.r.t.r.e.e.e.e.e.e.e.i.0.0.r.t.u.7.U 4.:.eXJXIXIXIXIXIXIXIXIXIXIXIXIXIXIX",
"IXIXIXIXIXIXIXIXIXIXIXIXIXgXj.<.e.e.e.9.e.,.1.f.+X+Xs.1.e.0.7.,.q.,.:.,.9.a.n.A '.;Xs.S U 7.,.9.7.e.r.r.q.e.y.y.L 8.Q.u.U >.'.mXIXIXIXIXIXIXIXIXIXIXIXIXIXIXIX",
"IXIXIXIXIXIXIXIXIXIXIXIXHX8Xd.9.e.r.e.e.e.,.U U w.g.1.L ,.4.1.:.2.,.U >.9.n.m.o.5XnX$.H G U >.2.>.;.,.e.t.e.f.( G ..M.8.L f.eXPXIXIXLXIXIXIXIXIXIXIXIXIXIXIXIX",
"IXIXIXIXIXIXIXIXIXIXPXIXgX`.w.r.t.e.4.e.,.L P U -.-.3.U J J ;.>.>.:.U >.P n.{...#.*.O.H G U ,.,.>.U U ,.i.a.T H o.{.!.W T <XDXLXIXIXIXIXIXIXIXIXIXIXIXIXIXIXIX",
"IXIXIXIXIXIXIXIXIXIXPXIX'.>.<.r.r.e.4.>.:.s.T T :.:.;.:.B Z b.H.k.P U K N D {.}.A e Z R T 9.i.t.q.,.:.U q.i.6.A [..X~.f.1XHXLXIXIXIXIXIXIXIXIXIXIXIXIXIXIXIXIX",
"IXIXIXIXIXIXIXIXIXIXIXHX_.4.e.e.r.e.;.L f.;X*Xs.L U ,.S B | T.I.b.5.K i i R !.qX!.W J P >.t.a.i.r.e.e.>.,.r.p.u.}.}._.7XZXLXIXIXIXIXIXIXIXIXIXIXIXIXIXIXIXIXIX",
"IXIXIXIXIXIXIXLXLXLXGXGX_.3.r.r.e.q.L j.gXKXzX`.U U ,.Y B x.I.P.D.k.i i A K .. XyX Xn.,.U q.e.e.e.e.e.e.<.r.t.p.Q.~.wXZXKXIXIXIXIXIXIXIXIXIXIXIXIXIXIXIXIXIXIX",
"IXIXIXLXIXIXIXIXIXZX*Xj.p.3.3.t.e.;.I ;XCXLXDX7Xw.U >.,.B C x.C.v.C w m V N E !.yXMXqX~.n.8.5.P I I S M L >.r.i.d.'.mXLXKXIXIXPXLXIXIXIXIXIXIXIXIXIXIXIXIXIXIX",
"IXIXIXIXLXIXLXMX0X~.8.k.z.l.z.k.6.J ( gXLXLXKXeXs.L :.9.2.G t i y r 1 F J V M S !. X9X}.~.~.).n.P 5.W._.W.6.;.;.<.'.mXLXKXIXIXIXIXIXIXIXIXIXIXIXIXIXIXIXIXIXIX",
"IXIXIXIXIXIXLXtX{.J.Z.C.C.C.B.z.G t ~ 6XKXIXDX8Xw.L U <.3.s.G & a j j F J P ) j.d.u.a.h.Q.]..XQ.:.7.~.qX!.u.^.*Xd.g.gXLXLXIXIXIXIXIXIXIXIXIXIXIXIXIXIXIXIXIXIX",
"IXIXLXIXIXLXLXtXR.T.Y.P.A.C.C.| c x v $XBXPXBX(.T :.:.4.<.d.+Xj./ b v j B 1.*XdX7Xj.,.<.i.Q.|.Q.e.>.M.!.Q.d.gXHX8X;XhXHXIXIXIXIXIXIXIXIXIXIXIXIXIXIXIXIXIXIXIX",
"IXIXIXIXIXLXIXnX|.K.P.L.N.N.B.| A j f OXzXPXiX! m m J Y :.2.&XjX3X` b f # F -XDXIXmX(.T L ;.y.y.4.2.t.9.;.W.mXIXIXIXIXIXIXIXIXIXIXIXIXIXIXIXIXIXIXIXIXIXIXIXIX",
"LXIXIXIXIXIXIXnX{.Z.A.V.N.B.B.v.C F F -XZXDX@X$     @ m m m ( 3XCX2X^ # . $ XXxXLXKX<X( V P U Y Y U Y -.8.~.mXLXPXIXPXIXIXIXLXIXIXIXIXIXIXIXIXIXIXIXIXIXIXIXIX",
"IXIXIXPXLXLXIXtXG.J.Y.U.P.D.D.B.l.L g.zXPXZX@X& . . $ $ $ # Q @XBXxX%.$ O % _ zXLXHXOXk C | k.=.=.5.5.l.G.0XFXPXIXIXIXIXIXIXIXIXIXIXIXIXIXIXIXIXIXIXIXIXIXIXIX",
"IXIXIXIXIXLXIXnX|.E.T.Y.P.F.D.N.} y ^ fXLXJX>X$ . # $ Q & & _ @XpX2X/ - o X ~ lXPXLX%X~ } N.N.N.b.b.J.I.|.nXIXLXIXIXIXIXIXIXIXIXIXIXIXPXIXIXIXIXIXIXIXIXIXIXIX",
"IXIXIXIXIXLXIXAX9XE.T.Y.P.A.N.N.x.i ^ aXJXPXiX!     . & & & & l ! l 2 > 2 e c ,XHXIX8XW.x.C.C.B.A.A.I.J. XFXIXIXIXIXIXIXHXzXSXIXIXIXIXIXIXIXIXIXIXIXIXIXIXIXIX",
"IXIXIXLXIXIXIXPXtXR.I.L.C.B.N.C.N.} &.VXIXIXdX!     . . # O o o o * : > w , r _ -X5X&XE | B.D.D.L.J.A.G.0XFXIXIXIXIXKXIXDX2XpXDXIXIXIXIXIXIXLXIXIXIXIXIXIXIXIX",
"IXIXIXIXIXIXLXIXnX|.S.Z.A.D.D.D.N.k.^.8XhXbX>X&     . . o * = ; o ; ; * - - O O H m.m.} D l.V.P.Y.Y.Z.}.MXLXIXIXIXIXIXKXZXuX<XBXPXIXIXIXIXIXIXIXIXIXIXIXIXIXIX",
"IXIXIXIXIXIXIXIXZX0XG.I.Y.U.F.v.z.8.y.w.^.'.( .   O r 1 - = ; : = ; 1 h 2 o O % { A.I.b.D K 8.b.J.T.R.yXJXJXIXLXIXPXPXPXNXkXdXjXZXLXIXIXIXLXIXIXIXIXIXIXIXIXIX",
"IXLXIXIXIXIXIXLXIXmX|.I.Y.L.c.=.5.9.<.;.<.K @ X o w e e , - o * - o / OX` f O O | L.T.L.} S <.7.l.b. XnXtXnXJXIXIXIXIXPXBXkXZXpXxXPXIXIXIXIXIXIXIXIXIXIXIXIXIX",
"IXIXIXIXIXIXIXIXLXPX0XR.b.k.U ,.0.9.0.7.B w e u i e e c +./ l ` %.%.<XVXZXiX_ $ N | D.B.C t L 4.L H W.m.c.M.nXSXCXVXDXNXsXzXVXuXkXHXIXIXIXIXIXIXIXIXIXIXIXIXIX",
"IXLXIXIXLXIXIXIXLXIXmX9X9X^.U ,.9.9.t.;.V e e , o X g $XvXlXlXvXxXuXdXBXZXVXpX@X~ Z { C e O @ U 1.R | N.v.m.:X>X/ ~ %.` ` pXZXXX@XNXPXIXIXIXIXIXIXLXIXIXIXIXIX",
"IXIXIXIXIXIXIXIXIXIXIXHXHX;XT 9.r.e.r.e.K B t N C { +.eXLXLXIXLXBXjXNXVXCXZXZXVXxXiX_ % + h j k @ D c.B.v.{ y r * o = - - l l 2 1 #XDXIXIXIXIXIXIXIXIXIXIXIXIX",
"IXIXIXIXIXIXIXIXIXIXIXIXJX&XT ,.e.e.e.<.6.U L K B.A...5XGXVXkXxXsXdXNXCXVXBXBXZXDXiX! % h v h f j x.C.B.} c 1 , o = : * o - ; ; * j @.,XSXPXLXIXIXIXIXIXIXIXIX",
"IXIXIXIXIXIXIXIXLXIXIXIXvX$.J <.e.e.e.e.q.e.t.z.I.T.x.4XVXsX3XuXuXkXVXVXBXVXDXPXNXXX& f j h f j Z c.B.| H h + + X o ; = = : : 1 w - b ,XHXPXIXIXIXLXIXIXIXIXIX",
"LXIXIXIXIXIXIXIXIXIXIXIXvX&.F >.r.e.e.e.:.J D v.L.Z.~.eXjXsXBXzXzXVXCXVXZXHXPXZXuXXXl a f f v b n  .{ Z f d + % g v 1 - ; = = 1 , y ).ZXIXIXLXIXIXIXIXIXIXIXIX",
"IXIXIXIXIXIXIXIXIXIXPXIXIXlX$.J >.,.U I J @ y } | ..4XzXpXdXCXVXCXZXDXHXHXZXzXsXuXaX/.l f v v v b j h g 1 d k _ @X%X` f h l 2 * - ~ 2XZXLXIXIXIXIXIXIXPXIXIXIX",
"IXIXIXIXIXIXIXIXIXIXIXIXIXHXOXg F G F k g + # l %.,XZXJXNXdXsXsXxXZXDXNXjXpX3XkXPXIXZXOXl v v v j f d h h l OXzXPXIXdX@X3XjX@.v oXVXIXIXIXIXIXIXIXIXIXIXIXIXIX",
"IXIXIXIXIXIXIXIXIXIXIXIXIX6X^ j v v v v l a k ).hXAXFXJXPXVXpXuXsXjXdXsXuXkXHXJXPXLXPX2X/ h j h d h a + ! ` 2XpXVXdX3XkXCXVX2X@XdXHXPXIXIXIXIXIXIXIXIXIXIXIXIX",
"IXIXIXIXIXIXIXIXIXIXIXIXuX^ % g z v v b  .| c.c.m.G.wXHXIXPXPXPXZXCXZXHXPXPXIXIXIXIXIXxX%.% a d d a l ` >XjXjXpXuXuXjXVXVXVXCXsXNXPXIXPXIXIXIXIXIXIXIXIXIXIXIX",
"IXIXIXIXIXIXIXIXIXIXPXLX%.d a d d h z b  .N.A.B.C.v.~.cXLXPXIXIXPXPXLXIXIXIXIXPXIXIXPXZXOXg + + + ^ >X6XsXSXVXzXdXxXVXVXVXVXCXpXsXDXPXIXLXIXIXIXIXIXIXIXIXIXIX",
"IXIXIXIXIXIXIXIXIXIXPXGX%.% X + d g h h H | c.x.c.| {.cXLXIXLXIXIXIXIXIXPXIXIXIXLXLXPXPXpX! O l %.pXPXSXjXdXVXZXVXVXVXVXVXBXVXzXpXkXZXIXIXIXIXIXIXIXIXIXIXIXIX",
"IXIXIXIXIXIXIXIXIXIXLXPXaXOX^ k % 1 d f h y H p H ~.tXJXIXIXIXIXIXIXIXIXIXIXIXIXIXIXIXIXCX$X^ >XmXIXIXPXBX3XsXDXPXDXZXCXVXZXZXZXNX8XkXJXIXIXIXIXIXIXIXIXIXIXIX",
"IXIXIXIXIXIXIXIXIXIXIXIXPXHXkX@X^ l g 1 a a g 1 v 2XJXPXPXIXIXIXIXIXIXIXIXIXIXIXIXIXPXIXJXNXzXHXPXPXIXIXPXxXuXzXZXDXHXDXDXHXHXZXxX3XjXHXPXIXIXIXIXLXIXIXIXIXIX",
"IXIXIXIXIXIXIXIXIXIXIXIXIXIXIXIXPXaX/.! l h d + l aXPXIXIXIXIXIXIXIXIXIXIXIXIXIXIXIXIXIXIXIXIXIXIXIXIXPXIXIXSXsXiXjXxXVXCXZXZXdX3XzXPXIXIXIXIXIXIXIXIXIXIXIXIX",
"IXIXIXIXIXIXIXIXIXIXIXIXIXLXIXPXPXJXHXfXOX! + + _ fXLXLXIXIXIXIXIXIXIXIXIXIXIXIXIXIXIXIXIXIXIXIXIXIXIXIXIXIXLXPXZXzX3X3X2X3XpXxXDXPXIXIXIXIXIXIXIXIXIXIXIXIXIX",
"IXIXIXIXIXIXIXIXIXIXIXIXIXIXIXIXIXIXIXIXPXHXuXOX3XCXIXIXIXIXIXIXIXIXIXIXIXIXIXIXIXIXIXIXIXIXIXIXIXIXIXIXIXIXIXIXIXPXPXPXHXPXKXIXIXIXIXIXIXIXIXIXIXIXIXIXIXIXIX",
"IXIXIXIXIXIXIXIXIXIXIXIXIXIXIXIXIXIXIXIXIXIXSXVXZXPXIXIXIXIXIXIXIXIXIXIXIXIXIXIXIXIXIXIXIXIXIXIXIXIXIXIXIXIXIXIXIXIXIXIXIXIXIXIXIXIXIXIXIXIXIXIXIXIXIXIXIXIXIX",
"IXIXIXIXIXIXIXIXIXIXIXIXIXIXIXIXIXIXIXIXIXIXIXIXIXIXIXIXIXIXIXIXIXIXIXIXIXIXIXIXIXIXIXIXIXIXIXIXIXIXIXIXIXIXIXIXIXIXIXIXIXIXIXIXIXIXIXIXIXIXIXIXIXIXIXIXIXIXIX",
"IXIXIXIXIXIXIXIXIXIXIXIXIXIXIXIXIXIXIXIXIXIXIXPXIXIXIXIXIXIXIXIXIXIXIXIXIXIXIXIXIXIXIXIXIXIXIXIXIXIXIXIXIXIXIXIXIXIXIXIXIXIXIXIXIXIXIXIXIXIXIXIXIXIXIXIXIXIXIX",
"IXIXIXIXIXIXIXIXIXIXIXIXIXIXIXIXIXIXIXIXIXIXIXIXIXIXIXIXIXIXIXIXIXIXIXIXIXIXIXIXIXIXIXIXIXIXIXIXIXIXIXIXIXIXIXIXIXIXIXIXIXIXIXIXIXIXIXIXIXPXIXIXIXIXIXIXIXIXIX",
"IXIXIXIXIXIXIXIXIXIXIXLXIXIXIXIXIXLXIXIXIXIXIXIXIXIXIXIXIXIXIXIXIXIXIXIXIXIXIXIXIXIXIXIXIXIXIXIXIXIXIXIXIXIXIXIXIXIXIXIXIXIXIXIXIXIXIXIXIXIXIXIXIXIXIXIXIXIXIX",
"IXIXIXIXIXIXIXIXIXIXLXIXIXIXIXIXIXLXIXIXIXIXIXIXIXIXIXIXIXIXIXIXIXIXIXIXIXIXIXIXIXIXIXIXIXIXIXIXIXIXIXIXIXIXIXIXIXIXIXIXIXIXIXIXIXIXIXIXIXIXIXIXIXIXIXIXIXIXIX",
"IXIXIXIXIXIXIXIXIXIXIXIXIXIXIXIXIXIXIXIXIXIXIXIXIXIXIXIXIXIXIXIXIXIXIXIXIXIXIXIXIXIXIXIXIXIXIXIXIXIXIXIXIXIXIXIXIXIXIXIXIXIXIXIXIXIXIXIXIXIXIXIXIXIXIXIXIXIXIX",
"IXIXIXIXIXIXIXIXIXIXIXIXIXIXIXIXIXIXIXIXIXIXIXIXIXIXIXIXIXIXIXIXIXIXIXIXIXIXIXIXIXIXIXIXIXIXIXIXIXIXIXIXIXIXIXIXIXIXIXIXIXIXIXIXIXIXIXIXIXIXIXIXIXIXIXIXIXIXIX",
"IXIXIXIXIXIXIXIXIXIXIXIXIXIXIXIXIXIXIXIXIXIXIXIXIXIXIXIXIXIXIXIXIXIXIXIXIXIXIXIXIXIXIXIXIXIXIXIXIXIXIXIXIXIXIXIXIXIXIXIXIXIXIXIXIXIXIXIXIXIXIXIXIXIXIXIXIXIXIX",
"IXIXIXIXIXIXIXIXIXIXIXIXIXIXIXIXIXIXIXIXIXIXIXIXIXIXIXIXIXIXIXIXIXIXIXIXIXIXIXIXIXIXIXIXIXIXIXIXIXIXIXIXIXIXIXIXIXIXIXIXIXIXIXIXIXIXIXIXIXIXIXIXIXIXIXIXIXIXIX",
"IXIXIXIXIXIXIXIXIXIXIXIXIXIXIXIXIXIXIXIXIXIXIXIXIXIXIXIXIXIXIXIXIXIXIXIXIXIXIXIXIXIXIXIXIXIXIXIXIXIXIXIXIXIXIXIXIXIXIXIXIXIXIXIXIXIXIXIXIXIXIXIXIXIXIXIXIXIXIX",
"IXIXIXIXIXIXIXIXIXIXIXIXIXIXIXIXIXIXIXIXIXIXIXIXIXIXIXIXIXIXIXIXIXIXIXIXIXIXIXIXIXIXIXIXIXIXIXIXIXIXIXIXIXIXIXIXIXIXIXIXIXIXIXIXIXIXIXIXIXIXIXIXIXIXIXIXIXIXIX",
"IXIXIXIXIXIXIXIXIXIXIXIXIXIXIXIXIXIXIXIXIXIXIXIXIXIXIXIXIXIXIXIXIXIXIXIXIXIXIXIXIXIXIXIXIXIXIXIXIXIXIXIXIXIXIXIXIXIXIXIXIXIXIXIXIXIXIXIXIXIXIXIXIXIXIXIXIXIXIX",
"IXIXIXIXIXIXIXIXIXIXIXIXIXIXIXIXIXIXIXIXIXIXIXIXIXIXIXIXIXIXIXIXIXIXIXIXIXIXIXIXIXIXIXIXIXIXIXIXIXIXIXIXIXIXIXIXIXIXIXIXIXIXIXIXIXIXIXIXIXIXIXIXIXIXIXIXIXIXIX"
};
