/* XPM */
static char *result[] = {
/* columns rows colors chars-per-pixel */
"83 93 255 2 ",
"   c #090909",
".  c #171916",
"X  c #3A0504",
"o  c #2D100C",
"O  c #381919",
"+  c #26221A",
"@  c #302916",
"#  c #282827",
"$  c #3A2A26",
"%  c #373837",
"&  c #440202",
"*  c #4C0102",
"=  c #460B07",
"-  c #540303",
";  c #5C0201",
":  c #550B08",
">  c #481908",
",  c #541C06",
"<  c #491B1A",
"1  c #551516",
"2  c #630101",
"3  c #6C0101",
"4  c #660A0A",
"5  c #730101",
"6  c #7C0202",
"7  c #770A06",
"8  c #71190B",
"9  c #6A1313",
"0  c #721313",
"q  c #4E230B",
"w  c #592806",
"e  c #553509",
"r  c #48241A",
"t  c #562817",
"y  c #463814",
"u  c #563717",
"i  c #642805",
"p  c #6C310E",
"a  c #6D3914",
"s  c #511F20",
"d  c #472727",
"f  c #572627",
"g  c #4E3A2B",
"h  c #593837",
"j  c #69292A",
"k  c #6C2B2A",
"l  c #693837",
"z  c #743838",
"x  c #3C5318",
"c  c #3B6B13",
"v  c #3E5224",
"b  c #396520",
"n  c #4A4D16",
"m  c #544619",
"M  c #55551B",
"N  c #764F0E",
"B  c #6C4818",
"V  c #6A561C",
"C  c #46691A",
"Z  c #4D721B",
"A  c #717314",
"S  c #4F4E2B",
"D  c #545B23",
"F  c #685132",
"G  c #486825",
"H  c #536924",
"J  c #4C7524",
"K  c #4D7928",
"L  c #527C25",
"P  c #567528",
"I  c #547D2A",
"U  c #4E7134",
"Y  c #577934",
"T  c #696723",
"R  c #677727",
"E  c #707A2C",
"W  c #543A40",
"Q  c #3F4141",
"!  c #49454A",
"~  c #5A4746",
"^  c #595858",
"/  c #644A4A",
"(  c #784847",
")  c #675555",
"_  c #775751",
"`  c #657A4D",
"'  c #686668",
"]  c #7A6766",
"[  c #757972",
"{  c #840303",
"}  c #870B0B",
"|  c #823838",
" . c #966A0D",
".. c #926621",
"X. c #97752B",
"o. c #844847",
"O. c #885959",
"+. c #8C6C53",
"@. c #905F60",
"#. c #886866",
"$. c #90716B",
"%. c #877978",
"&. c #987978",
"*. c #77851A",
"=. c #758B1D",
"-. c #4D832A",
";. c #558726",
":. c #55832B",
">. c #59842C",
",. c #5C8B2D",
"<. c #5C9226",
"1. c #5D922C",
"2. c #588432",
"3. c #5D8C31",
"4. c #5D9232",
"5. c #5C9635",
"6. c #678529",
"7. c #638C2D",
"8. c #778B2C",
"9. c #62942E",
"0. c #68992E",
"q. c #789329",
"w. c #638B36",
"e. c #7B8939",
"r. c #649532",
"t. c #6A9636",
"y. c #659A33",
"u. c #699B34",
"i. c #67A636",
"p. c #6CA236",
"a. c #74A839",
"s. c #66B137",
"d. c #668745",
"f. c #6B9348",
"g. c #6E8854",
"h. c #74885A",
"j. c #6F9458",
"k. c #769657",
"l. c #79A344",
"z. c #788967",
"x. c #7B9763",
"c. c #928A0E",
"v. c #AD8E0B",
"b. c #B99905",
"n. c #B7AE11",
"m. c #8D9236",
"M. c #AB9638",
"N. c #96A53C",
"B. c #B4A330",
"V. c #C59B02",
"C. c #C8A706",
"Z. c #D6A902",
"A. c #CAB503",
"S. c #D6B806",
"D. c #CFB317",
"F. c #E4B703",
"G. c #F4BD02",
"H. c #C8AD2D",
"J. c #CAB837",
"K. c #DAC503",
"L. c #D5CD12",
"P. c #E6C603",
"I. c #F7C700",
"U. c #E9D805",
"Y. c #F9D502",
"T. c #E1D21A",
"R. c #EBE104",
"E. c #F9E904",
"W. c #FAF503",
"Q. c #DDCC34",
"!. c #8F9451",
"~. c #B59C47",
"^. c #9EA446",
"/. c #B2A950",
"(. c #839A6A",
"). c #918A79",
"_. c #899B74",
"`. c #A1906D",
"'. c #8DA473",
"]. c #AEA871",
"[. c #CAB14B",
"{. c #C6B955",
"}. c #CAB868",
"|. c #CCBC74",
" X c #DBCB4B",
".X c #D3C56F",
"XX c #E6C97A",
"oX c #957F83",
"OX c #878786",
"+X c #978685",
"@X c #8A9B82",
"#X c #97978A",
"$X c #9C9997",
"%X c #A38B8A",
"&X c #A99796",
"*X c #B09591",
"=X c #98AA85",
"-X c #9DAA91",
";X c #AFAC8D",
":X c #A9AB96",
">X c #A7B797",
",X c #AF9FA2",
"<X c #ABA9A8",
"1X c #B7A8A6",
"2X c #B0B6AA",
"3X c #B6B8A8",
"4X c #B4B4B3",
"5X c #BBB5B4",
"6X c #BCBCBB",
"7X c #C7B88E",
"8X c #C6B8B0",
"9X c #C6B9B9",
"0X c #ABC097",
"qX c #B6C5A8",
"wX c #BAC2B5",
"eX c #D0C68D",
"rX c #EBD48E",
"tX c #79B229",
"yX c #79B229",
"uX c #79B229",
"iX c #79B229",
"pX c #79B229",
"aX c #79B229",
"sX c #79B229",
"dX c #79B229",
"fX c #79B229",
"gX c #79B229",
"hX c #79B229",
"jX c #79B229",
"kX c #79B229",
"lX c #79B229",
"zX c #79B229",
"xX c #79B229",
"cX c #79B229",
"vX c #79B229",
"bX c #79B229",
"nX c #79B229",
"mX c #79B229",
"MX c #79B229",
"NX c #79B229",
"BX c #79B229",
"VX c #79B229",
"CX c #79B229",
"ZX c #79B229",
"AX c #79B229",
"SX c #79B229",
"DX c #79B229",
"FX c #79B229",
"GX c #79B229",
"HX c #79B229",
"JX c #79B229",
"KX c #79B229",
"LX c #79B229",
"PX c #79B229",
"IX c #79B229",
/* pixels */
"IXIXIXIXIXIXIXIXIXIXIXIXIXIXIXIXIXIXIXIXIXIXIXIXIXIXIXIXIXIXIXIXIXIXIXIXIXIXIXIXIXIXKXIXIXIXIXIXIXPXIXgX9XZXIXLXIXIXIXIXIXIXIXIXIXIXIXIXIXIXIXIXIXIXIXIXIXIXIXIXIXIXIX",
"IXIXIXIXIXIXIXIXIXIXIXIXIXIXIXIXIXIXIXIXIXIXIXIXIXIXIXIXIXIXIXIXIXIXIXIXIXIXIXIXIXIXIXIXIXIXIXIXKXIXIX+X$.gXIXJXIXIXIXIXIXIXIXIXIXIXIXIXIXIXIXIXIXIXIXIXIXIXIXIXIXIXIX",
"IXIXIXIXIXIXIXIXIXIXIXIXIXIXIXIXIXIXIXIXIXIXIXIXIXIXIXIXIXIXIXIXIXIXIXIXIXIXIXIXIXIXIXIXIXKXIXPXIXSX9Xs #.BXIXLXIXIXIXIXIXIXIXIXIXIXIXIXIXIXIXIXIXIXIXIXIXIXIXIXIXIXIX",
"IXIXIXIXIXIXIXIXIXIXIXIXIXIXIXIXIXIXIXIXIXIXIXIXIXIXIXIXIXIXIXIXIXIXIXIXIXIXIXIXIXLXIXIXIXIXIXIXIXvXo.: &.ZXIXJXIXIXIXIXIXIXIXIXIXIXIXIXIXIXIXIXIXIXIXIXIXIXIXIXIXIXIX",
"IXIXIXIXIXIXIXIXIXIXIXIXIXIXIXIXIXIXIXIXIXIXIXIXIXIXIXIXIXIXIXIXIXIXIXIXIXIXIXIXIXIXIXIXIXIXKXIXCXO.: 9 %XAXIXKXIXIXIXIXIXIXIXIXIXIXIXIXIXIXIXIXIXIXIXIXIXIXIXIXIXIXIX",
"IXIXIXIXIXIXIXIXIXIXIXIXIXIXIXIXIXIXIXIXIXIXIXIXIXIXIXIXIXIXIXIXIXIXIXIXIXIXIXJXDXGXIXIXIXIXIXAX*X4 3 j *XHXIXKXIXIXIXIXIXIXIXIXIXIXIXIXIXIXIXIXIXIXIXIXIXIXIXIXIXIXIX",
"IXIXIXIXIXIXIXIXIXIXIXIXIXIXIXIXIXIXIXIXIXIXIXIXIXIXIXIXIXIXIXIXIXIXIXIXIXIXIXDXgXgXJXIXIXLXDX,Xz 3 3 j 1XHXIXIXIXIXIXIXIXIXIXIXIXIXIXIXIXIXIXIXIXIXIXIXIXIXIXIXIXIXIX",
"IXIXIXIXIXIXIXIXIXIXIXIXIXIXIXIXIXIXIXIXIXIXIXIXIXIXIXIXIXIXIXIXIXIXIXIXIXPXIXLX9X#.lXJXKXIX8Xz 3 7 - z 9XIXIXKXIXIXIXIXIXIXIXIXIXIXIXIXIXIXIXIXIXIXIXIXIXIXIXIXIXIXIX",
"IXIXIXIXIXIXIXIXIXIXIXIXIXIXIXIXIXIXIXIXIXIXIXIXIXIXIXIXIXIXIXIXIXIXIXIXIXIXPXIX1Xl 5XDXKXAX@.4 7 3 - ( gXIXKXKXIXIXIXIXIXIXIXIXIXIXIXIXIXIXIXIXIXIXIXIXIXIXIXIXIXIXIX",
"IXIXIXIXIXIXIXIXIXIXIXIXIXIXIXIXIXIXIXIXIXIXIXIXIXIXIXIXIXIXIXIXIXIXIXIXIXIXIXIX9Xk ( BXJX$.3 6 6 3 * ( gXKXHXHXJXJXJXJXJXJXPXJXIXKXLXKXIXLXLXIXIXIXIXIXIXIXIXIXIXIXIX",
"IXIXIXIXIXIXIXIXIXIXIXIXIXIXIXIXIXIXIXIXIXIXIXIXIXIXIXIXIXIXIXIXIXIXIXIXIXIXIXIXgXz d gXjXo.3 5 5 4 & _ lXJXvXlXAXGXPXJXLXIXKXKXLXKXPXPXKXLXKXIXIXIXIXIXIXIXIXIXIXIXIX",
"IXIXIXIXIXIXIXIXIXIXIXIXIXIXIXIXIXIXIXIXIXIXIXIXIXIXIXIXIXIXIXIXIXIXIXIXIXIXPXIXdX( : &.%X| 5 5 5 2 * @.vX*Xz | | z o.o.o.o.o.O.@.$.$.oXoX%X%X*XAXPXIXIXIXIXIXIXPXIXIX",
"IXIXIXIXIXIXIXIXIXIXIXIXIXIXIXIXIXIXIXIXIXIXIXIXIXIXIXIXIXIXIXIXIXIXIXIXIXIXPXIX9Xz ; k ] k 5 5 5 2 * &.8Xo.2 6 5 5 3 3 3 2 2 3 2 4 9 9 1 1 _ 1XHXPXIXIXIXIXIXIXIXIXIX",
"IXIXIXIXIXIXIXIXIXIXIXIXIXIXIXIXIXIXIXIXIXIXIXIXIXIXIXIXIXIXIXIXIXIXIXIXIXIXIXIXdXz ; 2 s 0 6 5 5 2 : _ o.0 6 { 6 { 6 6 6 5 5 5 3 2 2 ; j O.1XAXIXIXIXIXIXIXIXIXIXIXIX",
"IXIXIXIXIXIXIXIXIXIXIXIXIXIXIXIXIXIXIXIXIXIXIXIXIXIXIXIXIXIXIXIXIXIXIXIXIXIXPXIXgXz ; 7 - ; 5 5 3 2 1 1 3 { 6 3 3 5 3 2 2 2 4 ; ; : f @.1XLXIXIXIXIXIXIXIXIXIXIXIXIXIX",
"IXIXIXIXIXIXIXIXIXIXIXIXIXIXIXIXIXIXIXIXIXIXIXIXIXIXIXIXIXIXIXIXIXIXIXIXIXIXPXIX9Xo.- 7 2 3 5 5 3 ; * - 6 6 3 5 5 5 2 2 2 ; ; - : z &.BXLXJXJXIXIXIXIXIXIXIXIXIXIXIXIX",
"IXIXIXIXIXIXIXIXIXIXIXIXIXIXIXIXIXIXIXIXIXIXIXIXIXIXIXIXIXIXIXIXIXIXIXIXIXKXIXZXoXs ; 3 6 5 5 5 3 ; 2 5 5 5 5 5 5 2 ; 2 2 : : l &.DXLXIXJXLXIXIXIXIXIXIXIXIXIXIXIXIXIX",
"IXIXIXIXIXIXIXIXIXIXIXIXIXIXIXIXIXIXIXIXIXIXIXIXIXIXIXIXIXIXIXIXIXIXIXIXIXJXIXgX( = 4 5 5 5 5 5 3 2 3 6 5 5 3 5 5 2 2 ; : z %XxXSXLXIXIXIXIXIXIXIXIXIXIXIXIXIXIXIXIXIX",
"IXIXIXIXIXIXIXIXIXIXIXIXIXIXIXIXIXIXIXIXIXIXIXIXIXPXIXIXIXIXIXIXLXIXIXKXPXDXIX9Xz * 3 3 5 5 5 5 5 3 5 5 5 5 5 5 3 ; - = l &.,X,X&.,XBXIXIXIXIXIXIXIXIXIXIXIXIXIXIXIXIX",
"IXIXIXIXIXIXIXIXIXIXIXIXIXIXIXIXIXIXIXIXIXIXIXIXIXIXIXIXIXIXPXIXIXIXKXCXHXxXzX:Xh , i , : - ; 2 3 5 5 5 5 5 5 5 2 - * : z | | k 7 z 8XLXIXKXIXIXIXIXIXIXIXIXIXIXIXIXIX",
"IXIXIXIXIXIXIXIXIXIXIXIXIXIXIXIXIXIXIXIXIXIXIXIXIXIXIXPXIXIXIXGXHXIXHXdXkX=Xx.d.Z H H D M m q : ; 3 3 5 5 5 5 6 6 5 5 { } { 3 5 6 4 $.ZXIXIXIXIXIXIXIXIXIXIXIXIXIXIXIX",
"IXIXIXIXIXIXIXIXIXIXIXIXIXIXIXIXIXIXIXIXIXIXIXIXIXIXIXIXIXIXPXVXkXAXLX4X$XU K 1.u.p.u.i.5.y.>.M q - 2 3 5 5 5 6 { { { { { 6 6 { { 7 k gXLXIXPXIXIXIXIXIXIXIXIXIXIXIXIX",
"IXIXIXIXIXIXIXIXIXIXIXIXIXIXIXIXIXKXIXIXIXIXIXIXIXIXIXIXIXPXZXkXaXfXAX$X` >.u.u.t.y.y.0.u.0.0.5.P > - 2 3 5 6 6 6 5 5 5 5 5 5 5 5 } 2 *XAXIXKXIXIXIXIXIXIXIXIXIXIXIXIX",
"IXIXIXIXIXIXIXIXIXIXIXIXIXIXIXIXIXIXKXFXFXKXIXIXIXIXIXIXPXIXfX<XaXjX2XU K 4.y.r.y.r.y.r.y.y.y.u.p.P q ; 2 3 5 5 5 5 3 3 5 5 5 3 5 6 2 o.dXIXIXIXIXIXIXIXIXIXIXIXIXIXIX",
"IXIXIXIXIXIXIXIXIXIXIXIXIXIXIXIXIXIXSXyXiXKXIXIXIXIXIXIXIXIXjXsXfXkXtXb >.>.L ,.u.y.y.r.y.y.y.t.i.7.M - ; 3 5 5 5 5 5 3 3 3 3 3 5 5 { 9 *XLXIXJXIXIXIXIXIXIXIXIXIXIXIX",
"IXIXIXIXIXIXIXIXIXIXIXIXIXIXIXIXIXIXKXuXM.uXFXIXKXKXIXKXLXZX<XfXHXjX(.Z >.7.>.4.u.t.y.r.y.,.4.r.y.u.P * ; 2 3 2 2 2 2 2 2 ; ; ; 2 5 6 2 o.gXIXIXIXIXIXIXIXIXIXIXIXIXIX",
"IXIXIXIXIXIXIXIXIXIXIXIXIXIXIXIXIXIXIXmXB.[.iXIXIXPXKXIXPXeX8XMXIXtX` -.>.r.r.y.y.r.r.r.y.r.t.y.u.y.>., ; 2 ; 2 2 2 ; ; - - - ; 2 3 5 6 0 *XIXJXIXIXIXIXIXIXIXIXIXIXIX",
"IXIXIXIXIXIXIXIXIXIXIXIXIXIXIXIXIXKXIXFXeXS.J.pXSXuXuXiX.XH..XhXLX6XU L >.r.y.y.r.9.:.r.y.u.y.r.u.y.>.q ; 2 2 ; ; ; ; * q m u * - ; 4 7 : O.AXJXIXIXIXIXIXIXIXIXIXIXIX",
"IXIXIXIXIXIXIXIXIXIXIXIXIXIXIXIXIXKXIXHXmXS.A.{..XH.H.J.K.K.D.7XLXqXG :.>.9.y.y.y.4.,.9.y.y.r.t.u.y.,.q 2 2 ; ; - , u M P 1.2._ ( - ; 7 3 k 1XKXIXIXIXIXIXIXIXIXIXIXIX",
"IXIXIXIXIXIXIXIXIXIXIXIXIXIXIXIXIXIXIXIXDXH.F.b.b.A.n.K.W.W.C.|.GX4XC L >.y.y.y.y.y.y.u.5.y.u.r.y.y.>.q - - : q u M I y.p.9.j.6X8Xl : ; 5 2 O.AXIXIXIXIXIXKXIXIXIXIXIX",
"IXIXIXIXIXIXIXIXIXIXIXIXIXIXIXIXKXJXJXHXSXM.D.C.b.c.=.v.R.W.P.[.lXwXC :.:.r.y.y.y.r.r.t.r.t.i.y.y.y.>.> > u D I i.s.i.r.t.1.f.wXIXzX_ < 4 ; k 1XIXIXIXIXIXIXIXPXIXIXIX",
"IXIXIXIXIXIXIXIXIXIXIXIXIXIXIXIXZXkXkXiXXXD.C.b.b.=.L A n.Y.Y.H.yXwXG I :.y.r.,.4.y.r.r.r.6.T R u.s.,.D D 3.i.s.R R r.r.u.1.f.wXPXVXz.F j - 4 O.PXIXPXIXIXIXIXIXIXIXIX",
"PXIXIXIXIXIXIXIXIXIXIXIXIXIXIXIXKXBXaX].n.U.R.A.b. .L 3.P c.S.A.}.2Xb I >.y.r.7.9.0.y.u.u.6.R V B V E i.s.r.T V T R 1.r.y.1.k.wXhXg.J >XkX$.* f lXHXIXIXIXIXIXIXIXIXIX",
"IXIXIXIXIXIXIXIXIXIXIXIXIXIXPXIXHXfX4X1X}.K.W.S.C.c.6.1.>.P =. ./.>XG I :.r.y.r.y.y.7.R w.i.i.6.V p p B B a a V 6.u.i.y.y.9.w.h.x.>.I wXGXxX&.f O.ZXIXIXIXIXIXIXIXIXIX",
"IXKXIXIXIXIXIXIXIXIXIXIXIXIXIXIXLXxX4X4XgX{.S.F.C.v.6.;.r.3.-.Z m.!.S 2.:.y.y.r.r.9.7.R T T R t.i.E B 9 8 B R u.i.w.R R r.y.I G :.1.w.tXJXIXAX1X#.dXJXIXIXIXIXIXIXIXIX",
"PXKXIXIXIXIXIXIXIXIXIXIXIXIXIXIXHXzXaXaXkXgX}.D.F.b.*.>.w.r.4.:.Y Y G -.,.y.r.,.3.r.t.y.R B a B T 6.w.R T r.u.6.T V V R r.y.I J y.4.k.bXIXKXIXIXgXzXKXIXIXIXIXIXIXIXIX",
"PXPXIXIXIXIXIXIXIXIXIXIXIXIXPXIXAXzXsX:X#X2X2X[.F.V.A 3.r.,.y.u.3.P K I :.r.0.,.r.u.a.i.u.y.T p 8 p V 6.7.R V p p B w.r.y.y.:.I t.L (.ZXIXPXKXKXIXJXIXIXIXIXIXIXIXIXIX",
"KXKXKXIXIXIXIXIXIXIXIXIXIXIXIXKXJXxX=XU Z C d._.~.v.c.6.5.>.,.u.r.3.I K :.r.9.,.r.p.a.a.a.i.p.u.T 8 7 3 8 5 7 a 7.i.u.y.y.t.I P r.-.=XFXIXIXIXIXIXIXIXIXIXIXIXIXIXIXIX",
"IXKXLXKXIXIXIXIXKXIXPXIXIXIXIXIXnX_.K ,.>.3.;.f.'.~.v.*.5.2.,.r.u.4.:.I L y.9.>.3.y.y.y.p.a.a.u.y.w.V 8 5 p T r.u.t.u.y.t.4.I K 0.3.>XHXIXIXIXIXIXIXIXIXIXIXIXIXIXIXIX",
"IXIXIXLXPXKXIXIXIXIXIXIXIXIXKXPX-X:.;.r.9.7.0.0.(.;X/.A 2.t.,.,.4.r.,.I >.r.3.2.I ,.3.r.r.0.u.u.y.y.i.6.R 0.i.y.p.a.a.p.r.r.:.K <.(.zXIXKXIXIXIXIXIXIXIXIXIXIXIXIXIXIX",
"IXIXIXIXJXPXIXIXKXIXIXIXIXIXPXZX'.;.r.r.y.r.u.1.d._.3X`.d.5.1.>.:.,.,.:.I 7.1.w.6.>.L L ;.0.i.y.r.9.0.y.y.4.y.u.p.9.p.u.t.r.2.I ;.'.ZXIXIXIXIXIXIXIXIXIXIXIXIXIXIXIXIX",
"IXPXIXIXPXLXKXPXIXIXIXIXIXIXzX=Xw.1.y.y.r.r.u.r.>.d.@X&Xh.2.9.r.9.,.7.1.:.>.,.a.m.E h.0X(.P Z 7.3.,.r.3.y.u.9.w.y.f.6.I M.N.:.L f.kXKXIXKXIXIXIXIXIXIXIXIXIXIXIXIXIXIX",
"IXIXIXIXIXLXKXLXPXIXIXPXKXAX'.f.1.y.t.4.y.r.y.:.L I Y j.f.Y I ,.4.-.2.r.:.>.;.a.B...`.BX*XF m H 3.,.3.:.>.r.p.r.w.h.D F J.N.c U =XIXKXIXIXIXIXIXIXIXIXIXIXIXIXIXIXIXIX",
"IXIXIXIXIXIXIXKXHXKXIXIXHXhX2.4.u.u.r.r.y.1.:.K J L -.L 3.2.G G I ,.,.:.;.;.J R B.[.o.*XO.O.F Z ,.,.,.-.L >.y.a.t.F _ X.[.m.b _.zXIXPXIXIXIXIXIXIXIXIXIXIXIXIXIXIXIXIX",
"IXIXIXIXIXIXIXIXKXKXAXZXbXqX;.9.u.9.y.,.>.I I '.(.Y I 2.L u.n m c.L.n.C >.P V B ~.XXX.e w T Y ,.u.a.9.,.>.I >.i.0.C +.rX}.e.@XDXIXPXIXIXIXIXIXIXIXIXIXIXIXIXIXIXIXIXIX",
"IXIXIXIXIXIXIXPXFXAXwXx.x.x.1.<.0.u.r.:.J d.=XCXhXx.C 2.I 9.v N K.W.U.A L a p m m.XXrXm.C H ;.t.i.a.9.r.9.,.2.,.p.a.m.rX/.'.CXIXPXIXIXIXIXIXIXIXIXIXIXIXIXIXIXIXIXIXIX",
"IXIXIXIXIXIXIXIXeXJ.n.c.*.*.=.q.0.7.-.I h.nXKXIXPX3XI :.:.9.$ A K.Y.I.V.M i N H V ~.pXrXN.7.I 2.y.9.4.r.y.y.t.r.0.p.a.~.;XzXIXKXIXIXIXPXIXIXIXIXIXIXIXIXIXIXIXIXIXIXIX",
"IXIXIXIXIXIXIXIX.XS.P.K.A.C.v.v.q.,.J k.sXKXIXPXIXbXh.J >.y.H m  .Z.Z. .e @ H M M m.rXmXpX.XN.8.6.R I I J c C :.0.0.i.!.hXLXKXIXIXIXIXIXIXIXIXIXIXIXIXIXIXIXIXIXIXIXIX",
"IXIXIXIXIXIXIXIX.XU.W.E.G.Z.F.V.T g g %.GXIXIXKXIXMX(.c I w.t.H m e p r < v G H n C m..XrXeX^.^.].!.6.Z e.].^.e.R ;.<.r.hXIXKXIXIXIXIXIXIXIXIXIXIXIXIXIXIXIXIXIXIXIXIX",
"IXIXIXIXIXIXIXMX/.A.P.S.V.b.V.v.B f f %.AXIXPXIXIXMXk.J I 7.r.3.I S O h j f S L Y g.k.8.a.l.l./.XX}.6.;.!.XXXXt.H !.(.:.qXKXIXIXIXIXIXIXIXIXIXIXIXIXIXIXIXIXIXIXIXIXIX",
"IXIXIXIXIXIXIXyXJ.A.K.Z.V.V.V. .B j f ] AXIXKXIXKXwXY 2.2.w.4.1.y.>.S f l j g P x.9XsX=XY -.5.N. X/.0.;.t././.<.c.{.hX>XwXDXIXIXIXIXIXIXIXIXIXIXIXIXIXIXIXIXIXIXIXIXIX",
"IXIXIXIXIXIXIXuXQ.W.W.Y.I.G.F.Z.V g S &XHXIXKXIXCX[ . G b U f.f.:.-.H $ f d $ @ ' kXIXIX2Xx.Y I w.q.,.r.r.8.>.=.L.{.IXIXIXHXIXIXIXIXIXIXIXIXIXIXIXIXIXIXIXIXIXIXIXIXIX",
"IXIXIXIXIXIXIXcXQ.U.E.Y.G.F.F.V.A C h.vXGXIXIXIXkX^     . % OXz.G v v # @ + +   ! sXIXHXHXnX(.H U K -.2.2.U 9.n.T.eXKXKXIXIXIXIXIXLXPXIXIXIXIXIXIXIXIXIXIXIXIXIXIXIXIX",
"IXIXIXIXIXIXIXmX XU.E.Y.F.Z.Z.v.B g $XJXHXHXKXIXjX^   # % # <XkXoX! ' ' Q % Q # ^ wXIXKXPXIX6X/ m *.A L P 6.n.R.Q.pXIXIXIXIXIXIXPXjXsXGXIXIXIXIXIXIXIXIXIXIXIXIXIXIXIX",
"IXIXIXIXIXIXIXSX[.K.P.Z.Z.V.b.b.N h ,XIXJXJXHXLXzX'   . + # OXNXsX$XfX$X^ # % # ^ sXIXKXKXIXjX#. .Z.C.v.c.b.P.K.n.mXIXKXKXIXKXIXIXjX$XkXIXIXIXIXIXIXIXIXIXIXIXIXIXIXIX",
"IXIXIXIXIXIXIXKX}.C.K.S.Z.F.Z.Z.N %.BXKXPXIXJXJXAX[   . .   [ kXGX6XOX$X^ % # # OXZXIXPXIXIXHX;XN A.Z.P.I.P.S.A.|.FXIXIXIXIXIXIXPXfXfXsXlXDXIXIXIXIXIXIXIXIXIXIXIXIXIX",
"IXIXIXIXIXIXIXIXeXL.E.R.Y.G.C.b...@XCXIXIXKXJXDXLX<X#   # + ' sXAXOXg ) ! % . % 4XPXIXIXIXIXIX>XZ c.b.F.Y.E.U.H.uXHXIXIXIXPXJXPXPXfXkXsXjXAXIXIXIXIXIXIXIXIXIXIXIXIXIX",
"IXIXIXIXIXIXIXIXcXQ.U.U.A.b.c.=.t.k.=XhXPXIXIXIXIXZX'   # # $ oX+Xh : O r O # OXCXJXPXIXPXIXnX'.<.0.q.c.n.U.U. XFXIXIXPXIXIXIXIXPXxXfXBXfXzXIXLXKXPXIXIXIXIXIXIXIXIXIX",
"IXIXIXIXIXIXIXKXDX}.H.B.A 6.3.y.9.1.;.k.>XBXBXvXvXgX] o X X X X = - - X w , _ iXIXKXIXIXIXIX=XH P :.,.4.w.c.n.7XAXAXIXIXPXMXgXjXkX1XaXZX$XoXBXIXIXIXIXIXIXIXIXIXIXIXIX",
"IXIXIXIXIXIXIXKXLXuXeX].c 3.r.r.r.0.<.H D %X+X).&.] d & * * & X = 2 X l i N X.yXPXKXIXIXAXjX` @ @ y D 9.5.Z T +.1X8XlXBXfX&./ ) ] W OX$Xl < #XBXAXKXIXIXIXIXIXIXIXIXIX",
"IXIXIXIXIXIXIXIXIXIXLX>Xc y.r.w.u.>.m q q w w i i w w - & ; & - ; - * = q v.v.7XHXKXKXIX&XS @ O X y y D ,.2.M e w w p t < X X X * X X X ; - o j %XZXIXKXIXIXIXIXIXIXIX",
"IXIXIXIXIXIXIXIXPXIXAX=Xc r.r.r.u.>.n w w = = X = , t X X X X X = O & =  .C.X.1XIXKXIXIX2XY n x G >.G C 7.;.x X - > , w w = & ; - X = 2 : q w t ,XSXIXIXIXIXIXIXIXIXIX",
"IXIXIXIXKXIXIXIXIXJX+XS ,.y.r.3.r.3.C n y &X9XlXlXxXhX1X] &X/ d OX9X#.> N N +.lXIXHXIXIXqXd.C G P ,.>.G J Y _.8X1X%X&.#.( < X - - = ; - X > > < AXJXIXIXIXIXIXIXIXIXIX",
"IXIXIXIXIXIXIXIXIXKX&XS -.y.t.y.u.r.6.L C tXHXIXIXIXIXDXjXGX%.%.jXAXdX%.y u 1XIXIXIXKXIXhXg.x J K :.r.2.C k.hXHXFXZXvXlXgXoXh r X X 1 = - X < %XIXKXIXIXIXIXIXIXIXIXIX",
"IXIXIXIXIXIXIXIXIXIXjX#.c ,.<.<.,.L L ,.k.MXPXIXKXIXKXHXIXkX$XaXAXAXGXjX' ) dXKXIXIXIXIXHXwXd.J J J K :.Z >XDXIXIXIXIXIXIXZX9X<X%.~ #XoXf s &XAXIXIXIXIXIXIXIXIXIXIXIX",
"IXIXIXIXIXIXIXIXIXIXHXtXh.k.>.:.L Y g.>XtXIXIXIXIXFXkXsXfX$X4XzXZXCXCXZXsX$XtXZXMXmXFXIXIXIXwX(.g.g.d.k.=XhXHXIXIXIXIXPXGXPXIXPXfX1XHXGX%.%.HXKXIXIXIXIXIXPXIXIXIXIXIX",
"IXIXIXIXIXIXIXIXIXIXIXKXzXqX'._._.'.wXIXKXIXIXPXHXzX4X6X<X$XfXCXCXCXCXCXCXzXaX3X7X}.iXZXAXCXCXkX2X>X2XjXAXIXIXIXIXKXLXxXfXzXZXkX6XxXxXHXkXsXAXIXIXIXIXIXIXIXIXIXIXIXIX",
"IXIXIXIXIXIXIXIXIXIXIXIXIXIXIXIXIXIXIXKXIXIXIXIXzX6XNXPXCXCXAXCXCXCXVXZXAXAXfX~.v.v./.hXGXGXLXLXIXGXHXIXIXKXIXIXPXHXfX6X6X6X4XsXjXAXCXCXCXfX6XDXPXIXIXIXIXIXIXIXIXIXIX",
"IXIXIXIXIXIXIXIXIXIXIXKXIXKXKXKXIXKXKXIXIXIXIXIXNXjXAXAXCXAXCXVXCXZXHXPXIXhX`.b.V.v.].SXIXPXPXPXPXAXZXKXIXIXKXIXJXNX4XZXHXzXsXzXAXBXCXCXAXxX6XsXJXPXIXIXIXIXIXIXIXIXIX",
"IXIXIXIXIXIXIXIXIXIXIXIXIXIXIXIXIXIXIXIXIXIXIXIXLXlX$X$XNXGXJXHXJXDXCXBX4X+.X.....`.CXHXPXIXPXPXPXHXAXPXIXIXIXIXIXLX6XzXBXZXZXVXCXVXCXNXxXZXCXfX5XHXIXIXIXIXIXIXIXIXIX",
"IXIXIXIXIXIXIXIXIXIXIXIXIXIXIXIXIXIXIXKXIXIXIXIXIXaX) ) $X4XdXdXdX4X#X%./ g l t f oXZXLXPXPXLXHXLXHXAXPXIXIXIXIXIXIXNXsX4XCXIXJXGXGXHXHXPXIXCX6XsXHXIXIXIXIXIXIXIXIXIX",
"IXIXIXIXIXIXIXIXIXIXIXIXIXIXIXIXIXIXIXIXIXIXKXKXZX+Xo d d g ! ~ / W h r < d d O h oXVXLXLXAXAXAXAXAXDXIXIXIXIXIXIXIXKXCXsXfXkXCXAXAXZXCXNXkXsXsXGXPXIXIXIXIXIXIXIXIXIX",
"IXIXIXIXIXIXIXIXIXIXIXIXIXIXIXIXIXIXIXIXIXIXIXIXdX~ o O o O o O O O O < d d d o d %.ZXLXGXAXHXJXHXLXIXIXIXIXIXIXIXIXKXIXGXkXsXfXjXjXfXfXfXsXzXAXIXIXIXIXIXIXIXIXIXIXIX",
"IXIXIXIXIXIXIXIXIXIXIXIXIXIXIXIXIXIXIXIXIXIXPXIXaX) O $ O d < O < O O # O O / ~ ^ &XGXLXGXAXPXIXIXIXIXIXIXIXIXIXIXIXIXIXIXPXHXCXzXkXkXxXCXHXPXIXIXIXIXIXIXIXIXIXIXIXIX",
"IXIXIXIXIXIXIXIXIXIXIXIXIXIXIXIXIXIXIXIXIXIXIXIXGXdX&XoX) W h h g d d d o W dXIXxXZXLXIXHXAXPXIXIXIXIXIXIXPXPXLXIXIXIXIXIXIXIXIXIXIXIXIXIXIXIXIXIXIXIXIXIXIXIXIXIXIXIX",
"IXIXIXIXIXIXIXIXIXIXIXIXIXIXIXIXIXIXIXIXIXIXIXIXIXHXHXGXAXCX5X$X] ~ d O   / dXLXBXGXPXPXLXAXHXIXPXIXIXIXGXAXGXZXZXAXIXIXIXIXIXIXIXIXPXIXIXIXIXIXIXIXIXIXIXIXIXIXIXIXIX",
"IXIXIXIXIXIXIXIXIXIXIXIXIXIXIXIXIXIXIXIXIXIXIXIXIXIXIXIXIXIXIXKXJXHXAXgX<X5XZXKXZXGXPXPXHXAXHXIXIXIXIXPXAXGXLXHXGXZXKXIXIXIXIXIXIXIXIXIXIXIXIXIXIXIXIXIXIXIXIXIXIXIXIX",
"IXIXIXIXIXIXIXIXIXIXIXIXIXIXIXIXIXIXIXIXIXIXIXIXIXIXIXPXIXIXIXIXIXIXIXJXZXAXLXIXGXCXAXAXCXAXJXIXIXIXIXPXAXHXPXIXLXAXHXIXIXIXIXIXIXIXIXIXIXIXIXIXIXIXIXIXIXIXIXIXIXIXIX",
"IXIXIXIXIXIXIXIXIXIXIXIXIXIXIXIXIXIXIXIXIXIXIXIXIXIXIXIXIXIXIXIXIXPXIXIXIXIXIXIXIXHXGXLXJXLXIXIXIXKXIXIXAXGXIXIXPXAXGXIXIXIXIXIXIXIXIXIXIXIXIXIXIXIXIXIXIXIXIXIXIXIXIX",
"IXIXIXIXIXIXIXIXIXIXIXIXIXIXIXIXIXIXIXIXIXIXIXIXIXIXPXIXIXIXIXIXIXIXIXIXIXKXIXIXIXIXIXIXIXIXIXIXIXIXIXIXGXAXLXPXPXGXGXIXIXIXIXIXIXIXIXIXIXIXIXIXIXIXIXIXIXIXIXIXIXIXIX",
"IXIXIXIXIXIXIXIXIXIXIXIXIXIXIXIXIXIXIXIXIXIXIXIXIXIXIXIXIXIXIXIXIXIXIXIXIXIXIXIXIXIXIXIXIXIXIXIXIXIXJXIXGXDXPXLXPXGXAXIXIXIXIXIXIXIXIXIXIXIXIXIXIXIXIXIXIXIXIXIXIXIXIX",
"IXIXIXIXIXIXIXIXIXIXIXIXIXIXIXIXIXIXIXIXIXIXIXIXIXIXIXIXIXIXIXIXIXIXIXIXIXIXIXIXIXIXIXIXIXIXIXJXAXAXAXAXAXGXIXIXIXAXAXIXIXIXIXIXIXIXIXIXIXIXIXIXIXIXIXIXIXIXIXIXIXIXIX",
"IXIXIXIXIXIXIXIXIXIXIXIXIXIXIXIXIXIXIXIXIXIXIXIXIXIXIXIXIXIXIXIXIXIXIXIXIXIXIXIXIXIXIXIXIXIXIXGXAXGXGXHXGXLXLXLXPXGXHXIXIXIXIXIXIXIXIXIXIXIXIXIXIXIXIXIXIXIXIXIXIXIXIX",
"IXIXIXIXIXIXIXIXIXIXIXIXIXIXIXIXIXIXIXIXIXIXIXIXIXIXIXIXIXIXIXIXIXIXIXIXIXIXIXIXIXPXIXIXIXIXIXAXGXIXLXIXIXPXIXLXLXZXPXIXIXIXIXIXIXIXIXIXIXIXIXIXIXIXIXIXIXIXIXIXIXIXIX",
"IXIXIXIXIXIXIXIXIXIXIXIXIXIXIXIXIXIXIXIXIXIXIXIXIXIXIXIXIXIXIXIXIXIXIXIXIXIXIXIXIXIXIXIXIXIXPXAXDXLXLXIXPXPXIXLXAXGXIXIXIXIXIXIXIXIXIXIXIXIXIXIXIXIXIXIXIXIXIXIXIXIXIX",
"IXIXIXIXIXIXIXIXIXIXIXIXIXIXIXIXIXIXIXIXIXIXIXIXIXIXIXIXIXIXIXIXIXIXIXIXIXIXIXIXIXIXIXIXIXIXIXAXGXLXLXLXLXHXGXAXAXPXPXIXIXIXIXIXIXIXIXIXIXIXIXIXIXIXIXIXIXIXIXIXIXIXIX",
"IXIXIXIXIXIXIXIXIXIXIXIXIXIXIXIXIXIXIXIXIXIXIXIXIXIXIXIXIXIXIXIXIXIXIXIXIXIXIXIXIXPXIXIXIXIXIXHXZXZXAXZXZXAXAXGXIXIXIXLXPXIXIXIXIXIXIXIXIXIXIXIXIXIXIXIXIXIXIXIXIXIXIX",
"IXIXIXIXIXIXIXIXIXIXIXIXIXIXIXIXIXIXIXIXIXIXIXIXIXIXIXIXIXIXIXIXIXIXIXIXIXIXIXIXKXPXIXIXIXIXIXIXLXJXHXLXLXJXIXIXIXIXIXKXJXLXIXIXIXIXIXIXIXIXIXIXIXIXIXIXIXIXIXIXIXIXIX",
"IXIXIXIXIXIXIXIXIXIXIXIXIXIXIXIXIXIXIXIXIXIXIXIXIXIXIXIXIXIXIXIXIXIXIXIXIXIXIXKXPXPXIXIXIXIXIXIXIXIXIXIXIXIXIXIXIXIXIXIXPXJXLXIXIXIXIXIXIXIXIXIXIXIXIXIXIXIXIXIXIXIXIX",
"IXIXIXIXIXIXIXIXIXIXIXIXIXIXIXIXIXIXIXIXIXIXIXIXIXIXIXIXIXIXIXIXIXIXIXIXIXIXKXKXIXIXIXIXIXIXIXIXIXIXIXIXIXIXIXIXIXIXIXIXIXPXHXJXPXIXIXIXIXIXIXIXIXIXIXIXIXIXIXIXIXIXIX",
"IXIXIXIXIXIXIXIXIXIXIXIXIXIXIXIXIXIXIXIXIXIXIXIXIXIXIXIXIXIXIXIXIXIXIXIXPXJXHXLXIXIXIXIXIXIXIXIXIXIXIXIXIXIXIXIXIXIXIXIXIXIXIXJXKXPXIXIXIXIXIXIXIXIXIXIXIXIXIXIXIXIXIX",
"IXIXIXIXIXIXIXIXIXIXIXIXIXIXIXIXIXIXIXIXIXIXIXIXIXIXIXIXIXIXIXIXIXIXIXIXKXLXIXIXIXIXIXIXIXIXIXIXIXIXIXIXIXIXIXIXIXIXIXIXIXIXIXIXPXKXKXIXIXIXIXIXIXIXIXIXIXIXIXIXIXIXIX",
"IXIXIXIXIXIXIXIXIXIXIXIXIXIXIXIXIXIXIXIXIXIXIXIXIXIXIXIXIXIXIXIXIXIXPXKXKXKXIXIXIXIXIXIXIXIXIXIXIXIXIXIXIXIXIXIXIXIXIXIXIXIXIXIXIXKXLXKXPXIXIXIXIXIXIXIXIXIXIXIXIXIXIX"
};
