/* XPM */
static char *result[] = {
/* columns rows colors chars-per-pixel */
"83 93 255 2 ",
"   c #0E0B0C",
".  c #181716",
"X  c #2A0606",
"o  c #360605",
"O  c #3B0101",
"+  c #2C181A",
"@  c #391A18",
"#  c #2C2D18",
"$  c #382415",
"%  c #3B3717",
"&  c #1F2021",
"*  c #28272A",
"=  c #362826",
"-  c #2F3729",
";  c #353635",
":  c #440302",
">  c #4C0202",
",  c #480B0A",
"<  c #540202",
"1  c #5C0202",
"2  c #550A09",
"3  c #4B1707",
"4  c #531907",
"5  c #461A19",
"6  c #571818",
"7  c #630101",
"8  c #6C0101",
"9  c #6A0A09",
"0  c #720101",
"q  c #7B0102",
"w  c #740C09",
"e  c #711709",
"r  c #66191A",
"t  c #741616",
"y  c #572505",
"u  c #4E2B12",
"i  c #4B3915",
"p  c #553718",
"a  c #6B310D",
"s  c #4C1C23",
"d  c #442223",
"f  c #4A2727",
"g  c #572A2A",
"h  c #4C382F",
"j  c #58342B",
"k  c #583736",
"l  c #702A2B",
"z  c #64362A",
"x  c #683635",
"c  c #334415",
"v  c #37610A",
"b  c #3B6615",
"n  c #3B5025",
"m  c #3E6724",
"M  c #5D400A",
"N  c #494A19",
"B  c #56491A",
"V  c #4B581C",
"C  c #54561C",
"Z  c #724D0C",
"A  c #6B4819",
"S  c #6C581D",
"D  c #49681E",
"F  c #536E1B",
"G  c #49761D",
"H  c #707119",
"J  c #4E4E2C",
"K  c #715326",
"L  c #6B4333",
"P  c #496925",
"I  c #566825",
"U  c #4C7424",
"Y  c #4C7827",
"T  c #527C24",
"R  c #567828",
"E  c #547C2B",
"W  c #546D31",
"Q  c #587936",
"!  c #686923",
"~  c #697728",
"^  c #6C7237",
"/  c #3D3B42",
"(  c #643D42",
")  c #4E4D4E",
"_  c #5C4644",
"`  c #694747",
"'  c #764A46",
"]  c #71544E",
"[  c #675755",
"{  c #755958",
"}  c #636F4B",
"|  c #6B704D",
" . c #686467",
".. c #7B6968",
"X. c #747375",
"o. c #850304",
"O. c #833A3B",
"+. c #845A08",
"@. c #91730E",
"#. c #AA7B0B",
"$. c #8E6D2D",
"%. c #834747",
"&. c #82514F",
"*. c #8B5758",
"=. c #8B6A58",
"-. c #886666",
";. c #936766",
":. c #966C6E",
">. c #8B756A",
",. c #8A7B79",
"<. c #987877",
"1. c #56881F",
"2. c #7E8315",
"3. c #4E892C",
"4. c #568725",
"5. c #56832C",
"6. c #5A852C",
"7. c #5C8B2D",
"8. c #5C912D",
"9. c #588532",
"0. c #5D8B31",
"q. c #5E9231",
"w. c #698527",
"e. c #65862C",
"r. c #638D2D",
"t. c #788F2A",
"y. c #62932E",
"u. c #66982C",
"i. c #618E32",
"p. c #638738",
"a. c #639532",
"s. c #659A34",
"d. c #699C34",
"f. c #699738",
"g. c #769737",
"h. c #6CA335",
"j. c #67A538",
"k. c #72AA39",
"l. c #67B13B",
"z. c #678747",
"x. c #718B4F",
"c. c #769359",
"v. c #7BA443",
"b. c #788965",
"n. c #7C9565",
"m. c #7F8A75",
"M. c #888915",
"N. c #948D11",
"B. c #A98707",
"V. c #B38A03",
"C. c #B89705",
"Z. c #AC9517",
"A. c #B5A70E",
"S. c #918F36",
"D. c #B0942E",
"F. c #90A83C",
"G. c #B1A636",
"H. c #C59B04",
"J. c #D19F00",
"K. c #C9A704",
"L. c #D5AA02",
"P. c #C7B507",
"I. c #D8B505",
"U. c #CCB319",
"Y. c #EBB601",
"T. c #E6B801",
"R. c #CBB12C",
"E. c #D8C706",
"W. c #D3CB12",
"Q. c #E5C606",
"!. c #F3C904",
"~. c #E6D405",
"^. c #FAD402",
"/. c #EEE201",
"(. c #F8E904",
"). c #FBF603",
"_. c #F2DE2D",
"`. c #91954D",
"'. c #AB9F4E",
"]. c #8FA647",
"[. c #B3A950",
"{. c #82976B",
"}. c #869A74",
"|. c #969171",
" X c #8DA376",
".X c #8DA775",
"XX c #B1A769",
"oX c #CCB44C",
"OX c #C8B476",
"+X c #D1C14C",
"@X c #D3C16F",
"#X c #EACF7C",
"$X c #8A8585",
"%X c #998887",
"&X c #979689",
"*X c #999593",
"=X c #A68988",
"-X c #A69695",
";X c #AE9291",
":X c #97AA8B",
">X c #ABAE8F",
",X c #A6B599",
"<X c #A79DA2",
"1X c #ACAAA8",
"2X c #B6AAA9",
"3X c #ADB9A2",
"4X c #B2B3AD",
"5X c #B7B5B5",
"6X c #BDBDBD",
"7X c #C7B986",
"8X c #C6B4AC",
"9X c #C4B9B9",
"0X c #B7C5A9",
"qX c #BCC5BA",
"wX c #DAD08F",
"eX c #D6CA96",
"rX c #E8D492",
"tX c #79B229",
"yX c #79B229",
"uX c #79B229",
"iX c #79B229",
"pX c #79B229",
"aX c #79B229",
"sX c #79B229",
"dX c #79B229",
"fX c #79B229",
"gX c #79B229",
"hX c #79B229",
"jX c #79B229",
"kX c #79B229",
"lX c #79B229",
"zX c #79B229",
"xX c #79B229",
"cX c #79B229",
"vX c #79B229",
"bX c #79B229",
"nX c #79B229",
"mX c #79B229",
"MX c #79B229",
"NX c #79B229",
"BX c #79B229",
"VX c #79B229",
"CX c #79B229",
"ZX c #79B229",
"AX c #79B229",
"SX c #79B229",
"DX c #79B229",
"FX c #79B229",
"GX c #79B229",
"HX c #79B229",
"JX c #79B229",
"KX c #79B229",
"LX c #79B229",
"PX c #79B229",
"IX c #79B229",
/* pixels */
"IXIXIXIXIXIXIXIXIXIXIXIXIXIXIXIXIXIXIXIXIXIXIXIXIXIXIXIXIXIXIXIXIXIXIXIXIXIXIXIXIXIXIXIXIXIXIXIXIXIXIXIXIXIXIXIXIXIXIXIXIXIXIXIXIXIXIXIXIXIXIXIXIXIXIXIXIXIXIXIXIXIXIX",
"IXIXIXIXIXIXIXIXIXIXIXIXIXIXIXIXIXIXIXIXIXIXIXIXIXIXIXIXIXIXIXIXIXIXIXIXIXIXIXIXIXIXIXIXIXIXIXIXIXIXIXIXIXIXIXIXIXPXIXIXIXIXIXIXIXIXIXIXIXIXIXIXIXIXIXIXIXIXIXIXIXIXIX",
"IXIXIXIXIXIXIXIXIXIXIXIXIXIXIXIXIXIXIXIXIXIXIXIXIXIXIXIXIXIXIXIXIXIXIXIXIXIXIXIXIXIXIXIXIXIXIXIXIXIXIXIXIXIXIXIXIXIXIXIXIXIXIXIXIXIXIXIXIXIXIXIXIXIXIXIXIXIXIXIXIXIXIX",
"IXIXIXIXIXIXIXIXIXIXIXIXIXIXIXIXIXIXIXIXIXIXIXIXIXIXIXIXIXIXIXIXIXIXIXIXIXIXIXIXIXIXIXIXIXIXIXIXIXIXIXIXIXIXKXKXIXIXIXIXIXIXIXIXIXIXIXIXIXIXIXIXIXIXIXIXIXIXIXIXIXIXIX",
"IXIXIXIXIXIXIXIXIXIXIXIXIXIXIXIXIXIXIXIXIXIXIXIXIXIXIXIXIXIXIXIXIXIXIXIXIXIXIXIXIXIXIXPXPXIXPXIXIXPXIXIXLXLX2XbXKXIXIXIXIXIXIXIXIXIXIXIXIXIXIXIXIXIXIXIXIXIXIXIXIXIXIX",
"IXIXIXIXIXIXIXIXIXIXIXIXIXIXIXIXIXIXIXIXIXIXIXIXIXIXIXIXIXIXIXIXIXIXIXIXIXIXIXIXIXIXIXIXIXIXIXIXIXIXIXIXIXAX' 8XPXIXIXIXIXIXIXIXIXIXIXIXIXIXIXIXIXIXIXIXIXIXIXIXIXIXIX",
"IXIXIXIXIXIXIXIXIXIXIXIXIXIXIXIXIXIXIXIXIXIXIXIXIXIXIXIXIXIXIXIXIXIXIXIXIXIXIXIXIXIXIXIXIXIXIXIXIXIXIXPXzX-.s 9XIXIXKXIXIXIXIXIXIXIXIXIXIXIXIXIXIXIXIXIXIXIXIXIXIXIXIX",
"IXIXIXIXIXIXIXIXIXIXIXIXIXIXIXIXIXIXIXIXIXIXIXIXIXIXIXIXIXIXIXIXIXIXIXIXIXIXIXIXIXIXPXIXIXIXIXIXIXPXIXJX=Xr x gXIXPXIXIXIXIXIXIXIXIXIXIXIXIXIXIXIXIXIXIXIXIXIXIXIXIXIX",
"IXIXIXIXIXIXIXIXIXIXIXIXIXIXIXIXIXIXIXIXIXIXIXIXIXIXIXIXIXIXIXIXIXIXIXIXIXIXIXIXIXIXIXIXIXIXIXIXIXKXJX2Xr 1 &.gXIXIXIXIXIXIXIXIXIXIXIXIXIXIXIXIXIXIXIXIXIXIXIXIXIXIXIX",
"IXIXIXIXIXIXIXIXIXIXIXIXIXIXIXIXIXIXIXIXIXIXIXIXIXIXIXIXIXIXIXIXIXIXIXIXIXIXIXIXIXIXGXAXIXIXIXPXKXKXpX&.7 1 ;.bXIXPXIXIXIXIXIXIXIXIXIXIXIXIXIXIXIXIXIXIXIXIXIXIXIXIXIX",
"IXIXIXIXIXIXIXIXIXIXIXIXIXIXIXIXIXIXIXIXIXIXIXIXIXIXIXIXIXIXIXIXIXIXIXIXIXIXIXIXIXIXzX9XZXIXIXKXIXzX-.9 w < <.bXIXIXIXIXIXIXIXIXIXIXIXIXIXIXIXIXIXIXIXIXIXIXIXIXIXIXIX",
"IXIXIXIXIXIXIXIXIXIXIXIXIXIXIXIXIXIXIXIXIXIXIXIXIXIXIXIXIXIXIXIXIXIXIXIXIXIXIXIXKXIXzX<.=XIXIXKXAX:.9 q w > =XZXIXIXPXIXIXIXIXIXIXIXIXIXIXIXIXIXIXIXIXIXIXIXIXIXIXIXIX",
"IXIXIXIXIXIXIXIXIXIXIXIXIXIXIXIXIXIXIXIXIXIXIXIXIXIXIXIXIXIXIXIXIXIXIXIXIXIXIXIXIXIXZX<.( PXKXKX2Xl w q 7 : <XSXIXIXIXIXIXIXIXIXIXIXIXIXIXIXIXIXIXIXIXIXIXIXIXIXIXIXIX",
"IXIXIXIXIXIXIXIXIXIXIXIXIXIXIXIXIXIXIXIXIXIXIXIXIXIXIXIXIXIXIXIXIXIXIXIXIXIXIXIXIXIXGX:.6 8XGX8Xl 8 q 0 9 o 9XFXKXJXKXKXKXKXKXKXKXIXKXIXKXIXKXLXPXIXIXIXIXIXIXIXIXIXIX",
"IXIXIXIXIXIXIXIXIXIXIXIXIXIXIXIXIXIXIXIXIXIXIXIXIXIXIXIXIXIXIXIXIXIXIXIXIXIXIXIXKXIXAX<., *.GX<.t 0 w 0 7 O pXPXZXlXCXHXLXKXKXKXKXKXLXKXLXIXPXIXPXIXPXIXIXIXIXIXIXIXIX",
"IXIXPXIXIXIXIXIXIXIXIXIXIXIXIXIXIXIXIXIXIXIXIXIXIXIXIXIXIXIXIXIXIXIXIXIXIXIXIXIXIXIXAX<.< l 2X&.t q 8 8 1 > jXgX;.l O.O.O.O.%.%.%.*.*.;.;.<.<.=X=X-X9XIXPXIXIXIXIXIXIX",
"IXIXIXIXIXIXIXIXIXIXIXIXIXIXIXIXIXIXIXIXIXIXIXIXIXIXIXIXIXIXIXIXIXIXIXIXIXIXIXIXKXIXAX<.< w ] ' w 0 0 8 1 6 9X:.w 0 q 0 8 8 8 1 1 7 7 9 9 r r 2 x %XgXIXIXIXIXIXIXIXIX",
"IXIXIXIXIXIXIXIXIXIXIXIXIXIXIXIXIXIXIXIXIXIXIXIXIXIXIXIXIXIXIXIXIXIXIXIXIXIXIXIXIXIXGX<.< 0 2 r w 0 0 8 2 l -.l o.o.q q q q q q q 0 0 0 7 < 6 ' <.zXIXIXPXIXIXIXIXIXIX",
"IXIXIXIXIXIXIXIXIXIXIXIXIXIXIXIXIXIXIXIXIXIXIXIXIXIXIXIXIXIXIXIXIXIXIXIXIXIXIXIXIXIXIX=X> 8 7 > 8 q 8 8 1 g < q o.0 8 0 8 8 7 7 7 7 1 1 6 x =XcXIXIXIXIXIXIXIXIXIXIXIX",
"IXIXIXIXIXIXIXIXIXIXIXIXIXIXIXIXIXIXIXIXIXIXIXIXIXIXIXIXIXIXIXIXIXIXIXIXIXIXIXIXIXIXLX=X> 8 0 7 8 0 8 8 1 : 0 q 0 0 0 0 7 7 1 7 1 < 2 6 -.5XGXKXKXIXPXIXIXIXIXIXIXIXIX",
"IXIXIXIXIXIXIXIXIXIXIXIXIXIXIXIXIXIXIXIXIXIXIXIXIXIXIXIXIXIXIXIXIXIXIXIXIXIXIXIXKXLX9Xx > 8 0 0 0 0 0 7 1 8 0 0 0 0 0 8 1 7 7 1 2 r -.5XIXIXIXPXIXIXIXIXIXIXIXIXIXIXIX",
"IXIXIXIXIXIXIXIXIXIXIXIXIXIXIXIXIXIXIXIXIXIXIXIXIXIXIXIXIXIXIXIXIXIXIXIXIXIXLXIXKXIX%X, 1 0 0 0 0 0 0 7 7 0 0 0 0 0 0 8 7 7 1 r -.8XAXJXIXLXIXIXIXIXIXIXIXIXIXIXIXIXIX",
"IXIXIXIXIXIXIXIXIXIXIXIXIXIXIXIXIXIXIXIXIXIXIXIXIXIXIXIXIXIXIXIXIXIXIXIXIXLXIXHXHXLX<.< 9 8 8 8 0 0 0 8 0 8 0 0 0 0 0 1 < , 5 ..;X8X<.<.zXJXIXIXIXIXIXPXIXIXIXIXIXIXIX",
"IXIXIXIXIXIXIXIXIXIXIXIXIXIXIXIXIXIXIXIXIXIXIXIXIXIXIXIXIXIXIXIXIXIXIXIXLXAXAXAXxXhX=.4 y 4 4 1 1 7 0 0 0 0 0 0 0 0 8 7 < > r O.%.x o.r <.CXIXIXIXIXIXIXIXIXIXIXIXIXIX",
"IXIXIXIXIXIXIXIXIXIXIXIXIXIXIXIXIXIXIXIXIXIXIXIXIXPXIXIXIXIXIXIXIXIXHXLXLXcXkX5X}.x.Q I I I V B i y < 7 0 0 0 0 0 0 q q 0 q o.o.0 0 0 q l sXIXIXIXIXIXIXIXIXIXIXIXIXIX",
"IXIXIXIXIXIXIXIXIXIXIXIXIXIXIXIXIXIXIXIXIXIXIXIXIXIXIXIXIXIXPXIXIXJXlXcXHXcX*Xb.T 4.u.j.d.d.q.a.a.I i 4 7 7 8 0 0 q o.o.o.o.o.o.o.o.o.o.w <.AXIXPXIXIXIXIXIXIXIXIXIXIX",
"IXIXIXIXIXIXIXIXIXIXIXIXIXIXIXIXIXIXIXIXIXIXIXIXIXIXIXIXIXIXIXPXJXcX6X6XBXxX| Q y.f.f.a.s.u.s.s.s.f.7.N > 1 8 8 0 q q q q 0 8 0 0 0 8 0 o.l zXIXPXIXIXIXIXIXIXIXIXIXIX",
"IXIXIXIXIXIXIXIXIXIXIXIXIXIXIXIXIXIXIXIXIXDXNXPXPXPXIXIXIXIXIXPXIX1X1XxXaXm.m 8.s.s.s.s.s.s.a.s.a.s.j.s.i < 1 8 0 0 0 0 8 8 0 0 8 0 0 8 w 1 ;XJXIXIXIXIXIXIXIXIXIXIXIX",
"IXIXIXIXIXIXIXIXIXIXIXIXIXIXIXIXIXIXPXIXIXmXeXDXIXIXIXIXIXPXIXIXIXaX6XxXdX}.b i.E 5.y.d.a.s.a.s.s.a.s.s.I 4 1 7 0 q 0 0 0 8 8 8 7 8 8 0 0 0 &.sXIXPXIXIXIXIXIXIXIXIXIX",
"IXIXIXIXIXIXIXIXIXIXIXIXIXIXIXIXIXIXIXIXPXNXOX'.PXPXIXPXPXIXPXLXdX5XBXAX,XQ Y a.6.7.a.s.s.s.s.a.i.a.s.d.a.i < 7 7 7 7 1 7 7 7 7 7 1 7 8 0 q 9 ;XIXLXIXIXIXIXIXIXIXIXIX",
"IXIXIXIXIXIXIXIXIXIXIXIXIXIXIXIXIXIXIXPXIXKXeXZ.wXDXIXIXIXIXPXDX>XhXLXAX:XP 6.0.s.s.a.s.a.y.s.s.q.s.a.d.a.B < 7 7 1 1 7 1 1 1 < < < 7 7 0 0 8 *.fXIXLXIXIXIXIXIXIXIXIX",
"IXIXIXIXIXIXIXIXIXIXIXIXIXIXIXIXIXIXIXIXIXIXuXR.U.wXDXuXtXuXeX+XU.tXKXbX{.b 0.0.d.s.s.a.7.7.s.s.s.s.a.d.a.V < 1 7 7 7 1 1 < 2 i p 5 < < 7 0 0 r ;XIXLXIXIXIXIXIXIXIXIX",
"IXIXIXIXIXIXIXIXIXIXIXIXIXIXIXIXIXIXIXPXPXIXMX#XI.U.@X+XR.R.W.W.L.XXbXZX{.v p.0.s.s.s.f.7.7.s.s.a.a.f.s.s.V 1 7 7 1 < 2 4 B I 6.0.} ' g 1 7 w 7 *.ZXKXIXIXIXIXIXIXIXIX",
"IXIXIXIXIXIXIXIXIXIXIXIXIXIXIXIXIXIXIXIXIXIXDXuXK.P.C.P.P.A.(.).~.G.uXZXn.b 0.0.s.s.s.s.d.d.s.a.s.s.a.d.a.V 2 7 < 3 u C U q.j.h.7..XpX<.6 1 7 8 l 2XIXKXIXIXLXIXIXIXIX",
"IXIXPXIXIXIXIXIXIXIXIXIXIXIXIXIXIXPXIXKXJXKXNXtXC.H.K.Z.2.M.P.).(.I.wXBXn.v 9.0.s.s.s.a.s.s.a.a.s.h.a.d.s.N , y C I 7.l.k.s.a.s.4.}.KXPX-Xf 2 7 1 ;.ZXIXIXIXIXKXIXIXIX",
"IXPXIXIXIXIXIXIXIXIXIXIXIXIXIXIXIXIXIXxXfXxXrX+XK.H.K.N.~ Y @.!.^.T.@XjX}.v 0.i.s.q.r.a.s.a.s.r.~ ! r.j.j.I C R j.l.s.~ e.s.f.d.7. XAXJX3X} x 6 > O.2XIXKXIXIXIXIXIXIX",
"IXIXIXIXIXIXIXIXIXIXIXIXIXIXIXIXIXIXIXZXkX1X[.I.(.W.K.B.H 3.E 2.Z.T.R.7X:Xv 7.0.s.a.7.a.a.j.j.a.~ ! A A ! f.l.h.~ S S ~ e.a.a.s.7. XjX,XQ x.jX2Xx , *.IXIXIXIXIXIXIXIX",
"IXIXIXIXIXIXIXIXIXIXIXIXIXIXIXIXIXIXIXBX6X1X7XG././.K.B.2.0.q.Y R N.D.>Xm.b 9.8.s.s.a.s.a.~ ~ d.j.a.! A a a S A a A ~ s.j.j.a.s.0.z.b.z.7.c.MXGX2X` g sXJXPXIXIXIXIXIX",
"IXIXIXIXIXIXIXIXIXIXIXIXIXIXIXIXIXLXIXAX6X1XfXtXR.T.I.C.M.7.q.0.7.G ~ `.x.b 0.0.d.a.a.s.a.~ ~ S ! w.s.a.K a e t S a.j.f.~ ~ e.d.i.P Y 4.a.}.ZXIXPXpX<.-XAXIXKXIXIXIXIX",
"IXIXIXIXIXIXIXIXIXIXIXIXIXIXIXIXIXIXIXZXkX5X5XkX7XR.Y.L.N.5.0.y.s.5.Q Q W U 5.0.d.a.7.q.a.s.r.S A A S ~ a.w.! w.s.a.~ S S ! e.h.6.Y 4.a.i.,XJXIXIXIXZXgXFXIXIXIXIXIXIX",
"IXIXIXIXIXIXIXIXIXIXIXIXIXIXIXIXIXIXPXBXaX:Xb.m.,XXXU.Y.B.E q.7.y.d.q.5.U U 5.0.d.y.0.s.d.h.h.s.e.A e e A ! r.r.! a e a ~ s.a.d.i.R 9.r.E yXPXIXIXPXIXPXLXIXIXIXIXIXIX",
"IXIXIXIXIXIXIXIXIXIXIXIXIXIXIXIXIXLXIXxX}.P G U U z.`.D.B.H y.q.7.y.d.y.5.E E 7.d.7.7.d.k.k.k.k.j.j.e.A w 0 e w w a ! j.j.s.a.d.i.U 6.y.9.nXIXIXIXIXIXIXIXLXIXIXIXIXIX",
"IXIXIXIXIXIXIXIXIXIXPXIXPXIXIXIXIXPXIX}.T a.0.0.q.1.n.XXZ.@.r.s.5.y.s.u.7.E 5.e.s.7.7.q.s.s.d.h.k.h.s.s.! a 0 w A e.s.u.s.s.a.d.7.Y 7.u.n.nXIXIXIXIXIXIXIXIXIXIXIXIXIX",
"IXIXIXIXIXIXIXIXIXIXIXIXIXIXIXPXPXGX3X0.7.a.y.q.8.u.x.:X>XZ.R q.7.5.q.s.a.4.E 7.a.7.E 7.7.8.u.y.f.s.d.s.d.h.~ e.d.h.d.h.k.k.s.s.6.E 7.7.0XJXIXIXIXPXIXIXIXIXIXIXIXIXIX",
"IXIXIXIXIXIXIXIXPXIXIXIXIXIXPXLXJX:Xz.7.q.s.s.a.a.s.i.n.>X>Xb.9.d.7.5.9.8.7.5.6.0.7.w.^ 5.T 1.u.d.d.a.a.a.s.a.s.a.s.d.u.s.j.s.g.e.E 7.E nXJXIXLXIXIXIXIXIXIXIXIXIXIXIX",
"IXIXIXIXIXIXIXIXIXIXPXIXPXPXIXMX X6.q.a.d.s.s.y.a.a.7.9.b.*X&XQ r.d.a.7.7.0.6.E q.8.F.S.W >X>X^ F E 0.7.a.a.a.f.f.q.a.f.f.D S.F.f.U p. XIXIXIXIXIXIXIXPXIXIXIXIXIXIXIX",
"IXIXIXIXIXIXIXIXIXIXIXIXHXFXDX0Xp.4.d.d.s.a.a.s.a.7.T T R z.c.9.U 0.q.9.3.0.i.R 7.3.F.D.K gXvX*.j I 4.0.6.6.5.7.d.d.f.x.^ A S.[.p.b c.xXIXIXIXIXIXIXIXIXIXIXIXIXIXIXIX",
"IXIXIXIXIXIXIXIXPXLXmXmX0X,X,X{.h.d.a.s.s.a.8.7.5.9.Q E R T 4.a.Y V Y e.7.6.5.5.0.U S.R.S.;.=X%.L I T i.0.6.E E q.j.j.^ z =.oXG.U Q yXLXPXIXIXIXIXIXIXIXIXIXIXIXIXIXIX",
"IXIXIXIXIXIXPXIXPXNXoXR.N.H w.d.u.a.a.s.a.7.9.E Q >X,Xx.U 9.5.6.r.% H A.W.M.m 4.I p $.+X@Xi y A | 6.8.h.d.a.6.E E a.j.4.C OX#XG.x.6XIXPXIXIXIXIXIXIXIXIXIXIXIXIXIXIXIX",
"IXIXIXIXIXIXIXIXPXMXU.E.~.U.C.M.H t.d.r.5.Y Q }.0XZXLX:XY G 6.5.E i V.)./.K.U F a A H [.rX'.I G T r.h.k.d.a.a.q.5.7.d.h.g.OXOX`.0XLXLXIXIXIXIXIXIXIXIXIXIXIXIXIXIXIXIX",
"IXIXIXIXIXIXIXIXPXuXE.).(.!.T.L.J.M.u.Y P n.nXJXIXPXIXxX{.G 9.0.Y i C.^.!.I.@.u a ! F $.#XNX@Xt.3.5.y.h.a.i.q.a.a.a.a.d.h.].XXtXHXIXPXIXIXIXIXIXIXIXIXIXIXIXIXIXIXIXIX",
"IXIXIXIXIXIXPXIXNX[.K.P.L.L.L.I.Y.H B % | yXPXPXPXPXPXHX,XU E 0.q.N Z H.T.V.p u N C S H +XiXNXwX[.S.w.w.R Y E U b 3.9.s.d.g.>XAXIXIXIXIXIXIXIXIXIXIXIXIXIXIXIXIXIXIXIX",
"IXIXIXIXIXIXIXIXuXK.~.~.I.K.H.C.C.A g s ,.AXIXIXIXIXLXIXqXU U E s.9.V p M p f 5 P V C V F [.rXeXXX'.'..Xt.E t.`..XS.r.7.9.q.:XAXIXPXIXIXIXIXIXIXIXIXIXIXIXIXIXIXIXIXIX",
"IXIXIXIXIXIXIXIXiXU.(.(.!.Y.K.H.V.z l 5 %XLXIXKXIXIXIXLX3XY Y E a.a.R D $ s x g N U 5.} c.x.M.v.k.F.@X#X].6.r.XX#X'.e.M.A.5.c.nXIXPXIXIXIXIXIXIXIXIXIXIXIXIXIXIXIXIXIX",
"IXIXIXIXIXIXIXPXuXW.(.(.^.Y.Y.L.C.J i h -XIXIXIXIXIXIXxX{.U 3.9.s.r.s.s.W h x x g P 0.,XxX3Xc.G 3.u.].+XF.7.5.'.+Xg.u.W.~.`.,XMXPXIXIXIXIXZXCXJXIXIXIXIXLXIXIXIXIXIXIX",
"IXIXIXIXIXIXIXKXrXW.(.^.!.T.L.L.#.P P $XbXIXIXIXPXPXIX1Xn # P P R 6.6.6.W N s g s = n 1XIXIXCX Xx.5.w.t.i.7.q.f.w.R A.).~.wXPXPXJXIXIXIXLXlX5XkXJXIXIXIXIXIXIXIXIXPXIX",
"IXIXIXIXIXIXIXPXeXU.~.T.I.L.K.C.@.i | kXKXIXIXIXIXIXLX*X.   - & # n n P n n + + & . . $XIXIXPXJX0Xn.z.E Y 3.5.Y Y M.I.).~.tXAXPXPXIXIXIXKXZXaX5XlXPXIXIXIXIXPXIXIXIXPX",
"IXIXIXIXIXIXIXPXeXC.P.P.K.J.K.H.@.f %XAXIXIXPXIXLXIXHX$X. &  .$X; * * ;  . .) ; ; ; ; $XIXIXIXIXIXIXhXb.V ~ e.w.M.C.E.E.U.vXJXIXPXIXIXIXIXGXkXlXfXfXKXIXIXIXIXIXIXIXIX",
"IXIXIXIXIXIXIXPXiXU.).(.^.Y.Y.J.+.] dXIXIXIXIXIXIXIXIX*X.    .kXX.* * X.aXdXX./ ; ; ; *XIXIXIXIXPXIXFX4XS #.Z.P.Q.!.T.P.R.MXPXIXIXIXPXPXLXLX6XkXlXkXPXIXJXIXIXIXIXIXIX",
"IXIXIXIXIXIXIXIXmXA.~.~.I.A.C.N.H 1XAXPXKXIXIXIXIXLXLX1X*   ) HXlX) & ) $X,.[ ; ; . ) dXPXIXIXIXIXPXPXnXx.2.C.L.Y.(.(.W.[.KXKXJXIXPXPXKXKXIXaXcXCX*X*XIXKXIXIXIXIXIXIX",
"IXIXIXIXIXPXIXPXmXoXR.Z.M.t.t.r.6.{.3XJXIXPXKXKXLXJXIXBX .  ) AXHXX.* - K N.@.j *   X.JXPXIXIXPXIXPXIXnXx.1.t.N.N.E.~._.uXIXIXIXIXIXcX9XaX2X,.4X1Xk g 2XpXbXKXIXPXIXIX",
"IXIXIXIXIXIXIXIXGXmX0XQ G 9.q.s.s.y.f.0XFXIXIXIXIXIXHXIX5X* / LXLX}.* $ B.~.E.B.d _ dXIXPXIXPXIXIXIXLX0X3.3.3.q.u.w.M.G.8X9XsXgXgX5X..k ` f d _ k < , j ` 8XAXIXPXIXIX",
"IXIXIXIXIXIXIXIXIXIXaXQ 4.h.y.u.d.r.G Q >XkXlXbXCXcX-X-X<.= = 5X2Xk X 3 #.(.(.T.$.2XIXIXIXIXIXSXSXSXhXb.c N N P 7.3.T B L L ' ] &.z O O : O O O > 1 , y 3 <XGXPXIXIXIX",
"IXIXIXIXIXIXIXIXLXGX X6.4.s.y.y.u.N B 3 j ] -.<.-X..6 , 5 , , ( g 2 : o y #.!.H.^ 1XGXIXPXIXDX7XeXtX|.k X 3 3 i P 7.u.N 4 4 y y y y O < 1 2 : 1 7 , 5 y z gXLXIXIXIXIX",
"IXIXIXIXIXIXIXIXAX2X% T d.y.y.u.q.N y y y y y a a 3 : : > > O o 1 < 4 y 3 y +.M $ @ %XAXFXmX7XV.V.+.B c N c R I P 6.0.I z L L L L L g , , 2 < , 5 2 < f *XJXIXIXIXIXIX",
"IXIXIXIXPXIXIXIXJX9X% T k.y.r.a.q.V u y 6 p 4 : o o O : 1 < : 7 1 o u y 3 @ u @ 5 f ( *XsX`.Z.Y.H.@.F m U P 9.6.P U U }.zXzXzXzXjXbX2X( h j o k { s o -.zXIXPXIXIXIXIX",
"IXIXIXIXIXIXPXIXKXzXN 4.s.y.s.s.a.7.1.Q ,XbXzXzXtXsX] o o : > : : 2 2 o X   . @ g x d d L #.J.H.#.L n P E Y 9.i.7.T z.lXIXIXIXIXIXIXKXCXcXBX$X2XCX2X$XpXJXIXIXIXIXIXIX",
"IXIXIXIXIXIXIXIXLXJX%Xz.4.4.7.4.G 4.G n.xXIXIXIXIXIXpX-X%X[ , ,.{ , O +.@.$ + g g g f g A K.T.B.+.g $ n U U D G T G c.AXKXPXIXPXIXIXPXIXIXlXaXBXGXcX6XdXKXIXIXIXIXIXIX",
"IXIXIXIXIXIXIXIXIXIXZXyX.Xx.z.Q Q .X:XhXLXIXIXPXIXIXLXIXHX1X%XBXcX..p C.!.@.+ s g f g x x #.V.A g f + + W 9.Q W z..XyXPXLXIXIXIXGXfXaXBXzX5XBXAXCXAXCX6XfXKXIXIXIXIXIX",
"IXIXIXIXIXIXPXIXIXIXIXIXAXhX0X,X3XCXIXIXIXIXIXIXZXkXCXJXcXaXCXAXLXkX>.@.I.B.d d g x x x x z j f d @ @ h *X3X3X,XqXAXIXIXIXIXIXZXfX6X5X6X6XlXCXCXCXCXAXkX6XkXAXLXIXKXIX",
"IXIXIXIXIXIXIXIXIXIXPXPXPXIXIXIXIXIXPXPXPXIXLXZXaX5XaXfXaXaXCXCXCXCX1X] +.$.>.` g x x x z g d d 5 f ` *XAXLXIXIXIXPXLXIXIXLXIXfX6XCXLXlXkXCXCXCXCXCXBXAXCX4XdXLXIXIXIX",
"IXIXIXIXIXIXIXIXIXIXIXIXIXIXPXIXPXIXIXIXIXIXMX4XkXCXkX5XdXGXCXCXCXZXCX<XX.6XKX=X5 g z f s d f f _ *XZXIXIXLXIXPXPXIXIXIXIXIXIXxXkXcXBXAXJXCXCXCXCXCXAXLXAXaXlXLXIXIXIX",
"IXIXIXIXIXIXIXIXIXIXIXIXIXIXIXIXPXIXIXIXIXPXBX6XLXGXBXCXAXBXCXCXCXBXMXcXkXfXvX|.f 5 5 = d @ d ..5XCXLXIXLXIXIXIXIXIXIXIXIXLXIXHXcX5X5XAXIXIXPXIXPXLXIXBX5XdXHXIXIXIXIX",
"IXIXIXIXIXIXIXIXIXIXIXIXIXIXIXPXIXIXIXIXIXIXJXcX5XxXGXAXCXCXCXCXMXAXFXHXaXXXZ.|.J d = @ 5 ..1XAXIXIXIXIXIXIXIXIXLXIXIXIXIXIXIXIXLXCXdXdXkXlXfXfXdXaXkXaXzXJXIXIXKXIXIX",
"IXIXIXIXIXIXIXIXIXIXIXIXPXIXIXIXIXIXIXIXIXIXIXJX5X1XBXIXIXIXIXLXIXIXPXyX'.R.#.[.` X X _ $XjXCXIXIXLXIXIXIXIXIXIXIXIXIXIXIXIXIXIXIXLXAXcXkXkXdXfXfXdXcXAXJXIXIXIXIXIXIX",
"IXIXIXIXIXIXIXIXIXIXIXIXIXIXIXIXIXIXIXIXIXPXKXIXkX .[ *X5XkXlXaXyX2X&X=.@.#.D.tX<X[ ..9XAXIXIXIXPXIXIXIXIXIXIXIXIXIXIXIXIXIXLXIXIXIXIXLXGXGXAXGXAXGXKXIXIXIXIXIXIXIXIX",
"IXIXIXIXIXIXIXIXIXIXIXIXIXIXIXIXIXIXIXIXIXPXIXIXCX-X[ [ [ [ [ { [ ( j j z K >XKXCXdXVXIXIXIXPXIXIXIXIXIXIXIXIXIXIXIXIXIXIXIXIXIXIXIXIXIXIXIXIXIXIXIXIXIXIXIXIXIXIXIXIX",
"IXIXIXIXIXIXIXIXIXIXIXIXIXIXIXIXIXIXIXIXIXIXIXIXLXLXcX4X..k h d @ @ @ 5 5 ` zXJXLXIXIXPXPXIXIXIXIXIXIXIXIXIXIXIXIXIXIXIXIXIXIXIXIXIXIXLXIXIXIXKXPXIXIXIXIXIXIXIXIXIXIX",
"IXIXIXIXIXIXIXIXIXIXIXIXIXIXIXIXIXIXIXIXIXIXIXIXIXIXIXIXIXAX9X.._ j k 5 @ _ cXJXIXIXIXIXIXIXIXIXIXIXIXIXIXIXIXIXIXIXIXIXIXIXIXIXIXIXIXIXIXIXIXIXIXIXIXIXIXIXIXIXIXIXIX",
"IXIXIXIXIXIXIXIXIXIXIXIXIXIXIXIXIXIXIXIXIXIXIXIXIXIXIXPXPXKXKXAXCX*X[ + + ..LXIXKXLXIXIXIXIXIXIXIXIXIXIXIXIXIXIXIXIXIXIXIXIXIXIXIXIXIXIXIXIXIXIXIXIXIXIXIXIXIXIXIXIXIX",
"IXIXIXIXIXIXIXIXIXIXIXIXIXIXIXIXIXIXIXIXIXIXIXIXIXIXIXIXIXIXIXIXIXLXJXlX1XsXIXKXIXIXIXIXIXIXIXIXIXIXIXIXIXIXIXIXIXIXIXIXIXIXIXIXIXIXIXIXIXIXIXIXIXIXIXIXIXIXIXIXIXIXIX",
"IXIXIXIXIXIXIXIXIXIXIXIXIXIXIXIXIXIXIXIXIXIXPXIXIXIXIXIXIXIXIXIXLXIXIXPXAXGXIXIXIXIXIXIXIXIXIXIXIXIXIXIXIXIXIXIXIXIXIXIXIXIXIXIXIXIXIXIXIXIXIXIXIXIXIXIXIXIXIXIXIXIXIX",
"IXIXIXIXIXIXIXIXIXIXIXIXIXIXIXIXIXIXIXIXIXIXIXIXIXIXIXIXIXIXIXIXIXIXIXIXIXIXIXIXIXIXIXIXIXIXIXIXIXIXIXIXIXIXIXIXIXIXIXIXIXIXIXIXIXIXIXIXIXIXIXIXIXIXIXIXIXIXIXIXIXIXIX",
"IXIXIXIXIXIXIXIXIXIXIXIXIXIXIXIXIXIXIXIXIXIXIXIXIXIXIXIXIXIXIXIXIXIXIXIXIXIXIXIXIXIXIXIXIXIXIXIXIXIXIXIXIXIXIXIXIXIXIXIXIXIXIXIXIXIXIXIXIXIXIXIXIXIXIXIXIXIXIXIXIXIXIX",
"IXIXIXIXIXIXIXIXIXIXIXIXIXIXIXIXIXIXIXIXIXIXIXIXIXIXIXIXIXIXIXIXIXIXIXIXIXIXIXIXIXIXIXIXIXIXIXIXIXIXIXIXIXIXIXIXIXIXIXIXIXIXIXIXIXIXIXIXIXIXIXIXIXIXIXIXIXIXIXIXIXIXIX",
"IXIXIXIXIXIXIXIXIXIXIXIXIXIXIXIXIXIXIXIXIXIXIXIXIXIXIXIXIXIXIXIXIXIXIXIXIXIXIXIXIXIXIXIXIXKXIXIXIXIXIXIXIXIXIXIXIXIXIXIXIXIXIXIXIXIXIXIXIXIXIXIXIXIXIXIXIXIXIXIXIXIXIX",
"IXIXIXIXIXIXIXIXIXIXIXIXIXIXIXIXIXIXIXIXIXIXIXIXIXIXIXIXIXIXIXIXIXIXIXIXIXIXIXIXIXIXIXIXIXIXIXIXIXIXIXIXIXIXIXIXIXIXIXIXIXIXIXIXIXIXIXIXIXIXIXIXIXIXIXIXIXIXIXIXIXIXIX",
"IXIXIXIXIXIXIXIXIXIXIXIXIXIXIXIXIXIXIXIXIXIXIXIXIXIXIXIXIXIXIXIXIXIXIXIXIXIXIXIXIXIXIXIXIXIXIXIXIXIXIXIXIXIXIXIXIXIXIXIXIXIXIXIXIXIXIXIXIXIXIXIXIXIXIXIXIXIXIXIXIXIXIX",
"IXIXIXIXIXIXIXIXIXIXIXIXIXIXIXIXIXIXIXIXIXIXIXIXIXIXIXIXIXIXIXIXIXIXIXIXIXIXIXIXIXIXIXIXIXIXIXIXIXIXIXIXIXIXIXIXIXIXIXIXIXIXIXIXIXIXIXIXIXIXIXIXIXIXIXIXIXIXIXIXIXIXIX",
"IXIXIXIXIXIXIXIXIXIXIXIXIXIXIXIXIXIXIXIXIXIXIXIXIXIXIXIXIXIXIXIXIXIXIXIXIXIXIXIXIXIXIXIXIXIXIXIXIXIXIXIXIXIXIXIXIXIXIXIXIXIXIXIXIXIXIXIXIXIXIXIXIXIXIXIXIXIXIXIXIXIXIX",
"IXIXIXIXIXIXIXIXIXIXIXIXIXIXIXIXIXIXIXIXIXIXIXIXIXIXIXIXIXIXIXIXIXIXIXIXIXIXIXIXIXIXIXIXIXIXIXIXIXIXIXIXIXIXIXIXIXIXIXIXIXIXIXIXIXIXIXIXIXIXIXIXIXIXIXIXIXIXIXIXIXIXIX",
"IXIXIXIXIXIXIXIXIXIXIXIXIXIXIXIXIXIXIXIXIXIXIXIXIXIXIXIXIXIXIXIXIXIXIXIXIXIXIXIXIXIXIXIXIXIXIXIXIXIXIXIXIXIXIXIXIXIXIXIXIXIXIXIXIXIXIXIXIXIXIXIXIXIXIXIXIXIXIXIXIXIXIX",
"IXIXIXIXIXIXIXIXIXIXIXIXIXIXIXIXIXIXIXIXIXIXIXIXIXIXIXIXIXIXIXIXIXIXIXIXIXIXIXIXIXIXIXIXIXIXIXIXIXIXIXIXIXIXIXIXIXIXIXIXIXIXIXIXIXIXIXIXIXIXIXIXIXIXIXIXIXIXIXIXIXIXIX"
};
