/* XPM */
static char *result[] = {
/* columns rows colors chars-per-pixel */
"83 93 254 2 ",
"   c #120D0E",
".  c #1A181A",
"X  c #3B0403",
"o  c #2D110B",
"O  c #2A1A17",
"+  c #381716",
"@  c #30201F",
"#  c #373018",
"$  c #1F2121",
"%  c #262526",
"&  c #3B2223",
"*  c #2F3031",
"=  c #333332",
"-  c #393937",
";  c #450705",
":  c #4C0303",
">  c #540302",
",  c #5C0201",
"<  c #540A07",
"1  c #4A1506",
"2  c #561906",
"3  c #530F11",
"4  c #461918",
"5  c #571616",
"6  c #640201",
"7  c #6C0101",
"8  c #680A0B",
"9  c #730101",
"0  c #7B0202",
"q  c #740C09",
"w  c #711608",
"e  c #651818",
"r  c #7C1414",
"t  c #4C260B",
"y  c #572407",
"u  c #472617",
"i  c #562815",
"p  c #4A3814",
"a  c #543513",
"s  c #6A2F0C",
"d  c #6D3914",
"f  c #481E22",
"g  c #681F22",
"h  c #4A2727",
"j  c #522B2B",
"k  c #582928",
"l  c #52332B",
"z  c #553837",
"x  c #662627",
"c  c #6D2F2A",
"v  c #673535",
"b  c #7A3635",
"n  c #354E16",
"m  c #3D6B15",
"M  c #3B5523",
"N  c #4B4718",
"B  c #524719",
"V  c #4A531C",
"C  c #55581B",
"Z  c #6B4817",
"A  c #725012",
"S  c #456A1C",
"D  c #556D1B",
"F  c #4B761C",
"G  c #756C15",
"H  c #677C1D",
"J  c #4B512B",
"K  c #6F4E2D",
"L  c #4A6B26",
"P  c #566A25",
"I  c #4C7424",
"U  c #4E7A23",
"Y  c #4E782A",
"T  c #517B25",
"R  c #557629",
"E  c #537C2B",
"W  c #5A6239",
"Q  c #577935",
"!  c #6A6823",
"~  c #687927",
"^  c #726E30",
"/  c #637A3C",
"(  c #423F47",
")  c #564E4C",
"_  c #6A4846",
"`  c #704E4D",
"'  c #765555",
"]  c #5C7341",
"[  c #6A734A",
"{  c #696869",
"}  c #796866",
"|  c #6E6F70",
" . c #787978",
".. c #830202",
"X. c #880404",
"o. c #833B3B",
"O. c #8F6E0E",
"+. c #A77C0A",
"@. c #846436",
"#. c #834545",
"$. c #875A5B",
"%. c #8A6951",
"&. c #876665",
"*. c #9A696A",
"=. c #8C716E",
"-. c #957676",
";. c #52851B",
":. c #6C8119",
">. c #798419",
",. c #548224",
"<. c #56822B",
"1. c #59842C",
"2. c #588928",
"3. c #5C8C2D",
"4. c #5D922C",
"5. c #4C8230",
"6. c #568532",
"7. c #5D8C31",
"8. c #5E9231",
"9. c #65842B",
"0. c #688728",
"q. c #638D2D",
"w. c #62932E",
"e. c #67992D",
"r. c #76912E",
"t. c #628E32",
"y. c #698638",
"u. c #649532",
"i. c #659A33",
"p. c #699B34",
"a. c #6A9A38",
"s. c #6AA235",
"d. c #68A537",
"f. c #71A938",
"g. c #67B238",
"h. c #688846",
"j. c #708E4B",
"k. c #738A58",
"l. c #759457",
"z. c #7FA94D",
"x. c #778B68",
"c. c #7B9264",
"v. c #948B0E",
"b. c #84891A",
"n. c #AA8A06",
"m. c #B28B03",
"M. c #B89505",
"N. c #B09610",
"B. c #BDA606",
"V. c #B2AC12",
"C. c #918B33",
"Z. c #AC9836",
"A. c #95A63B",
"S. c #B6A332",
"D. c #C89C02",
"F. c #C29B16",
"G. c #CAA604",
"H. c #D5AA02",
"J. c #D9B505",
"K. c #CCB212",
"L. c #E8B702",
"P. c #E1B40A",
"I. c #C9B02D",
"U. c #C7B336",
"Y. c #D9C605",
"T. c #D4C711",
"R. c #E5C707",
"E. c #F6C902",
"W. c #EBD804",
"Q. c #F9D803",
"!. c #EAE001",
"~. c #F6E805",
"^. c #FBF406",
"/. c #D7C838",
"(. c #90914A",
"). c #AD934F",
"_. c #AFAA4F",
"`. c #A1A65E",
"'. c #82996A",
"]. c #918A79",
"[. c #889978",
"{. c #90A875",
"}. c #B1AB6D",
"|. c #CFB451",
" X c #C8B76C",
".X c #D3C552",
"XX c #D0C471",
"oX c #EED37B",
"OX c #A77F81",
"+X c #7F8081",
"@X c #8F8788",
"#X c #998887",
"$X c #9B9897",
"%X c #A78282",
"&X c #A99696",
"*X c #B29B9A",
"=X c #99A988",
"-X c #9CAB91",
";X c #AFAE8F",
":X c #A8A69A",
">X c #A6B699",
",X c #AAA8A6",
"<X c #B6A8A6",
"1X c #AEB5A8",
"2X c #B1BBA7",
"3X c #B4B4B4",
"4X c #BBB6B4",
"5X c #BBBBBA",
"6X c #C7BD88",
"7X c #C1ACAB",
"8X c #C4B8B7",
"9X c #A0C192",
"0X c #BBC5AD",
"qX c #BDC6B5",
"wX c #D7CD91",
"eX c #D6CA97",
"rX c #ECD690",
"tX c #79B229",
"yX c #79B229",
"uX c #79B229",
"iX c #79B229",
"pX c #79B229",
"aX c #79B229",
"sX c #79B229",
"dX c #79B229",
"fX c #79B229",
"gX c #79B229",
"hX c #79B229",
"jX c #79B229",
"kX c #79B229",
"lX c #79B229",
"zX c #79B229",
"xX c #79B229",
"cX c #79B229",
"vX c #79B229",
"bX c #79B229",
"nX c #79B229",
"mX c #79B229",
"MX c #79B229",
"NX c #79B229",
"BX c #79B229",
"VX c #79B229",
"CX c #79B229",
"ZX c #79B229",
"AX c #79B229",
"SX c #79B229",
"DX c #79B229",
"FX c #79B229",
"GX c #79B229",
"HX c #79B229",
"JX c #79B229",
"KX c #79B229",
"LX c #79B229",
"PX c #79B229",
/* pixels */
"PXPXPXPXPXPXPXPXPXPXPXPXPXPXPXPXPXPXPXPXPXPXPXPXPXPXPXPXPXPXPXPXPXPXPXPXPXPXPXPXPXPXPXPXPXPXPXPXPXPXPXPXPXPXPXLXLXHXPXPXPXPXPXPXPXPXPXPXPXPXPXPXPXPXPXPXPXPXPXPXPXPXPX",
"PXPXPXPXPXPXPXPXPXPXPXPXPXPXPXPXPXPXPXPXPXPXPXPXPXPXPXPXPXPXPXPXPXPXPXPXPXPXPXPXPXPXPXPXPXPXPXPXPXPXPXPXPXPXPXPXPXLXLXPXPXPXPXPXPXPXPXPXPXPXPXPXPXPXPXPXPXPXPXPXPXPXPX",
"PXPXPXPXPXPXPXPXPXPXPXPXPXPXPXPXPXPXPXPXPXPXPXPXPXPXPXPXPXPXPXPXPXPXPXPXPXPXPXPXPXPXPXPXPXPXPXPXPXPXPXPXPXPXPXPXPXPXHXHXPXPXPXPXPXPXPXKXPXPXPXPXPXPXPXPXPXPXPXPXPXPXPX",
"PXPXPXPXPXPXPXPXPXPXPXPXPXPXPXPXPXPXPXPXPXPXPXPXPXPXPXPXPXPXPXPXPXPXPXPXPXPXPXPXPXPXPXPXPXPXPXPXPXPXPXPXPXPXPXPXPXPXPXHXHXPXPXPXPXPXPXPXPXPXPXPXPXPXPXPXPXPXPXPXPXPXPX",
"PXPXPXPXPXPXPXPXPXPXPXPXPXPXPXPXPXPXPXPXPXPXPXPXPXPXPXPXPXPXPXPXPXPXPXPXPXPXPXPXPXPXPXPXPXPXPXPXPXPXPXPXPXPXPXFXLXPXPXPXHXHXPXPXPXPXPXPXPXPXPXPXPXPXPXPXPXPXPXPXPXPXPX",
"PXPXPXPXPXPXPXPXPXPXPXPXPXPXPXPXPXPXPXPXPXPXPXPXPXPXPXPXPXPXPXPXPXPXPXPXPXPXPXPXPXPXPXPXPXPXPXPXPXPXPXPXPXGXxXhXHXPXPXPXPXHXLXPXPXPXPXPXPXPXPXPXPXPXPXPXPXPXPXPXPXPXPX",
"PXPXPXPXPXPXPXPXPXPXPXPXPXPXPXPXPXPXPXPXPXPXPXPXPXPXPXPXPXPXPXPXPXPXPXPXPXPXPXPXPXPXPXKXPXPXPXPXPXPXPXPXPXxX&.8XHXPXPXKXPXPXHXLXPXPXPXPXPXPXPXPXPXPXPXPXPXPXPXPXPXPXPX",
"PXPXPXPXPXPXPXPXPXPXPXPXPXPXPXPXPXPXPXPXPXPXPXPXPXPXPXPXPXPXPXPXPXPXPXPXPXPXPXPXPXPXPXPXPXPXPXPXPXPXKXKXxX' 5 vXLXPXKXPXPXPXPXLXHXPXPXPXPXPXPXPXPXPXPXPXPXPXPXPXPXPXPX",
"PXPXPXPXPXPXPXPXPXPXPXPXPXPXPXPXPXPXPXPXPXPXPXPXPXPXPXPXPXPXPXPXPXPXPXPXPXPXPXPXPXPXPXPXPXPXPXJXPXLXKXHX*X3 5 AXPXPXPXPXPXPXPXKXJXJXPXPXPXPXPXPXPXPXPXPXPXPXPXPXPXPXPX",
"PXPXPXPXPXPXPXPXPXPXPXPXPXPXPXPXPXPXPXPXPXPXPXPXPXPXPXPXPXPXPXPXPXPXPXPXPXPXPXPXPXPXPXLXPXPXPXPXKXPXHX*Xx , g HXPXKXPXPXPXPXPXPXPXLXJXPXPXLXPXPXPXPXPXPXPXPXPXPXPXPXPX",
"PXPXPXPXPXPXPXPXPXPXPXPXPXPXPXPXPXPXPXPXPXPXPXPXPXPXPXPXPXPXPXPXPXPXPXPXPXPXPXPXPXPXKXSXGXPXPXPXKXPX8X#.6 8 c GXPXKXPXPXPXPXPXPXPXLXLXJXPXPXPXPXPXPXPXPXPXPXPXPXPXPXPX",
"PXPXPXPXPXPXPXPXPXPXPXPXPXPXPXPXPXPXPXPXPXPXPXPXPXPXPXPXPXPXPXPXPXPXPXPXPXLXPXPXPXPXHX8XgXPXLXJXLXvX$.8 7 8 _ HXPXPXPXPXKXPXPXPXPXPXPXLXLXPXPXPXPXPXPXPXPXPXPXPXPXPXPX",
"PXPXPXPXPXPXPXPXPXPXPXPXPXPXPXPXPXPXPXPXPXPXPXPXPXPXPXPXPXPXPXPXPXPXPXPXPXPXPXPXPXKXAX-.OXLXJXPXnX*.8 0 7 5 $.HXPXPXPXPXPXPXPXPXPXPXPXLXLXLXPXPXPXPXPXPXPXPXPXPXPXPXPX",
"PXPXPXPXPXPXPXPXPXPXPXPXPXPXPXPXPXPXPXPXPXPXPXPXPXPXPXPXPXPXPXPXPXPXPXPXPXPXPXPXPXKXSX&.' AXPXFX&Xc 7 0 6 e =.JXPXKXPXPXPXPXPXPXPXPXPXPXPXJXLXPXPXPXPXPXPXPXPXPXPXPXPX",
"PXPXPXPXPXPXPXPXPXPXPXPXPXPXPXPXPXPXPXPXPXPXPXPXPXPXPXPXPXPXPXPXPXPXPXKXPXPXPXPXPXLXJX&.4 &XHX4Xe 9 0 7 6 x #XLXLXHXJXJXJXLXJXKXJXJXJXPXJXJXHXHXKXLXKXPXPXPXPXPXPXPXPX",
"PXPXPXPXPXPXPXPXPXPXPXPXPXPXPXPXPXPXPXPXPXPXPXPXPXPXPXPXPXPXPXPXPXPXPXPXPXPXPXPXPXLXJX&.; *.GXOX8 9 0 7 , x &XPXZXvXCXGXLXKXJXLXPXJXJXJXJXPXPXLXPXPXPXPXPXPXPXPXPXPXPX",
"PXPXPXPXPXPXPXPXPXPXPXPXPXPXPXPXPXPXPXPXPXPXPXPXPXPXPXPXPXPXPXPXPXPXPXPXPXPXPXPXPXJXJX-.: b <X*.8 7 9 7 , c 4XgX$.b o.o.o.#.#.#.#.$.$.&.*.-.-.%X#X#XdXLXPXPXPXPXPXPXPX",
"PXPXPXPXPXPXPXPXPXPXPXPXPXPXPXPXPXPXPXPXPXPXPXPXPXPXPXPXPXPXPXPXPXPXPXPXPXPXJXPXPXLXHX-.: e $.$.8 7 9 6 > v aX$.8 0 9 9 7 7 6 6 6 6 7 8 8 e e 5 v OXxXLXPXPXKXPXPXPXPX",
"PXPXPXPXPXPXPXPXPXPXPXPXPXPXPXPXPXPXPXPXPXPXPXPXPXPXPXPXPXPXPXPXPXPXPXKXPXPXPXPXPXLXJX*.> 8 5 e 7 9 9 7 > x #X8 X.X.0 0 0 0 0 0 0 q 9 7 6 , 8 ` OXgXLXLXPXPXKXPXPXPXPX",
"PXPXPXPXPXPXPXPXPXPXPXPXPXPXPXPXPXPXPXPXPXPXPXPXPXPXPXPXPXPXPXPXPXPXPXLXPXPXPXPXPXJXJX-.> 9 , > 7 9 9 7 , : x X.0 9 9 9 7 7 7 6 6 6 > > 3 _ -.CXLXPXLXLXKXPXPXPXPXPXPX",
"PXPXPXPXPXPXPXPXPXPXPXPXPXPXPXPXPXPXPXPXPXPXPXPXPXPXPXPXPXPXPXPXPXPXPXPXPXPXPXPXPXJXHX=.> 9 7 8 9 9 9 6 , : 7 0 9 9 9 9 7 6 , , , > : g $.sXAXJXLXLXPXLXHXKXPXPXPXPXPX",
"PXPXPXPXPXPXPXPXPXPXPXPXPXPXPXPXPXPXPXPXPXPXPXPXPXPXPXPXPXPXPXPXPXPXPXPXPXPXPXPXPXJX<Xv < 7 9 9 7 0 7 6 , 6 0 9 9 9 9 7 , , 6 , ; g &.sXJXPXPXPXPXPXPXPXKXLXKXPXPXPXPX",
"PXPXPXPXPXPXPXPXPXPXPXPXPXPXPXPXPXPXPXPXPXPXPXPXPXPXPXPXPXPXPXPXPXPXPXPXPXPXPXPXPXGX-.3 , 9 9 9 9 9 7 7 7 7 9 9 9 9 9 6 6 6 > e *.8XAXLXLXJXPXPXPXPXPXPXPXLXLXPXPXPXPX",
"PXPXPXPXPXPXPXPXPXPXPXPXPXPXPXPXPXPXPXPXPXPXPXPXPXPXPXPXPXPXLXPXPXPXPXPXPXPXHXHXJXHX-.6 6 7 7 0 9 q 9 7 9 9 9 9 9 9 9 6 > : h ' &X7X%X%X7XJXKXKXPXPXPXKXPXPXLXLXKXPXPX",
"PXPXPXPXPXPXPXPXPXPXPXPXPXPXPXPXPXPXPXPXPXPXPXPXPXPXPXPXPXPXPXPXKXPXPXPXPXHXBXVXZX5X' y y e < > , 6 9 9 9 9 9 9 9 9 7 6 > : x o.o.b g e $.PXPXPXPXPXKXPXPXPXPXLXHXPXPX",
"PXPXPXPXPXPXPXPXPXPXPXPXPXPXPXPXPXPXPXPXPXPXPXPXPXPXPXPXPXPXPXPXPXLXHXPXPXVXtX3X=Xh.E P P P C V a t , 6 7 9 9 9 9 9 0 9 7 0 X...9 9 0 9 r zXHXPXKXPXPXPXPXPXPXPXHXLXPX",
"PXPXPXPXPXPXPXPXPXPXPXPXPXPXPXPXPXPXPXPXPXPXPXPXPXPXPXPXPXPXPXPXLXGXvXVXGXzX$Xk.E ;.w.s.s.i.i.8.3.P p 1 , 7 9 9 9 0 ..X...X...0 0 ....X.r -.ZXPXKXPXLXPXPXPXPXLXPXHXHX",
"PXPXPXPXPXPXPXPXPXPXPXPXPXPXPXPXPXPXPXPXKXPXPXPXPXLXPXPXPXPXPXKXAXCXdX5XlXsX[.Y u.s.p.u.e.u.i.i.p.i.1.B : 6 6 9 9 0 0 0 0 9 9 9 9 9 7 9 9 #.hXPXKXPXPXPXPXPXPXPXPXPXHX",
"PXPXPXPXPXPXPXPXPXPXPXPXPXPXPXPXPXPXPXPXKXDXSXLXPXPXPXKXPXPXPXPXCXsX3XsXsX[.L <.u.u.u.i.u.p.u.i.i.i.s.7.B > , 7 9 9 9 7 7 9 9 7 7 9 9 9 9 r *.AXPXPXPXPXPXPXPXPXPXPXKX",
"PXPXPXPXPXPXPXPXPXPXPXPXPXPXPXPXPXPXPXPXKXMXeXNXPXKXPXPXKXPXPXPXCXzX5XzXfXk.I 7.T 2.u.i.i.i.u.p.i.i.i.i.R ; 6 6 7 9 9 9 9 9 7 7 7 6 7 9 9 r b nXPXKXPXPXPXPXPXPXPXPXPX",
"PXPXPXPXPXPXPXPXPXPXPXPXPXPXPXPXPXPXPXKXPXNX X|.ZXPXKXPXPXKXKXKXlX3XzXLX2XY I 8.1.q.u.p.i.i.i.u.3.u.u.s.q.p , , 6 7 6 , , 6 6 6 , 6 6 7 9 q q &XCXPXLXPXPXPXPXPXPXPXPX",
"PXPXPXPXPXPXPXPXPXPXPXPXPXPXPXPXPXPXPXPXKXFXwXS.XXHXPXPXPXPXKXNXeXtXGXZX=XY Y u.u.u.i.i.u.u.i.i.w.u.u.i.4.B < 6 6 , 6 , 6 , , , > > > 7 7 0 8 $.xXPXKXPXPXPXPXPXPXPXPX",
"PXPXPXPXPXPXPXPXPXPXPXPXPXPXPXPXKXPXPXPXKXPXiXI.V.wXZXiXuXiXwX.X|.6XFXzX'.I E u.p.i.i.u.1.3.p.i.i.i.u.i.u.C < , , 6 , , , > 1 a p i : > 6 9 7 g *XFXKXPXPXLXPXPXPXPXPX",
"PXPXPXPXPXPXPXPXPXPXPXPXPXPXPXPXPXPXPXPXKXKXNX|.R.T.XX.XS.U.T.Y.G._.BXlXc.I 1.t.u.i.i.u.3.3.p.i.i.u.u.i.a.C < , , , , 1 t B P 9.,.[ $.5 , 6 q 8 $.nXPXJXPXPXPXPXPXPXPX",
"PXPXPXPXPXPXPXPXPXPXPXPXPXPXPXPXPXPXPXPXPXPXZXwX/.G.n.Y.K.B.~.^.T.U.bXlXc.U E t.u.p.i.i.i.p.u.i.p.i.i.i.u.C > , > 1 i B P t.d.s.;.>XhX&.x , 7 6 b 7XPXJXPXPXPXPXPXPXPX",
"PXPXPXPXPXPXPXPXPXPXPXPXPXPXPXPXKXPXPXKXFXKXCXwXK.m.M.V.v.b.J.~.~.J.eXsX'.I E w.u.i.i.u.u.i.i.u.i.i.u.p.u.V 1 i B R 8.d.d.a.u.a.F =XPXGX,X4 3 8 6 &.CXLXPXLXPXPXPXPXPX",
"PXPXPXPXPXPXPXPXPXPXPXPXPXPXPXPXPXPXKXvXlXcXuX/.G.m.G.N.H L v.R.Q.P. XdX[.F E u.i.w.3.u.i.i.u.9.~ ! t.g.i.P C R d.g.u.~ t.u.i.p.F =XKXGXtXW _ 3 : ` gXLXPXPXPXPXPXPXPX",
"PXPXPXPXPXPXPXPXPXPXPXPXPXPXPXPXPXPXPXFXlX:XS.R.Q.T.H.v.H 5.T H N.P..X;Xx.U 1.t.p.u.q.8.i.i.i.u.~ ! Z Z ! i.g.s.~ Z ! ~ q.e.a.p.;.-XCX=XQ l.kX*Xc 3 *.CXPXPXPXPXPXPXPX",
"PXPXPXPXPXPXPXPXPXPXPXPXPXPXPXPXPXPXKXZX5X,X}.K.!.!.G.m.H 1.4.Q ~ v.S.).k.E 1.t.i.u.u.p.i.9.~ u.g.i.! Z s d Z d d Z ! u.d.s.u.a.T k.'.y.F '.ZXZX7Xv z 8XPXPXPXPXPXPXPX",
"PXPXPXPXPXPXPXPXPXPXPXPXPXPXPXPXLXPXPXGX5X5XzXeX/.E.J.M.>.1.u.7.6.I H j.[ E E t.u.u.u.u.t.9.! ! ! ~ i.u.! s q d ! t.d.i.~ ~ 9.p.1.L E 2.T {.ZXPXPXdXOX&XSXKXPXPXPXPXPX",
"PXPXPXPXPXPXPXPXPXPXPXPXPXPXPXPXPXPXKXGXsX,X,XqX;XK.L.D.+.9.8.t.u.7.T R Q Q E u.u.u.q.t.i.i.9.! Z d ! ~ q.~ ! 9.u.q.! ! A ! y.p.<.T 6.u.t.-XAXKXJXPXZXsXGXKXPXPXPXPXPX",
"PXPXPXPXPXPXPXPXPXPXPXPXPXPXPXKXPXPXHXvX,Xx.] k.[.(.K.H.v.0.8.3.8.p.7.E Y R E 7.i.u.7.u.d.d.s.p.~ Z w w Z ~ 9.0.! d s d ~ u.i.p.1.E u.3.j.2XGXPXKXPXJXLXPXPXPXPXPXPXPX",
"PXPXPXPXPXPXPXPXPXPXPXPXPXPXPXPXKXPXGXqX6.I 6.2.,.Q (.N.m.H 3.w.1.u.i.4.<.T E 8.i.8.7.p.f.f.f.f.f.s.~ Z q 0 w w q s ! u.d.i.u.p.<.T 1.w.j.vXHXPXPXPXPXPXPXPXPXPXPXPXPX",
"PXPXPXPXPXPXPXPXPXKXPXPXPXPXPXPXPXPXjXl.6.i.1.3.8.2.k.).F.v.U p.1.7.p.u.3.E E 3.i.3.3.w.i.i.s.d.f.s.p.u.~ s q w Z 9.p.u.i.p.u.i.<.Y 2.8.l.KXKXPXPXPXPXPXPXPXPXPXPXPXPX",
"PXPXPXPXPXPXPXPXPXKXKXPXKXKXKXFXtX=Xh.1.3.u.u.8.u.p.3.>X XC.H i.w.1.q.i.u.<.<.3.u.1.E 1.q.u.u.u.u.p.p.i.p.u.~ ~ i.s.s.d.f.f.u.p.<.T 3.a.[.PXPXPXKXPXPXPXPXPXPXPXPXPXPX",
"PXPXPXPXPXPXPXPXPXPXPXPXPXPXKXkXh.u.u.u.p.u.i.u.u.p.2.[.<X;Xk.6.e.3.E 3.7.1.E 1.u.7.9.1.Y T U 4.p.p.u.w.u.i.p.i.u.u.s.e.i.d.8.r.9.1.2.l.tXPXPXLXPXPXPXPXPXPXPXPXPXPXPX",
"PXPXPXPXPXPXPXPXFXMXuXiX2XqXtX{.F 4.i.p.i.i.w.w.p.u.9.6.x.$X[.] 4.p.w.q.3.3.3.<.3.p.A.0.^ `.9Xy.S 1.7.3.u.u.8.p.i.3.y.a.t.T r.A.0.1.7.=XHXPXPXPXPXPXPXPXPXPXPXPXPXPXPX",
"PXPXPXPXPXPXKXPXDXwXU._.C.j.l.j.s.i.i.i.u.i.a.p.u.,.Y Y T h.l.h.I 3.u.5.<.8.7.E <.i.A.Z.%.<XBX=.a C 1.7.3.<.<.4.s.w.t.j.[ B Z._.9.S c.cXKXPXPXPXPXPXPXPXPXPXPXPXPXPXPX",
"PXPXPXPXPXPXKXPXNX.XT.Y.B.v.G e.i.u.u.i.8.1.T ,.,.h.h.Y T ,.2.q.I L I 2.3.<.1.5.E E C.|.Z.%.OX&.K V E u.7.E <.E t.f.e./ _ o.|.|.U ] 0XPXLXPXPXPXPXPXPXPXPXPXPXPXPXPXPX",
"PXPXPXPXPXPXPXAXeXT.^.^.Q.L.G.n.b.e.u.3.E E Y 6.l.jXsXh.T E E 7.E # A T.T.>.T ,.P s ! .X|.Z 1 Z / R t.s.p.t.3.E R e.f.2.! ).oXC.c.sXLXPXPXPXPXPXPXPXPXPXPXPXPXPXPXPXPX",
"PXPXPXPXPXPXPXiX|.G.T.R.J.L.H.D.v.r.i.F L '.2XtXkXHXHX[.E E E <.L B D.!.!.B.H C s d ! }.rX}.D L ,.1.p.f.p.i.u.q.1.1.s.s.e.6XoX(.qXLXLXPXPXPXPXPXKXPXPXPXPXPXPXPXPXPXPX",
"PXPXPXPXKXPXHXrXT.!.Y.H.M.m.G.G.G p J ) qXKXPXPXPXPXPXBX'.S 3.3.P N M.W.Q.H.O.a s D Z C.rXpX.Xr.2.E t.p.w.u.4.u.u.u.a.i.f.`.(.yXKXPXPXPXPXPXPXLXPXPXPXPXPXPXPXPXPXPXPX",
"PXPXPXPXKXPXDXXXY.^.Q.L.H.D.D.n.K k j } vXPXKXKXPXKXPXKX=XI ,.3.3.V A D.J.+.A # N P Z ! XXrXNXrX_.C.q.0.~ Y R S m U 7.i.s.e.(.bXPXLXPXPXPXPXHXLXPXPXPXPXPXPXPXPXPXPXPX",
"PXPXPXPXKXPXNX.XW.^.Q.E.L.L.H.O.j x v ,XHXPXKXPXPXPXPXKX2XQ Y <.i.3.B a d a 4 u V L B V ,._.rXwX}.A.`.`.C.U E _.{.(.0.5.1.4.{.MXPXPXPXPXPXPXGXsXaXZXPXPXPXPXPXPXPXPXPX",
"PXPXPXPXKXPXiX.XW.~.E.E.L.L.D.O.J & ` fXPXKXPXPXPXPXPXLX-XY Y E i.8.E J h h k l l R F h.x.y.>.z.z.A.XXXXA.,.1. XrX_.:.b.V.e.'.bXPXPXPXPXKXPXGXsX5XfXAXPXPXLXPXKXPXPXPX",
"PXPXPXKXPXPXuXI.J.R.L.H.G.G.n.G L W ,XZXPXPXPXPXKXPXPXCXc.F 6.2.e.p.w.w.P j v v j P R >XvX>Xh.,.4.4._..XA.5.6.A. Xr.:.K.~.T.A.kXPXKXPXPXPXLXLXzXfXsXlXAXPXPXPXPXPXPXPX",
"PXKXPXKXKXPXuX/.K.J.G.D.M.M.O.a ) tXPXPXPXPXPXPXPXKXKX$XM n M S ,.1.5.6.I l h h j @ # 1XPXLXcX=Xh.Y 0.r.w.8.8.q.r.0.v.J.W.!.|.MXPXPXKXPXPXLXPXcXzXzXhXaXFXPXPXPXPXPXPX",
"PXPXPXPXPXKXiX/.^.^.Q.E.L.L.+.i  .AXPXKXPXPXPXPXPXPXLX| .     $ # n M M M n @ O . .   $XPXLXLXGX2X'.7.U F F <.E Y >.M.H.K.K. XNXPXPXPXPXPXPXPXCXfXCXnX$XtXSXPXPXKXPXPX",
"PXPXPXPXKXPXeXI.Y.W.J.G.G.M.G =.GXKXPXPXPXPXPXKXPXLXLX| ( ( $ * * % % ( { | ) * - * % $XPXLXPXPXPXPXmX>X[.j.R H b.H.E.~.~.T.wXDXPXKXKXKXHXAXAX5X$XqX,Xf + -.<XhXJXPXPX",
"PXPXPXPXPXKXuX XS.b.>.>.>.>.[ <XPXKXPXPXKXPXPXPXPXKXLX . .| % $ - = - { ,X3X+X= = * $ $XPXHXPXPXPXLXFXAXBX0X~ >.N.H.L.Q.^.T.pXDXPXPXPXKXhX&X&X` j ) _ 8 > 4 h *XKXPXKX",
"PXPXPXKXPXKXHXbX=Xm 6.3.i.8.7.l.0XKXKXKXPXPXPXKXPXKXPX3XqXsX{ . % % - { ,X1X .* - * - 3XPXLXPXPXPXKXPXPXPXvXk.4.r.r.b.N.B.V.yXVXxXgXgX#Xz + + : X X > > + y 1 *XPXKXPX",
"PXPXPXPXPXKXPXxX'.F i.i.u.a.i.4.{.kXPXKXKXLXLXPXPXHXPXzXlXVX$X= $ . = x.5X3X+X= $ .  .CXPXKXPXPXPXPXKXKXPXyXj.4.2.4.i.e.:.G *.-.-.%.%.v ; ; : 6 ; : 6 : 4 1 k 8XPXPXPX",
"KXPXPXPXPXPXhX].Q 3.p.w.u.u.3.U R '.nXJXPXPXPXPXHXPXLXzXzXGXsX) % $ $ ( +X+X) % * { dXPXPXPXPXPXPXPXPXPXSX-XL N N V R 5.Y P y 1 1 1 1 1 1 ; : ; ; : < X : o #XCXPXPXPX",
"PXPXPXPXPXKX<XW S s.u.u.w.u.D t y t -.*X8XhXhX4X&X8XsX$XaXHX1X) * = O O $ % $ * @XCXKXPXPXPXPXPXKXPXPXHXdX[ # o 1 n V R w.5.a v v K ` %.$.j f j f h ` ' g z CXPXPXPXPX",
"PXPXPXPXLXPX,XW F a.8.8.i.8.C y 2 y y a v ' ' k 4 k l h @X3X' + % % Z O.O.+ $ | VXLXLXPXPXPXPXPXPXKXPXnX#Xp # # C Y L I 7.R ].7XgXhXxXVXvX<X#X<X=.{ 5XzX@X#XCXPXPXPXPX",
"PXPXPXPXKXPX8XW U s.8.i.i.6.D p t i i 2 e y y X X > X ; X 4 > : o + m.Q.^.n.K VXLXLXPXPXPXPXPXPXPXPXPXZX=Xn S R Y 7.1.L L c.GXPXPXPXPXPXPXPXPXLXzXfXZXKXZX5XcXHXKXPXPX",
"PXPXPXPXKXPXZX>Xy.;.w.e.e.3.w.F / 8X7X].K i X X X 6 ; X < 8 > ; 2 1 +.E.^.B.! AXHXPXPXPXPXPXPXPXPXKXPXKX0Xn L R L 1.8.3.6.'.AXKXPXKXKXPXLXZXPXvX5XlXAXVXCXvX5XaXAXPXPX",
"PXPXPXPXPXPXPXJXkXc.R U T Y U 6.-XJXJXJXCXnX<Xj o , ; > > : X i 2 X O.D.E.n.K HXHXPXPXKXKXJXPXJXPXPXKXPXmXk.L I E T Y I Q >XPXPXPXPXPXCX5X3X3X5XlXCXZXCXZXZXvXlX5XfXLX",
"PXPXPXPXPXPXPXPXKXcXqX>X'.>X0XtXBXKXPXPXPXPXHX,X=.` X X X : > 1 ; + t A O.Z l gXHXPXPXPXPXPXPXPXPXPXPXPXFXtX=XE S L Q c.qXBXPXPXPXPXCXaXfXxXfXfXVXZXVXCXCXCXGXVX5XfXPX",
"PXPXPXPXPXPXPXPXPXPXPXHXBXFXPXPXPXPXPXPXPXKXKXHXGXsX' =.$X_ X X O f + O o + & } cXPXPXFXiX6XiXNXKXPXPXPXPXPXGX0X2X2XtXmXPXPXPXPXLXPXzX3XGXGXCXZXZXZXZXAXGXGXLXzXsXCXPX",
"PXPXPXPXPXPXPXPXPXPXPXPXPXPXKXPXPXPXPXLXvXlXcXHXLXvX5XCXLX,Xh + O + O . + k f k @XdXyX XI.N._.uXPXKXKXPXPXPXPXPXPXPXPXPXPXKXPXPXPXPXZXsXlXvXCXGXHXSXAXAXGXHXcXdXVXPXKX",
"PXPXPXPXPXPXPXPXPXPXPXPXPXPXPXPXPXPXAXzXsX3X3XlXlX3XvXCXCXzX@Xh + o   + j c v j z &.O.N.D.D.).pXPXPXPXPXPXPXPXKXLXKXKXPXPXPXPXPXPXPXPXVX5X5XfXZXGXGXCXvXlXzXsXvXLXPXPX",
"PXKXPXPXPXPXPXPXPXPXPXPXPXPXPXPXPXPXcX,XVXLXzX3X5XZXZXCXCXAX3X' f & l h h j h h k A D.H.N.+.).kXPXPXKXPXPXPXPXPXPXPXPXPXPXPXPXPXPXPXLXPXKXzXsXfXlXfXfXsXaXfXLXPXPXPXPX",
"PXPXPXPXPXPXPXPXPXPXPXPXPXPXPXPXPXPXCXfXCXZXvXCXAXCXCXCXCXAXlX@Xd O.Z & u j k v v +.P.G.O.Z _ ,XKXPXPXPXPXPXPXPXPXPXPXPXPXPXPXPXPXPXPXPXPXKXPXAXVXVXCXGXLXKXPXPXPXPXPX",
"PXPXPXPXPXPXPXPXPXPXPXPXPXPXPXPXLXPXLXvX5XlXHXHXVXVXVXVXBXmXVXzX}.I.+.Z z v v v v b O.A x h h ) vXKXPXPXPXPXPXPXPXPXPXPXPXPXPXPXPXPXPXPXPXPXPXPXKXPXPXPXPXKXPXPXPXPXPX",
"PXPXPXPXPXPXPXPXPXPXPXPXPXPXPXPXPXPXKXHXfX5XvXPXLXPXLXHXGXGXLXLXtXZ.n.A x v v v k j j j j h O o ,XAXPXKXPXPXPXPXPXPXPXPXPXPXPXPXPXPXPXPXPXKXPXPXPXPXPXPXPXPXPXPXPXPXPX",
"PXPXPXPXPXPXPXPXPXPXPXPXPXPXPXPXPXPXPXPXGXzXfXzXlXcXvXAXLXLXVX3X} @.O.Z h h h h j h h 4 + + z ) 8XGXLXPXPXPXPXPXPXPXPXPXPXPXPXPXPXPXPXPXPXPXPXPXPXPXPXPXPXPXPXPXPXPXPX",
"PXPXPXPXPXPXPXPXPXPXPXPXPXPXPXPXPXPXPXPXPXHXCXfXdXsXsXdX3X$X-.) h k h u & h + & f + h z ` =.<XlXHXPXPXPXPXPXPXPXPXPXPXPXPXPXPXPXPXPXPXPXPXPXPXPXPXPXPXPXPXPXPXPXPXPXPX",
"PXPXPXPXPXPXPXPXPXPXPXPXPXPXPXPXPXPXPXPXPXPXPXLXGXZXvXhX$X) h & & & + O + + + f j ) } &XzXAXKXKXPXPXPXPXPXPXPXPXPXPXPXPXPXPXPXPXPXPXPXPXPXPXPXPXPXPXPXPXPXPXPXPXPXPXPX",
"PXPXPXPXPXPXPXPXPXPXPXPXPXPXPXPXPXPXPXPXPXPXPXPXPXPXPXPXKXzX=.) j + z ) l & z  .<XAXPXPXPXPXPXPXPXPXPXPXPXPXPXPXPXPXPXPXPXPXPXPXPXPXPXPXPXPXPXPXPXPXPXPXPXPXPXPXPXPXPX",
"PXPXPXPXPXPXPXPXPXPXPXPXPXPXPXPXPXPXPXPXPXPXPXPXPXPXPXPXKXHXSXcX} O } *X@X@XcXGXHXJXJXKXPXPXKXPXPXPXPXPXPXPXPXPXPXPXPXPXPXPXPXPXPXPXPXPXPXPXPXPXPXPXPXPXPXPXPXPXPXPXPX",
"PXPXPXPXPXPXPXPXPXPXPXPXPXPXPXPXPXPXPXPXPXPXPXPXPXPXPXPXPXPXPXPXHXBXCXHXLXKXPXPXPXPXPXPXPXPXPXPXPXPXPXPXPXPXPXPXPXPXPXPXPXPXPXPXPXPXPXPXPXPXPXPXPXPXPXPXPXPXPXPXPXPXPX",
"PXPXPXPXPXPXPXPXPXPXPXPXPXPXPXPXPXPXPXPXPXPXPXPXPXPXPXPXPXPXPXPXPXLXLXLXPXPXPXPXPXPXPXPXPXPXPXPXPXPXPXPXPXPXPXPXPXPXPXPXPXPXPXPXPXPXPXPXPXPXPXPXPXPXPXPXPXPXPXPXPXPXPX",
"PXPXPXPXPXPXPXPXPXPXPXPXPXPXPXPXPXPXPXPXPXPXPXPXPXKXPXPXPXPXPXPXPXPXPXPXPXPXPXPXPXPXPXPXPXPXPXPXPXPXPXPXPXPXPXPXPXPXPXPXPXPXPXPXPXPXPXPXPXPXPXPXPXPXPXPXPXPXPXPXPXPXPX",
"PXPXPXPXPXPXPXPXPXPXPXPXPXPXPXPXPXPXPXPXPXPXPXPXPXPXPXPXPXPXPXPXPXPXPXPXPXPXPXPXPXPXPXPXPXPXPXPXPXPXPXPXPXPXPXPXPXPXPXPXPXPXPXPXPXPXPXPXPXPXPXPXPXPXPXPXPXPXPXPXPXPXPX",
"PXPXPXPXPXPXPXPXPXPXPXPXPXPXPXPXPXPXPXPXPXPXPXPXPXPXPXPXPXPXPXPXPXPXPXPXPXPXPXPXPXPXPXPXPXPXPXPXPXPXPXPXPXPXPXPXPXPXPXPXPXPXPXPXPXPXPXPXPXPXPXPXPXPXPXPXPXPXPXPXPXPXPX",
"PXPXPXPXPXPXPXPXPXPXPXPXPXPXPXPXPXPXPXPXPXPXPXPXPXPXPXPXPXPXPXPXPXPXPXPXPXPXPXPXPXPXPXPXPXPXPXPXPXPXPXPXPXPXPXPXPXPXPXPXPXPXPXPXPXPXPXPXPXPXPXPXPXPXPXPXPXPXPXPXPXPXPX",
"PXPXPXPXPXPXPXPXPXPXPXPXPXPXPXPXPXPXPXPXPXPXPXPXPXPXPXPXPXPXPXPXPXPXKXPXPXPXPXPXPXPXPXPXPXPXPXPXPXPXPXPXPXPXPXPXPXPXPXPXPXPXPXPXPXPXPXPXPXPXPXPXPXPXPXPXPXPXPXPXPXPXPX",
"PXPXPXPXPXPXPXPXPXPXPXPXPXPXPXPXPXPXPXPXPXPXPXPXPXPXPXPXPXPXPXPXPXPXPXPXPXPXPXPXPXPXPXPXPXPXPXPXPXPXPXPXPXPXPXPXPXPXPXPXPXPXPXPXPXPXPXPXPXPXPXPXPXPXPXPXPXPXPXPXPXPXPX",
"PXPXPXPXPXPXPXPXPXPXPXPXPXPXPXPXPXPXPXPXPXPXPXPXPXPXPXPXPXPXPXPXPXPXPXPXPXPXPXPXPXPXPXPXPXPXPXPXPXPXPXPXPXPXPXPXPXPXPXPXPXPXPXPXPXPXPXPXPXPXPXPXPXPXPXPXPXPXPXPXPXPXPX",
"PXPXPXPXPXPXPXPXPXPXPXPXPXPXPXPXPXPXPXPXPXPXPXPXPXPXPXPXPXPXPXPXPXPXPXPXPXPXPXPXPXPXPXPXPXPXPXPXPXPXPXPXPXPXPXPXPXPXPXPXPXPXPXPXPXPXPXPXPXPXPXPXPXPXPXPXPXPXPXPXPXPXPX",
"PXPXPXPXPXPXPXPXPXPXPXPXPXPXPXPXPXPXPXPXPXPXPXPXPXPXPXPXPXPXPXPXPXPXPXPXPXPXPXPXPXPXPXPXPXPXPXPXPXPXPXPXPXPXPXPXPXPXPXPXPXPXPXPXPXPXPXPXPXPXPXPXPXPXPXPXPXPXPXPXPXPXPX",
"PXPXPXPXPXPXPXPXPXPXPXPXPXPXPXPXPXPXPXPXPXPXPXPXPXPXPXPXPXPXPXPXPXPXPXPXPXPXPXPXPXPXPXPXPXPXPXPXPXPXPXPXPXPXPXPXPXPXPXPXPXPXPXPXPXPXPXPXPXPXPXPXPXPXPXPXPXPXPXPXPXPXPX"
};
