/* XPM */
static char *result[] = {
/* columns rows colors chars-per-pixel */
"92 148 45 1 ",
"  c #6BA82B",
". c gray5",
"X c #100B05",
"o c #191208",
"O c #111111",
"+ c #271400",
"@ c #331C00",
"# c #2C200F",
"$ c #3F2D14",
"% c gray15",
"& c #272727",
"* c #282828",
"= c #2F2F2F",
"- c gray19",
"; c #353535",
": c gray22",
"> c #393939",
", c #3E3E3E",
"< c #582F00",
"1 c #50231D",
"2 c #573E1C",
"3 c #643400",
"4 c #763E00",
"5 c #644821",
"6 c #715226",
"7 c #784530",
"8 c gray26",
"9 c #464646",
"0 c #484848",
"q c #4C4C4C",
"w c gray31",
"e c gray32",
"r c #5A5A5A",
"t c #6C6C6C",
"y c #834600",
"u c #945000",
"i c #A75800",
"p c #A95A00",
"a c #059300",
"s c #C48A5C",
"d c #E7AD63",
"f c #868686",
"g c #EBBF96",
"h c #FFDBBD",
"j c #B3BFCB",
/* pixels */
"                                                                                            ",
"                                                                                            ",
"                                                                                            ",
"                                                                                            ",
"                                                                                            ",
"                                ooooooooooooooooooooooooooooo                               ",
"                                ooooooooooooooooooooooooooooo                               ",
"                                ooooooooooooooooooooooooooooo                               ",
"               ###   ooooooooooo#########$$$$$$$$$$$$$$$$$###oooooo                         ",
"               ###   ooooooooooo#########$$$$$$$$$$$$$$$$$###oooooo                         ",
"               ###   ooooooooooo#########$$$$$$$$$$$$$$$$$###oooooo                         ",
"            ooo222$$$###ooo$$$$$######$$$22222222222222222222$$$###ooo                      ",
"            ooo222$$$###ooo$$$$$######$$$22222222222222222222$$$###ooo                      ",
"            ooo222$$$###ooo$$$$$######$$$22222222222222222222$$$###ooo                      ",
"            ooo###222222$$$ooo2222222222222222222222222222222222222###ooo                   ",
"            ooo###222222$$$ooo2222222222222222222222222222222222222###ooo                   ",
"            ooo###222222$$$ooo2222222222222222222222222222222222222###ooo                   ",
"               ooo###$$$555###ooooo555$$$222666$$$22222222222222222$$$ooo                   ",
"               ooo###$$$555###ooooo555$$$222666$$$22222222222222222$$$ooo                   ",
"               ooo###$$$555###ooooo555$$$222666$$$22222222222222222$$$ooo                   ",
"            ###222222555$$$###oo555222###222555###55522222222222222222###ooo                ",
"            ###222222555$$$###oo555222###222555###55522222222222222222###ooo                ",
"            ###222222555$$$###oo555222###222555###55522222222222222222###ooo                ",
"         ooo222###ooo555######$$666###XXX$$$222###$$$66622222222$$$222$$$ooo                ",
"         ooo222###ooo555######$$666###XXX$$$222###$$$66622222222$$$222$$$ooo                ",
"         ooo222###ooo555######$$666###XXX$$$222###$$$66622222222$$$222$$$ooo                ",
"            oooooo555$$$ooohhh22###ooohhh$$$###ooo$$$55522$$$222$$$222$$$###ooo             ",
"            oooooo555$$$ooohhh22###ooohhh$$$###ooo$$$55522$$$222$$$222$$$###ooo             ",
"               ooo222###hhhhhh22ooohhhhhh###oooXXX###22266$$$$$$###222$$$###ooo             ",
"               ooo222###hhhhhh22ooohhhhhh###oooXXX###22266$$$$$$###222$$$###ooo             ",
"               ooo222###hhhhhh22ooohhhhhh###oooXXX###22266$$$$$$###222$$$###ooo             ",
"               XXX222ooohhhhhh##hhhhhhhhhooohhhhhhooo$$$55###oooooo$$$$$$###ooo             ",
"               XXX222ooohhhhhh##hhhhhhhhhooohhhhhhooo$$$55###oooooo$$$$$$###ooo             ",
"               XXX222ooohhhhhh##hhhhhhhhhooohhhhhhooo$$$55###oooooo$$$$$$###ooo             ",
"                  ooodddhhhhhhhhhhhhhhhhhhhhggggggooo###22###oooooo$$$###$$$ooo             ",
"                  ooodddhhhhhhhhhhhhhhhhhhhhggggggooo###22###oooooo$$$###$$$ooo             ",
"                  ooodddhhhhhhhhhhhhhhhhhhhhggggggooo###22###oooooo$$$###$$$ooo             ",
"                  111ssshhhhhhhhhhhggg222$$$$$$gggggg###$$###gggooo###ooo$$$XXX             ",
"                  111ssshhhhhhhhhhhggg222$$$$$$gggggg###$$###gggooo###ooo$$$XXX             ",
"                  111ssshhhhhhhhhhhggg222$$$$$$gggggg###$$###gggooo###ooo$$$XXX             ",
"                     111gggggggg222$$$$$$$$$sssggggggooo##oooggggggooo$$$###XXX             ",
"                     111gggggggg222$$$$$$$$$sssggggggooo##oooggggggooo$$$###XXX             ",
"                     111gggggggg222$$$$$$$$$sssggggggooo##oooggggggooo$$$###XXX             ",
"                     111ggggggggsssOOOOOOjjj777gggggg.....gggggggggooo$$$oooXXX             ",
"                     111ggggggggsssOOOOOOjjj777gggggg.....gggggggggooo$$$oooXXX             ",
"                     111ggggggggsssOOOOOOjjj777gggggg.....gggggggggooo$$$oooXXX             ",
"                     111.............................gggoo...gggddd######oooXXX             ",
"                     111.............................gggoo...gggddd######oooXXX             ",
"                     111.............................gggoo...gggddd######oooXXX             ",
"                     111gggggggg...aaaaaajjj...gggggggggoogggdddsss###$$$XXX                ",
"                     111gggggggg...aaaaaajjj...gggggggggoogggdddsss###$$$XXX                ",
"                     111gggggggg...aaaaaajjj...gggggggggoogggdddsss###$$$XXX                ",
"                     ###222222hh...aaaaaajjj...gggggggggggdddsssooo###oooXXX                ",
"                     ###222222hh...aaaaaajjj...gggggggggggdddsssooo###oooXXX                ",
"                     ###$$$$$$22hhh.........hhhgggdddssssssssoooXXXoooXXX                   ",
"                     ###$$$$$$22hhh.........hhhgggdddssssssssoooXXXoooXXX                   ",
"                     ###$$$$$$22hhh.........hhhgggdddssssssssoooXXXoooXXX                   ",
"                        ###dddgg222222hhhggggggdddsss11111XXXoooXXX   XXX                   ",
"                        ###dddgg222222hhhggggggdddsss11111XXXoooXXX   XXX                   ",
"                        ###dddgg222222hhhggggggdddsss11111XXXoooXXX   XXX                   ",
"                           #####$$$$$$222sss111111111sss11XXXXXX                            ",
"                           #####$$$$$$222sss111111111sss11XXXXXX                            ",
"                           #####$$$$$$222sss111111111sss11XXXXXX                            ",
"                                ######111111%%%:::88833333XXX                               ",
"                                ######111111%%%:::88833333XXX                               ",
"                                ######111111%%%:::88833333XXX                               ",
"                                %%%%%%%%%:::000wwwwwwppppp333333                            ",
"                                %%%%%%%%%:::000wwwwwwppppp333333                            ",
"                                %%%%%%%%%:::000wwwwwwppppp333333                            ",
"                           %%%33888000000wwwwwwwwwwww000ppuuu333                            ",
"                           %%%33888000000wwwwwwwwwwww000ppuuu333                            ",
"                           %%%33888000000wwwwwwwwwwww000ppuuu333                            ",
"                        %%%888yy000wwwwwwwwwwwwwww000wwwwwwww:::%%%                         ",
"                        %%%888yy000wwwwwwwwwwwwwww000wwwwwwww:::%%%                         ",
"                        %%%888yy000wwwwwwwwwwwwwww000wwwwwwww:::%%%                         ",
"                        %%%888uuwwwwwwwwwwwwwww000000wwwwwwww888%%%                         ",
"                        %%%888uuwwwwwwwwwwwwwww000000wwwwwwww888%%%                         ",
"                        %%%888uuwwwwwwwwwwwwwww000000wwwwwwww888%%%                         ",
"                        ---888pppppwwwwwwwwwwww000888wwwwwwww000---                         ",
"                        ---888pppppwwwwwwwwwwww000888wwwwwwww000---                         ",
"                     ---:::888pppppppppppppppppuuu:::wwwwwwwwwww:::                         ",
"                     ---:::888pppppppppppppppppuuu:::wwwwwwwwwww:::                         ",
"                     ---:::888pppppppppppppppppuuu:::wwwwwwwwwww:::                         ",
"                     ---888888pppppppppppppppppuuu%%%000wwwwwwww:::%%%                      ",
"                     ---888888pppppppppppppppppuuu%%%000wwwwwwww:::%%%                      ",
"                     ---888888pppppppppppppppppuuu%%%000wwwwwwww:::%%%                      ",
"                     :::888888--ppppppppppppuuuuuu%%%888wwwwwwww000%%%                      ",
"                     :::888888--ppppppppppppuuuuuu%%%888wwwwwwww000%%%                      ",
"                     :::888888--ppppppppppppuuuuuu%%%888wwwwwwww000%%%                      ",
"                  ---:::888888--www>>>>>>>>>>>>>>>:::%%%00wwwwww000---                      ",
"                  ---:::888888--www>>>>>>>>>>>>>>>:::%%%00wwwwww000---                      ",
"                  ---:::888888--www>>>>>>>>>>>>>>>:::%%%00wwwwww000---                      ",
"                  ---888:::888--%%%rrrrrrrrrrrrrrr000%%%88wwwwww000---                      ",
"                  ---888:::888--%%%rrrrrrrrrrrrrrr000%%%88wwwwww000---                      ",
"                  ---888:::888--%%%rrrrrrrrrrrrrrr000%%%88wwwwww000---                      ",
"                  %%%-----------%%%rrrrrrrrrrrr000000%%%::000000888%%%                      ",
"                  %%%-----------%%%rrrrrrrrrrrr000000%%%::000000888%%%                      ",
"                  %%%-----------%%%rrrrrrrrrrrr000000%%%::000000888%%%                      ",
"                  %%%888000000%%%%%rrr>>>%%%%%%%%%%%%%%%::888888:::%%%                      ",
"                  %%%888000000%%%%%rrr>>>%%%%%%%%%%%%%%%::888888:::%%%                      ",
"                  %%%888000000%%%%%rrr>>>%%%%%%%%%%%%%%%::888888:::%%%                      ",
"                     %%%888888%%%%%>>>iiiiiiiii444<<<%%%%%---------%%%                      ",
"                     %%%888888%%%%%>>>iiiiiiiii444<<<%%%%%---------%%%                      ",
"                        %%%%%%@@<<<iiiiiiiiiiiiiii<<<%%%wwwwwwww888%%%                      ",
"                        %%%%%%@@<<<iiiiiiiiiiiiiii<<<%%%wwwwwwww888%%%                      ",
"                        %%%%%%@@<<<iiiiiiiiiiiiiii<<<%%%wwwwwwww888%%%                      ",
"                              @@eeefffiiiiiiiiiiii@@@%%%88000888%%%                         ",
"                              @@eeefffiiiiiiiiiiii@@@%%%88000888%%%                         ",
"                              @@eeefffiiiiiiiiiiii@@@%%%88000888%%%                         ",
"                              @@eeeffffffiiiiii444@@@@@@%%%%%%%%@@@                         ",
"                              @@eeeffffffiiiiii444@@@@@@%%%%%%%%@@@                         ",
"                              @@eeeffffffiiiiii444@@@@@@%%%%%%%%@@@                         ",
"                           @@@<<iiieeefffiiiiii<<<@@@@@@&&@@@@@@@@@@@@                      ",
"                           @@@<<iiieeefffiiiiii<<<@@@@@@&&@@@@@@@@@@@@                      ",
"                           @@@<<iiieeefffiiiiii<<<@@@@@@&&@@@@@@@@@@@@                      ",
"                           @@@<<ttt+++iiiiii444@@@@@@&&&&&&&&@@@@@@@@@@@@                   ",
"                           @@@<<ttt+++iiiiii444@@@@@@&&&&&&&&@@@@@@@@@@@@                   ",
"                           @@@<<ttt+++iiiiii444@@@@@@&&&&&&&&@@@@@@@@@@@@                   ",
"                           @@@tt+++fffiiiiii<<<@@@   &&&&&@@@@@@&&&@@@@@@@@@                ",
"                           @@@tt+++fffiiiiii<<<@@@   &&&&&@@@@@@&&&@@@@@@@@@                ",
"                           @@@tt+++fffiiiiii<<<@@@   &&&&&@@@@@@&&&@@@@@@@@@                ",
"                        @@@<<<++fffiiiiiiiii@@@@@@      @@@@@&&&@@@&&&@@@@@@===             ",
"                        @@@<<<++fffiiiiiiiii@@@@@@      @@@@@&&&@@@&&&@@@@@@===             ",
"                        @@@<<<++fffiiiiiiiii@@@@@@      @@@@@&&&@@@&&&@@@@@@===             ",
"                     ===@@@44444iiiiiiiiiiii@@@           @@@@@@&&&@@@@@@;;;***             ",
"                     ===@@@44444iiiiiiiiiiii@@@           @@@@@@&&&@@@@@@;;;***             ",
"                     ===@@@44444iiiiiiiiiiii@@@           @@@@@@&&&@@@@@@;;;***             ",
"                  ,,,999@@@@@@44444444444444@@@         ========@@@@@@;;;===***             ",
"                  ,,,999@@@@@@44444444444444@@@         ========@@@@@@;;;===***             ",
"               ,,,999qqqqqq999@@@@@<<<<<<@@@            ==;;;,,,,,,;;;===***                ",
"               ,,,999qqqqqq999@@@@@<<<<<<@@@            ==;;;,,,,,,;;;===***                ",
"               ,,,999qqqqqq999@@@@@<<<<<<@@@            ==;;;,,,,,,;;;===***                ",
"               ***===999qqqqqq,,;;;@@@@@@@@@              ======*********                   ",
"               ***===999qqqqqq,,;;;@@@@@@@@@              ======*********                   ",
"               ***===999qqqqqq,,;;;@@@@@@@@@              ======*********                   ",
"                  *********,,,;;;;;======                                                   ",
"                  *********,,,;;;;;======                                                   ",
"                  *********,,,;;;;;======                                                   ",
"                           ***********                                                      ",
"                           ***********                                                      ",
"                           ***********                                                      ",
"                                                                                            ",
"                                                                                            ",
"                                                                                            ",
"                                                                                            ",
"                                                                                            ",
"                                                                                            ",
"                                                                                            "
};
