/* XPM */
static char *result[] = {
/* columns rows colors chars-per-pixel */
"92 148 42 1 ",
"  c #6BA82B",
". c gray5",
"X c #100B05",
"o c #191208",
"O c #111111",
"+ c #271400",
"@ c #331C00",
"# c #2C200F",
"$ c #3F2D14",
"% c gray15",
"& c #272727",
"* c #282828",
"= c #2F2F2F",
"- c gray19",
"; c #353535",
": c gray22",
"> c #393939",
", c #3E3E3E",
"< c #582F00",
"1 c #50231D",
"2 c #573E1C",
"3 c #643400",
"4 c #763E00",
"5 c #644821",
"6 c #715226",
"7 c #784530",
"8 c gray26",
"9 c #484848",
"0 c #4C4C4C",
"q c gray31",
"w c #5A5A5A",
"e c #6C6C6C",
"r c #834600",
"t c #945000",
"y c #A75800",
"u c #A95A00",
"i c #059300",
"p c #C48A5C",
"a c #E7AD63",
"s c #EBBF96",
"d c #FFDBBD",
"f c #B3BFCB",
/* pixels */
"                                                                                            ",
"                                                                                            ",
"                                   ooooooooooooooooooooooooooooo                            ",
"                                   ooooooooooooooooooooooooooooo                            ",
"                                   ooooooooooooooooooooooooooooo                            ",
"                  ###   ooooooooooo#########$$$$$$$$$$$$$$$$$###oooooo                      ",
"                  ###   ooooooooooo#########$$$$$$$$$$$$$$$$$###oooooo                      ",
"                  ###   ooooooooooo#########$$$$$$$$$$$$$$$$$###oooooo                      ",
"               ooo222$$$###ooo$$$$$######$$$22222222222222222222$$$###ooo                   ",
"               ooo222$$$###ooo$$$$$######$$$22222222222222222222$$$###ooo                   ",
"               ooo222$$$###ooo$$$$$######$$$22222222222222222222$$$###ooo                   ",
"               ooo###222222$$$ooo2222222222222222222222222222222222222###ooo                ",
"               ooo###222222$$$ooo2222222222222222222222222222222222222###ooo                ",
"               ooo###222222$$$ooo2222222222222222222222222222222222222###ooo                ",
"                  ooo###$$$555###ooooo555$$$222666$$$22222222222222222$$$ooo                ",
"                  ooo###$$$555###ooooo555$$$222666$$$22222222222222222$$$ooo                ",
"                  ooo###$$$555###ooooo555$$$222666$$$22222222222222222$$$ooo                ",
"               ###222222555$$$###oo555222###222555###55522222222222222222###ooo             ",
"               ###222222555$$$###oo555222###222555###55522222222222222222###ooo             ",
"               ###222222555$$$###oo555222###222555###55522222222222222222###ooo             ",
"            ooo222###ooo555######$$666###XXX$$$222###$$$66622222222$$$222$$$ooo             ",
"            ooo222###ooo555######$$666###XXX$$$222###$$$66622222222$$$222$$$ooo             ",
"            ooo222###ooo555######$$666###XXX$$$222###$$$66622222222$$$222$$$ooo             ",
"               oooooo555$$$oooddd22###oooddd$$$###ooo$$$55522$$$222$$$222$$$###ooo          ",
"               oooooo555$$$oooddd22###oooddd$$$###ooo$$$55522$$$222$$$222$$$###ooo          ",
"                  ooo222###dddddd22ooodddddd###oooXXX###22266$$$$$$###222$$$###ooo          ",
"                  ooo222###dddddd22ooodddddd###oooXXX###22266$$$$$$###222$$$###ooo          ",
"                  ooo222###dddddd22ooodddddd###oooXXX###22266$$$$$$###222$$$###ooo          ",
"                  XXX222ooodddddd##dddddddddoooddddddooo$$$55###oooooo$$$$$$###ooo          ",
"                  XXX222ooodddddd##dddddddddoooddddddooo$$$55###oooooo$$$$$$###ooo          ",
"                  XXX222ooodddddd##dddddddddoooddddddooo$$$55###oooooo$$$$$$###ooo          ",
"                     oooaaaddddddddddddddddddddssssssooo###22###oooooo$$$###$$$ooo          ",
"                     oooaaaddddddddddddddddddddssssssooo###22###oooooo$$$###$$$ooo          ",
"                     oooaaaddddddddddddddddddddssssssooo###22###oooooo$$$###$$$ooo          ",
"                     111pppdddddddddddsss222$$$$$$ssssss###$$###sssooo###ooo$$$XXX          ",
"                     111pppdddddddddddsss222$$$$$$ssssss###$$###sssooo###ooo$$$XXX          ",
"                     111pppdddddddddddsss222$$$$$$ssssss###$$###sssooo###ooo$$$XXX          ",
"                        111ssssssss222$$$$$$$$$pppssssssooo##ooossssssooo$$$###XXX          ",
"                        111ssssssss222$$$$$$$$$pppssssssooo##ooossssssooo$$$###XXX          ",
"                        111ssssssss222$$$$$$$$$pppssssssooo##ooossssssooo$$$###XXX          ",
"                        111sssssssspppOOOOOOfff777ssssss.....sssssssssooo$$$oooXXX          ",
"                        111sssssssspppOOOOOOfff777ssssss.....sssssssssooo$$$oooXXX          ",
"                        111sssssssspppOOOOOOfff777ssssss.....sssssssssooo$$$oooXXX          ",
"                        111.............................sssoo...sssaaa######oooXXX          ",
"                        111.............................sssoo...sssaaa######oooXXX          ",
"                        111.............................sssoo...sssaaa######oooXXX          ",
"                        111ssssssss...iiiiiifff...sssssssssoosssaaappp###$$$XXX             ",
"                        111ssssssss...iiiiiifff...sssssssssoosssaaappp###$$$XXX             ",
"                        111ssssssss...iiiiiifff...sssssssssoosssaaappp###$$$XXX             ",
"                        ###222222dd...iiiiiifff...sssssssssssaaapppooo###oooXXX             ",
"                        ###222222dd...iiiiiifff...sssssssssssaaapppooo###oooXXX             ",
"                        ###$$$$$$22ddd.........dddsssaaappppppppoooXXXoooXXX                ",
"                        ###$$$$$$22ddd.........dddsssaaappppppppoooXXXoooXXX                ",
"                        ###$$$$$$22ddd.........dddsssaaappppppppoooXXXoooXXX                ",
"                           ###aaass222222dddssssssaaappp11111XXXoooXXX   XXX                ",
"                           ###aaass222222dddssssssaaappp11111XXXoooXXX   XXX                ",
"                           ###aaass222222dddssssssaaappp11111XXXoooXXX   XXX                ",
"                              #####$$$$$$222ppp111111111ppp11XXXXXX                         ",
"                              #####$$$$$$222ppp111111111ppp11XXXXXX                         ",
"                              #####$$$$$$222ppp111111111ppp11XXXXXX                         ",
"                                   ######111%%%%%%:::88833333XXX                            ",
"                                   ######111%%%%%%:::88833333XXX                            ",
"                                   ######111%%%%%%:::88833333XXX                            ",
"                                   %%%%%%%%%999qqqqqqqqquuuuu333                            ",
"                                   %%%%%%%%%999qqqqqqqqquuuuu333                            ",
"                                   %%%%%%%%%999qqqqqqqqquuuuu333                            ",
"                                 33------999qqq999999qqqqqquuttt333                         ",
"                                 33------999qqq999999qqqqqquuttt333                         ",
"                                 33------999qqq999999qqqqqquuttt333                         ",
"                                 rr::::::qqq999qqqqqq999qqqqqtttttt333                      ",
"                                 rr::::::qqq999qqqqqq999qqqqqtttttt333                      ",
"                                 rr::::::qqq999qqqqqq999qqqqqtttttt333                      ",
"                                 tt999999999888qqqqqqqqq999qq---ttt333                      ",
"                                 tt999999999888qqqqqqqqq999qq---ttt333                      ",
"                                 tt999999999888qqqqqqqqq999qq---ttt333                      ",
"                                 uuuuuttt:::999qqqqqqqqq99999---ttt333                      ",
"                                 uuuuuttt:::999qqqqqqqqq99999---ttt333                      ",
"                                 uuuuuttt:::qqqqqqqqqqqq888ttuuuttt333                      ",
"                                 uuuuuttt:::qqqqqqqqqqqq888ttuuuttt333                      ",
"                                 uuuuuttt:::qqqqqqqqqqqq888ttuuuttt333                      ",
"                                   ttt:::999qqqqqqqqq999:::ttuuuttt333                      ",
"                                   ttt:::999qqqqqqqqq999:::ttuuuttt333                      ",
"                                   ttt:::999qqqqqqqqq999:::ttuuuttt333                      ",
"                                   qqq888qqqqqqqqqqqq888:::>>---%%%333                      ",
"                                   qqq888qqqqqqqqqqqq888:::>>---%%%333                      ",
"                                   qqq888qqqqqqqqqqqq888:::>>---%%%333                      ",
"                                   :::999qqqqqqqqqqqq:::wwwwwwww---%%%                      ",
"                                   :::999qqqqqqqqqqqq:::wwwwwwww---%%%                      ",
"                                   :::999qqqqqqqqqqqq:::wwwwwwww---%%%                      ",
"                                   888qqqqqqqqqqqq888---wwwwwwww---%%%                      ",
"                                   888qqqqqqqqqqqq888---wwwwwwww---%%%                      ",
"                                   888qqqqqqqqqqqq888---wwwwwwww---%%%                      ",
"                                 --:::999qqqqqq888---::::::::%%%%%%@@@                      ",
"                                 --:::999qqqqqq888---::::::::%%%%%%@@@                      ",
"                                 --:::999qqqqqq888---::::::::%%%%%%@@@                      ",
"                              %%%88%%%:::888888%%%-----------444<<<@@@                      ",
"                              %%%88%%%:::888888%%%-----------444<<<@@@                      ",
"                              %%%88%%%:::888888%%%-----------444<<<@@@                      ",
"                              %%%88qqqqqq%%%%%%%%%444yyyyyyyyyyy<<<@@@                      ",
"                              %%%88qqqqqq%%%%%%%%%444yyyyyyyyyyy<<<@@@                      ",
"                                 %%999qqq888<<<<<<yyyyyyyyyyyyyy<<<@@@                      ",
"                                 %%999qqq888<<<<<<yyyyyyyyyyyyyy<<<@@@                      ",
"                                 %%999qqq888<<<<<<yyyyyyyyyyyyyy<<<@@@                      ",
"                                 @@@@@@@@@@@<<<<<<yyyeeeeeeyyyyy444<<<                      ",
"                                 @@@@@@@@@@@<<<<<<yyyeeeeeeyyyyy444<<<                      ",
"                                 @@@@@@@@@@@<<<<<<yyyeeeeeeyyyyy444<<<                      ",
"                              &&&&&@@@@@@@@@@@@<<<qqqeeeeee>>yyy444<<<                      ",
"                              &&&&&@@@@@@@@@@@@<<<qqqeeeeee>>yyy444<<<                      ",
"                              &&&&&@@@@@@@@@@@@<<<qqqeeeeee>>yyy444<<<                      ",
"                              &&&&&&&&@@@@@@@@@qqqqqqqqq>>>yyyyy444<<<@@@                   ",
"                              &&&&&&&&@@@@@@@@@qqqqqqqqq>>>yyyyy444<<<@@@                   ",
"                              &&&&&&&&@@@@@@@@@qqqqqqqqq>>>yyyyy444<<<@@@                   ",
"                              @@@&&@@@@@@@@@@@@@@@>>>>>>444yy444<<<<<<<<<@@@                ",
"                              @@@&&@@@@@@@@@@@@@@@>>>>>>444yy444<<<<<<<<<@@@                ",
"                              @@@&&@@@@@@@@@@@@@@@>>>>>>444yy444<<<<<<<<<@@@                ",
"                              &&&@@@@@@@@@@@@@@   @@@@@@<<<<<<<<<<<<<<<<<<<<@@@             ",
"                              &&&@@@@@@@@@@@@@@   @@@@@@<<<<<<<<<<<<<<<<<<<<@@@             ",
"                              &&&@@@@@@@@@@@@@@   @@@@@@<<<<<<<<<<<<<<<<<<<<@@@             ",
"                           &&&@@@&&@@@@@@@@@@@@      @@@@@@++eee<<<<<<<<<<<<@@@             ",
"                           &&&@@@&&@@@@@@@@@@@@      @@@@@@++eee<<<<<<<<<<<<@@@             ",
"                           &&&@@@&&@@@@@@@@@@@@      @@@@@@++eee<<<<<<<<<<<<@@@             ",
"                           @@@&&&@@@@@@@@@@@@@@         @@@>>+++eee<<<<<<<<<<<<             ",
"                           @@@&&&@@@@@@@@@@@@@@         @@@>>+++eee<<<<<<<<<<<<             ",
"                           @@@&&&@@@@@@@@@@@@@@         @@@>>+++eee<<<<<<<<<<<<             ",
"                        ===@@@@@@@@@@@@@@@@@@@@            @@>>>+++<<<<<<444@@@===          ",
"                        ===@@@@@@@@@@@@@@@@@@@@            @@>>>+++<<<<<<444@@@===          ",
"                     ***===;;;;;;@@@@@@@@@@@               @@@@@@@@444444<<<;;;===          ",
"                     ***===;;;;;;@@@@@@@@@@@               @@@@@@@@444444<<<;;;===          ",
"                     ***===;;;;;;@@@@@@@@@@@               @@@@@@@@444444<<<;;;===          ",
"                     ***;;;,,,,,,;;;;;;;;===               @@<<<yyyyyy,,,;;;===***          ",
"                     ***;;;,,,,,,;;;;;;;;===               @@<<<yyyyyy,,,;;;===***          ",
"                     ***;;;,,,,,,;;;;;;;;===               @@<<<yyyyyy,,,;;;===***          ",
"                        *****************               ***;;,,,000000;;;===***             ",
"                        *****************               ***;;,,,000000;;;===***             ",
"                        *****************               ***;;,,,000000;;;===***             ",
"                                                        ***=====************                ",
"                                                        ***=====************                ",
"                                                        ***=====************                ",
"                                                                                            ",
"                                                                                            ",
"                                                                                            ",
"                                                                                            ",
"                                                                                            ",
"                                                                                            ",
"                                                                                            ",
"                                                                                            ",
"                                                                                            ",
"                                                                                            "
};
