/* XPM */
static char *result[] = {
/* columns rows colors chars-per-pixel */
"92 148 43 1 ",
"  c #6BA82B",
". c gray5",
"X c #100B05",
"o c #191208",
"O c #111111",
"+ c #271400",
"@ c #2C1800",
"# c #2C200F",
"$ c #3F2D14",
"% c gray15",
"& c #282828",
"* c #2F2F2F",
"= c gray19",
"- c #353535",
"; c gray22",
": c #393939",
"> c #3E3E3E",
", c #4C2800",
"< c #50231D",
"1 c #573E1C",
"2 c #643400",
"3 c #663600",
"4 c #644821",
"5 c #715226",
"6 c #784530",
"7 c gray26",
"8 c #464646",
"9 c #484848",
"0 c gray31",
"q c #555555",
"w c #5A5A5A",
"e c #6C6C6C",
"r c #834600",
"t c #904C00",
"y c #945000",
"u c #A95A00",
"i c #059300",
"p c #C48A5C",
"a c #E7AD63",
"s c #868686",
"d c #EBBF96",
"f c #FFDBBD",
"g c #B3BFCB",
/* pixels */
"                                                                                            ",
"                                                                                            ",
"                                                                                            ",
"                               ooooooooooooooooooooooooooooo                                ",
"                               ooooooooooooooooooooooooooooo                                ",
"                               ooooooooooooooooooooooooooooo                                ",
"             ###   oooooooooooo########$$$$$$$$$$$$$$$$$$###ooooo                           ",
"             ###   oooooooooooo########$$$$$$$$$$$$$$$$$$###ooooo                           ",
"             ###   oooooooooooo########$$$$$$$$$$$$$$$$$$###ooooo                           ",
"           oo111$$$###ooo$$$$$$######$$111111111111111111111$$$##ooo                        ",
"           oo111$$$###ooo$$$$$$######$$111111111111111111111$$$##ooo                        ",
"           oo111$$$###ooo$$$$$$######$$111111111111111111111$$$##ooo                        ",
"           oo###111111$$$ooo1111111111111111111111111111111111111###ooo                     ",
"           oo###111111$$$ooo1111111111111111111111111111111111111###ooo                     ",
"           oo###111111$$$ooo1111111111111111111111111111111111111###ooo                     ",
"             ooo###$$$444###oooooo444$$111555$$$11111111111111111$$$ooo                     ",
"             ooo###$$$444###oooooo444$$111555$$$11111111111111111$$$ooo                     ",
"             ooo###$$$444###oooooo444$$111555$$$11111111111111111$$$ooo                     ",
"           ##111111444$$$###ooo444111##111444###44411111111111111111###ooo                  ",
"           ##111111444$$$###ooo444111##111444###44411111111111111111###ooo                  ",
"           ##111111444$$$###ooo444111##111444###44411111111111111111###ooo                  ",
"        ooo11###ooo444######$$$555###XX$$$111###$$$555111111111$$111$$$ooo                  ",
"        ooo11###ooo444######$$$555###XX$$$111###$$$555111111111$$111$$$ooo                  ",
"        ooo11###ooo444######$$$555###XX$$$111###$$$555111111111$$111$$$ooo                  ",
"           ooooo444$$$ooofff111###oooff$$$###ooo$$$444111$$$111$$111$$$###ooo               ",
"           ooooo444$$$ooofff111###oooff$$$###ooo$$$444111$$$111$$111$$$###ooo               ",
"           ooooo444$$$ooofff111###oooff$$$###ooo$$$444111$$$111$$111$$$###ooo               ",
"             ooo111###ffffff111ooofffff###oooXXX###111555$$$$$$##111$$$###ooo               ",
"             ooo111###ffffff111ooofffff###oooXXX###111555$$$$$$##111$$$###ooo               ",
"             XXX111oooffffff###ffffffffoooffffffooo$$$444###ooooo$$$$$$###ooo               ",
"             XXX111oooffffff###ffffffffoooffffffooo$$$444###ooooo$$$$$$###ooo               ",
"             XXX111oooffffff###ffffffffoooffffffooo$$$444###ooooo$$$$$$###ooo               ",
"                oooaaaffffffffffffffffffffddddddooo###111###ooooo$$$###$$$ooo               ",
"                oooaaaffffffffffffffffffffddddddooo###111###ooooo$$$###$$$ooo               ",
"                oooaaaffffffffffffffffffffddddddooo###111###ooooo$$$###$$$ooo               ",
"                <<<pppffffffffffffddd11$$$$$$dddddd###$$$###dddoo###ooo$$$XXX               ",
"                <<<pppffffffffffffddd11$$$$$$dddddd###$$$###dddoo###ooo$$$XXX               ",
"                <<<pppffffffffffffddd11$$$$$$dddddd###$$$###dddoo###ooo$$$XXX               ",
"                   <<<ddddddddd111$$$$$$$$pppddddddooo###ooodddddooo$$$###XXX               ",
"                   <<<ddddddddd111$$$$$$$$pppddddddooo###ooodddddooo$$$###XXX               ",
"                   <<<ddddddddd111$$$$$$$$pppddddddooo###ooodddddooo$$$###XXX               ",
"                   <<<dddddddddpppOOOOOggg666dddddd......ddddddddooo$$$oooXXX               ",
"                   <<<dddddddddpppOOOOOggg666dddddd......ddddddddooo$$$oooXXX               ",
"                   <<<dddddddddpppOOOOOggg666dddddd......ddddddddooo$$$oooXXX               ",
"                   <<<.............................dddooo...dddaa######oooXXX               ",
"                   <<<.............................dddooo...dddaa######oooXXX               ",
"                   <<<.............................dddooo...dddaa######oooXXX               ",
"                   <<<ddddddddd...iiiiiggg...dddddddddooodddaaapp###$$$XXX                  ",
"                   <<<ddddddddd...iiiiiggg...dddddddddooodddaaapp###$$$XXX                  ",
"                   <<<ddddddddd...iiiiiggg...dddddddddooodddaaapp###$$$XXX                  ",
"                   ###111111fff...iiiiiggg...ddddddddddddaaapppoo###oooXXX                  ",
"                   ###111111fff...iiiiiggg...ddddddddddddaaapppoo###oooXXX                  ",
"                   ###111111fff...iiiiiggg...ddddddddddddaaapppoo###oooXXX                  ",
"                   ###$$$$$$111fff........fffdddaaapppppppppoooXXoooXXX                     ",
"                   ###$$$$$$111fff........fffdddaaapppppppppoooXXoooXXX                     ",
"                      ###aaaddd111111ffddddddaaappp<<<<<<XXXoooXX   XXX                     ",
"                      ###aaaddd111111ffddddddaaappp<<<<<<XXXoooXX   XXX                     ",
"                      ###aaaddd111111ffddddddaaappp<<<<<<XXXoooXX   XXX                     ",
"                         ######$$$$$$11ppp<<<<<<<<<ppp<<<XXXXXX                             ",
"                         ######$$$$$$11ppp<<<<<<<<<ppp<<<XXXXXX                             ",
"                         ######$$$$$$11ppp<<<<<<<<<ppp<<<XXXXXX                             ",
"                               ######<<%%%%%%===;;;222222XXX                                ",
"                               ######<<%%%%%%===;;;222222XXX                                ",
"                               ######<<%%%%%%===;;;222222XXX                                ",
"                               %%%%%%==777999000000uuuuuu222222                             ",
"                               %%%%%%==777999000000uuuuuu222222                             ",
"                               %%%%%%==777999000000uuuuuu222222                             ",
"                            222;;;;;;99000000000000000uuuyyy222                             ",
"                            222;;;;;;99000000000000000uuuyyy222                             ",
"                            222;;;;;;99000000000000000uuuyyy222                             ",
"                            rrr77777700000000999777999999yyy222                             ",
"                            rrr77777700000000999777999999yyy222                             ",
"                            rrr77777700000000999777999999yyy222                             ",
"                            yyy99999900000999777999000000777yyy22                           ",
"                            yyy99999900000999777999000000777yyy22                           ",
"                            yyy99999900000999777999000000777yyy22                           ",
"                            uuuuuuuuu00000777===000000000999yyy22                           ",
"                            uuuuuuuuu00000777===000000000999yyy22                           ",
"                            uuuuuuuuu00000777===000000000999yyy22                           ",
"                            uuuuuuuuuuuyyy;;;;;;000000000999yyy22                           ",
"                            uuuuuuuuuuuyyy;;;;;;000000000999yyy22                           ",
"                               uuuuuuuuyyy===777000000000777yyy22                           ",
"                               uuuuuuuuyyy===777000000000777yyy22                           ",
"                               uuuuuuuuyyy===777000000000777yyy22                           ",
"                               000uuuyyyyy%%%999000000000;;;yyy22                           ",
"                               000uuuyyyyy%%%999000000000;;;yyy22                           ",
"                               000uuuyyyyy%%%999000000000;;;yyy22                           ",
"                               000::::::::%%%000000000999%%%%%%22                           ",
"                               000::::::::%%%000000000999%%%%%%22                           ",
"                               000::::::::%%%000000000999%%%%%%22                           ",
"                               %%%wwwwwwww;;;000000000777%%%===%%                           ",
"                               %%%wwwwwwww;;;000000000777%%%===%%                           ",
"                               %%%wwwwwwww;;;000000000777%%%===%%                           ",
"                               %%%wwwww:::999000000000;;;%%%===%%                           ",
"                               %%%wwwww:::999000000000;;;%%%===%%                           ",
"                               %%%wwwww:::999000000000;;;%%%===%%                           ",
"                               %%%www::%%%999000000000%%%%%%%%%                             ",
"                               %%%www::%%%999000000000%%%%%%%%%                             ",
"                               %%%www::%%%999000000000%%%%%%%%%                             ",
"                               %%%:::rr%%%;;;999999777%%%,,,@@@                             ",
"                               %%%:::rr%%%;;;999999777%%%,,,@@@                             ",
"                               %%%:::rr%%%;;;999999777%%%,,,@@@                             ",
"                               333ttt;;777%%%;;;;;;;;;%%%,,,@@@                             ",
"                               333ttt;;777%%%;;;;;;;;;%%%,,,@@@                             ",
"                               ,,,333;;999000000%%%%%%,,,,,,                                ",
"                               ,,,333;;999000000%%%%%%,,,,,,                                ",
"                               ,,,333;;999000000%%%%%%,,,,,,                                ",
"                               ,,,333;;777999999777%%%,,,@@@                                ",
"                               ,,,333;;777999999777%%%,,,@@@                                ",
"                               ,,,333;;777999999777%%%,,,@@@                                ",
"                                  00000%%%%%%%%%%%%,,,,,,@@@                                ",
"                                  00000%%%%%%%%%%%%,,,,,,@@@                                ",
"                                  00000%%%%%%%%%%%%,,,,,,@@@                                ",
"                                  00000000ttt333,,,,,,,,,@@@                                ",
"                                  00000000ttt333,,,,,,,,,@@@                                ",
"                                  00000000ttt333,,,,,,,,,@@@                                ",
"                                     00:::tttttt333,,,,,,,,,                                ",
"                                     00:::tttttt333,,,,,,,,,                                ",
"                                     00:::tttttt333,,,,,,,,,                                ",
"                                     ::+++333tttttt,,,,,,,,,@@@                             ",
"                                     ::+++333tttttt,,,,,,,,,@@@                             ",
"                                     ::+++333tttttt,,,,,,,,,@@@                             ",
"                                     @@eeessstttttt333,,,,,,@@@                             ",
"                                     @@eeessstttttt333,,,,,,@@@                             ",
"                                     @@eeessstttttt333,,,,,,@@@                             ",
"                                       +++333tttttt333,,,,,,,,,                             ",
"                                       +++333tttttt333,,,,,,,,,                             ",
"                                       +++333tttttt333,,,,,,,,,                             ",
"                                       eeesssttttttttt333,,,,,,                             ",
"                                       eeesssttttttttt333,,,,,,                             ",
"                                       +++tttttttttttt333,,,,,,                             ",
"                                       +++tttttttttttt333,,,,,,                             ",
"                                       +++tttttttttttt333,,,,,,                             ",
"                                     &&--->>>,,,,,,,,,---***&&&                             ",
"                                     &&--->>>,,,,,,,,,---***&&&                             ",
"                                     &&--->>>,,,,,,,,,---***&&&                             ",
"                                  &&&--qqqqqq888888>>>>>>---&&&                             ",
"                                  &&&--qqqqqq888888>>>>>>---&&&                             ",
"                                  &&&--qqqqqq888888>>>>>>---&&&                             ",
"                                  &&&--------------*********&&&                             ",
"                                  &&&--------------*********&&&                             ",
"                                  &&&--------------*********&&&                             ",
"                                                                                            ",
"                                                                                            ",
"                                                                                            ",
"                                                                                            ",
"                                                                                            ",
"                                                                                            "
};
